<?xml version="1.0" encoding="utf-8" standalone="no"?>
<!DOCTYPE svg PUBLIC "-//W3C//DTD SVG 1.1//EN"
  "http://www.w3.org/Graphics/SVG/1.1/DTD/svg11.dtd">
<svg xmlns:xlink="http://www.w3.org/1999/xlink" width="576pt" height="360pt" viewBox="0 0 576 360" xmlns="http://www.w3.org/2000/svg" version="1.1">
 <metadata>
  <rdf:RDF xmlns:dc="http://purl.org/dc/elements/1.1/" xmlns:cc="http://creativecommons.org/ns#" xmlns:rdf="http://www.w3.org/1999/02/22-rdf-syntax-ns#">
   <cc:Work>
    <dc:type rdf:resource="http://purl.org/dc/dcmitype/StillImage"/>
    <dc:date>2026-05-20T08:32:51.312596</dc:date>
    <dc:format>image/svg+xml</dc:format>
    <dc:creator>
     <cc:Agent>
      <dc:title>Matplotlib v3.10.6, https://matplotlib.org/</dc:title>
     </cc:Agent>
    </dc:creator>
   </cc:Work>
  </rdf:RDF>
 </metadata>
 <defs>
  <style type="text/css">*{stroke-linejoin: round; stroke-linecap: butt}</style>
 </defs>
 <g id="figure_1">
  <g id="patch_1">
   <path d="M 0 360 
L 576 360 
L 576 0 
L 0 0 
z
" style="fill: #ffffff"/>
  </g>
  <g id="axes_1">
   <g id="patch_2">
    <path d="M 37.74125 316.168 
L 543.407339 316.168 
L 543.407339 10.8 
L 37.74125 10.8 
z
" style="fill: #ffffff"/>
   </g>
   <g id="PathCollection_1">
    <path d="M 61.163852 280.13741 
C 62.421821 280.13741 63.628436 279.637614 64.517954 278.748096 
C 65.407472 277.858577 65.907268 276.651963 65.907268 275.393994 
C 65.907268 274.136025 65.407472 272.92941 64.517954 272.039892 
C 63.628436 271.150374 62.421821 270.650577 61.163852 270.650577 
C 59.905883 270.650577 58.699268 271.150374 57.80975 272.039892 
C 56.920232 272.92941 56.420435 274.136025 56.420435 275.393994 
C 56.420435 276.651963 56.920232 277.858577 57.80975 278.748096 
C 58.699268 279.637614 59.905883 280.13741 61.163852 280.13741 
z
" clip-path="url(#p06461a42d9)" style="fill: #1e88e5; fill-opacity: 0.78; stroke: #222222; stroke-opacity: 0.78; stroke-width: 0.6"/>
    <path d="M 61.163852 292.160707 
C 62.421821 292.160707 63.628436 291.660911 64.517954 290.771393 
C 65.407472 289.881875 65.907268 288.67526 65.907268 287.417291 
C 65.907268 286.159322 65.407472 284.952707 64.517954 284.063189 
C 63.628436 283.173671 62.421821 282.673874 61.163852 282.673874 
C 59.905883 282.673874 58.699268 283.173671 57.80975 284.063189 
C 56.920232 284.952707 56.420435 286.159322 56.420435 287.417291 
C 56.420435 288.67526 56.920232 289.881875 57.80975 290.771393 
C 58.699268 291.660911 59.905883 292.160707 61.163852 292.160707 
z
" clip-path="url(#p06461a42d9)" style="fill: #1e88e5; fill-opacity: 0.78; stroke: #222222; stroke-opacity: 0.78; stroke-width: 0.6"/>
    <path d="M 61.163852 292.085562 
C 62.421821 292.085562 63.628436 291.585765 64.517954 290.696247 
C 65.407472 289.806729 65.907268 288.600114 65.907268 287.342145 
C 65.907268 286.084176 65.407472 284.877562 64.517954 283.988043 
C 63.628436 283.098525 62.421821 282.598729 61.163852 282.598729 
C 59.905883 282.598729 58.699268 283.098525 57.80975 283.988043 
C 56.920232 284.877562 56.420435 286.084176 56.420435 287.342145 
C 56.420435 288.600114 56.920232 289.806729 57.80975 290.696247 
C 58.699268 291.585765 59.905883 292.085562 61.163852 292.085562 
z
" clip-path="url(#p06461a42d9)" style="fill: #1e88e5; fill-opacity: 0.78; stroke: #222222; stroke-opacity: 0.78; stroke-width: 0.6"/>
    <path d="M 61.163852 291.784979 
C 62.421821 291.784979 63.628436 291.285183 64.517954 290.395665 
C 65.407472 289.506147 65.907268 288.299532 65.907268 287.041563 
C 65.907268 285.783594 65.407472 284.576979 64.517954 283.687461 
C 63.628436 282.797943 62.421821 282.298146 61.163852 282.298146 
C 59.905883 282.298146 58.699268 282.797943 57.80975 283.687461 
C 56.920232 284.576979 56.420435 285.783594 56.420435 287.041563 
C 56.420435 288.299532 56.920232 289.506147 57.80975 290.395665 
C 58.699268 291.285183 59.905883 291.784979 61.163852 291.784979 
z
" clip-path="url(#p06461a42d9)" style="fill: #1e88e5; fill-opacity: 0.78; stroke: #222222; stroke-opacity: 0.78; stroke-width: 0.6"/>
    <path d="M 61.163852 292.310999 
C 62.421821 292.310999 63.628436 291.811202 64.517954 290.921684 
C 65.407472 290.032166 65.907268 288.825551 65.907268 287.567582 
C 65.907268 286.309613 65.407472 285.102998 64.517954 284.21348 
C 63.628436 283.323962 62.421821 282.824166 61.163852 282.824166 
C 59.905883 282.824166 58.699268 283.323962 57.80975 284.21348 
C 56.920232 285.102998 56.420435 286.309613 56.420435 287.567582 
C 56.420435 288.825551 56.920232 290.032166 57.80975 290.921684 
C 58.699268 291.811202 59.905883 292.310999 61.163852 292.310999 
z
" clip-path="url(#p06461a42d9)" style="fill: #1e88e5; fill-opacity: 0.78; stroke: #222222; stroke-opacity: 0.78; stroke-width: 0.6"/>
    <path d="M 61.163852 313.968657 
C 63.342718 313.968657 65.432636 313.102985 66.973327 311.562294 
C 68.514018 310.021603 69.37969 307.931685 69.37969 305.752819 
C 69.37969 303.573953 68.514018 301.484035 66.973327 299.943344 
C 65.432636 298.402653 63.342718 297.536981 61.163852 297.536981 
C 58.984986 297.536981 56.895068 298.402653 55.354377 299.943344 
C 53.813686 301.484035 52.948014 303.573953 52.948014 305.752819 
C 52.948014 307.931685 53.813686 310.021603 55.354377 311.562294 
C 56.895068 313.102985 58.984986 313.968657 61.163852 313.968657 
z
" clip-path="url(#p06461a42d9)" style="fill: #1e88e5; fill-opacity: 0.78; stroke: #222222; stroke-opacity: 0.78; stroke-width: 0.6"/>
    <path d="M 61.163852 311.876543 
C 62.787883 311.876543 64.345616 311.231309 65.493979 310.082946 
C 66.642342 308.934583 67.287576 307.37685 67.287576 305.752819 
C 67.287576 304.128788 66.642342 302.571055 65.493979 301.422692 
C 64.345616 300.274329 62.787883 299.629095 61.163852 299.629095 
C 59.539821 299.629095 57.982088 300.274329 56.833725 301.422692 
C 55.685362 302.571055 55.040128 304.128788 55.040128 305.752819 
C 55.040128 307.37685 55.685362 308.934583 56.833725 310.082946 
C 57.982088 311.231309 59.539821 311.876543 61.163852 311.876543 
z
" clip-path="url(#p06461a42d9)" style="fill: #1e88e5; fill-opacity: 0.78; stroke: #222222; stroke-opacity: 0.78; stroke-width: 0.6"/>
    <path d="M 61.163852 311.42567 
C 62.787883 311.42567 64.345616 310.780435 65.493979 309.632072 
C 66.642342 308.483709 67.287576 306.925976 67.287576 305.301945 
C 67.287576 303.677915 66.642342 302.120181 65.493979 300.971818 
C 64.345616 299.823455 62.787883 299.178221 61.163852 299.178221 
C 59.539821 299.178221 57.982088 299.823455 56.833725 300.971818 
C 55.685362 302.120181 55.040128 303.677915 55.040128 305.301945 
C 55.040128 306.925976 55.685362 308.483709 56.833725 309.632072 
C 57.982088 310.780435 59.539821 311.42567 61.163852 311.42567 
z
" clip-path="url(#p06461a42d9)" style="fill: #1e88e5; fill-opacity: 0.78; stroke: #222222; stroke-opacity: 0.78; stroke-width: 0.6"/>
    <path d="M 61.163852 311.350524 
C 62.787883 311.350524 64.345616 310.70529 65.493979 309.556927 
C 66.642342 308.408564 67.287576 306.85083 67.287576 305.2268 
C 67.287576 303.602769 66.642342 302.045036 65.493979 300.896673 
C 64.345616 299.74831 62.787883 299.103075 61.163852 299.103075 
C 59.539821 299.103075 57.982088 299.74831 56.833725 300.896673 
C 55.685362 302.045036 55.040128 303.602769 55.040128 305.2268 
C 55.040128 306.85083 55.685362 308.408564 56.833725 309.556927 
C 57.982088 310.70529 59.539821 311.350524 61.163852 311.350524 
z
" clip-path="url(#p06461a42d9)" style="fill: #1e88e5; fill-opacity: 0.78; stroke: #222222; stroke-opacity: 0.78; stroke-width: 0.6"/>
    <path d="M 61.163852 310.463806 
C 62.787883 310.463806 64.345616 309.818572 65.493979 308.670209 
C 66.642342 307.521845 67.287576 305.964112 67.287576 304.340081 
C 67.287576 302.716051 66.642342 301.158318 65.493979 300.009954 
C 64.345616 298.861591 62.787883 298.216357 61.163852 298.216357 
C 59.539821 298.216357 57.982088 298.861591 56.833725 300.009954 
C 55.685362 301.158318 55.040128 302.716051 55.040128 304.340081 
C 55.040128 305.964112 55.685362 307.521845 56.833725 308.670209 
C 57.982088 309.818572 59.539821 310.463806 61.163852 310.463806 
z
" clip-path="url(#p06461a42d9)" style="fill: #1e88e5; fill-opacity: 0.78; stroke: #222222; stroke-opacity: 0.78; stroke-width: 0.6"/>
   </g>
   <g id="PathCollection_2">
    <defs>
     <path id="mc80cdc7eb0" d="M 0 4.743416 
C 1.257969 4.743416 2.464584 4.24362 3.354102 3.354102 
C 4.24362 2.464584 4.743416 1.257969 4.743416 0 
C 4.743416 -1.257969 4.24362 -2.464584 3.354102 -3.354102 
C 2.464584 -4.24362 1.257969 -4.743416 0 -4.743416 
C -1.257969 -4.743416 -2.464584 -4.24362 -3.354102 -3.354102 
C -4.24362 -2.464584 -4.743416 -1.257969 -4.743416 0 
C -4.743416 1.257969 -4.24362 2.464584 -3.354102 3.354102 
C -2.464584 4.24362 -1.257969 4.743416 0 4.743416 
z
" style="stroke: #222222; stroke-opacity: 0.78; stroke-width: 0.6"/>
    </defs>
    <g clip-path="url(#p06461a42d9)">
     <use xlink:href="#mc80cdc7eb0" x="318.063752" y="214.526052" style="fill: #fb8c00; fill-opacity: 0.78; stroke: #222222; stroke-opacity: 0.78; stroke-width: 0.6"/>
    </g>
   </g>
   <g id="PathCollection_3">
    <path d="M 257.89156 135.960678 
C 259.515591 135.960678 261.073324 135.315444 262.221687 134.16708 
C 263.37005 133.018717 264.015285 131.460984 264.015285 129.836953 
C 264.015285 128.212923 263.37005 126.655189 262.221687 125.506826 
C 261.073324 124.358463 259.515591 123.713229 257.89156 123.713229 
C 256.26753 123.713229 254.709796 124.358463 253.561433 125.506826 
C 252.41307 126.655189 251.767836 128.212923 251.767836 129.836953 
C 251.767836 131.460984 252.41307 133.018717 253.561433 134.16708 
C 254.709796 135.315444 256.26753 135.960678 257.89156 135.960678 
L 257.89156 135.960678 
z
" clip-path="url(#p06461a42d9)" style="fill: none; stroke: #fb8c00; stroke-width: 1.6"/>
   </g>
   <g id="PathCollection_4">
    <path d="M 512.54252 67.988161 
C 515.355423 67.988161 518.053496 66.870583 520.04252 64.881559 
C 522.031543 62.892536 523.149121 60.194463 523.149121 57.381559 
C 523.149121 54.568656 522.031543 51.870583 520.04252 49.881559 
C 518.053496 47.892536 515.355423 46.774958 512.54252 46.774958 
C 509.729616 46.774958 507.031543 47.892536 505.04252 49.881559 
C 503.053496 51.870583 501.935918 54.568656 501.935918 57.381559 
C 501.935918 60.194463 503.053496 62.892536 505.04252 64.881559 
C 507.031543 66.870583 509.729616 67.988161 512.54252 67.988161 
L 512.54252 67.988161 
z
" clip-path="url(#p06461a42d9)" style="fill: none; stroke: #e53935; stroke-width: 1.6"/>
   </g>
   <g id="PathCollection_5">
    <path d="M 61.163852 317.91674 
C 63.572679 317.91674 65.88317 316.959703 67.586468 315.256405 
C 69.289766 313.553107 70.246803 311.242616 70.246803 308.833789 
C 70.246803 306.424962 69.289766 304.11447 67.586468 302.411172 
C 65.88317 300.707875 63.572679 299.750838 61.163852 299.750838 
C 58.755025 299.750838 56.444533 300.707875 54.741236 302.411172 
C 53.037938 304.11447 52.080901 306.424962 52.080901 308.833789 
C 52.080901 311.242616 53.037938 313.553107 54.741236 315.256405 
C 56.444533 316.959703 58.755025 317.91674 61.163852 317.91674 
z
" clip-path="url(#p06461a42d9)" style="fill: #00897b; fill-opacity: 0.78; stroke: #222222; stroke-opacity: 0.78; stroke-width: 0.6"/>
    <path d="M 61.163852 260.852676 
C 62.787883 260.852676 64.345616 260.207442 65.493979 259.059079 
C 66.642342 257.910716 67.287576 256.352983 67.287576 254.728952 
C 67.287576 253.104921 66.642342 251.547188 65.493979 250.398825 
C 64.345616 249.250462 62.787883 248.605228 61.163852 248.605228 
C 59.539821 248.605228 57.982088 249.250462 56.833725 250.398825 
C 55.685362 251.547188 55.040128 253.104921 55.040128 254.728952 
C 55.040128 256.352983 55.685362 257.910716 56.833725 259.059079 
C 57.982088 260.207442 59.539821 260.852676 61.163852 260.852676 
z
" clip-path="url(#p06461a42d9)" style="fill: #00897b; fill-opacity: 0.78; stroke: #222222; stroke-opacity: 0.78; stroke-width: 0.6"/>
    <path d="M 61.163852 259.772951 
C 62.421821 259.772951 63.628436 259.273155 64.517954 258.383636 
C 65.407472 257.494118 65.907268 256.287503 65.907268 255.029534 
C 65.907268 253.771566 65.407472 252.564951 64.517954 251.675432 
C 63.628436 250.785914 62.421821 250.286118 61.163852 250.286118 
C 59.905883 250.286118 58.699268 250.785914 57.80975 251.675432 
C 56.920232 252.564951 56.420435 253.771566 56.420435 255.029534 
C 56.420435 256.287503 56.920232 257.494118 57.80975 258.383636 
C 58.699268 259.273155 59.905883 259.772951 61.163852 259.772951 
z
" clip-path="url(#p06461a42d9)" style="fill: #00897b; fill-opacity: 0.78; stroke: #222222; stroke-opacity: 0.78; stroke-width: 0.6"/>
    <path d="M 61.163852 260.251511 
C 62.787883 260.251511 64.345616 259.606277 65.493979 258.457914 
C 66.642342 257.309551 67.287576 255.751818 67.287576 254.127787 
C 67.287576 252.503756 66.642342 250.946023 65.493979 249.79766 
C 64.345616 248.649297 62.787883 248.004063 61.163852 248.004063 
C 59.539821 248.004063 57.982088 248.649297 56.833725 249.79766 
C 55.685362 250.946023 55.040128 252.503756 55.040128 254.127787 
C 55.040128 255.751818 55.685362 257.309551 56.833725 258.457914 
C 57.982088 259.606277 59.539821 260.251511 61.163852 260.251511 
z
" clip-path="url(#p06461a42d9)" style="fill: #00897b; fill-opacity: 0.78; stroke: #222222; stroke-opacity: 0.78; stroke-width: 0.6"/>
    <path d="M 61.163852 259.772951 
C 62.421821 259.772951 63.628436 259.273155 64.517954 258.383636 
C 65.407472 257.494118 65.907268 256.287503 65.907268 255.029534 
C 65.907268 253.771566 65.407472 252.564951 64.517954 251.675432 
C 63.628436 250.785914 62.421821 250.286118 61.163852 250.286118 
C 59.905883 250.286118 58.699268 250.785914 57.80975 251.675432 
C 56.920232 252.564951 56.420435 253.771566 56.420435 255.029534 
C 56.420435 256.287503 56.920232 257.494118 57.80975 258.383636 
C 58.699268 259.273155 59.905883 259.772951 61.163852 259.772951 
z
" clip-path="url(#p06461a42d9)" style="fill: #00897b; fill-opacity: 0.78; stroke: #222222; stroke-opacity: 0.78; stroke-width: 0.6"/>
   </g>
   <g id="PathCollection_6">
    <path d="M 61.163852 318.292468 
C 63.572679 318.292468 65.88317 317.335431 67.586468 315.632133 
C 69.289766 313.928835 70.246803 311.618344 70.246803 309.209517 
C 70.246803 306.80069 69.289766 304.490198 67.586468 302.786901 
C 65.88317 301.083603 63.572679 300.126566 61.163852 300.126566 
C 58.755025 300.126566 56.444533 301.083603 54.741236 302.786901 
C 53.037938 304.490198 52.080901 306.80069 52.080901 309.209517 
C 52.080901 311.618344 53.037938 313.928835 54.741236 315.632133 
C 56.444533 317.335431 58.755025 318.292468 61.163852 318.292468 
z
" clip-path="url(#p06461a42d9)" style="fill: #8e24aa; fill-opacity: 0.78; stroke: #222222; stroke-opacity: 0.78; stroke-width: 0.6"/>
    <path d="M 61.163852 316.079477 
C 63.085431 316.079477 64.928566 315.316026 66.287327 313.957264 
C 67.646089 312.598503 68.40954 310.755368 68.40954 308.833789 
C 68.40954 306.91221 67.646089 305.069075 66.287327 303.710313 
C 64.928566 302.351552 63.085431 301.5881 61.163852 301.5881 
C 59.242273 301.5881 57.399138 302.351552 56.040376 303.710313 
C 54.681615 305.069075 53.918163 306.91221 53.918163 308.833789 
C 53.918163 310.755368 54.681615 312.598503 56.040376 313.957264 
C 57.399138 315.316026 59.242273 316.079477 61.163852 316.079477 
z
" clip-path="url(#p06461a42d9)" style="fill: #8e24aa; fill-opacity: 0.78; stroke: #222222; stroke-opacity: 0.78; stroke-width: 0.6"/>
    <path d="M 61.163852 315.328021 
C 63.085431 315.328021 64.928566 314.56457 66.287327 313.205808 
C 67.646089 311.847047 68.40954 310.003912 68.40954 308.082333 
C 68.40954 306.160754 67.646089 304.317619 66.287327 302.958857 
C 64.928566 301.600096 63.085431 300.836644 61.163852 300.836644 
C 59.242273 300.836644 57.399138 301.600096 56.040376 302.958857 
C 54.681615 304.317619 53.918163 306.160754 53.918163 308.082333 
C 53.918163 310.003912 54.681615 311.847047 56.040376 313.205808 
C 57.399138 314.56457 59.242273 315.328021 61.163852 315.328021 
z
" clip-path="url(#p06461a42d9)" style="fill: #8e24aa; fill-opacity: 0.78; stroke: #222222; stroke-opacity: 0.78; stroke-width: 0.6"/>
    <path d="M 61.163852 315.192759 
C 63.085431 315.192759 64.928566 314.429308 66.287327 313.070546 
C 67.646089 311.711784 68.40954 309.86865 68.40954 307.947071 
C 68.40954 306.025492 67.646089 304.182357 66.287327 302.823595 
C 64.928566 301.464834 63.085431 300.701382 61.163852 300.701382 
C 59.242273 300.701382 57.399138 301.464834 56.040376 302.823595 
C 54.681615 304.182357 53.918163 306.025492 53.918163 307.947071 
C 53.918163 309.86865 54.681615 311.711784 56.040376 313.070546 
C 57.399138 314.429308 59.242273 315.192759 61.163852 315.192759 
z
" clip-path="url(#p06461a42d9)" style="fill: #8e24aa; fill-opacity: 0.78; stroke: #222222; stroke-opacity: 0.78; stroke-width: 0.6"/>
    <path d="M 61.163852 314.892177 
C 63.085431 314.892177 64.928566 314.128725 66.287327 312.769964 
C 67.646089 311.411202 68.40954 309.568067 68.40954 307.646488 
C 68.40954 305.724909 67.646089 303.881774 66.287327 302.523013 
C 64.928566 301.164251 63.085431 300.4008 61.163852 300.4008 
C 59.242273 300.4008 57.399138 301.164251 56.040376 302.523013 
C 54.681615 303.881774 53.918163 305.724909 53.918163 307.646488 
C 53.918163 309.568067 54.681615 311.411202 56.040376 312.769964 
C 57.399138 314.128725 59.242273 314.892177 61.163852 314.892177 
z
" clip-path="url(#p06461a42d9)" style="fill: #8e24aa; fill-opacity: 0.78; stroke: #222222; stroke-opacity: 0.78; stroke-width: 0.6"/>
   </g>
   <g id="matplotlib.axis_1">
    <g id="xtick_1">
     <g id="line2d_1">
      <defs>
       <path id="m6cf0dbc2f6" d="M 0 0 
L 0 3.5 
" style="stroke: #000000; stroke-width: 0.8"/>
      </defs>
      <g>
       <use xlink:href="#m6cf0dbc2f6" x="94.709424" y="316.168" style="stroke: #000000; stroke-width: 0.8"/>
      </g>
     </g>
     <g id="text_1">
      <!-- $\mathdefault{10^{1}}$ -->
      <g transform="translate(86.789424 330.006594) scale(0.09 -0.09)">
       <defs>
        <path id="DejaVuSans-31" d="M 794 531 
L 1825 531 
L 1825 4091 
L 703 3866 
L 703 4441 
L 1819 4666 
L 2450 4666 
L 2450 531 
L 3481 531 
L 3481 0 
L 794 0 
L 794 531 
z
" transform="scale(0.015625)"/>
        <path id="DejaVuSans-30" d="M 2034 4250 
Q 1547 4250 1301 3770 
Q 1056 3291 1056 2328 
Q 1056 1369 1301 889 
Q 1547 409 2034 409 
Q 2525 409 2770 889 
Q 3016 1369 3016 2328 
Q 3016 3291 2770 3770 
Q 2525 4250 2034 4250 
z
M 2034 4750 
Q 2819 4750 3233 4129 
Q 3647 3509 3647 2328 
Q 3647 1150 3233 529 
Q 2819 -91 2034 -91 
Q 1250 -91 836 529 
Q 422 1150 422 2328 
Q 422 3509 836 4129 
Q 1250 4750 2034 4750 
z
" transform="scale(0.015625)"/>
       </defs>
       <use xlink:href="#DejaVuSans-31" transform="translate(0 0.684375)"/>
       <use xlink:href="#DejaVuSans-30" transform="translate(63.623047 0.684375)"/>
       <use xlink:href="#DejaVuSans-31" transform="translate(128.203125 38.965625) scale(0.7)"/>
      </g>
     </g>
    </g>
    <g id="xtick_2">
     <g id="line2d_2">
      <g>
       <use xlink:href="#m6cf0dbc2f6" x="245.918627" y="316.168" style="stroke: #000000; stroke-width: 0.8"/>
      </g>
     </g>
     <g id="text_2">
      <!-- $\mathdefault{10^{2}}$ -->
      <g transform="translate(237.998627 330.006594) scale(0.09 -0.09)">
       <defs>
        <path id="DejaVuSans-32" d="M 1228 531 
L 3431 531 
L 3431 0 
L 469 0 
L 469 531 
Q 828 903 1448 1529 
Q 2069 2156 2228 2338 
Q 2531 2678 2651 2914 
Q 2772 3150 2772 3378 
Q 2772 3750 2511 3984 
Q 2250 4219 1831 4219 
Q 1534 4219 1204 4116 
Q 875 4013 500 3803 
L 500 4441 
Q 881 4594 1212 4672 
Q 1544 4750 1819 4750 
Q 2544 4750 2975 4387 
Q 3406 4025 3406 3419 
Q 3406 3131 3298 2873 
Q 3191 2616 2906 2266 
Q 2828 2175 2409 1742 
Q 1991 1309 1228 531 
z
" transform="scale(0.015625)"/>
       </defs>
       <use xlink:href="#DejaVuSans-31" transform="translate(0 0.765625)"/>
       <use xlink:href="#DejaVuSans-30" transform="translate(63.623047 0.765625)"/>
       <use xlink:href="#DejaVuSans-32" transform="translate(128.203125 39.046875) scale(0.7)"/>
      </g>
     </g>
    </g>
    <g id="xtick_3">
     <g id="line2d_3">
      <g>
       <use xlink:href="#m6cf0dbc2f6" x="397.12783" y="316.168" style="stroke: #000000; stroke-width: 0.8"/>
      </g>
     </g>
     <g id="text_3">
      <!-- $\mathdefault{10^{3}}$ -->
      <g transform="translate(389.20783 330.006594) scale(0.09 -0.09)">
       <defs>
        <path id="DejaVuSans-33" d="M 2597 2516 
Q 3050 2419 3304 2112 
Q 3559 1806 3559 1356 
Q 3559 666 3084 287 
Q 2609 -91 1734 -91 
Q 1441 -91 1130 -33 
Q 819 25 488 141 
L 488 750 
Q 750 597 1062 519 
Q 1375 441 1716 441 
Q 2309 441 2620 675 
Q 2931 909 2931 1356 
Q 2931 1769 2642 2001 
Q 2353 2234 1838 2234 
L 1294 2234 
L 1294 2753 
L 1863 2753 
Q 2328 2753 2575 2939 
Q 2822 3125 2822 3475 
Q 2822 3834 2567 4026 
Q 2313 4219 1838 4219 
Q 1578 4219 1281 4162 
Q 984 4106 628 3988 
L 628 4550 
Q 988 4650 1302 4700 
Q 1616 4750 1894 4750 
Q 2613 4750 3031 4423 
Q 3450 4097 3450 3541 
Q 3450 3153 3228 2886 
Q 3006 2619 2597 2516 
z
" transform="scale(0.015625)"/>
       </defs>
       <use xlink:href="#DejaVuSans-31" transform="translate(0 0.765625)"/>
       <use xlink:href="#DejaVuSans-30" transform="translate(63.623047 0.765625)"/>
       <use xlink:href="#DejaVuSans-33" transform="translate(128.203125 39.046875) scale(0.7)"/>
      </g>
     </g>
    </g>
    <g id="xtick_4">
     <g id="line2d_4">
      <defs>
       <path id="me80e2f217d" d="M 0 0 
L 0 2 
" style="stroke: #000000; stroke-width: 0.6"/>
      </defs>
      <g>
       <use xlink:href="#me80e2f217d" x="49.190919" y="316.168" style="stroke: #000000; stroke-width: 0.6"/>
      </g>
     </g>
    </g>
    <g id="xtick_5">
     <g id="line2d_5">
      <g>
       <use xlink:href="#me80e2f217d" x="61.163852" y="316.168" style="stroke: #000000; stroke-width: 0.6"/>
      </g>
     </g>
    </g>
    <g id="xtick_6">
     <g id="line2d_6">
      <g>
       <use xlink:href="#me80e2f217d" x="71.286823" y="316.168" style="stroke: #000000; stroke-width: 0.6"/>
      </g>
     </g>
    </g>
    <g id="xtick_7">
     <g id="line2d_7">
      <g>
       <use xlink:href="#me80e2f217d" x="80.055739" y="316.168" style="stroke: #000000; stroke-width: 0.6"/>
      </g>
     </g>
    </g>
    <g id="xtick_8">
     <g id="line2d_8">
      <g>
       <use xlink:href="#me80e2f217d" x="87.790471" y="316.168" style="stroke: #000000; stroke-width: 0.6"/>
      </g>
     </g>
    </g>
    <g id="xtick_9">
     <g id="line2d_9">
      <g>
       <use xlink:href="#me80e2f217d" x="140.22793" y="316.168" style="stroke: #000000; stroke-width: 0.6"/>
      </g>
     </g>
    </g>
    <g id="xtick_10">
     <g id="line2d_10">
      <g>
       <use xlink:href="#me80e2f217d" x="166.854549" y="316.168" style="stroke: #000000; stroke-width: 0.6"/>
      </g>
     </g>
    </g>
    <g id="xtick_11">
     <g id="line2d_11">
      <g>
       <use xlink:href="#me80e2f217d" x="185.746436" y="316.168" style="stroke: #000000; stroke-width: 0.6"/>
      </g>
     </g>
    </g>
    <g id="xtick_12">
     <g id="line2d_12">
      <g>
       <use xlink:href="#me80e2f217d" x="200.400121" y="316.168" style="stroke: #000000; stroke-width: 0.6"/>
      </g>
     </g>
    </g>
    <g id="xtick_13">
     <g id="line2d_13">
      <g>
       <use xlink:href="#me80e2f217d" x="212.373055" y="316.168" style="stroke: #000000; stroke-width: 0.6"/>
      </g>
     </g>
    </g>
    <g id="xtick_14">
     <g id="line2d_14">
      <g>
       <use xlink:href="#me80e2f217d" x="222.496025" y="316.168" style="stroke: #000000; stroke-width: 0.6"/>
      </g>
     </g>
    </g>
    <g id="xtick_15">
     <g id="line2d_15">
      <g>
       <use xlink:href="#me80e2f217d" x="231.264941" y="316.168" style="stroke: #000000; stroke-width: 0.6"/>
      </g>
     </g>
    </g>
    <g id="xtick_16">
     <g id="line2d_16">
      <g>
       <use xlink:href="#me80e2f217d" x="238.999673" y="316.168" style="stroke: #000000; stroke-width: 0.6"/>
      </g>
     </g>
    </g>
    <g id="xtick_17">
     <g id="line2d_17">
      <g>
       <use xlink:href="#me80e2f217d" x="291.437133" y="316.168" style="stroke: #000000; stroke-width: 0.6"/>
      </g>
     </g>
    </g>
    <g id="xtick_18">
     <g id="line2d_18">
      <g>
       <use xlink:href="#me80e2f217d" x="318.063752" y="316.168" style="stroke: #000000; stroke-width: 0.6"/>
      </g>
     </g>
    </g>
    <g id="xtick_19">
     <g id="line2d_19">
      <g>
       <use xlink:href="#me80e2f217d" x="336.955638" y="316.168" style="stroke: #000000; stroke-width: 0.6"/>
      </g>
     </g>
    </g>
    <g id="xtick_20">
     <g id="line2d_20">
      <g>
       <use xlink:href="#me80e2f217d" x="351.609324" y="316.168" style="stroke: #000000; stroke-width: 0.6"/>
      </g>
     </g>
    </g>
    <g id="xtick_21">
     <g id="line2d_21">
      <g>
       <use xlink:href="#me80e2f217d" x="363.582257" y="316.168" style="stroke: #000000; stroke-width: 0.6"/>
      </g>
     </g>
    </g>
    <g id="xtick_22">
     <g id="line2d_22">
      <g>
       <use xlink:href="#me80e2f217d" x="373.705228" y="316.168" style="stroke: #000000; stroke-width: 0.6"/>
      </g>
     </g>
    </g>
    <g id="xtick_23">
     <g id="line2d_23">
      <g>
       <use xlink:href="#me80e2f217d" x="382.474144" y="316.168" style="stroke: #000000; stroke-width: 0.6"/>
      </g>
     </g>
    </g>
    <g id="xtick_24">
     <g id="line2d_24">
      <g>
       <use xlink:href="#me80e2f217d" x="390.208876" y="316.168" style="stroke: #000000; stroke-width: 0.6"/>
      </g>
     </g>
    </g>
    <g id="xtick_25">
     <g id="line2d_25">
      <g>
       <use xlink:href="#me80e2f217d" x="442.646335" y="316.168" style="stroke: #000000; stroke-width: 0.6"/>
      </g>
     </g>
    </g>
    <g id="xtick_26">
     <g id="line2d_26">
      <g>
       <use xlink:href="#me80e2f217d" x="469.272954" y="316.168" style="stroke: #000000; stroke-width: 0.6"/>
      </g>
     </g>
    </g>
    <g id="xtick_27">
     <g id="line2d_27">
      <g>
       <use xlink:href="#me80e2f217d" x="488.164841" y="316.168" style="stroke: #000000; stroke-width: 0.6"/>
      </g>
     </g>
    </g>
    <g id="xtick_28">
     <g id="line2d_28">
      <g>
       <use xlink:href="#me80e2f217d" x="502.818527" y="316.168" style="stroke: #000000; stroke-width: 0.6"/>
      </g>
     </g>
    </g>
    <g id="xtick_29">
     <g id="line2d_29">
      <g>
       <use xlink:href="#me80e2f217d" x="514.79146" y="316.168" style="stroke: #000000; stroke-width: 0.6"/>
      </g>
     </g>
    </g>
    <g id="xtick_30">
     <g id="line2d_30">
      <g>
       <use xlink:href="#me80e2f217d" x="524.914431" y="316.168" style="stroke: #000000; stroke-width: 0.6"/>
      </g>
     </g>
    </g>
    <g id="xtick_31">
     <g id="line2d_31">
      <g>
       <use xlink:href="#me80e2f217d" x="533.683347" y="316.168" style="stroke: #000000; stroke-width: 0.6"/>
      </g>
     </g>
    </g>
    <g id="xtick_32">
     <g id="line2d_32">
      <g>
       <use xlink:href="#me80e2f217d" x="541.418079" y="316.168" style="stroke: #000000; stroke-width: 0.6"/>
      </g>
     </g>
    </g>
    <g id="text_4">
     <!-- Number of MS data files (log scale) -->
     <g transform="translate(202.756326 343.47675) scale(0.1 -0.1)">
      <defs>
       <path id="DejaVuSans-4e" d="M 628 4666 
L 1478 4666 
L 3547 763 
L 3547 4666 
L 4159 4666 
L 4159 0 
L 3309 0 
L 1241 3903 
L 1241 0 
L 628 0 
L 628 4666 
z
" transform="scale(0.015625)"/>
       <path id="DejaVuSans-75" d="M 544 1381 
L 544 3500 
L 1119 3500 
L 1119 1403 
Q 1119 906 1312 657 
Q 1506 409 1894 409 
Q 2359 409 2629 706 
Q 2900 1003 2900 1516 
L 2900 3500 
L 3475 3500 
L 3475 0 
L 2900 0 
L 2900 538 
Q 2691 219 2414 64 
Q 2138 -91 1772 -91 
Q 1169 -91 856 284 
Q 544 659 544 1381 
z
M 1991 3584 
L 1991 3584 
z
" transform="scale(0.015625)"/>
       <path id="DejaVuSans-6d" d="M 3328 2828 
Q 3544 3216 3844 3400 
Q 4144 3584 4550 3584 
Q 5097 3584 5394 3201 
Q 5691 2819 5691 2113 
L 5691 0 
L 5113 0 
L 5113 2094 
Q 5113 2597 4934 2840 
Q 4756 3084 4391 3084 
Q 3944 3084 3684 2787 
Q 3425 2491 3425 1978 
L 3425 0 
L 2847 0 
L 2847 2094 
Q 2847 2600 2669 2842 
Q 2491 3084 2119 3084 
Q 1678 3084 1418 2786 
Q 1159 2488 1159 1978 
L 1159 0 
L 581 0 
L 581 3500 
L 1159 3500 
L 1159 2956 
Q 1356 3278 1631 3431 
Q 1906 3584 2284 3584 
Q 2666 3584 2933 3390 
Q 3200 3197 3328 2828 
z
" transform="scale(0.015625)"/>
       <path id="DejaVuSans-62" d="M 3116 1747 
Q 3116 2381 2855 2742 
Q 2594 3103 2138 3103 
Q 1681 3103 1420 2742 
Q 1159 2381 1159 1747 
Q 1159 1113 1420 752 
Q 1681 391 2138 391 
Q 2594 391 2855 752 
Q 3116 1113 3116 1747 
z
M 1159 2969 
Q 1341 3281 1617 3432 
Q 1894 3584 2278 3584 
Q 2916 3584 3314 3078 
Q 3713 2572 3713 1747 
Q 3713 922 3314 415 
Q 2916 -91 2278 -91 
Q 1894 -91 1617 61 
Q 1341 213 1159 525 
L 1159 0 
L 581 0 
L 581 4863 
L 1159 4863 
L 1159 2969 
z
" transform="scale(0.015625)"/>
       <path id="DejaVuSans-65" d="M 3597 1894 
L 3597 1613 
L 953 1613 
Q 991 1019 1311 708 
Q 1631 397 2203 397 
Q 2534 397 2845 478 
Q 3156 559 3463 722 
L 3463 178 
Q 3153 47 2828 -22 
Q 2503 -91 2169 -91 
Q 1331 -91 842 396 
Q 353 884 353 1716 
Q 353 2575 817 3079 
Q 1281 3584 2069 3584 
Q 2775 3584 3186 3129 
Q 3597 2675 3597 1894 
z
M 3022 2063 
Q 3016 2534 2758 2815 
Q 2500 3097 2075 3097 
Q 1594 3097 1305 2825 
Q 1016 2553 972 2059 
L 3022 2063 
z
" transform="scale(0.015625)"/>
       <path id="DejaVuSans-72" d="M 2631 2963 
Q 2534 3019 2420 3045 
Q 2306 3072 2169 3072 
Q 1681 3072 1420 2755 
Q 1159 2438 1159 1844 
L 1159 0 
L 581 0 
L 581 3500 
L 1159 3500 
L 1159 2956 
Q 1341 3275 1631 3429 
Q 1922 3584 2338 3584 
Q 2397 3584 2469 3576 
Q 2541 3569 2628 3553 
L 2631 2963 
z
" transform="scale(0.015625)"/>
       <path id="DejaVuSans-20" transform="scale(0.015625)"/>
       <path id="DejaVuSans-6f" d="M 1959 3097 
Q 1497 3097 1228 2736 
Q 959 2375 959 1747 
Q 959 1119 1226 758 
Q 1494 397 1959 397 
Q 2419 397 2687 759 
Q 2956 1122 2956 1747 
Q 2956 2369 2687 2733 
Q 2419 3097 1959 3097 
z
M 1959 3584 
Q 2709 3584 3137 3096 
Q 3566 2609 3566 1747 
Q 3566 888 3137 398 
Q 2709 -91 1959 -91 
Q 1206 -91 779 398 
Q 353 888 353 1747 
Q 353 2609 779 3096 
Q 1206 3584 1959 3584 
z
" transform="scale(0.015625)"/>
       <path id="DejaVuSans-66" d="M 2375 4863 
L 2375 4384 
L 1825 4384 
Q 1516 4384 1395 4259 
Q 1275 4134 1275 3809 
L 1275 3500 
L 2222 3500 
L 2222 3053 
L 1275 3053 
L 1275 0 
L 697 0 
L 697 3053 
L 147 3053 
L 147 3500 
L 697 3500 
L 697 3744 
Q 697 4328 969 4595 
Q 1241 4863 1831 4863 
L 2375 4863 
z
" transform="scale(0.015625)"/>
       <path id="DejaVuSans-4d" d="M 628 4666 
L 1569 4666 
L 2759 1491 
L 3956 4666 
L 4897 4666 
L 4897 0 
L 4281 0 
L 4281 4097 
L 3078 897 
L 2444 897 
L 1241 4097 
L 1241 0 
L 628 0 
L 628 4666 
z
" transform="scale(0.015625)"/>
       <path id="DejaVuSans-53" d="M 3425 4513 
L 3425 3897 
Q 3066 4069 2747 4153 
Q 2428 4238 2131 4238 
Q 1616 4238 1336 4038 
Q 1056 3838 1056 3469 
Q 1056 3159 1242 3001 
Q 1428 2844 1947 2747 
L 2328 2669 
Q 3034 2534 3370 2195 
Q 3706 1856 3706 1288 
Q 3706 609 3251 259 
Q 2797 -91 1919 -91 
Q 1588 -91 1214 -16 
Q 841 59 441 206 
L 441 856 
Q 825 641 1194 531 
Q 1563 422 1919 422 
Q 2459 422 2753 634 
Q 3047 847 3047 1241 
Q 3047 1584 2836 1778 
Q 2625 1972 2144 2069 
L 1759 2144 
Q 1053 2284 737 2584 
Q 422 2884 422 3419 
Q 422 4038 858 4394 
Q 1294 4750 2059 4750 
Q 2388 4750 2728 4690 
Q 3069 4631 3425 4513 
z
" transform="scale(0.015625)"/>
       <path id="DejaVuSans-64" d="M 2906 2969 
L 2906 4863 
L 3481 4863 
L 3481 0 
L 2906 0 
L 2906 525 
Q 2725 213 2448 61 
Q 2172 -91 1784 -91 
Q 1150 -91 751 415 
Q 353 922 353 1747 
Q 353 2572 751 3078 
Q 1150 3584 1784 3584 
Q 2172 3584 2448 3432 
Q 2725 3281 2906 2969 
z
M 947 1747 
Q 947 1113 1208 752 
Q 1469 391 1925 391 
Q 2381 391 2643 752 
Q 2906 1113 2906 1747 
Q 2906 2381 2643 2742 
Q 2381 3103 1925 3103 
Q 1469 3103 1208 2742 
Q 947 2381 947 1747 
z
" transform="scale(0.015625)"/>
       <path id="DejaVuSans-61" d="M 2194 1759 
Q 1497 1759 1228 1600 
Q 959 1441 959 1056 
Q 959 750 1161 570 
Q 1363 391 1709 391 
Q 2188 391 2477 730 
Q 2766 1069 2766 1631 
L 2766 1759 
L 2194 1759 
z
M 3341 1997 
L 3341 0 
L 2766 0 
L 2766 531 
Q 2569 213 2275 61 
Q 1981 -91 1556 -91 
Q 1019 -91 701 211 
Q 384 513 384 1019 
Q 384 1609 779 1909 
Q 1175 2209 1959 2209 
L 2766 2209 
L 2766 2266 
Q 2766 2663 2505 2880 
Q 2244 3097 1772 3097 
Q 1472 3097 1187 3025 
Q 903 2953 641 2809 
L 641 3341 
Q 956 3463 1253 3523 
Q 1550 3584 1831 3584 
Q 2591 3584 2966 3190 
Q 3341 2797 3341 1997 
z
" transform="scale(0.015625)"/>
       <path id="DejaVuSans-74" d="M 1172 4494 
L 1172 3500 
L 2356 3500 
L 2356 3053 
L 1172 3053 
L 1172 1153 
Q 1172 725 1289 603 
Q 1406 481 1766 481 
L 2356 481 
L 2356 0 
L 1766 0 
Q 1100 0 847 248 
Q 594 497 594 1153 
L 594 3053 
L 172 3053 
L 172 3500 
L 594 3500 
L 594 4494 
L 1172 4494 
z
" transform="scale(0.015625)"/>
       <path id="DejaVuSans-69" d="M 603 3500 
L 1178 3500 
L 1178 0 
L 603 0 
L 603 3500 
z
M 603 4863 
L 1178 4863 
L 1178 4134 
L 603 4134 
L 603 4863 
z
" transform="scale(0.015625)"/>
       <path id="DejaVuSans-6c" d="M 603 4863 
L 1178 4863 
L 1178 0 
L 603 0 
L 603 4863 
z
" transform="scale(0.015625)"/>
       <path id="DejaVuSans-73" d="M 2834 3397 
L 2834 2853 
Q 2591 2978 2328 3040 
Q 2066 3103 1784 3103 
Q 1356 3103 1142 2972 
Q 928 2841 928 2578 
Q 928 2378 1081 2264 
Q 1234 2150 1697 2047 
L 1894 2003 
Q 2506 1872 2764 1633 
Q 3022 1394 3022 966 
Q 3022 478 2636 193 
Q 2250 -91 1575 -91 
Q 1294 -91 989 -36 
Q 684 19 347 128 
L 347 722 
Q 666 556 975 473 
Q 1284 391 1588 391 
Q 1994 391 2212 530 
Q 2431 669 2431 922 
Q 2431 1156 2273 1281 
Q 2116 1406 1581 1522 
L 1381 1569 
Q 847 1681 609 1914 
Q 372 2147 372 2553 
Q 372 3047 722 3315 
Q 1072 3584 1716 3584 
Q 2034 3584 2315 3537 
Q 2597 3491 2834 3397 
z
" transform="scale(0.015625)"/>
       <path id="DejaVuSans-28" d="M 1984 4856 
Q 1566 4138 1362 3434 
Q 1159 2731 1159 2009 
Q 1159 1288 1364 580 
Q 1569 -128 1984 -844 
L 1484 -844 
Q 1016 -109 783 600 
Q 550 1309 550 2009 
Q 550 2706 781 3412 
Q 1013 4119 1484 4856 
L 1984 4856 
z
" transform="scale(0.015625)"/>
       <path id="DejaVuSans-67" d="M 2906 1791 
Q 2906 2416 2648 2759 
Q 2391 3103 1925 3103 
Q 1463 3103 1205 2759 
Q 947 2416 947 1791 
Q 947 1169 1205 825 
Q 1463 481 1925 481 
Q 2391 481 2648 825 
Q 2906 1169 2906 1791 
z
M 3481 434 
Q 3481 -459 3084 -895 
Q 2688 -1331 1869 -1331 
Q 1566 -1331 1297 -1286 
Q 1028 -1241 775 -1147 
L 775 -588 
Q 1028 -725 1275 -790 
Q 1522 -856 1778 -856 
Q 2344 -856 2625 -561 
Q 2906 -266 2906 331 
L 2906 616 
Q 2728 306 2450 153 
Q 2172 0 1784 0 
Q 1141 0 747 490 
Q 353 981 353 1791 
Q 353 2603 747 3093 
Q 1141 3584 1784 3584 
Q 2172 3584 2450 3431 
Q 2728 3278 2906 2969 
L 2906 3500 
L 3481 3500 
L 3481 434 
z
" transform="scale(0.015625)"/>
       <path id="DejaVuSans-63" d="M 3122 3366 
L 3122 2828 
Q 2878 2963 2633 3030 
Q 2388 3097 2138 3097 
Q 1578 3097 1268 2742 
Q 959 2388 959 1747 
Q 959 1106 1268 751 
Q 1578 397 2138 397 
Q 2388 397 2633 464 
Q 2878 531 3122 666 
L 3122 134 
Q 2881 22 2623 -34 
Q 2366 -91 2075 -91 
Q 1284 -91 818 406 
Q 353 903 353 1747 
Q 353 2603 823 3093 
Q 1294 3584 2113 3584 
Q 2378 3584 2631 3529 
Q 2884 3475 3122 3366 
z
" transform="scale(0.015625)"/>
       <path id="DejaVuSans-29" d="M 513 4856 
L 1013 4856 
Q 1481 4119 1714 3412 
Q 1947 2706 1947 2009 
Q 1947 1309 1714 600 
Q 1481 -109 1013 -844 
L 513 -844 
Q 928 -128 1133 580 
Q 1338 1288 1338 2009 
Q 1338 2731 1133 3434 
Q 928 4138 513 4856 
z
" transform="scale(0.015625)"/>
      </defs>
      <use xlink:href="#DejaVuSans-4e"/>
      <use xlink:href="#DejaVuSans-75" transform="translate(74.804688 0)"/>
      <use xlink:href="#DejaVuSans-6d" transform="translate(138.183594 0)"/>
      <use xlink:href="#DejaVuSans-62" transform="translate(235.595703 0)"/>
      <use xlink:href="#DejaVuSans-65" transform="translate(299.072266 0)"/>
      <use xlink:href="#DejaVuSans-72" transform="translate(360.595703 0)"/>
      <use xlink:href="#DejaVuSans-20" transform="translate(401.708984 0)"/>
      <use xlink:href="#DejaVuSans-6f" transform="translate(433.496094 0)"/>
      <use xlink:href="#DejaVuSans-66" transform="translate(494.677734 0)"/>
      <use xlink:href="#DejaVuSans-20" transform="translate(529.882812 0)"/>
      <use xlink:href="#DejaVuSans-4d" transform="translate(561.669922 0)"/>
      <use xlink:href="#DejaVuSans-53" transform="translate(647.949219 0)"/>
      <use xlink:href="#DejaVuSans-20" transform="translate(711.425781 0)"/>
      <use xlink:href="#DejaVuSans-64" transform="translate(743.212891 0)"/>
      <use xlink:href="#DejaVuSans-61" transform="translate(806.689453 0)"/>
      <use xlink:href="#DejaVuSans-74" transform="translate(867.96875 0)"/>
      <use xlink:href="#DejaVuSans-61" transform="translate(907.177734 0)"/>
      <use xlink:href="#DejaVuSans-20" transform="translate(968.457031 0)"/>
      <use xlink:href="#DejaVuSans-66" transform="translate(1000.244141 0)"/>
      <use xlink:href="#DejaVuSans-69" transform="translate(1035.449219 0)"/>
      <use xlink:href="#DejaVuSans-6c" transform="translate(1063.232422 0)"/>
      <use xlink:href="#DejaVuSans-65" transform="translate(1091.015625 0)"/>
      <use xlink:href="#DejaVuSans-73" transform="translate(1152.539062 0)"/>
      <use xlink:href="#DejaVuSans-20" transform="translate(1204.638672 0)"/>
      <use xlink:href="#DejaVuSans-28" transform="translate(1236.425781 0)"/>
      <use xlink:href="#DejaVuSans-6c" transform="translate(1275.439453 0)"/>
      <use xlink:href="#DejaVuSans-6f" transform="translate(1303.222656 0)"/>
      <use xlink:href="#DejaVuSans-67" transform="translate(1364.404297 0)"/>
      <use xlink:href="#DejaVuSans-20" transform="translate(1427.880859 0)"/>
      <use xlink:href="#DejaVuSans-73" transform="translate(1459.667969 0)"/>
      <use xlink:href="#DejaVuSans-63" transform="translate(1511.767578 0)"/>
      <use xlink:href="#DejaVuSans-61" transform="translate(1566.748047 0)"/>
      <use xlink:href="#DejaVuSans-6c" transform="translate(1628.027344 0)"/>
      <use xlink:href="#DejaVuSans-65" transform="translate(1655.810547 0)"/>
      <use xlink:href="#DejaVuSans-29" transform="translate(1717.333984 0)"/>
     </g>
    </g>
   </g>
   <g id="matplotlib.axis_2">
    <g id="ytick_1">
     <g id="line2d_33">
      <defs>
       <path id="m4fce21aa58" d="M 0 0 
L -3.5 0 
" style="stroke: #000000; stroke-width: 0.8"/>
      </defs>
      <g>
       <use xlink:href="#m4fce21aa58" x="37.74125" y="316.168" style="stroke: #000000; stroke-width: 0.8"/>
      </g>
     </g>
     <g id="text_5">
      <!-- 0 -->
      <g transform="translate(25.015 319.587297) scale(0.09 -0.09)">
       <use xlink:href="#DejaVuSans-30"/>
      </g>
     </g>
    </g>
    <g id="ytick_2">
     <g id="line2d_34">
      <g>
       <use xlink:href="#m4fce21aa58" x="37.74125" y="262.063163" style="stroke: #000000; stroke-width: 0.8"/>
      </g>
     </g>
     <g id="text_6">
      <!-- 1 -->
      <g transform="translate(25.015 265.48246) scale(0.09 -0.09)">
       <use xlink:href="#DejaVuSans-31"/>
      </g>
     </g>
    </g>
    <g id="ytick_3">
     <g id="line2d_35">
      <g>
       <use xlink:href="#m4fce21aa58" x="37.74125" y="207.958326" style="stroke: #000000; stroke-width: 0.8"/>
      </g>
     </g>
     <g id="text_7">
      <!-- 2 -->
      <g transform="translate(25.015 211.377623) scale(0.09 -0.09)">
       <use xlink:href="#DejaVuSans-32"/>
      </g>
     </g>
    </g>
    <g id="ytick_4">
     <g id="line2d_36">
      <g>
       <use xlink:href="#m4fce21aa58" x="37.74125" y="153.853489" style="stroke: #000000; stroke-width: 0.8"/>
      </g>
     </g>
     <g id="text_8">
      <!-- 3 -->
      <g transform="translate(25.015 157.272786) scale(0.09 -0.09)">
       <use xlink:href="#DejaVuSans-33"/>
      </g>
     </g>
    </g>
    <g id="ytick_5">
     <g id="line2d_37">
      <g>
       <use xlink:href="#m4fce21aa58" x="37.74125" y="99.748652" style="stroke: #000000; stroke-width: 0.8"/>
      </g>
     </g>
     <g id="text_9">
      <!-- 4 -->
      <g transform="translate(25.015 103.167949) scale(0.09 -0.09)">
       <defs>
        <path id="DejaVuSans-34" d="M 2419 4116 
L 825 1625 
L 2419 1625 
L 2419 4116 
z
M 2253 4666 
L 3047 4666 
L 3047 1625 
L 3713 1625 
L 3713 1100 
L 3047 1100 
L 3047 0 
L 2419 0 
L 2419 1100 
L 313 1100 
L 313 1709 
L 2253 4666 
z
" transform="scale(0.015625)"/>
       </defs>
       <use xlink:href="#DejaVuSans-34"/>
      </g>
     </g>
    </g>
    <g id="ytick_6">
     <g id="line2d_38">
      <g>
       <use xlink:href="#m4fce21aa58" x="37.74125" y="45.643816" style="stroke: #000000; stroke-width: 0.8"/>
      </g>
     </g>
     <g id="text_10">
      <!-- 5 -->
      <g transform="translate(25.015 49.063112) scale(0.09 -0.09)">
       <defs>
        <path id="DejaVuSans-35" d="M 691 4666 
L 3169 4666 
L 3169 4134 
L 1269 4134 
L 1269 2991 
Q 1406 3038 1543 3061 
Q 1681 3084 1819 3084 
Q 2600 3084 3056 2656 
Q 3513 2228 3513 1497 
Q 3513 744 3044 326 
Q 2575 -91 1722 -91 
Q 1428 -91 1123 -41 
Q 819 9 494 109 
L 494 744 
Q 775 591 1075 516 
Q 1375 441 1709 441 
Q 2250 441 2565 725 
Q 2881 1009 2881 1497 
Q 2881 1984 2565 2268 
Q 2250 2553 1709 2553 
Q 1456 2553 1204 2497 
Q 953 2441 691 2322 
L 691 4666 
z
" transform="scale(0.015625)"/>
       </defs>
       <use xlink:href="#DejaVuSans-35"/>
      </g>
     </g>
    </g>
    <g id="text_11">
     <!-- Final-run wallclock from pipeline_report (hours) -->
     <g transform="translate(18.657188 281.532438) rotate(-90) scale(0.1 -0.1)">
      <defs>
       <path id="DejaVuSans-46" d="M 628 4666 
L 3309 4666 
L 3309 4134 
L 1259 4134 
L 1259 2759 
L 3109 2759 
L 3109 2228 
L 1259 2228 
L 1259 0 
L 628 0 
L 628 4666 
z
" transform="scale(0.015625)"/>
       <path id="DejaVuSans-6e" d="M 3513 2113 
L 3513 0 
L 2938 0 
L 2938 2094 
Q 2938 2591 2744 2837 
Q 2550 3084 2163 3084 
Q 1697 3084 1428 2787 
Q 1159 2491 1159 1978 
L 1159 0 
L 581 0 
L 581 3500 
L 1159 3500 
L 1159 2956 
Q 1366 3272 1645 3428 
Q 1925 3584 2291 3584 
Q 2894 3584 3203 3211 
Q 3513 2838 3513 2113 
z
" transform="scale(0.015625)"/>
       <path id="DejaVuSans-2d" d="M 313 2009 
L 1997 2009 
L 1997 1497 
L 313 1497 
L 313 2009 
z
" transform="scale(0.015625)"/>
       <path id="DejaVuSans-77" d="M 269 3500 
L 844 3500 
L 1563 769 
L 2278 3500 
L 2956 3500 
L 3675 769 
L 4391 3500 
L 4966 3500 
L 4050 0 
L 3372 0 
L 2619 2869 
L 1863 0 
L 1184 0 
L 269 3500 
z
" transform="scale(0.015625)"/>
       <path id="DejaVuSans-6b" d="M 581 4863 
L 1159 4863 
L 1159 1991 
L 2875 3500 
L 3609 3500 
L 1753 1863 
L 3688 0 
L 2938 0 
L 1159 1709 
L 1159 0 
L 581 0 
L 581 4863 
z
" transform="scale(0.015625)"/>
       <path id="DejaVuSans-70" d="M 1159 525 
L 1159 -1331 
L 581 -1331 
L 581 3500 
L 1159 3500 
L 1159 2969 
Q 1341 3281 1617 3432 
Q 1894 3584 2278 3584 
Q 2916 3584 3314 3078 
Q 3713 2572 3713 1747 
Q 3713 922 3314 415 
Q 2916 -91 2278 -91 
Q 1894 -91 1617 61 
Q 1341 213 1159 525 
z
M 3116 1747 
Q 3116 2381 2855 2742 
Q 2594 3103 2138 3103 
Q 1681 3103 1420 2742 
Q 1159 2381 1159 1747 
Q 1159 1113 1420 752 
Q 1681 391 2138 391 
Q 2594 391 2855 752 
Q 3116 1113 3116 1747 
z
" transform="scale(0.015625)"/>
       <path id="DejaVuSans-5f" d="M 3263 -1063 
L 3263 -1509 
L -63 -1509 
L -63 -1063 
L 3263 -1063 
z
" transform="scale(0.015625)"/>
       <path id="DejaVuSans-68" d="M 3513 2113 
L 3513 0 
L 2938 0 
L 2938 2094 
Q 2938 2591 2744 2837 
Q 2550 3084 2163 3084 
Q 1697 3084 1428 2787 
Q 1159 2491 1159 1978 
L 1159 0 
L 581 0 
L 581 4863 
L 1159 4863 
L 1159 2956 
Q 1366 3272 1645 3428 
Q 1925 3584 2291 3584 
Q 2894 3584 3203 3211 
Q 3513 2838 3513 2113 
z
" transform="scale(0.015625)"/>
      </defs>
      <use xlink:href="#DejaVuSans-46"/>
      <use xlink:href="#DejaVuSans-69" transform="translate(50.269531 0)"/>
      <use xlink:href="#DejaVuSans-6e" transform="translate(78.052734 0)"/>
      <use xlink:href="#DejaVuSans-61" transform="translate(141.431641 0)"/>
      <use xlink:href="#DejaVuSans-6c" transform="translate(202.710938 0)"/>
      <use xlink:href="#DejaVuSans-2d" transform="translate(230.494141 0)"/>
      <use xlink:href="#DejaVuSans-72" transform="translate(266.578125 0)"/>
      <use xlink:href="#DejaVuSans-75" transform="translate(307.691406 0)"/>
      <use xlink:href="#DejaVuSans-6e" transform="translate(371.070312 0)"/>
      <use xlink:href="#DejaVuSans-20" transform="translate(434.449219 0)"/>
      <use xlink:href="#DejaVuSans-77" transform="translate(466.236328 0)"/>
      <use xlink:href="#DejaVuSans-61" transform="translate(548.023438 0)"/>
      <use xlink:href="#DejaVuSans-6c" transform="translate(609.302734 0)"/>
      <use xlink:href="#DejaVuSans-6c" transform="translate(637.085938 0)"/>
      <use xlink:href="#DejaVuSans-63" transform="translate(664.869141 0)"/>
      <use xlink:href="#DejaVuSans-6c" transform="translate(719.849609 0)"/>
      <use xlink:href="#DejaVuSans-6f" transform="translate(747.632812 0)"/>
      <use xlink:href="#DejaVuSans-63" transform="translate(808.814453 0)"/>
      <use xlink:href="#DejaVuSans-6b" transform="translate(863.794922 0)"/>
      <use xlink:href="#DejaVuSans-20" transform="translate(921.705078 0)"/>
      <use xlink:href="#DejaVuSans-66" transform="translate(953.492188 0)"/>
      <use xlink:href="#DejaVuSans-72" transform="translate(988.697266 0)"/>
      <use xlink:href="#DejaVuSans-6f" transform="translate(1027.560547 0)"/>
      <use xlink:href="#DejaVuSans-6d" transform="translate(1088.742188 0)"/>
      <use xlink:href="#DejaVuSans-20" transform="translate(1186.154297 0)"/>
      <use xlink:href="#DejaVuSans-70" transform="translate(1217.941406 0)"/>
      <use xlink:href="#DejaVuSans-69" transform="translate(1281.417969 0)"/>
      <use xlink:href="#DejaVuSans-70" transform="translate(1309.201172 0)"/>
      <use xlink:href="#DejaVuSans-65" transform="translate(1372.677734 0)"/>
      <use xlink:href="#DejaVuSans-6c" transform="translate(1434.201172 0)"/>
      <use xlink:href="#DejaVuSans-69" transform="translate(1461.984375 0)"/>
      <use xlink:href="#DejaVuSans-6e" transform="translate(1489.767578 0)"/>
      <use xlink:href="#DejaVuSans-65" transform="translate(1553.146484 0)"/>
      <use xlink:href="#DejaVuSans-5f" transform="translate(1614.669922 0)"/>
      <use xlink:href="#DejaVuSans-72" transform="translate(1664.669922 0)"/>
      <use xlink:href="#DejaVuSans-65" transform="translate(1703.533203 0)"/>
      <use xlink:href="#DejaVuSans-70" transform="translate(1765.056641 0)"/>
      <use xlink:href="#DejaVuSans-6f" transform="translate(1828.533203 0)"/>
      <use xlink:href="#DejaVuSans-72" transform="translate(1889.714844 0)"/>
      <use xlink:href="#DejaVuSans-74" transform="translate(1930.828125 0)"/>
      <use xlink:href="#DejaVuSans-20" transform="translate(1970.037109 0)"/>
      <use xlink:href="#DejaVuSans-28" transform="translate(2001.824219 0)"/>
      <use xlink:href="#DejaVuSans-68" transform="translate(2040.837891 0)"/>
      <use xlink:href="#DejaVuSans-6f" transform="translate(2104.216797 0)"/>
      <use xlink:href="#DejaVuSans-75" transform="translate(2165.398438 0)"/>
      <use xlink:href="#DejaVuSans-72" transform="translate(2228.777344 0)"/>
      <use xlink:href="#DejaVuSans-73" transform="translate(2269.890625 0)"/>
      <use xlink:href="#DejaVuSans-29" transform="translate(2321.990234 0)"/>
     </g>
    </g>
   </g>
   <g id="patch_3">
    <path d="M 37.74125 316.168 
L 37.74125 10.8 
" style="fill: none; stroke: #000000; stroke-width: 0.8; stroke-linejoin: miter; stroke-linecap: square"/>
   </g>
   <g id="patch_4">
    <path d="M 37.74125 316.168 
L 543.407339 316.168 
" style="fill: none; stroke: #000000; stroke-width: 0.8; stroke-linejoin: miter; stroke-linecap: square"/>
   </g>
   <g id="text_12">
    <!-- PXD003539 -->
    <g style="fill: #444444" transform="translate(265.89156 125.836953) scale(0.07 -0.07)">
     <defs>
      <path id="DejaVuSans-50" d="M 1259 4147 
L 1259 2394 
L 2053 2394 
Q 2494 2394 2734 2622 
Q 2975 2850 2975 3272 
Q 2975 3691 2734 3919 
Q 2494 4147 2053 4147 
L 1259 4147 
z
M 628 4666 
L 2053 4666 
Q 2838 4666 3239 4311 
Q 3641 3956 3641 3272 
Q 3641 2581 3239 2228 
Q 2838 1875 2053 1875 
L 1259 1875 
L 1259 0 
L 628 0 
L 628 4666 
z
" transform="scale(0.015625)"/>
      <path id="DejaVuSans-58" d="M 403 4666 
L 1081 4666 
L 2241 2931 
L 3406 4666 
L 4084 4666 
L 2584 2425 
L 4184 0 
L 3506 0 
L 2194 1984 
L 872 0 
L 191 0 
L 1856 2491 
L 403 4666 
z
" transform="scale(0.015625)"/>
      <path id="DejaVuSans-44" d="M 1259 4147 
L 1259 519 
L 2022 519 
Q 2988 519 3436 956 
Q 3884 1394 3884 2338 
Q 3884 3275 3436 3711 
Q 2988 4147 2022 4147 
L 1259 4147 
z
M 628 4666 
L 1925 4666 
Q 3281 4666 3915 4102 
Q 4550 3538 4550 2338 
Q 4550 1131 3912 565 
Q 3275 0 1925 0 
L 628 0 
L 628 4666 
z
" transform="scale(0.015625)"/>
      <path id="DejaVuSans-39" d="M 703 97 
L 703 672 
Q 941 559 1184 500 
Q 1428 441 1663 441 
Q 2288 441 2617 861 
Q 2947 1281 2994 2138 
Q 2813 1869 2534 1725 
Q 2256 1581 1919 1581 
Q 1219 1581 811 2004 
Q 403 2428 403 3163 
Q 403 3881 828 4315 
Q 1253 4750 1959 4750 
Q 2769 4750 3195 4129 
Q 3622 3509 3622 2328 
Q 3622 1225 3098 567 
Q 2575 -91 1691 -91 
Q 1453 -91 1209 -44 
Q 966 3 703 97 
z
M 1959 2075 
Q 2384 2075 2632 2365 
Q 2881 2656 2881 3163 
Q 2881 3666 2632 3958 
Q 2384 4250 1959 4250 
Q 1534 4250 1286 3958 
Q 1038 3666 1038 3163 
Q 1038 2656 1286 2365 
Q 1534 2075 1959 2075 
z
" transform="scale(0.015625)"/>
     </defs>
     <use xlink:href="#DejaVuSans-50"/>
     <use xlink:href="#DejaVuSans-58" transform="translate(60.302734 0)"/>
     <use xlink:href="#DejaVuSans-44" transform="translate(128.808594 0)"/>
     <use xlink:href="#DejaVuSans-30" transform="translate(205.810547 0)"/>
     <use xlink:href="#DejaVuSans-30" transform="translate(269.433594 0)"/>
     <use xlink:href="#DejaVuSans-33" transform="translate(333.056641 0)"/>
     <use xlink:href="#DejaVuSans-35" transform="translate(396.679688 0)"/>
     <use xlink:href="#DejaVuSans-33" transform="translate(460.302734 0)"/>
     <use xlink:href="#DejaVuSans-39" transform="translate(523.925781 0)"/>
    </g>
   </g>
   <g id="text_13">
    <!-- PXD030304 -->
    <g style="fill: #444444" transform="translate(520.54252 53.381559) scale(0.07 -0.07)">
     <use xlink:href="#DejaVuSans-50"/>
     <use xlink:href="#DejaVuSans-58" transform="translate(60.302734 0)"/>
     <use xlink:href="#DejaVuSans-44" transform="translate(128.808594 0)"/>
     <use xlink:href="#DejaVuSans-30" transform="translate(205.810547 0)"/>
     <use xlink:href="#DejaVuSans-33" transform="translate(269.433594 0)"/>
     <use xlink:href="#DejaVuSans-30" transform="translate(333.056641 0)"/>
     <use xlink:href="#DejaVuSans-33" transform="translate(396.679688 0)"/>
     <use xlink:href="#DejaVuSans-30" transform="translate(460.302734 0)"/>
     <use xlink:href="#DejaVuSans-34" transform="translate(523.925781 0)"/>
    </g>
   </g>
   <g id="text_14">
    <!-- PXD004701 -->
    <g style="fill: #444444" transform="translate(326.063752 210.526052) scale(0.07 -0.07)">
     <defs>
      <path id="DejaVuSans-37" d="M 525 4666 
L 3525 4666 
L 3525 4397 
L 1831 0 
L 1172 0 
L 2766 4134 
L 525 4134 
L 525 4666 
z
" transform="scale(0.015625)"/>
     </defs>
     <use xlink:href="#DejaVuSans-50"/>
     <use xlink:href="#DejaVuSans-58" transform="translate(60.302734 0)"/>
     <use xlink:href="#DejaVuSans-44" transform="translate(128.808594 0)"/>
     <use xlink:href="#DejaVuSans-30" transform="translate(205.810547 0)"/>
     <use xlink:href="#DejaVuSans-30" transform="translate(269.433594 0)"/>
     <use xlink:href="#DejaVuSans-34" transform="translate(333.056641 0)"/>
     <use xlink:href="#DejaVuSans-37" transform="translate(396.679688 0)"/>
     <use xlink:href="#DejaVuSans-30" transform="translate(460.302734 0)"/>
     <use xlink:href="#DejaVuSans-31" transform="translate(523.925781 0)"/>
    </g>
   </g>
   <g id="legend_1">
    <g id="text_15">
     <!-- Instrument -->
     <g transform="translate(99.766641 24.838594) scale(0.09 -0.09)">
      <defs>
       <path id="DejaVuSans-49" d="M 628 4666 
L 1259 4666 
L 1259 0 
L 628 0 
L 628 4666 
z
" transform="scale(0.015625)"/>
      </defs>
      <use xlink:href="#DejaVuSans-49"/>
      <use xlink:href="#DejaVuSans-6e" transform="translate(29.492188 0)"/>
      <use xlink:href="#DejaVuSans-73" transform="translate(92.871094 0)"/>
      <use xlink:href="#DejaVuSans-74" transform="translate(144.970703 0)"/>
      <use xlink:href="#DejaVuSans-72" transform="translate(184.179688 0)"/>
      <use xlink:href="#DejaVuSans-75" transform="translate(225.292969 0)"/>
      <use xlink:href="#DejaVuSans-6d" transform="translate(288.671875 0)"/>
      <use xlink:href="#DejaVuSans-65" transform="translate(386.083984 0)"/>
      <use xlink:href="#DejaVuSans-6e" transform="translate(447.607422 0)"/>
      <use xlink:href="#DejaVuSans-74" transform="translate(510.986328 0)"/>
     </g>
    </g>
    <g id="PathCollection_7">
     <defs>
      <path id="m266ce6e829" d="M 0 6.708204 
C 1.779036 6.708204 3.485448 6.001385 4.743416 4.743416 
C 6.001385 3.485448 6.708204 1.779036 6.708204 0 
C 6.708204 -1.779036 6.001385 -3.485448 4.743416 -4.743416 
C 3.485448 -6.001385 1.779036 -6.708204 0 -6.708204 
C -1.779036 -6.708204 -3.485448 -6.001385 -4.743416 -4.743416 
C -6.001385 -3.485448 -6.708204 -1.779036 -6.708204 0 
C -6.708204 1.779036 -6.001385 3.485448 -4.743416 4.743416 
C -3.485448 6.001385 -1.779036 6.708204 0 6.708204 
z
" style="stroke: #222222; stroke-opacity: 0.78; stroke-width: 0.6"/>
     </defs>
     <g>
      <use xlink:href="#m266ce6e829" x="52.94125" y="34.689062" style="fill: #1e88e5; fill-opacity: 0.78; stroke: #222222; stroke-opacity: 0.78; stroke-width: 0.6"/>
     </g>
    </g>
    <g id="text_16">
     <!-- Orbitrap Astral -->
     <g transform="translate(67.34125 36.789062) scale(0.08 -0.08)">
      <defs>
       <path id="DejaVuSans-4f" d="M 2522 4238 
Q 1834 4238 1429 3725 
Q 1025 3213 1025 2328 
Q 1025 1447 1429 934 
Q 1834 422 2522 422 
Q 3209 422 3611 934 
Q 4013 1447 4013 2328 
Q 4013 3213 3611 3725 
Q 3209 4238 2522 4238 
z
M 2522 4750 
Q 3503 4750 4090 4092 
Q 4678 3434 4678 2328 
Q 4678 1225 4090 567 
Q 3503 -91 2522 -91 
Q 1538 -91 948 565 
Q 359 1222 359 2328 
Q 359 3434 948 4092 
Q 1538 4750 2522 4750 
z
" transform="scale(0.015625)"/>
       <path id="DejaVuSans-41" d="M 2188 4044 
L 1331 1722 
L 3047 1722 
L 2188 4044 
z
M 1831 4666 
L 2547 4666 
L 4325 0 
L 3669 0 
L 3244 1197 
L 1141 1197 
L 716 0 
L 50 0 
L 1831 4666 
z
" transform="scale(0.015625)"/>
      </defs>
      <use xlink:href="#DejaVuSans-4f"/>
      <use xlink:href="#DejaVuSans-72" transform="translate(78.710938 0)"/>
      <use xlink:href="#DejaVuSans-62" transform="translate(119.824219 0)"/>
      <use xlink:href="#DejaVuSans-69" transform="translate(183.300781 0)"/>
      <use xlink:href="#DejaVuSans-74" transform="translate(211.083984 0)"/>
      <use xlink:href="#DejaVuSans-72" transform="translate(250.292969 0)"/>
      <use xlink:href="#DejaVuSans-61" transform="translate(291.40625 0)"/>
      <use xlink:href="#DejaVuSans-70" transform="translate(352.685547 0)"/>
      <use xlink:href="#DejaVuSans-20" transform="translate(416.162109 0)"/>
      <use xlink:href="#DejaVuSans-41" transform="translate(447.949219 0)"/>
      <use xlink:href="#DejaVuSans-73" transform="translate(516.357422 0)"/>
      <use xlink:href="#DejaVuSans-74" transform="translate(568.457031 0)"/>
      <use xlink:href="#DejaVuSans-72" transform="translate(607.666016 0)"/>
      <use xlink:href="#DejaVuSans-61" transform="translate(648.779297 0)"/>
      <use xlink:href="#DejaVuSans-6c" transform="translate(710.058594 0)"/>
     </g>
    </g>
    <g id="PathCollection_8">
     <g>
      <use xlink:href="#mc80cdc7eb0" x="52.94125" y="46.431563" style="fill: #fb8c00; fill-opacity: 0.78; stroke: #222222; stroke-opacity: 0.78; stroke-width: 0.6"/>
     </g>
    </g>
    <g id="text_17">
     <!-- TripleTOF 5600 -->
     <g transform="translate(67.34125 48.531563) scale(0.08 -0.08)">
      <defs>
       <path id="DejaVuSans-54" d="M -19 4666 
L 3928 4666 
L 3928 4134 
L 2272 4134 
L 2272 0 
L 1638 0 
L 1638 4134 
L -19 4134 
L -19 4666 
z
" transform="scale(0.015625)"/>
       <path id="DejaVuSans-36" d="M 2113 2584 
Q 1688 2584 1439 2293 
Q 1191 2003 1191 1497 
Q 1191 994 1439 701 
Q 1688 409 2113 409 
Q 2538 409 2786 701 
Q 3034 994 3034 1497 
Q 3034 2003 2786 2293 
Q 2538 2584 2113 2584 
z
M 3366 4563 
L 3366 3988 
Q 3128 4100 2886 4159 
Q 2644 4219 2406 4219 
Q 1781 4219 1451 3797 
Q 1122 3375 1075 2522 
Q 1259 2794 1537 2939 
Q 1816 3084 2150 3084 
Q 2853 3084 3261 2657 
Q 3669 2231 3669 1497 
Q 3669 778 3244 343 
Q 2819 -91 2113 -91 
Q 1303 -91 875 529 
Q 447 1150 447 2328 
Q 447 3434 972 4092 
Q 1497 4750 2381 4750 
Q 2619 4750 2861 4703 
Q 3103 4656 3366 4563 
z
" transform="scale(0.015625)"/>
      </defs>
      <use xlink:href="#DejaVuSans-54"/>
      <use xlink:href="#DejaVuSans-72" transform="translate(46.333984 0)"/>
      <use xlink:href="#DejaVuSans-69" transform="translate(87.447266 0)"/>
      <use xlink:href="#DejaVuSans-70" transform="translate(115.230469 0)"/>
      <use xlink:href="#DejaVuSans-6c" transform="translate(178.707031 0)"/>
      <use xlink:href="#DejaVuSans-65" transform="translate(206.490234 0)"/>
      <use xlink:href="#DejaVuSans-54" transform="translate(268.013672 0)"/>
      <use xlink:href="#DejaVuSans-4f" transform="translate(329.097656 0)"/>
      <use xlink:href="#DejaVuSans-46" transform="translate(407.808594 0)"/>
      <use xlink:href="#DejaVuSans-20" transform="translate(465.328125 0)"/>
      <use xlink:href="#DejaVuSans-35" transform="translate(497.115234 0)"/>
      <use xlink:href="#DejaVuSans-36" transform="translate(560.738281 0)"/>
      <use xlink:href="#DejaVuSans-30" transform="translate(624.361328 0)"/>
      <use xlink:href="#DejaVuSans-30" transform="translate(687.984375 0)"/>
     </g>
    </g>
    <g id="PathCollection_9">
     <path d="M 52.94125 68.780664 
C 55.754154 68.780664 58.452227 67.663086 60.44125 65.674062 
C 62.430273 63.685039 63.547852 60.986966 63.547852 58.174062 
C 63.547852 55.361159 62.430273 52.663086 60.44125 50.674062 
C 58.452227 48.685039 55.754154 47.567461 52.94125 47.567461 
C 50.128346 47.567461 47.430273 48.685039 45.44125 50.674062 
C 43.452227 52.663086 42.334648 55.361159 42.334648 58.174062 
C 42.334648 60.986966 43.452227 63.685039 45.44125 65.674062 
C 47.430273 67.663086 50.128346 68.780664 52.94125 68.780664 
L 52.94125 68.780664 
z
" style="fill: none; stroke: #e53935; stroke-width: 1.6"/>
    </g>
    <g id="text_18">
     <!-- TripleTOF 6600 (trace incomplete) -->
     <g transform="translate(67.34125 60.274063) scale(0.08 -0.08)">
      <use xlink:href="#DejaVuSans-54"/>
      <use xlink:href="#DejaVuSans-72" transform="translate(46.333984 0)"/>
      <use xlink:href="#DejaVuSans-69" transform="translate(87.447266 0)"/>
      <use xlink:href="#DejaVuSans-70" transform="translate(115.230469 0)"/>
      <use xlink:href="#DejaVuSans-6c" transform="translate(178.707031 0)"/>
      <use xlink:href="#DejaVuSans-65" transform="translate(206.490234 0)"/>
      <use xlink:href="#DejaVuSans-54" transform="translate(268.013672 0)"/>
      <use xlink:href="#DejaVuSans-4f" transform="translate(329.097656 0)"/>
      <use xlink:href="#DejaVuSans-46" transform="translate(407.808594 0)"/>
      <use xlink:href="#DejaVuSans-20" transform="translate(465.328125 0)"/>
      <use xlink:href="#DejaVuSans-36" transform="translate(497.115234 0)"/>
      <use xlink:href="#DejaVuSans-36" transform="translate(560.738281 0)"/>
      <use xlink:href="#DejaVuSans-30" transform="translate(624.361328 0)"/>
      <use xlink:href="#DejaVuSans-30" transform="translate(687.984375 0)"/>
      <use xlink:href="#DejaVuSans-20" transform="translate(751.607422 0)"/>
      <use xlink:href="#DejaVuSans-28" transform="translate(783.394531 0)"/>
      <use xlink:href="#DejaVuSans-74" transform="translate(822.408203 0)"/>
      <use xlink:href="#DejaVuSans-72" transform="translate(861.617188 0)"/>
      <use xlink:href="#DejaVuSans-61" transform="translate(902.730469 0)"/>
      <use xlink:href="#DejaVuSans-63" transform="translate(964.009766 0)"/>
      <use xlink:href="#DejaVuSans-65" transform="translate(1018.990234 0)"/>
      <use xlink:href="#DejaVuSans-20" transform="translate(1080.513672 0)"/>
      <use xlink:href="#DejaVuSans-69" transform="translate(1112.300781 0)"/>
      <use xlink:href="#DejaVuSans-6e" transform="translate(1140.083984 0)"/>
      <use xlink:href="#DejaVuSans-63" transform="translate(1203.462891 0)"/>
      <use xlink:href="#DejaVuSans-6f" transform="translate(1258.443359 0)"/>
      <use xlink:href="#DejaVuSans-6d" transform="translate(1319.625 0)"/>
      <use xlink:href="#DejaVuSans-70" transform="translate(1417.037109 0)"/>
      <use xlink:href="#DejaVuSans-6c" transform="translate(1480.513672 0)"/>
      <use xlink:href="#DejaVuSans-65" transform="translate(1508.296875 0)"/>
      <use xlink:href="#DejaVuSans-74" transform="translate(1569.820312 0)"/>
      <use xlink:href="#DejaVuSans-65" transform="translate(1609.029297 0)"/>
      <use xlink:href="#DejaVuSans-29" transform="translate(1670.552734 0)"/>
     </g>
    </g>
    <g id="PathCollection_10">
     <defs>
      <path id="macd4730b5a" d="M 0 7.245688 
C 1.921579 7.245688 3.764714 6.482237 5.123475 5.123475 
C 6.482237 3.764714 7.245688 1.921579 7.245688 0 
C 7.245688 -1.921579 6.482237 -3.764714 5.123475 -5.123475 
C 3.764714 -6.482237 1.921579 -7.245688 0 -7.245688 
C -1.921579 -7.245688 -3.764714 -6.482237 -5.123475 -5.123475 
C -6.482237 -3.764714 -7.245688 -1.921579 -7.245688 0 
C -7.245688 1.921579 -6.482237 3.764714 -5.123475 5.123475 
C -3.764714 6.482237 -1.921579 7.245688 0 7.245688 
z
" style="stroke: #222222; stroke-opacity: 0.78; stroke-width: 0.6"/>
     </defs>
     <g>
      <use xlink:href="#macd4730b5a" x="52.94125" y="69.916563" style="fill: #00897b; fill-opacity: 0.78; stroke: #222222; stroke-opacity: 0.78; stroke-width: 0.6"/>
     </g>
    </g>
    <g id="text_19">
     <!-- ZenoTOF 7600 -->
     <g transform="translate(67.34125 72.016563) scale(0.08 -0.08)">
      <defs>
       <path id="DejaVuSans-5a" d="M 359 4666 
L 4025 4666 
L 4025 4184 
L 1075 531 
L 4097 531 
L 4097 0 
L 288 0 
L 288 481 
L 3238 4134 
L 359 4134 
L 359 4666 
z
" transform="scale(0.015625)"/>
      </defs>
      <use xlink:href="#DejaVuSans-5a"/>
      <use xlink:href="#DejaVuSans-65" transform="translate(68.505859 0)"/>
      <use xlink:href="#DejaVuSans-6e" transform="translate(130.029297 0)"/>
      <use xlink:href="#DejaVuSans-6f" transform="translate(193.408203 0)"/>
      <use xlink:href="#DejaVuSans-54" transform="translate(254.589844 0)"/>
      <use xlink:href="#DejaVuSans-4f" transform="translate(315.673828 0)"/>
      <use xlink:href="#DejaVuSans-46" transform="translate(394.384766 0)"/>
      <use xlink:href="#DejaVuSans-20" transform="translate(451.904297 0)"/>
      <use xlink:href="#DejaVuSans-37" transform="translate(483.691406 0)"/>
      <use xlink:href="#DejaVuSans-36" transform="translate(547.314453 0)"/>
      <use xlink:href="#DejaVuSans-30" transform="translate(610.9375 0)"/>
      <use xlink:href="#DejaVuSans-30" transform="translate(674.560547 0)"/>
     </g>
    </g>
    <g id="PathCollection_11">
     <defs>
      <path id="m5cadd0d53b" d="M 0 8.215838 
C 2.178866 8.215838 4.268784 7.350166 5.809475 5.809475 
C 7.350166 4.268784 8.215838 2.178866 8.215838 0 
C 8.215838 -2.178866 7.350166 -4.268784 5.809475 -5.809475 
C 4.268784 -7.350166 2.178866 -8.215838 0 -8.215838 
C -2.178866 -8.215838 -4.268784 -7.350166 -5.809475 -5.809475 
C -7.350166 -4.268784 -8.215838 -2.178866 -8.215838 0 
C -8.215838 2.178866 -7.350166 4.268784 -5.809475 5.809475 
C -4.268784 7.350166 -2.178866 8.215838 0 8.215838 
z
" style="stroke: #222222; stroke-opacity: 0.78; stroke-width: 0.6"/>
     </defs>
     <g>
      <use xlink:href="#m5cadd0d53b" x="52.94125" y="81.659063" style="fill: #8e24aa; fill-opacity: 0.78; stroke: #222222; stroke-opacity: 0.78; stroke-width: 0.6"/>
     </g>
    </g>
    <g id="text_20">
     <!-- timsTOF SCP -->
     <g transform="translate(67.34125 83.759063) scale(0.08 -0.08)">
      <defs>
       <path id="DejaVuSans-43" d="M 4122 4306 
L 4122 3641 
Q 3803 3938 3442 4084 
Q 3081 4231 2675 4231 
Q 1875 4231 1450 3742 
Q 1025 3253 1025 2328 
Q 1025 1406 1450 917 
Q 1875 428 2675 428 
Q 3081 428 3442 575 
Q 3803 722 4122 1019 
L 4122 359 
Q 3791 134 3420 21 
Q 3050 -91 2638 -91 
Q 1578 -91 968 557 
Q 359 1206 359 2328 
Q 359 3453 968 4101 
Q 1578 4750 2638 4750 
Q 3056 4750 3426 4639 
Q 3797 4528 4122 4306 
z
" transform="scale(0.015625)"/>
      </defs>
      <use xlink:href="#DejaVuSans-74"/>
      <use xlink:href="#DejaVuSans-69" transform="translate(39.208984 0)"/>
      <use xlink:href="#DejaVuSans-6d" transform="translate(66.992188 0)"/>
      <use xlink:href="#DejaVuSans-73" transform="translate(164.404297 0)"/>
      <use xlink:href="#DejaVuSans-54" transform="translate(216.503906 0)"/>
      <use xlink:href="#DejaVuSans-4f" transform="translate(277.587891 0)"/>
      <use xlink:href="#DejaVuSans-46" transform="translate(356.298828 0)"/>
      <use xlink:href="#DejaVuSans-20" transform="translate(413.818359 0)"/>
      <use xlink:href="#DejaVuSans-53" transform="translate(445.605469 0)"/>
      <use xlink:href="#DejaVuSans-43" transform="translate(509.082031 0)"/>
      <use xlink:href="#DejaVuSans-50" transform="translate(578.90625 0)"/>
     </g>
    </g>
   </g>
   <g id="legend_2">
    <g id="text_21">
     <!-- Workflow invocations -->
     <g transform="translate(436.593589 28.838594) scale(0.09 -0.09)">
      <defs>
       <path id="DejaVuSans-57" d="M 213 4666 
L 850 4666 
L 1831 722 
L 2809 4666 
L 3519 4666 
L 4500 722 
L 5478 4666 
L 6119 4666 
L 4947 0 
L 4153 0 
L 3169 4050 
L 2175 0 
L 1381 0 
L 213 4666 
z
" transform="scale(0.015625)"/>
       <path id="DejaVuSans-76" d="M 191 3500 
L 800 3500 
L 1894 563 
L 2988 3500 
L 3597 3500 
L 2284 0 
L 1503 0 
L 191 3500 
z
" transform="scale(0.015625)"/>
      </defs>
      <use xlink:href="#DejaVuSans-57"/>
      <use xlink:href="#DejaVuSans-6f" transform="translate(93.001953 0)"/>
      <use xlink:href="#DejaVuSans-72" transform="translate(154.183594 0)"/>
      <use xlink:href="#DejaVuSans-6b" transform="translate(195.296875 0)"/>
      <use xlink:href="#DejaVuSans-66" transform="translate(253.207031 0)"/>
      <use xlink:href="#DejaVuSans-6c" transform="translate(288.412109 0)"/>
      <use xlink:href="#DejaVuSans-6f" transform="translate(316.195312 0)"/>
      <use xlink:href="#DejaVuSans-77" transform="translate(377.376953 0)"/>
      <use xlink:href="#DejaVuSans-20" transform="translate(459.164062 0)"/>
      <use xlink:href="#DejaVuSans-69" transform="translate(490.951172 0)"/>
      <use xlink:href="#DejaVuSans-6e" transform="translate(518.734375 0)"/>
      <use xlink:href="#DejaVuSans-76" transform="translate(582.113281 0)"/>
      <use xlink:href="#DejaVuSans-6f" transform="translate(641.292969 0)"/>
      <use xlink:href="#DejaVuSans-63" transform="translate(702.474609 0)"/>
      <use xlink:href="#DejaVuSans-61" transform="translate(757.455078 0)"/>
      <use xlink:href="#DejaVuSans-74" transform="translate(818.734375 0)"/>
      <use xlink:href="#DejaVuSans-69" transform="translate(857.943359 0)"/>
      <use xlink:href="#DejaVuSans-6f" transform="translate(885.726562 0)"/>
      <use xlink:href="#DejaVuSans-6e" transform="translate(946.908203 0)"/>
      <use xlink:href="#DejaVuSans-73" transform="translate(1010.287109 0)"/>
     </g>
    </g>
    <g id="line2d_39">
     <path d="M 438.958589 45.189063 
L 446.958589 45.189063 
L 454.958589 45.189063 
" style="fill: none; stroke: #ffffff; stroke-width: 1.5; stroke-linecap: square"/>
     <defs>
      <path id="m3f76193aff" d="M 0 4.743416 
C 1.257969 4.743416 2.464584 4.24362 3.354102 3.354102 
C 4.24362 2.464584 4.743416 1.257969 4.743416 0 
C 4.743416 -1.257969 4.24362 -2.464584 3.354102 -3.354102 
C 2.464584 -4.24362 1.257969 -4.743416 0 -4.743416 
C -1.257969 -4.743416 -2.464584 -4.24362 -3.354102 -3.354102 
C -4.24362 -2.464584 -4.743416 -1.257969 -4.743416 0 
C -4.743416 1.257969 -4.24362 2.464584 -3.354102 3.354102 
C -2.464584 4.24362 -1.257969 4.743416 0 4.743416 
z
" style="stroke: #222222; stroke-width: 0.6"/>
     </defs>
     <g>
      <use xlink:href="#m3f76193aff" x="446.958589" y="45.189063" style="fill: #bdbdbd; stroke: #222222; stroke-width: 0.6"/>
     </g>
    </g>
    <g id="text_22">
     <!-- 1 run -->
     <g transform="translate(462.958589 47.989063) scale(0.08 -0.08)">
      <use xlink:href="#DejaVuSans-31"/>
      <use xlink:href="#DejaVuSans-20" transform="translate(63.623047 0)"/>
      <use xlink:href="#DejaVuSans-72" transform="translate(95.410156 0)"/>
      <use xlink:href="#DejaVuSans-75" transform="translate(136.523438 0)"/>
      <use xlink:href="#DejaVuSans-6e" transform="translate(199.902344 0)"/>
     </g>
    </g>
    <g id="line2d_40">
     <path d="M 438.958589 64.131563 
L 446.958589 64.131563 
L 454.958589 64.131563 
" style="fill: none; stroke: #ffffff; stroke-width: 1.5; stroke-linecap: square"/>
     <defs>
      <path id="m0851127277" d="M 0 7.245688 
C 1.921579 7.245688 3.764714 6.482237 5.123475 5.123475 
C 6.482237 3.764714 7.245688 1.921579 7.245688 0 
C 7.245688 -1.921579 6.482237 -3.764714 5.123475 -5.123475 
C 3.764714 -6.482237 1.921579 -7.245688 0 -7.245688 
C -1.921579 -7.245688 -3.764714 -6.482237 -5.123475 -5.123475 
C -6.482237 -3.764714 -7.245688 -1.921579 -7.245688 0 
C -7.245688 1.921579 -6.482237 3.764714 -5.123475 5.123475 
C -3.764714 6.482237 -1.921579 7.245688 0 7.245688 
z
" style="stroke: #222222; stroke-width: 0.6"/>
     </defs>
     <g>
      <use xlink:href="#m0851127277" x="446.958589" y="64.131563" style="fill: #bdbdbd; stroke: #222222; stroke-width: 0.6"/>
     </g>
    </g>
    <g id="text_23">
     <!-- 3 runs (-resume) -->
     <g transform="translate(462.958589 66.931563) scale(0.08 -0.08)">
      <use xlink:href="#DejaVuSans-33"/>
      <use xlink:href="#DejaVuSans-20" transform="translate(63.623047 0)"/>
      <use xlink:href="#DejaVuSans-72" transform="translate(95.410156 0)"/>
      <use xlink:href="#DejaVuSans-75" transform="translate(136.523438 0)"/>
      <use xlink:href="#DejaVuSans-6e" transform="translate(199.902344 0)"/>
      <use xlink:href="#DejaVuSans-73" transform="translate(263.28125 0)"/>
      <use xlink:href="#DejaVuSans-20" transform="translate(315.380859 0)"/>
      <use xlink:href="#DejaVuSans-28" transform="translate(347.167969 0)"/>
      <use xlink:href="#DejaVuSans-2d" transform="translate(386.181641 0)"/>
      <use xlink:href="#DejaVuSans-72" transform="translate(422.265625 0)"/>
      <use xlink:href="#DejaVuSans-65" transform="translate(461.128906 0)"/>
      <use xlink:href="#DejaVuSans-73" transform="translate(522.652344 0)"/>
      <use xlink:href="#DejaVuSans-75" transform="translate(574.751953 0)"/>
      <use xlink:href="#DejaVuSans-6d" transform="translate(638.130859 0)"/>
      <use xlink:href="#DejaVuSans-65" transform="translate(735.542969 0)"/>
      <use xlink:href="#DejaVuSans-29" transform="translate(797.066406 0)"/>
     </g>
    </g>
    <g id="line2d_41">
     <path d="M 438.958589 83.074063 
L 446.958589 83.074063 
L 454.958589 83.074063 
" style="fill: none; stroke: #ffffff; stroke-width: 1.5; stroke-linecap: square"/>
     <defs>
      <path id="md25a3e80c8" d="M 0 10.606602 
C 2.812904 10.606602 5.510977 9.489023 7.5 7.5 
C 9.489023 5.510977 10.606602 2.812904 10.606602 0 
C 10.606602 -2.812904 9.489023 -5.510977 7.5 -7.5 
C 5.510977 -9.489023 2.812904 -10.606602 0 -10.606602 
C -2.812904 -10.606602 -5.510977 -9.489023 -7.5 -7.5 
C -9.489023 -5.510977 -10.606602 -2.812904 -10.606602 0 
C -10.606602 2.812904 -9.489023 5.510977 -7.5 7.5 
C -5.510977 9.489023 -2.812904 10.606602 0 10.606602 
z
" style="stroke: #222222; stroke-width: 0.6"/>
     </defs>
     <g>
      <use xlink:href="#md25a3e80c8" x="446.958589" y="83.074063" style="fill: #bdbdbd; stroke: #222222; stroke-width: 0.6"/>
     </g>
    </g>
    <g id="text_24">
     <!-- 7 runs (-resume) -->
     <g transform="translate(462.958589 85.874063) scale(0.08 -0.08)">
      <use xlink:href="#DejaVuSans-37"/>
      <use xlink:href="#DejaVuSans-20" transform="translate(63.623047 0)"/>
      <use xlink:href="#DejaVuSans-72" transform="translate(95.410156 0)"/>
      <use xlink:href="#DejaVuSans-75" transform="translate(136.523438 0)"/>
      <use xlink:href="#DejaVuSans-6e" transform="translate(199.902344 0)"/>
      <use xlink:href="#DejaVuSans-73" transform="translate(263.28125 0)"/>
      <use xlink:href="#DejaVuSans-20" transform="translate(315.380859 0)"/>
      <use xlink:href="#DejaVuSans-28" transform="translate(347.167969 0)"/>
      <use xlink:href="#DejaVuSans-2d" transform="translate(386.181641 0)"/>
      <use xlink:href="#DejaVuSans-72" transform="translate(422.265625 0)"/>
      <use xlink:href="#DejaVuSans-65" transform="translate(461.128906 0)"/>
      <use xlink:href="#DejaVuSans-73" transform="translate(522.652344 0)"/>
      <use xlink:href="#DejaVuSans-75" transform="translate(574.751953 0)"/>
      <use xlink:href="#DejaVuSans-6d" transform="translate(638.130859 0)"/>
      <use xlink:href="#DejaVuSans-65" transform="translate(735.542969 0)"/>
      <use xlink:href="#DejaVuSans-29" transform="translate(797.066406 0)"/>
     </g>
    </g>
   </g>
  </g>
 </g>
 <defs>
  <clipPath id="p06461a42d9">
   <rect x="37.74125" y="10.8" width="505.666089" height="305.368"/>
  </clipPath>
 </defs>
</svg>
