<?xml version="1.0" encoding="utf-8" standalone="no"?>
<!DOCTYPE svg PUBLIC "-//W3C//DTD SVG 1.1//EN"
  "http://www.w3.org/Graphics/SVG/1.1/DTD/svg11.dtd">
<svg xmlns:xlink="http://www.w3.org/1999/xlink" width="604.54125pt" height="321.568281pt" viewBox="0 0 604.54125 321.568281" xmlns="http://www.w3.org/2000/svg" version="1.1">
 <metadata>
  <rdf:RDF xmlns:dc="http://purl.org/dc/elements/1.1/" xmlns:cc="http://creativecommons.org/ns#" xmlns:rdf="http://www.w3.org/1999/02/22-rdf-syntax-ns#">
   <cc:Work>
    <dc:type rdf:resource="http://purl.org/dc/dcmitype/StillImage"/>
    <dc:date>2026-05-20T09:35:10.890115</dc:date>
    <dc:format>image/svg+xml</dc:format>
    <dc:creator>
     <cc:Agent>
      <dc:title>Matplotlib v3.10.6, https://matplotlib.org/</dc:title>
     </cc:Agent>
    </dc:creator>
   </cc:Work>
  </rdf:RDF>
 </metadata>
 <defs>
  <style type="text/css">*{stroke-linejoin: round; stroke-linecap: butt}</style>
 </defs>
 <g id="figure_1">
  <g id="patch_1">
   <path d="M 0 321.568281 
L 604.54125 321.568281 
L 604.54125 0 
L 0 0 
z
" style="fill: #ffffff"/>
  </g>
  <g id="axes_1">
   <g id="patch_2">
    <path d="M 33.8825 244.02368 
L 597.34125 244.02368 
L 597.34125 7.2 
L 33.8825 7.2 
z
" style="fill: #ffffff"/>
   </g>
   <g id="PathCollection_1">
    <path d="M 59.982075 217.145413 
C 61.240044 217.145413 62.446659 216.645617 63.336177 215.756099 
C 64.225695 214.86658 64.725491 213.659965 64.725491 212.401997 
C 64.725491 211.144028 64.225695 209.937413 63.336177 209.047895 
C 62.446659 208.158376 61.240044 207.65858 59.982075 207.65858 
C 58.724106 207.65858 57.517491 208.158376 56.627973 209.047895 
C 55.738455 209.937413 55.238658 211.144028 55.238658 212.401997 
C 55.238658 213.659965 55.738455 214.86658 56.627973 215.756099 
C 57.517491 216.645617 58.724106 217.145413 59.982075 217.145413 
z
" clip-path="url(#p29a1b06b86)" style="fill: #1e88e5; fill-opacity: 0.78; stroke: #222222; stroke-opacity: 0.78; stroke-width: 0.6"/>
    <path d="M 59.982075 226.469905 
C 61.240044 226.469905 62.446659 225.970109 63.336177 225.080591 
C 64.225695 224.191072 64.725491 222.984457 64.725491 221.726489 
C 64.725491 220.46852 64.225695 219.261905 63.336177 218.372387 
C 62.446659 217.482868 61.240044 216.983072 59.982075 216.983072 
C 58.724106 216.983072 57.517491 217.482868 56.627973 218.372387 
C 55.738455 219.261905 55.238658 220.46852 55.238658 221.726489 
C 55.238658 222.984457 55.738455 224.191072 56.627973 225.080591 
C 57.517491 225.970109 58.724106 226.469905 59.982075 226.469905 
z
" clip-path="url(#p29a1b06b86)" style="fill: #1e88e5; fill-opacity: 0.78; stroke: #222222; stroke-opacity: 0.78; stroke-width: 0.6"/>
    <path d="M 59.982075 226.411627 
C 61.240044 226.411627 62.446659 225.911831 63.336177 225.022312 
C 64.225695 224.132794 64.725491 222.926179 64.725491 221.668211 
C 64.725491 220.410242 64.225695 219.203627 63.336177 218.314109 
C 62.446659 217.42459 61.240044 216.924794 59.982075 216.924794 
C 58.724106 216.924794 57.517491 217.42459 56.627973 218.314109 
C 55.738455 219.203627 55.238658 220.410242 55.238658 221.668211 
C 55.238658 222.926179 55.738455 224.132794 56.627973 225.022312 
C 57.517491 225.911831 58.724106 226.411627 59.982075 226.411627 
z
" clip-path="url(#p29a1b06b86)" style="fill: #1e88e5; fill-opacity: 0.78; stroke: #222222; stroke-opacity: 0.78; stroke-width: 0.6"/>
    <path d="M 59.982075 226.178515 
C 61.240044 226.178515 62.446659 225.678718 63.336177 224.7892 
C 64.225695 223.899682 64.725491 222.693067 64.725491 221.435098 
C 64.725491 220.177129 64.225695 218.970514 63.336177 218.080996 
C 62.446659 217.191478 61.240044 216.691682 59.982075 216.691682 
C 58.724106 216.691682 57.517491 217.191478 56.627973 218.080996 
C 55.738455 218.970514 55.238658 220.177129 55.238658 221.435098 
C 55.238658 222.693067 55.738455 223.899682 56.627973 224.7892 
C 57.517491 225.678718 58.724106 226.178515 59.982075 226.178515 
z
" clip-path="url(#p29a1b06b86)" style="fill: #1e88e5; fill-opacity: 0.78; stroke: #222222; stroke-opacity: 0.78; stroke-width: 0.6"/>
    <path d="M 59.982075 226.586461 
C 61.240044 226.586461 62.446659 226.086665 63.336177 225.197147 
C 64.225695 224.307628 64.725491 223.101013 64.725491 221.843045 
C 64.725491 220.585076 64.225695 219.378461 63.336177 218.488943 
C 62.446659 217.599425 61.240044 217.099628 59.982075 217.099628 
C 58.724106 217.099628 57.517491 217.599425 56.627973 218.488943 
C 55.738455 219.378461 55.238658 220.585076 55.238658 221.843045 
C 55.238658 223.101013 55.738455 224.307628 56.627973 225.197147 
C 57.517491 226.086665 58.724106 226.586461 59.982075 226.586461 
z
" clip-path="url(#p29a1b06b86)" style="fill: #1e88e5; fill-opacity: 0.78; stroke: #222222; stroke-opacity: 0.78; stroke-width: 0.6"/>
    <path d="M 59.982075 244.162177 
C 62.160941 244.162177 64.250859 243.296505 65.79155 241.755814 
C 67.332241 240.215123 68.197913 238.125205 68.197913 235.946339 
C 68.197913 233.767473 67.332241 231.677555 65.79155 230.136864 
C 64.250859 228.596173 62.160941 227.7305 59.982075 227.7305 
C 57.803209 227.7305 55.713291 228.596173 54.1726 230.136864 
C 52.631909 231.677555 51.766237 233.767473 51.766237 235.946339 
C 51.766237 238.125205 52.631909 240.215123 54.1726 241.755814 
C 55.713291 243.296505 57.803209 244.162177 59.982075 244.162177 
z
" clip-path="url(#p29a1b06b86)" style="fill: #1e88e5; fill-opacity: 0.78; stroke: #222222; stroke-opacity: 0.78; stroke-width: 0.6"/>
    <path d="M 59.982075 242.070063 
C 61.606106 242.070063 63.163839 241.424829 64.312202 240.276466 
C 65.460565 239.128103 66.105799 237.57037 66.105799 235.946339 
C 66.105799 234.322308 65.460565 232.764575 64.312202 231.616212 
C 63.163839 230.467849 61.606106 229.822614 59.982075 229.822614 
C 58.358044 229.822614 56.800311 230.467849 55.651948 231.616212 
C 54.503585 232.764575 53.858351 234.322308 53.858351 235.946339 
C 53.858351 237.57037 54.503585 239.128103 55.651948 240.276466 
C 56.800311 241.424829 58.358044 242.070063 59.982075 242.070063 
z
" clip-path="url(#p29a1b06b86)" style="fill: #1e88e5; fill-opacity: 0.78; stroke: #222222; stroke-opacity: 0.78; stroke-width: 0.6"/>
    <path d="M 59.982075 241.720395 
C 61.606106 241.720395 63.163839 241.075161 64.312202 239.926797 
C 65.460565 238.778434 66.105799 237.220701 66.105799 235.59667 
C 66.105799 233.97264 65.460565 232.414906 64.312202 231.266543 
C 63.163839 230.11818 61.606106 229.472946 59.982075 229.472946 
C 58.358044 229.472946 56.800311 230.11818 55.651948 231.266543 
C 54.503585 232.414906 53.858351 233.97264 53.858351 235.59667 
C 53.858351 237.220701 54.503585 238.778434 55.651948 239.926797 
C 56.800311 241.075161 58.358044 241.720395 59.982075 241.720395 
z
" clip-path="url(#p29a1b06b86)" style="fill: #1e88e5; fill-opacity: 0.78; stroke: #222222; stroke-opacity: 0.78; stroke-width: 0.6"/>
    <path d="M 59.982075 241.662117 
C 61.606106 241.662117 63.163839 241.016882 64.312202 239.868519 
C 65.460565 238.720156 66.105799 237.162423 66.105799 235.538392 
C 66.105799 233.914362 65.460565 232.356628 64.312202 231.208265 
C 63.163839 230.059902 61.606106 229.414668 59.982075 229.414668 
C 58.358044 229.414668 56.800311 230.059902 55.651948 231.208265 
C 54.503585 232.356628 53.858351 233.914362 53.858351 235.538392 
C 53.858351 237.162423 54.503585 238.720156 55.651948 239.868519 
C 56.800311 241.016882 58.358044 241.662117 59.982075 241.662117 
z
" clip-path="url(#p29a1b06b86)" style="fill: #1e88e5; fill-opacity: 0.78; stroke: #222222; stroke-opacity: 0.78; stroke-width: 0.6"/>
    <path d="M 59.982075 240.974435 
C 61.606106 240.974435 63.163839 240.329201 64.312202 239.180838 
C 65.460565 238.032475 66.105799 236.474742 66.105799 234.850711 
C 66.105799 233.22668 65.460565 231.668947 64.312202 230.520584 
C 63.163839 229.372221 61.606106 228.726987 59.982075 228.726987 
C 58.358044 228.726987 56.800311 229.372221 55.651948 230.520584 
C 54.503585 231.668947 53.858351 233.22668 53.858351 234.850711 
C 53.858351 236.474742 54.503585 238.032475 55.651948 239.180838 
C 56.800311 240.329201 58.358044 240.974435 59.982075 240.974435 
z
" clip-path="url(#p29a1b06b86)" style="fill: #1e88e5; fill-opacity: 0.78; stroke: #222222; stroke-opacity: 0.78; stroke-width: 0.6"/>
   </g>
   <g id="PathCollection_2">
    <defs>
     <path id="mba0b5a274c" d="M 0 4.743416 
C 1.257969 4.743416 2.464584 4.24362 3.354102 3.354102 
C 4.24362 2.464584 4.743416 1.257969 4.743416 0 
C 4.743416 -1.257969 4.24362 -2.464584 3.354102 -3.354102 
C 2.464584 -4.24362 1.257969 -4.743416 0 -4.743416 
C -1.257969 -4.743416 -2.464584 -4.24362 -3.354102 -3.354102 
C -4.24362 -2.464584 -4.743416 -1.257969 -4.743416 0 
C -4.743416 1.257969 -4.24362 2.464584 -3.354102 3.354102 
C -2.464584 4.24362 -1.257969 4.743416 0 4.743416 
z
" style="stroke: #222222; stroke-opacity: 0.78; stroke-width: 0.6"/>
    </defs>
    <g clip-path="url(#p29a1b06b86)">
     <use xlink:href="#mba0b5a274c" x="346.243107" y="165.196756" style="fill: #fb8c00; fill-opacity: 0.78; stroke: #222222; stroke-opacity: 0.78; stroke-width: 0.6"/>
    </g>
   </g>
   <g id="PathCollection_3">
    <path d="M 279.193825 105.64109 
C 280.817856 105.64109 282.375589 104.995856 283.523952 103.847493 
C 284.672316 102.69913 285.31755 101.141396 285.31755 99.517366 
C 285.31755 97.893335 284.672316 96.335602 283.523952 95.187239 
C 282.375589 94.038876 280.817856 93.393641 279.193825 93.393641 
C 277.569795 93.393641 276.012061 94.038876 274.863698 95.187239 
C 273.715335 96.335602 273.070101 97.893335 273.070101 99.517366 
C 273.070101 101.141396 273.715335 102.69913 274.863698 103.847493 
C 276.012061 104.995856 277.569795 105.64109 279.193825 105.64109 
L 279.193825 105.64109 
z
" clip-path="url(#p29a1b06b86)" style="fill: none; stroke: #fb8c00; stroke-width: 1.6"/>
   </g>
   <g id="PathCollection_4">
    <path d="M 562.948885 53.932248 
C 565.761788 53.932248 568.459862 52.814669 570.448885 50.825646 
C 572.437908 48.836623 573.555487 46.13855 573.555487 43.325646 
C 573.555487 40.512742 572.437908 37.814669 570.448885 35.825646 
C 568.459862 33.836623 565.761788 32.719044 562.948885 32.719044 
C 560.135981 32.719044 557.437908 33.836623 555.448885 35.825646 
C 553.459862 37.814669 552.342283 40.512742 552.342283 43.325646 
C 552.342283 46.13855 553.459862 48.836623 555.448885 50.825646 
C 557.437908 52.814669 560.135981 53.932248 562.948885 53.932248 
L 562.948885 53.932248 
z
" clip-path="url(#p29a1b06b86)" style="fill: none; stroke: #e53935; stroke-width: 1.6"/>
   </g>
   <g id="PathCollection_5">
    <path d="M 59.982075 247.418691 
C 62.390902 247.418691 64.701393 246.461654 66.404691 244.758356 
C 68.107989 243.055058 69.065026 240.744567 69.065026 238.33574 
C 69.065026 235.926913 68.107989 233.616421 66.404691 231.913124 
C 64.701393 230.209826 62.390902 229.252789 59.982075 229.252789 
C 57.573248 229.252789 55.262756 230.209826 53.559459 231.913124 
C 51.856161 233.616421 50.899124 235.926913 50.899124 238.33574 
C 50.899124 240.744567 51.856161 243.055058 53.559459 244.758356 
C 55.262756 246.461654 57.573248 247.418691 59.982075 247.418691 
z
" clip-path="url(#p29a1b06b86)" style="fill: #00897b; fill-opacity: 0.78; stroke: #222222; stroke-opacity: 0.78; stroke-width: 0.6"/>
    <path d="M 59.982075 202.49925 
C 61.606106 202.49925 63.163839 201.854016 64.312202 200.705653 
C 65.460565 199.55729 66.105799 197.999557 66.105799 196.375526 
C 66.105799 194.751495 65.460565 193.193762 64.312202 192.045399 
C 63.163839 190.897036 61.606106 190.251802 59.982075 190.251802 
C 58.358044 190.251802 56.800311 190.897036 55.651948 192.045399 
C 54.503585 193.193762 53.858351 194.751495 53.858351 196.375526 
C 53.858351 197.999557 54.503585 199.55729 55.651948 200.705653 
C 56.800311 201.854016 58.358044 202.49925 59.982075 202.49925 
z
" clip-path="url(#p29a1b06b86)" style="fill: #00897b; fill-opacity: 0.78; stroke: #222222; stroke-opacity: 0.78; stroke-width: 0.6"/>
    <path d="M 59.982075 201.352055 
C 61.240044 201.352055 62.446659 200.852259 63.336177 199.96274 
C 64.225695 199.073222 64.725491 197.866607 64.725491 196.608638 
C 64.725491 195.35067 64.225695 194.144055 63.336177 193.254536 
C 62.446659 192.365018 61.240044 191.865222 59.982075 191.865222 
C 58.724106 191.865222 57.517491 192.365018 56.627973 193.254536 
C 55.738455 194.144055 55.238658 195.35067 55.238658 196.608638 
C 55.238658 197.866607 55.738455 199.073222 56.627973 199.96274 
C 57.517491 200.852259 58.724106 201.352055 59.982075 201.352055 
z
" clip-path="url(#p29a1b06b86)" style="fill: #00897b; fill-opacity: 0.78; stroke: #222222; stroke-opacity: 0.78; stroke-width: 0.6"/>
    <path d="M 59.982075 202.033026 
C 61.606106 202.033026 63.163839 201.387792 64.312202 200.239428 
C 65.460565 199.091065 66.105799 197.533332 66.105799 195.909301 
C 66.105799 194.285271 65.460565 192.727538 64.312202 191.579174 
C 63.163839 190.430811 61.606106 189.785577 59.982075 189.785577 
C 58.358044 189.785577 56.800311 190.430811 55.651948 191.579174 
C 54.503585 192.727538 53.858351 194.285271 53.858351 195.909301 
C 53.858351 197.533332 54.503585 199.091065 55.651948 200.239428 
C 56.800311 201.387792 58.358044 202.033026 59.982075 202.033026 
z
" clip-path="url(#p29a1b06b86)" style="fill: #00897b; fill-opacity: 0.78; stroke: #222222; stroke-opacity: 0.78; stroke-width: 0.6"/>
    <path d="M 59.982075 201.352055 
C 61.240044 201.352055 62.446659 200.852259 63.336177 199.96274 
C 64.225695 199.073222 64.725491 197.866607 64.725491 196.608638 
C 64.725491 195.35067 64.225695 194.144055 63.336177 193.254536 
C 62.446659 192.365018 61.240044 191.865222 59.982075 191.865222 
C 58.724106 191.865222 57.517491 192.365018 56.627973 193.254536 
C 55.738455 194.144055 55.238658 195.35067 55.238658 196.608638 
C 55.238658 197.866607 55.738455 199.073222 56.627973 199.96274 
C 57.517491 200.852259 58.724106 201.352055 59.982075 201.352055 
z
" clip-path="url(#p29a1b06b86)" style="fill: #00897b; fill-opacity: 0.78; stroke: #222222; stroke-opacity: 0.78; stroke-width: 0.6"/>
   </g>
   <g id="PathCollection_6">
    <path d="M 59.982075 247.710081 
C 62.390902 247.710081 64.701393 246.753044 66.404691 245.049747 
C 68.107989 243.346449 69.065026 241.035957 69.065026 238.62713 
C 69.065026 236.218303 68.107989 233.907812 66.404691 232.204514 
C 64.701393 230.501216 62.390902 229.544179 59.982075 229.544179 
C 57.573248 229.544179 55.262756 230.501216 53.559459 232.204514 
C 51.856161 233.907812 50.899124 236.218303 50.899124 238.62713 
C 50.899124 241.035957 51.856161 243.346449 53.559459 245.049747 
C 55.262756 246.753044 57.573248 247.710081 59.982075 247.710081 
z
" clip-path="url(#p29a1b06b86)" style="fill: #8e24aa; fill-opacity: 0.78; stroke: #222222; stroke-opacity: 0.78; stroke-width: 0.6"/>
    <path d="M 59.982075 245.581428 
C 61.903654 245.581428 63.746789 244.817977 65.10555 243.459215 
C 66.464312 242.100454 67.227763 240.257319 67.227763 238.33574 
C 67.227763 236.414161 66.464312 234.571026 65.10555 233.212265 
C 63.746789 231.853503 61.903654 231.090052 59.982075 231.090052 
C 58.060496 231.090052 56.217361 231.853503 54.8586 233.212265 
C 53.499838 234.571026 52.736387 236.414161 52.736387 238.33574 
C 52.736387 240.257319 53.499838 242.100454 54.8586 243.459215 
C 56.217361 244.817977 58.060496 245.581428 59.982075 245.581428 
z
" clip-path="url(#p29a1b06b86)" style="fill: #8e24aa; fill-opacity: 0.78; stroke: #222222; stroke-opacity: 0.78; stroke-width: 0.6"/>
    <path d="M 59.982075 244.998648 
C 61.903654 244.998648 63.746789 244.235196 65.10555 242.876435 
C 66.464312 241.517673 67.227763 239.674538 67.227763 237.752959 
C 67.227763 235.83138 66.464312 233.988245 65.10555 232.629484 
C 63.746789 231.270722 61.903654 230.507271 59.982075 230.507271 
C 58.060496 230.507271 56.217361 231.270722 54.8586 232.629484 
C 53.499838 233.988245 52.736387 235.83138 52.736387 237.752959 
C 52.736387 239.674538 53.499838 241.517673 54.8586 242.876435 
C 56.217361 244.235196 58.060496 244.998648 59.982075 244.998648 
z
" clip-path="url(#p29a1b06b86)" style="fill: #8e24aa; fill-opacity: 0.78; stroke: #222222; stroke-opacity: 0.78; stroke-width: 0.6"/>
    <path d="M 59.982075 244.893747 
C 61.903654 244.893747 63.746789 244.130296 65.10555 242.771534 
C 66.464312 241.412772 67.227763 239.569638 67.227763 237.648059 
C 67.227763 235.72648 66.464312 233.883345 65.10555 232.524583 
C 63.746789 231.165822 61.903654 230.40237 59.982075 230.40237 
C 58.060496 230.40237 56.217361 231.165822 54.8586 232.524583 
C 53.499838 233.883345 52.736387 235.72648 52.736387 237.648059 
C 52.736387 239.569638 53.499838 241.412772 54.8586 242.771534 
C 56.217361 244.130296 58.060496 244.893747 59.982075 244.893747 
z
" clip-path="url(#p29a1b06b86)" style="fill: #8e24aa; fill-opacity: 0.78; stroke: #222222; stroke-opacity: 0.78; stroke-width: 0.6"/>
    <path d="M 59.982075 244.660635 
C 61.903654 244.660635 63.746789 243.897183 65.10555 242.538422 
C 66.464312 241.17966 67.227763 239.336525 67.227763 237.414946 
C 67.227763 235.493367 66.464312 233.650232 65.10555 232.291471 
C 63.746789 230.932709 61.903654 230.169258 59.982075 230.169258 
C 58.060496 230.169258 56.217361 230.932709 54.8586 232.291471 
C 53.499838 233.650232 52.736387 235.493367 52.736387 237.414946 
C 52.736387 239.336525 53.499838 241.17966 54.8586 242.538422 
C 56.217361 243.897183 58.060496 244.660635 59.982075 244.660635 
z
" clip-path="url(#p29a1b06b86)" style="fill: #8e24aa; fill-opacity: 0.78; stroke: #222222; stroke-opacity: 0.78; stroke-width: 0.6"/>
   </g>
   <g id="matplotlib.axis_1">
    <g id="xtick_1">
     <g id="line2d_1">
      <defs>
       <path id="ma54fd520a7" d="M 0 0 
L 0 3.5 
" style="stroke: #000000; stroke-width: 0.8"/>
      </defs>
      <g>
       <use xlink:href="#ma54fd520a7" x="97.361576" y="244.02368" style="stroke: #000000; stroke-width: 0.8"/>
      </g>
     </g>
     <g id="text_1">
      <!-- $\mathdefault{10^{1}}$ -->
      <g transform="translate(89.441576 257.862274) scale(0.09 -0.09)">
       <defs>
        <path id="DejaVuSans-31" d="M 794 531 
L 1825 531 
L 1825 4091 
L 703 3866 
L 703 4441 
L 1819 4666 
L 2450 4666 
L 2450 531 
L 3481 531 
L 3481 0 
L 794 0 
L 794 531 
z
" transform="scale(0.015625)"/>
        <path id="DejaVuSans-30" d="M 2034 4250 
Q 1547 4250 1301 3770 
Q 1056 3291 1056 2328 
Q 1056 1369 1301 889 
Q 1547 409 2034 409 
Q 2525 409 2770 889 
Q 3016 1369 3016 2328 
Q 3016 3291 2770 3770 
Q 2525 4250 2034 4250 
z
M 2034 4750 
Q 2819 4750 3233 4129 
Q 3647 3509 3647 2328 
Q 3647 1150 3233 529 
Q 2819 -91 2034 -91 
Q 1250 -91 836 529 
Q 422 1150 422 2328 
Q 422 3509 836 4129 
Q 1250 4750 2034 4750 
z
" transform="scale(0.015625)"/>
       </defs>
       <use xlink:href="#DejaVuSans-31" transform="translate(0 0.684375)"/>
       <use xlink:href="#DejaVuSans-30" transform="translate(63.623047 0.684375)"/>
       <use xlink:href="#DejaVuSans-31" transform="translate(128.203125 38.965625) scale(0.7)"/>
      </g>
     </g>
    </g>
    <g id="xtick_2">
     <g id="line2d_2">
      <g>
       <use xlink:href="#ma54fd520a7" x="265.852504" y="244.02368" style="stroke: #000000; stroke-width: 0.8"/>
      </g>
     </g>
     <g id="text_2">
      <!-- $\mathdefault{10^{2}}$ -->
      <g transform="translate(257.932504 257.862274) scale(0.09 -0.09)">
       <defs>
        <path id="DejaVuSans-32" d="M 1228 531 
L 3431 531 
L 3431 0 
L 469 0 
L 469 531 
Q 828 903 1448 1529 
Q 2069 2156 2228 2338 
Q 2531 2678 2651 2914 
Q 2772 3150 2772 3378 
Q 2772 3750 2511 3984 
Q 2250 4219 1831 4219 
Q 1534 4219 1204 4116 
Q 875 4013 500 3803 
L 500 4441 
Q 881 4594 1212 4672 
Q 1544 4750 1819 4750 
Q 2544 4750 2975 4387 
Q 3406 4025 3406 3419 
Q 3406 3131 3298 2873 
Q 3191 2616 2906 2266 
Q 2828 2175 2409 1742 
Q 1991 1309 1228 531 
z
" transform="scale(0.015625)"/>
       </defs>
       <use xlink:href="#DejaVuSans-31" transform="translate(0 0.765625)"/>
       <use xlink:href="#DejaVuSans-30" transform="translate(63.623047 0.765625)"/>
       <use xlink:href="#DejaVuSans-32" transform="translate(128.203125 39.046875) scale(0.7)"/>
      </g>
     </g>
    </g>
    <g id="xtick_3">
     <g id="line2d_3">
      <g>
       <use xlink:href="#ma54fd520a7" x="434.343431" y="244.02368" style="stroke: #000000; stroke-width: 0.8"/>
      </g>
     </g>
     <g id="text_3">
      <!-- $\mathdefault{10^{3}}$ -->
      <g transform="translate(426.423431 257.862274) scale(0.09 -0.09)">
       <defs>
        <path id="DejaVuSans-33" d="M 2597 2516 
Q 3050 2419 3304 2112 
Q 3559 1806 3559 1356 
Q 3559 666 3084 287 
Q 2609 -91 1734 -91 
Q 1441 -91 1130 -33 
Q 819 25 488 141 
L 488 750 
Q 750 597 1062 519 
Q 1375 441 1716 441 
Q 2309 441 2620 675 
Q 2931 909 2931 1356 
Q 2931 1769 2642 2001 
Q 2353 2234 1838 2234 
L 1294 2234 
L 1294 2753 
L 1863 2753 
Q 2328 2753 2575 2939 
Q 2822 3125 2822 3475 
Q 2822 3834 2567 4026 
Q 2313 4219 1838 4219 
Q 1578 4219 1281 4162 
Q 984 4106 628 3988 
L 628 4550 
Q 988 4650 1302 4700 
Q 1616 4750 1894 4750 
Q 2613 4750 3031 4423 
Q 3450 4097 3450 3541 
Q 3450 3153 3228 2886 
Q 3006 2619 2597 2516 
z
" transform="scale(0.015625)"/>
       </defs>
       <use xlink:href="#DejaVuSans-31" transform="translate(0 0.765625)"/>
       <use xlink:href="#DejaVuSans-30" transform="translate(63.623047 0.765625)"/>
       <use xlink:href="#DejaVuSans-33" transform="translate(128.203125 39.046875) scale(0.7)"/>
      </g>
     </g>
    </g>
    <g id="xtick_4">
     <g id="line2d_4">
      <defs>
       <path id="m001723205b" d="M 0 0 
L 0 2 
" style="stroke: #000000; stroke-width: 0.6"/>
      </defs>
      <g>
       <use xlink:href="#m001723205b" x="46.640753" y="244.02368" style="stroke: #000000; stroke-width: 0.6"/>
      </g>
     </g>
    </g>
    <g id="xtick_5">
     <g id="line2d_5">
      <g>
       <use xlink:href="#m001723205b" x="59.982075" y="244.02368" style="stroke: #000000; stroke-width: 0.6"/>
      </g>
     </g>
    </g>
    <g id="xtick_6">
     <g id="line2d_6">
      <g>
       <use xlink:href="#m001723205b" x="71.262002" y="244.02368" style="stroke: #000000; stroke-width: 0.6"/>
      </g>
     </g>
    </g>
    <g id="xtick_7">
     <g id="line2d_7">
      <g>
       <use xlink:href="#m001723205b" x="81.033118" y="244.02368" style="stroke: #000000; stroke-width: 0.6"/>
      </g>
     </g>
    </g>
    <g id="xtick_8">
     <g id="line2d_8">
      <g>
       <use xlink:href="#m001723205b" x="89.651854" y="244.02368" style="stroke: #000000; stroke-width: 0.6"/>
      </g>
     </g>
    </g>
    <g id="xtick_9">
     <g id="line2d_9">
      <g>
       <use xlink:href="#m001723205b" x="148.0824" y="244.02368" style="stroke: #000000; stroke-width: 0.6"/>
      </g>
     </g>
    </g>
    <g id="xtick_10">
     <g id="line2d_10">
      <g>
       <use xlink:href="#m001723205b" x="177.752179" y="244.02368" style="stroke: #000000; stroke-width: 0.6"/>
      </g>
     </g>
    </g>
    <g id="xtick_11">
     <g id="line2d_11">
      <g>
       <use xlink:href="#m001723205b" x="198.803223" y="244.02368" style="stroke: #000000; stroke-width: 0.6"/>
      </g>
     </g>
    </g>
    <g id="xtick_12">
     <g id="line2d_12">
      <g>
       <use xlink:href="#m001723205b" x="215.131681" y="244.02368" style="stroke: #000000; stroke-width: 0.6"/>
      </g>
     </g>
    </g>
    <g id="xtick_13">
     <g id="line2d_13">
      <g>
       <use xlink:href="#m001723205b" x="228.473002" y="244.02368" style="stroke: #000000; stroke-width: 0.6"/>
      </g>
     </g>
    </g>
    <g id="xtick_14">
     <g id="line2d_14">
      <g>
       <use xlink:href="#m001723205b" x="239.752929" y="244.02368" style="stroke: #000000; stroke-width: 0.6"/>
      </g>
     </g>
    </g>
    <g id="xtick_15">
     <g id="line2d_15">
      <g>
       <use xlink:href="#m001723205b" x="249.524046" y="244.02368" style="stroke: #000000; stroke-width: 0.6"/>
      </g>
     </g>
    </g>
    <g id="xtick_16">
     <g id="line2d_16">
      <g>
       <use xlink:href="#m001723205b" x="258.142782" y="244.02368" style="stroke: #000000; stroke-width: 0.6"/>
      </g>
     </g>
    </g>
    <g id="xtick_17">
     <g id="line2d_17">
      <g>
       <use xlink:href="#m001723205b" x="316.573327" y="244.02368" style="stroke: #000000; stroke-width: 0.6"/>
      </g>
     </g>
    </g>
    <g id="xtick_18">
     <g id="line2d_18">
      <g>
       <use xlink:href="#m001723205b" x="346.243107" y="244.02368" style="stroke: #000000; stroke-width: 0.6"/>
      </g>
     </g>
    </g>
    <g id="xtick_19">
     <g id="line2d_19">
      <g>
       <use xlink:href="#m001723205b" x="367.29415" y="244.02368" style="stroke: #000000; stroke-width: 0.6"/>
      </g>
     </g>
    </g>
    <g id="xtick_20">
     <g id="line2d_20">
      <g>
       <use xlink:href="#m001723205b" x="383.622608" y="244.02368" style="stroke: #000000; stroke-width: 0.6"/>
      </g>
     </g>
    </g>
    <g id="xtick_21">
     <g id="line2d_21">
      <g>
       <use xlink:href="#m001723205b" x="396.96393" y="244.02368" style="stroke: #000000; stroke-width: 0.6"/>
      </g>
     </g>
    </g>
    <g id="xtick_22">
     <g id="line2d_22">
      <g>
       <use xlink:href="#m001723205b" x="408.243856" y="244.02368" style="stroke: #000000; stroke-width: 0.6"/>
      </g>
     </g>
    </g>
    <g id="xtick_23">
     <g id="line2d_23">
      <g>
       <use xlink:href="#m001723205b" x="418.014973" y="244.02368" style="stroke: #000000; stroke-width: 0.6"/>
      </g>
     </g>
    </g>
    <g id="xtick_24">
     <g id="line2d_24">
      <g>
       <use xlink:href="#m001723205b" x="426.633709" y="244.02368" style="stroke: #000000; stroke-width: 0.6"/>
      </g>
     </g>
    </g>
    <g id="xtick_25">
     <g id="line2d_25">
      <g>
       <use xlink:href="#m001723205b" x="485.064254" y="244.02368" style="stroke: #000000; stroke-width: 0.6"/>
      </g>
     </g>
    </g>
    <g id="xtick_26">
     <g id="line2d_26">
      <g>
       <use xlink:href="#m001723205b" x="514.734034" y="244.02368" style="stroke: #000000; stroke-width: 0.6"/>
      </g>
     </g>
    </g>
    <g id="xtick_27">
     <g id="line2d_27">
      <g>
       <use xlink:href="#m001723205b" x="535.785077" y="244.02368" style="stroke: #000000; stroke-width: 0.6"/>
      </g>
     </g>
    </g>
    <g id="xtick_28">
     <g id="line2d_28">
      <g>
       <use xlink:href="#m001723205b" x="552.113535" y="244.02368" style="stroke: #000000; stroke-width: 0.6"/>
      </g>
     </g>
    </g>
    <g id="xtick_29">
     <g id="line2d_29">
      <g>
       <use xlink:href="#m001723205b" x="565.454857" y="244.02368" style="stroke: #000000; stroke-width: 0.6"/>
      </g>
     </g>
    </g>
    <g id="xtick_30">
     <g id="line2d_30">
      <g>
       <use xlink:href="#m001723205b" x="576.734784" y="244.02368" style="stroke: #000000; stroke-width: 0.6"/>
      </g>
     </g>
    </g>
    <g id="xtick_31">
     <g id="line2d_31">
      <g>
       <use xlink:href="#m001723205b" x="586.505901" y="244.02368" style="stroke: #000000; stroke-width: 0.6"/>
      </g>
     </g>
    </g>
    <g id="xtick_32">
     <g id="line2d_32">
      <g>
       <use xlink:href="#m001723205b" x="595.124637" y="244.02368" style="stroke: #000000; stroke-width: 0.6"/>
      </g>
     </g>
    </g>
    <g id="text_4">
     <!-- Number of MS data files (log scale) -->
     <g transform="translate(227.793906 271.33243) scale(0.1 -0.1)">
      <defs>
       <path id="DejaVuSans-4e" d="M 628 4666 
L 1478 4666 
L 3547 763 
L 3547 4666 
L 4159 4666 
L 4159 0 
L 3309 0 
L 1241 3903 
L 1241 0 
L 628 0 
L 628 4666 
z
" transform="scale(0.015625)"/>
       <path id="DejaVuSans-75" d="M 544 1381 
L 544 3500 
L 1119 3500 
L 1119 1403 
Q 1119 906 1312 657 
Q 1506 409 1894 409 
Q 2359 409 2629 706 
Q 2900 1003 2900 1516 
L 2900 3500 
L 3475 3500 
L 3475 0 
L 2900 0 
L 2900 538 
Q 2691 219 2414 64 
Q 2138 -91 1772 -91 
Q 1169 -91 856 284 
Q 544 659 544 1381 
z
M 1991 3584 
L 1991 3584 
z
" transform="scale(0.015625)"/>
       <path id="DejaVuSans-6d" d="M 3328 2828 
Q 3544 3216 3844 3400 
Q 4144 3584 4550 3584 
Q 5097 3584 5394 3201 
Q 5691 2819 5691 2113 
L 5691 0 
L 5113 0 
L 5113 2094 
Q 5113 2597 4934 2840 
Q 4756 3084 4391 3084 
Q 3944 3084 3684 2787 
Q 3425 2491 3425 1978 
L 3425 0 
L 2847 0 
L 2847 2094 
Q 2847 2600 2669 2842 
Q 2491 3084 2119 3084 
Q 1678 3084 1418 2786 
Q 1159 2488 1159 1978 
L 1159 0 
L 581 0 
L 581 3500 
L 1159 3500 
L 1159 2956 
Q 1356 3278 1631 3431 
Q 1906 3584 2284 3584 
Q 2666 3584 2933 3390 
Q 3200 3197 3328 2828 
z
" transform="scale(0.015625)"/>
       <path id="DejaVuSans-62" d="M 3116 1747 
Q 3116 2381 2855 2742 
Q 2594 3103 2138 3103 
Q 1681 3103 1420 2742 
Q 1159 2381 1159 1747 
Q 1159 1113 1420 752 
Q 1681 391 2138 391 
Q 2594 391 2855 752 
Q 3116 1113 3116 1747 
z
M 1159 2969 
Q 1341 3281 1617 3432 
Q 1894 3584 2278 3584 
Q 2916 3584 3314 3078 
Q 3713 2572 3713 1747 
Q 3713 922 3314 415 
Q 2916 -91 2278 -91 
Q 1894 -91 1617 61 
Q 1341 213 1159 525 
L 1159 0 
L 581 0 
L 581 4863 
L 1159 4863 
L 1159 2969 
z
" transform="scale(0.015625)"/>
       <path id="DejaVuSans-65" d="M 3597 1894 
L 3597 1613 
L 953 1613 
Q 991 1019 1311 708 
Q 1631 397 2203 397 
Q 2534 397 2845 478 
Q 3156 559 3463 722 
L 3463 178 
Q 3153 47 2828 -22 
Q 2503 -91 2169 -91 
Q 1331 -91 842 396 
Q 353 884 353 1716 
Q 353 2575 817 3079 
Q 1281 3584 2069 3584 
Q 2775 3584 3186 3129 
Q 3597 2675 3597 1894 
z
M 3022 2063 
Q 3016 2534 2758 2815 
Q 2500 3097 2075 3097 
Q 1594 3097 1305 2825 
Q 1016 2553 972 2059 
L 3022 2063 
z
" transform="scale(0.015625)"/>
       <path id="DejaVuSans-72" d="M 2631 2963 
Q 2534 3019 2420 3045 
Q 2306 3072 2169 3072 
Q 1681 3072 1420 2755 
Q 1159 2438 1159 1844 
L 1159 0 
L 581 0 
L 581 3500 
L 1159 3500 
L 1159 2956 
Q 1341 3275 1631 3429 
Q 1922 3584 2338 3584 
Q 2397 3584 2469 3576 
Q 2541 3569 2628 3553 
L 2631 2963 
z
" transform="scale(0.015625)"/>
       <path id="DejaVuSans-20" transform="scale(0.015625)"/>
       <path id="DejaVuSans-6f" d="M 1959 3097 
Q 1497 3097 1228 2736 
Q 959 2375 959 1747 
Q 959 1119 1226 758 
Q 1494 397 1959 397 
Q 2419 397 2687 759 
Q 2956 1122 2956 1747 
Q 2956 2369 2687 2733 
Q 2419 3097 1959 3097 
z
M 1959 3584 
Q 2709 3584 3137 3096 
Q 3566 2609 3566 1747 
Q 3566 888 3137 398 
Q 2709 -91 1959 -91 
Q 1206 -91 779 398 
Q 353 888 353 1747 
Q 353 2609 779 3096 
Q 1206 3584 1959 3584 
z
" transform="scale(0.015625)"/>
       <path id="DejaVuSans-66" d="M 2375 4863 
L 2375 4384 
L 1825 4384 
Q 1516 4384 1395 4259 
Q 1275 4134 1275 3809 
L 1275 3500 
L 2222 3500 
L 2222 3053 
L 1275 3053 
L 1275 0 
L 697 0 
L 697 3053 
L 147 3053 
L 147 3500 
L 697 3500 
L 697 3744 
Q 697 4328 969 4595 
Q 1241 4863 1831 4863 
L 2375 4863 
z
" transform="scale(0.015625)"/>
       <path id="DejaVuSans-4d" d="M 628 4666 
L 1569 4666 
L 2759 1491 
L 3956 4666 
L 4897 4666 
L 4897 0 
L 4281 0 
L 4281 4097 
L 3078 897 
L 2444 897 
L 1241 4097 
L 1241 0 
L 628 0 
L 628 4666 
z
" transform="scale(0.015625)"/>
       <path id="DejaVuSans-53" d="M 3425 4513 
L 3425 3897 
Q 3066 4069 2747 4153 
Q 2428 4238 2131 4238 
Q 1616 4238 1336 4038 
Q 1056 3838 1056 3469 
Q 1056 3159 1242 3001 
Q 1428 2844 1947 2747 
L 2328 2669 
Q 3034 2534 3370 2195 
Q 3706 1856 3706 1288 
Q 3706 609 3251 259 
Q 2797 -91 1919 -91 
Q 1588 -91 1214 -16 
Q 841 59 441 206 
L 441 856 
Q 825 641 1194 531 
Q 1563 422 1919 422 
Q 2459 422 2753 634 
Q 3047 847 3047 1241 
Q 3047 1584 2836 1778 
Q 2625 1972 2144 2069 
L 1759 2144 
Q 1053 2284 737 2584 
Q 422 2884 422 3419 
Q 422 4038 858 4394 
Q 1294 4750 2059 4750 
Q 2388 4750 2728 4690 
Q 3069 4631 3425 4513 
z
" transform="scale(0.015625)"/>
       <path id="DejaVuSans-64" d="M 2906 2969 
L 2906 4863 
L 3481 4863 
L 3481 0 
L 2906 0 
L 2906 525 
Q 2725 213 2448 61 
Q 2172 -91 1784 -91 
Q 1150 -91 751 415 
Q 353 922 353 1747 
Q 353 2572 751 3078 
Q 1150 3584 1784 3584 
Q 2172 3584 2448 3432 
Q 2725 3281 2906 2969 
z
M 947 1747 
Q 947 1113 1208 752 
Q 1469 391 1925 391 
Q 2381 391 2643 752 
Q 2906 1113 2906 1747 
Q 2906 2381 2643 2742 
Q 2381 3103 1925 3103 
Q 1469 3103 1208 2742 
Q 947 2381 947 1747 
z
" transform="scale(0.015625)"/>
       <path id="DejaVuSans-61" d="M 2194 1759 
Q 1497 1759 1228 1600 
Q 959 1441 959 1056 
Q 959 750 1161 570 
Q 1363 391 1709 391 
Q 2188 391 2477 730 
Q 2766 1069 2766 1631 
L 2766 1759 
L 2194 1759 
z
M 3341 1997 
L 3341 0 
L 2766 0 
L 2766 531 
Q 2569 213 2275 61 
Q 1981 -91 1556 -91 
Q 1019 -91 701 211 
Q 384 513 384 1019 
Q 384 1609 779 1909 
Q 1175 2209 1959 2209 
L 2766 2209 
L 2766 2266 
Q 2766 2663 2505 2880 
Q 2244 3097 1772 3097 
Q 1472 3097 1187 3025 
Q 903 2953 641 2809 
L 641 3341 
Q 956 3463 1253 3523 
Q 1550 3584 1831 3584 
Q 2591 3584 2966 3190 
Q 3341 2797 3341 1997 
z
" transform="scale(0.015625)"/>
       <path id="DejaVuSans-74" d="M 1172 4494 
L 1172 3500 
L 2356 3500 
L 2356 3053 
L 1172 3053 
L 1172 1153 
Q 1172 725 1289 603 
Q 1406 481 1766 481 
L 2356 481 
L 2356 0 
L 1766 0 
Q 1100 0 847 248 
Q 594 497 594 1153 
L 594 3053 
L 172 3053 
L 172 3500 
L 594 3500 
L 594 4494 
L 1172 4494 
z
" transform="scale(0.015625)"/>
       <path id="DejaVuSans-69" d="M 603 3500 
L 1178 3500 
L 1178 0 
L 603 0 
L 603 3500 
z
M 603 4863 
L 1178 4863 
L 1178 4134 
L 603 4134 
L 603 4863 
z
" transform="scale(0.015625)"/>
       <path id="DejaVuSans-6c" d="M 603 4863 
L 1178 4863 
L 1178 0 
L 603 0 
L 603 4863 
z
" transform="scale(0.015625)"/>
       <path id="DejaVuSans-73" d="M 2834 3397 
L 2834 2853 
Q 2591 2978 2328 3040 
Q 2066 3103 1784 3103 
Q 1356 3103 1142 2972 
Q 928 2841 928 2578 
Q 928 2378 1081 2264 
Q 1234 2150 1697 2047 
L 1894 2003 
Q 2506 1872 2764 1633 
Q 3022 1394 3022 966 
Q 3022 478 2636 193 
Q 2250 -91 1575 -91 
Q 1294 -91 989 -36 
Q 684 19 347 128 
L 347 722 
Q 666 556 975 473 
Q 1284 391 1588 391 
Q 1994 391 2212 530 
Q 2431 669 2431 922 
Q 2431 1156 2273 1281 
Q 2116 1406 1581 1522 
L 1381 1569 
Q 847 1681 609 1914 
Q 372 2147 372 2553 
Q 372 3047 722 3315 
Q 1072 3584 1716 3584 
Q 2034 3584 2315 3537 
Q 2597 3491 2834 3397 
z
" transform="scale(0.015625)"/>
       <path id="DejaVuSans-28" d="M 1984 4856 
Q 1566 4138 1362 3434 
Q 1159 2731 1159 2009 
Q 1159 1288 1364 580 
Q 1569 -128 1984 -844 
L 1484 -844 
Q 1016 -109 783 600 
Q 550 1309 550 2009 
Q 550 2706 781 3412 
Q 1013 4119 1484 4856 
L 1984 4856 
z
" transform="scale(0.015625)"/>
       <path id="DejaVuSans-67" d="M 2906 1791 
Q 2906 2416 2648 2759 
Q 2391 3103 1925 3103 
Q 1463 3103 1205 2759 
Q 947 2416 947 1791 
Q 947 1169 1205 825 
Q 1463 481 1925 481 
Q 2391 481 2648 825 
Q 2906 1169 2906 1791 
z
M 3481 434 
Q 3481 -459 3084 -895 
Q 2688 -1331 1869 -1331 
Q 1566 -1331 1297 -1286 
Q 1028 -1241 775 -1147 
L 775 -588 
Q 1028 -725 1275 -790 
Q 1522 -856 1778 -856 
Q 2344 -856 2625 -561 
Q 2906 -266 2906 331 
L 2906 616 
Q 2728 306 2450 153 
Q 2172 0 1784 0 
Q 1141 0 747 490 
Q 353 981 353 1791 
Q 353 2603 747 3093 
Q 1141 3584 1784 3584 
Q 2172 3584 2450 3431 
Q 2728 3278 2906 2969 
L 2906 3500 
L 3481 3500 
L 3481 434 
z
" transform="scale(0.015625)"/>
       <path id="DejaVuSans-63" d="M 3122 3366 
L 3122 2828 
Q 2878 2963 2633 3030 
Q 2388 3097 2138 3097 
Q 1578 3097 1268 2742 
Q 959 2388 959 1747 
Q 959 1106 1268 751 
Q 1578 397 2138 397 
Q 2388 397 2633 464 
Q 2878 531 3122 666 
L 3122 134 
Q 2881 22 2623 -34 
Q 2366 -91 2075 -91 
Q 1284 -91 818 406 
Q 353 903 353 1747 
Q 353 2603 823 3093 
Q 1294 3584 2113 3584 
Q 2378 3584 2631 3529 
Q 2884 3475 3122 3366 
z
" transform="scale(0.015625)"/>
       <path id="DejaVuSans-29" d="M 513 4856 
L 1013 4856 
Q 1481 4119 1714 3412 
Q 1947 2706 1947 2009 
Q 1947 1309 1714 600 
Q 1481 -109 1013 -844 
L 513 -844 
Q 928 -128 1133 580 
Q 1338 1288 1338 2009 
Q 1338 2731 1133 3434 
Q 928 4138 513 4856 
z
" transform="scale(0.015625)"/>
      </defs>
      <use xlink:href="#DejaVuSans-4e"/>
      <use xlink:href="#DejaVuSans-75" transform="translate(74.804688 0)"/>
      <use xlink:href="#DejaVuSans-6d" transform="translate(138.183594 0)"/>
      <use xlink:href="#DejaVuSans-62" transform="translate(235.595703 0)"/>
      <use xlink:href="#DejaVuSans-65" transform="translate(299.072266 0)"/>
      <use xlink:href="#DejaVuSans-72" transform="translate(360.595703 0)"/>
      <use xlink:href="#DejaVuSans-20" transform="translate(401.708984 0)"/>
      <use xlink:href="#DejaVuSans-6f" transform="translate(433.496094 0)"/>
      <use xlink:href="#DejaVuSans-66" transform="translate(494.677734 0)"/>
      <use xlink:href="#DejaVuSans-20" transform="translate(529.882812 0)"/>
      <use xlink:href="#DejaVuSans-4d" transform="translate(561.669922 0)"/>
      <use xlink:href="#DejaVuSans-53" transform="translate(647.949219 0)"/>
      <use xlink:href="#DejaVuSans-20" transform="translate(711.425781 0)"/>
      <use xlink:href="#DejaVuSans-64" transform="translate(743.212891 0)"/>
      <use xlink:href="#DejaVuSans-61" transform="translate(806.689453 0)"/>
      <use xlink:href="#DejaVuSans-74" transform="translate(867.96875 0)"/>
      <use xlink:href="#DejaVuSans-61" transform="translate(907.177734 0)"/>
      <use xlink:href="#DejaVuSans-20" transform="translate(968.457031 0)"/>
      <use xlink:href="#DejaVuSans-66" transform="translate(1000.244141 0)"/>
      <use xlink:href="#DejaVuSans-69" transform="translate(1035.449219 0)"/>
      <use xlink:href="#DejaVuSans-6c" transform="translate(1063.232422 0)"/>
      <use xlink:href="#DejaVuSans-65" transform="translate(1091.015625 0)"/>
      <use xlink:href="#DejaVuSans-73" transform="translate(1152.539062 0)"/>
      <use xlink:href="#DejaVuSans-20" transform="translate(1204.638672 0)"/>
      <use xlink:href="#DejaVuSans-28" transform="translate(1236.425781 0)"/>
      <use xlink:href="#DejaVuSans-6c" transform="translate(1275.439453 0)"/>
      <use xlink:href="#DejaVuSans-6f" transform="translate(1303.222656 0)"/>
      <use xlink:href="#DejaVuSans-67" transform="translate(1364.404297 0)"/>
      <use xlink:href="#DejaVuSans-20" transform="translate(1427.880859 0)"/>
      <use xlink:href="#DejaVuSans-73" transform="translate(1459.667969 0)"/>
      <use xlink:href="#DejaVuSans-63" transform="translate(1511.767578 0)"/>
      <use xlink:href="#DejaVuSans-61" transform="translate(1566.748047 0)"/>
      <use xlink:href="#DejaVuSans-6c" transform="translate(1628.027344 0)"/>
      <use xlink:href="#DejaVuSans-65" transform="translate(1655.810547 0)"/>
      <use xlink:href="#DejaVuSans-29" transform="translate(1717.333984 0)"/>
     </g>
    </g>
   </g>
   <g id="matplotlib.axis_2">
    <g id="ytick_1">
     <g id="line2d_33">
      <defs>
       <path id="m553836dce2" d="M 0 0 
L -3.5 0 
" style="stroke: #000000; stroke-width: 0.8"/>
      </defs>
      <g>
       <use xlink:href="#m553836dce2" x="33.8825" y="244.02368" style="stroke: #000000; stroke-width: 0.8"/>
      </g>
     </g>
     <g id="text_5">
      <!-- 0 -->
      <g transform="translate(21.15625 247.442977) scale(0.09 -0.09)">
       <use xlink:href="#DejaVuSans-30"/>
      </g>
     </g>
    </g>
    <g id="ytick_2">
     <g id="line2d_34">
      <g>
       <use xlink:href="#m553836dce2" x="33.8825" y="202.063466" style="stroke: #000000; stroke-width: 0.8"/>
      </g>
     </g>
     <g id="text_6">
      <!-- 1 -->
      <g transform="translate(21.15625 205.482763) scale(0.09 -0.09)">
       <use xlink:href="#DejaVuSans-31"/>
      </g>
     </g>
    </g>
    <g id="ytick_3">
     <g id="line2d_35">
      <g>
       <use xlink:href="#m553836dce2" x="33.8825" y="160.103252" style="stroke: #000000; stroke-width: 0.8"/>
      </g>
     </g>
     <g id="text_7">
      <!-- 2 -->
      <g transform="translate(21.15625 163.522549) scale(0.09 -0.09)">
       <use xlink:href="#DejaVuSans-32"/>
      </g>
     </g>
    </g>
    <g id="ytick_4">
     <g id="line2d_36">
      <g>
       <use xlink:href="#m553836dce2" x="33.8825" y="118.143038" style="stroke: #000000; stroke-width: 0.8"/>
      </g>
     </g>
     <g id="text_8">
      <!-- 3 -->
      <g transform="translate(21.15625 121.562335) scale(0.09 -0.09)">
       <use xlink:href="#DejaVuSans-33"/>
      </g>
     </g>
    </g>
    <g id="ytick_5">
     <g id="line2d_37">
      <g>
       <use xlink:href="#m553836dce2" x="33.8825" y="76.182825" style="stroke: #000000; stroke-width: 0.8"/>
      </g>
     </g>
     <g id="text_9">
      <!-- 4 -->
      <g transform="translate(21.15625 79.602122) scale(0.09 -0.09)">
       <defs>
        <path id="DejaVuSans-34" d="M 2419 4116 
L 825 1625 
L 2419 1625 
L 2419 4116 
z
M 2253 4666 
L 3047 4666 
L 3047 1625 
L 3713 1625 
L 3713 1100 
L 3047 1100 
L 3047 0 
L 2419 0 
L 2419 1100 
L 313 1100 
L 313 1709 
L 2253 4666 
z
" transform="scale(0.015625)"/>
       </defs>
       <use xlink:href="#DejaVuSans-34"/>
      </g>
     </g>
    </g>
    <g id="ytick_6">
     <g id="line2d_38">
      <g>
       <use xlink:href="#m553836dce2" x="33.8825" y="34.222611" style="stroke: #000000; stroke-width: 0.8"/>
      </g>
     </g>
     <g id="text_10">
      <!-- 5 -->
      <g transform="translate(21.15625 37.641908) scale(0.09 -0.09)">
       <defs>
        <path id="DejaVuSans-35" d="M 691 4666 
L 3169 4666 
L 3169 4134 
L 1269 4134 
L 1269 2991 
Q 1406 3038 1543 3061 
Q 1681 3084 1819 3084 
Q 2600 3084 3056 2656 
Q 3513 2228 3513 1497 
Q 3513 744 3044 326 
Q 2575 -91 1722 -91 
Q 1428 -91 1123 -41 
Q 819 9 494 109 
L 494 744 
Q 775 591 1075 516 
Q 1375 441 1709 441 
Q 2250 441 2565 725 
Q 2881 1009 2881 1497 
Q 2881 1984 2565 2268 
Q 2250 2553 1709 2553 
Q 1456 2553 1204 2497 
Q 953 2441 691 2322 
L 691 4666 
z
" transform="scale(0.015625)"/>
       </defs>
       <use xlink:href="#DejaVuSans-35"/>
      </g>
     </g>
    </g>
    <g id="text_11">
     <!-- Final-run wallclock from pipeline_report (hours) -->
     <g transform="translate(14.798438 243.660277) rotate(-90) scale(0.1 -0.1)">
      <defs>
       <path id="DejaVuSans-46" d="M 628 4666 
L 3309 4666 
L 3309 4134 
L 1259 4134 
L 1259 2759 
L 3109 2759 
L 3109 2228 
L 1259 2228 
L 1259 0 
L 628 0 
L 628 4666 
z
" transform="scale(0.015625)"/>
       <path id="DejaVuSans-6e" d="M 3513 2113 
L 3513 0 
L 2938 0 
L 2938 2094 
Q 2938 2591 2744 2837 
Q 2550 3084 2163 3084 
Q 1697 3084 1428 2787 
Q 1159 2491 1159 1978 
L 1159 0 
L 581 0 
L 581 3500 
L 1159 3500 
L 1159 2956 
Q 1366 3272 1645 3428 
Q 1925 3584 2291 3584 
Q 2894 3584 3203 3211 
Q 3513 2838 3513 2113 
z
" transform="scale(0.015625)"/>
       <path id="DejaVuSans-2d" d="M 313 2009 
L 1997 2009 
L 1997 1497 
L 313 1497 
L 313 2009 
z
" transform="scale(0.015625)"/>
       <path id="DejaVuSans-77" d="M 269 3500 
L 844 3500 
L 1563 769 
L 2278 3500 
L 2956 3500 
L 3675 769 
L 4391 3500 
L 4966 3500 
L 4050 0 
L 3372 0 
L 2619 2869 
L 1863 0 
L 1184 0 
L 269 3500 
z
" transform="scale(0.015625)"/>
       <path id="DejaVuSans-6b" d="M 581 4863 
L 1159 4863 
L 1159 1991 
L 2875 3500 
L 3609 3500 
L 1753 1863 
L 3688 0 
L 2938 0 
L 1159 1709 
L 1159 0 
L 581 0 
L 581 4863 
z
" transform="scale(0.015625)"/>
       <path id="DejaVuSans-70" d="M 1159 525 
L 1159 -1331 
L 581 -1331 
L 581 3500 
L 1159 3500 
L 1159 2969 
Q 1341 3281 1617 3432 
Q 1894 3584 2278 3584 
Q 2916 3584 3314 3078 
Q 3713 2572 3713 1747 
Q 3713 922 3314 415 
Q 2916 -91 2278 -91 
Q 1894 -91 1617 61 
Q 1341 213 1159 525 
z
M 3116 1747 
Q 3116 2381 2855 2742 
Q 2594 3103 2138 3103 
Q 1681 3103 1420 2742 
Q 1159 2381 1159 1747 
Q 1159 1113 1420 752 
Q 1681 391 2138 391 
Q 2594 391 2855 752 
Q 3116 1113 3116 1747 
z
" transform="scale(0.015625)"/>
       <path id="DejaVuSans-5f" d="M 3263 -1063 
L 3263 -1509 
L -63 -1509 
L -63 -1063 
L 3263 -1063 
z
" transform="scale(0.015625)"/>
       <path id="DejaVuSans-68" d="M 3513 2113 
L 3513 0 
L 2938 0 
L 2938 2094 
Q 2938 2591 2744 2837 
Q 2550 3084 2163 3084 
Q 1697 3084 1428 2787 
Q 1159 2491 1159 1978 
L 1159 0 
L 581 0 
L 581 4863 
L 1159 4863 
L 1159 2956 
Q 1366 3272 1645 3428 
Q 1925 3584 2291 3584 
Q 2894 3584 3203 3211 
Q 3513 2838 3513 2113 
z
" transform="scale(0.015625)"/>
      </defs>
      <use xlink:href="#DejaVuSans-46"/>
      <use xlink:href="#DejaVuSans-69" transform="translate(50.269531 0)"/>
      <use xlink:href="#DejaVuSans-6e" transform="translate(78.052734 0)"/>
      <use xlink:href="#DejaVuSans-61" transform="translate(141.431641 0)"/>
      <use xlink:href="#DejaVuSans-6c" transform="translate(202.710938 0)"/>
      <use xlink:href="#DejaVuSans-2d" transform="translate(230.494141 0)"/>
      <use xlink:href="#DejaVuSans-72" transform="translate(266.578125 0)"/>
      <use xlink:href="#DejaVuSans-75" transform="translate(307.691406 0)"/>
      <use xlink:href="#DejaVuSans-6e" transform="translate(371.070312 0)"/>
      <use xlink:href="#DejaVuSans-20" transform="translate(434.449219 0)"/>
      <use xlink:href="#DejaVuSans-77" transform="translate(466.236328 0)"/>
      <use xlink:href="#DejaVuSans-61" transform="translate(548.023438 0)"/>
      <use xlink:href="#DejaVuSans-6c" transform="translate(609.302734 0)"/>
      <use xlink:href="#DejaVuSans-6c" transform="translate(637.085938 0)"/>
      <use xlink:href="#DejaVuSans-63" transform="translate(664.869141 0)"/>
      <use xlink:href="#DejaVuSans-6c" transform="translate(719.849609 0)"/>
      <use xlink:href="#DejaVuSans-6f" transform="translate(747.632812 0)"/>
      <use xlink:href="#DejaVuSans-63" transform="translate(808.814453 0)"/>
      <use xlink:href="#DejaVuSans-6b" transform="translate(863.794922 0)"/>
      <use xlink:href="#DejaVuSans-20" transform="translate(921.705078 0)"/>
      <use xlink:href="#DejaVuSans-66" transform="translate(953.492188 0)"/>
      <use xlink:href="#DejaVuSans-72" transform="translate(988.697266 0)"/>
      <use xlink:href="#DejaVuSans-6f" transform="translate(1027.560547 0)"/>
      <use xlink:href="#DejaVuSans-6d" transform="translate(1088.742188 0)"/>
      <use xlink:href="#DejaVuSans-20" transform="translate(1186.154297 0)"/>
      <use xlink:href="#DejaVuSans-70" transform="translate(1217.941406 0)"/>
      <use xlink:href="#DejaVuSans-69" transform="translate(1281.417969 0)"/>
      <use xlink:href="#DejaVuSans-70" transform="translate(1309.201172 0)"/>
      <use xlink:href="#DejaVuSans-65" transform="translate(1372.677734 0)"/>
      <use xlink:href="#DejaVuSans-6c" transform="translate(1434.201172 0)"/>
      <use xlink:href="#DejaVuSans-69" transform="translate(1461.984375 0)"/>
      <use xlink:href="#DejaVuSans-6e" transform="translate(1489.767578 0)"/>
      <use xlink:href="#DejaVuSans-65" transform="translate(1553.146484 0)"/>
      <use xlink:href="#DejaVuSans-5f" transform="translate(1614.669922 0)"/>
      <use xlink:href="#DejaVuSans-72" transform="translate(1664.669922 0)"/>
      <use xlink:href="#DejaVuSans-65" transform="translate(1703.533203 0)"/>
      <use xlink:href="#DejaVuSans-70" transform="translate(1765.056641 0)"/>
      <use xlink:href="#DejaVuSans-6f" transform="translate(1828.533203 0)"/>
      <use xlink:href="#DejaVuSans-72" transform="translate(1889.714844 0)"/>
      <use xlink:href="#DejaVuSans-74" transform="translate(1930.828125 0)"/>
      <use xlink:href="#DejaVuSans-20" transform="translate(1970.037109 0)"/>
      <use xlink:href="#DejaVuSans-28" transform="translate(2001.824219 0)"/>
      <use xlink:href="#DejaVuSans-68" transform="translate(2040.837891 0)"/>
      <use xlink:href="#DejaVuSans-6f" transform="translate(2104.216797 0)"/>
      <use xlink:href="#DejaVuSans-75" transform="translate(2165.398438 0)"/>
      <use xlink:href="#DejaVuSans-72" transform="translate(2228.777344 0)"/>
      <use xlink:href="#DejaVuSans-73" transform="translate(2269.890625 0)"/>
      <use xlink:href="#DejaVuSans-29" transform="translate(2321.990234 0)"/>
     </g>
    </g>
   </g>
   <g id="patch_3">
    <path d="M 33.8825 244.02368 
L 33.8825 7.2 
" style="fill: none; stroke: #000000; stroke-width: 0.8; stroke-linejoin: miter; stroke-linecap: square"/>
   </g>
   <g id="patch_4">
    <path d="M 33.8825 244.02368 
L 597.34125 244.02368 
" style="fill: none; stroke: #000000; stroke-width: 0.8; stroke-linejoin: miter; stroke-linecap: square"/>
   </g>
   <g id="text_12">
    <!-- PXD003539 -->
    <g style="fill: #444444" transform="translate(228.065544 93.517366) scale(0.07 -0.07)">
     <defs>
      <path id="DejaVuSans-50" d="M 1259 4147 
L 1259 2394 
L 2053 2394 
Q 2494 2394 2734 2622 
Q 2975 2850 2975 3272 
Q 2975 3691 2734 3919 
Q 2494 4147 2053 4147 
L 1259 4147 
z
M 628 4666 
L 2053 4666 
Q 2838 4666 3239 4311 
Q 3641 3956 3641 3272 
Q 3641 2581 3239 2228 
Q 2838 1875 2053 1875 
L 1259 1875 
L 1259 0 
L 628 0 
L 628 4666 
z
" transform="scale(0.015625)"/>
      <path id="DejaVuSans-58" d="M 403 4666 
L 1081 4666 
L 2241 2931 
L 3406 4666 
L 4084 4666 
L 2584 2425 
L 4184 0 
L 3506 0 
L 2194 1984 
L 872 0 
L 191 0 
L 1856 2491 
L 403 4666 
z
" transform="scale(0.015625)"/>
      <path id="DejaVuSans-44" d="M 1259 4147 
L 1259 519 
L 2022 519 
Q 2988 519 3436 956 
Q 3884 1394 3884 2338 
Q 3884 3275 3436 3711 
Q 2988 4147 2022 4147 
L 1259 4147 
z
M 628 4666 
L 1925 4666 
Q 3281 4666 3915 4102 
Q 4550 3538 4550 2338 
Q 4550 1131 3912 565 
Q 3275 0 1925 0 
L 628 0 
L 628 4666 
z
" transform="scale(0.015625)"/>
      <path id="DejaVuSans-39" d="M 703 97 
L 703 672 
Q 941 559 1184 500 
Q 1428 441 1663 441 
Q 2288 441 2617 861 
Q 2947 1281 2994 2138 
Q 2813 1869 2534 1725 
Q 2256 1581 1919 1581 
Q 1219 1581 811 2004 
Q 403 2428 403 3163 
Q 403 3881 828 4315 
Q 1253 4750 1959 4750 
Q 2769 4750 3195 4129 
Q 3622 3509 3622 2328 
Q 3622 1225 3098 567 
Q 2575 -91 1691 -91 
Q 1453 -91 1209 -44 
Q 966 3 703 97 
z
M 1959 2075 
Q 2384 2075 2632 2365 
Q 2881 2656 2881 3163 
Q 2881 3666 2632 3958 
Q 2384 4250 1959 4250 
Q 1534 4250 1286 3958 
Q 1038 3666 1038 3163 
Q 1038 2656 1286 2365 
Q 1534 2075 1959 2075 
z
" transform="scale(0.015625)"/>
     </defs>
     <use xlink:href="#DejaVuSans-50"/>
     <use xlink:href="#DejaVuSans-58" transform="translate(60.302734 0)"/>
     <use xlink:href="#DejaVuSans-44" transform="translate(128.808594 0)"/>
     <use xlink:href="#DejaVuSans-30" transform="translate(205.810547 0)"/>
     <use xlink:href="#DejaVuSans-30" transform="translate(269.433594 0)"/>
     <use xlink:href="#DejaVuSans-33" transform="translate(333.056641 0)"/>
     <use xlink:href="#DejaVuSans-35" transform="translate(396.679688 0)"/>
     <use xlink:href="#DejaVuSans-33" transform="translate(460.302734 0)"/>
     <use xlink:href="#DejaVuSans-39" transform="translate(523.925781 0)"/>
    </g>
   </g>
   <g id="text_13">
    <!-- PXD030304 -->
    <g style="fill: #444444" transform="translate(511.820604 37.325646) scale(0.07 -0.07)">
     <use xlink:href="#DejaVuSans-50"/>
     <use xlink:href="#DejaVuSans-58" transform="translate(60.302734 0)"/>
     <use xlink:href="#DejaVuSans-44" transform="translate(128.808594 0)"/>
     <use xlink:href="#DejaVuSans-30" transform="translate(205.810547 0)"/>
     <use xlink:href="#DejaVuSans-33" transform="translate(269.433594 0)"/>
     <use xlink:href="#DejaVuSans-30" transform="translate(333.056641 0)"/>
     <use xlink:href="#DejaVuSans-33" transform="translate(396.679688 0)"/>
     <use xlink:href="#DejaVuSans-30" transform="translate(460.302734 0)"/>
     <use xlink:href="#DejaVuSans-34" transform="translate(523.925781 0)"/>
    </g>
   </g>
   <g id="text_14">
    <!-- PXD004701 -->
    <g style="fill: #444444" transform="translate(295.114825 159.196756) scale(0.07 -0.07)">
     <defs>
      <path id="DejaVuSans-37" d="M 525 4666 
L 3525 4666 
L 3525 4397 
L 1831 0 
L 1172 0 
L 2766 4134 
L 525 4134 
L 525 4666 
z
" transform="scale(0.015625)"/>
     </defs>
     <use xlink:href="#DejaVuSans-50"/>
     <use xlink:href="#DejaVuSans-58" transform="translate(60.302734 0)"/>
     <use xlink:href="#DejaVuSans-44" transform="translate(128.808594 0)"/>
     <use xlink:href="#DejaVuSans-30" transform="translate(205.810547 0)"/>
     <use xlink:href="#DejaVuSans-30" transform="translate(269.433594 0)"/>
     <use xlink:href="#DejaVuSans-34" transform="translate(333.056641 0)"/>
     <use xlink:href="#DejaVuSans-37" transform="translate(396.679688 0)"/>
     <use xlink:href="#DejaVuSans-30" transform="translate(460.302734 0)"/>
     <use xlink:href="#DejaVuSans-31" transform="translate(523.925781 0)"/>
    </g>
   </g>
   <g id="legend_1">
    <g id="text_15">
     <!-- Instrument -->
     <g transform="translate(174.344141 291.954063) scale(0.09 -0.09)">
      <defs>
       <path id="DejaVuSans-49" d="M 628 4666 
L 1259 4666 
L 1259 0 
L 628 0 
L 628 4666 
z
" transform="scale(0.015625)"/>
      </defs>
      <use xlink:href="#DejaVuSans-49"/>
      <use xlink:href="#DejaVuSans-6e" transform="translate(29.492188 0)"/>
      <use xlink:href="#DejaVuSans-73" transform="translate(92.871094 0)"/>
      <use xlink:href="#DejaVuSans-74" transform="translate(144.970703 0)"/>
      <use xlink:href="#DejaVuSans-72" transform="translate(184.179688 0)"/>
      <use xlink:href="#DejaVuSans-75" transform="translate(225.292969 0)"/>
      <use xlink:href="#DejaVuSans-6d" transform="translate(288.671875 0)"/>
      <use xlink:href="#DejaVuSans-65" transform="translate(386.083984 0)"/>
      <use xlink:href="#DejaVuSans-6e" transform="translate(447.607422 0)"/>
      <use xlink:href="#DejaVuSans-74" transform="translate(510.986328 0)"/>
     </g>
    </g>
    <g id="PathCollection_7">
     <defs>
      <path id="m3afdf21f78" d="M 0 6.708204 
C 1.779036 6.708204 3.485448 6.001385 4.743416 4.743416 
C 6.001385 3.485448 6.708204 1.779036 6.708204 0 
C 6.708204 -1.779036 6.001385 -3.485448 4.743416 -4.743416 
C 3.485448 -6.001385 1.779036 -6.708204 0 -6.708204 
C -1.779036 -6.708204 -3.485448 -6.001385 -4.743416 -4.743416 
C -6.001385 -3.485448 -6.708204 -1.779036 -6.708204 0 
C -6.708204 1.779036 -6.001385 3.485448 -4.743416 4.743416 
C -3.485448 6.001385 -1.779036 6.708204 0 6.708204 
z
" style="stroke: #222222; stroke-opacity: 0.78; stroke-width: 0.6"/>
     </defs>
     <g>
      <use xlink:href="#m3afdf21f78" x="45.0825" y="301.804531" style="fill: #1e88e5; fill-opacity: 0.78; stroke: #222222; stroke-opacity: 0.78; stroke-width: 0.6"/>
     </g>
    </g>
    <g id="text_16">
     <!-- Orbitrap Astral -->
     <g transform="translate(59.4825 303.904531) scale(0.08 -0.08)">
      <defs>
       <path id="DejaVuSans-4f" d="M 2522 4238 
Q 1834 4238 1429 3725 
Q 1025 3213 1025 2328 
Q 1025 1447 1429 934 
Q 1834 422 2522 422 
Q 3209 422 3611 934 
Q 4013 1447 4013 2328 
Q 4013 3213 3611 3725 
Q 3209 4238 2522 4238 
z
M 2522 4750 
Q 3503 4750 4090 4092 
Q 4678 3434 4678 2328 
Q 4678 1225 4090 567 
Q 3503 -91 2522 -91 
Q 1538 -91 948 565 
Q 359 1222 359 2328 
Q 359 3434 948 4092 
Q 1538 4750 2522 4750 
z
" transform="scale(0.015625)"/>
       <path id="DejaVuSans-41" d="M 2188 4044 
L 1331 1722 
L 3047 1722 
L 2188 4044 
z
M 1831 4666 
L 2547 4666 
L 4325 0 
L 3669 0 
L 3244 1197 
L 1141 1197 
L 716 0 
L 50 0 
L 1831 4666 
z
" transform="scale(0.015625)"/>
      </defs>
      <use xlink:href="#DejaVuSans-4f"/>
      <use xlink:href="#DejaVuSans-72" transform="translate(78.710938 0)"/>
      <use xlink:href="#DejaVuSans-62" transform="translate(119.824219 0)"/>
      <use xlink:href="#DejaVuSans-69" transform="translate(183.300781 0)"/>
      <use xlink:href="#DejaVuSans-74" transform="translate(211.083984 0)"/>
      <use xlink:href="#DejaVuSans-72" transform="translate(250.292969 0)"/>
      <use xlink:href="#DejaVuSans-61" transform="translate(291.40625 0)"/>
      <use xlink:href="#DejaVuSans-70" transform="translate(352.685547 0)"/>
      <use xlink:href="#DejaVuSans-20" transform="translate(416.162109 0)"/>
      <use xlink:href="#DejaVuSans-41" transform="translate(447.949219 0)"/>
      <use xlink:href="#DejaVuSans-73" transform="translate(516.357422 0)"/>
      <use xlink:href="#DejaVuSans-74" transform="translate(568.457031 0)"/>
      <use xlink:href="#DejaVuSans-72" transform="translate(607.666016 0)"/>
      <use xlink:href="#DejaVuSans-61" transform="translate(648.779297 0)"/>
      <use xlink:href="#DejaVuSans-6c" transform="translate(710.058594 0)"/>
     </g>
    </g>
    <g id="PathCollection_8">
     <g>
      <use xlink:href="#mba0b5a274c" x="45.0825" y="313.547031" style="fill: #fb8c00; fill-opacity: 0.78; stroke: #222222; stroke-opacity: 0.78; stroke-width: 0.6"/>
     </g>
    </g>
    <g id="text_17">
     <!-- TripleTOF 5600 -->
     <g transform="translate(59.4825 315.647031) scale(0.08 -0.08)">
      <defs>
       <path id="DejaVuSans-54" d="M -19 4666 
L 3928 4666 
L 3928 4134 
L 2272 4134 
L 2272 0 
L 1638 0 
L 1638 4134 
L -19 4134 
L -19 4666 
z
" transform="scale(0.015625)"/>
       <path id="DejaVuSans-36" d="M 2113 2584 
Q 1688 2584 1439 2293 
Q 1191 2003 1191 1497 
Q 1191 994 1439 701 
Q 1688 409 2113 409 
Q 2538 409 2786 701 
Q 3034 994 3034 1497 
Q 3034 2003 2786 2293 
Q 2538 2584 2113 2584 
z
M 3366 4563 
L 3366 3988 
Q 3128 4100 2886 4159 
Q 2644 4219 2406 4219 
Q 1781 4219 1451 3797 
Q 1122 3375 1075 2522 
Q 1259 2794 1537 2939 
Q 1816 3084 2150 3084 
Q 2853 3084 3261 2657 
Q 3669 2231 3669 1497 
Q 3669 778 3244 343 
Q 2819 -91 2113 -91 
Q 1303 -91 875 529 
Q 447 1150 447 2328 
Q 447 3434 972 4092 
Q 1497 4750 2381 4750 
Q 2619 4750 2861 4703 
Q 3103 4656 3366 4563 
z
" transform="scale(0.015625)"/>
      </defs>
      <use xlink:href="#DejaVuSans-54"/>
      <use xlink:href="#DejaVuSans-72" transform="translate(46.333984 0)"/>
      <use xlink:href="#DejaVuSans-69" transform="translate(87.447266 0)"/>
      <use xlink:href="#DejaVuSans-70" transform="translate(115.230469 0)"/>
      <use xlink:href="#DejaVuSans-6c" transform="translate(178.707031 0)"/>
      <use xlink:href="#DejaVuSans-65" transform="translate(206.490234 0)"/>
      <use xlink:href="#DejaVuSans-54" transform="translate(268.013672 0)"/>
      <use xlink:href="#DejaVuSans-4f" transform="translate(329.097656 0)"/>
      <use xlink:href="#DejaVuSans-46" transform="translate(407.808594 0)"/>
      <use xlink:href="#DejaVuSans-20" transform="translate(465.328125 0)"/>
      <use xlink:href="#DejaVuSans-35" transform="translate(497.115234 0)"/>
      <use xlink:href="#DejaVuSans-36" transform="translate(560.738281 0)"/>
      <use xlink:href="#DejaVuSans-30" transform="translate(624.361328 0)"/>
      <use xlink:href="#DejaVuSans-30" transform="translate(687.984375 0)"/>
     </g>
    </g>
    <g id="PathCollection_9">
     <path d="M 143.61125 312.411133 
C 146.424154 312.411133 149.122227 311.293555 151.11125 309.304531 
C 153.100273 307.315508 154.217852 304.617435 154.217852 301.804531 
C 154.217852 298.991628 153.100273 296.293555 151.11125 294.304531 
C 149.122227 292.315508 146.424154 291.19793 143.61125 291.19793 
C 140.798346 291.19793 138.100273 292.315508 136.11125 294.304531 
C 134.122227 296.293555 133.004648 298.991628 133.004648 301.804531 
C 133.004648 304.617435 134.122227 307.315508 136.11125 309.304531 
C 138.100273 311.293555 140.798346 312.411133 143.61125 312.411133 
L 143.61125 312.411133 
z
" style="fill: none; stroke: #e53935; stroke-width: 1.6"/>
    </g>
    <g id="text_18">
     <!-- TripleTOF 6600 (incomplete) -->
     <g transform="translate(158.01125 303.904531) scale(0.08 -0.08)">
      <use xlink:href="#DejaVuSans-54"/>
      <use xlink:href="#DejaVuSans-72" transform="translate(46.333984 0)"/>
      <use xlink:href="#DejaVuSans-69" transform="translate(87.447266 0)"/>
      <use xlink:href="#DejaVuSans-70" transform="translate(115.230469 0)"/>
      <use xlink:href="#DejaVuSans-6c" transform="translate(178.707031 0)"/>
      <use xlink:href="#DejaVuSans-65" transform="translate(206.490234 0)"/>
      <use xlink:href="#DejaVuSans-54" transform="translate(268.013672 0)"/>
      <use xlink:href="#DejaVuSans-4f" transform="translate(329.097656 0)"/>
      <use xlink:href="#DejaVuSans-46" transform="translate(407.808594 0)"/>
      <use xlink:href="#DejaVuSans-20" transform="translate(465.328125 0)"/>
      <use xlink:href="#DejaVuSans-36" transform="translate(497.115234 0)"/>
      <use xlink:href="#DejaVuSans-36" transform="translate(560.738281 0)"/>
      <use xlink:href="#DejaVuSans-30" transform="translate(624.361328 0)"/>
      <use xlink:href="#DejaVuSans-30" transform="translate(687.984375 0)"/>
      <use xlink:href="#DejaVuSans-20" transform="translate(751.607422 0)"/>
      <use xlink:href="#DejaVuSans-28" transform="translate(783.394531 0)"/>
      <use xlink:href="#DejaVuSans-69" transform="translate(822.408203 0)"/>
      <use xlink:href="#DejaVuSans-6e" transform="translate(850.191406 0)"/>
      <use xlink:href="#DejaVuSans-63" transform="translate(913.570312 0)"/>
      <use xlink:href="#DejaVuSans-6f" transform="translate(968.550781 0)"/>
      <use xlink:href="#DejaVuSans-6d" transform="translate(1029.732422 0)"/>
      <use xlink:href="#DejaVuSans-70" transform="translate(1127.144531 0)"/>
      <use xlink:href="#DejaVuSans-6c" transform="translate(1190.621094 0)"/>
      <use xlink:href="#DejaVuSans-65" transform="translate(1218.404297 0)"/>
      <use xlink:href="#DejaVuSans-74" transform="translate(1279.927734 0)"/>
      <use xlink:href="#DejaVuSans-65" transform="translate(1319.136719 0)"/>
      <use xlink:href="#DejaVuSans-29" transform="translate(1380.660156 0)"/>
     </g>
    </g>
    <g id="PathCollection_10">
     <defs>
      <path id="m91cd05b080" d="M 0 7.245688 
C 1.921579 7.245688 3.764714 6.482237 5.123475 5.123475 
C 6.482237 3.764714 7.245688 1.921579 7.245688 0 
C 7.245688 -1.921579 6.482237 -3.764714 5.123475 -5.123475 
C 3.764714 -6.482237 1.921579 -7.245688 0 -7.245688 
C -1.921579 -7.245688 -3.764714 -6.482237 -5.123475 -5.123475 
C -6.482237 -3.764714 -7.245688 -1.921579 -7.245688 0 
C -7.245688 1.921579 -6.482237 3.764714 -5.123475 5.123475 
C -3.764714 6.482237 -1.921579 7.245688 0 7.245688 
z
" style="stroke: #222222; stroke-opacity: 0.78; stroke-width: 0.6"/>
     </defs>
     <g>
      <use xlink:href="#m91cd05b080" x="143.61125" y="313.547031" style="fill: #00897b; fill-opacity: 0.78; stroke: #222222; stroke-opacity: 0.78; stroke-width: 0.6"/>
     </g>
    </g>
    <g id="text_19">
     <!-- ZenoTOF 7600 -->
     <g transform="translate(158.01125 315.647031) scale(0.08 -0.08)">
      <defs>
       <path id="DejaVuSans-5a" d="M 359 4666 
L 4025 4666 
L 4025 4184 
L 1075 531 
L 4097 531 
L 4097 0 
L 288 0 
L 288 481 
L 3238 4134 
L 359 4134 
L 359 4666 
z
" transform="scale(0.015625)"/>
      </defs>
      <use xlink:href="#DejaVuSans-5a"/>
      <use xlink:href="#DejaVuSans-65" transform="translate(68.505859 0)"/>
      <use xlink:href="#DejaVuSans-6e" transform="translate(130.029297 0)"/>
      <use xlink:href="#DejaVuSans-6f" transform="translate(193.408203 0)"/>
      <use xlink:href="#DejaVuSans-54" transform="translate(254.589844 0)"/>
      <use xlink:href="#DejaVuSans-4f" transform="translate(315.673828 0)"/>
      <use xlink:href="#DejaVuSans-46" transform="translate(394.384766 0)"/>
      <use xlink:href="#DejaVuSans-20" transform="translate(451.904297 0)"/>
      <use xlink:href="#DejaVuSans-37" transform="translate(483.691406 0)"/>
      <use xlink:href="#DejaVuSans-36" transform="translate(547.314453 0)"/>
      <use xlink:href="#DejaVuSans-30" transform="translate(610.9375 0)"/>
      <use xlink:href="#DejaVuSans-30" transform="translate(674.560547 0)"/>
     </g>
    </g>
    <g id="PathCollection_11">
     <defs>
      <path id="mc583639503" d="M 0 8.215838 
C 2.178866 8.215838 4.268784 7.350166 5.809475 5.809475 
C 7.350166 4.268784 8.215838 2.178866 8.215838 0 
C 8.215838 -2.178866 7.350166 -4.268784 5.809475 -5.809475 
C 4.268784 -7.350166 2.178866 -8.215838 0 -8.215838 
C -2.178866 -8.215838 -4.268784 -7.350166 -5.809475 -5.809475 
C -7.350166 -4.268784 -8.215838 -2.178866 -8.215838 0 
C -8.215838 2.178866 -7.350166 4.268784 -5.809475 5.809475 
C -4.268784 7.350166 -2.178866 8.215838 0 8.215838 
z
" style="stroke: #222222; stroke-opacity: 0.78; stroke-width: 0.6"/>
     </defs>
     <g>
      <use xlink:href="#mc583639503" x="295.58625" y="301.804531" style="fill: #8e24aa; fill-opacity: 0.78; stroke: #222222; stroke-opacity: 0.78; stroke-width: 0.6"/>
     </g>
    </g>
    <g id="text_20">
     <!-- timsTOF SCP -->
     <g transform="translate(309.98625 303.904531) scale(0.08 -0.08)">
      <defs>
       <path id="DejaVuSans-43" d="M 4122 4306 
L 4122 3641 
Q 3803 3938 3442 4084 
Q 3081 4231 2675 4231 
Q 1875 4231 1450 3742 
Q 1025 3253 1025 2328 
Q 1025 1406 1450 917 
Q 1875 428 2675 428 
Q 3081 428 3442 575 
Q 3803 722 4122 1019 
L 4122 359 
Q 3791 134 3420 21 
Q 3050 -91 2638 -91 
Q 1578 -91 968 557 
Q 359 1206 359 2328 
Q 359 3453 968 4101 
Q 1578 4750 2638 4750 
Q 3056 4750 3426 4639 
Q 3797 4528 4122 4306 
z
" transform="scale(0.015625)"/>
      </defs>
      <use xlink:href="#DejaVuSans-74"/>
      <use xlink:href="#DejaVuSans-69" transform="translate(39.208984 0)"/>
      <use xlink:href="#DejaVuSans-6d" transform="translate(66.992188 0)"/>
      <use xlink:href="#DejaVuSans-73" transform="translate(164.404297 0)"/>
      <use xlink:href="#DejaVuSans-54" transform="translate(216.503906 0)"/>
      <use xlink:href="#DejaVuSans-4f" transform="translate(277.587891 0)"/>
      <use xlink:href="#DejaVuSans-46" transform="translate(356.298828 0)"/>
      <use xlink:href="#DejaVuSans-20" transform="translate(413.818359 0)"/>
      <use xlink:href="#DejaVuSans-53" transform="translate(445.605469 0)"/>
      <use xlink:href="#DejaVuSans-43" transform="translate(509.082031 0)"/>
      <use xlink:href="#DejaVuSans-50" transform="translate(578.90625 0)"/>
     </g>
    </g>
   </g>
   <g id="legend_2">
    <g id="text_21">
     <!-- Workflow invocations -->
     <g transform="translate(416.12 292.754063) scale(0.09 -0.09)">
      <defs>
       <path id="DejaVuSans-57" d="M 213 4666 
L 850 4666 
L 1831 722 
L 2809 4666 
L 3519 4666 
L 4500 722 
L 5478 4666 
L 6119 4666 
L 4947 0 
L 4153 0 
L 3169 4050 
L 2175 0 
L 1381 0 
L 213 4666 
z
" transform="scale(0.015625)"/>
       <path id="DejaVuSans-76" d="M 191 3500 
L 800 3500 
L 1894 563 
L 2988 3500 
L 3597 3500 
L 2284 0 
L 1503 0 
L 191 3500 
z
" transform="scale(0.015625)"/>
      </defs>
      <use xlink:href="#DejaVuSans-57"/>
      <use xlink:href="#DejaVuSans-6f" transform="translate(93.001953 0)"/>
      <use xlink:href="#DejaVuSans-72" transform="translate(154.183594 0)"/>
      <use xlink:href="#DejaVuSans-6b" transform="translate(195.296875 0)"/>
      <use xlink:href="#DejaVuSans-66" transform="translate(253.207031 0)"/>
      <use xlink:href="#DejaVuSans-6c" transform="translate(288.412109 0)"/>
      <use xlink:href="#DejaVuSans-6f" transform="translate(316.195312 0)"/>
      <use xlink:href="#DejaVuSans-77" transform="translate(377.376953 0)"/>
      <use xlink:href="#DejaVuSans-20" transform="translate(459.164062 0)"/>
      <use xlink:href="#DejaVuSans-69" transform="translate(490.951172 0)"/>
      <use xlink:href="#DejaVuSans-6e" transform="translate(518.734375 0)"/>
      <use xlink:href="#DejaVuSans-76" transform="translate(582.113281 0)"/>
      <use xlink:href="#DejaVuSans-6f" transform="translate(641.292969 0)"/>
      <use xlink:href="#DejaVuSans-63" transform="translate(702.474609 0)"/>
      <use xlink:href="#DejaVuSans-61" transform="translate(757.455078 0)"/>
      <use xlink:href="#DejaVuSans-74" transform="translate(818.734375 0)"/>
      <use xlink:href="#DejaVuSans-69" transform="translate(857.943359 0)"/>
      <use xlink:href="#DejaVuSans-6f" transform="translate(885.726562 0)"/>
      <use xlink:href="#DejaVuSans-6e" transform="translate(946.908203 0)"/>
      <use xlink:href="#DejaVuSans-73" transform="translate(1010.287109 0)"/>
     </g>
    </g>
    <g id="line2d_39">
     <path d="M 334.5125 305.904531 
L 342.5125 305.904531 
L 350.5125 305.904531 
" style="fill: none; stroke: #ffffff; stroke-width: 1.5; stroke-linecap: square"/>
     <defs>
      <path id="m809edd85e3" d="M 0 4.743416 
C 1.257969 4.743416 2.464584 4.24362 3.354102 3.354102 
C 4.24362 2.464584 4.743416 1.257969 4.743416 0 
C 4.743416 -1.257969 4.24362 -2.464584 3.354102 -3.354102 
C 2.464584 -4.24362 1.257969 -4.743416 0 -4.743416 
C -1.257969 -4.743416 -2.464584 -4.24362 -3.354102 -3.354102 
C -4.24362 -2.464584 -4.743416 -1.257969 -4.743416 0 
C -4.743416 1.257969 -4.24362 2.464584 -3.354102 3.354102 
C -2.464584 4.24362 -1.257969 4.743416 0 4.743416 
z
" style="stroke: #222222; stroke-width: 0.6"/>
     </defs>
     <g>
      <use xlink:href="#m809edd85e3" x="342.5125" y="305.904531" style="fill: #bdbdbd; stroke: #222222; stroke-width: 0.6"/>
     </g>
    </g>
    <g id="text_22">
     <!-- 1 run -->
     <g transform="translate(358.5125 308.704531) scale(0.08 -0.08)">
      <use xlink:href="#DejaVuSans-31"/>
      <use xlink:href="#DejaVuSans-20" transform="translate(63.623047 0)"/>
      <use xlink:href="#DejaVuSans-72" transform="translate(95.410156 0)"/>
      <use xlink:href="#DejaVuSans-75" transform="translate(136.523438 0)"/>
      <use xlink:href="#DejaVuSans-6e" transform="translate(199.902344 0)"/>
     </g>
    </g>
    <g id="line2d_40">
     <path d="M 395.57375 305.904531 
L 403.57375 305.904531 
L 411.57375 305.904531 
" style="fill: none; stroke: #ffffff; stroke-width: 1.5; stroke-linecap: square"/>
     <defs>
      <path id="m46579b1f72" d="M 0 7.245688 
C 1.921579 7.245688 3.764714 6.482237 5.123475 5.123475 
C 6.482237 3.764714 7.245688 1.921579 7.245688 0 
C 7.245688 -1.921579 6.482237 -3.764714 5.123475 -5.123475 
C 3.764714 -6.482237 1.921579 -7.245688 0 -7.245688 
C -1.921579 -7.245688 -3.764714 -6.482237 -5.123475 -5.123475 
C -6.482237 -3.764714 -7.245688 -1.921579 -7.245688 0 
C -7.245688 1.921579 -6.482237 3.764714 -5.123475 5.123475 
C -3.764714 6.482237 -1.921579 7.245688 0 7.245688 
z
" style="stroke: #222222; stroke-width: 0.6"/>
     </defs>
     <g>
      <use xlink:href="#m46579b1f72" x="403.57375" y="305.904531" style="fill: #bdbdbd; stroke: #222222; stroke-width: 0.6"/>
     </g>
    </g>
    <g id="text_23">
     <!-- 3 runs (-resume) -->
     <g transform="translate(419.57375 308.704531) scale(0.08 -0.08)">
      <use xlink:href="#DejaVuSans-33"/>
      <use xlink:href="#DejaVuSans-20" transform="translate(63.623047 0)"/>
      <use xlink:href="#DejaVuSans-72" transform="translate(95.410156 0)"/>
      <use xlink:href="#DejaVuSans-75" transform="translate(136.523438 0)"/>
      <use xlink:href="#DejaVuSans-6e" transform="translate(199.902344 0)"/>
      <use xlink:href="#DejaVuSans-73" transform="translate(263.28125 0)"/>
      <use xlink:href="#DejaVuSans-20" transform="translate(315.380859 0)"/>
      <use xlink:href="#DejaVuSans-28" transform="translate(347.167969 0)"/>
      <use xlink:href="#DejaVuSans-2d" transform="translate(386.181641 0)"/>
      <use xlink:href="#DejaVuSans-72" transform="translate(422.265625 0)"/>
      <use xlink:href="#DejaVuSans-65" transform="translate(461.128906 0)"/>
      <use xlink:href="#DejaVuSans-73" transform="translate(522.652344 0)"/>
      <use xlink:href="#DejaVuSans-75" transform="translate(574.751953 0)"/>
      <use xlink:href="#DejaVuSans-6d" transform="translate(638.130859 0)"/>
      <use xlink:href="#DejaVuSans-65" transform="translate(735.542969 0)"/>
      <use xlink:href="#DejaVuSans-29" transform="translate(797.066406 0)"/>
     </g>
    </g>
    <g id="line2d_41">
     <path d="M 502.4575 305.904531 
L 510.4575 305.904531 
L 518.4575 305.904531 
" style="fill: none; stroke: #ffffff; stroke-width: 1.5; stroke-linecap: square"/>
     <defs>
      <path id="m3e2a39d01d" d="M 0 10.606602 
C 2.812904 10.606602 5.510977 9.489023 7.5 7.5 
C 9.489023 5.510977 10.606602 2.812904 10.606602 0 
C 10.606602 -2.812904 9.489023 -5.510977 7.5 -7.5 
C 5.510977 -9.489023 2.812904 -10.606602 0 -10.606602 
C -2.812904 -10.606602 -5.510977 -9.489023 -7.5 -7.5 
C -9.489023 -5.510977 -10.606602 -2.812904 -10.606602 0 
C -10.606602 2.812904 -9.489023 5.510977 -7.5 7.5 
C -5.510977 9.489023 -2.812904 10.606602 0 10.606602 
z
" style="stroke: #222222; stroke-width: 0.6"/>
     </defs>
     <g>
      <use xlink:href="#m3e2a39d01d" x="510.4575" y="305.904531" style="fill: #bdbdbd; stroke: #222222; stroke-width: 0.6"/>
     </g>
    </g>
    <g id="text_24">
     <!-- 7 runs (-resume) -->
     <g transform="translate(526.4575 308.704531) scale(0.08 -0.08)">
      <use xlink:href="#DejaVuSans-37"/>
      <use xlink:href="#DejaVuSans-20" transform="translate(63.623047 0)"/>
      <use xlink:href="#DejaVuSans-72" transform="translate(95.410156 0)"/>
      <use xlink:href="#DejaVuSans-75" transform="translate(136.523438 0)"/>
      <use xlink:href="#DejaVuSans-6e" transform="translate(199.902344 0)"/>
      <use xlink:href="#DejaVuSans-73" transform="translate(263.28125 0)"/>
      <use xlink:href="#DejaVuSans-20" transform="translate(315.380859 0)"/>
      <use xlink:href="#DejaVuSans-28" transform="translate(347.167969 0)"/>
      <use xlink:href="#DejaVuSans-2d" transform="translate(386.181641 0)"/>
      <use xlink:href="#DejaVuSans-72" transform="translate(422.265625 0)"/>
      <use xlink:href="#DejaVuSans-65" transform="translate(461.128906 0)"/>
      <use xlink:href="#DejaVuSans-73" transform="translate(522.652344 0)"/>
      <use xlink:href="#DejaVuSans-75" transform="translate(574.751953 0)"/>
      <use xlink:href="#DejaVuSans-6d" transform="translate(638.130859 0)"/>
      <use xlink:href="#DejaVuSans-65" transform="translate(735.542969 0)"/>
      <use xlink:href="#DejaVuSans-29" transform="translate(797.066406 0)"/>
     </g>
    </g>
   </g>
  </g>
 </g>
 <defs>
  <clipPath id="p29a1b06b86">
   <rect x="33.8825" y="7.2" width="563.45875" height="236.82368"/>
  </clipPath>
 </defs>
</svg>
