<?xml version="1.0" encoding="utf-8" standalone="no"?>
<!DOCTYPE svg PUBLIC "-//W3C//DTD SVG 1.1//EN"
  "http://www.w3.org/Graphics/SVG/1.1/DTD/svg11.dtd">
<svg xmlns:xlink="http://www.w3.org/1999/xlink" width="540pt" height="360pt" viewBox="0 0 540 360" xmlns="http://www.w3.org/2000/svg" version="1.1">
 <metadata>
  <rdf:RDF xmlns:dc="http://purl.org/dc/elements/1.1/" xmlns:cc="http://creativecommons.org/ns#" xmlns:rdf="http://www.w3.org/1999/02/22-rdf-syntax-ns#">
   <cc:Work>
    <dc:type rdf:resource="http://purl.org/dc/dcmitype/StillImage"/>
    <dc:date>2026-05-19T19:23:52.321433</dc:date>
    <dc:format>image/svg+xml</dc:format>
    <dc:creator>
     <cc:Agent>
      <dc:title>Matplotlib v3.10.6, https://matplotlib.org/</dc:title>
     </cc:Agent>
    </dc:creator>
   </cc:Work>
  </rdf:RDF>
 </metadata>
 <defs>
  <style type="text/css">*{stroke-linejoin: round; stroke-linecap: butt}</style>
 </defs>
 <g id="figure_1">
  <g id="patch_1">
   <path d="M 0 360 
L 540 360 
L 540 0 
L 0 0 
z
" style="fill: #ffffff"/>
  </g>
  <g id="axes_1">
   <g id="patch_2">
    <path d="M 37.64 318.76 
L 523.485 318.76 
L 523.485 10.8 
L 37.64 10.8 
z
" style="fill: #ffffff"/>
   </g>
   <g id="PathCollection_1">
    <path d="M 70.029667 285.24242 
C 72.045879 285.24242 73.979783 284.44137 75.405461 283.015693 
C 76.831138 281.590016 77.632187 279.656111 77.632187 277.639899 
C 77.632187 275.623687 76.831138 273.689782 75.405461 272.264105 
C 73.979783 270.838428 72.045879 270.037379 70.029667 270.037379 
C 68.013455 270.037379 66.07955 270.838428 64.653873 272.264105 
C 63.228196 273.689782 62.427146 275.623687 62.427146 277.639899 
C 62.427146 279.656111 63.228196 281.590016 64.653873 283.015693 
C 66.07955 284.44137 68.013455 285.24242 70.029667 285.24242 
z
" clip-path="url(#pfd786bfd41)" style="fill: #1e88e5; fill-opacity: 0.78; stroke: #222222; stroke-opacity: 0.78; stroke-width: 0.6"/>
    <path d="M 70.029667 297.367772 
C 72.045879 297.367772 73.979783 296.566722 75.405461 295.141045 
C 76.831138 293.715368 77.632187 291.781463 77.632187 289.765251 
C 77.632187 287.749039 76.831138 285.815135 75.405461 284.389458 
C 73.979783 282.96378 72.045879 282.162731 70.029667 282.162731 
C 68.013455 282.162731 66.07955 282.96378 64.653873 284.389458 
C 63.228196 285.815135 62.427146 287.749039 62.427146 289.765251 
C 62.427146 291.781463 63.228196 293.715368 64.653873 295.141045 
C 66.07955 296.566722 68.013455 297.367772 70.029667 297.367772 
z
" clip-path="url(#pfd786bfd41)" style="fill: #1e88e5; fill-opacity: 0.78; stroke: #222222; stroke-opacity: 0.78; stroke-width: 0.6"/>
    <path d="M 70.029667 297.291988 
C 72.045879 297.291988 73.979783 296.490939 75.405461 295.065262 
C 76.831138 293.639585 77.632187 291.70568 77.632187 289.689468 
C 77.632187 287.673256 76.831138 285.739351 75.405461 284.313674 
C 73.979783 282.887997 72.045879 282.086947 70.029667 282.086947 
C 68.013455 282.086947 66.07955 282.887997 64.653873 284.313674 
C 63.228196 285.739351 62.427146 287.673256 62.427146 289.689468 
C 62.427146 291.70568 63.228196 293.639585 64.653873 295.065262 
C 66.07955 296.490939 68.013455 297.291988 70.029667 297.291988 
z
" clip-path="url(#pfd786bfd41)" style="fill: #1e88e5; fill-opacity: 0.78; stroke: #222222; stroke-opacity: 0.78; stroke-width: 0.6"/>
    <path d="M 70.029667 296.988855 
C 72.045879 296.988855 73.979783 296.187805 75.405461 294.762128 
C 76.831138 293.336451 77.632187 291.402546 77.632187 289.386334 
C 77.632187 287.370122 76.831138 285.436217 75.405461 284.01054 
C 73.979783 282.584863 72.045879 281.783814 70.029667 281.783814 
C 68.013455 281.783814 66.07955 282.584863 64.653873 284.01054 
C 63.228196 285.436217 62.427146 287.370122 62.427146 289.386334 
C 62.427146 291.402546 63.228196 293.336451 64.653873 294.762128 
C 66.07955 296.187805 68.013455 296.988855 70.029667 296.988855 
z
" clip-path="url(#pfd786bfd41)" style="fill: #1e88e5; fill-opacity: 0.78; stroke: #222222; stroke-opacity: 0.78; stroke-width: 0.6"/>
    <path d="M 70.029667 297.519339 
C 72.045879 297.519339 73.979783 296.718289 75.405461 295.292612 
C 76.831138 293.866935 77.632187 291.93303 77.632187 289.916818 
C 77.632187 287.900606 76.831138 285.966702 75.405461 284.541024 
C 73.979783 283.115347 72.045879 282.314298 70.029667 282.314298 
C 68.013455 282.314298 66.07955 283.115347 64.653873 284.541024 
C 63.228196 285.966702 62.427146 287.900606 62.427146 289.916818 
C 62.427146 291.93303 63.228196 293.866935 64.653873 295.292612 
C 66.07955 296.718289 68.013455 297.519339 70.029667 297.519339 
z
" clip-path="url(#pfd786bfd41)" style="fill: #1e88e5; fill-opacity: 0.78; stroke: #222222; stroke-opacity: 0.78; stroke-width: 0.6"/>
    <path d="M 70.029667 315.858934 
C 72.045879 315.858934 73.979783 315.057885 75.405461 313.632207 
C 76.831138 312.20653 77.632187 310.272626 77.632187 308.256414 
C 77.632187 306.240202 76.831138 304.306297 75.405461 302.88062 
C 73.979783 301.454943 72.045879 300.653893 70.029667 300.653893 
C 68.013455 300.653893 66.07955 301.454943 64.653873 302.88062 
C 63.228196 304.306297 62.427146 306.240202 62.427146 308.256414 
C 62.427146 310.272626 63.228196 312.20653 64.653873 313.632207 
C 66.07955 315.057885 68.013455 315.858934 70.029667 315.858934 
z
" clip-path="url(#pfd786bfd41)" style="fill: #1e88e5; fill-opacity: 0.78; stroke: #222222; stroke-opacity: 0.78; stroke-width: 0.6"/>
    <path d="M 70.029667 315.858934 
C 72.045879 315.858934 73.979783 315.057885 75.405461 313.632207 
C 76.831138 312.20653 77.632187 310.272626 77.632187 308.256414 
C 77.632187 306.240202 76.831138 304.306297 75.405461 302.88062 
C 73.979783 301.454943 72.045879 300.653893 70.029667 300.653893 
C 68.013455 300.653893 66.07955 301.454943 64.653873 302.88062 
C 63.228196 304.306297 62.427146 306.240202 62.427146 308.256414 
C 62.427146 310.272626 63.228196 312.20653 64.653873 313.632207 
C 66.07955 315.057885 68.013455 315.858934 70.029667 315.858934 
z
" clip-path="url(#pfd786bfd41)" style="fill: #1e88e5; fill-opacity: 0.78; stroke: #222222; stroke-opacity: 0.78; stroke-width: 0.6"/>
    <path d="M 70.029667 315.404233 
C 72.045879 315.404233 73.979783 314.603184 75.405461 313.177507 
C 76.831138 311.75183 77.632187 309.817925 77.632187 307.801713 
C 77.632187 305.785501 76.831138 303.851596 75.405461 302.425919 
C 73.979783 301.000242 72.045879 300.199192 70.029667 300.199192 
C 68.013455 300.199192 66.07955 301.000242 64.653873 302.425919 
C 63.228196 303.851596 62.427146 305.785501 62.427146 307.801713 
C 62.427146 309.817925 63.228196 311.75183 64.653873 313.177507 
C 66.07955 314.603184 68.013455 315.404233 70.029667 315.404233 
z
" clip-path="url(#pfd786bfd41)" style="fill: #1e88e5; fill-opacity: 0.78; stroke: #222222; stroke-opacity: 0.78; stroke-width: 0.6"/>
    <path d="M 70.029667 315.32845 
C 72.045879 315.32845 73.979783 314.5274 75.405461 313.101723 
C 76.831138 311.676046 77.632187 309.742141 77.632187 307.725929 
C 77.632187 305.709717 76.831138 303.775813 75.405461 302.350136 
C 73.979783 300.924458 72.045879 300.123409 70.029667 300.123409 
C 68.013455 300.123409 66.07955 300.924458 64.653873 302.350136 
C 63.228196 303.775813 62.427146 305.709717 62.427146 307.725929 
C 62.427146 309.742141 63.228196 311.676046 64.653873 313.101723 
C 66.07955 314.5274 68.013455 315.32845 70.029667 315.32845 
z
" clip-path="url(#pfd786bfd41)" style="fill: #1e88e5; fill-opacity: 0.78; stroke: #222222; stroke-opacity: 0.78; stroke-width: 0.6"/>
    <path d="M 70.029667 314.434205 
C 72.045879 314.434205 73.979783 313.633156 75.405461 312.207479 
C 76.831138 310.781801 77.632187 308.847897 77.632187 306.831685 
C 77.632187 304.815473 76.831138 302.881568 75.405461 301.455891 
C 73.979783 300.030214 72.045879 299.229164 70.029667 299.229164 
C 68.013455 299.229164 66.07955 300.030214 64.653873 301.455891 
C 63.228196 302.881568 62.427146 304.815473 62.427146 306.831685 
C 62.427146 308.847897 63.228196 310.781801 64.653873 312.207479 
C 66.07955 313.633156 68.013455 314.434205 70.029667 314.434205 
z
" clip-path="url(#pfd786bfd41)" style="fill: #1e88e5; fill-opacity: 0.78; stroke: #222222; stroke-opacity: 0.78; stroke-width: 0.6"/>
   </g>
   <g id="PathCollection_2">
    <path d="M 70.029667 142.220786 
C 73.045936 142.220786 75.939073 141.022409 78.071898 138.889585 
C 80.204723 136.75676 81.403099 133.863623 81.403099 130.847353 
C 81.403099 127.831084 80.204723 124.937947 78.071898 122.805122 
C 75.939073 120.672297 73.045936 119.473921 70.029667 119.473921 
C 67.013397 119.473921 64.12026 120.672297 61.987435 122.805122 
C 59.854611 124.937947 58.656234 127.831084 58.656234 130.847353 
C 58.656234 133.863623 59.854611 136.75676 61.987435 138.889585 
C 64.12026 141.022409 67.013397 142.220786 70.029667 142.220786 
z
" clip-path="url(#pfd786bfd41)" style="fill: #fb8c00; fill-opacity: 0.78; stroke: #222222; stroke-opacity: 0.78; stroke-width: 0.6"/>
    <path d="M 264.367667 228.553338 
C 267.629144 228.553338 270.757478 227.25754 273.063691 224.951327 
C 275.369903 222.645115 276.665702 219.51678 276.665702 216.255303 
C 276.665702 212.993826 275.369903 209.865492 273.063691 207.559279 
C 270.757478 205.253067 267.629144 203.957268 264.367667 203.957268 
C 261.10619 203.957268 257.977855 205.253067 255.671643 207.559279 
C 253.36543 209.865492 252.069631 212.993826 252.069631 216.255303 
C 252.069631 219.51678 253.36543 222.645115 255.671643 224.951327 
C 257.977855 227.25754 261.10619 228.553338 264.367667 228.553338 
z
" clip-path="url(#pfd786bfd41)" style="fill: #fb8c00; fill-opacity: 0.78; stroke: #222222; stroke-opacity: 0.78; stroke-width: 0.6"/>
   </g>
   <g id="PathCollection_3">
    <defs>
     <path id="m07b3cdd6ac" d="M 0 14.899003 
C 3.951262 14.899003 7.741222 13.32915 10.535186 10.535186 
C 13.32915 7.741222 14.899003 3.951262 14.899003 0 
C 14.899003 -3.951262 13.32915 -7.741222 10.535186 -10.535186 
C 7.741222 -13.32915 3.951262 -14.899003 0 -14.899003 
C -3.951262 -14.899003 -7.741222 -13.32915 -10.535186 -10.535186 
C -13.32915 -7.741222 -14.899003 -3.951262 -14.899003 0 
C -14.899003 3.951262 -13.32915 7.741222 -10.535186 10.535186 
C -7.741222 13.32915 -3.951262 14.899003 0 14.899003 
z
" style="stroke: #222222; stroke-opacity: 0.78; stroke-width: 0.6"/>
    </defs>
    <g clip-path="url(#pfd786bfd41)">
     <use xlink:href="#m07b3cdd6ac" x="458.705667" y="57.776949" style="fill: #e53935; fill-opacity: 0.78; stroke: #222222; stroke-opacity: 0.78; stroke-width: 0.6"/>
    </g>
   </g>
   <g id="PathCollection_4">
    <path d="M 70.029667 318.966056 
C 72.045879 318.966056 73.979783 318.165006 75.405461 316.739329 
C 76.831138 315.313652 77.632187 313.379747 77.632187 311.363535 
C 77.632187 309.347323 76.831138 307.413418 75.405461 305.987741 
C 73.979783 304.562064 72.045879 303.761015 70.029667 303.761015 
C 68.013455 303.761015 66.07955 304.562064 64.653873 305.987741 
C 63.228196 307.413418 62.427146 309.347323 62.427146 311.363535 
C 62.427146 313.379747 63.228196 315.313652 64.653873 316.739329 
C 66.07955 318.165006 68.013455 318.966056 70.029667 318.966056 
z
" clip-path="url(#pfd786bfd41)" style="fill: #00897b; fill-opacity: 0.78; stroke: #222222; stroke-opacity: 0.78; stroke-width: 0.6"/>
    <path d="M 70.029667 264.40197 
C 72.045879 264.40197 73.979783 263.600921 75.405461 262.175244 
C 76.831138 260.749567 77.632187 258.815662 77.632187 256.79945 
C 77.632187 254.783238 76.831138 252.849333 75.405461 251.423656 
C 73.979783 249.997979 72.045879 249.196929 70.029667 249.196929 
C 68.013455 249.196929 66.07955 249.997979 64.653873 251.423656 
C 63.228196 252.849333 62.427146 254.783238 62.427146 256.79945 
C 62.427146 258.815662 63.228196 260.749567 64.653873 262.175244 
C 66.07955 263.600921 68.013455 264.40197 70.029667 264.40197 
z
" clip-path="url(#pfd786bfd41)" style="fill: #00897b; fill-opacity: 0.78; stroke: #222222; stroke-opacity: 0.78; stroke-width: 0.6"/>
    <path d="M 70.029667 264.705104 
C 72.045879 264.705104 73.979783 263.904055 75.405461 262.478378 
C 76.831138 261.0527 77.632187 259.118796 77.632187 257.102584 
C 77.632187 255.086372 76.831138 253.152467 75.405461 251.72679 
C 73.979783 250.301113 72.045879 249.500063 70.029667 249.500063 
C 68.013455 249.500063 66.07955 250.301113 64.653873 251.72679 
C 63.228196 253.152467 62.427146 255.086372 62.427146 257.102584 
C 62.427146 259.118796 63.228196 261.0527 64.653873 262.478378 
C 66.07955 263.904055 68.013455 264.705104 70.029667 264.705104 
z
" clip-path="url(#pfd786bfd41)" style="fill: #00897b; fill-opacity: 0.78; stroke: #222222; stroke-opacity: 0.78; stroke-width: 0.6"/>
    <path d="M 70.029667 263.795703 
C 72.045879 263.795703 73.979783 262.994653 75.405461 261.568976 
C 76.831138 260.143299 77.632187 258.209394 77.632187 256.193182 
C 77.632187 254.17697 76.831138 252.243066 75.405461 250.817388 
C 73.979783 249.391711 72.045879 248.590662 70.029667 248.590662 
C 68.013455 248.590662 66.07955 249.391711 64.653873 250.817388 
C 63.228196 252.243066 62.427146 254.17697 62.427146 256.193182 
C 62.427146 258.209394 63.228196 260.143299 64.653873 261.568976 
C 66.07955 262.994653 68.013455 263.795703 70.029667 263.795703 
z
" clip-path="url(#pfd786bfd41)" style="fill: #00897b; fill-opacity: 0.78; stroke: #222222; stroke-opacity: 0.78; stroke-width: 0.6"/>
    <path d="M 70.029667 264.705104 
C 72.045879 264.705104 73.979783 263.904055 75.405461 262.478378 
C 76.831138 261.0527 77.632187 259.118796 77.632187 257.102584 
C 77.632187 255.086372 76.831138 253.152467 75.405461 251.72679 
C 73.979783 250.301113 72.045879 249.500063 70.029667 249.500063 
C 68.013455 249.500063 66.07955 250.301113 64.653873 251.72679 
C 63.228196 253.152467 62.427146 255.086372 62.427146 257.102584 
C 62.427146 259.118796 63.228196 261.0527 64.653873 262.478378 
C 66.07955 263.904055 68.013455 264.705104 70.029667 264.705104 
z
" clip-path="url(#pfd786bfd41)" style="fill: #00897b; fill-opacity: 0.78; stroke: #222222; stroke-opacity: 0.78; stroke-width: 0.6"/>
   </g>
   <g id="PathCollection_5">
    <path d="M 70.029667 319.344973 
C 72.045879 319.344973 73.979783 318.543923 75.405461 317.118246 
C 76.831138 315.692569 77.632187 313.758664 77.632187 311.742452 
C 77.632187 309.72624 76.831138 307.792336 75.405461 306.366659 
C 73.979783 304.940981 72.045879 304.139932 70.029667 304.139932 
C 68.013455 304.139932 66.07955 304.940981 64.653873 306.366659 
C 63.228196 307.792336 62.427146 309.72624 62.427146 311.742452 
C 62.427146 313.758664 63.228196 315.692569 64.653873 317.118246 
C 66.07955 318.543923 68.013455 319.344973 70.029667 319.344973 
z
" clip-path="url(#pfd786bfd41)" style="fill: #8e24aa; fill-opacity: 0.78; stroke: #222222; stroke-opacity: 0.78; stroke-width: 0.6"/>
    <path d="M 70.029667 318.966056 
C 72.045879 318.966056 73.979783 318.165006 75.405461 316.739329 
C 76.831138 315.313652 77.632187 313.379747 77.632187 311.363535 
C 77.632187 309.347323 76.831138 307.413418 75.405461 305.987741 
C 73.979783 304.562064 72.045879 303.761015 70.029667 303.761015 
C 68.013455 303.761015 66.07955 304.562064 64.653873 305.987741 
C 63.228196 307.413418 62.427146 309.347323 62.427146 311.363535 
C 62.427146 313.379747 63.228196 315.313652 64.653873 316.739329 
C 66.07955 318.165006 68.013455 318.966056 70.029667 318.966056 
z
" clip-path="url(#pfd786bfd41)" style="fill: #8e24aa; fill-opacity: 0.78; stroke: #222222; stroke-opacity: 0.78; stroke-width: 0.6"/>
    <path d="M 70.029667 318.208221 
C 72.045879 318.208221 73.979783 317.407172 75.405461 315.981494 
C 76.831138 314.555817 77.632187 312.621913 77.632187 310.605701 
C 77.632187 308.589489 76.831138 306.655584 75.405461 305.229907 
C 73.979783 303.80423 72.045879 303.00318 70.029667 303.00318 
C 68.013455 303.00318 66.07955 303.80423 64.653873 305.229907 
C 63.228196 306.655584 62.427146 308.589489 62.427146 310.605701 
C 62.427146 312.621913 63.228196 314.555817 64.653873 315.981494 
C 66.07955 317.407172 68.013455 318.208221 70.029667 318.208221 
z
" clip-path="url(#pfd786bfd41)" style="fill: #8e24aa; fill-opacity: 0.78; stroke: #222222; stroke-opacity: 0.78; stroke-width: 0.6"/>
    <path d="M 70.029667 318.071811 
C 72.045879 318.071811 73.979783 317.270761 75.405461 315.845084 
C 76.831138 314.419407 77.632187 312.485502 77.632187 310.46929 
C 77.632187 308.453078 76.831138 306.519174 75.405461 305.093497 
C 73.979783 303.667819 72.045879 302.86677 70.029667 302.86677 
C 68.013455 302.86677 66.07955 303.667819 64.653873 305.093497 
C 63.228196 306.519174 62.427146 308.453078 62.427146 310.46929 
C 62.427146 312.485502 63.228196 314.419407 64.653873 315.845084 
C 66.07955 317.270761 68.013455 318.071811 70.029667 318.071811 
z
" clip-path="url(#pfd786bfd41)" style="fill: #8e24aa; fill-opacity: 0.78; stroke: #222222; stroke-opacity: 0.78; stroke-width: 0.6"/>
    <path d="M 70.029667 317.768677 
C 72.045879 317.768677 73.979783 316.967628 75.405461 315.54195 
C 76.831138 314.116273 77.632187 312.182369 77.632187 310.166157 
C 77.632187 308.149945 76.831138 306.21604 75.405461 304.790363 
C 73.979783 303.364686 72.045879 302.563636 70.029667 302.563636 
C 68.013455 302.563636 66.07955 303.364686 64.653873 304.790363 
C 63.228196 306.21604 62.427146 308.149945 62.427146 310.166157 
C 62.427146 312.182369 63.228196 314.116273 64.653873 315.54195 
C 66.07955 316.967628 68.013455 317.768677 70.029667 317.768677 
z
" clip-path="url(#pfd786bfd41)" style="fill: #8e24aa; fill-opacity: 0.78; stroke: #222222; stroke-opacity: 0.78; stroke-width: 0.6"/>
   </g>
   <g id="matplotlib.axis_1">
    <g id="xtick_1">
     <g id="line2d_1">
      <defs>
       <path id="m6c5ef79197" d="M 0 0 
L 0 3.5 
" style="stroke: #000000; stroke-width: 0.8"/>
      </defs>
      <g>
       <use xlink:href="#m6c5ef79197" x="37.64" y="318.76" style="stroke: #000000; stroke-width: 0.8"/>
      </g>
     </g>
     <g id="text_1">
      <!-- 10 -->
      <g transform="translate(31.91375 332.598594) scale(0.09 -0.09)">
       <defs>
        <path id="DejaVuSans-31" d="M 794 531 
L 1825 531 
L 1825 4091 
L 703 3866 
L 703 4441 
L 1819 4666 
L 2450 4666 
L 2450 531 
L 3481 531 
L 3481 0 
L 794 0 
L 794 531 
z
" transform="scale(0.015625)"/>
        <path id="DejaVuSans-30" d="M 2034 4250 
Q 1547 4250 1301 3770 
Q 1056 3291 1056 2328 
Q 1056 1369 1301 889 
Q 1547 409 2034 409 
Q 2525 409 2770 889 
Q 3016 1369 3016 2328 
Q 3016 3291 2770 3770 
Q 2525 4250 2034 4250 
z
M 2034 4750 
Q 2819 4750 3233 4129 
Q 3647 3509 3647 2328 
Q 3647 1150 3233 529 
Q 2819 -91 2034 -91 
Q 1250 -91 836 529 
Q 422 1150 422 2328 
Q 422 3509 836 4129 
Q 1250 4750 2034 4750 
z
" transform="scale(0.015625)"/>
       </defs>
       <use xlink:href="#DejaVuSans-31"/>
       <use xlink:href="#DejaVuSans-30" transform="translate(63.623047 0)"/>
      </g>
     </g>
    </g>
    <g id="xtick_2">
     <g id="line2d_2">
      <g>
       <use xlink:href="#m6c5ef79197" x="118.614167" y="318.76" style="stroke: #000000; stroke-width: 0.8"/>
      </g>
     </g>
     <g id="text_2">
      <!-- 15 -->
      <g transform="translate(112.887917 332.598594) scale(0.09 -0.09)">
       <defs>
        <path id="DejaVuSans-35" d="M 691 4666 
L 3169 4666 
L 3169 4134 
L 1269 4134 
L 1269 2991 
Q 1406 3038 1543 3061 
Q 1681 3084 1819 3084 
Q 2600 3084 3056 2656 
Q 3513 2228 3513 1497 
Q 3513 744 3044 326 
Q 2575 -91 1722 -91 
Q 1428 -91 1123 -41 
Q 819 9 494 109 
L 494 744 
Q 775 591 1075 516 
Q 1375 441 1709 441 
Q 2250 441 2565 725 
Q 2881 1009 2881 1497 
Q 2881 1984 2565 2268 
Q 2250 2553 1709 2553 
Q 1456 2553 1204 2497 
Q 953 2441 691 2322 
L 691 4666 
z
" transform="scale(0.015625)"/>
       </defs>
       <use xlink:href="#DejaVuSans-31"/>
       <use xlink:href="#DejaVuSans-35" transform="translate(63.623047 0)"/>
      </g>
     </g>
    </g>
    <g id="xtick_3">
     <g id="line2d_3">
      <g>
       <use xlink:href="#m6c5ef79197" x="199.588333" y="318.76" style="stroke: #000000; stroke-width: 0.8"/>
      </g>
     </g>
     <g id="text_3">
      <!-- 20 -->
      <g transform="translate(193.862083 332.598594) scale(0.09 -0.09)">
       <defs>
        <path id="DejaVuSans-32" d="M 1228 531 
L 3431 531 
L 3431 0 
L 469 0 
L 469 531 
Q 828 903 1448 1529 
Q 2069 2156 2228 2338 
Q 2531 2678 2651 2914 
Q 2772 3150 2772 3378 
Q 2772 3750 2511 3984 
Q 2250 4219 1831 4219 
Q 1534 4219 1204 4116 
Q 875 4013 500 3803 
L 500 4441 
Q 881 4594 1212 4672 
Q 1544 4750 1819 4750 
Q 2544 4750 2975 4387 
Q 3406 4025 3406 3419 
Q 3406 3131 3298 2873 
Q 3191 2616 2906 2266 
Q 2828 2175 2409 1742 
Q 1991 1309 1228 531 
z
" transform="scale(0.015625)"/>
       </defs>
       <use xlink:href="#DejaVuSans-32"/>
       <use xlink:href="#DejaVuSans-30" transform="translate(63.623047 0)"/>
      </g>
     </g>
    </g>
    <g id="xtick_4">
     <g id="line2d_4">
      <g>
       <use xlink:href="#m6c5ef79197" x="280.5625" y="318.76" style="stroke: #000000; stroke-width: 0.8"/>
      </g>
     </g>
     <g id="text_4">
      <!-- 25 -->
      <g transform="translate(274.83625 332.598594) scale(0.09 -0.09)">
       <use xlink:href="#DejaVuSans-32"/>
       <use xlink:href="#DejaVuSans-35" transform="translate(63.623047 0)"/>
      </g>
     </g>
    </g>
    <g id="xtick_5">
     <g id="line2d_5">
      <g>
       <use xlink:href="#m6c5ef79197" x="361.536667" y="318.76" style="stroke: #000000; stroke-width: 0.8"/>
      </g>
     </g>
     <g id="text_5">
      <!-- 30 -->
      <g transform="translate(355.810417 332.598594) scale(0.09 -0.09)">
       <defs>
        <path id="DejaVuSans-33" d="M 2597 2516 
Q 3050 2419 3304 2112 
Q 3559 1806 3559 1356 
Q 3559 666 3084 287 
Q 2609 -91 1734 -91 
Q 1441 -91 1130 -33 
Q 819 25 488 141 
L 488 750 
Q 750 597 1062 519 
Q 1375 441 1716 441 
Q 2309 441 2620 675 
Q 2931 909 2931 1356 
Q 2931 1769 2642 2001 
Q 2353 2234 1838 2234 
L 1294 2234 
L 1294 2753 
L 1863 2753 
Q 2328 2753 2575 2939 
Q 2822 3125 2822 3475 
Q 2822 3834 2567 4026 
Q 2313 4219 1838 4219 
Q 1578 4219 1281 4162 
Q 984 4106 628 3988 
L 628 4550 
Q 988 4650 1302 4700 
Q 1616 4750 1894 4750 
Q 2613 4750 3031 4423 
Q 3450 4097 3450 3541 
Q 3450 3153 3228 2886 
Q 3006 2619 2597 2516 
z
" transform="scale(0.015625)"/>
       </defs>
       <use xlink:href="#DejaVuSans-33"/>
       <use xlink:href="#DejaVuSans-30" transform="translate(63.623047 0)"/>
      </g>
     </g>
    </g>
    <g id="xtick_6">
     <g id="line2d_6">
      <g>
       <use xlink:href="#m6c5ef79197" x="442.510833" y="318.76" style="stroke: #000000; stroke-width: 0.8"/>
      </g>
     </g>
     <g id="text_6">
      <!-- 35 -->
      <g transform="translate(436.784583 332.598594) scale(0.09 -0.09)">
       <use xlink:href="#DejaVuSans-33"/>
       <use xlink:href="#DejaVuSans-35" transform="translate(63.623047 0)"/>
      </g>
     </g>
    </g>
    <g id="xtick_7">
     <g id="line2d_7">
      <g>
       <use xlink:href="#m6c5ef79197" x="523.485" y="318.76" style="stroke: #000000; stroke-width: 0.8"/>
      </g>
     </g>
     <g id="text_7">
      <!-- 40 -->
      <g transform="translate(517.75875 332.598594) scale(0.09 -0.09)">
       <defs>
        <path id="DejaVuSans-34" d="M 2419 4116 
L 825 1625 
L 2419 1625 
L 2419 4116 
z
M 2253 4666 
L 3047 4666 
L 3047 1625 
L 3713 1625 
L 3713 1100 
L 3047 1100 
L 3047 0 
L 2419 0 
L 2419 1100 
L 313 1100 
L 313 1709 
L 2253 4666 
z
" transform="scale(0.015625)"/>
       </defs>
       <use xlink:href="#DejaVuSans-34"/>
       <use xlink:href="#DejaVuSans-30" transform="translate(63.623047 0)"/>
      </g>
     </g>
    </g>
    <g id="text_8">
     <!-- DIA-NN threads (- -threads) -->
     <g transform="translate(213.974219 346.06875) scale(0.1 -0.1)">
      <defs>
       <path id="DejaVuSans-44" d="M 1259 4147 
L 1259 519 
L 2022 519 
Q 2988 519 3436 956 
Q 3884 1394 3884 2338 
Q 3884 3275 3436 3711 
Q 2988 4147 2022 4147 
L 1259 4147 
z
M 628 4666 
L 1925 4666 
Q 3281 4666 3915 4102 
Q 4550 3538 4550 2338 
Q 4550 1131 3912 565 
Q 3275 0 1925 0 
L 628 0 
L 628 4666 
z
" transform="scale(0.015625)"/>
       <path id="DejaVuSans-49" d="M 628 4666 
L 1259 4666 
L 1259 0 
L 628 0 
L 628 4666 
z
" transform="scale(0.015625)"/>
       <path id="DejaVuSans-41" d="M 2188 4044 
L 1331 1722 
L 3047 1722 
L 2188 4044 
z
M 1831 4666 
L 2547 4666 
L 4325 0 
L 3669 0 
L 3244 1197 
L 1141 1197 
L 716 0 
L 50 0 
L 1831 4666 
z
" transform="scale(0.015625)"/>
       <path id="DejaVuSans-2d" d="M 313 2009 
L 1997 2009 
L 1997 1497 
L 313 1497 
L 313 2009 
z
" transform="scale(0.015625)"/>
       <path id="DejaVuSans-4e" d="M 628 4666 
L 1478 4666 
L 3547 763 
L 3547 4666 
L 4159 4666 
L 4159 0 
L 3309 0 
L 1241 3903 
L 1241 0 
L 628 0 
L 628 4666 
z
" transform="scale(0.015625)"/>
       <path id="DejaVuSans-20" transform="scale(0.015625)"/>
       <path id="DejaVuSans-74" d="M 1172 4494 
L 1172 3500 
L 2356 3500 
L 2356 3053 
L 1172 3053 
L 1172 1153 
Q 1172 725 1289 603 
Q 1406 481 1766 481 
L 2356 481 
L 2356 0 
L 1766 0 
Q 1100 0 847 248 
Q 594 497 594 1153 
L 594 3053 
L 172 3053 
L 172 3500 
L 594 3500 
L 594 4494 
L 1172 4494 
z
" transform="scale(0.015625)"/>
       <path id="DejaVuSans-68" d="M 3513 2113 
L 3513 0 
L 2938 0 
L 2938 2094 
Q 2938 2591 2744 2837 
Q 2550 3084 2163 3084 
Q 1697 3084 1428 2787 
Q 1159 2491 1159 1978 
L 1159 0 
L 581 0 
L 581 4863 
L 1159 4863 
L 1159 2956 
Q 1366 3272 1645 3428 
Q 1925 3584 2291 3584 
Q 2894 3584 3203 3211 
Q 3513 2838 3513 2113 
z
" transform="scale(0.015625)"/>
       <path id="DejaVuSans-72" d="M 2631 2963 
Q 2534 3019 2420 3045 
Q 2306 3072 2169 3072 
Q 1681 3072 1420 2755 
Q 1159 2438 1159 1844 
L 1159 0 
L 581 0 
L 581 3500 
L 1159 3500 
L 1159 2956 
Q 1341 3275 1631 3429 
Q 1922 3584 2338 3584 
Q 2397 3584 2469 3576 
Q 2541 3569 2628 3553 
L 2631 2963 
z
" transform="scale(0.015625)"/>
       <path id="DejaVuSans-65" d="M 3597 1894 
L 3597 1613 
L 953 1613 
Q 991 1019 1311 708 
Q 1631 397 2203 397 
Q 2534 397 2845 478 
Q 3156 559 3463 722 
L 3463 178 
Q 3153 47 2828 -22 
Q 2503 -91 2169 -91 
Q 1331 -91 842 396 
Q 353 884 353 1716 
Q 353 2575 817 3079 
Q 1281 3584 2069 3584 
Q 2775 3584 3186 3129 
Q 3597 2675 3597 1894 
z
M 3022 2063 
Q 3016 2534 2758 2815 
Q 2500 3097 2075 3097 
Q 1594 3097 1305 2825 
Q 1016 2553 972 2059 
L 3022 2063 
z
" transform="scale(0.015625)"/>
       <path id="DejaVuSans-61" d="M 2194 1759 
Q 1497 1759 1228 1600 
Q 959 1441 959 1056 
Q 959 750 1161 570 
Q 1363 391 1709 391 
Q 2188 391 2477 730 
Q 2766 1069 2766 1631 
L 2766 1759 
L 2194 1759 
z
M 3341 1997 
L 3341 0 
L 2766 0 
L 2766 531 
Q 2569 213 2275 61 
Q 1981 -91 1556 -91 
Q 1019 -91 701 211 
Q 384 513 384 1019 
Q 384 1609 779 1909 
Q 1175 2209 1959 2209 
L 2766 2209 
L 2766 2266 
Q 2766 2663 2505 2880 
Q 2244 3097 1772 3097 
Q 1472 3097 1187 3025 
Q 903 2953 641 2809 
L 641 3341 
Q 956 3463 1253 3523 
Q 1550 3584 1831 3584 
Q 2591 3584 2966 3190 
Q 3341 2797 3341 1997 
z
" transform="scale(0.015625)"/>
       <path id="DejaVuSans-64" d="M 2906 2969 
L 2906 4863 
L 3481 4863 
L 3481 0 
L 2906 0 
L 2906 525 
Q 2725 213 2448 61 
Q 2172 -91 1784 -91 
Q 1150 -91 751 415 
Q 353 922 353 1747 
Q 353 2572 751 3078 
Q 1150 3584 1784 3584 
Q 2172 3584 2448 3432 
Q 2725 3281 2906 2969 
z
M 947 1747 
Q 947 1113 1208 752 
Q 1469 391 1925 391 
Q 2381 391 2643 752 
Q 2906 1113 2906 1747 
Q 2906 2381 2643 2742 
Q 2381 3103 1925 3103 
Q 1469 3103 1208 2742 
Q 947 2381 947 1747 
z
" transform="scale(0.015625)"/>
       <path id="DejaVuSans-73" d="M 2834 3397 
L 2834 2853 
Q 2591 2978 2328 3040 
Q 2066 3103 1784 3103 
Q 1356 3103 1142 2972 
Q 928 2841 928 2578 
Q 928 2378 1081 2264 
Q 1234 2150 1697 2047 
L 1894 2003 
Q 2506 1872 2764 1633 
Q 3022 1394 3022 966 
Q 3022 478 2636 193 
Q 2250 -91 1575 -91 
Q 1294 -91 989 -36 
Q 684 19 347 128 
L 347 722 
Q 666 556 975 473 
Q 1284 391 1588 391 
Q 1994 391 2212 530 
Q 2431 669 2431 922 
Q 2431 1156 2273 1281 
Q 2116 1406 1581 1522 
L 1381 1569 
Q 847 1681 609 1914 
Q 372 2147 372 2553 
Q 372 3047 722 3315 
Q 1072 3584 1716 3584 
Q 2034 3584 2315 3537 
Q 2597 3491 2834 3397 
z
" transform="scale(0.015625)"/>
       <path id="DejaVuSans-28" d="M 1984 4856 
Q 1566 4138 1362 3434 
Q 1159 2731 1159 2009 
Q 1159 1288 1364 580 
Q 1569 -128 1984 -844 
L 1484 -844 
Q 1016 -109 783 600 
Q 550 1309 550 2009 
Q 550 2706 781 3412 
Q 1013 4119 1484 4856 
L 1984 4856 
z
" transform="scale(0.015625)"/>
       <path id="DejaVuSans-29" d="M 513 4856 
L 1013 4856 
Q 1481 4119 1714 3412 
Q 1947 2706 1947 2009 
Q 1947 1309 1714 600 
Q 1481 -109 1013 -844 
L 513 -844 
Q 928 -128 1133 580 
Q 1338 1288 1338 2009 
Q 1338 2731 1133 3434 
Q 928 4138 513 4856 
z
" transform="scale(0.015625)"/>
      </defs>
      <use xlink:href="#DejaVuSans-44"/>
      <use xlink:href="#DejaVuSans-49" transform="translate(77.001953 0)"/>
      <use xlink:href="#DejaVuSans-41" transform="translate(106.494141 0)"/>
      <use xlink:href="#DejaVuSans-2d" transform="translate(172.652344 0)"/>
      <use xlink:href="#DejaVuSans-4e" transform="translate(208.736328 0)"/>
      <use xlink:href="#DejaVuSans-4e" transform="translate(283.541016 0)"/>
      <use xlink:href="#DejaVuSans-20" transform="translate(358.345703 0)"/>
      <use xlink:href="#DejaVuSans-74" transform="translate(390.132812 0)"/>
      <use xlink:href="#DejaVuSans-68" transform="translate(429.341797 0)"/>
      <use xlink:href="#DejaVuSans-72" transform="translate(492.720703 0)"/>
      <use xlink:href="#DejaVuSans-65" transform="translate(531.583984 0)"/>
      <use xlink:href="#DejaVuSans-61" transform="translate(593.107422 0)"/>
      <use xlink:href="#DejaVuSans-64" transform="translate(654.386719 0)"/>
      <use xlink:href="#DejaVuSans-73" transform="translate(717.863281 0)"/>
      <use xlink:href="#DejaVuSans-20" transform="translate(769.962891 0)"/>
      <use xlink:href="#DejaVuSans-28" transform="translate(801.75 0)"/>
      <use xlink:href="#DejaVuSans-2d" transform="translate(840.763672 0)"/>
      <use xlink:href="#DejaVuSans-2d" transform="translate(876.847656 0)"/>
      <use xlink:href="#DejaVuSans-74" transform="translate(912.931641 0)"/>
      <use xlink:href="#DejaVuSans-68" transform="translate(952.140625 0)"/>
      <use xlink:href="#DejaVuSans-72" transform="translate(1015.519531 0)"/>
      <use xlink:href="#DejaVuSans-65" transform="translate(1054.382812 0)"/>
      <use xlink:href="#DejaVuSans-61" transform="translate(1115.90625 0)"/>
      <use xlink:href="#DejaVuSans-64" transform="translate(1177.185547 0)"/>
      <use xlink:href="#DejaVuSans-73" transform="translate(1240.662109 0)"/>
      <use xlink:href="#DejaVuSans-29" transform="translate(1292.761719 0)"/>
     </g>
    </g>
   </g>
   <g id="matplotlib.axis_2">
    <g id="ytick_1">
     <g id="line2d_8">
      <defs>
       <path id="mdc52f6399f" d="M 0 0 
L -3.5 0 
" style="stroke: #000000; stroke-width: 0.8"/>
      </defs>
      <g>
       <use xlink:href="#mdc52f6399f" x="37.64" y="318.76" style="stroke: #000000; stroke-width: 0.8"/>
      </g>
     </g>
     <g id="text_9">
      <!-- 0 -->
      <g transform="translate(24.91375 322.179297) scale(0.09 -0.09)">
       <use xlink:href="#DejaVuSans-30"/>
      </g>
     </g>
    </g>
    <g id="ytick_2">
     <g id="line2d_9">
      <g>
       <use xlink:href="#mdc52f6399f" x="37.64" y="264.195915" style="stroke: #000000; stroke-width: 0.8"/>
      </g>
     </g>
     <g id="text_10">
      <!-- 1 -->
      <g transform="translate(24.91375 267.615212) scale(0.09 -0.09)">
       <use xlink:href="#DejaVuSans-31"/>
      </g>
     </g>
    </g>
    <g id="ytick_3">
     <g id="line2d_10">
      <g>
       <use xlink:href="#mdc52f6399f" x="37.64" y="209.63183" style="stroke: #000000; stroke-width: 0.8"/>
      </g>
     </g>
     <g id="text_11">
      <!-- 2 -->
      <g transform="translate(24.91375 213.051126) scale(0.09 -0.09)">
       <use xlink:href="#DejaVuSans-32"/>
      </g>
     </g>
    </g>
    <g id="ytick_4">
     <g id="line2d_11">
      <g>
       <use xlink:href="#mdc52f6399f" x="37.64" y="155.067744" style="stroke: #000000; stroke-width: 0.8"/>
      </g>
     </g>
     <g id="text_12">
      <!-- 3 -->
      <g transform="translate(24.91375 158.487041) scale(0.09 -0.09)">
       <use xlink:href="#DejaVuSans-33"/>
      </g>
     </g>
    </g>
    <g id="ytick_5">
     <g id="line2d_12">
      <g>
       <use xlink:href="#mdc52f6399f" x="37.64" y="100.503659" style="stroke: #000000; stroke-width: 0.8"/>
      </g>
     </g>
     <g id="text_13">
      <!-- 4 -->
      <g transform="translate(24.91375 103.922956) scale(0.09 -0.09)">
       <use xlink:href="#DejaVuSans-34"/>
      </g>
     </g>
    </g>
    <g id="ytick_6">
     <g id="line2d_13">
      <g>
       <use xlink:href="#mdc52f6399f" x="37.64" y="45.939574" style="stroke: #000000; stroke-width: 0.8"/>
      </g>
     </g>
     <g id="text_14">
      <!-- 5 -->
      <g transform="translate(24.91375 49.358871) scale(0.09 -0.09)">
       <use xlink:href="#DejaVuSans-35"/>
      </g>
     </g>
    </g>
    <g id="text_15">
     <!-- Workflow wallclock (hours) -->
     <g transform="translate(18.834063 231.647969) rotate(-90) scale(0.1 -0.1)">
      <defs>
       <path id="DejaVuSans-57" d="M 213 4666 
L 850 4666 
L 1831 722 
L 2809 4666 
L 3519 4666 
L 4500 722 
L 5478 4666 
L 6119 4666 
L 4947 0 
L 4153 0 
L 3169 4050 
L 2175 0 
L 1381 0 
L 213 4666 
z
" transform="scale(0.015625)"/>
       <path id="DejaVuSans-6f" d="M 1959 3097 
Q 1497 3097 1228 2736 
Q 959 2375 959 1747 
Q 959 1119 1226 758 
Q 1494 397 1959 397 
Q 2419 397 2687 759 
Q 2956 1122 2956 1747 
Q 2956 2369 2687 2733 
Q 2419 3097 1959 3097 
z
M 1959 3584 
Q 2709 3584 3137 3096 
Q 3566 2609 3566 1747 
Q 3566 888 3137 398 
Q 2709 -91 1959 -91 
Q 1206 -91 779 398 
Q 353 888 353 1747 
Q 353 2609 779 3096 
Q 1206 3584 1959 3584 
z
" transform="scale(0.015625)"/>
       <path id="DejaVuSans-6b" d="M 581 4863 
L 1159 4863 
L 1159 1991 
L 2875 3500 
L 3609 3500 
L 1753 1863 
L 3688 0 
L 2938 0 
L 1159 1709 
L 1159 0 
L 581 0 
L 581 4863 
z
" transform="scale(0.015625)"/>
       <path id="DejaVuSans-66" d="M 2375 4863 
L 2375 4384 
L 1825 4384 
Q 1516 4384 1395 4259 
Q 1275 4134 1275 3809 
L 1275 3500 
L 2222 3500 
L 2222 3053 
L 1275 3053 
L 1275 0 
L 697 0 
L 697 3053 
L 147 3053 
L 147 3500 
L 697 3500 
L 697 3744 
Q 697 4328 969 4595 
Q 1241 4863 1831 4863 
L 2375 4863 
z
" transform="scale(0.015625)"/>
       <path id="DejaVuSans-6c" d="M 603 4863 
L 1178 4863 
L 1178 0 
L 603 0 
L 603 4863 
z
" transform="scale(0.015625)"/>
       <path id="DejaVuSans-77" d="M 269 3500 
L 844 3500 
L 1563 769 
L 2278 3500 
L 2956 3500 
L 3675 769 
L 4391 3500 
L 4966 3500 
L 4050 0 
L 3372 0 
L 2619 2869 
L 1863 0 
L 1184 0 
L 269 3500 
z
" transform="scale(0.015625)"/>
       <path id="DejaVuSans-63" d="M 3122 3366 
L 3122 2828 
Q 2878 2963 2633 3030 
Q 2388 3097 2138 3097 
Q 1578 3097 1268 2742 
Q 959 2388 959 1747 
Q 959 1106 1268 751 
Q 1578 397 2138 397 
Q 2388 397 2633 464 
Q 2878 531 3122 666 
L 3122 134 
Q 2881 22 2623 -34 
Q 2366 -91 2075 -91 
Q 1284 -91 818 406 
Q 353 903 353 1747 
Q 353 2603 823 3093 
Q 1294 3584 2113 3584 
Q 2378 3584 2631 3529 
Q 2884 3475 3122 3366 
z
" transform="scale(0.015625)"/>
       <path id="DejaVuSans-75" d="M 544 1381 
L 544 3500 
L 1119 3500 
L 1119 1403 
Q 1119 906 1312 657 
Q 1506 409 1894 409 
Q 2359 409 2629 706 
Q 2900 1003 2900 1516 
L 2900 3500 
L 3475 3500 
L 3475 0 
L 2900 0 
L 2900 538 
Q 2691 219 2414 64 
Q 2138 -91 1772 -91 
Q 1169 -91 856 284 
Q 544 659 544 1381 
z
M 1991 3584 
L 1991 3584 
z
" transform="scale(0.015625)"/>
      </defs>
      <use xlink:href="#DejaVuSans-57"/>
      <use xlink:href="#DejaVuSans-6f" transform="translate(93.001953 0)"/>
      <use xlink:href="#DejaVuSans-72" transform="translate(154.183594 0)"/>
      <use xlink:href="#DejaVuSans-6b" transform="translate(195.296875 0)"/>
      <use xlink:href="#DejaVuSans-66" transform="translate(253.207031 0)"/>
      <use xlink:href="#DejaVuSans-6c" transform="translate(288.412109 0)"/>
      <use xlink:href="#DejaVuSans-6f" transform="translate(316.195312 0)"/>
      <use xlink:href="#DejaVuSans-77" transform="translate(377.376953 0)"/>
      <use xlink:href="#DejaVuSans-20" transform="translate(459.164062 0)"/>
      <use xlink:href="#DejaVuSans-77" transform="translate(490.951172 0)"/>
      <use xlink:href="#DejaVuSans-61" transform="translate(572.738281 0)"/>
      <use xlink:href="#DejaVuSans-6c" transform="translate(634.017578 0)"/>
      <use xlink:href="#DejaVuSans-6c" transform="translate(661.800781 0)"/>
      <use xlink:href="#DejaVuSans-63" transform="translate(689.583984 0)"/>
      <use xlink:href="#DejaVuSans-6c" transform="translate(744.564453 0)"/>
      <use xlink:href="#DejaVuSans-6f" transform="translate(772.347656 0)"/>
      <use xlink:href="#DejaVuSans-63" transform="translate(833.529297 0)"/>
      <use xlink:href="#DejaVuSans-6b" transform="translate(888.509766 0)"/>
      <use xlink:href="#DejaVuSans-20" transform="translate(946.419922 0)"/>
      <use xlink:href="#DejaVuSans-28" transform="translate(978.207031 0)"/>
      <use xlink:href="#DejaVuSans-68" transform="translate(1017.220703 0)"/>
      <use xlink:href="#DejaVuSans-6f" transform="translate(1080.599609 0)"/>
      <use xlink:href="#DejaVuSans-75" transform="translate(1141.78125 0)"/>
      <use xlink:href="#DejaVuSans-72" transform="translate(1205.160156 0)"/>
      <use xlink:href="#DejaVuSans-73" transform="translate(1246.273438 0)"/>
      <use xlink:href="#DejaVuSans-29" transform="translate(1298.373047 0)"/>
     </g>
    </g>
   </g>
   <g id="patch_3">
    <path d="M 37.64 318.76 
L 37.64 10.8 
" style="fill: none; stroke: #000000; stroke-width: 0.8; stroke-linejoin: miter; stroke-linecap: square"/>
   </g>
   <g id="patch_4">
    <path d="M 37.64 318.76 
L 523.485 318.76 
" style="fill: none; stroke: #000000; stroke-width: 0.8; stroke-linejoin: miter; stroke-linecap: square"/>
   </g>
   <g id="legend_1">
    <g id="text_16">
     <!-- Instrument -->
     <g transform="translate(61.346641 24.838594) scale(0.09 -0.09)">
      <defs>
       <path id="DejaVuSans-6e" d="M 3513 2113 
L 3513 0 
L 2938 0 
L 2938 2094 
Q 2938 2591 2744 2837 
Q 2550 3084 2163 3084 
Q 1697 3084 1428 2787 
Q 1159 2491 1159 1978 
L 1159 0 
L 581 0 
L 581 3500 
L 1159 3500 
L 1159 2956 
Q 1366 3272 1645 3428 
Q 1925 3584 2291 3584 
Q 2894 3584 3203 3211 
Q 3513 2838 3513 2113 
z
" transform="scale(0.015625)"/>
       <path id="DejaVuSans-6d" d="M 3328 2828 
Q 3544 3216 3844 3400 
Q 4144 3584 4550 3584 
Q 5097 3584 5394 3201 
Q 5691 2819 5691 2113 
L 5691 0 
L 5113 0 
L 5113 2094 
Q 5113 2597 4934 2840 
Q 4756 3084 4391 3084 
Q 3944 3084 3684 2787 
Q 3425 2491 3425 1978 
L 3425 0 
L 2847 0 
L 2847 2094 
Q 2847 2600 2669 2842 
Q 2491 3084 2119 3084 
Q 1678 3084 1418 2786 
Q 1159 2488 1159 1978 
L 1159 0 
L 581 0 
L 581 3500 
L 1159 3500 
L 1159 2956 
Q 1356 3278 1631 3431 
Q 1906 3584 2284 3584 
Q 2666 3584 2933 3390 
Q 3200 3197 3328 2828 
z
" transform="scale(0.015625)"/>
      </defs>
      <use xlink:href="#DejaVuSans-49"/>
      <use xlink:href="#DejaVuSans-6e" transform="translate(29.492188 0)"/>
      <use xlink:href="#DejaVuSans-73" transform="translate(92.871094 0)"/>
      <use xlink:href="#DejaVuSans-74" transform="translate(144.970703 0)"/>
      <use xlink:href="#DejaVuSans-72" transform="translate(184.179688 0)"/>
      <use xlink:href="#DejaVuSans-75" transform="translate(225.292969 0)"/>
      <use xlink:href="#DejaVuSans-6d" transform="translate(288.671875 0)"/>
      <use xlink:href="#DejaVuSans-65" transform="translate(386.083984 0)"/>
      <use xlink:href="#DejaVuSans-6e" transform="translate(447.607422 0)"/>
      <use xlink:href="#DejaVuSans-74" transform="translate(510.986328 0)"/>
     </g>
    </g>
    <g id="PathCollection_6">
     <defs>
      <path id="m58154aa527" d="M 0 7.602521 
C 2.016212 7.602521 3.950117 6.801471 5.375794 5.375794 
C 6.801471 3.950117 7.602521 2.016212 7.602521 0 
C 7.602521 -2.016212 6.801471 -3.950117 5.375794 -5.375794 
C 3.950117 -6.801471 2.016212 -7.602521 0 -7.602521 
C -2.016212 -7.602521 -3.950117 -6.801471 -5.375794 -5.375794 
C -6.801471 -3.950117 -7.602521 -2.016212 -7.602521 0 
C -7.602521 2.016212 -6.801471 3.950117 -5.375794 5.375794 
C -3.950117 6.801471 -2.016212 7.602521 0 7.602521 
z
" style="stroke: #222222; stroke-opacity: 0.78; stroke-width: 0.6"/>
     </defs>
     <g>
      <use xlink:href="#m58154aa527" x="52.84" y="34.689062" style="fill: #1e88e5; fill-opacity: 0.78; stroke: #222222; stroke-opacity: 0.78; stroke-width: 0.6"/>
     </g>
    </g>
    <g id="text_17">
     <!-- Orbitrap Astral -->
     <g transform="translate(67.24 36.789062) scale(0.08 -0.08)">
      <defs>
       <path id="DejaVuSans-4f" d="M 2522 4238 
Q 1834 4238 1429 3725 
Q 1025 3213 1025 2328 
Q 1025 1447 1429 934 
Q 1834 422 2522 422 
Q 3209 422 3611 934 
Q 4013 1447 4013 2328 
Q 4013 3213 3611 3725 
Q 3209 4238 2522 4238 
z
M 2522 4750 
Q 3503 4750 4090 4092 
Q 4678 3434 4678 2328 
Q 4678 1225 4090 567 
Q 3503 -91 2522 -91 
Q 1538 -91 948 565 
Q 359 1222 359 2328 
Q 359 3434 948 4092 
Q 1538 4750 2522 4750 
z
" transform="scale(0.015625)"/>
       <path id="DejaVuSans-62" d="M 3116 1747 
Q 3116 2381 2855 2742 
Q 2594 3103 2138 3103 
Q 1681 3103 1420 2742 
Q 1159 2381 1159 1747 
Q 1159 1113 1420 752 
Q 1681 391 2138 391 
Q 2594 391 2855 752 
Q 3116 1113 3116 1747 
z
M 1159 2969 
Q 1341 3281 1617 3432 
Q 1894 3584 2278 3584 
Q 2916 3584 3314 3078 
Q 3713 2572 3713 1747 
Q 3713 922 3314 415 
Q 2916 -91 2278 -91 
Q 1894 -91 1617 61 
Q 1341 213 1159 525 
L 1159 0 
L 581 0 
L 581 4863 
L 1159 4863 
L 1159 2969 
z
" transform="scale(0.015625)"/>
       <path id="DejaVuSans-69" d="M 603 3500 
L 1178 3500 
L 1178 0 
L 603 0 
L 603 3500 
z
M 603 4863 
L 1178 4863 
L 1178 4134 
L 603 4134 
L 603 4863 
z
" transform="scale(0.015625)"/>
       <path id="DejaVuSans-70" d="M 1159 525 
L 1159 -1331 
L 581 -1331 
L 581 3500 
L 1159 3500 
L 1159 2969 
Q 1341 3281 1617 3432 
Q 1894 3584 2278 3584 
Q 2916 3584 3314 3078 
Q 3713 2572 3713 1747 
Q 3713 922 3314 415 
Q 2916 -91 2278 -91 
Q 1894 -91 1617 61 
Q 1341 213 1159 525 
z
M 3116 1747 
Q 3116 2381 2855 2742 
Q 2594 3103 2138 3103 
Q 1681 3103 1420 2742 
Q 1159 2381 1159 1747 
Q 1159 1113 1420 752 
Q 1681 391 2138 391 
Q 2594 391 2855 752 
Q 3116 1113 3116 1747 
z
" transform="scale(0.015625)"/>
      </defs>
      <use xlink:href="#DejaVuSans-4f"/>
      <use xlink:href="#DejaVuSans-72" transform="translate(78.710938 0)"/>
      <use xlink:href="#DejaVuSans-62" transform="translate(119.824219 0)"/>
      <use xlink:href="#DejaVuSans-69" transform="translate(183.300781 0)"/>
      <use xlink:href="#DejaVuSans-74" transform="translate(211.083984 0)"/>
      <use xlink:href="#DejaVuSans-72" transform="translate(250.292969 0)"/>
      <use xlink:href="#DejaVuSans-61" transform="translate(291.40625 0)"/>
      <use xlink:href="#DejaVuSans-70" transform="translate(352.685547 0)"/>
      <use xlink:href="#DejaVuSans-20" transform="translate(416.162109 0)"/>
      <use xlink:href="#DejaVuSans-41" transform="translate(447.949219 0)"/>
      <use xlink:href="#DejaVuSans-73" transform="translate(516.357422 0)"/>
      <use xlink:href="#DejaVuSans-74" transform="translate(568.457031 0)"/>
      <use xlink:href="#DejaVuSans-72" transform="translate(607.666016 0)"/>
      <use xlink:href="#DejaVuSans-61" transform="translate(648.779297 0)"/>
      <use xlink:href="#DejaVuSans-6c" transform="translate(710.058594 0)"/>
     </g>
    </g>
    <g id="PathCollection_7">
     <defs>
      <path id="m8b5ee0ef58" d="M 0 11.844759 
C 3.141267 11.844759 6.154298 10.596721 8.37551 8.37551 
C 10.596721 6.154298 11.844759 3.141267 11.844759 0 
C 11.844759 -3.141267 10.596721 -6.154298 8.37551 -8.37551 
C 6.154298 -10.596721 3.141267 -11.844759 0 -11.844759 
C -3.141267 -11.844759 -6.154298 -10.596721 -8.37551 -8.37551 
C -10.596721 -6.154298 -11.844759 -3.141267 -11.844759 0 
C -11.844759 3.141267 -10.596721 6.154298 -8.37551 8.37551 
C -6.154298 10.596721 -3.141267 11.844759 0 11.844759 
z
" style="stroke: #222222; stroke-opacity: 0.78; stroke-width: 0.6"/>
     </defs>
     <g>
      <use xlink:href="#m8b5ee0ef58" x="52.84" y="46.431563" style="fill: #fb8c00; fill-opacity: 0.78; stroke: #222222; stroke-opacity: 0.78; stroke-width: 0.6"/>
     </g>
    </g>
    <g id="text_18">
     <!-- TripleTOF 5600 -->
     <g transform="translate(67.24 48.531563) scale(0.08 -0.08)">
      <defs>
       <path id="DejaVuSans-54" d="M -19 4666 
L 3928 4666 
L 3928 4134 
L 2272 4134 
L 2272 0 
L 1638 0 
L 1638 4134 
L -19 4134 
L -19 4666 
z
" transform="scale(0.015625)"/>
       <path id="DejaVuSans-46" d="M 628 4666 
L 3309 4666 
L 3309 4134 
L 1259 4134 
L 1259 2759 
L 3109 2759 
L 3109 2228 
L 1259 2228 
L 1259 0 
L 628 0 
L 628 4666 
z
" transform="scale(0.015625)"/>
       <path id="DejaVuSans-36" d="M 2113 2584 
Q 1688 2584 1439 2293 
Q 1191 2003 1191 1497 
Q 1191 994 1439 701 
Q 1688 409 2113 409 
Q 2538 409 2786 701 
Q 3034 994 3034 1497 
Q 3034 2003 2786 2293 
Q 2538 2584 2113 2584 
z
M 3366 4563 
L 3366 3988 
Q 3128 4100 2886 4159 
Q 2644 4219 2406 4219 
Q 1781 4219 1451 3797 
Q 1122 3375 1075 2522 
Q 1259 2794 1537 2939 
Q 1816 3084 2150 3084 
Q 2853 3084 3261 2657 
Q 3669 2231 3669 1497 
Q 3669 778 3244 343 
Q 2819 -91 2113 -91 
Q 1303 -91 875 529 
Q 447 1150 447 2328 
Q 447 3434 972 4092 
Q 1497 4750 2381 4750 
Q 2619 4750 2861 4703 
Q 3103 4656 3366 4563 
z
" transform="scale(0.015625)"/>
      </defs>
      <use xlink:href="#DejaVuSans-54"/>
      <use xlink:href="#DejaVuSans-72" transform="translate(46.333984 0)"/>
      <use xlink:href="#DejaVuSans-69" transform="translate(87.447266 0)"/>
      <use xlink:href="#DejaVuSans-70" transform="translate(115.230469 0)"/>
      <use xlink:href="#DejaVuSans-6c" transform="translate(178.707031 0)"/>
      <use xlink:href="#DejaVuSans-65" transform="translate(206.490234 0)"/>
      <use xlink:href="#DejaVuSans-54" transform="translate(268.013672 0)"/>
      <use xlink:href="#DejaVuSans-4f" transform="translate(329.097656 0)"/>
      <use xlink:href="#DejaVuSans-46" transform="translate(407.808594 0)"/>
      <use xlink:href="#DejaVuSans-20" transform="translate(465.328125 0)"/>
      <use xlink:href="#DejaVuSans-35" transform="translate(497.115234 0)"/>
      <use xlink:href="#DejaVuSans-36" transform="translate(560.738281 0)"/>
      <use xlink:href="#DejaVuSans-30" transform="translate(624.361328 0)"/>
      <use xlink:href="#DejaVuSans-30" transform="translate(687.984375 0)"/>
     </g>
    </g>
    <g id="PathCollection_8">
     <g>
      <use xlink:href="#m07b3cdd6ac" x="52.84" y="58.174063" style="fill: #e53935; fill-opacity: 0.78; stroke: #222222; stroke-opacity: 0.78; stroke-width: 0.6"/>
     </g>
    </g>
    <g id="text_19">
     <!-- TripleTOF 6600 -->
     <g transform="translate(67.24 60.274063) scale(0.08 -0.08)">
      <use xlink:href="#DejaVuSans-54"/>
      <use xlink:href="#DejaVuSans-72" transform="translate(46.333984 0)"/>
      <use xlink:href="#DejaVuSans-69" transform="translate(87.447266 0)"/>
      <use xlink:href="#DejaVuSans-70" transform="translate(115.230469 0)"/>
      <use xlink:href="#DejaVuSans-6c" transform="translate(178.707031 0)"/>
      <use xlink:href="#DejaVuSans-65" transform="translate(206.490234 0)"/>
      <use xlink:href="#DejaVuSans-54" transform="translate(268.013672 0)"/>
      <use xlink:href="#DejaVuSans-4f" transform="translate(329.097656 0)"/>
      <use xlink:href="#DejaVuSans-46" transform="translate(407.808594 0)"/>
      <use xlink:href="#DejaVuSans-20" transform="translate(465.328125 0)"/>
      <use xlink:href="#DejaVuSans-36" transform="translate(497.115234 0)"/>
      <use xlink:href="#DejaVuSans-36" transform="translate(560.738281 0)"/>
      <use xlink:href="#DejaVuSans-30" transform="translate(624.361328 0)"/>
      <use xlink:href="#DejaVuSans-30" transform="translate(687.984375 0)"/>
     </g>
    </g>
    <g id="PathCollection_9">
     <defs>
      <path id="ma270b0bb02" d="M 0 7.602521 
C 2.016212 7.602521 3.950117 6.801471 5.375794 5.375794 
C 6.801471 3.950117 7.602521 2.016212 7.602521 0 
C 7.602521 -2.016212 6.801471 -3.950117 5.375794 -5.375794 
C 3.950117 -6.801471 2.016212 -7.602521 0 -7.602521 
C -2.016212 -7.602521 -3.950117 -6.801471 -5.375794 -5.375794 
C -6.801471 -3.950117 -7.602521 -2.016212 -7.602521 0 
C -7.602521 2.016212 -6.801471 3.950117 -5.375794 5.375794 
C -3.950117 6.801471 -2.016212 7.602521 0 7.602521 
z
" style="stroke: #222222; stroke-opacity: 0.78; stroke-width: 0.6"/>
     </defs>
     <g>
      <use xlink:href="#ma270b0bb02" x="52.84" y="69.916563" style="fill: #00897b; fill-opacity: 0.78; stroke: #222222; stroke-opacity: 0.78; stroke-width: 0.6"/>
     </g>
    </g>
    <g id="text_20">
     <!-- ZenoTOF 7600 -->
     <g transform="translate(67.24 72.016563) scale(0.08 -0.08)">
      <defs>
       <path id="DejaVuSans-5a" d="M 359 4666 
L 4025 4666 
L 4025 4184 
L 1075 531 
L 4097 531 
L 4097 0 
L 288 0 
L 288 481 
L 3238 4134 
L 359 4134 
L 359 4666 
z
" transform="scale(0.015625)"/>
       <path id="DejaVuSans-37" d="M 525 4666 
L 3525 4666 
L 3525 4397 
L 1831 0 
L 1172 0 
L 2766 4134 
L 525 4134 
L 525 4666 
z
" transform="scale(0.015625)"/>
      </defs>
      <use xlink:href="#DejaVuSans-5a"/>
      <use xlink:href="#DejaVuSans-65" transform="translate(68.505859 0)"/>
      <use xlink:href="#DejaVuSans-6e" transform="translate(130.029297 0)"/>
      <use xlink:href="#DejaVuSans-6f" transform="translate(193.408203 0)"/>
      <use xlink:href="#DejaVuSans-54" transform="translate(254.589844 0)"/>
      <use xlink:href="#DejaVuSans-4f" transform="translate(315.673828 0)"/>
      <use xlink:href="#DejaVuSans-46" transform="translate(394.384766 0)"/>
      <use xlink:href="#DejaVuSans-20" transform="translate(451.904297 0)"/>
      <use xlink:href="#DejaVuSans-37" transform="translate(483.691406 0)"/>
      <use xlink:href="#DejaVuSans-36" transform="translate(547.314453 0)"/>
      <use xlink:href="#DejaVuSans-30" transform="translate(610.9375 0)"/>
      <use xlink:href="#DejaVuSans-30" transform="translate(674.560547 0)"/>
     </g>
    </g>
    <g id="PathCollection_10">
     <defs>
      <path id="m69b886003d" d="M 0 7.602521 
C 2.016212 7.602521 3.950117 6.801471 5.375794 5.375794 
C 6.801471 3.950117 7.602521 2.016212 7.602521 0 
C 7.602521 -2.016212 6.801471 -3.950117 5.375794 -5.375794 
C 3.950117 -6.801471 2.016212 -7.602521 0 -7.602521 
C -2.016212 -7.602521 -3.950117 -6.801471 -5.375794 -5.375794 
C -6.801471 -3.950117 -7.602521 -2.016212 -7.602521 0 
C -7.602521 2.016212 -6.801471 3.950117 -5.375794 5.375794 
C -3.950117 6.801471 -2.016212 7.602521 0 7.602521 
z
" style="stroke: #222222; stroke-opacity: 0.78; stroke-width: 0.6"/>
     </defs>
     <g>
      <use xlink:href="#m69b886003d" x="52.84" y="81.659063" style="fill: #8e24aa; fill-opacity: 0.78; stroke: #222222; stroke-opacity: 0.78; stroke-width: 0.6"/>
     </g>
    </g>
    <g id="text_21">
     <!-- timsTOF SCP -->
     <g transform="translate(67.24 83.759063) scale(0.08 -0.08)">
      <defs>
       <path id="DejaVuSans-53" d="M 3425 4513 
L 3425 3897 
Q 3066 4069 2747 4153 
Q 2428 4238 2131 4238 
Q 1616 4238 1336 4038 
Q 1056 3838 1056 3469 
Q 1056 3159 1242 3001 
Q 1428 2844 1947 2747 
L 2328 2669 
Q 3034 2534 3370 2195 
Q 3706 1856 3706 1288 
Q 3706 609 3251 259 
Q 2797 -91 1919 -91 
Q 1588 -91 1214 -16 
Q 841 59 441 206 
L 441 856 
Q 825 641 1194 531 
Q 1563 422 1919 422 
Q 2459 422 2753 634 
Q 3047 847 3047 1241 
Q 3047 1584 2836 1778 
Q 2625 1972 2144 2069 
L 1759 2144 
Q 1053 2284 737 2584 
Q 422 2884 422 3419 
Q 422 4038 858 4394 
Q 1294 4750 2059 4750 
Q 2388 4750 2728 4690 
Q 3069 4631 3425 4513 
z
" transform="scale(0.015625)"/>
       <path id="DejaVuSans-43" d="M 4122 4306 
L 4122 3641 
Q 3803 3938 3442 4084 
Q 3081 4231 2675 4231 
Q 1875 4231 1450 3742 
Q 1025 3253 1025 2328 
Q 1025 1406 1450 917 
Q 1875 428 2675 428 
Q 3081 428 3442 575 
Q 3803 722 4122 1019 
L 4122 359 
Q 3791 134 3420 21 
Q 3050 -91 2638 -91 
Q 1578 -91 968 557 
Q 359 1206 359 2328 
Q 359 3453 968 4101 
Q 1578 4750 2638 4750 
Q 3056 4750 3426 4639 
Q 3797 4528 4122 4306 
z
" transform="scale(0.015625)"/>
       <path id="DejaVuSans-50" d="M 1259 4147 
L 1259 2394 
L 2053 2394 
Q 2494 2394 2734 2622 
Q 2975 2850 2975 3272 
Q 2975 3691 2734 3919 
Q 2494 4147 2053 4147 
L 1259 4147 
z
M 628 4666 
L 2053 4666 
Q 2838 4666 3239 4311 
Q 3641 3956 3641 3272 
Q 3641 2581 3239 2228 
Q 2838 1875 2053 1875 
L 1259 1875 
L 1259 0 
L 628 0 
L 628 4666 
z
" transform="scale(0.015625)"/>
      </defs>
      <use xlink:href="#DejaVuSans-74"/>
      <use xlink:href="#DejaVuSans-69" transform="translate(39.208984 0)"/>
      <use xlink:href="#DejaVuSans-6d" transform="translate(66.992188 0)"/>
      <use xlink:href="#DejaVuSans-73" transform="translate(164.404297 0)"/>
      <use xlink:href="#DejaVuSans-54" transform="translate(216.503906 0)"/>
      <use xlink:href="#DejaVuSans-4f" transform="translate(277.587891 0)"/>
      <use xlink:href="#DejaVuSans-46" transform="translate(356.298828 0)"/>
      <use xlink:href="#DejaVuSans-20" transform="translate(413.818359 0)"/>
      <use xlink:href="#DejaVuSans-53" transform="translate(445.605469 0)"/>
      <use xlink:href="#DejaVuSans-43" transform="translate(509.082031 0)"/>
      <use xlink:href="#DejaVuSans-50" transform="translate(578.90625 0)"/>
     </g>
    </g>
   </g>
   <g id="legend_2">
    <g id="text_22">
     <!-- Dataset size -->
     <g transform="translate(442.925547 235.518281) scale(0.09 -0.09)">
      <defs>
       <path id="DejaVuSans-7a" d="M 353 3500 
L 3084 3500 
L 3084 2975 
L 922 459 
L 3084 459 
L 3084 0 
L 275 0 
L 275 525 
L 2438 3041 
L 353 3041 
L 353 3500 
z
" transform="scale(0.015625)"/>
      </defs>
      <use xlink:href="#DejaVuSans-44"/>
      <use xlink:href="#DejaVuSans-61" transform="translate(77.001953 0)"/>
      <use xlink:href="#DejaVuSans-74" transform="translate(138.28125 0)"/>
      <use xlink:href="#DejaVuSans-61" transform="translate(177.490234 0)"/>
      <use xlink:href="#DejaVuSans-73" transform="translate(238.769531 0)"/>
      <use xlink:href="#DejaVuSans-65" transform="translate(290.869141 0)"/>
      <use xlink:href="#DejaVuSans-74" transform="translate(352.392578 0)"/>
      <use xlink:href="#DejaVuSans-20" transform="translate(391.601562 0)"/>
      <use xlink:href="#DejaVuSans-73" transform="translate(423.388672 0)"/>
      <use xlink:href="#DejaVuSans-69" transform="translate(475.488281 0)"/>
      <use xlink:href="#DejaVuSans-7a" transform="translate(503.271484 0)"/>
      <use xlink:href="#DejaVuSans-65" transform="translate(555.761719 0)"/>
     </g>
    </g>
    <g id="line2d_14">
     <path d="M 429.92 250.26875 
L 437.92 250.26875 
L 445.92 250.26875 
" style="fill: none; stroke: #ffffff; stroke-width: 1.5; stroke-linecap: square"/>
     <defs>
      <path id="mf961610cfd" d="M 0 7.602521 
C 2.016212 7.602521 3.950117 6.801471 5.375794 5.375794 
C 6.801471 3.950117 7.602521 2.016212 7.602521 0 
C 7.602521 -2.016212 6.801471 -3.950117 5.375794 -5.375794 
C 3.950117 -6.801471 2.016212 -7.602521 0 -7.602521 
C -2.016212 -7.602521 -3.950117 -6.801471 -5.375794 -5.375794 
C -6.801471 -3.950117 -7.602521 -2.016212 -7.602521 0 
C -7.602521 2.016212 -6.801471 3.950117 -5.375794 5.375794 
C -3.950117 6.801471 -2.016212 7.602521 0 7.602521 
z
" style="stroke: #222222; stroke-width: 0.6"/>
     </defs>
     <g>
      <use xlink:href="#mf961610cfd" x="437.92" y="250.26875" style="fill: #bdbdbd; stroke: #222222; stroke-width: 0.6"/>
     </g>
    </g>
    <g id="text_23">
     <!-- 6 MS runs -->
     <g transform="translate(453.92 253.06875) scale(0.08 -0.08)">
      <defs>
       <path id="DejaVuSans-4d" d="M 628 4666 
L 1569 4666 
L 2759 1491 
L 3956 4666 
L 4897 4666 
L 4897 0 
L 4281 0 
L 4281 4097 
L 3078 897 
L 2444 897 
L 1241 4097 
L 1241 0 
L 628 0 
L 628 4666 
z
" transform="scale(0.015625)"/>
      </defs>
      <use xlink:href="#DejaVuSans-36"/>
      <use xlink:href="#DejaVuSans-20" transform="translate(63.623047 0)"/>
      <use xlink:href="#DejaVuSans-4d" transform="translate(95.410156 0)"/>
      <use xlink:href="#DejaVuSans-53" transform="translate(181.689453 0)"/>
      <use xlink:href="#DejaVuSans-20" transform="translate(245.166016 0)"/>
      <use xlink:href="#DejaVuSans-72" transform="translate(276.953125 0)"/>
      <use xlink:href="#DejaVuSans-75" transform="translate(318.066406 0)"/>
      <use xlink:href="#DejaVuSans-6e" transform="translate(381.445312 0)"/>
      <use xlink:href="#DejaVuSans-73" transform="translate(444.824219 0)"/>
     </g>
    </g>
    <g id="line2d_15">
     <path d="M 429.92 267.61125 
L 437.92 267.61125 
L 445.92 267.61125 
" style="fill: none; stroke: #ffffff; stroke-width: 1.5; stroke-linecap: square"/>
     <defs>
      <path id="m990a3bbfcf" d="M 0 11.373433 
C 3.01627 11.373433 5.909407 10.175056 8.042231 8.042231 
C 10.175056 5.909407 11.373433 3.01627 11.373433 0 
C 11.373433 -3.01627 10.175056 -5.909407 8.042231 -8.042231 
C 5.909407 -10.175056 3.01627 -11.373433 0 -11.373433 
C -3.01627 -11.373433 -5.909407 -10.175056 -8.042231 -8.042231 
C -10.175056 -5.909407 -11.373433 -3.01627 -11.373433 0 
C -11.373433 3.01627 -10.175056 5.909407 -8.042231 8.042231 
C -5.909407 10.175056 -3.01627 11.373433 0 11.373433 
z
" style="stroke: #222222; stroke-width: 0.6"/>
     </defs>
     <g>
      <use xlink:href="#m990a3bbfcf" x="437.92" y="267.61125" style="fill: #bdbdbd; stroke: #222222; stroke-width: 0.6"/>
     </g>
    </g>
    <g id="text_24">
     <!-- 120 MS runs -->
     <g transform="translate(453.92 270.41125) scale(0.08 -0.08)">
      <use xlink:href="#DejaVuSans-31"/>
      <use xlink:href="#DejaVuSans-32" transform="translate(63.623047 0)"/>
      <use xlink:href="#DejaVuSans-30" transform="translate(127.246094 0)"/>
      <use xlink:href="#DejaVuSans-20" transform="translate(190.869141 0)"/>
      <use xlink:href="#DejaVuSans-4d" transform="translate(222.65625 0)"/>
      <use xlink:href="#DejaVuSans-53" transform="translate(308.935547 0)"/>
      <use xlink:href="#DejaVuSans-20" transform="translate(372.412109 0)"/>
      <use xlink:href="#DejaVuSans-72" transform="translate(404.199219 0)"/>
      <use xlink:href="#DejaVuSans-75" transform="translate(445.3125 0)"/>
      <use xlink:href="#DejaVuSans-6e" transform="translate(508.691406 0)"/>
      <use xlink:href="#DejaVuSans-73" transform="translate(572.070312 0)"/>
     </g>
    </g>
    <g id="line2d_16">
     <path d="M 429.92 284.95375 
L 437.92 284.95375 
L 445.92 284.95375 
" style="fill: none; stroke: #ffffff; stroke-width: 1.5; stroke-linecap: square"/>
     <defs>
      <path id="me3f14f2fd7" d="M 0 12.298035 
C 3.261477 12.298035 6.389812 11.002237 8.696024 8.696024 
C 11.002237 6.389812 12.298035 3.261477 12.298035 0 
C 12.298035 -3.261477 11.002237 -6.389812 8.696024 -8.696024 
C 6.389812 -11.002237 3.261477 -12.298035 0 -12.298035 
C -3.261477 -12.298035 -6.389812 -11.002237 -8.696024 -8.696024 
C -11.002237 -6.389812 -12.298035 -3.261477 -12.298035 0 
C -12.298035 3.261477 -11.002237 6.389812 -8.696024 8.696024 
C -6.389812 11.002237 -3.261477 12.298035 0 12.298035 
z
" style="stroke: #222222; stroke-width: 0.6"/>
     </defs>
     <g>
      <use xlink:href="#me3f14f2fd7" x="437.92" y="284.95375" style="fill: #bdbdbd; stroke: #222222; stroke-width: 0.6"/>
     </g>
    </g>
    <g id="text_25">
     <!-- 300 MS runs -->
     <g transform="translate(453.92 287.75375) scale(0.08 -0.08)">
      <use xlink:href="#DejaVuSans-33"/>
      <use xlink:href="#DejaVuSans-30" transform="translate(63.623047 0)"/>
      <use xlink:href="#DejaVuSans-30" transform="translate(127.246094 0)"/>
      <use xlink:href="#DejaVuSans-20" transform="translate(190.869141 0)"/>
      <use xlink:href="#DejaVuSans-4d" transform="translate(222.65625 0)"/>
      <use xlink:href="#DejaVuSans-53" transform="translate(308.935547 0)"/>
      <use xlink:href="#DejaVuSans-20" transform="translate(372.412109 0)"/>
      <use xlink:href="#DejaVuSans-72" transform="translate(404.199219 0)"/>
      <use xlink:href="#DejaVuSans-75" transform="translate(445.3125 0)"/>
      <use xlink:href="#DejaVuSans-6e" transform="translate(508.691406 0)"/>
      <use xlink:href="#DejaVuSans-73" transform="translate(572.070312 0)"/>
     </g>
    </g>
    <g id="line2d_17">
     <path d="M 429.92 302.29625 
L 437.92 302.29625 
L 445.92 302.29625 
" style="fill: none; stroke: #ffffff; stroke-width: 1.5; stroke-linecap: square"/>
     <defs>
      <path id="m7ff1d6ab42" d="M 0 14.89928 
C 3.951335 14.89928 7.741366 13.329398 10.535382 10.535382 
C 13.329398 7.741366 14.89928 3.951335 14.89928 0 
C 14.89928 -3.951335 13.329398 -7.741366 10.535382 -10.535382 
C 7.741366 -13.329398 3.951335 -14.89928 0 -14.89928 
C -3.951335 -14.89928 -7.741366 -13.329398 -10.535382 -10.535382 
C -13.329398 -7.741366 -14.89928 -3.951335 -14.89928 0 
C -14.89928 3.951335 -13.329398 7.741366 -10.535382 10.535382 
C -7.741366 13.329398 -3.951335 14.89928 0 14.89928 
z
" style="stroke: #222222; stroke-width: 0.6"/>
     </defs>
     <g>
      <use xlink:href="#m7ff1d6ab42" x="437.92" y="302.29625" style="fill: #bdbdbd; stroke: #222222; stroke-width: 0.6"/>
     </g>
    </g>
    <g id="text_26">
     <!-- 5,800 MS runs -->
     <g transform="translate(453.92 305.09625) scale(0.08 -0.08)">
      <defs>
       <path id="DejaVuSans-2c" d="M 750 794 
L 1409 794 
L 1409 256 
L 897 -744 
L 494 -744 
L 750 256 
L 750 794 
z
" transform="scale(0.015625)"/>
       <path id="DejaVuSans-38" d="M 2034 2216 
Q 1584 2216 1326 1975 
Q 1069 1734 1069 1313 
Q 1069 891 1326 650 
Q 1584 409 2034 409 
Q 2484 409 2743 651 
Q 3003 894 3003 1313 
Q 3003 1734 2745 1975 
Q 2488 2216 2034 2216 
z
M 1403 2484 
Q 997 2584 770 2862 
Q 544 3141 544 3541 
Q 544 4100 942 4425 
Q 1341 4750 2034 4750 
Q 2731 4750 3128 4425 
Q 3525 4100 3525 3541 
Q 3525 3141 3298 2862 
Q 3072 2584 2669 2484 
Q 3125 2378 3379 2068 
Q 3634 1759 3634 1313 
Q 3634 634 3220 271 
Q 2806 -91 2034 -91 
Q 1263 -91 848 271 
Q 434 634 434 1313 
Q 434 1759 690 2068 
Q 947 2378 1403 2484 
z
M 1172 3481 
Q 1172 3119 1398 2916 
Q 1625 2713 2034 2713 
Q 2441 2713 2670 2916 
Q 2900 3119 2900 3481 
Q 2900 3844 2670 4047 
Q 2441 4250 2034 4250 
Q 1625 4250 1398 4047 
Q 1172 3844 1172 3481 
z
" transform="scale(0.015625)"/>
      </defs>
      <use xlink:href="#DejaVuSans-35"/>
      <use xlink:href="#DejaVuSans-2c" transform="translate(63.623047 0)"/>
      <use xlink:href="#DejaVuSans-38" transform="translate(95.410156 0)"/>
      <use xlink:href="#DejaVuSans-30" transform="translate(159.033203 0)"/>
      <use xlink:href="#DejaVuSans-30" transform="translate(222.65625 0)"/>
      <use xlink:href="#DejaVuSans-20" transform="translate(286.279297 0)"/>
      <use xlink:href="#DejaVuSans-4d" transform="translate(318.066406 0)"/>
      <use xlink:href="#DejaVuSans-53" transform="translate(404.345703 0)"/>
      <use xlink:href="#DejaVuSans-20" transform="translate(467.822266 0)"/>
      <use xlink:href="#DejaVuSans-72" transform="translate(499.609375 0)"/>
      <use xlink:href="#DejaVuSans-75" transform="translate(540.722656 0)"/>
      <use xlink:href="#DejaVuSans-6e" transform="translate(604.101562 0)"/>
      <use xlink:href="#DejaVuSans-73" transform="translate(667.480469 0)"/>
     </g>
    </g>
   </g>
  </g>
 </g>
 <defs>
  <clipPath id="pfd786bfd41">
   <rect x="37.64" y="10.8" width="485.845" height="307.96"/>
  </clipPath>
 </defs>
</svg>
