<?xml version="1.0" encoding="utf-8" standalone="no"?>
<!DOCTYPE svg PUBLIC "-//W3C//DTD SVG 1.1//EN"
  "http://www.w3.org/Graphics/SVG/1.1/DTD/svg11.dtd">
<svg xmlns:xlink="http://www.w3.org/1999/xlink" width="383.573751pt" height="384.886425pt" viewBox="0 0 383.573751 384.886425" xmlns="http://www.w3.org/2000/svg" version="1.1">
 <metadata>
  <rdf:RDF xmlns:dc="http://purl.org/dc/elements/1.1/" xmlns:cc="http://creativecommons.org/ns#" xmlns:rdf="http://www.w3.org/1999/02/22-rdf-syntax-ns#">
   <cc:Work>
    <dc:type rdf:resource="http://purl.org/dc/dcmitype/StillImage"/>
    <dc:date>2026-06-12T12:17:21.177931</dc:date>
    <dc:format>image/svg+xml</dc:format>
    <dc:creator>
     <cc:Agent>
      <dc:title>Matplotlib v3.10.6, https://matplotlib.org/</dc:title>
     </cc:Agent>
    </dc:creator>
   </cc:Work>
  </rdf:RDF>
 </metadata>
 <defs>
  <style type="text/css">*{stroke-linejoin: round; stroke-linecap: butt}</style>
 </defs>
 <g id="figure_1">
  <g id="patch_1">
   <path d="M 0 384.886425 
L 383.573751 384.886425 
L 383.573751 0 
L 0 0 
z
" style="fill: #ffffff"/>
  </g>
  <g id="axes_1">
   <g id="patch_2">
    <path d="M 60.318569 261.718484 
C 48.053326 239.178493 41.62642 213.921485 41.62642 188.260475 
C 41.62642 162.599466 48.053326 137.342458 60.318569 114.802467 
C 43.655676 135.654629 34.573619 161.568441 34.573619 188.260475 
C 34.573619 214.95251 43.655676 240.866321 60.318569 261.718484 
" clip-path="url(#pcc3755ee80)" style="fill: #9e9e9e; opacity: 0.55"/>
   </g>
   <g id="patch_3">
    <path d="M 60.318569 114.802467 
C 67.885609 105.332975 76.870617 97.089332 86.955134 90.36372 
C 97.039652 83.638108 108.103111 78.510937 119.753386 75.163931 
C 131.40366 71.816924 143.501463 70.290099 155.618006 70.637571 
C 167.734549 70.985042 179.72497 73.202657 191.164289 77.211814 
C 202.603608 81.22097 213.355058 86.973738 223.037572 94.266218 
C 232.720087 101.558698 241.217904 110.303704 248.229831 120.191283 
C 255.241759 130.078863 260.683964 140.990802 264.363558 152.540345 
C 268.043152 164.089888 269.916141 176.138951 269.916141 188.260475 
C 269.916141 200.382 268.043152 212.431063 264.363558 223.980606 
C 260.683964 235.530149 255.241759 246.442088 248.229831 256.329667 
C 241.217904 266.217246 232.720087 274.962252 223.037572 282.254733 
C 213.355058 289.547213 202.603608 295.29998 191.164289 299.309137 
C 179.72497 303.318294 167.734549 305.535908 155.618006 305.88338 
C 143.501463 306.230851 131.40366 304.704026 119.753386 301.35702 
C 108.103111 298.010014 97.039652 292.882843 86.955134 286.157231 
C 76.870617 279.431619 67.885609 271.187975 60.318569 261.718484 
C 68.427248 276.619904 78.947599 290.076398 91.45211 301.541135 
C 103.956621 313.005873 118.273585 322.321427 133.821207 329.109242 
C 149.368829 335.897058 165.933617 340.063928 182.842431 341.440525 
C 199.751244 342.817122 216.7719 341.384543 233.212733 337.201003 
C 249.653566 333.017463 265.288819 326.140409 279.483125 316.849301 
C 293.677431 307.558194 306.23588 295.980615 316.648139 282.587039 
C 327.060398 269.193463 335.183489 254.167806 340.687316 238.12066 
C 346.191144 222.073514 349.000131 205.225233 349.000131 188.260475 
C 349.000131 171.295718 346.191144 154.447436 340.687316 138.400291 
C 335.183489 122.353145 327.060398 107.327487 316.648139 93.933912 
C 306.23588 80.540336 293.677431 68.962757 279.483125 59.671649 
C 265.288819 50.380542 249.653566 43.503488 233.212733 39.319948 
C 216.7719 35.136408 199.751244 33.703828 182.842431 35.080425 
C 165.933617 36.457022 149.368829 40.623893 133.821207 47.411708 
C 118.273585 54.199524 103.956621 63.515077 91.45211 74.979815 
C 78.947599 86.444553 68.427248 99.901046 60.318569 114.802467 
" clip-path="url(#pcc3755ee80)" style="fill: #1f77b4; opacity: 0.55"/>
   </g>
   <g id="patch_4">
    <path d="M 60.318569 261.718484 
C 67.885609 271.187975 76.870617 279.431619 86.955134 286.157231 
C 97.039652 292.882843 108.103111 298.010014 119.753386 301.35702 
C 131.40366 304.704026 143.501463 306.230851 155.618006 305.88338 
C 167.734549 305.535908 179.72497 303.318294 191.164289 299.309137 
C 202.603608 295.29998 213.355058 289.547213 223.037572 282.254733 
C 232.720087 274.962252 241.217904 266.217246 248.229831 256.329667 
C 255.241759 246.442088 260.683964 235.530149 264.363558 223.980606 
C 268.043152 212.431063 269.916141 200.382 269.916141 188.260475 
C 269.916141 176.138951 268.043152 164.089888 264.363558 152.540345 
C 260.683964 140.990802 255.241759 130.078863 248.229831 120.191283 
C 241.217904 110.303704 232.720087 101.558698 223.037572 94.266218 
C 213.355058 86.973738 202.603608 81.22097 191.164289 77.211814 
C 179.72497 73.202657 167.734549 70.985042 155.618006 70.637571 
C 143.501463 70.290099 131.40366 71.816924 119.753386 75.163931 
C 108.103111 78.510937 97.039652 83.638108 86.955134 90.36372 
C 76.870617 97.089332 67.885609 105.332975 60.318569 114.802467 
C 48.053326 137.342458 41.62642 162.599466 41.62642 188.260475 
C 41.62642 213.921485 48.053326 239.178493 60.318569 261.718484 
" clip-path="url(#pcc3755ee80)" style="fill: #84c2ed; opacity: 0.55"/>
   </g>
   <g id="text_1">
    <text style="font-size: 10px; font-family: 'Helvetica', 'Arial', 'DejaVu Sans', sans-serif" transform="translate(32.539082 185.414694)">61</text>
    <text style="font-size: 10px; font-family: 'Helvetica', 'Arial', 'DejaVu Sans', sans-serif" transform="translate(23.374238 196.195319)">(1.0%)</text>
   </g>
   <g id="text_2">
    <text style="font-size: 10px; font-family: 'Helvetica', 'Arial', 'DejaVu Sans', sans-serif" transform="translate(296.947199 185.414694)">2,633</text>
    <text style="font-size: 10px; font-family: 'Helvetica', 'Arial', 'DejaVu Sans', sans-serif" transform="translate(291.951886 196.195319)">(41.9%)</text>
   </g>
   <g id="text_3">
    <text style="font-size: 10px; font-family: 'Helvetica', 'Arial', 'DejaVu Sans', sans-serif" transform="translate(143.260343 185.414694)">3,583</text>
    <text style="font-size: 10px; font-family: 'Helvetica', 'Arial', 'DejaVu Sans', sans-serif" transform="translate(138.26503 196.195319)">(57.1%)</text>
   </g>
   <g id="text_4">
    <text style="font-size: 11px; font-family: 'Helvetica', 'Arial', 'DejaVu Sans', sans-serif" transform="translate(26.922224 327.605267)">Guo 2019 (OpenSWATH)</text>
    <text style="font-size: 11px; font-family: 'Helvetica', 'Arial', 'DejaVu Sans', sans-serif" transform="translate(104.853787 339.463955)">(n=3,644)</text>
   </g>
   <g id="text_5">
    <text style="font-size: 11px; font-family: 'Helvetica', 'Arial', 'DejaVu Sans', sans-serif" transform="translate(195.313276 363.534925)">quantmsdiann (DIA-NN)</text>
    <text style="font-size: 11px; font-family: 'Helvetica', 'Arial', 'DejaVu Sans', sans-serif" transform="translate(195.313276 375.393612)">(n=6,216)</text>
   </g>
  </g>
 </g>
 <defs>
  <clipPath id="pcc3755ee80">
   <rect x="7.2" y="7.2" width="369.173751" height="362.120951"/>
  </clipPath>
 </defs>
</svg>
