<?xml version="1.0" encoding="utf-8" standalone="no"?>
<!DOCTYPE svg PUBLIC "-//W3C//DTD SVG 1.1//EN"
  "http://www.w3.org/Graphics/SVG/1.1/DTD/svg11.dtd">
<svg xmlns:xlink="http://www.w3.org/1999/xlink" width="728.640938pt" height="295.644687pt" viewBox="0 0 728.640938 295.644687" xmlns="http://www.w3.org/2000/svg" version="1.1">
 <metadata>
  <rdf:RDF xmlns:dc="http://purl.org/dc/elements/1.1/" xmlns:cc="http://creativecommons.org/ns#" xmlns:rdf="http://www.w3.org/1999/02/22-rdf-syntax-ns#">
   <cc:Work>
    <dc:type rdf:resource="http://purl.org/dc/dcmitype/StillImage"/>
    <dc:date>2026-06-27T15:12:30.624003</dc:date>
    <dc:format>image/svg+xml</dc:format>
    <dc:creator>
     <cc:Agent>
      <dc:title>Matplotlib v3.10.6, https://matplotlib.org/</dc:title>
     </cc:Agent>
    </dc:creator>
   </cc:Work>
  </rdf:RDF>
 </metadata>
 <defs>
  <style type="text/css">*{stroke-linejoin: round; stroke-linecap: butt}</style>
 </defs>
 <g id="figure_1">
  <g id="patch_1">
   <path d="M 0 295.644687 
L 728.640938 295.644687 
L 728.640938 0 
L 0 0 
z
" style="fill: #ffffff"/>
  </g>
  <g id="axes_1">
   <g id="patch_2">
    <path d="M 67.970938 233.9125 
L 707.040938 233.9125 
L 707.040938 21.6 
L 67.970938 21.6 
z
" style="fill: #ffffff"/>
   </g>
   <g id="matplotlib.axis_1">
    <g id="xtick_1">
     <g id="line2d_1">
      <defs>
       <path id="m7941598dfe" d="M 0 0 
L 0 3.5 
" style="stroke: #000000; stroke-width: 0.8"/>
      </defs>
      <g>
       <use xlink:href="#m7941598dfe" x="97.019574" y="233.9125" style="stroke: #000000; stroke-width: 0.8"/>
      </g>
     </g>
     <g id="text_1">
      <!-- 0 -->
      <g transform="translate(93.126918 250.955312) scale(0.14 -0.14)">
       <defs>
        <path id="Helvetica-30" d="M 1731 4475 
Q 2600 4475 2988 3759 
Q 3288 3206 3288 2244 
Q 3288 1331 3016 734 
Q 2622 -122 1728 -122 
Q 922 -122 528 578 
Q 200 1163 200 2147 
Q 200 2909 397 3456 
Q 766 4475 1731 4475 
z
M 1725 391 
Q 2163 391 2422 778 
Q 2681 1166 2681 2222 
Q 2681 2984 2493 3476 
Q 2306 3969 1766 3969 
Q 1269 3969 1039 3501 
Q 809 3034 809 2125 
Q 809 1441 956 1025 
Q 1181 391 1725 391 
z
" transform="scale(0.015625)"/>
       </defs>
       <use xlink:href="#Helvetica-30"/>
      </g>
     </g>
    </g>
    <g id="xtick_2">
     <g id="line2d_2">
      <g>
       <use xlink:href="#m7941598dfe" x="195.489528" y="233.9125" style="stroke: #000000; stroke-width: 0.8"/>
      </g>
     </g>
     <g id="text_2">
      <!-- 20 -->
      <g transform="translate(187.704215 250.955312) scale(0.14 -0.14)">
       <defs>
        <path id="Helvetica-32" d="M 200 0 
Q 231 578 439 1006 
Q 647 1434 1250 1784 
L 1850 2131 
Q 2253 2366 2416 2531 
Q 2672 2791 2672 3125 
Q 2672 3516 2437 3745 
Q 2203 3975 1813 3975 
Q 1234 3975 1013 3538 
Q 894 3303 881 2888 
L 309 2888 
Q 319 3472 525 3841 
Q 891 4491 1816 4491 
Q 2584 4491 2939 4075 
Q 3294 3659 3294 3150 
Q 3294 2613 2916 2231 
Q 2697 2009 2131 1694 
L 1703 1456 
Q 1397 1288 1222 1134 
Q 909 863 828 531 
L 3272 531 
L 3272 0 
L 200 0 
z
" transform="scale(0.015625)"/>
       </defs>
       <use xlink:href="#Helvetica-32"/>
       <use xlink:href="#Helvetica-30" transform="translate(55.615234 0)"/>
      </g>
     </g>
    </g>
    <g id="xtick_3">
     <g id="line2d_3">
      <g>
       <use xlink:href="#m7941598dfe" x="293.959481" y="233.9125" style="stroke: #000000; stroke-width: 0.8"/>
      </g>
     </g>
     <g id="text_3">
      <!-- 40 -->
      <g transform="translate(286.174169 250.955312) scale(0.14 -0.14)">
       <defs>
        <path id="Helvetica-34" d="M 2116 1584 
L 2116 3613 
L 681 1584 
L 2116 1584 
z
M 2125 0 
L 2125 1094 
L 163 1094 
L 163 1644 
L 2213 4488 
L 2688 4488 
L 2688 1584 
L 3347 1584 
L 3347 1094 
L 2688 1094 
L 2688 0 
L 2125 0 
z
" transform="scale(0.015625)"/>
       </defs>
       <use xlink:href="#Helvetica-34"/>
       <use xlink:href="#Helvetica-30" transform="translate(55.615234 0)"/>
      </g>
     </g>
    </g>
    <g id="xtick_4">
     <g id="line2d_4">
      <g>
       <use xlink:href="#m7941598dfe" x="392.429435" y="233.9125" style="stroke: #000000; stroke-width: 0.8"/>
      </g>
     </g>
     <g id="text_4">
      <!-- 60 -->
      <g transform="translate(384.644123 250.955312) scale(0.14 -0.14)">
       <defs>
        <path id="Helvetica-36" d="M 1872 4494 
Q 2622 4494 2917 4105 
Q 3213 3716 3213 3303 
L 2656 3303 
Q 2606 3569 2497 3719 
Q 2294 4000 1881 4000 
Q 1409 4000 1131 3564 
Q 853 3128 822 2316 
Q 1016 2600 1309 2741 
Q 1578 2866 1909 2866 
Q 2472 2866 2890 2506 
Q 3309 2147 3309 1434 
Q 3309 825 2912 354 
Q 2516 -116 1781 -116 
Q 1153 -116 697 361 
Q 241 838 241 1966 
Q 241 2800 444 3381 
Q 834 4494 1872 4494 
z
M 1831 384 
Q 2275 384 2495 682 
Q 2716 981 2716 1388 
Q 2716 1731 2519 2042 
Q 2322 2353 1803 2353 
Q 1441 2353 1167 2112 
Q 894 1872 894 1388 
Q 894 963 1142 673 
Q 1391 384 1831 384 
z
" transform="scale(0.015625)"/>
       </defs>
       <use xlink:href="#Helvetica-36"/>
       <use xlink:href="#Helvetica-30" transform="translate(55.615234 0)"/>
      </g>
     </g>
    </g>
    <g id="xtick_5">
     <g id="line2d_5">
      <g>
       <use xlink:href="#m7941598dfe" x="490.899389" y="233.9125" style="stroke: #000000; stroke-width: 0.8"/>
      </g>
     </g>
     <g id="text_5">
      <!-- 80 -->
      <g transform="translate(483.114076 250.955312) scale(0.14 -0.14)">
       <defs>
        <path id="Helvetica-38" d="M 1741 2600 
Q 2113 2600 2322 2808 
Q 2531 3016 2531 3303 
Q 2531 3553 2331 3762 
Q 2131 3972 1722 3972 
Q 1316 3972 1134 3762 
Q 953 3553 953 3272 
Q 953 2956 1187 2778 
Q 1422 2600 1741 2600 
z
M 1775 384 
Q 2166 384 2423 595 
Q 2681 806 2681 1225 
Q 2681 1659 2415 1884 
Q 2150 2109 1734 2109 
Q 1331 2109 1076 1879 
Q 822 1650 822 1244 
Q 822 894 1055 639 
Q 1288 384 1775 384 
z
M 975 2384 
Q 741 2484 609 2619 
Q 363 2869 363 3269 
Q 363 3769 725 4128 
Q 1088 4488 1753 4488 
Q 2397 4488 2762 4148 
Q 3128 3809 3128 3356 
Q 3128 2938 2916 2678 
Q 2797 2531 2547 2391 
Q 2825 2263 2984 2097 
Q 3281 1784 3281 1284 
Q 3281 694 2884 283 
Q 2488 -128 1763 -128 
Q 1109 -128 657 226 
Q 206 581 206 1256 
Q 206 1653 400 1942 
Q 594 2231 975 2384 
z
" transform="scale(0.015625)"/>
       </defs>
       <use xlink:href="#Helvetica-38"/>
       <use xlink:href="#Helvetica-30" transform="translate(55.615234 0)"/>
      </g>
     </g>
    </g>
    <g id="xtick_6">
     <g id="line2d_6">
      <g>
       <use xlink:href="#m7941598dfe" x="589.369343" y="233.9125" style="stroke: #000000; stroke-width: 0.8"/>
      </g>
     </g>
     <g id="text_6">
      <!-- 100 -->
      <g transform="translate(577.691374 250.955312) scale(0.14 -0.14)">
       <defs>
        <path id="Helvetica-31" d="M 613 3169 
L 613 3600 
Q 1222 3659 1462 3798 
Q 1703 3938 1822 4456 
L 2266 4456 
L 2266 0 
L 1666 0 
L 1666 3169 
L 613 3169 
z
" transform="scale(0.015625)"/>
       </defs>
       <use xlink:href="#Helvetica-31"/>
       <use xlink:href="#Helvetica-30" transform="translate(55.615234 0)"/>
       <use xlink:href="#Helvetica-30" transform="translate(111.230469 0)"/>
      </g>
     </g>
    </g>
    <g id="xtick_7">
     <g id="line2d_7">
      <g>
       <use xlink:href="#m7941598dfe" x="687.839297" y="233.9125" style="stroke: #000000; stroke-width: 0.8"/>
      </g>
     </g>
     <g id="text_7">
      <!-- 120 -->
      <g transform="translate(676.161328 250.955312) scale(0.14 -0.14)">
       <use xlink:href="#Helvetica-31"/>
       <use xlink:href="#Helvetica-32" transform="translate(55.615234 0)"/>
       <use xlink:href="#Helvetica-30" transform="translate(111.230469 0)"/>
      </g>
     </g>
    </g>
    <g id="text_8">
     <!-- MS run index (119 runs, ordered by acquisition date) -->
     <g transform="translate(189.551562 270.400312) scale(0.17 -0.17)">
      <defs>
       <path id="Helvetica-4d" d="M 472 4591 
L 1363 4591 
L 2681 709 
L 3991 4591 
L 4872 4591 
L 4872 0 
L 4281 0 
L 4281 2709 
Q 4281 2850 4287 3175 
Q 4294 3500 4294 3872 
L 2984 0 
L 2369 0 
L 1050 3872 
L 1050 3731 
Q 1050 3563 1058 3217 
Q 1066 2872 1066 2709 
L 1066 0 
L 472 0 
L 472 4591 
z
" transform="scale(0.015625)"/>
       <path id="Helvetica-53" d="M 894 1481 
Q 916 1091 1078 847 
Q 1388 391 2169 391 
Q 2519 391 2806 491 
Q 3363 684 3363 1184 
Q 3363 1559 3128 1719 
Q 2891 1875 2384 1991 
L 1763 2131 
Q 1153 2269 900 2434 
Q 463 2722 463 3294 
Q 463 3913 891 4309 
Q 1319 4706 2103 4706 
Q 2825 4706 3329 4357 
Q 3834 4009 3834 3244 
L 3250 3244 
Q 3203 3613 3050 3809 
Q 2766 4169 2084 4169 
Q 1534 4169 1293 3937 
Q 1053 3706 1053 3400 
Q 1053 3063 1334 2906 
Q 1519 2806 2169 2656 
L 2813 2509 
Q 3278 2403 3531 2219 
Q 3969 1897 3969 1284 
Q 3969 522 3414 194 
Q 2859 -134 2125 -134 
Q 1269 -134 784 303 
Q 300 738 309 1481 
L 894 1481 
z
M 2150 4716 
L 2150 4716 
z
" transform="scale(0.015625)"/>
       <path id="Helvetica-20" transform="scale(0.015625)"/>
       <path id="Helvetica-72" d="M 428 3347 
L 963 3347 
L 963 2769 
Q 1028 2938 1284 3180 
Q 1541 3422 1875 3422 
Q 1891 3422 1928 3419 
Q 1966 3416 2056 3406 
L 2056 2813 
Q 2006 2822 1964 2825 
Q 1922 2828 1872 2828 
Q 1447 2828 1219 2554 
Q 991 2281 991 1925 
L 991 0 
L 428 0 
L 428 3347 
z
" transform="scale(0.015625)"/>
       <path id="Helvetica-75" d="M 975 3347 
L 975 1125 
Q 975 869 1056 706 
Q 1206 406 1616 406 
Q 2203 406 2416 931 
Q 2531 1213 2531 1703 
L 2531 3347 
L 3094 3347 
L 3094 0 
L 2563 0 
L 2569 494 
Q 2459 303 2297 172 
Q 1975 -91 1516 -91 
Q 800 -91 541 388 
Q 400 644 400 1072 
L 400 3347 
L 975 3347 
z
M 1747 3428 
L 1747 3428 
z
" transform="scale(0.015625)"/>
       <path id="Helvetica-6e" d="M 413 3347 
L 947 3347 
L 947 2872 
Q 1184 3166 1450 3294 
Q 1716 3422 2041 3422 
Q 2753 3422 3003 2925 
Q 3141 2653 3141 2147 
L 3141 0 
L 2569 0 
L 2569 2109 
Q 2569 2416 2478 2603 
Q 2328 2916 1934 2916 
Q 1734 2916 1606 2875 
Q 1375 2806 1200 2600 
Q 1059 2434 1017 2257 
Q 975 2081 975 1753 
L 975 0 
L 413 0 
L 413 3347 
z
M 1734 3428 
L 1734 3428 
z
" transform="scale(0.015625)"/>
       <path id="Helvetica-69" d="M 413 3331 
L 984 3331 
L 984 0 
L 413 0 
L 413 3331 
z
M 413 4591 
L 984 4591 
L 984 3953 
L 413 3953 
L 413 4591 
z
" transform="scale(0.015625)"/>
       <path id="Helvetica-64" d="M 769 1634 
Q 769 1097 997 734 
Q 1225 372 1728 372 
Q 2119 372 2370 708 
Q 2622 1044 2622 1672 
Q 2622 2306 2362 2611 
Q 2103 2916 1722 2916 
Q 1297 2916 1033 2591 
Q 769 2266 769 1634 
z
M 1616 3406 
Q 2000 3406 2259 3244 
Q 2409 3150 2600 2916 
L 2600 4606 
L 3141 4606 
L 3141 0 
L 2634 0 
L 2634 466 
Q 2438 156 2169 18 
Q 1900 -119 1553 -119 
Q 994 -119 584 351 
Q 175 822 175 1603 
Q 175 2334 548 2870 
Q 922 3406 1616 3406 
z
" transform="scale(0.015625)"/>
       <path id="Helvetica-65" d="M 1806 3422 
Q 2163 3422 2497 3255 
Q 2831 3088 3006 2822 
Q 3175 2569 3231 2231 
Q 3281 2000 3281 1494 
L 828 1494 
Q 844 984 1069 676 
Q 1294 369 1766 369 
Q 2206 369 2469 659 
Q 2619 828 2681 1050 
L 3234 1050 
Q 3213 866 3089 639 
Q 2966 413 2813 269 
Q 2556 19 2178 -69 
Q 1975 -119 1719 -119 
Q 1094 -119 659 336 
Q 225 791 225 1609 
Q 225 2416 662 2919 
Q 1100 3422 1806 3422 
z
M 2703 1941 
Q 2669 2306 2544 2525 
Q 2313 2931 1772 2931 
Q 1384 2931 1121 2651 
Q 859 2372 844 1941 
L 2703 1941 
z
M 1753 3428 
L 1753 3428 
z
" transform="scale(0.015625)"/>
       <path id="Helvetica-78" d="M 94 3347 
L 822 3347 
L 1591 2169 
L 2369 3347 
L 3053 3331 
L 1925 1716 
L 3103 0 
L 2384 0 
L 1553 1256 
L 747 0 
L 34 0 
L 1213 1716 
L 94 3347 
z
" transform="scale(0.015625)"/>
       <path id="Helvetica-28" d="M 1894 4666 
Q 1403 3713 1256 3263 
Q 1034 2578 1034 1681 
Q 1034 775 1288 25 
Q 1444 -438 1903 -1306 
L 1525 -1306 
Q 1069 -594 959 -397 
Q 850 -200 722 138 
Q 547 600 478 1125 
Q 444 1397 444 1644 
Q 444 2569 734 3291 
Q 919 3750 1503 4666 
L 1894 4666 
z
" transform="scale(0.015625)"/>
       <path id="Helvetica-39" d="M 850 1081 
Q 875 616 1209 438 
Q 1381 344 1597 344 
Q 2000 344 2284 680 
Q 2569 1016 2688 2044 
Q 2500 1747 2223 1626 
Q 1947 1506 1628 1506 
Q 981 1506 604 1909 
Q 228 2313 228 2947 
Q 228 3556 600 4018 
Q 972 4481 1697 4481 
Q 2675 4481 3047 3600 
Q 3253 3116 3253 2388 
Q 3253 1566 3006 931 
Q 2597 -125 1619 -125 
Q 963 -125 622 219 
Q 281 563 281 1081 
L 850 1081 
z
M 1703 2000 
Q 2038 2000 2314 2220 
Q 2591 2441 2591 2991 
Q 2591 3484 2342 3726 
Q 2094 3969 1709 3969 
Q 1297 3969 1055 3692 
Q 813 3416 813 2953 
Q 813 2516 1025 2258 
Q 1238 2000 1703 2000 
z
" transform="scale(0.015625)"/>
       <path id="Helvetica-73" d="M 747 1050 
Q 772 769 888 619 
Q 1100 347 1625 347 
Q 1938 347 2175 483 
Q 2413 619 2413 903 
Q 2413 1119 2222 1231 
Q 2100 1300 1741 1391 
L 1294 1503 
Q 866 1609 663 1741 
Q 300 1969 300 2372 
Q 300 2847 642 3140 
Q 984 3434 1563 3434 
Q 2319 3434 2653 2991 
Q 2863 2709 2856 2384 
L 2325 2384 
Q 2309 2575 2191 2731 
Q 1997 2953 1519 2953 
Q 1200 2953 1036 2831 
Q 872 2709 872 2509 
Q 872 2291 1088 2159 
Q 1213 2081 1456 2022 
L 1828 1931 
Q 2434 1784 2641 1647 
Q 2969 1431 2969 969 
Q 2969 522 2630 197 
Q 2291 -128 1597 -128 
Q 850 -128 539 211 
Q 228 550 206 1050 
L 747 1050 
z
M 1578 3428 
L 1578 3428 
z
" transform="scale(0.015625)"/>
       <path id="Helvetica-2c" d="M 531 -653 
Q 747 -616 834 -350 
Q 881 -209 881 -78 
Q 881 -56 879 -39 
Q 878 -22 872 0 
L 531 0 
L 531 681 
L 1200 681 
L 1200 50 
Q 1200 -322 1050 -603 
Q 900 -884 531 -950 
L 531 -653 
z
" transform="scale(0.015625)"/>
       <path id="Helvetica-6f" d="M 1741 363 
Q 2300 363 2508 786 
Q 2716 1209 2716 1728 
Q 2716 2197 2566 2491 
Q 2328 2953 1747 2953 
Q 1231 2953 997 2559 
Q 763 2166 763 1609 
Q 763 1075 997 719 
Q 1231 363 1741 363 
z
M 1763 3444 
Q 2409 3444 2856 3012 
Q 3303 2581 3303 1744 
Q 3303 934 2909 406 
Q 2516 -122 1688 -122 
Q 997 -122 590 345 
Q 184 813 184 1600 
Q 184 2444 612 2944 
Q 1041 3444 1763 3444 
z
M 1744 3428 
L 1744 3428 
z
" transform="scale(0.015625)"/>
       <path id="Helvetica-62" d="M 369 4606 
L 916 4606 
L 916 2941 
Q 1100 3181 1356 3307 
Q 1613 3434 1913 3434 
Q 2538 3434 2927 3004 
Q 3316 2575 3316 1738 
Q 3316 944 2931 419 
Q 2547 -106 1866 -106 
Q 1484 -106 1222 78 
Q 1066 188 888 428 
L 888 0 
L 369 0 
L 369 4606 
z
M 1831 391 
Q 2288 391 2514 753 
Q 2741 1116 2741 1709 
Q 2741 2238 2514 2584 
Q 2288 2931 1847 2931 
Q 1463 2931 1173 2647 
Q 884 2363 884 1709 
Q 884 1238 1003 944 
Q 1225 391 1831 391 
z
" transform="scale(0.015625)"/>
       <path id="Helvetica-79" d="M 2503 3347 
L 3125 3347 
Q 3006 3025 2597 1878 
Q 2291 1016 2084 472 
Q 1597 -809 1397 -1090 
Q 1197 -1372 709 -1372 
Q 591 -1372 527 -1362 
Q 463 -1353 369 -1328 
L 369 -816 
Q 516 -856 581 -865 
Q 647 -875 697 -875 
Q 853 -875 926 -823 
Q 1000 -772 1050 -697 
Q 1066 -672 1162 -440 
Q 1259 -209 1303 -97 
L 66 3347 
L 703 3347 
L 1600 622 
L 2503 3347 
z
M 1597 3428 
L 1597 3428 
z
" transform="scale(0.015625)"/>
       <path id="Helvetica-61" d="M 844 891 
Q 844 647 1022 506 
Q 1200 366 1444 366 
Q 1741 366 2019 503 
Q 2488 731 2488 1250 
L 2488 1703 
Q 2384 1638 2221 1594 
Q 2059 1550 1903 1531 
L 1563 1488 
Q 1256 1447 1103 1359 
Q 844 1213 844 891 
z
M 2206 2028 
Q 2400 2053 2466 2191 
Q 2503 2266 2503 2406 
Q 2503 2694 2298 2823 
Q 2094 2953 1713 2953 
Q 1272 2953 1088 2716 
Q 984 2584 953 2325 
L 428 2325 
Q 444 2944 830 3186 
Q 1216 3428 1725 3428 
Q 2316 3428 2684 3203 
Q 3050 2978 3050 2503 
L 3050 575 
Q 3050 488 3086 434 
Q 3122 381 3238 381 
Q 3275 381 3322 386 
Q 3369 391 3422 400 
L 3422 -16 
Q 3291 -53 3222 -62 
Q 3153 -72 3034 -72 
Q 2744 -72 2613 134 
Q 2544 244 2516 444 
Q 2344 219 2022 53 
Q 1700 -113 1313 -113 
Q 847 -113 551 170 
Q 256 453 256 878 
Q 256 1344 547 1600 
Q 838 1856 1309 1916 
L 2206 2028 
z
M 1741 3428 
L 1741 3428 
z
" transform="scale(0.015625)"/>
       <path id="Helvetica-63" d="M 1703 3444 
Q 2269 3444 2623 3169 
Q 2978 2894 3050 2222 
L 2503 2222 
Q 2453 2531 2275 2736 
Q 2097 2941 1703 2941 
Q 1166 2941 934 2416 
Q 784 2075 784 1575 
Q 784 1072 996 728 
Q 1209 384 1666 384 
Q 2016 384 2220 598 
Q 2425 813 2503 1184 
L 3050 1184 
Q 2956 519 2581 211 
Q 2206 -97 1622 -97 
Q 966 -97 575 383 
Q 184 863 184 1581 
Q 184 2463 612 2953 
Q 1041 3444 1703 3444 
z
M 1616 3428 
L 1616 3428 
z
" transform="scale(0.015625)"/>
       <path id="Helvetica-71" d="M 775 1628 
Q 775 1194 897 900 
Q 1113 378 1669 378 
Q 2256 378 2478 928 
Q 2600 1231 2600 1703 
Q 2600 2138 2466 2428 
Q 2238 2925 1663 2925 
Q 1297 2925 1036 2608 
Q 775 2291 775 1628 
z
M 1606 3422 
Q 2022 3422 2306 3213 
Q 2463 3100 2606 2881 
L 2606 3347 
L 3141 3347 
L 3141 -1334 
L 2575 -1334 
L 2575 384 
Q 2434 159 2186 26 
Q 1938 -106 1566 -106 
Q 1031 -106 609 312 
Q 188 731 188 1588 
Q 188 2391 583 2906 
Q 978 3422 1606 3422 
z
" transform="scale(0.015625)"/>
       <path id="Helvetica-74" d="M 525 4281 
L 1094 4281 
L 1094 3347 
L 1628 3347 
L 1628 2888 
L 1094 2888 
L 1094 703 
Q 1094 528 1213 469 
Q 1278 434 1431 434 
Q 1472 434 1519 436 
Q 1566 438 1628 444 
L 1628 0 
Q 1531 -28 1426 -40 
Q 1322 -53 1200 -53 
Q 806 -53 665 148 
Q 525 350 525 672 
L 525 2888 
L 72 2888 
L 72 3347 
L 525 3347 
L 525 4281 
z
" transform="scale(0.015625)"/>
       <path id="Helvetica-29" d="M 222 -1306 
Q 719 -338 863 106 
Q 1081 778 1081 1681 
Q 1081 2584 828 3334 
Q 672 3797 213 4666 
L 591 4666 
Q 1072 3897 1173 3717 
Q 1275 3538 1394 3222 
Q 1544 2831 1608 2450 
Q 1672 2069 1672 1716 
Q 1672 791 1378 66 
Q 1194 -400 613 -1306 
L 222 -1306 
z
" transform="scale(0.015625)"/>
      </defs>
      <use xlink:href="#Helvetica-4d"/>
      <use xlink:href="#Helvetica-53" transform="translate(83.300781 0)"/>
      <use xlink:href="#Helvetica-20" transform="translate(150 0)"/>
      <use xlink:href="#Helvetica-72" transform="translate(177.783203 0)"/>
      <use xlink:href="#Helvetica-75" transform="translate(211.083984 0)"/>
      <use xlink:href="#Helvetica-6e" transform="translate(266.699219 0)"/>
      <use xlink:href="#Helvetica-20" transform="translate(322.314453 0)"/>
      <use xlink:href="#Helvetica-69" transform="translate(350.097656 0)"/>
      <use xlink:href="#Helvetica-6e" transform="translate(372.314453 0)"/>
      <use xlink:href="#Helvetica-64" transform="translate(427.929688 0)"/>
      <use xlink:href="#Helvetica-65" transform="translate(483.544922 0)"/>
      <use xlink:href="#Helvetica-78" transform="translate(539.160156 0)"/>
      <use xlink:href="#Helvetica-20" transform="translate(589.160156 0)"/>
      <use xlink:href="#Helvetica-28" transform="translate(616.943359 0)"/>
      <use xlink:href="#Helvetica-31" transform="translate(650.244141 0)"/>
      <use xlink:href="#Helvetica-31" transform="translate(705.859375 0)"/>
      <use xlink:href="#Helvetica-39" transform="translate(761.474609 0)"/>
      <use xlink:href="#Helvetica-20" transform="translate(817.089844 0)"/>
      <use xlink:href="#Helvetica-72" transform="translate(844.873047 0)"/>
      <use xlink:href="#Helvetica-75" transform="translate(878.173828 0)"/>
      <use xlink:href="#Helvetica-6e" transform="translate(933.789062 0)"/>
      <use xlink:href="#Helvetica-73" transform="translate(989.404297 0)"/>
      <use xlink:href="#Helvetica-2c" transform="translate(1039.404297 0)"/>
      <use xlink:href="#Helvetica-20" transform="translate(1067.1875 0)"/>
      <use xlink:href="#Helvetica-6f" transform="translate(1094.970703 0)"/>
      <use xlink:href="#Helvetica-72" transform="translate(1150.585938 0)"/>
      <use xlink:href="#Helvetica-64" transform="translate(1183.886719 0)"/>
      <use xlink:href="#Helvetica-65" transform="translate(1239.501953 0)"/>
      <use xlink:href="#Helvetica-72" transform="translate(1295.117188 0)"/>
      <use xlink:href="#Helvetica-65" transform="translate(1328.417969 0)"/>
      <use xlink:href="#Helvetica-64" transform="translate(1384.033203 0)"/>
      <use xlink:href="#Helvetica-20" transform="translate(1439.648438 0)"/>
      <use xlink:href="#Helvetica-62" transform="translate(1467.431641 0)"/>
      <use xlink:href="#Helvetica-79" transform="translate(1523.046875 0)"/>
      <use xlink:href="#Helvetica-20" transform="translate(1573.046875 0)"/>
      <use xlink:href="#Helvetica-61" transform="translate(1600.830078 0)"/>
      <use xlink:href="#Helvetica-63" transform="translate(1656.445312 0)"/>
      <use xlink:href="#Helvetica-71" transform="translate(1706.445312 0)"/>
      <use xlink:href="#Helvetica-75" transform="translate(1762.060547 0)"/>
      <use xlink:href="#Helvetica-69" transform="translate(1817.675781 0)"/>
      <use xlink:href="#Helvetica-73" transform="translate(1839.892578 0)"/>
      <use xlink:href="#Helvetica-69" transform="translate(1889.892578 0)"/>
      <use xlink:href="#Helvetica-74" transform="translate(1912.109375 0)"/>
      <use xlink:href="#Helvetica-69" transform="translate(1939.892578 0)"/>
      <use xlink:href="#Helvetica-6f" transform="translate(1962.109375 0)"/>
      <use xlink:href="#Helvetica-6e" transform="translate(2017.724609 0)"/>
      <use xlink:href="#Helvetica-20" transform="translate(2073.339844 0)"/>
      <use xlink:href="#Helvetica-64" transform="translate(2101.123047 0)"/>
      <use xlink:href="#Helvetica-61" transform="translate(2156.738281 0)"/>
      <use xlink:href="#Helvetica-74" transform="translate(2212.353516 0)"/>
      <use xlink:href="#Helvetica-65" transform="translate(2240.136719 0)"/>
      <use xlink:href="#Helvetica-29" transform="translate(2295.751953 0)"/>
     </g>
    </g>
   </g>
   <g id="matplotlib.axis_2">
    <g id="ytick_1">
     <g id="line2d_8">
      <defs>
       <path id="md8bf66fbf0" d="M 0 0 
L -3.5 0 
" style="stroke: #000000; stroke-width: 0.8"/>
      </defs>
      <g>
       <use xlink:href="#md8bf66fbf0" x="67.970938" y="233.9125" style="stroke: #000000; stroke-width: 0.8"/>
      </g>
     </g>
     <g id="text_9">
      <!-- 0.0 -->
      <g transform="translate(41.510938 238.933906) scale(0.14 -0.14)">
       <defs>
        <path id="Helvetica-2e" d="M 547 681 
L 1200 681 
L 1200 0 
L 547 0 
L 547 681 
z
" transform="scale(0.015625)"/>
       </defs>
       <use xlink:href="#Helvetica-30"/>
       <use xlink:href="#Helvetica-2e" transform="translate(55.615234 0)"/>
       <use xlink:href="#Helvetica-30" transform="translate(83.398438 0)"/>
      </g>
     </g>
    </g>
    <g id="ytick_2">
     <g id="line2d_9">
      <g>
       <use xlink:href="#md8bf66fbf0" x="67.970938" y="193.472024" style="stroke: #000000; stroke-width: 0.8"/>
      </g>
     </g>
     <g id="text_10">
      <!-- 0.2 -->
      <g transform="translate(41.510938 198.49343) scale(0.14 -0.14)">
       <use xlink:href="#Helvetica-30"/>
       <use xlink:href="#Helvetica-2e" transform="translate(55.615234 0)"/>
       <use xlink:href="#Helvetica-32" transform="translate(83.398438 0)"/>
      </g>
     </g>
    </g>
    <g id="ytick_3">
     <g id="line2d_10">
      <g>
       <use xlink:href="#md8bf66fbf0" x="67.970938" y="153.031548" style="stroke: #000000; stroke-width: 0.8"/>
      </g>
     </g>
     <g id="text_11">
      <!-- 0.4 -->
      <g transform="translate(41.510938 158.052954) scale(0.14 -0.14)">
       <use xlink:href="#Helvetica-30"/>
       <use xlink:href="#Helvetica-2e" transform="translate(55.615234 0)"/>
       <use xlink:href="#Helvetica-34" transform="translate(83.398438 0)"/>
      </g>
     </g>
    </g>
    <g id="ytick_4">
     <g id="line2d_11">
      <g>
       <use xlink:href="#md8bf66fbf0" x="67.970938" y="112.591071" style="stroke: #000000; stroke-width: 0.8"/>
      </g>
     </g>
     <g id="text_12">
      <!-- 0.6 -->
      <g transform="translate(41.510938 117.612478) scale(0.14 -0.14)">
       <use xlink:href="#Helvetica-30"/>
       <use xlink:href="#Helvetica-2e" transform="translate(55.615234 0)"/>
       <use xlink:href="#Helvetica-36" transform="translate(83.398438 0)"/>
      </g>
     </g>
    </g>
    <g id="ytick_5">
     <g id="line2d_12">
      <g>
       <use xlink:href="#md8bf66fbf0" x="67.970938" y="72.150595" style="stroke: #000000; stroke-width: 0.8"/>
      </g>
     </g>
     <g id="text_13">
      <!-- 0.8 -->
      <g transform="translate(41.510938 77.172001) scale(0.14 -0.14)">
       <use xlink:href="#Helvetica-30"/>
       <use xlink:href="#Helvetica-2e" transform="translate(55.615234 0)"/>
       <use xlink:href="#Helvetica-38" transform="translate(83.398438 0)"/>
      </g>
     </g>
    </g>
    <g id="ytick_6">
     <g id="line2d_13">
      <g>
       <use xlink:href="#md8bf66fbf0" x="67.970938" y="31.710119" style="stroke: #000000; stroke-width: 0.8"/>
      </g>
     </g>
     <g id="text_14">
      <!-- 1.0 -->
      <g transform="translate(41.510938 36.731525) scale(0.14 -0.14)">
       <use xlink:href="#Helvetica-31"/>
       <use xlink:href="#Helvetica-2e" transform="translate(55.615234 0)"/>
       <use xlink:href="#Helvetica-30" transform="translate(83.398438 0)"/>
      </g>
     </g>
    </g>
    <g id="text_15">
     <!-- Fraction of precursors quantified -->
     <g transform="translate(33.9675 249.639609) rotate(-90) scale(0.17 -0.17)">
      <defs>
       <path id="Helvetica-46" d="M 547 4591 
L 3731 4591 
L 3731 4028 
L 1169 4028 
L 1169 2634 
L 3422 2634 
L 3422 2088 
L 1169 2088 
L 1169 0 
L 547 0 
L 547 4591 
z
" transform="scale(0.015625)"/>
       <path id="Helvetica-66" d="M 553 3856 
Q 566 4206 675 4369 
Q 872 4656 1434 4656 
Q 1488 4656 1544 4653 
Q 1600 4650 1672 4644 
L 1672 4131 
Q 1584 4138 1545 4139 
Q 1506 4141 1472 4141 
Q 1216 4141 1166 4008 
Q 1116 3875 1116 3331 
L 1672 3331 
L 1672 2888 
L 1109 2888 
L 1109 0 
L 553 0 
L 553 2888 
L 88 2888 
L 88 3331 
L 553 3331 
L 553 3856 
z
" transform="scale(0.015625)"/>
       <path id="Helvetica-70" d="M 1825 378 
Q 2219 378 2480 708 
Q 2741 1038 2741 1694 
Q 2741 2094 2625 2381 
Q 2406 2934 1825 2934 
Q 1241 2934 1025 2350 
Q 909 2038 909 1556 
Q 909 1169 1025 897 
Q 1244 378 1825 378 
z
M 369 3331 
L 916 3331 
L 916 2888 
Q 1084 3116 1284 3241 
Q 1569 3428 1953 3428 
Q 2522 3428 2919 2992 
Q 3316 2556 3316 1747 
Q 3316 653 2744 184 
Q 2381 -113 1900 -113 
Q 1522 -113 1266 53 
Q 1116 147 931 375 
L 931 -1334 
L 369 -1334 
L 369 3331 
z
" transform="scale(0.015625)"/>
      </defs>
      <use xlink:href="#Helvetica-46"/>
      <use xlink:href="#Helvetica-72" transform="translate(61.083984 0)"/>
      <use xlink:href="#Helvetica-61" transform="translate(94.384766 0)"/>
      <use xlink:href="#Helvetica-63" transform="translate(150 0)"/>
      <use xlink:href="#Helvetica-74" transform="translate(200 0)"/>
      <use xlink:href="#Helvetica-69" transform="translate(227.783203 0)"/>
      <use xlink:href="#Helvetica-6f" transform="translate(250 0)"/>
      <use xlink:href="#Helvetica-6e" transform="translate(305.615234 0)"/>
      <use xlink:href="#Helvetica-20" transform="translate(361.230469 0)"/>
      <use xlink:href="#Helvetica-6f" transform="translate(389.013672 0)"/>
      <use xlink:href="#Helvetica-66" transform="translate(444.628906 0)"/>
      <use xlink:href="#Helvetica-20" transform="translate(472.412109 0)"/>
      <use xlink:href="#Helvetica-70" transform="translate(500.195312 0)"/>
      <use xlink:href="#Helvetica-72" transform="translate(555.810547 0)"/>
      <use xlink:href="#Helvetica-65" transform="translate(589.111328 0)"/>
      <use xlink:href="#Helvetica-63" transform="translate(644.726562 0)"/>
      <use xlink:href="#Helvetica-75" transform="translate(694.726562 0)"/>
      <use xlink:href="#Helvetica-72" transform="translate(750.341797 0)"/>
      <use xlink:href="#Helvetica-73" transform="translate(783.642578 0)"/>
      <use xlink:href="#Helvetica-6f" transform="translate(833.642578 0)"/>
      <use xlink:href="#Helvetica-72" transform="translate(889.257812 0)"/>
      <use xlink:href="#Helvetica-73" transform="translate(922.558594 0)"/>
      <use xlink:href="#Helvetica-20" transform="translate(972.558594 0)"/>
      <use xlink:href="#Helvetica-71" transform="translate(1000.341797 0)"/>
      <use xlink:href="#Helvetica-75" transform="translate(1055.957031 0)"/>
      <use xlink:href="#Helvetica-61" transform="translate(1111.572266 0)"/>
      <use xlink:href="#Helvetica-6e" transform="translate(1167.1875 0)"/>
      <use xlink:href="#Helvetica-74" transform="translate(1222.802734 0)"/>
      <use xlink:href="#Helvetica-69" transform="translate(1250.585938 0)"/>
      <use xlink:href="#Helvetica-66" transform="translate(1272.802734 0)"/>
      <use xlink:href="#Helvetica-69" transform="translate(1300.585938 0)"/>
      <use xlink:href="#Helvetica-65" transform="translate(1322.802734 0)"/>
      <use xlink:href="#Helvetica-64" transform="translate(1378.417969 0)"/>
     </g>
    </g>
   </g>
   <g id="line2d_14">
    <path d="M 97.019574 161.966674 
L 101.943072 150.200029 
L 106.866569 150.220929 
L 111.790067 151.454023 
L 116.713565 149.468532 
L 121.637062 159.517205 
L 126.56056 155.738503 
L 131.484058 161.502696 
L 136.407555 148.975294 
L 141.331053 150.651467 
L 146.254551 150.467548 
L 151.178048 146.187247 
L 156.101546 150.818666 
L 161.025044 149.280433 
L 165.948542 153.556553 
L 170.872039 178.577917 
L 175.795537 154.095771 
L 180.719035 157.565155 
L 185.642532 162.066994 
L 190.56603 145.305272 
L 195.489528 148.866615 
L 200.413025 153.527293 
L 205.336523 146.036768 
L 210.260021 158.008233 
L 215.183518 155.608924 
L 220.107016 146.839324 
L 225.030514 153.255595 
L 229.954011 148.394277 
L 234.877509 151.646302 
L 239.801007 148.979474 
L 244.724505 153.326654 
L 249.648002 151.224124 
L 254.5715 147.70458 
L 259.494998 148.741216 
L 264.418495 146.818424 
L 269.341993 154.17937 
L 274.265491 146.546726 
L 279.188988 151.621222 
L 284.112486 154.438529 
L 289.035984 152.724737 
L 293.959481 166.284594 
L 298.882979 151.826041 
L 303.806477 169.28582 
L 308.729974 156.691539 
L 313.653472 152.687117 
L 318.57697 159.258047 
L 323.500468 152.394519 
L 328.423965 145.397231 
L 333.347463 148.477877 
L 338.270961 147.77564 
L 343.194458 146.793345 
L 348.117956 148.565656 
L 353.041454 154.133391 
L 357.964951 149.623191 
L 362.888449 142.136846 
L 367.811947 148.151838 
L 372.735444 144.782774 
L 377.658942 162.275993 
L 382.58244 150.944065 
L 387.505938 150.584587 
L 392.429435 151.897101 
L 397.352933 147.533201 
L 402.276431 158.250671 
L 407.199928 153.268135 
L 412.123426 161.109778 
L 417.046924 147.68368 
L 421.970421 152.348539 
L 426.893919 146.843504 
L 431.817417 141.877687 
L 436.740914 148.356657 
L 441.664412 140.903752 
L 446.58791 148.966934 
L 451.511407 181.085905 
L 456.434905 156.750058 
L 461.358403 158.672849 
L 466.281901 159.880864 
L 471.205398 145.794329 
L 476.128896 149.426732 
L 481.052394 153.071675 
L 485.975891 142.429445 
L 490.899389 152.08102 
L 495.822887 146.876944 
L 500.746384 140.836872 
L 505.669882 147.8467 
L 510.59338 143.57894 
L 515.516877 149.522872 
L 520.440375 145.338711 
L 525.363873 149.481072 
L 530.28737 142.375105 
L 535.210868 144.740974 
L 540.134366 146.555086 
L 545.057864 142.053247 
L 549.981361 148.561476 
L 554.904859 139.658118 
L 559.828357 145.71909 
L 564.751854 146.626145 
L 569.675352 148.954395 
L 574.59885 159.228787 
L 579.522347 146.266667 
L 584.445845 167.375569 
L 589.369343 153.899312 
L 594.29284 148.302318 
L 599.216338 153.197075 
L 604.139836 148.657616 
L 609.063333 141.986367 
L 613.986831 144.385676 
L 618.910329 145.413951 
L 623.833827 142.153566 
L 628.757324 144.335516 
L 633.680822 149.99103 
L 638.60432 145.790149 
L 643.527817 147.587541 
L 648.451315 147.140283 
L 653.374813 164.391063 
L 658.29831 163.262468 
L 663.221808 173.064523 
L 668.145306 174.602755 
L 673.068803 163.270828 
L 677.992301 166.309674 
" clip-path="url(#p2f0728a601)" style="fill: none; stroke: #9e9e9e; stroke-linecap: square"/>
   </g>
   <g id="line2d_15">
    <path d="M 97.019574 165.265591 
L 101.943072 154.369099 
L 106.866569 159.675404 
L 111.790067 159.394822 
L 116.713565 160.079772 
L 121.637062 163.07705 
L 126.56056 158.067833 
L 131.484058 161.042004 
L 136.407555 157.391135 
L 141.331053 159.28754 
L 146.254551 156.755699 
L 151.178048 152.966188 
L 156.101546 154.953371 
L 161.025044 153.966381 
L 165.948542 155.045798 
L 170.872039 178.954701 
L 175.795537 160.051714 
L 180.719035 163.509477 
L 185.642532 164.33967 
L 190.56603 155.478224 
L 195.489528 159.200065 
L 200.413025 161.273072 
L 205.336523 157.929192 
L 210.260021 165.613843 
L 215.183518 159.125793 
L 220.107016 156.143369 
L 225.030514 160.10618 
L 229.954011 157.381232 
L 234.877509 161.684042 
L 239.801007 159.054822 
L 244.724505 161.104722 
L 249.648002 156.810164 
L 254.5715 158.732978 
L 259.494998 157.623853 
L 264.418495 157.302009 
L 269.341993 159.746375 
L 274.265491 156.171427 
L 279.188988 161.517343 
L 284.112486 161.413363 
L 289.035984 162.841031 
L 293.959481 165.91093 
L 298.882979 161.905207 
L 303.806477 173.285291 
L 308.729974 163.661321 
L 313.653472 162.705691 
L 318.57697 163.375788 
L 323.500468 159.335404 
L 328.423965 161.175693 
L 333.347463 162.936759 
L 338.270961 161.746761 
L 343.194458 159.412977 
L 348.117956 159.840452 
L 353.041454 162.877342 
L 357.964951 158.922783 
L 362.888449 156.334825 
L 367.811947 160.205209 
L 372.735444 160.084724 
L 377.658942 170.116362 
L 382.58244 160.629383 
L 387.505938 163.854428 
L 392.429435 165.914231 
L 397.352933 166.675104 
L 402.276431 167.383162 
L 407.199928 163.52103 
L 412.123426 167.20821 
L 417.046924 162.118119 
L 421.970421 166.907822 
L 426.893919 164.153165 
L 431.817417 157.257446 
L 436.740914 163.816467 
L 441.664412 160.116083 
L 446.58791 163.088604 
L 451.511407 185.756344 
L 456.434905 169.90345 
L 461.358403 170.337527 
L 466.281901 168.739859 
L 471.205398 163.063846 
L 476.128896 165.405882 
L 481.052394 167.191706 
L 485.975891 149.478717 
L 490.899389 154.629876 
L 495.822887 150.754541 
L 500.746384 140.935814 
L 505.669882 146.214061 
L 510.59338 145.456489 
L 515.516877 148.049398 
L 520.440375 145.099984 
L 525.363873 152.330752 
L 530.28737 148.925805 
L 535.210868 147.242312 
L 540.134366 146.228915 
L 545.057864 144.124549 
L 549.981361 149.247649 
L 554.904859 143.624452 
L 559.828357 148.521436 
L 564.751854 149.970561 
L 569.675352 151.040074 
L 574.59885 155.808321 
L 579.522347 146.336196 
L 584.445845 161.385305 
L 589.369343 150.698424 
L 594.29284 150.117454 
L 599.216338 148.541242 
L 604.139836 143.774646 
L 609.063333 147.313283 
L 613.986831 148.985222 
L 618.910329 146.592021 
L 623.833827 147.496486 
L 628.757324 147.881049 
L 633.680822 147.818331 
L 638.60432 146.443478 
L 643.527817 144.406781 
L 648.451315 148.80697 
L 653.374813 167.294036 
L 658.29831 167.530055 
L 663.221808 175.463929 
L 668.145306 175.823734 
L 673.068803 165.168213 
L 677.992301 167.467336 
" clip-path="url(#p2f0728a601)" style="fill: none; stroke: #0072b2; stroke-linecap: square"/>
   </g>
   <g id="patch_3">
    <path d="M 67.970938 233.9125 
L 67.970938 21.6 
" style="fill: none; stroke: #000000; stroke-width: 0.8; stroke-linejoin: miter; stroke-linecap: square"/>
   </g>
   <g id="patch_4">
    <path d="M 67.970938 233.9125 
L 707.040937 233.9125 
" style="fill: none; stroke: #000000; stroke-width: 0.8; stroke-linejoin: miter; stroke-linecap: square"/>
   </g>
   <g id="legend_1">
    <g id="line2d_16">
     <path d="M 495.739375 193.369375 
L 509.739375 193.369375 
L 523.739375 193.369375 
" style="fill: none; stroke: #9e9e9e; stroke-linecap: square"/>
    </g>
    <g id="text_16">
     <!-- Guo 2019 (OpenSWATH) -->
     <g transform="translate(534.939375 198.269375) scale(0.14 -0.14)">
      <defs>
       <path id="Helvetica-47" d="M 2472 4709 
Q 3119 4709 3591 4459 
Q 4275 4100 4428 3200 
L 3813 3200 
Q 3700 3703 3347 3933 
Q 2994 4163 2456 4163 
Q 1819 4163 1383 3684 
Q 947 3206 947 2259 
Q 947 1441 1306 927 
Q 1666 413 2478 413 
Q 3100 413 3508 773 
Q 3916 1134 3925 1941 
L 2488 1941 
L 2488 2456 
L 4503 2456 
L 4503 0 
L 4103 0 
L 3953 591 
Q 3638 244 3394 109 
Q 2984 -122 2353 -122 
Q 1538 -122 950 406 
Q 309 1069 309 2225 
Q 309 3378 934 4059 
Q 1528 4709 2472 4709 
z
M 2369 4716 
L 2369 4716 
z
" transform="scale(0.015625)"/>
       <path id="Helvetica-4f" d="M 2469 4716 
Q 3684 4716 4269 3934 
Q 4725 3325 4725 2375 
Q 4725 1347 4203 666 
Q 3591 -134 2456 -134 
Q 1397 -134 791 566 
Q 250 1241 250 2272 
Q 250 3203 713 3866 
Q 1306 4716 2469 4716 
z
M 2531 422 
Q 3353 422 3720 1011 
Q 4088 1600 4088 2366 
Q 4088 3175 3664 3669 
Q 3241 4163 2506 4163 
Q 1794 4163 1344 3673 
Q 894 3184 894 2231 
Q 894 1469 1280 945 
Q 1666 422 2531 422 
z
M 2488 4716 
L 2488 4716 
z
" transform="scale(0.015625)"/>
       <path id="Helvetica-57" d="M 791 4591 
L 1656 856 
L 2694 4591 
L 3369 4591 
L 4406 856 
L 5272 4591 
L 5953 4591 
L 4747 0 
L 4094 0 
L 3034 3806 
L 1969 0 
L 1316 0 
L 116 4591 
L 791 4591 
z
" transform="scale(0.015625)"/>
       <path id="Helvetica-41" d="M 2844 1881 
L 2147 3909 
L 1406 1881 
L 2844 1881 
z
M 1822 4591 
L 2525 4591 
L 4191 0 
L 3509 0 
L 3044 1375 
L 1228 1375 
L 731 0 
L 94 0 
L 1822 4591 
z
" transform="scale(0.015625)"/>
       <path id="Helvetica-54" d="M 3828 4591 
L 3828 4044 
L 2281 4044 
L 2281 0 
L 1650 0 
L 1650 4044 
L 103 4044 
L 103 4591 
L 3828 4591 
z
" transform="scale(0.015625)"/>
       <path id="Helvetica-48" d="M 503 4591 
L 1131 4591 
L 1131 2694 
L 3519 2694 
L 3519 4591 
L 4147 4591 
L 4147 0 
L 3519 0 
L 3519 2147 
L 1131 2147 
L 1131 0 
L 503 0 
L 503 4591 
z
" transform="scale(0.015625)"/>
      </defs>
      <use xlink:href="#Helvetica-47"/>
      <use xlink:href="#Helvetica-75" transform="translate(77.783203 0)"/>
      <use xlink:href="#Helvetica-6f" transform="translate(133.398438 0)"/>
      <use xlink:href="#Helvetica-20" transform="translate(189.013672 0)"/>
      <use xlink:href="#Helvetica-32" transform="translate(216.796875 0)"/>
      <use xlink:href="#Helvetica-30" transform="translate(272.412109 0)"/>
      <use xlink:href="#Helvetica-31" transform="translate(328.027344 0)"/>
      <use xlink:href="#Helvetica-39" transform="translate(383.642578 0)"/>
      <use xlink:href="#Helvetica-20" transform="translate(439.257812 0)"/>
      <use xlink:href="#Helvetica-28" transform="translate(467.041016 0)"/>
      <use xlink:href="#Helvetica-4f" transform="translate(500.341797 0)"/>
      <use xlink:href="#Helvetica-70" transform="translate(578.125 0)"/>
      <use xlink:href="#Helvetica-65" transform="translate(633.740234 0)"/>
      <use xlink:href="#Helvetica-6e" transform="translate(689.355469 0)"/>
      <use xlink:href="#Helvetica-53" transform="translate(744.970703 0)"/>
      <use xlink:href="#Helvetica-57" transform="translate(811.669922 0)"/>
      <use xlink:href="#Helvetica-41" transform="translate(906.054688 0)"/>
      <use xlink:href="#Helvetica-54" transform="translate(972.753906 0)"/>
      <use xlink:href="#Helvetica-48" transform="translate(1033.837891 0)"/>
      <use xlink:href="#Helvetica-29" transform="translate(1106.054688 0)"/>
     </g>
    </g>
    <g id="line2d_17">
     <path d="M 495.739375 213.494375 
L 509.739375 213.494375 
L 523.739375 213.494375 
" style="fill: none; stroke: #0072b2; stroke-linecap: square"/>
    </g>
    <g id="text_17">
     <!-- quantmsdiann (DIA-NN) -->
     <g transform="translate(534.939375 218.394375) scale(0.14 -0.14)">
      <defs>
       <path id="Helvetica-6d" d="M 413 3347 
L 969 3347 
L 969 2872 
Q 1169 3119 1331 3231 
Q 1609 3422 1963 3422 
Q 2363 3422 2606 3225 
Q 2744 3113 2856 2894 
Q 3044 3163 3297 3292 
Q 3550 3422 3866 3422 
Q 4541 3422 4784 2934 
Q 4916 2672 4916 2228 
L 4916 0 
L 4331 0 
L 4331 2325 
Q 4331 2659 4164 2784 
Q 3997 2909 3756 2909 
Q 3425 2909 3186 2687 
Q 2947 2466 2947 1947 
L 2947 0 
L 2375 0 
L 2375 2184 
Q 2375 2525 2294 2681 
Q 2166 2916 1816 2916 
Q 1497 2916 1236 2669 
Q 975 2422 975 1775 
L 975 0 
L 413 0 
L 413 3347 
z
" transform="scale(0.015625)"/>
       <path id="Helvetica-44" d="M 2250 531 
Q 2566 531 2769 597 
Q 3131 719 3363 1066 
Q 3547 1344 3628 1778 
Q 3675 2038 3675 2259 
Q 3675 3113 3336 3584 
Q 2997 4056 2244 4056 
L 1141 4056 
L 1141 531 
L 2250 531 
z
M 516 4591 
L 2375 4591 
Q 3322 4591 3844 3919 
Q 4309 3313 4309 2366 
Q 4309 1634 4034 1044 
Q 3550 0 2369 0 
L 516 0 
L 516 4591 
z
" transform="scale(0.015625)"/>
       <path id="Helvetica-49" d="M 628 4591 
L 1256 4591 
L 1256 0 
L 628 0 
L 628 4591 
z
" transform="scale(0.015625)"/>
       <path id="Helvetica-2d" d="M 266 2072 
L 1834 2072 
L 1834 1494 
L 266 1494 
L 266 2072 
z
" transform="scale(0.015625)"/>
       <path id="Helvetica-4e" d="M 488 4591 
L 1222 4591 
L 3541 872 
L 3541 4591 
L 4131 4591 
L 4131 0 
L 3434 0 
L 1081 3716 
L 1081 0 
L 488 0 
L 488 4591 
z
M 2269 4591 
L 2269 4591 
z
" transform="scale(0.015625)"/>
      </defs>
      <use xlink:href="#Helvetica-71"/>
      <use xlink:href="#Helvetica-75" transform="translate(55.615234 0)"/>
      <use xlink:href="#Helvetica-61" transform="translate(111.230469 0)"/>
      <use xlink:href="#Helvetica-6e" transform="translate(166.845703 0)"/>
      <use xlink:href="#Helvetica-74" transform="translate(222.460938 0)"/>
      <use xlink:href="#Helvetica-6d" transform="translate(250.244141 0)"/>
      <use xlink:href="#Helvetica-73" transform="translate(333.544922 0)"/>
      <use xlink:href="#Helvetica-64" transform="translate(383.544922 0)"/>
      <use xlink:href="#Helvetica-69" transform="translate(439.160156 0)"/>
      <use xlink:href="#Helvetica-61" transform="translate(461.376953 0)"/>
      <use xlink:href="#Helvetica-6e" transform="translate(516.992188 0)"/>
      <use xlink:href="#Helvetica-6e" transform="translate(572.607422 0)"/>
      <use xlink:href="#Helvetica-20" transform="translate(628.222656 0)"/>
      <use xlink:href="#Helvetica-28" transform="translate(656.005859 0)"/>
      <use xlink:href="#Helvetica-44" transform="translate(689.306641 0)"/>
      <use xlink:href="#Helvetica-49" transform="translate(761.523438 0)"/>
      <use xlink:href="#Helvetica-41" transform="translate(789.306641 0)"/>
      <use xlink:href="#Helvetica-2d" transform="translate(856.005859 0)"/>
      <use xlink:href="#Helvetica-4e" transform="translate(889.306641 0)"/>
      <use xlink:href="#Helvetica-4e" transform="translate(961.523438 0)"/>
      <use xlink:href="#Helvetica-29" transform="translate(1033.740234 0)"/>
     </g>
    </g>
   </g>
  </g>
 </g>
 <defs>
  <clipPath id="p2f0728a601">
   <rect x="67.970938" y="21.6" width="639.07" height="212.3125"/>
  </clipPath>
 </defs>
</svg>
