<?xml version="1.0" encoding="utf-8" standalone="no"?>
<!DOCTYPE svg PUBLIC "-//W3C//DTD SVG 1.1//EN"
  "http://www.w3.org/Graphics/SVG/1.1/DTD/svg11.dtd">
<svg xmlns:xlink="http://www.w3.org/1999/xlink" width="372.563406pt" height="374.49817pt" viewBox="0 0 372.563406 374.49817" xmlns="http://www.w3.org/2000/svg" version="1.1">
 <metadata>
  <rdf:RDF xmlns:dc="http://purl.org/dc/elements/1.1/" xmlns:cc="http://creativecommons.org/ns#" xmlns:rdf="http://www.w3.org/1999/02/22-rdf-syntax-ns#">
   <cc:Work>
    <dc:type rdf:resource="http://purl.org/dc/dcmitype/StillImage"/>
    <dc:date>2026-06-16T14:58:45.549202</dc:date>
    <dc:format>image/svg+xml</dc:format>
    <dc:creator>
     <cc:Agent>
      <dc:title>Matplotlib v3.10.6, https://matplotlib.org/</dc:title>
     </cc:Agent>
    </dc:creator>
   </cc:Work>
  </rdf:RDF>
 </metadata>
 <defs>
  <style type="text/css">*{stroke-linejoin: round; stroke-linecap: butt}</style>
 </defs>
 <g id="figure_1">
  <g id="patch_1">
   <path d="M 0 374.49817 
L 372.563406 374.49817 
L 372.563406 0 
L 0 0 
z
" style="fill: #ffffff"/>
  </g>
  <g id="axes_1">
   <g id="patch_2">
    <path d="M 58.734346 254.127651 
C 46.834905 232.259899 40.599676 207.756163 40.599676 182.860475 
C 40.599676 157.964787 46.834905 133.461052 58.734346 111.5933 
C 42.568411 131.823561 33.757221 156.964512 33.757221 182.860475 
C 33.757221 208.756439 42.568411 233.897389 58.734346 254.127651 
" clip-path="url(#p07560f9e9c)" style="fill: #9e9e9e; opacity: 0.55"/>
   </g>
   <g id="patch_3">
    <path d="M 58.734346 111.5933 
C 66.075703 102.406229 74.79274 94.408447 84.576494 87.883421 
C 94.360248 81.358396 105.093747 76.384139 116.396561 73.136955 
C 127.699375 69.889771 139.436369 68.408482 151.191544 68.74559 
C 162.94672 69.082699 174.579536 71.234174 185.677685 75.123761 
C 196.775834 79.013348 207.20663 84.594543 216.60037 91.66953 
C 225.99411 98.744517 234.238486 107.22871 241.041288 116.821399 
C 247.844089 126.414088 253.123985 137.000586 256.693838 148.205672 
C 260.26369 159.410758 262.080819 171.100467 262.080819 182.860475 
C 262.080819 194.620484 260.26369 206.310192 256.693838 217.515278 
C 253.123985 228.720364 247.844089 239.306863 241.041288 248.899552 
C 234.238486 258.492241 225.99411 266.976434 216.60037 274.051421 
C 207.20663 281.126408 196.775834 286.707603 185.677685 290.59719 
C 174.579536 294.486776 162.94672 296.638252 151.191544 296.97536 
C 139.436369 297.312469 127.699375 295.83118 116.396561 292.583996 
C 105.093747 289.336812 94.360248 284.362555 84.576494 277.837529 
C 74.79274 271.312504 66.075703 263.314722 58.734346 254.127651 
C 66.601189 268.584647 76.807778 281.63981 88.939351 292.76262 
C 101.070923 303.88543 114.960894 312.923154 130.044819 319.508528 
C 145.128745 326.093902 161.1995 330.136498 177.60402 331.472039 
C 194.00854 332.80758 210.521567 331.417727 226.472064 327.358958 
C 242.422561 323.300189 257.591503 316.628238 271.362474 307.614231 
C 285.133445 298.600224 297.317348 287.367938 307.419068 274.373816 
C 317.520789 261.379694 325.401614 246.802166 330.741294 231.233615 
C 336.080974 215.665064 338.806185 199.319271 338.806185 182.860475 
C 338.806185 166.401679 336.080974 150.055886 330.741294 134.487335 
C 325.401614 118.918784 317.520789 104.341256 307.419068 91.347134 
C 297.317348 78.353012 285.133445 67.120726 271.362474 58.10672 
C 257.591503 49.092713 242.422561 42.420762 226.472064 38.361993 
C 210.521567 34.303224 194.00854 32.91337 177.60402 34.248911 
C 161.1995 35.584452 145.128745 39.627049 130.044819 46.212423 
C 114.960894 52.797796 101.070923 61.83552 88.939351 72.95833 
C 76.807778 84.081141 66.601189 97.136303 58.734346 111.5933 
" clip-path="url(#p07560f9e9c)" style="fill: #1f77b4; opacity: 0.55"/>
   </g>
   <g id="patch_4">
    <path d="M 58.734346 254.127651 
C 66.075703 263.314722 74.79274 271.312504 84.576494 277.837529 
C 94.360248 284.362555 105.093747 289.336812 116.396561 292.583996 
C 127.699375 295.83118 139.436369 297.312469 151.191544 296.97536 
C 162.94672 296.638252 174.579536 294.486776 185.677685 290.59719 
C 196.775834 286.707603 207.20663 281.126408 216.60037 274.051421 
C 225.99411 266.976434 234.238486 258.492241 241.041288 248.899552 
C 247.844089 239.306863 253.123985 228.720364 256.693838 217.515278 
C 260.26369 206.310192 262.080819 194.620484 262.080819 182.860475 
C 262.080819 171.100467 260.26369 159.410758 256.693838 148.205672 
C 253.123985 137.000586 247.844089 126.414088 241.041288 116.821399 
C 234.238486 107.22871 225.99411 98.744517 216.60037 91.66953 
C 207.20663 84.594543 196.775834 79.013348 185.677685 75.123761 
C 174.579536 71.234174 162.94672 69.082699 151.191544 68.74559 
C 139.436369 68.408482 127.699375 69.889771 116.396561 73.136955 
C 105.093747 76.384139 94.360248 81.358396 84.576494 87.883421 
C 74.79274 94.408447 66.075703 102.406229 58.734346 111.5933 
C 46.834905 133.461052 40.599676 157.964787 40.599676 182.860475 
C 40.599676 207.756163 46.834905 232.259899 58.734346 254.127651 
" clip-path="url(#p07560f9e9c)" style="fill: #84c2ed; opacity: 0.55"/>
   </g>
   <g id="text_1">
    <text style="font-size: 10px; font-family: 'Helvetica', 'Arial', 'DejaVu Sans', sans-serif" transform="translate(31.617511 180.014694)">61</text>
    <text style="font-size: 10px; font-family: 'Helvetica', 'Arial', 'DejaVu Sans', sans-serif" transform="translate(22.452667 190.795319)">(1.0%)</text>
   </g>
   <g id="text_2">
    <text style="font-size: 10px; font-family: 'Helvetica', 'Arial', 'DejaVu Sans', sans-serif" transform="translate(287.932565 180.014694)">2,633</text>
    <text style="font-size: 10px; font-family: 'Helvetica', 'Arial', 'DejaVu Sans', sans-serif" transform="translate(282.937252 190.795319)">(41.9%)</text>
   </g>
   <g id="text_3">
    <text style="font-size: 10px; font-family: 'Helvetica', 'Arial', 'DejaVu Sans', sans-serif" transform="translate(138.82931 180.014694)">3,583</text>
    <text style="font-size: 10px; font-family: 'Helvetica', 'Arial', 'DejaVu Sans', sans-serif" transform="translate(133.833998 190.795319)">(57.1%)</text>
   </g>
   <g id="text_4">
    <text style="font-size: 11px; font-family: 'Helvetica', 'Arial', 'DejaVu Sans', sans-serif" transform="translate(22.596364 318.291152)">Guo 2019 (OpenSWATH)</text>
    <text style="font-size: 11px; font-family: 'Helvetica', 'Arial', 'DejaVu Sans', sans-serif" transform="translate(100.527926 330.14984)">(n=3,644)</text>
   </g>
   <g id="text_5">
    <text style="font-size: 11px; font-family: 'Helvetica', 'Arial', 'DejaVu Sans', sans-serif" transform="translate(189.702931 353.14667)">quantmsdiann (DIA-NN)</text>
    <text style="font-size: 11px; font-family: 'Helvetica', 'Arial', 'DejaVu Sans', sans-serif" transform="translate(189.702931 365.005358)">(n=6,216)</text>
   </g>
  </g>
 </g>
 <defs>
  <clipPath id="p07560f9e9c">
   <rect x="7.2" y="7.2" width="358.163406" height="351.320951"/>
  </clipPath>
 </defs>
</svg>
