<?xml version="1.0" encoding="utf-8" standalone="no"?>
<!DOCTYPE svg PUBLIC "-//W3C//DTD SVG 1.1//EN"
  "http://www.w3.org/Graphics/SVG/1.1/DTD/svg11.dtd">
<svg xmlns:xlink="http://www.w3.org/1999/xlink" width="417.593385pt" height="382.177367pt" viewBox="0 0 417.593385 382.177367" xmlns="http://www.w3.org/2000/svg" version="1.1">
 <metadata>
  <rdf:RDF xmlns:dc="http://purl.org/dc/elements/1.1/" xmlns:cc="http://creativecommons.org/ns#" xmlns:rdf="http://www.w3.org/1999/02/22-rdf-syntax-ns#">
   <cc:Work>
    <dc:type rdf:resource="http://purl.org/dc/dcmitype/StillImage"/>
    <dc:date>2026-06-12T12:17:13.121401</dc:date>
    <dc:format>image/svg+xml</dc:format>
    <dc:creator>
     <cc:Agent>
      <dc:title>Matplotlib v3.10.6, https://matplotlib.org/</dc:title>
     </cc:Agent>
    </dc:creator>
   </cc:Work>
  </rdf:RDF>
 </metadata>
 <defs>
  <style type="text/css">*{stroke-linejoin: round; stroke-linecap: butt}</style>
 </defs>
 <g id="figure_1">
  <g id="patch_1">
   <path d="M 0 382.177367 
L 417.593385 382.177367 
L 417.593385 0 
L 0 0 
z
" style="fill: #ffffff"/>
  </g>
  <g id="axes_1">
   <g id="patch_2">
    <path d="M 136.658453 289.473382 
C 121.748359 275.743762 109.846267 259.07009 101.705808 240.508131 
C 93.56535 221.946172 89.362045 201.896151 89.362045 181.627619 
C 89.362045 161.359087 93.56535 141.309065 101.705808 122.747107 
C 109.846267 104.185148 121.748359 87.511476 136.658453 73.781855 
C 109.171133 75.413318 83.321308 87.493407 64.436248 107.532593 
C 45.551188 127.571778 35.023898 154.091925 35.023898 181.627619 
C 35.023898 209.163313 45.551188 235.68346 64.436248 255.722645 
C 83.321308 275.761831 109.171133 287.841919 136.658453 289.473382 
" clip-path="url(#pd66cfd706b)" style="fill: #90caf9; opacity: 0.55"/>
   </g>
   <g id="patch_3">
    <path d="M 136.658453 73.781855 
C 151.35872 72.909346 166.083343 75.051631 179.92556 80.076785 
C 193.767776 85.10194 206.437489 92.904649 217.15448 103.004412 
C 227.871472 113.104176 236.411142 125.289328 242.247606 138.809491 
C 248.08407 152.329654 251.095011 166.901482 251.095011 181.627619 
C 251.095011 196.353756 248.08407 210.925583 242.247606 224.445746 
C 236.411142 237.96591 227.871472 250.151062 217.15448 260.250825 
C 206.437489 270.350588 193.767776 278.153298 179.92556 283.178452 
C 166.083343 288.203607 151.35872 290.345892 136.658453 289.473382 
C 157.607769 308.764082 183.730944 321.538946 211.820188 326.229286 
C 239.909432 330.919627 268.765938 327.325267 294.846279 315.887577 
C 320.926619 304.449887 343.117724 285.657009 358.694641 261.816611 
C 374.271558 237.976213 382.569488 210.105767 382.569488 181.627619 
C 382.569488 153.149471 374.271558 125.279025 358.694641 101.438627 
C 343.117724 77.598229 320.926619 58.805351 294.846279 47.367661 
C 268.765938 35.92997 239.909432 32.335611 211.820188 37.025952 
C 183.730944 41.716292 157.607769 54.491156 136.658453 73.781855 
" clip-path="url(#pd66cfd706b)" style="fill: #0072b2; opacity: 0.55"/>
   </g>
   <g id="patch_4">
    <path d="M 136.658453 289.473382 
C 151.35872 290.345892 166.083343 288.203607 179.92556 283.178452 
C 193.767776 278.153298 206.437489 270.350588 217.15448 260.250825 
C 227.871472 250.151062 236.411142 237.96591 242.247606 224.445746 
C 248.08407 210.925583 251.095011 196.353756 251.095011 181.627619 
C 251.095011 166.901482 248.08407 152.329654 242.247606 138.809491 
C 236.411142 125.289328 227.871472 113.104176 217.15448 103.004412 
C 206.437489 92.904649 193.767776 85.10194 179.92556 80.076785 
C 166.083343 75.051631 151.35872 72.909346 136.658453 73.781855 
C 121.748359 87.511476 109.846267 104.185148 101.705808 122.747107 
C 93.56535 141.309065 89.362045 161.359087 89.362045 181.627619 
C 89.362045 201.896151 93.56535 221.946172 101.705808 240.508131 
C 109.846267 259.07009 121.748359 275.743762 136.658453 289.473382 
" clip-path="url(#pd66cfd706b)" style="fill: #65ddff; opacity: 0.55"/>
   </g>
   <g id="text_1">
    <text style="font-size: 10px; font-family: 'Helvetica', 'Arial', 'DejaVu Sans', sans-serif" transform="translate(53.851565 178.781838)">594</text>
    <text style="font-size: 10px; font-family: 'Helvetica', 'Arial', 'DejaVu Sans', sans-serif" transform="translate(44.686721 189.562463)">(12.8%)</text>
   </g>
   <g id="text_2">
    <text style="font-size: 10px; font-family: 'Helvetica', 'Arial', 'DejaVu Sans', sans-serif" transform="translate(304.321312 178.781838)">2,446</text>
    <text style="font-size: 10px; font-family: 'Helvetica', 'Arial', 'DejaVu Sans', sans-serif" transform="translate(299.325999 189.562463)">(52.6%)</text>
   </g>
   <g id="text_3">
    <text style="font-size: 10px; font-family: 'Helvetica', 'Arial', 'DejaVu Sans', sans-serif" transform="translate(157.71759 178.781838)">1,607</text>
    <text style="font-size: 10px; font-family: 'Helvetica', 'Arial', 'DejaVu Sans', sans-serif" transform="translate(152.722278 189.562463)">(34.6%)</text>
   </g>
   <g id="text_4">
    <text style="font-size: 11px; font-family: 'Helvetica', 'Arial', 'DejaVu Sans', sans-serif" transform="translate(81.311642 310.285921)">Walzer 2022</text>
    <text style="font-size: 11px; font-family: 'Helvetica', 'Arial', 'DejaVu Sans', sans-serif" transform="translate(78.281485 322.247733)">(E-PROT-73)</text>
    <text style="font-size: 11px; font-family: 'Helvetica', 'Arial', 'DejaVu Sans', sans-serif" transform="translate(95.66836 334.106421)">(n=2,201)</text>
   </g>
   <g id="text_5">
    <text style="font-size: 11px; font-family: 'Helvetica', 'Arial', 'DejaVu Sans', sans-serif" transform="translate(235.965767 348.879867)">quantmsdiann</text>
    <!-- (DIA-NN, $\geq$50% of runs) -->
    <g transform="translate(235.965767 360.808679)">
     <text>
      <tspan x="0" y="-0.984375" style="font-size: 11px; font-family: 'Helvetica'">(</tspan>
      <tspan x="3.663086" y="-0.984375" style="font-size: 11px; font-family: 'Helvetica'">D</tspan>
      <tspan x="11.606934" y="-0.984375" style="font-size: 11px; font-family: 'Helvetica'">I</tspan>
      <tspan x="14.663086" y="-0.984375" style="font-size: 11px; font-family: 'Helvetica'">A</tspan>
      <tspan x="22" y="-0.984375" style="font-size: 11px; font-family: 'Helvetica'">-</tspan>
      <tspan x="25.663086" y="-0.984375" style="font-size: 11px; font-family: 'Helvetica'">N</tspan>
      <tspan x="33.606934" y="-0.984375" style="font-size: 11px; font-family: 'Helvetica'">N</tspan>
      <tspan x="41.550781" y="-0.984375" style="font-size: 11px; font-family: 'Helvetica'">,</tspan>
      <tspan x="44.606934" y="-0.984375" style="font-size: 11px; font-family: 'Helvetica'"> </tspan>
      <tspan x="61.166016" y="-0.984375" style="font-size: 11px; font-family: 'Helvetica'">5</tspan>
      <tspan x="67.283691" y="-0.984375" style="font-size: 11px; font-family: 'Helvetica'">0</tspan>
      <tspan x="73.401367" y="-0.984375" style="font-size: 11px; font-family: 'Helvetica'">%</tspan>
      <tspan x="83.182129" y="-0.984375" style="font-size: 11px; font-family: 'Helvetica'"> </tspan>
      <tspan x="86.238281" y="-0.984375" style="font-size: 11px; font-family: 'Helvetica'">o</tspan>
      <tspan x="92.355957" y="-0.984375" style="font-size: 11px; font-family: 'Helvetica'">f</tspan>
      <tspan x="95.412109" y="-0.984375" style="font-size: 11px; font-family: 'Helvetica'"> </tspan>
      <tspan x="98.468262" y="-0.984375" style="font-size: 11px; font-family: 'Helvetica'">r</tspan>
      <tspan x="102.131348" y="-0.984375" style="font-size: 11px; font-family: 'Helvetica'">u</tspan>
      <tspan x="108.249023" y="-0.984375" style="font-size: 11px; font-family: 'Helvetica'">n</tspan>
      <tspan x="114.366699" y="-0.984375" style="font-size: 11px; font-family: 'Helvetica'">s</tspan>
      <tspan x="119.866699" y="-0.984375" style="font-size: 11px; font-family: 'Helvetica'">)</tspan>
      <tspan x="49.806152" y="-0.984375" style="font-size: 11px; font-family: 'DejaVu Sans'">≥</tspan>
     </text>
    </g>
    <text style="font-size: 11px; font-family: 'Helvetica', 'Arial', 'DejaVu Sans', sans-serif" transform="translate(235.965767 372.684554)">(n=4,053)</text>
   </g>
  </g>
 </g>
 <defs>
  <clipPath id="pd66cfd706b">
   <rect x="7.2" y="7.2" width="403.193385" height="348.855238"/>
  </clipPath>
 </defs>
</svg>
