<?xml version="1.0" encoding="utf-8" standalone="no"?>
<!DOCTYPE svg PUBLIC "-//W3C//DTD SVG 1.1//EN"
  "http://www.w3.org/Graphics/SVG/1.1/DTD/svg11.dtd">
<svg xmlns:xlink="http://www.w3.org/1999/xlink" width="699.840937pt" height="266.844687pt" viewBox="0 0 699.840937 266.844687" xmlns="http://www.w3.org/2000/svg" version="1.1">
 <metadata>
  <rdf:RDF xmlns:dc="http://purl.org/dc/elements/1.1/" xmlns:cc="http://creativecommons.org/ns#" xmlns:rdf="http://www.w3.org/1999/02/22-rdf-syntax-ns#">
   <cc:Work>
    <dc:type rdf:resource="http://purl.org/dc/dcmitype/StillImage"/>
    <dc:date>2026-06-23T17:04:51.385846</dc:date>
    <dc:format>image/svg+xml</dc:format>
    <dc:creator>
     <cc:Agent>
      <dc:title>Matplotlib v3.10.8, https://matplotlib.org/</dc:title>
     </cc:Agent>
    </dc:creator>
   </cc:Work>
  </rdf:RDF>
 </metadata>
 <defs>
  <style type="text/css">*{stroke-linejoin: round; stroke-linecap: butt}</style>
 </defs>
 <g id="figure_1">
  <g id="patch_1">
   <path d="M 0 266.844687 
L 699.840937 266.844687 
L 699.840937 0 
L 0 0 
z
" style="fill: #ffffff"/>
  </g>
  <g id="axes_1">
   <g id="patch_2">
    <path d="M 53.570938 219.5125 
L 692.640938 219.5125 
L 692.640938 7.2 
L 53.570938 7.2 
z
" style="fill: #ffffff"/>
   </g>
   <g id="matplotlib.axis_1">
    <g id="xtick_1">
     <g id="line2d_1">
      <defs>
       <path id="m58cc68d00b" d="M 0 0 
L 0 3.5 
" style="stroke: #000000; stroke-width: 0.8"/>
      </defs>
      <g>
       <use xlink:href="#m58cc68d00b" x="82.619574" y="219.5125" style="stroke: #000000; stroke-width: 0.8"/>
      </g>
     </g>
     <g id="text_1">
      <text style="font-size: 14px; font-family: 'Helvetica', 'Arial', 'DejaVu Sans', sans-serif; text-anchor: middle" x="82.619574" y="236.555312" transform="rotate(-0 82.619574 236.555312)">0</text>
     </g>
    </g>
    <g id="xtick_2">
     <g id="line2d_2">
      <g>
       <use xlink:href="#m58cc68d00b" x="181.089528" y="219.5125" style="stroke: #000000; stroke-width: 0.8"/>
      </g>
     </g>
     <g id="text_2">
      <text style="font-size: 14px; font-family: 'Helvetica', 'Arial', 'DejaVu Sans', sans-serif; text-anchor: middle" x="181.089528" y="236.555312" transform="rotate(-0 181.089528 236.555312)">20</text>
     </g>
    </g>
    <g id="xtick_3">
     <g id="line2d_3">
      <g>
       <use xlink:href="#m58cc68d00b" x="279.559481" y="219.5125" style="stroke: #000000; stroke-width: 0.8"/>
      </g>
     </g>
     <g id="text_3">
      <text style="font-size: 14px; font-family: 'Helvetica', 'Arial', 'DejaVu Sans', sans-serif; text-anchor: middle" x="279.559481" y="236.555312" transform="rotate(-0 279.559481 236.555312)">40</text>
     </g>
    </g>
    <g id="xtick_4">
     <g id="line2d_4">
      <g>
       <use xlink:href="#m58cc68d00b" x="378.029435" y="219.5125" style="stroke: #000000; stroke-width: 0.8"/>
      </g>
     </g>
     <g id="text_4">
      <text style="font-size: 14px; font-family: 'Helvetica', 'Arial', 'DejaVu Sans', sans-serif; text-anchor: middle" x="378.029435" y="236.555312" transform="rotate(-0 378.029435 236.555312)">60</text>
     </g>
    </g>
    <g id="xtick_5">
     <g id="line2d_5">
      <g>
       <use xlink:href="#m58cc68d00b" x="476.499389" y="219.5125" style="stroke: #000000; stroke-width: 0.8"/>
      </g>
     </g>
     <g id="text_5">
      <text style="font-size: 14px; font-family: 'Helvetica', 'Arial', 'DejaVu Sans', sans-serif; text-anchor: middle" x="476.499389" y="236.555312" transform="rotate(-0 476.499389 236.555312)">80</text>
     </g>
    </g>
    <g id="xtick_6">
     <g id="line2d_6">
      <g>
       <use xlink:href="#m58cc68d00b" x="574.969343" y="219.5125" style="stroke: #000000; stroke-width: 0.8"/>
      </g>
     </g>
     <g id="text_6">
      <text style="font-size: 14px; font-family: 'Helvetica', 'Arial', 'DejaVu Sans', sans-serif; text-anchor: middle" x="574.969343" y="236.555312" transform="rotate(-0 574.969343 236.555312)">100</text>
     </g>
    </g>
    <g id="xtick_7">
     <g id="line2d_7">
      <g>
       <use xlink:href="#m58cc68d00b" x="673.439297" y="219.5125" style="stroke: #000000; stroke-width: 0.8"/>
      </g>
     </g>
     <g id="text_7">
      <text style="font-size: 14px; font-family: 'Helvetica', 'Arial', 'DejaVu Sans', sans-serif; text-anchor: middle" x="673.439297" y="236.555312" transform="rotate(-0 673.439297 236.555312)">120</text>
     </g>
    </g>
    <g id="text_8">
     <text style="font-size: 17px; font-family: 'Helvetica', 'Arial', 'DejaVu Sans', sans-serif; text-anchor: middle" x="373.105938" y="256.000312" transform="rotate(-0 373.105938 256.000312)">MS run index (119 runs, ordered by acquisition date)</text>
    </g>
   </g>
   <g id="matplotlib.axis_2">
    <g id="ytick_1">
     <g id="line2d_8">
      <defs>
       <path id="mc0aa4ea80b" d="M 0 0 
L -3.5 0 
" style="stroke: #000000; stroke-width: 0.8"/>
      </defs>
      <g>
       <use xlink:href="#mc0aa4ea80b" x="53.570938" y="219.5125" style="stroke: #000000; stroke-width: 0.8"/>
      </g>
     </g>
     <g id="text_9">
      <text style="font-size: 14px; font-family: 'Helvetica', 'Arial', 'DejaVu Sans', sans-serif; text-anchor: end" x="46.570938" y="224.533906" transform="rotate(-0 46.570938 224.533906)">0.0</text>
     </g>
    </g>
    <g id="ytick_2">
     <g id="line2d_9">
      <g>
       <use xlink:href="#mc0aa4ea80b" x="53.570938" y="179.072024" style="stroke: #000000; stroke-width: 0.8"/>
      </g>
     </g>
     <g id="text_10">
      <text style="font-size: 14px; font-family: 'Helvetica', 'Arial', 'DejaVu Sans', sans-serif; text-anchor: end" x="46.570938" y="184.09343" transform="rotate(-0 46.570938 184.09343)">0.2</text>
     </g>
    </g>
    <g id="ytick_3">
     <g id="line2d_10">
      <g>
       <use xlink:href="#mc0aa4ea80b" x="53.570938" y="138.631548" style="stroke: #000000; stroke-width: 0.8"/>
      </g>
     </g>
     <g id="text_11">
      <text style="font-size: 14px; font-family: 'Helvetica', 'Arial', 'DejaVu Sans', sans-serif; text-anchor: end" x="46.570938" y="143.652954" transform="rotate(-0 46.570938 143.652954)">0.4</text>
     </g>
    </g>
    <g id="ytick_4">
     <g id="line2d_11">
      <g>
       <use xlink:href="#mc0aa4ea80b" x="53.570938" y="98.191071" style="stroke: #000000; stroke-width: 0.8"/>
      </g>
     </g>
     <g id="text_12">
      <text style="font-size: 14px; font-family: 'Helvetica', 'Arial', 'DejaVu Sans', sans-serif; text-anchor: end" x="46.570938" y="103.212478" transform="rotate(-0 46.570938 103.212478)">0.6</text>
     </g>
    </g>
    <g id="ytick_5">
     <g id="line2d_12">
      <g>
       <use xlink:href="#mc0aa4ea80b" x="53.570938" y="57.750595" style="stroke: #000000; stroke-width: 0.8"/>
      </g>
     </g>
     <g id="text_13">
      <text style="font-size: 14px; font-family: 'Helvetica', 'Arial', 'DejaVu Sans', sans-serif; text-anchor: end" x="46.570938" y="62.772001" transform="rotate(-0 46.570938 62.772001)">0.8</text>
     </g>
    </g>
    <g id="ytick_6">
     <g id="line2d_13">
      <g>
       <use xlink:href="#mc0aa4ea80b" x="53.570938" y="17.310119" style="stroke: #000000; stroke-width: 0.8"/>
      </g>
     </g>
     <g id="text_14">
      <text style="font-size: 14px; font-family: 'Helvetica', 'Arial', 'DejaVu Sans', sans-serif; text-anchor: end" x="46.570938" y="22.331525" transform="rotate(-0 46.570938 22.331525)">1.0</text>
     </g>
    </g>
    <g id="text_15">
     <text style="font-size: 17px; font-family: 'Helvetica', 'Arial', 'DejaVu Sans', sans-serif; text-anchor: middle" x="19.5675" y="113.35625" transform="rotate(-90 19.5675 113.35625)">Fraction of precursors quantified per run</text>
    </g>
   </g>
   <g id="line2d_14">
    <path d="M 82.619574 147.566674 
L 87.543072 135.800029 
L 92.466569 135.820929 
L 97.390067 137.054023 
L 102.313565 135.068532 
L 107.237062 145.117205 
L 112.16056 141.338503 
L 117.084058 147.102696 
L 122.007555 134.575294 
L 126.931053 136.251467 
L 131.854551 136.067548 
L 136.778048 131.787247 
L 141.701546 136.418666 
L 146.625044 134.880433 
L 151.548542 139.156553 
L 156.472039 164.177917 
L 161.395537 139.695771 
L 166.319035 143.165155 
L 171.242532 147.666994 
L 176.16603 130.905272 
L 181.089528 134.466615 
L 186.013025 139.127293 
L 190.936523 131.636768 
L 195.860021 143.608233 
L 200.783518 141.208924 
L 205.707016 132.439324 
L 210.630514 138.855595 
L 215.554011 133.994277 
L 220.477509 137.246302 
L 225.401007 134.579474 
L 230.324505 138.926654 
L 235.248002 136.824124 
L 240.1715 133.30458 
L 245.094998 134.341216 
L 250.018495 132.418424 
L 254.941993 139.77937 
L 259.865491 132.146726 
L 264.788988 137.221222 
L 269.712486 140.038529 
L 274.635984 138.324737 
L 279.559481 151.884594 
L 284.482979 137.426041 
L 289.406477 154.88582 
L 294.329974 142.291539 
L 299.253472 138.287117 
L 304.17697 144.858047 
L 309.100468 137.994519 
L 314.023965 130.997231 
L 318.947463 134.077877 
L 323.870961 133.37564 
L 328.794458 132.393345 
L 333.717956 134.165656 
L 338.641454 139.733391 
L 343.564951 135.223191 
L 348.488449 127.736846 
L 353.411947 133.751838 
L 358.335444 130.382774 
L 363.258942 147.875993 
L 368.18244 136.544065 
L 373.105938 136.184587 
L 378.029435 137.497101 
L 382.952933 133.133201 
L 387.876431 143.850671 
L 392.799928 138.868135 
L 397.723426 146.709778 
L 402.646924 133.28368 
L 407.570421 137.948539 
L 412.493919 132.443504 
L 417.417417 127.477687 
L 422.340914 133.956657 
L 427.264412 126.503752 
L 432.18791 134.566934 
L 437.111407 166.685905 
L 442.034905 142.350058 
L 446.958403 144.272849 
L 451.881901 145.480864 
L 456.805398 131.394329 
L 461.728896 135.026732 
L 466.652394 138.671675 
L 471.575891 128.029445 
L 476.499389 137.68102 
L 481.422887 132.476944 
L 486.346384 126.436872 
L 491.269882 133.4467 
L 496.19338 129.17894 
L 501.116877 135.122872 
L 506.040375 130.938711 
L 510.963873 135.081072 
L 515.88737 127.975105 
L 520.810868 130.340974 
L 525.734366 132.155086 
L 530.657864 127.653247 
L 535.581361 134.161476 
L 540.504859 125.258118 
L 545.428357 131.31909 
L 550.351854 132.226145 
L 555.275352 134.554395 
L 560.19885 144.828787 
L 565.122347 131.866667 
L 570.045845 152.975569 
L 574.969343 139.499312 
L 579.89284 133.902318 
L 584.816338 138.797075 
L 589.739836 134.257616 
L 594.663333 127.586367 
L 599.586831 129.985676 
L 604.510329 131.013951 
L 609.433827 127.753566 
L 614.357324 129.935516 
L 619.280822 135.59103 
L 624.20432 131.390149 
L 629.127817 133.187541 
L 634.051315 132.740283 
L 638.974813 149.991063 
L 643.89831 148.862468 
L 648.821808 158.664523 
L 653.745306 160.202755 
L 658.668803 148.870828 
L 663.592301 151.909674 
" clip-path="url(#pd1c5607e48)" style="fill: none; stroke: #9e9e9e; stroke-linecap: square"/>
   </g>
   <g id="line2d_15">
    <path d="M 82.619574 150.865591 
L 87.543072 139.969099 
L 92.466569 145.275404 
L 97.390067 144.994822 
L 102.313565 145.679772 
L 107.237062 148.67705 
L 112.16056 143.667833 
L 117.084058 146.642004 
L 122.007555 142.991135 
L 126.931053 144.88754 
L 131.854551 142.355699 
L 136.778048 138.566188 
L 141.701546 140.553371 
L 146.625044 139.566381 
L 151.548542 140.645798 
L 156.472039 164.554701 
L 161.395537 145.651714 
L 166.319035 149.109477 
L 171.242532 149.93967 
L 176.16603 141.078224 
L 181.089528 144.800065 
L 186.013025 146.873072 
L 190.936523 143.529192 
L 195.860021 151.213843 
L 200.783518 144.725793 
L 205.707016 141.743369 
L 210.630514 145.70618 
L 215.554011 142.981232 
L 220.477509 147.284042 
L 225.401007 144.654822 
L 230.324505 146.704722 
L 235.248002 142.410164 
L 240.1715 144.332978 
L 245.094998 143.223853 
L 250.018495 142.902009 
L 254.941993 145.346375 
L 259.865491 141.771427 
L 264.788988 147.117343 
L 269.712486 147.013363 
L 274.635984 148.441031 
L 279.559481 151.51093 
L 284.482979 147.505207 
L 289.406477 158.885291 
L 294.329974 149.261321 
L 299.253472 148.305691 
L 304.17697 148.975788 
L 309.100468 144.935404 
L 314.023965 146.775693 
L 318.947463 148.536759 
L 323.870961 147.346761 
L 328.794458 145.012977 
L 333.717956 145.440452 
L 338.641454 148.477342 
L 343.564951 144.522783 
L 348.488449 141.934825 
L 353.411947 145.805209 
L 358.335444 145.684724 
L 363.258942 155.716362 
L 368.18244 146.229383 
L 373.105938 149.454428 
L 378.029435 151.514231 
L 382.952933 152.275104 
L 387.876431 152.983162 
L 392.799928 149.12103 
L 397.723426 152.80821 
L 402.646924 147.718119 
L 407.570421 152.507822 
L 412.493919 149.753165 
L 417.417417 142.857446 
L 422.340914 149.416467 
L 427.264412 145.716083 
L 432.18791 148.688604 
L 437.111407 171.356344 
L 442.034905 155.50345 
L 446.958403 155.937527 
L 451.881901 154.339859 
L 456.805398 148.663846 
L 461.728896 151.005882 
L 466.652394 152.791706 
L 471.575891 135.078717 
L 476.499389 140.229876 
L 481.422887 136.354541 
L 486.346384 126.535814 
L 491.269882 131.814061 
L 496.19338 131.056489 
L 501.116877 133.649398 
L 506.040375 130.699984 
L 510.963873 137.930752 
L 515.88737 134.525805 
L 520.810868 132.842312 
L 525.734366 131.828915 
L 530.657864 129.724549 
L 535.581361 134.847649 
L 540.504859 129.224452 
L 545.428357 134.121436 
L 550.351854 135.570561 
L 555.275352 136.640074 
L 560.19885 141.408321 
L 565.122347 131.936196 
L 570.045845 146.985305 
L 574.969343 136.298424 
L 579.89284 135.717454 
L 584.816338 134.141242 
L 589.739836 129.374646 
L 594.663333 132.913283 
L 599.586831 134.585222 
L 604.510329 132.192021 
L 609.433827 133.096486 
L 614.357324 133.481049 
L 619.280822 133.418331 
L 624.20432 132.043478 
L 629.127817 130.006781 
L 634.051315 134.40697 
L 638.974813 152.894036 
L 643.89831 153.130055 
L 648.821808 161.063929 
L 653.745306 161.423734 
L 658.668803 150.768213 
L 663.592301 153.067336 
" clip-path="url(#pd1c5607e48)" style="fill: none; stroke: #0072b2; stroke-linecap: square"/>
   </g>
   <g id="patch_3">
    <path d="M 53.570938 219.5125 
L 53.570938 7.2 
" style="fill: none; stroke: #000000; stroke-width: 0.8; stroke-linejoin: miter; stroke-linecap: square"/>
   </g>
   <g id="patch_4">
    <path d="M 53.570938 219.5125 
L 692.640937 219.5125 
" style="fill: none; stroke: #000000; stroke-width: 0.8; stroke-linejoin: miter; stroke-linecap: square"/>
   </g>
   <g id="legend_1">
    <g id="line2d_16">
     <path d="M 481.339375 178.969375 
L 495.339375 178.969375 
L 509.339375 178.969375 
" style="fill: none; stroke: #9e9e9e; stroke-linecap: square"/>
    </g>
    <g id="text_16">
     <text style="font-size: 14px; font-family: 'Helvetica', 'Arial', 'DejaVu Sans', sans-serif; text-anchor: start" x="520.539375" y="183.869375" transform="rotate(-0 520.539375 183.869375)">Guo 2019 (OpenSWATH)</text>
    </g>
    <g id="line2d_17">
     <path d="M 481.339375 199.094375 
L 495.339375 199.094375 
L 509.339375 199.094375 
" style="fill: none; stroke: #0072b2; stroke-linecap: square"/>
    </g>
    <g id="text_17">
     <text style="font-size: 14px; font-family: 'Helvetica', 'Arial', 'DejaVu Sans', sans-serif; text-anchor: start" x="520.539375" y="203.994375" transform="rotate(-0 520.539375 203.994375)">quantmsdiann (DIA-NN)</text>
    </g>
   </g>
  </g>
 </g>
 <defs>
  <clipPath id="pd1c5607e48">
   <rect x="53.570938" y="7.2" width="639.07" height="212.3125"/>
  </clipPath>
 </defs>
</svg>
