<?xml version="1.0" encoding="utf-8" standalone="no"?>
<!DOCTYPE svg PUBLIC "-//W3C//DTD SVG 1.1//EN"
  "http://www.w3.org/Graphics/SVG/1.1/DTD/svg11.dtd">
<svg xmlns:xlink="http://www.w3.org/1999/xlink" width="699.803437pt" height="267.884375pt" viewBox="0 0 699.803437 267.884375" xmlns="http://www.w3.org/2000/svg" version="1.1">
 <metadata>
  <rdf:RDF xmlns:dc="http://purl.org/dc/elements/1.1/" xmlns:cc="http://creativecommons.org/ns#" xmlns:rdf="http://www.w3.org/1999/02/22-rdf-syntax-ns#">
   <cc:Work>
    <dc:type rdf:resource="http://purl.org/dc/dcmitype/StillImage"/>
    <dc:date>2026-06-21T17:30:48.892095</dc:date>
    <dc:format>image/svg+xml</dc:format>
    <dc:creator>
     <cc:Agent>
      <dc:title>Matplotlib v3.11.0, https://matplotlib.org/</dc:title>
     </cc:Agent>
    </dc:creator>
   </cc:Work>
  </rdf:RDF>
 </metadata>
 <defs>
  <style type="text/css">*{stroke-linejoin: round; stroke-linecap: butt}</style>
 </defs>
 <g id="figure_1">
  <g id="patch_1">
   <path d="M 0 267.884375 
L 699.803437 267.884375 
L 699.803437 0 
L 0 0 
z
" style="fill: #ffffff"/>
  </g>
  <g id="axes_1">
   <g id="patch_2">
    <path d="M 53.953438 220.411094 
L 692.603438 220.411094 
L 692.603438 7.2 
L 53.953438 7.2 
z
" style="fill: #ffffff"/>
   </g>
   <g id="matplotlib.axis_1">
    <g id="xtick_1">
     <g id="line2d_1">
      <defs>
       <path id="m0c44b47401" d="M 0 0 
L 0 3.5 
" style="stroke: #000000; stroke-width: 0.8"/>
      </defs>
      <g>
       <use xlink:href="#m0c44b47401" x="82.982983" y="220.411094" style="stroke: #000000; stroke-width: 0.8"/>
      </g>
     </g>
     <g id="text_1">
      <text style="font-size: 14px; font-family: 'Helvetica', 'Arial', 'DejaVu Sans', sans-serif; text-anchor: middle" x="82.982983" y="237.911094" transform="rotate(-0 82.982983 237.911094)">0</text>
     </g>
    </g>
    <g id="xtick_2">
     <g id="line2d_2">
      <g>
       <use xlink:href="#m0c44b47401" x="181.388222" y="220.411094" style="stroke: #000000; stroke-width: 0.8"/>
      </g>
     </g>
     <g id="text_2">
      <text style="font-size: 14px; font-family: 'Helvetica', 'Arial', 'DejaVu Sans', sans-serif; text-anchor: middle" x="181.388222" y="237.911094" transform="rotate(-0 181.388222 237.911094)">20</text>
     </g>
    </g>
    <g id="xtick_3">
     <g id="line2d_3">
      <g>
       <use xlink:href="#m0c44b47401" x="279.793461" y="220.411094" style="stroke: #000000; stroke-width: 0.8"/>
      </g>
     </g>
     <g id="text_3">
      <text style="font-size: 14px; font-family: 'Helvetica', 'Arial', 'DejaVu Sans', sans-serif; text-anchor: middle" x="279.793461" y="237.911094" transform="rotate(-0 279.793461 237.911094)">40</text>
     </g>
    </g>
    <g id="xtick_4">
     <g id="line2d_4">
      <g>
       <use xlink:href="#m0c44b47401" x="378.198699" y="220.411094" style="stroke: #000000; stroke-width: 0.8"/>
      </g>
     </g>
     <g id="text_4">
      <text style="font-size: 14px; font-family: 'Helvetica', 'Arial', 'DejaVu Sans', sans-serif; text-anchor: middle" x="378.198699" y="237.911094" transform="rotate(-0 378.198699 237.911094)">60</text>
     </g>
    </g>
    <g id="xtick_5">
     <g id="line2d_5">
      <g>
       <use xlink:href="#m0c44b47401" x="476.603938" y="220.411094" style="stroke: #000000; stroke-width: 0.8"/>
      </g>
     </g>
     <g id="text_5">
      <text style="font-size: 14px; font-family: 'Helvetica', 'Arial', 'DejaVu Sans', sans-serif; text-anchor: middle" x="476.603938" y="237.911094" transform="rotate(-0 476.603938 237.911094)">80</text>
     </g>
    </g>
    <g id="xtick_6">
     <g id="line2d_6">
      <g>
       <use xlink:href="#m0c44b47401" x="575.009177" y="220.411094" style="stroke: #000000; stroke-width: 0.8"/>
      </g>
     </g>
     <g id="text_6">
      <text style="font-size: 14px; font-family: 'Helvetica', 'Arial', 'DejaVu Sans', sans-serif; text-anchor: middle" x="575.009177" y="237.911094" transform="rotate(-0 575.009177 237.911094)">100</text>
     </g>
    </g>
    <g id="xtick_7">
     <g id="line2d_7">
      <g>
       <use xlink:href="#m0c44b47401" x="673.414416" y="220.411094" style="stroke: #000000; stroke-width: 0.8"/>
      </g>
     </g>
     <g id="text_7">
      <text style="font-size: 14px; font-family: 'Helvetica', 'Arial', 'DejaVu Sans', sans-serif; text-anchor: middle" x="673.414416" y="237.911094" transform="rotate(-0 673.414416 237.911094)">120</text>
     </g>
    </g>
    <g id="text_8">
     <text style="font-size: 17px; font-family: 'Helvetica', 'Arial', 'DejaVu Sans', sans-serif; text-anchor: middle" x="373.278437" y="257.04" transform="rotate(-0 373.278437 257.04)">MS run index (119 runs, ordered by acquisition date)</text>
    </g>
   </g>
   <g id="matplotlib.axis_2">
    <g id="ytick_1">
     <g id="line2d_8">
      <defs>
       <path id="m05ac8b0666" d="M 0 0 
L -3.5 0 
" style="stroke: #000000; stroke-width: 0.8"/>
      </defs>
      <g>
       <use xlink:href="#m05ac8b0666" x="53.953438" y="220.411094" style="stroke: #000000; stroke-width: 0.8"/>
      </g>
     </g>
     <g id="text_9">
      <text style="font-size: 14px; font-family: 'Helvetica', 'Arial', 'DejaVu Sans', sans-serif; text-anchor: end" x="46.953438" y="225.661094" transform="rotate(-0 46.953438 225.661094)">0.0</text>
     </g>
    </g>
    <g id="ytick_2">
     <g id="line2d_9">
      <g>
       <use xlink:href="#m05ac8b0666" x="53.953438" y="179.799457" style="stroke: #000000; stroke-width: 0.8"/>
      </g>
     </g>
     <g id="text_10">
      <text style="font-size: 14px; font-family: 'Helvetica', 'Arial', 'DejaVu Sans', sans-serif; text-anchor: end" x="46.953438" y="185.049457" transform="rotate(-0 46.953438 185.049457)">0.2</text>
     </g>
    </g>
    <g id="ytick_3">
     <g id="line2d_10">
      <g>
       <use xlink:href="#m05ac8b0666" x="53.953438" y="139.18782" style="stroke: #000000; stroke-width: 0.8"/>
      </g>
     </g>
     <g id="text_11">
      <text style="font-size: 14px; font-family: 'Helvetica', 'Arial', 'DejaVu Sans', sans-serif; text-anchor: end" x="46.953438" y="144.43782" transform="rotate(-0 46.953438 144.43782)">0.4</text>
     </g>
    </g>
    <g id="ytick_4">
     <g id="line2d_11">
      <g>
       <use xlink:href="#m05ac8b0666" x="53.953438" y="98.576183" style="stroke: #000000; stroke-width: 0.8"/>
      </g>
     </g>
     <g id="text_12">
      <text style="font-size: 14px; font-family: 'Helvetica', 'Arial', 'DejaVu Sans', sans-serif; text-anchor: end" x="46.953438" y="103.826183" transform="rotate(-0 46.953438 103.826183)">0.6</text>
     </g>
    </g>
    <g id="ytick_5">
     <g id="line2d_12">
      <g>
       <use xlink:href="#m05ac8b0666" x="53.953438" y="57.964546" style="stroke: #000000; stroke-width: 0.8"/>
      </g>
     </g>
     <g id="text_13">
      <text style="font-size: 14px; font-family: 'Helvetica', 'Arial', 'DejaVu Sans', sans-serif; text-anchor: end" x="46.953438" y="63.214546" transform="rotate(-0 46.953438 63.214546)">0.8</text>
     </g>
    </g>
    <g id="ytick_6">
     <g id="line2d_13">
      <g>
       <use xlink:href="#m05ac8b0666" x="53.953438" y="17.352909" style="stroke: #000000; stroke-width: 0.8"/>
      </g>
     </g>
     <g id="text_14">
      <text style="font-size: 14px; font-family: 'Helvetica', 'Arial', 'DejaVu Sans', sans-serif; text-anchor: end" x="46.953438" y="22.602909" transform="rotate(-0 46.953438 22.602909)">1.0</text>
     </g>
    </g>
    <g id="text_15">
     <text style="font-size: 17px; font-family: 'Helvetica', 'Arial', 'DejaVu Sans', sans-serif; text-anchor: middle" x="19.95" y="113.805547" transform="rotate(-90 19.95 113.805547)">Fraction of precursors quantified per run</text>
    </g>
   </g>
   <g id="line2d_14">
    <path d="M 82.982983 148.160764 
L 87.903245 136.344317 
L 92.823507 136.365305 
L 97.743769 137.603619 
L 102.664031 135.609724 
L 107.584293 145.700928 
L 112.504555 141.906232 
L 117.424817 147.694822 
L 122.345078 135.114399 
L 127.26534 136.797666 
L 132.185602 136.612968 
L 137.105864 132.314552 
L 142.026126 136.965572 
L 146.946388 135.420829 
L 151.86665 139.715048 
L 156.786912 164.842312 
L 161.707174 140.256547 
L 166.627436 143.740615 
L 171.547698 148.261508 
L 176.46796 131.428843 
L 181.388222 135.00526 
L 186.308484 139.685664 
L 191.228746 132.163436 
L 196.149008 144.185568 
L 201.06927 141.776104 
L 205.989531 132.969389 
L 210.909793 139.412815 
L 215.830055 134.530923 
L 220.750317 137.796711 
L 225.670579 135.118597 
L 230.590841 139.484176 
L 235.511103 137.372747 
L 240.431365 133.838307 
L 245.351627 134.879329 
L 250.271889 132.9484 
L 255.192151 140.340501 
L 260.112413 132.675552 
L 265.032675 137.771525 
L 269.952937 140.600756 
L 274.873199 138.879711 
L 279.793461 152.496959 
L 284.713723 137.977211 
L 289.633984 155.510887 
L 294.554246 142.863302 
L 299.474508 138.841932 
L 304.39477 145.440672 
L 309.315032 138.548095 
L 314.235294 131.521192 
L 319.155556 134.614876 
L 324.075818 133.909667 
L 328.99608 132.923214 
L 333.916342 134.703027 
L 338.836604 140.294326 
L 343.756866 135.765038 
L 348.677128 128.247008 
L 353.59739 134.287458 
L 358.517652 130.904134 
L 363.437914 148.471391 
L 368.358176 137.091503 
L 373.278437 136.730503 
L 378.198699 138.048572 
L 383.118961 133.666202 
L 388.039223 144.429033 
L 392.959485 139.425408 
L 397.879747 147.300241 
L 402.800009 133.817318 
L 407.720271 138.50192 
L 412.640533 132.973586 
L 417.560795 127.986752 
L 422.481057 134.493144 
L 427.401319 127.008694 
L 432.321581 135.106004 
L 437.241843 167.360915 
L 442.162105 142.922069 
L 447.082367 144.852998 
L 452.002629 146.066125 
L 456.922891 131.919971 
L 461.843152 135.567748 
L 466.763414 139.228118 
L 471.683676 128.540845 
L 476.603938 138.233269 
L 481.5242 133.007168 
L 486.444462 126.941532 
L 491.364724 133.981028 
L 496.284986 129.695205 
L 501.205248 135.664294 
L 506.12551 131.462424 
L 511.045772 135.622317 
L 515.966034 128.486275 
L 520.886296 130.862157 
L 525.806558 132.683947 
L 530.72682 128.163054 
L 535.647082 134.69883 
L 540.567344 125.757788 
L 545.487605 131.844413 
L 550.407867 132.755307 
L 555.328129 135.093411 
L 560.248391 145.411288 
L 565.168653 132.394308 
L 570.088915 153.592551 
L 575.009177 140.059257 
L 579.929439 134.438574 
L 584.849701 139.354048 
L 589.769963 134.795376 
L 594.690225 128.095891 
L 599.610487 130.505355 
L 604.530749 131.537983 
L 609.451011 128.263798 
L 614.371273 130.454983 
L 619.291535 136.134433 
L 624.211797 131.915773 
L 629.132058 133.720772 
L 634.05232 133.271621 
L 638.972582 150.595413 
L 643.892844 149.462042 
L 648.813106 159.305583 
L 653.733368 160.850326 
L 658.65363 149.470437 
L 663.573892 152.522145 
" clip-path="url(#p0afad6f0eb)" style="fill: none; stroke: #9e9e9e; stroke-linecap: square"/>
   </g>
   <g id="line2d_15">
    <path d="M 82.982983 147.894709 
L 87.903245 138.625479 
L 92.823507 143.70877 
L 97.743769 141.314119 
L 102.664031 142.789197 
L 107.584293 143.758338 
L 112.504555 142.062768 
L 117.424817 143.137883 
L 122.345078 138.943398 
L 127.26534 143.060967 
L 132.185602 138.789566 
L 137.105864 135.475342 
L 142.026126 139.673245 
L 146.946388 137.589677 
L 151.86665 138.386185 
L 156.786912 163.416353 
L 161.707174 143.601088 
L 166.627436 145.378702 
L 171.547698 148.009228 
L 176.46796 138.926306 
L 181.388222 141.454277 
L 186.308484 144.349737 
L 191.228746 141.541449 
L 196.149008 149.40568 
L 201.06927 143.59596 
L 205.989531 137.44781 
L 210.909793 141.411546 
L 215.830055 141.249168 
L 220.750317 145.053945 
L 225.670579 140.688536 
L 230.590841 144.754828 
L 235.511103 138.304141 
L 240.431365 140.445824 
L 245.351627 140.162089 
L 250.271889 138.227225 
L 255.192151 144.395886 
L 260.112413 138.452845 
L 265.032675 145.679529 
L 269.952937 144.867638 
L 274.873199 144.132663 
L 279.793461 148.923674 
L 284.713723 143.848928 
L 289.633984 156.830636 
L 294.554246 148.458759 
L 299.474508 145.894893 
L 304.39477 148.245104 
L 309.315032 140.095428 
L 314.235294 144.619797 
L 319.155556 145.640216 
L 324.075818 143.691678 
L 328.99608 142.818254 
L 333.916342 143.548101 
L 338.836604 145.838488 
L 343.756866 142.091825 
L 348.677128 140.403092 
L 353.59739 143.390851 
L 358.517652 145.096676 
L 363.437914 155.405127 
L 368.358176 145.838488 
L 373.278437 150.932035 
L 378.198699 148.710018 
L 383.118961 151.055101 
L 388.039223 151.858446 
L 392.959485 147.681053 
L 397.879747 150.046647 
L 402.800009 144.450582 
L 407.720271 149.621045 
L 412.640533 144.377085 
L 417.560795 141.148323 
L 422.481057 144.799268 
L 427.401319 142.050804 
L 432.321581 144.751409 
L 437.241843 170.59005 
L 442.162105 150.463702 
L 447.082367 152.557526 
L 452.002629 152.829296 
L 456.922891 148.964695 
L 461.843152 149.227919 
L 466.763414 151.248245 
L 471.683676 131.694494 
L 476.603938 137.519598 
L 481.5242 128.370015 
L 486.444462 122.967095 
L 491.364724 128.332411 
L 496.284986 128.76485 
L 501.205248 133.55928 
L 506.12551 127.541031 
L 511.045772 133.260162 
L 515.966034 127.023131 
L 520.886296 129.111827 
L 525.806558 127.493173 
L 530.72682 125.349781 
L 535.647082 132.629451 
L 540.567344 124.78573 
L 545.487605 132.396994 
L 550.407867 133.268708 
L 555.328129 131.241545 
L 560.248391 138.181075 
L 565.168653 126.982109 
L 570.088915 144.530917 
L 575.009177 131.00396 
L 579.929439 131.224452 
L 584.849701 130.843291 
L 589.769963 126.884682 
L 594.690225 129.359667 
L 599.610487 131.106514 
L 604.530749 129.257112 
L 609.451011 128.773396 
L 614.371273 131.689367 
L 619.291535 130.004052 
L 624.211797 128.884497 
L 629.132058 126.361653 
L 634.05232 132.607231 
L 638.972582 149.928709 
L 643.892844 153.509575 
L 648.813106 159.216741 
L 653.733368 159.94317 
L 658.65363 149.800516 
L 663.573892 149.614208 
" clip-path="url(#p0afad6f0eb)" style="fill: none; stroke: #0072b2; stroke-linecap: square"/>
   </g>
   <g id="patch_3">
    <path d="M 53.953438 220.411094 
L 53.953438 7.2 
" style="fill: none; stroke: #000000; stroke-width: 0.8; stroke-linejoin: miter; stroke-linecap: square"/>
   </g>
   <g id="patch_4">
    <path d="M 53.953438 220.411094 
L 692.603437 220.411094 
" style="fill: none; stroke: #000000; stroke-width: 0.8; stroke-linejoin: miter; stroke-linecap: square"/>
   </g>
   <g id="legend_1">
    <g id="line2d_16">
     <path d="M 482.84625 179.574844 
L 496.84625 179.574844 
L 510.84625 179.574844 
" style="fill: none; stroke: #9e9e9e; stroke-linecap: square"/>
    </g>
    <g id="text_16">
     <text style="font-size: 14px; font-family: 'Helvetica', 'Arial', 'DejaVu Sans', sans-serif; text-anchor: start" x="522.04625" y="184.474844" transform="rotate(-0 522.04625 184.474844)">Guo 2019 (OpenSWATH)</text>
    </g>
    <g id="line2d_17">
     <path d="M 482.84625 199.992969 
L 496.84625 199.992969 
L 510.84625 199.992969 
" style="fill: none; stroke: #0072b2; stroke-linecap: square"/>
    </g>
    <g id="text_17">
     <text style="font-size: 14px; font-family: 'Helvetica', 'Arial', 'DejaVu Sans', sans-serif; text-anchor: start" x="522.04625" y="204.892969" transform="rotate(-0 522.04625 204.892969)">quantmsdiann (DIA-NN)</text>
    </g>
   </g>
  </g>
 </g>
 <defs>
  <clipPath id="p0afad6f0eb">
   <rect x="53.953438" y="7.2" width="638.65" height="213.211094"/>
  </clipPath>
 </defs>
</svg>
