<?xml version="1.0" encoding="utf-8" standalone="no"?>
<!DOCTYPE svg PUBLIC "-//W3C//DTD SVG 1.1//EN"
  "http://www.w3.org/Graphics/SVG/1.1/DTD/svg11.dtd">
<svg xmlns:xlink="http://www.w3.org/1999/xlink" width="720pt" height="288pt" viewBox="0 0 720 288" xmlns="http://www.w3.org/2000/svg" version="1.1">
 <metadata>
  <rdf:RDF xmlns:dc="http://purl.org/dc/elements/1.1/" xmlns:cc="http://creativecommons.org/ns#" xmlns:rdf="http://www.w3.org/1999/02/22-rdf-syntax-ns#">
   <cc:Work>
    <dc:type rdf:resource="http://purl.org/dc/dcmitype/StillImage"/>
    <dc:date>2026-05-28T21:56:45.031047</dc:date>
    <dc:format>image/svg+xml</dc:format>
    <dc:creator>
     <cc:Agent>
      <dc:title>Matplotlib v3.10.8, https://matplotlib.org/</dc:title>
     </cc:Agent>
    </dc:creator>
   </cc:Work>
  </rdf:RDF>
 </metadata>
 <defs>
  <style type="text/css">*{stroke-linejoin: round; stroke-linecap: butt}</style>
 </defs>
 <g id="figure_1">
  <g id="patch_1">
   <path d="M 0 288 
L 720 288 
L 720 0 
L 0 0 
z
" style="fill: #ffffff"/>
  </g>
  <g id="axes_1">
   <g id="patch_2">
    <path d="M 47.72 246.04 
L 709.2 246.04 
L 709.2 10.8 
L 47.72 10.8 
z
" style="fill: #ffffff"/>
   </g>
   <g id="matplotlib.axis_1">
    <g id="xtick_1">
     <g id="line2d_1">
      <defs>
       <path id="m4303653877" d="M 0 0 
L 0 3.5 
" style="stroke: #000000; stroke-width: 0.8"/>
      </defs>
      <g>
       <use xlink:href="#m4303653877" x="77.787273" y="246.04" style="stroke: #000000; stroke-width: 0.8"/>
      </g>
     </g>
     <g id="text_1">
      <!-- 0 -->
      <g transform="translate(74.606023 260.638438) scale(0.1 -0.1)">
       <defs>
        <path id="DejaVuSans-30" d="M 2034 4250 
Q 1547 4250 1301 3770 
Q 1056 3291 1056 2328 
Q 1056 1369 1301 889 
Q 1547 409 2034 409 
Q 2525 409 2770 889 
Q 3016 1369 3016 2328 
Q 3016 3291 2770 3770 
Q 2525 4250 2034 4250 
z
M 2034 4750 
Q 2819 4750 3233 4129 
Q 3647 3509 3647 2328 
Q 3647 1150 3233 529 
Q 2819 -91 2034 -91 
Q 1250 -91 836 529 
Q 422 1150 422 2328 
Q 422 3509 836 4129 
Q 1250 4750 2034 4750 
z
" transform="scale(0.015625)"/>
       </defs>
       <use xlink:href="#DejaVuSans-30"/>
      </g>
     </g>
    </g>
    <g id="xtick_2">
     <g id="line2d_2">
      <g>
       <use xlink:href="#m4303653877" x="179.710231" y="246.04" style="stroke: #000000; stroke-width: 0.8"/>
      </g>
     </g>
     <g id="text_2">
      <!-- 20 -->
      <g transform="translate(173.347731 260.638438) scale(0.1 -0.1)">
       <defs>
        <path id="DejaVuSans-32" d="M 1228 531 
L 3431 531 
L 3431 0 
L 469 0 
L 469 531 
Q 828 903 1448 1529 
Q 2069 2156 2228 2338 
Q 2531 2678 2651 2914 
Q 2772 3150 2772 3378 
Q 2772 3750 2511 3984 
Q 2250 4219 1831 4219 
Q 1534 4219 1204 4116 
Q 875 4013 500 3803 
L 500 4441 
Q 881 4594 1212 4672 
Q 1544 4750 1819 4750 
Q 2544 4750 2975 4387 
Q 3406 4025 3406 3419 
Q 3406 3131 3298 2873 
Q 3191 2616 2906 2266 
Q 2828 2175 2409 1742 
Q 1991 1309 1228 531 
z
" transform="scale(0.015625)"/>
       </defs>
       <use xlink:href="#DejaVuSans-32"/>
       <use xlink:href="#DejaVuSans-30" transform="translate(63.623047 0)"/>
      </g>
     </g>
    </g>
    <g id="xtick_3">
     <g id="line2d_3">
      <g>
       <use xlink:href="#m4303653877" x="281.63319" y="246.04" style="stroke: #000000; stroke-width: 0.8"/>
      </g>
     </g>
     <g id="text_3">
      <!-- 40 -->
      <g transform="translate(275.27069 260.638438) scale(0.1 -0.1)">
       <defs>
        <path id="DejaVuSans-34" d="M 2419 4116 
L 825 1625 
L 2419 1625 
L 2419 4116 
z
M 2253 4666 
L 3047 4666 
L 3047 1625 
L 3713 1625 
L 3713 1100 
L 3047 1100 
L 3047 0 
L 2419 0 
L 2419 1100 
L 313 1100 
L 313 1709 
L 2253 4666 
z
" transform="scale(0.015625)"/>
       </defs>
       <use xlink:href="#DejaVuSans-34"/>
       <use xlink:href="#DejaVuSans-30" transform="translate(63.623047 0)"/>
      </g>
     </g>
    </g>
    <g id="xtick_4">
     <g id="line2d_4">
      <g>
       <use xlink:href="#m4303653877" x="383.556148" y="246.04" style="stroke: #000000; stroke-width: 0.8"/>
      </g>
     </g>
     <g id="text_4">
      <!-- 60 -->
      <g transform="translate(377.193648 260.638438) scale(0.1 -0.1)">
       <defs>
        <path id="DejaVuSans-36" d="M 2113 2584 
Q 1688 2584 1439 2293 
Q 1191 2003 1191 1497 
Q 1191 994 1439 701 
Q 1688 409 2113 409 
Q 2538 409 2786 701 
Q 3034 994 3034 1497 
Q 3034 2003 2786 2293 
Q 2538 2584 2113 2584 
z
M 3366 4563 
L 3366 3988 
Q 3128 4100 2886 4159 
Q 2644 4219 2406 4219 
Q 1781 4219 1451 3797 
Q 1122 3375 1075 2522 
Q 1259 2794 1537 2939 
Q 1816 3084 2150 3084 
Q 2853 3084 3261 2657 
Q 3669 2231 3669 1497 
Q 3669 778 3244 343 
Q 2819 -91 2113 -91 
Q 1303 -91 875 529 
Q 447 1150 447 2328 
Q 447 3434 972 4092 
Q 1497 4750 2381 4750 
Q 2619 4750 2861 4703 
Q 3103 4656 3366 4563 
z
" transform="scale(0.015625)"/>
       </defs>
       <use xlink:href="#DejaVuSans-36"/>
       <use xlink:href="#DejaVuSans-30" transform="translate(63.623047 0)"/>
      </g>
     </g>
    </g>
    <g id="xtick_5">
     <g id="line2d_5">
      <g>
       <use xlink:href="#m4303653877" x="485.479106" y="246.04" style="stroke: #000000; stroke-width: 0.8"/>
      </g>
     </g>
     <g id="text_5">
      <!-- 80 -->
      <g transform="translate(479.116606 260.638438) scale(0.1 -0.1)">
       <defs>
        <path id="DejaVuSans-38" d="M 2034 2216 
Q 1584 2216 1326 1975 
Q 1069 1734 1069 1313 
Q 1069 891 1326 650 
Q 1584 409 2034 409 
Q 2484 409 2743 651 
Q 3003 894 3003 1313 
Q 3003 1734 2745 1975 
Q 2488 2216 2034 2216 
z
M 1403 2484 
Q 997 2584 770 2862 
Q 544 3141 544 3541 
Q 544 4100 942 4425 
Q 1341 4750 2034 4750 
Q 2731 4750 3128 4425 
Q 3525 4100 3525 3541 
Q 3525 3141 3298 2862 
Q 3072 2584 2669 2484 
Q 3125 2378 3379 2068 
Q 3634 1759 3634 1313 
Q 3634 634 3220 271 
Q 2806 -91 2034 -91 
Q 1263 -91 848 271 
Q 434 634 434 1313 
Q 434 1759 690 2068 
Q 947 2378 1403 2484 
z
M 1172 3481 
Q 1172 3119 1398 2916 
Q 1625 2713 2034 2713 
Q 2441 2713 2670 2916 
Q 2900 3119 2900 3481 
Q 2900 3844 2670 4047 
Q 2441 4250 2034 4250 
Q 1625 4250 1398 4047 
Q 1172 3844 1172 3481 
z
" transform="scale(0.015625)"/>
       </defs>
       <use xlink:href="#DejaVuSans-38"/>
       <use xlink:href="#DejaVuSans-30" transform="translate(63.623047 0)"/>
      </g>
     </g>
    </g>
    <g id="xtick_6">
     <g id="line2d_6">
      <g>
       <use xlink:href="#m4303653877" x="587.402065" y="246.04" style="stroke: #000000; stroke-width: 0.8"/>
      </g>
     </g>
     <g id="text_6">
      <!-- 100 -->
      <g transform="translate(577.858315 260.638438) scale(0.1 -0.1)">
       <defs>
        <path id="DejaVuSans-31" d="M 794 531 
L 1825 531 
L 1825 4091 
L 703 3866 
L 703 4441 
L 1819 4666 
L 2450 4666 
L 2450 531 
L 3481 531 
L 3481 0 
L 794 0 
L 794 531 
z
" transform="scale(0.015625)"/>
       </defs>
       <use xlink:href="#DejaVuSans-31"/>
       <use xlink:href="#DejaVuSans-30" transform="translate(63.623047 0)"/>
       <use xlink:href="#DejaVuSans-30" transform="translate(127.246094 0)"/>
      </g>
     </g>
    </g>
    <g id="xtick_7">
     <g id="line2d_7">
      <g>
       <use xlink:href="#m4303653877" x="689.325023" y="246.04" style="stroke: #000000; stroke-width: 0.8"/>
      </g>
     </g>
     <g id="text_7">
      <!-- 120 -->
      <g transform="translate(679.781273 260.638438) scale(0.1 -0.1)">
       <use xlink:href="#DejaVuSans-31"/>
       <use xlink:href="#DejaVuSans-32" transform="translate(63.623047 0)"/>
       <use xlink:href="#DejaVuSans-30" transform="translate(127.246094 0)"/>
      </g>
     </g>
    </g>
    <g id="text_8">
     <!-- MS run index (119 runs, ordered by acquisition date) -->
     <g transform="translate(246.156875 274.316562) scale(0.1 -0.1)">
      <defs>
       <path id="DejaVuSans-4d" d="M 628 4666 
L 1569 4666 
L 2759 1491 
L 3956 4666 
L 4897 4666 
L 4897 0 
L 4281 0 
L 4281 4097 
L 3078 897 
L 2444 897 
L 1241 4097 
L 1241 0 
L 628 0 
L 628 4666 
z
" transform="scale(0.015625)"/>
       <path id="DejaVuSans-53" d="M 3425 4513 
L 3425 3897 
Q 3066 4069 2747 4153 
Q 2428 4238 2131 4238 
Q 1616 4238 1336 4038 
Q 1056 3838 1056 3469 
Q 1056 3159 1242 3001 
Q 1428 2844 1947 2747 
L 2328 2669 
Q 3034 2534 3370 2195 
Q 3706 1856 3706 1288 
Q 3706 609 3251 259 
Q 2797 -91 1919 -91 
Q 1588 -91 1214 -16 
Q 841 59 441 206 
L 441 856 
Q 825 641 1194 531 
Q 1563 422 1919 422 
Q 2459 422 2753 634 
Q 3047 847 3047 1241 
Q 3047 1584 2836 1778 
Q 2625 1972 2144 2069 
L 1759 2144 
Q 1053 2284 737 2584 
Q 422 2884 422 3419 
Q 422 4038 858 4394 
Q 1294 4750 2059 4750 
Q 2388 4750 2728 4690 
Q 3069 4631 3425 4513 
z
" transform="scale(0.015625)"/>
       <path id="DejaVuSans-20" transform="scale(0.015625)"/>
       <path id="DejaVuSans-72" d="M 2631 2963 
Q 2534 3019 2420 3045 
Q 2306 3072 2169 3072 
Q 1681 3072 1420 2755 
Q 1159 2438 1159 1844 
L 1159 0 
L 581 0 
L 581 3500 
L 1159 3500 
L 1159 2956 
Q 1341 3275 1631 3429 
Q 1922 3584 2338 3584 
Q 2397 3584 2469 3576 
Q 2541 3569 2628 3553 
L 2631 2963 
z
" transform="scale(0.015625)"/>
       <path id="DejaVuSans-75" d="M 544 1381 
L 544 3500 
L 1119 3500 
L 1119 1403 
Q 1119 906 1312 657 
Q 1506 409 1894 409 
Q 2359 409 2629 706 
Q 2900 1003 2900 1516 
L 2900 3500 
L 3475 3500 
L 3475 0 
L 2900 0 
L 2900 538 
Q 2691 219 2414 64 
Q 2138 -91 1772 -91 
Q 1169 -91 856 284 
Q 544 659 544 1381 
z
M 1991 3584 
L 1991 3584 
z
" transform="scale(0.015625)"/>
       <path id="DejaVuSans-6e" d="M 3513 2113 
L 3513 0 
L 2938 0 
L 2938 2094 
Q 2938 2591 2744 2837 
Q 2550 3084 2163 3084 
Q 1697 3084 1428 2787 
Q 1159 2491 1159 1978 
L 1159 0 
L 581 0 
L 581 3500 
L 1159 3500 
L 1159 2956 
Q 1366 3272 1645 3428 
Q 1925 3584 2291 3584 
Q 2894 3584 3203 3211 
Q 3513 2838 3513 2113 
z
" transform="scale(0.015625)"/>
       <path id="DejaVuSans-69" d="M 603 3500 
L 1178 3500 
L 1178 0 
L 603 0 
L 603 3500 
z
M 603 4863 
L 1178 4863 
L 1178 4134 
L 603 4134 
L 603 4863 
z
" transform="scale(0.015625)"/>
       <path id="DejaVuSans-64" d="M 2906 2969 
L 2906 4863 
L 3481 4863 
L 3481 0 
L 2906 0 
L 2906 525 
Q 2725 213 2448 61 
Q 2172 -91 1784 -91 
Q 1150 -91 751 415 
Q 353 922 353 1747 
Q 353 2572 751 3078 
Q 1150 3584 1784 3584 
Q 2172 3584 2448 3432 
Q 2725 3281 2906 2969 
z
M 947 1747 
Q 947 1113 1208 752 
Q 1469 391 1925 391 
Q 2381 391 2643 752 
Q 2906 1113 2906 1747 
Q 2906 2381 2643 2742 
Q 2381 3103 1925 3103 
Q 1469 3103 1208 2742 
Q 947 2381 947 1747 
z
" transform="scale(0.015625)"/>
       <path id="DejaVuSans-65" d="M 3597 1894 
L 3597 1613 
L 953 1613 
Q 991 1019 1311 708 
Q 1631 397 2203 397 
Q 2534 397 2845 478 
Q 3156 559 3463 722 
L 3463 178 
Q 3153 47 2828 -22 
Q 2503 -91 2169 -91 
Q 1331 -91 842 396 
Q 353 884 353 1716 
Q 353 2575 817 3079 
Q 1281 3584 2069 3584 
Q 2775 3584 3186 3129 
Q 3597 2675 3597 1894 
z
M 3022 2063 
Q 3016 2534 2758 2815 
Q 2500 3097 2075 3097 
Q 1594 3097 1305 2825 
Q 1016 2553 972 2059 
L 3022 2063 
z
" transform="scale(0.015625)"/>
       <path id="DejaVuSans-78" d="M 3513 3500 
L 2247 1797 
L 3578 0 
L 2900 0 
L 1881 1375 
L 863 0 
L 184 0 
L 1544 1831 
L 300 3500 
L 978 3500 
L 1906 2253 
L 2834 3500 
L 3513 3500 
z
" transform="scale(0.015625)"/>
       <path id="DejaVuSans-28" d="M 1984 4856 
Q 1566 4138 1362 3434 
Q 1159 2731 1159 2009 
Q 1159 1288 1364 580 
Q 1569 -128 1984 -844 
L 1484 -844 
Q 1016 -109 783 600 
Q 550 1309 550 2009 
Q 550 2706 781 3412 
Q 1013 4119 1484 4856 
L 1984 4856 
z
" transform="scale(0.015625)"/>
       <path id="DejaVuSans-39" d="M 703 97 
L 703 672 
Q 941 559 1184 500 
Q 1428 441 1663 441 
Q 2288 441 2617 861 
Q 2947 1281 2994 2138 
Q 2813 1869 2534 1725 
Q 2256 1581 1919 1581 
Q 1219 1581 811 2004 
Q 403 2428 403 3163 
Q 403 3881 828 4315 
Q 1253 4750 1959 4750 
Q 2769 4750 3195 4129 
Q 3622 3509 3622 2328 
Q 3622 1225 3098 567 
Q 2575 -91 1691 -91 
Q 1453 -91 1209 -44 
Q 966 3 703 97 
z
M 1959 2075 
Q 2384 2075 2632 2365 
Q 2881 2656 2881 3163 
Q 2881 3666 2632 3958 
Q 2384 4250 1959 4250 
Q 1534 4250 1286 3958 
Q 1038 3666 1038 3163 
Q 1038 2656 1286 2365 
Q 1534 2075 1959 2075 
z
" transform="scale(0.015625)"/>
       <path id="DejaVuSans-73" d="M 2834 3397 
L 2834 2853 
Q 2591 2978 2328 3040 
Q 2066 3103 1784 3103 
Q 1356 3103 1142 2972 
Q 928 2841 928 2578 
Q 928 2378 1081 2264 
Q 1234 2150 1697 2047 
L 1894 2003 
Q 2506 1872 2764 1633 
Q 3022 1394 3022 966 
Q 3022 478 2636 193 
Q 2250 -91 1575 -91 
Q 1294 -91 989 -36 
Q 684 19 347 128 
L 347 722 
Q 666 556 975 473 
Q 1284 391 1588 391 
Q 1994 391 2212 530 
Q 2431 669 2431 922 
Q 2431 1156 2273 1281 
Q 2116 1406 1581 1522 
L 1381 1569 
Q 847 1681 609 1914 
Q 372 2147 372 2553 
Q 372 3047 722 3315 
Q 1072 3584 1716 3584 
Q 2034 3584 2315 3537 
Q 2597 3491 2834 3397 
z
" transform="scale(0.015625)"/>
       <path id="DejaVuSans-2c" d="M 750 794 
L 1409 794 
L 1409 256 
L 897 -744 
L 494 -744 
L 750 256 
L 750 794 
z
" transform="scale(0.015625)"/>
       <path id="DejaVuSans-6f" d="M 1959 3097 
Q 1497 3097 1228 2736 
Q 959 2375 959 1747 
Q 959 1119 1226 758 
Q 1494 397 1959 397 
Q 2419 397 2687 759 
Q 2956 1122 2956 1747 
Q 2956 2369 2687 2733 
Q 2419 3097 1959 3097 
z
M 1959 3584 
Q 2709 3584 3137 3096 
Q 3566 2609 3566 1747 
Q 3566 888 3137 398 
Q 2709 -91 1959 -91 
Q 1206 -91 779 398 
Q 353 888 353 1747 
Q 353 2609 779 3096 
Q 1206 3584 1959 3584 
z
" transform="scale(0.015625)"/>
       <path id="DejaVuSans-62" d="M 3116 1747 
Q 3116 2381 2855 2742 
Q 2594 3103 2138 3103 
Q 1681 3103 1420 2742 
Q 1159 2381 1159 1747 
Q 1159 1113 1420 752 
Q 1681 391 2138 391 
Q 2594 391 2855 752 
Q 3116 1113 3116 1747 
z
M 1159 2969 
Q 1341 3281 1617 3432 
Q 1894 3584 2278 3584 
Q 2916 3584 3314 3078 
Q 3713 2572 3713 1747 
Q 3713 922 3314 415 
Q 2916 -91 2278 -91 
Q 1894 -91 1617 61 
Q 1341 213 1159 525 
L 1159 0 
L 581 0 
L 581 4863 
L 1159 4863 
L 1159 2969 
z
" transform="scale(0.015625)"/>
       <path id="DejaVuSans-79" d="M 2059 -325 
Q 1816 -950 1584 -1140 
Q 1353 -1331 966 -1331 
L 506 -1331 
L 506 -850 
L 844 -850 
Q 1081 -850 1212 -737 
Q 1344 -625 1503 -206 
L 1606 56 
L 191 3500 
L 800 3500 
L 1894 763 
L 2988 3500 
L 3597 3500 
L 2059 -325 
z
" transform="scale(0.015625)"/>
       <path id="DejaVuSans-61" d="M 2194 1759 
Q 1497 1759 1228 1600 
Q 959 1441 959 1056 
Q 959 750 1161 570 
Q 1363 391 1709 391 
Q 2188 391 2477 730 
Q 2766 1069 2766 1631 
L 2766 1759 
L 2194 1759 
z
M 3341 1997 
L 3341 0 
L 2766 0 
L 2766 531 
Q 2569 213 2275 61 
Q 1981 -91 1556 -91 
Q 1019 -91 701 211 
Q 384 513 384 1019 
Q 384 1609 779 1909 
Q 1175 2209 1959 2209 
L 2766 2209 
L 2766 2266 
Q 2766 2663 2505 2880 
Q 2244 3097 1772 3097 
Q 1472 3097 1187 3025 
Q 903 2953 641 2809 
L 641 3341 
Q 956 3463 1253 3523 
Q 1550 3584 1831 3584 
Q 2591 3584 2966 3190 
Q 3341 2797 3341 1997 
z
" transform="scale(0.015625)"/>
       <path id="DejaVuSans-63" d="M 3122 3366 
L 3122 2828 
Q 2878 2963 2633 3030 
Q 2388 3097 2138 3097 
Q 1578 3097 1268 2742 
Q 959 2388 959 1747 
Q 959 1106 1268 751 
Q 1578 397 2138 397 
Q 2388 397 2633 464 
Q 2878 531 3122 666 
L 3122 134 
Q 2881 22 2623 -34 
Q 2366 -91 2075 -91 
Q 1284 -91 818 406 
Q 353 903 353 1747 
Q 353 2603 823 3093 
Q 1294 3584 2113 3584 
Q 2378 3584 2631 3529 
Q 2884 3475 3122 3366 
z
" transform="scale(0.015625)"/>
       <path id="DejaVuSans-71" d="M 947 1747 
Q 947 1113 1208 752 
Q 1469 391 1925 391 
Q 2381 391 2643 752 
Q 2906 1113 2906 1747 
Q 2906 2381 2643 2742 
Q 2381 3103 1925 3103 
Q 1469 3103 1208 2742 
Q 947 2381 947 1747 
z
M 2906 525 
Q 2725 213 2448 61 
Q 2172 -91 1784 -91 
Q 1150 -91 751 415 
Q 353 922 353 1747 
Q 353 2572 751 3078 
Q 1150 3584 1784 3584 
Q 2172 3584 2448 3432 
Q 2725 3281 2906 2969 
L 2906 3500 
L 3481 3500 
L 3481 -1331 
L 2906 -1331 
L 2906 525 
z
" transform="scale(0.015625)"/>
       <path id="DejaVuSans-74" d="M 1172 4494 
L 1172 3500 
L 2356 3500 
L 2356 3053 
L 1172 3053 
L 1172 1153 
Q 1172 725 1289 603 
Q 1406 481 1766 481 
L 2356 481 
L 2356 0 
L 1766 0 
Q 1100 0 847 248 
Q 594 497 594 1153 
L 594 3053 
L 172 3053 
L 172 3500 
L 594 3500 
L 594 4494 
L 1172 4494 
z
" transform="scale(0.015625)"/>
       <path id="DejaVuSans-29" d="M 513 4856 
L 1013 4856 
Q 1481 4119 1714 3412 
Q 1947 2706 1947 2009 
Q 1947 1309 1714 600 
Q 1481 -109 1013 -844 
L 513 -844 
Q 928 -128 1133 580 
Q 1338 1288 1338 2009 
Q 1338 2731 1133 3434 
Q 928 4138 513 4856 
z
" transform="scale(0.015625)"/>
      </defs>
      <use xlink:href="#DejaVuSans-4d"/>
      <use xlink:href="#DejaVuSans-53" transform="translate(86.279297 0)"/>
      <use xlink:href="#DejaVuSans-20" transform="translate(149.755859 0)"/>
      <use xlink:href="#DejaVuSans-72" transform="translate(181.542969 0)"/>
      <use xlink:href="#DejaVuSans-75" transform="translate(222.65625 0)"/>
      <use xlink:href="#DejaVuSans-6e" transform="translate(286.035156 0)"/>
      <use xlink:href="#DejaVuSans-20" transform="translate(349.414062 0)"/>
      <use xlink:href="#DejaVuSans-69" transform="translate(381.201172 0)"/>
      <use xlink:href="#DejaVuSans-6e" transform="translate(408.984375 0)"/>
      <use xlink:href="#DejaVuSans-64" transform="translate(472.363281 0)"/>
      <use xlink:href="#DejaVuSans-65" transform="translate(535.839844 0)"/>
      <use xlink:href="#DejaVuSans-78" transform="translate(595.613281 0)"/>
      <use xlink:href="#DejaVuSans-20" transform="translate(654.792969 0)"/>
      <use xlink:href="#DejaVuSans-28" transform="translate(686.580078 0)"/>
      <use xlink:href="#DejaVuSans-31" transform="translate(725.59375 0)"/>
      <use xlink:href="#DejaVuSans-31" transform="translate(789.216797 0)"/>
      <use xlink:href="#DejaVuSans-39" transform="translate(852.839844 0)"/>
      <use xlink:href="#DejaVuSans-20" transform="translate(916.462891 0)"/>
      <use xlink:href="#DejaVuSans-72" transform="translate(948.25 0)"/>
      <use xlink:href="#DejaVuSans-75" transform="translate(989.363281 0)"/>
      <use xlink:href="#DejaVuSans-6e" transform="translate(1052.742188 0)"/>
      <use xlink:href="#DejaVuSans-73" transform="translate(1116.121094 0)"/>
      <use xlink:href="#DejaVuSans-2c" transform="translate(1168.220703 0)"/>
      <use xlink:href="#DejaVuSans-20" transform="translate(1200.007812 0)"/>
      <use xlink:href="#DejaVuSans-6f" transform="translate(1231.794922 0)"/>
      <use xlink:href="#DejaVuSans-72" transform="translate(1292.976562 0)"/>
      <use xlink:href="#DejaVuSans-64" transform="translate(1332.339844 0)"/>
      <use xlink:href="#DejaVuSans-65" transform="translate(1395.816406 0)"/>
      <use xlink:href="#DejaVuSans-72" transform="translate(1457.339844 0)"/>
      <use xlink:href="#DejaVuSans-65" transform="translate(1496.203125 0)"/>
      <use xlink:href="#DejaVuSans-64" transform="translate(1557.726562 0)"/>
      <use xlink:href="#DejaVuSans-20" transform="translate(1621.203125 0)"/>
      <use xlink:href="#DejaVuSans-62" transform="translate(1652.990234 0)"/>
      <use xlink:href="#DejaVuSans-79" transform="translate(1716.466797 0)"/>
      <use xlink:href="#DejaVuSans-20" transform="translate(1775.646484 0)"/>
      <use xlink:href="#DejaVuSans-61" transform="translate(1807.433594 0)"/>
      <use xlink:href="#DejaVuSans-63" transform="translate(1868.712891 0)"/>
      <use xlink:href="#DejaVuSans-71" transform="translate(1923.693359 0)"/>
      <use xlink:href="#DejaVuSans-75" transform="translate(1987.169922 0)"/>
      <use xlink:href="#DejaVuSans-69" transform="translate(2050.548828 0)"/>
      <use xlink:href="#DejaVuSans-73" transform="translate(2078.332031 0)"/>
      <use xlink:href="#DejaVuSans-69" transform="translate(2130.431641 0)"/>
      <use xlink:href="#DejaVuSans-74" transform="translate(2158.214844 0)"/>
      <use xlink:href="#DejaVuSans-69" transform="translate(2197.423828 0)"/>
      <use xlink:href="#DejaVuSans-6f" transform="translate(2225.207031 0)"/>
      <use xlink:href="#DejaVuSans-6e" transform="translate(2286.388672 0)"/>
      <use xlink:href="#DejaVuSans-20" transform="translate(2349.767578 0)"/>
      <use xlink:href="#DejaVuSans-64" transform="translate(2381.554688 0)"/>
      <use xlink:href="#DejaVuSans-61" transform="translate(2445.03125 0)"/>
      <use xlink:href="#DejaVuSans-74" transform="translate(2506.310547 0)"/>
      <use xlink:href="#DejaVuSans-65" transform="translate(2545.519531 0)"/>
      <use xlink:href="#DejaVuSans-29" transform="translate(2607.042969 0)"/>
     </g>
    </g>
   </g>
   <g id="matplotlib.axis_2">
    <g id="ytick_1">
     <g id="line2d_8">
      <defs>
       <path id="meeb275387b" d="M 0 0 
L -3.5 0 
" style="stroke: #000000; stroke-width: 0.8"/>
      </defs>
      <g>
       <use xlink:href="#meeb275387b" x="47.72" y="246.04" style="stroke: #000000; stroke-width: 0.8"/>
      </g>
     </g>
     <g id="text_9">
      <!-- 0.0 -->
      <g transform="translate(24.816875 249.839219) scale(0.1 -0.1)">
       <defs>
        <path id="DejaVuSans-2e" d="M 684 794 
L 1344 794 
L 1344 0 
L 684 0 
L 684 794 
z
" transform="scale(0.015625)"/>
       </defs>
       <use xlink:href="#DejaVuSans-30"/>
       <use xlink:href="#DejaVuSans-2e" transform="translate(63.623047 0)"/>
       <use xlink:href="#DejaVuSans-30" transform="translate(95.410156 0)"/>
      </g>
     </g>
    </g>
    <g id="ytick_2">
     <g id="line2d_9">
      <g>
       <use xlink:href="#meeb275387b" x="47.72" y="201.232381" style="stroke: #000000; stroke-width: 0.8"/>
      </g>
     </g>
     <g id="text_10">
      <!-- 0.2 -->
      <g transform="translate(24.816875 205.0316) scale(0.1 -0.1)">
       <use xlink:href="#DejaVuSans-30"/>
       <use xlink:href="#DejaVuSans-2e" transform="translate(63.623047 0)"/>
       <use xlink:href="#DejaVuSans-32" transform="translate(95.410156 0)"/>
      </g>
     </g>
    </g>
    <g id="ytick_3">
     <g id="line2d_10">
      <g>
       <use xlink:href="#meeb275387b" x="47.72" y="156.424762" style="stroke: #000000; stroke-width: 0.8"/>
      </g>
     </g>
     <g id="text_11">
      <!-- 0.4 -->
      <g transform="translate(24.816875 160.223981) scale(0.1 -0.1)">
       <use xlink:href="#DejaVuSans-30"/>
       <use xlink:href="#DejaVuSans-2e" transform="translate(63.623047 0)"/>
       <use xlink:href="#DejaVuSans-34" transform="translate(95.410156 0)"/>
      </g>
     </g>
    </g>
    <g id="ytick_4">
     <g id="line2d_11">
      <g>
       <use xlink:href="#meeb275387b" x="47.72" y="111.617143" style="stroke: #000000; stroke-width: 0.8"/>
      </g>
     </g>
     <g id="text_12">
      <!-- 0.6 -->
      <g transform="translate(24.816875 115.416362) scale(0.1 -0.1)">
       <use xlink:href="#DejaVuSans-30"/>
       <use xlink:href="#DejaVuSans-2e" transform="translate(63.623047 0)"/>
       <use xlink:href="#DejaVuSans-36" transform="translate(95.410156 0)"/>
      </g>
     </g>
    </g>
    <g id="ytick_5">
     <g id="line2d_12">
      <g>
       <use xlink:href="#meeb275387b" x="47.72" y="66.809524" style="stroke: #000000; stroke-width: 0.8"/>
      </g>
     </g>
     <g id="text_13">
      <!-- 0.8 -->
      <g transform="translate(24.816875 70.608743) scale(0.1 -0.1)">
       <use xlink:href="#DejaVuSans-30"/>
       <use xlink:href="#DejaVuSans-2e" transform="translate(63.623047 0)"/>
       <use xlink:href="#DejaVuSans-38" transform="translate(95.410156 0)"/>
      </g>
     </g>
    </g>
    <g id="ytick_6">
     <g id="line2d_13">
      <g>
       <use xlink:href="#meeb275387b" x="47.72" y="22.001905" style="stroke: #000000; stroke-width: 0.8"/>
      </g>
     </g>
     <g id="text_14">
      <!-- 1.0 -->
      <g transform="translate(24.816875 25.801124) scale(0.1 -0.1)">
       <use xlink:href="#DejaVuSans-31"/>
       <use xlink:href="#DejaVuSans-2e" transform="translate(63.623047 0)"/>
       <use xlink:href="#DejaVuSans-30" transform="translate(95.410156 0)"/>
      </g>
     </g>
    </g>
    <g id="text_15">
     <!-- Fraction of precursors quantified per run -->
     <g transform="translate(18.737188 229.659844) rotate(-90) scale(0.1 -0.1)">
      <defs>
       <path id="DejaVuSans-46" d="M 628 4666 
L 3309 4666 
L 3309 4134 
L 1259 4134 
L 1259 2759 
L 3109 2759 
L 3109 2228 
L 1259 2228 
L 1259 0 
L 628 0 
L 628 4666 
z
" transform="scale(0.015625)"/>
       <path id="DejaVuSans-66" d="M 2375 4863 
L 2375 4384 
L 1825 4384 
Q 1516 4384 1395 4259 
Q 1275 4134 1275 3809 
L 1275 3500 
L 2222 3500 
L 2222 3053 
L 1275 3053 
L 1275 0 
L 697 0 
L 697 3053 
L 147 3053 
L 147 3500 
L 697 3500 
L 697 3744 
Q 697 4328 969 4595 
Q 1241 4863 1831 4863 
L 2375 4863 
z
" transform="scale(0.015625)"/>
       <path id="DejaVuSans-70" d="M 1159 525 
L 1159 -1331 
L 581 -1331 
L 581 3500 
L 1159 3500 
L 1159 2969 
Q 1341 3281 1617 3432 
Q 1894 3584 2278 3584 
Q 2916 3584 3314 3078 
Q 3713 2572 3713 1747 
Q 3713 922 3314 415 
Q 2916 -91 2278 -91 
Q 1894 -91 1617 61 
Q 1341 213 1159 525 
z
M 3116 1747 
Q 3116 2381 2855 2742 
Q 2594 3103 2138 3103 
Q 1681 3103 1420 2742 
Q 1159 2381 1159 1747 
Q 1159 1113 1420 752 
Q 1681 391 2138 391 
Q 2594 391 2855 752 
Q 3116 1113 3116 1747 
z
" transform="scale(0.015625)"/>
      </defs>
      <use xlink:href="#DejaVuSans-46"/>
      <use xlink:href="#DejaVuSans-72" transform="translate(50.269531 0)"/>
      <use xlink:href="#DejaVuSans-61" transform="translate(91.382812 0)"/>
      <use xlink:href="#DejaVuSans-63" transform="translate(152.662109 0)"/>
      <use xlink:href="#DejaVuSans-74" transform="translate(207.642578 0)"/>
      <use xlink:href="#DejaVuSans-69" transform="translate(246.851562 0)"/>
      <use xlink:href="#DejaVuSans-6f" transform="translate(274.634766 0)"/>
      <use xlink:href="#DejaVuSans-6e" transform="translate(335.816406 0)"/>
      <use xlink:href="#DejaVuSans-20" transform="translate(399.195312 0)"/>
      <use xlink:href="#DejaVuSans-6f" transform="translate(430.982422 0)"/>
      <use xlink:href="#DejaVuSans-66" transform="translate(492.164062 0)"/>
      <use xlink:href="#DejaVuSans-20" transform="translate(527.369141 0)"/>
      <use xlink:href="#DejaVuSans-70" transform="translate(559.15625 0)"/>
      <use xlink:href="#DejaVuSans-72" transform="translate(622.632812 0)"/>
      <use xlink:href="#DejaVuSans-65" transform="translate(661.496094 0)"/>
      <use xlink:href="#DejaVuSans-63" transform="translate(723.019531 0)"/>
      <use xlink:href="#DejaVuSans-75" transform="translate(778 0)"/>
      <use xlink:href="#DejaVuSans-72" transform="translate(841.378906 0)"/>
      <use xlink:href="#DejaVuSans-73" transform="translate(882.492188 0)"/>
      <use xlink:href="#DejaVuSans-6f" transform="translate(934.591797 0)"/>
      <use xlink:href="#DejaVuSans-72" transform="translate(995.773438 0)"/>
      <use xlink:href="#DejaVuSans-73" transform="translate(1036.886719 0)"/>
      <use xlink:href="#DejaVuSans-20" transform="translate(1088.986328 0)"/>
      <use xlink:href="#DejaVuSans-71" transform="translate(1120.773438 0)"/>
      <use xlink:href="#DejaVuSans-75" transform="translate(1184.25 0)"/>
      <use xlink:href="#DejaVuSans-61" transform="translate(1247.628906 0)"/>
      <use xlink:href="#DejaVuSans-6e" transform="translate(1308.908203 0)"/>
      <use xlink:href="#DejaVuSans-74" transform="translate(1372.287109 0)"/>
      <use xlink:href="#DejaVuSans-69" transform="translate(1411.496094 0)"/>
      <use xlink:href="#DejaVuSans-66" transform="translate(1439.279297 0)"/>
      <use xlink:href="#DejaVuSans-69" transform="translate(1474.484375 0)"/>
      <use xlink:href="#DejaVuSans-65" transform="translate(1502.267578 0)"/>
      <use xlink:href="#DejaVuSans-64" transform="translate(1563.791016 0)"/>
      <use xlink:href="#DejaVuSans-20" transform="translate(1627.267578 0)"/>
      <use xlink:href="#DejaVuSans-70" transform="translate(1659.054688 0)"/>
      <use xlink:href="#DejaVuSans-65" transform="translate(1722.53125 0)"/>
      <use xlink:href="#DejaVuSans-72" transform="translate(1784.054688 0)"/>
      <use xlink:href="#DejaVuSans-20" transform="translate(1825.167969 0)"/>
      <use xlink:href="#DejaVuSans-72" transform="translate(1856.955078 0)"/>
      <use xlink:href="#DejaVuSans-75" transform="translate(1898.068359 0)"/>
      <use xlink:href="#DejaVuSans-6e" transform="translate(1961.447266 0)"/>
     </g>
    </g>
   </g>
   <g id="line2d_14">
    <path d="M 77.787273 166.324787 
L 82.883421 153.287469 
L 87.979569 153.310626 
L 93.075716 154.676881 
L 98.171864 152.476979 
L 103.268012 163.610802 
L 108.36416 159.42404 
L 113.460308 165.810705 
L 118.556456 151.930476 
L 123.652604 153.787657 
L 128.748752 153.583877 
L 133.8449 148.84135 
L 138.941048 153.972912 
L 144.037196 152.268567 
L 149.133344 157.006463 
L 154.229492 184.729868 
L 159.325639 157.60391 
L 164.421787 161.44795 
L 169.517935 166.43594 
L 174.614083 147.86413 
L 179.710231 151.810061 
L 184.806379 156.974043 
L 189.902527 148.67462 
L 194.998675 161.938876 
L 200.094823 159.280467 
L 205.190971 149.563844 
L 210.287119 156.673004 
L 215.383267 151.286715 
L 220.479414 154.889924 
L 225.575562 151.935108 
L 230.67171 156.751737 
L 235.767858 154.422156 
L 240.864006 150.522539 
L 245.960154 151.671119 
L 251.056302 149.540687 
L 256.15245 157.696537 
L 261.248598 149.239648 
L 266.344746 154.862136 
L 271.440894 157.983682 
L 276.537042 156.084819 
L 281.63319 171.108997 
L 286.729337 155.089074 
L 291.825485 174.434324 
L 296.921633 160.479993 
L 302.017781 156.043137 
L 307.113929 163.323657 
L 312.210077 155.71894 
L 317.306225 147.96602 
L 322.402373 151.379343 
L 327.498521 150.601272 
L 332.594669 149.512899 
L 337.690817 151.476602 
L 342.786965 157.645592 
L 347.883112 152.648339 
L 352.97926 144.353548 
L 358.075408 151.018096 
L 363.171556 147.285208 
L 368.267704 166.667509 
L 373.363852 154.111854 
L 378.46 153.713555 
L 383.556148 155.167807 
L 388.652296 150.332652 
L 393.748444 162.207496 
L 398.844592 156.686898 
L 403.94074 165.375356 
L 409.036888 150.499382 
L 414.133035 155.667995 
L 419.229183 149.568476 
L 424.325331 144.066403 
L 429.421479 151.245033 
L 434.517627 142.987293 
L 439.613775 151.921214 
L 444.709923 187.508693 
L 449.806071 160.544832 
L 454.902219 162.675265 
L 459.998367 164.013732 
L 465.094515 148.406001 
L 470.190663 152.430665 
L 475.28681 156.469223 
L 480.382958 144.677744 
L 485.479106 155.371587 
L 490.575254 149.605527 
L 495.671402 142.913191 
L 500.76755 150.680005 
L 505.863698 145.951372 
L 510.959846 152.537186 
L 516.055994 147.901181 
L 521.152142 152.490873 
L 526.24829 144.617537 
L 531.344438 147.238894 
L 536.440586 149.248911 
L 541.536733 144.260921 
L 546.632881 151.47197 
L 551.729029 141.607143 
L 556.825177 148.322636 
L 561.921325 149.327644 
L 567.017473 151.90732 
L 572.113621 163.291237 
L 577.209769 148.929346 
L 582.305917 172.317786 
L 587.402065 157.386235 
L 592.498213 151.184825 
L 597.594361 156.608164 
L 602.690508 151.578492 
L 607.786656 144.186819 
L 612.882804 146.845228 
L 617.978952 147.984546 
L 623.0751 144.372074 
L 628.171248 146.789651 
L 633.267396 153.0559 
L 638.363544 148.401369 
L 643.459692 150.39286 
L 648.55584 149.897303 
L 653.651988 169.010984 
L 658.748136 167.760513 
L 663.844284 178.621086 
L 668.940431 180.325432 
L 674.036579 167.769776 
L 679.132727 171.136785 
" clip-path="url(#p0a8a8336b6)" style="fill: none; stroke: #9e9e9e; stroke-linecap: square"/>
   </g>
   <g id="line2d_15">
    <path d="M 77.787273 165.256153 
L 82.883421 154.907313 
L 87.979569 160.569634 
L 93.075716 157.891896 
L 98.171864 159.51188 
L 103.268012 160.613469 
L 108.36416 158.684735 
L 113.460308 159.927358 
L 118.556456 155.217969 
L 123.652604 159.889241 
L 128.748752 155.046441 
L 133.8449 151.352877 
L 138.941048 156.09276 
L 144.037196 153.733301 
L 149.133344 154.600469 
L 154.229492 182.488973 
L 159.325639 160.459094 
L 164.421787 162.387828 
L 169.517935 165.380034 
L 174.614083 155.315168 
L 179.710231 158.044365 
L 184.806379 161.274804 
L 189.902527 158.11107 
L 194.998675 166.900914 
L 200.094823 160.449565 
L 205.190971 153.615138 
L 210.287119 158.027212 
L 215.383267 157.817567 
L 220.479414 162.042867 
L 225.575562 157.19435 
L 230.67171 161.705529 
L 235.767858 154.556634 
L 240.864006 156.948493 
L 245.960154 156.571132 
L 251.056302 154.472776 
L 256.15245 161.293863 
L 261.248598 154.676704 
L 266.344746 162.784248 
L 271.440894 161.846563 
L 276.537042 161.007983 
L 281.63319 166.327249 
L 286.729337 160.687798 
L 291.825485 175.136151 
L 296.921633 165.814571 
L 302.017781 163.018669 
L 307.113929 165.587774 
L 312.210077 156.498709 
L 317.306225 161.556872 
L 322.402373 162.675614 
L 327.498521 160.520082 
L 332.594669 159.553809 
L 337.690817 160.411448 
L 342.786965 162.890976 
L 347.883112 158.724758 
L 352.97926 156.870353 
L 358.075408 160.178932 
L 363.171556 162.126725 
L 368.267704 173.561908 
L 373.363852 162.929094 
L 378.46 168.60285 
L 383.556148 166.106169 
L 388.652296 168.719108 
L 393.748444 169.622487 
L 398.844592 164.970274 
L 403.94074 167.617519 
L 409.036888 161.379626 
L 414.133035 167.215381 
L 419.229183 161.261463 
L 424.325331 157.680345 
L 429.421479 161.741741 
L 434.517627 158.688547 
L 439.613775 161.697906 
L 444.709923 190.50313 
L 449.806071 168.055867 
L 454.902219 170.377209 
L 459.998367 170.722171 
L 465.094515 166.386331 
L 470.190663 166.702704 
L 475.28681 168.976399 
L 480.382958 147.281952 
L 485.479106 153.754266 
L 490.575254 143.599824 
L 495.671402 137.499154 
L 500.76755 143.512154 
L 505.863698 143.998149 
L 510.959846 149.277392 
L 516.055994 142.633551 
L 521.152142 148.905748 
L 526.24829 142.107532 
L 531.344438 144.468897 
L 536.440586 142.511575 
L 541.536733 140.253127 
L 546.632881 148.192955 
L 551.729029 139.54224 
L 556.825177 148.078603 
L 561.921325 149.004853 
L 567.017473 146.694946 
L 572.113621 154.434659 
L 577.209769 141.934099 
L 582.305917 161.421555 
L 587.402065 146.47196 
L 592.498213 146.700664 
L 597.594361 146.271845 
L 602.690508 141.903605 
L 607.786656 144.630896 
L 612.882804 146.571065 
L 617.978952 144.446027 
L 623.0751 144.040078 
L 628.171248 147.190471 
L 633.267396 145.364653 
L 638.363544 144.04389 
L 643.459692 141.282293 
L 648.55584 148.234884 
L 653.651988 167.569872 
L 658.748136 171.530257 
L 663.844284 177.882501 
L 668.940431 178.673434 
L 674.036579 167.411685 
L 679.132727 167.173452 
" clip-path="url(#p0a8a8336b6)" style="fill: none; stroke: #1f77b4; stroke-linecap: square"/>
   </g>
   <g id="patch_3">
    <path d="M 47.72 246.04 
L 47.72 10.8 
" style="fill: none; stroke: #000000; stroke-width: 0.8; stroke-linejoin: miter; stroke-linecap: square"/>
   </g>
   <g id="patch_4">
    <path d="M 47.72 246.04 
L 709.2 246.04 
" style="fill: none; stroke: #000000; stroke-width: 0.8; stroke-linejoin: miter; stroke-linecap: square"/>
   </g>
   <g id="legend_1">
    <g id="line2d_16">
     <path d="M 550.295313 216.782187 
L 560.295313 216.782187 
L 570.295313 216.782187 
" style="fill: none; stroke: #9e9e9e; stroke-linecap: square"/>
    </g>
    <g id="text_16">
     <!-- Guo 2019 (OpenSWATH) -->
     <g transform="translate(578.295313 220.282187) scale(0.1 -0.1)">
      <defs>
       <path id="DejaVuSans-47" d="M 3809 666 
L 3809 1919 
L 2778 1919 
L 2778 2438 
L 4434 2438 
L 4434 434 
Q 4069 175 3628 42 
Q 3188 -91 2688 -91 
Q 1594 -91 976 548 
Q 359 1188 359 2328 
Q 359 3472 976 4111 
Q 1594 4750 2688 4750 
Q 3144 4750 3555 4637 
Q 3966 4525 4313 4306 
L 4313 3634 
Q 3963 3931 3569 4081 
Q 3175 4231 2741 4231 
Q 1884 4231 1454 3753 
Q 1025 3275 1025 2328 
Q 1025 1384 1454 906 
Q 1884 428 2741 428 
Q 3075 428 3337 486 
Q 3600 544 3809 666 
z
" transform="scale(0.015625)"/>
       <path id="DejaVuSans-4f" d="M 2522 4238 
Q 1834 4238 1429 3725 
Q 1025 3213 1025 2328 
Q 1025 1447 1429 934 
Q 1834 422 2522 422 
Q 3209 422 3611 934 
Q 4013 1447 4013 2328 
Q 4013 3213 3611 3725 
Q 3209 4238 2522 4238 
z
M 2522 4750 
Q 3503 4750 4090 4092 
Q 4678 3434 4678 2328 
Q 4678 1225 4090 567 
Q 3503 -91 2522 -91 
Q 1538 -91 948 565 
Q 359 1222 359 2328 
Q 359 3434 948 4092 
Q 1538 4750 2522 4750 
z
" transform="scale(0.015625)"/>
       <path id="DejaVuSans-57" d="M 213 4666 
L 850 4666 
L 1831 722 
L 2809 4666 
L 3519 4666 
L 4500 722 
L 5478 4666 
L 6119 4666 
L 4947 0 
L 4153 0 
L 3169 4050 
L 2175 0 
L 1381 0 
L 213 4666 
z
" transform="scale(0.015625)"/>
       <path id="DejaVuSans-41" d="M 2188 4044 
L 1331 1722 
L 3047 1722 
L 2188 4044 
z
M 1831 4666 
L 2547 4666 
L 4325 0 
L 3669 0 
L 3244 1197 
L 1141 1197 
L 716 0 
L 50 0 
L 1831 4666 
z
" transform="scale(0.015625)"/>
       <path id="DejaVuSans-54" d="M -19 4666 
L 3928 4666 
L 3928 4134 
L 2272 4134 
L 2272 0 
L 1638 0 
L 1638 4134 
L -19 4134 
L -19 4666 
z
" transform="scale(0.015625)"/>
       <path id="DejaVuSans-48" d="M 628 4666 
L 1259 4666 
L 1259 2753 
L 3553 2753 
L 3553 4666 
L 4184 4666 
L 4184 0 
L 3553 0 
L 3553 2222 
L 1259 2222 
L 1259 0 
L 628 0 
L 628 4666 
z
" transform="scale(0.015625)"/>
      </defs>
      <use xlink:href="#DejaVuSans-47"/>
      <use xlink:href="#DejaVuSans-75" transform="translate(77.490234 0)"/>
      <use xlink:href="#DejaVuSans-6f" transform="translate(140.869141 0)"/>
      <use xlink:href="#DejaVuSans-20" transform="translate(202.050781 0)"/>
      <use xlink:href="#DejaVuSans-32" transform="translate(233.837891 0)"/>
      <use xlink:href="#DejaVuSans-30" transform="translate(297.460938 0)"/>
      <use xlink:href="#DejaVuSans-31" transform="translate(361.083984 0)"/>
      <use xlink:href="#DejaVuSans-39" transform="translate(424.707031 0)"/>
      <use xlink:href="#DejaVuSans-20" transform="translate(488.330078 0)"/>
      <use xlink:href="#DejaVuSans-28" transform="translate(520.117188 0)"/>
      <use xlink:href="#DejaVuSans-4f" transform="translate(559.130859 0)"/>
      <use xlink:href="#DejaVuSans-70" transform="translate(637.841797 0)"/>
      <use xlink:href="#DejaVuSans-65" transform="translate(701.318359 0)"/>
      <use xlink:href="#DejaVuSans-6e" transform="translate(762.841797 0)"/>
      <use xlink:href="#DejaVuSans-53" transform="translate(826.220703 0)"/>
      <use xlink:href="#DejaVuSans-57" transform="translate(889.697266 0)"/>
      <use xlink:href="#DejaVuSans-41" transform="translate(983.074219 0)"/>
      <use xlink:href="#DejaVuSans-54" transform="translate(1043.732422 0)"/>
      <use xlink:href="#DejaVuSans-48" transform="translate(1104.816406 0)"/>
      <use xlink:href="#DejaVuSans-29" transform="translate(1180.011719 0)"/>
     </g>
    </g>
    <g id="line2d_17">
     <path d="M 550.295313 231.460312 
L 560.295313 231.460312 
L 570.295313 231.460312 
" style="fill: none; stroke: #1f77b4; stroke-linecap: square"/>
    </g>
    <g id="text_17">
     <!-- quantmsdiann (DIA-NN) -->
     <g transform="translate(578.295313 234.960312) scale(0.1 -0.1)">
      <defs>
       <path id="DejaVuSans-6d" d="M 3328 2828 
Q 3544 3216 3844 3400 
Q 4144 3584 4550 3584 
Q 5097 3584 5394 3201 
Q 5691 2819 5691 2113 
L 5691 0 
L 5113 0 
L 5113 2094 
Q 5113 2597 4934 2840 
Q 4756 3084 4391 3084 
Q 3944 3084 3684 2787 
Q 3425 2491 3425 1978 
L 3425 0 
L 2847 0 
L 2847 2094 
Q 2847 2600 2669 2842 
Q 2491 3084 2119 3084 
Q 1678 3084 1418 2786 
Q 1159 2488 1159 1978 
L 1159 0 
L 581 0 
L 581 3500 
L 1159 3500 
L 1159 2956 
Q 1356 3278 1631 3431 
Q 1906 3584 2284 3584 
Q 2666 3584 2933 3390 
Q 3200 3197 3328 2828 
z
" transform="scale(0.015625)"/>
       <path id="DejaVuSans-44" d="M 1259 4147 
L 1259 519 
L 2022 519 
Q 2988 519 3436 956 
Q 3884 1394 3884 2338 
Q 3884 3275 3436 3711 
Q 2988 4147 2022 4147 
L 1259 4147 
z
M 628 4666 
L 1925 4666 
Q 3281 4666 3915 4102 
Q 4550 3538 4550 2338 
Q 4550 1131 3912 565 
Q 3275 0 1925 0 
L 628 0 
L 628 4666 
z
" transform="scale(0.015625)"/>
       <path id="DejaVuSans-49" d="M 628 4666 
L 1259 4666 
L 1259 0 
L 628 0 
L 628 4666 
z
" transform="scale(0.015625)"/>
       <path id="DejaVuSans-2d" d="M 313 2009 
L 1997 2009 
L 1997 1497 
L 313 1497 
L 313 2009 
z
" transform="scale(0.015625)"/>
       <path id="DejaVuSans-4e" d="M 628 4666 
L 1478 4666 
L 3547 763 
L 3547 4666 
L 4159 4666 
L 4159 0 
L 3309 0 
L 1241 3903 
L 1241 0 
L 628 0 
L 628 4666 
z
" transform="scale(0.015625)"/>
      </defs>
      <use xlink:href="#DejaVuSans-71"/>
      <use xlink:href="#DejaVuSans-75" transform="translate(63.476562 0)"/>
      <use xlink:href="#DejaVuSans-61" transform="translate(126.855469 0)"/>
      <use xlink:href="#DejaVuSans-6e" transform="translate(188.134766 0)"/>
      <use xlink:href="#DejaVuSans-74" transform="translate(251.513672 0)"/>
      <use xlink:href="#DejaVuSans-6d" transform="translate(290.722656 0)"/>
      <use xlink:href="#DejaVuSans-73" transform="translate(388.134766 0)"/>
      <use xlink:href="#DejaVuSans-64" transform="translate(440.234375 0)"/>
      <use xlink:href="#DejaVuSans-69" transform="translate(503.710938 0)"/>
      <use xlink:href="#DejaVuSans-61" transform="translate(531.494141 0)"/>
      <use xlink:href="#DejaVuSans-6e" transform="translate(592.773438 0)"/>
      <use xlink:href="#DejaVuSans-6e" transform="translate(656.152344 0)"/>
      <use xlink:href="#DejaVuSans-20" transform="translate(719.53125 0)"/>
      <use xlink:href="#DejaVuSans-28" transform="translate(751.318359 0)"/>
      <use xlink:href="#DejaVuSans-44" transform="translate(790.332031 0)"/>
      <use xlink:href="#DejaVuSans-49" transform="translate(867.333984 0)"/>
      <use xlink:href="#DejaVuSans-41" transform="translate(896.826172 0)"/>
      <use xlink:href="#DejaVuSans-2d" transform="translate(962.984375 0)"/>
      <use xlink:href="#DejaVuSans-4e" transform="translate(999.068359 0)"/>
      <use xlink:href="#DejaVuSans-4e" transform="translate(1073.873047 0)"/>
      <use xlink:href="#DejaVuSans-29" transform="translate(1148.677734 0)"/>
     </g>
    </g>
   </g>
  </g>
 </g>
 <defs>
  <clipPath id="p0a8a8336b6">
   <rect x="47.72" y="10.8" width="661.48" height="235.24"/>
  </clipPath>
 </defs>
</svg>
