<?xml version="1.0" encoding="utf-8" standalone="no"?>
<!DOCTYPE svg PUBLIC "-//W3C//DTD SVG 1.1//EN"
  "http://www.w3.org/Graphics/SVG/1.1/DTD/svg11.dtd">
<svg xmlns:xlink="http://www.w3.org/1999/xlink" width="483.84pt" height="327.36pt" viewBox="0 0 483.84 327.36" xmlns="http://www.w3.org/2000/svg" version="1.1">
 <metadata>
  <rdf:RDF xmlns:dc="http://purl.org/dc/elements/1.1/" xmlns:cc="http://creativecommons.org/ns#" xmlns:rdf="http://www.w3.org/1999/02/22-rdf-syntax-ns#">
   <cc:Work>
    <dc:type rdf:resource="http://purl.org/dc/dcmitype/StillImage"/>
    <dc:date>2026-06-23T17:09:40.489414</dc:date>
    <dc:format>image/svg+xml</dc:format>
    <dc:creator>
     <cc:Agent>
      <dc:title>Matplotlib v3.10.8, https://matplotlib.org/</dc:title>
     </cc:Agent>
    </dc:creator>
   </cc:Work>
  </rdf:RDF>
 </metadata>
 <defs>
  <style type="text/css">*{stroke-linejoin: round; stroke-linecap: butt}</style>
 </defs>
 <g id="figure_1">
  <g id="patch_1">
   <path d="M 0 327.36 
L 483.84 327.36 
L 483.84 0 
L 0 0 
z
" style="fill: #ffffff"/>
  </g>
  <g id="axes_1">
   <g id="patch_2">
    <path d="M 163.68 265.392 
C 190.654338 265.392 216.527508 254.674982 235.601245 235.601245 
C 254.674982 216.527508 265.392 190.654338 265.392 163.68 
C 265.392 136.705662 254.674982 110.832492 235.601245 91.758755 
C 216.527508 72.685018 190.654338 61.968 163.68 61.968 
C 136.705662 61.968 110.832492 72.685018 91.758755 91.758755 
C 72.685018 110.832492 61.968 136.705662 61.968 163.68 
C 61.968 190.654338 72.685018 216.527508 91.758755 235.601245 
C 110.832492 254.674982 136.705662 265.392 163.68 265.392 
z
" clip-path="url(#p271dcf9c35)" style="fill: #9e9e9e; opacity: 0.55"/>
   </g>
   <g id="patch_3">
    <path d="M 273.216 265.392 
C 300.190338 265.392 326.063508 254.674982 345.137245 235.601245 
C 364.210982 216.527508 374.928 190.654338 374.928 163.68 
C 374.928 136.705662 364.210982 110.832492 345.137245 91.758755 
C 326.063508 72.685018 300.190338 61.968 273.216 61.968 
C 246.241662 61.968 220.368492 72.685018 201.294755 91.758755 
C 182.221018 110.832492 171.504 136.705662 171.504 163.68 
C 171.504 190.654338 182.221018 216.527508 201.294755 235.601245 
C 220.368492 254.674982 246.241662 265.392 273.216 265.392 
z
" clip-path="url(#p271dcf9c35)" style="fill: #1f77b4; opacity: 0.55"/>
   </g>
   <g id="text_1">
    <text style="font-size: 10px; font-family: 'Helvetica', 'Arial', 'DejaVu Sans', sans-serif" transform="translate(87.703062 160.834219)">57</text>
    <text style="font-size: 10px; font-family: 'Helvetica', 'Arial', 'DejaVu Sans', sans-serif" transform="translate(78.538219 171.614844)">(0.9%)</text>
   </g>
   <g id="text_2">
    <text style="font-size: 10px; font-family: 'Helvetica', 'Arial', 'DejaVu Sans', sans-serif" transform="translate(331.121062 160.834219)">2,885</text>
    <text style="font-size: 10px; font-family: 'Helvetica', 'Arial', 'DejaVu Sans', sans-serif" transform="translate(326.12575 171.614844)">(44.2%)</text>
   </g>
   <g id="text_3">
    <text style="font-size: 10px; font-family: 'Helvetica', 'Arial', 'DejaVu Sans', sans-serif" transform="translate(205.937062 160.834219)">3,587</text>
    <text style="font-size: 10px; font-family: 'Helvetica', 'Arial', 'DejaVu Sans', sans-serif" transform="translate(200.94175 171.614844)">(54.9%)</text>
   </g>
   <g id="text_4">
    <text style="font-size: 11px; font-family: 'Helvetica', 'Arial', 'DejaVu Sans', sans-serif" transform="translate(54.074672 32.1685)">Guo 2019 (OpenSWATH)</text>
    <text style="font-size: 11px; font-family: 'Helvetica', 'Arial', 'DejaVu Sans', sans-serif" transform="translate(93.040453 44.027187)">(n=3,644)</text>
   </g>
   <g id="text_5">
    <text style="font-size: 11px; font-family: 'Helvetica', 'Arial', 'DejaVu Sans', sans-serif" transform="translate(261.475859 32.1685)">quantmsdiann (DIA-NN)</text>
    <text style="font-size: 11px; font-family: 'Helvetica', 'Arial', 'DejaVu Sans', sans-serif" transform="translate(296.464453 44.027187)">(n=6,472)</text>
   </g>
  </g>
 </g>
 <defs>
  <clipPath id="p271dcf9c35">
   <rect x="7.2" y="7.2" width="469.44" height="312.96"/>
  </clipPath>
 </defs>
</svg>
