<?xml version="1.0" encoding="utf-8" standalone="no"?>
<!DOCTYPE svg PUBLIC "-//W3C//DTD SVG 1.1//EN"
  "http://www.w3.org/Graphics/SVG/1.1/DTD/svg11.dtd">
<svg xmlns:xlink="http://www.w3.org/1999/xlink" width="711.11125pt" height="278.185313pt" viewBox="0 0 711.11125 278.185313" xmlns="http://www.w3.org/2000/svg" version="1.1">
 <metadata>
  <rdf:RDF xmlns:dc="http://purl.org/dc/elements/1.1/" xmlns:cc="http://creativecommons.org/ns#" xmlns:rdf="http://www.w3.org/1999/02/22-rdf-syntax-ns#">
   <cc:Work>
    <dc:type rdf:resource="http://purl.org/dc/dcmitype/StillImage"/>
    <dc:date>2026-06-12T12:16:53.199604</dc:date>
    <dc:format>image/svg+xml</dc:format>
    <dc:creator>
     <cc:Agent>
      <dc:title>Matplotlib v3.10.6, https://matplotlib.org/</dc:title>
     </cc:Agent>
    </dc:creator>
   </cc:Work>
  </rdf:RDF>
 </metadata>
 <defs>
  <style type="text/css">*{stroke-linejoin: round; stroke-linecap: butt}</style>
 </defs>
 <g id="figure_1">
  <g id="patch_1">
   <path d="M 0 278.185313 
L 711.11125 278.185313 
L 711.11125 0 
L 0 0 
z
" style="fill: #ffffff"/>
  </g>
  <g id="axes_1">
   <g id="patch_2">
    <path d="M 43.33125 239.3125 
L 703.91125 239.3125 
L 703.91125 7.2 
L 43.33125 7.2 
z
" style="fill: #ffffff"/>
   </g>
   <g id="matplotlib.axis_1">
    <g id="xtick_1">
     <g id="line2d_1">
      <defs>
       <path id="md797ba50f5" d="M 0 0 
L 0 3.5 
" style="stroke: #000000; stroke-width: 0.8"/>
      </defs>
      <g>
       <use xlink:href="#md797ba50f5" x="73.357614" y="239.3125" style="stroke: #000000; stroke-width: 0.8"/>
      </g>
     </g>
     <g id="text_1">
      <text style="font-size: 10px; font-family: 'Helvetica', 'Arial', 'DejaVu Sans', sans-serif; text-anchor: middle" x="73.357614" y="253.485938" transform="rotate(-0 73.357614 253.485938)">0</text>
     </g>
    </g>
    <g id="xtick_2">
     <g id="line2d_2">
      <g>
       <use xlink:href="#md797ba50f5" x="175.141897" y="239.3125" style="stroke: #000000; stroke-width: 0.8"/>
      </g>
     </g>
     <g id="text_2">
      <text style="font-size: 10px; font-family: 'Helvetica', 'Arial', 'DejaVu Sans', sans-serif; text-anchor: middle" x="175.141897" y="253.485938" transform="rotate(-0 175.141897 253.485938)">20</text>
     </g>
    </g>
    <g id="xtick_3">
     <g id="line2d_3">
      <g>
       <use xlink:href="#md797ba50f5" x="276.926181" y="239.3125" style="stroke: #000000; stroke-width: 0.8"/>
      </g>
     </g>
     <g id="text_3">
      <text style="font-size: 10px; font-family: 'Helvetica', 'Arial', 'DejaVu Sans', sans-serif; text-anchor: middle" x="276.926181" y="253.485938" transform="rotate(-0 276.926181 253.485938)">40</text>
     </g>
    </g>
    <g id="xtick_4">
     <g id="line2d_4">
      <g>
       <use xlink:href="#md797ba50f5" x="378.710464" y="239.3125" style="stroke: #000000; stroke-width: 0.8"/>
      </g>
     </g>
     <g id="text_4">
      <text style="font-size: 10px; font-family: 'Helvetica', 'Arial', 'DejaVu Sans', sans-serif; text-anchor: middle" x="378.710464" y="253.485938" transform="rotate(-0 378.710464 253.485938)">60</text>
     </g>
    </g>
    <g id="xtick_5">
     <g id="line2d_5">
      <g>
       <use xlink:href="#md797ba50f5" x="480.494748" y="239.3125" style="stroke: #000000; stroke-width: 0.8"/>
      </g>
     </g>
     <g id="text_5">
      <text style="font-size: 10px; font-family: 'Helvetica', 'Arial', 'DejaVu Sans', sans-serif; text-anchor: middle" x="480.494748" y="253.485938" transform="rotate(-0 480.494748 253.485938)">80</text>
     </g>
    </g>
    <g id="xtick_6">
     <g id="line2d_6">
      <g>
       <use xlink:href="#md797ba50f5" x="582.279031" y="239.3125" style="stroke: #000000; stroke-width: 0.8"/>
      </g>
     </g>
     <g id="text_6">
      <text style="font-size: 10px; font-family: 'Helvetica', 'Arial', 'DejaVu Sans', sans-serif; text-anchor: middle" x="582.279031" y="253.485938" transform="rotate(-0 582.279031 253.485938)">100</text>
     </g>
    </g>
    <g id="xtick_7">
     <g id="line2d_7">
      <g>
       <use xlink:href="#md797ba50f5" x="684.063315" y="239.3125" style="stroke: #000000; stroke-width: 0.8"/>
      </g>
     </g>
     <g id="text_7">
      <text style="font-size: 10px; font-family: 'Helvetica', 'Arial', 'DejaVu Sans', sans-serif; text-anchor: middle" x="684.063315" y="253.485938" transform="rotate(-0 684.063315 253.485938)">120</text>
     </g>
    </g>
    <g id="text_8">
     <text style="font-size: 12px; font-family: 'Helvetica', 'Arial', 'DejaVu Sans', sans-serif; text-anchor: middle" x="373.62125" y="268.412813" transform="rotate(-0 373.62125 268.412813)">MS run index (119 runs, ordered by acquisition date)</text>
    </g>
   </g>
   <g id="matplotlib.axis_2">
    <g id="ytick_1">
     <g id="line2d_8">
      <defs>
       <path id="mc95a0e3382" d="M 0 0 
L -3.5 0 
" style="stroke: #000000; stroke-width: 0.8"/>
      </defs>
      <g>
       <use xlink:href="#mc95a0e3382" x="43.33125" y="239.3125" style="stroke: #000000; stroke-width: 0.8"/>
      </g>
     </g>
     <g id="text_9">
      <text style="font-size: 10px; font-family: 'Helvetica', 'Arial', 'DejaVu Sans', sans-serif; text-anchor: end" x="36.33125" y="242.899219" transform="rotate(-0 36.33125 242.899219)">0.0</text>
     </g>
    </g>
    <g id="ytick_2">
     <g id="line2d_9">
      <g>
       <use xlink:href="#mc95a0e3382" x="43.33125" y="195.100595" style="stroke: #000000; stroke-width: 0.8"/>
      </g>
     </g>
     <g id="text_10">
      <text style="font-size: 10px; font-family: 'Helvetica', 'Arial', 'DejaVu Sans', sans-serif; text-anchor: end" x="36.33125" y="198.687314" transform="rotate(-0 36.33125 198.687314)">0.2</text>
     </g>
    </g>
    <g id="ytick_3">
     <g id="line2d_10">
      <g>
       <use xlink:href="#mc95a0e3382" x="43.33125" y="150.88869" style="stroke: #000000; stroke-width: 0.8"/>
      </g>
     </g>
     <g id="text_11">
      <text style="font-size: 10px; font-family: 'Helvetica', 'Arial', 'DejaVu Sans', sans-serif; text-anchor: end" x="36.33125" y="154.475409" transform="rotate(-0 36.33125 154.475409)">0.4</text>
     </g>
    </g>
    <g id="ytick_4">
     <g id="line2d_11">
      <g>
       <use xlink:href="#mc95a0e3382" x="43.33125" y="106.676786" style="stroke: #000000; stroke-width: 0.8"/>
      </g>
     </g>
     <g id="text_12">
      <text style="font-size: 10px; font-family: 'Helvetica', 'Arial', 'DejaVu Sans', sans-serif; text-anchor: end" x="36.33125" y="110.263504" transform="rotate(-0 36.33125 110.263504)">0.6</text>
     </g>
    </g>
    <g id="ytick_5">
     <g id="line2d_12">
      <g>
       <use xlink:href="#mc95a0e3382" x="43.33125" y="62.464881" style="stroke: #000000; stroke-width: 0.8"/>
      </g>
     </g>
     <g id="text_13">
      <text style="font-size: 10px; font-family: 'Helvetica', 'Arial', 'DejaVu Sans', sans-serif; text-anchor: end" x="36.33125" y="66.0516" transform="rotate(-0 36.33125 66.0516)">0.8</text>
     </g>
    </g>
    <g id="ytick_6">
     <g id="line2d_13">
      <g>
       <use xlink:href="#mc95a0e3382" x="43.33125" y="18.252976" style="stroke: #000000; stroke-width: 0.8"/>
      </g>
     </g>
     <g id="text_14">
      <text style="font-size: 10px; font-family: 'Helvetica', 'Arial', 'DejaVu Sans', sans-serif; text-anchor: end" x="36.33125" y="21.839695" transform="rotate(-0 36.33125 21.839695)">1.0</text>
     </g>
    </g>
    <g id="text_15">
     <text style="font-size: 12px; font-family: 'Helvetica', 'Arial', 'DejaVu Sans', sans-serif; text-anchor: middle" x="15.93" y="123.25625" transform="rotate(-90 15.93 123.25625)">Fraction of precursors quantified per run</text>
    </g>
   </g>
   <g id="line2d_14">
    <path d="M 73.357614 160.657096 
L 78.446828 147.793108 
L 83.536042 147.815957 
L 88.625256 149.164048 
L 93.71447 146.993393 
L 98.803685 157.979193 
L 103.892899 153.848093 
L 108.982113 160.149848 
L 114.071327 146.454156 
L 119.160541 148.286646 
L 124.249755 148.085575 
L 129.33897 143.406099 
L 134.428184 148.469438 
L 139.517398 146.787752 
L 144.606612 151.462657 
L 149.695826 178.817483 
L 154.78504 152.052162 
L 159.874255 155.845096 
L 164.963469 160.766771 
L 170.052683 142.441871 
L 175.141897 146.335341 
L 180.231111 151.430669 
L 185.320326 143.241587 
L 190.40954 156.329495 
L 195.498754 153.706429 
L 200.587968 144.118988 
L 205.677182 151.133632 
L 210.766396 145.818954 
L 215.855611 149.374259 
L 220.944825 146.458726 
L 226.034039 151.211318 
L 231.123253 148.912709 
L 236.212467 145.064937 
L 241.301681 146.198247 
L 246.390896 144.096139 
L 251.48011 152.143558 
L 256.569324 143.799102 
L 261.658538 149.34684 
L 266.747752 152.426885 
L 271.836966 150.553267 
L 276.926181 165.3777 
L 282.015395 149.57076 
L 287.104609 168.658816 
L 292.193823 154.890008 
L 297.283037 150.512139 
L 302.372252 157.695865 
L 307.461466 150.192253 
L 312.55068 142.542407 
L 317.639894 145.91035 
L 322.729108 145.142623 
L 327.818322 144.06872 
L 332.907537 146.006316 
L 337.996751 152.09329 
L 343.085965 147.162475 
L 348.175179 138.977963 
L 353.264393 145.553906 
L 358.353607 141.870646 
L 363.442822 160.995261 
L 368.532036 148.606532 
L 373.62125 148.213529 
L 378.710464 149.648447 
L 383.799678 144.877575 
L 388.888893 156.594543 
L 393.978107 151.147341 
L 399.067321 159.720287 
L 404.156535 145.042088 
L 409.245749 150.141985 
L 414.334963 144.123558 
L 419.424178 138.694635 
L 424.513392 145.777826 
L 429.602606 137.629872 
L 434.69182 146.445017 
L 439.781034 181.559363 
L 444.870248 154.953985 
L 449.959463 157.056093 
L 455.048677 158.376765 
L 460.137891 142.976538 
L 465.227105 146.947695 
L 470.316319 150.932561 
L 475.405534 139.297849 
L 480.494748 149.849518 
L 485.583962 144.160116 
L 490.673176 137.556755 
L 495.76239 145.22031 
L 500.851604 140.554544 
L 505.940819 147.0528 
L 511.030033 142.47843 
L 516.119247 147.007102 
L 521.208461 139.238441 
L 526.297675 141.824948 
L 531.386889 143.808242 
L 536.476104 138.886567 
L 541.565318 146.001746 
L 546.654532 136.268071 
L 551.743746 142.894282 
L 556.83296 143.885928 
L 561.922174 146.431307 
L 567.011389 157.663877 
L 572.100603 143.492926 
L 577.189817 166.570417 
L 582.279031 151.837381 
L 587.368245 145.718418 
L 592.45746 151.069655 
L 597.546674 146.106851 
L 602.635888 138.81345 
L 607.725102 141.436515 
L 612.814316 142.560686 
L 617.90353 138.996242 
L 622.992745 141.381678 
L 628.081959 147.564618 
L 633.171173 142.971968 
L 638.260387 144.936982 
L 643.349601 144.448014 
L 648.438815 163.30758 
L 653.52803 162.073734 
L 658.617244 172.789916 
L 663.706458 174.471602 
L 668.795672 162.082873 
L 673.884886 165.405118 
" clip-path="url(#pb2ab83dd8c)" style="fill: none; stroke: #9e9e9e; stroke-linecap: square"/>
   </g>
   <g id="line2d_15">
    <path d="M 73.357614 159.602669 
L 78.446828 149.391416 
L 83.536042 154.978457 
L 88.625256 152.336319 
L 93.71447 153.934766 
L 98.803685 155.021709 
L 103.892899 153.118618 
L 108.982113 154.34472 
L 114.071327 149.697942 
L 119.160541 154.30711 
L 124.249755 149.528694 
L 129.33897 145.884236 
L 134.428184 150.561103 
L 139.517398 148.233012 
L 144.606612 149.088652 
L 149.695826 176.60638 
L 154.78504 154.869387 
L 159.874255 156.772478 
L 164.963469 159.724903 
L 170.052683 149.793849 
L 175.141897 152.486761 
L 180.231111 155.674252 
L 185.320326 152.552579 
L 190.40954 161.225563 
L 195.498754 154.859984 
L 200.587968 148.11642 
L 205.677182 152.469836 
L 210.766396 152.262978 
L 215.855611 156.432103 
L 220.944825 151.648047 
L 226.034039 156.09925 
L 231.123253 149.045399 
L 236.212467 151.405459 
L 241.301681 151.033115 
L 246.390896 148.962656 
L 251.48011 155.693057 
L 256.569324 149.163873 
L 261.658538 157.163628 
L 266.747752 156.238409 
L 271.836966 155.410978 
L 276.926181 160.659524 
L 282.015395 155.09505 
L 287.104609 169.351313 
L 292.193823 160.153663 
L 297.283037 157.394932 
L 302.372252 159.929881 
L 307.461466 150.961655 
L 312.55068 155.952569 
L 317.639894 157.056438 
L 322.729108 154.929563 
L 327.818322 153.976137 
L 332.907537 154.822374 
L 337.996751 157.268937 
L 343.085965 153.158109 
L 348.175179 151.328357 
L 353.264393 154.592949 
L 358.353607 156.514846 
L 363.442822 167.797999 
L 368.532036 157.306548 
L 373.62125 162.904872 
L 378.710464 160.441383 
L 383.799678 163.019584 
L 388.888893 163.910953 
L 393.978107 159.32059 
L 399.067321 161.93264 
L 404.156535 155.77768 
L 409.245749 161.535849 
L 414.334963 155.661088 
L 419.424178 152.127581 
L 424.513392 156.13498 
L 429.602606 153.122379 
L 434.69182 156.091728 
L 439.781034 184.513989 
L 444.870248 162.365161 
L 449.959463 164.655641 
L 455.048677 164.996016 
L 460.137891 160.717821 
L 465.227105 161.029988 
L 470.316319 163.273455 
L 475.405534 141.867434 
L 480.494748 148.253698 
L 485.583962 138.234259 
L 490.673176 132.214697 
L 495.76239 138.147755 
L 500.851604 138.627289 
L 505.940819 143.836344 
L 511.030033 137.280832 
L 516.119247 143.469642 
L 521.208461 136.761807 
L 526.297675 139.091778 
L 531.386889 137.160479 
L 536.476104 134.932056 
L 541.565318 142.766325 
L 546.654532 134.23062 
L 551.743746 142.653494 
L 556.83296 143.567429 
L 561.922174 141.288232 
L 567.011389 148.925046 
L 572.100603 136.59068 
L 577.189817 155.819052 
L 582.279031 141.068211 
L 587.368245 141.293874 
L 592.45746 140.870755 
L 597.546674 136.560591 
L 602.635888 139.251623 
L 607.725102 141.165998 
L 612.814316 139.069212 
L 617.90353 138.66866 
L 622.992745 141.777169 
L 628.081959 139.975625 
L 633.171173 138.672421 
L 638.260387 135.94754 
L 643.349601 142.807697 
L 648.438815 161.885627 
L 653.52803 165.793359 
L 658.617244 172.06115 
L 663.706458 172.841568 
L 668.795672 161.729543 
L 673.884886 161.494478 
" clip-path="url(#pb2ab83dd8c)" style="fill: none; stroke: #0072b2; stroke-linecap: square"/>
   </g>
   <g id="patch_3">
    <path d="M 43.33125 239.3125 
L 43.33125 7.2 
" style="fill: none; stroke: #000000; stroke-width: 0.8; stroke-linejoin: miter; stroke-linecap: square"/>
   </g>
   <g id="patch_4">
    <path d="M 43.33125 239.3125 
L 703.91125 239.3125 
" style="fill: none; stroke: #000000; stroke-width: 0.8; stroke-linejoin: miter; stroke-linecap: square"/>
   </g>
   <g id="legend_1">
    <g id="line2d_16">
     <path d="M 552.981562 210.353125 
L 562.981562 210.353125 
L 572.981562 210.353125 
" style="fill: none; stroke: #9e9e9e; stroke-linecap: square"/>
    </g>
    <g id="text_16">
     <text style="font-size: 10px; font-family: 'Helvetica', 'Arial', 'DejaVu Sans', sans-serif; text-anchor: start" x="580.981562" y="213.853125" transform="rotate(-0 580.981562 213.853125)">Guo 2019 (OpenSWATH)</text>
    </g>
    <g id="line2d_17">
     <path d="M 552.981562 224.728125 
L 562.981562 224.728125 
L 572.981562 224.728125 
" style="fill: none; stroke: #0072b2; stroke-linecap: square"/>
    </g>
    <g id="text_17">
     <text style="font-size: 10px; font-family: 'Helvetica', 'Arial', 'DejaVu Sans', sans-serif; text-anchor: start" x="580.981562" y="228.228125" transform="rotate(-0 580.981562 228.228125)">quantmsdiann (DIA-NN)</text>
    </g>
   </g>
  </g>
 </g>
 <defs>
  <clipPath id="pb2ab83dd8c">
   <rect x="43.33125" y="7.2" width="660.58" height="232.1125"/>
  </clipPath>
 </defs>
</svg>
