<?xml version="1.0" encoding="utf-8" standalone="no"?>
<!DOCTYPE svg PUBLIC "-//W3C//DTD SVG 1.1//EN"
  "http://www.w3.org/Graphics/SVG/1.1/DTD/svg11.dtd">
<svg xmlns:xlink="http://www.w3.org/1999/xlink" width="354.437969pt" height="339.68pt" viewBox="0 0 354.437969 339.68" xmlns="http://www.w3.org/2000/svg" version="1.1">
 <metadata>
  <rdf:RDF xmlns:dc="http://purl.org/dc/elements/1.1/" xmlns:cc="http://creativecommons.org/ns#" xmlns:rdf="http://www.w3.org/1999/02/22-rdf-syntax-ns#">
   <cc:Work>
    <dc:type rdf:resource="http://purl.org/dc/dcmitype/StillImage"/>
    <dc:date>2026-06-21T17:30:05.308932</dc:date>
    <dc:format>image/svg+xml</dc:format>
    <dc:creator>
     <cc:Agent>
      <dc:title>Matplotlib v3.11.0, https://matplotlib.org/</dc:title>
     </cc:Agent>
    </dc:creator>
   </cc:Work>
  </rdf:RDF>
 </metadata>
 <defs>
  <style type="text/css">*{stroke-linejoin: round; stroke-linecap: butt}</style>
 </defs>
 <g id="figure_1">
  <g id="patch_1">
   <path d="M 0 339.68 
L 354.437969 339.68 
L 354.437969 0 
L 0 0 
z
" style="fill: #ffffff"/>
  </g>
  <g id="axes_1">
   <g id="patch_2">
    <path d="M 61.516875 292.921094 
L 347.237969 292.921094 
L 347.237969 7.2 
L 61.516875 7.2 
z
" style="fill: #ffffff"/>
   </g>
   <g id="line2d_1">
    <path d="M 61.516875 292.921094 
L 347.237969 7.2 
" clip-path="url(#pdcf5295d77)" style="fill: none; stroke-dasharray: 4.07,1.76; stroke-dashoffset: 0; stroke: #444444; stroke-width: 1.1"/>
   </g>
   <g id="matplotlib.axis_1">
    <g id="xtick_1">
     <g id="line2d_2">
      <defs>
       <path id="mf6ff82257f" d="M 0 0 
L 0 3.5 
" style="stroke: #000000; stroke-width: 0.8"/>
      </defs>
      <g>
       <use xlink:href="#mf6ff82257f" x="106.972504" y="292.921094" style="stroke: #000000; stroke-width: 0.8"/>
      </g>
     </g>
     <g id="text_1">
      <text style="font-size: 14px; font-family: 'Helvetica', 'Arial', 'DejaVu Sans', sans-serif; text-anchor: middle" x="106.972504" y="310.421094" transform="rotate(-0 106.972504 310.421094)">−2</text>
     </g>
    </g>
    <g id="xtick_2">
     <g id="line2d_3">
      <g>
       <use xlink:href="#mf6ff82257f" x="171.909116" y="292.921094" style="stroke: #000000; stroke-width: 0.8"/>
      </g>
     </g>
     <g id="text_2">
      <text style="font-size: 14px; font-family: 'Helvetica', 'Arial', 'DejaVu Sans', sans-serif; text-anchor: middle" x="171.909116" y="310.421094" transform="rotate(-0 171.909116 310.421094)">−1</text>
     </g>
    </g>
    <g id="xtick_3">
     <g id="line2d_4">
      <g>
       <use xlink:href="#mf6ff82257f" x="236.845728" y="292.921094" style="stroke: #000000; stroke-width: 0.8"/>
      </g>
     </g>
     <g id="text_3">
      <text style="font-size: 14px; font-family: 'Helvetica', 'Arial', 'DejaVu Sans', sans-serif; text-anchor: middle" x="236.845728" y="310.421094" transform="rotate(-0 236.845728 310.421094)">0</text>
     </g>
    </g>
    <g id="xtick_4">
     <g id="line2d_5">
      <g>
       <use xlink:href="#mf6ff82257f" x="301.78234" y="292.921094" style="stroke: #000000; stroke-width: 0.8"/>
      </g>
     </g>
     <g id="text_4">
      <text style="font-size: 14px; font-family: 'Helvetica', 'Arial', 'DejaVu Sans', sans-serif; text-anchor: middle" x="301.78234" y="310.421094" transform="rotate(-0 301.78234 310.421094)">1</text>
     </g>
    </g>
    <g id="text_5">
     <!-- Expected log$_2$ ratio (ProteoBench) -->
     <g transform="translate(82.617422 328.8)">
      <text>
       <tspan x="0" y="-0.328125" style="font-size: 16px; font-family: 'Helvetica'">E</tspan>
       <tspan x="10.671875" y="-0.328125" style="font-size: 16px; font-family: 'Helvetica'">x</tspan>
       <tspan x="18.671875" y="-0.328125" style="font-size: 16px; font-family: 'Helvetica'">p</tspan>
       <tspan x="27.570312" y="-0.328125" style="font-size: 16px; font-family: 'Helvetica'">e</tspan>
       <tspan x="36.46875" y="-0.328125" style="font-size: 16px; font-family: 'Helvetica'">c</tspan>
       <tspan x="44.46875" y="-0.328125" style="font-size: 16px; font-family: 'Helvetica'">t</tspan>
       <tspan x="48.914062" y="-0.328125" style="font-size: 16px; font-family: 'Helvetica'">e</tspan>
       <tspan x="57.8125" y="-0.328125" style="font-size: 16px; font-family: 'Helvetica'">d</tspan>
       <tspan x="66.710938" y="-0.328125" style="font-size: 16px; font-family: 'Helvetica'"> </tspan>
       <tspan x="71.15625" y="-0.328125" style="font-size: 16px; font-family: 'Helvetica'">l</tspan>
       <tspan x="74.710938" y="-0.328125" style="font-size: 16px; font-family: 'Helvetica'">o</tspan>
       <tspan x="83.609375" y="-0.328125" style="font-size: 16px; font-family: 'Helvetica'">g</tspan>
       <tspan x="100.224219" y="-0.328125" style="font-size: 16px; font-family: 'Helvetica'"> </tspan>
       <tspan x="104.669531" y="-0.328125" style="font-size: 16px; font-family: 'Helvetica'">r</tspan>
       <tspan x="109.997656" y="-0.328125" style="font-size: 16px; font-family: 'Helvetica'">a</tspan>
       <tspan x="118.896094" y="-0.328125" style="font-size: 16px; font-family: 'Helvetica'">t</tspan>
       <tspan x="123.341406" y="-0.328125" style="font-size: 16px; font-family: 'Helvetica'">i</tspan>
       <tspan x="126.896094" y="-0.328125" style="font-size: 16px; font-family: 'Helvetica'">o</tspan>
       <tspan x="135.794531" y="-0.328125" style="font-size: 16px; font-family: 'Helvetica'"> </tspan>
       <tspan x="140.239844" y="-0.328125" style="font-size: 16px; font-family: 'Helvetica'">(</tspan>
       <tspan x="145.567969" y="-0.328125" style="font-size: 16px; font-family: 'Helvetica'">P</tspan>
       <tspan x="156.239844" y="-0.328125" style="font-size: 16px; font-family: 'Helvetica'">r</tspan>
       <tspan x="161.567969" y="-0.328125" style="font-size: 16px; font-family: 'Helvetica'">o</tspan>
       <tspan x="170.466406" y="-0.328125" style="font-size: 16px; font-family: 'Helvetica'">t</tspan>
       <tspan x="174.911719" y="-0.328125" style="font-size: 16px; font-family: 'Helvetica'">e</tspan>
       <tspan x="183.810156" y="-0.328125" style="font-size: 16px; font-family: 'Helvetica'">o</tspan>
       <tspan x="192.708594" y="-0.328125" style="font-size: 16px; font-family: 'Helvetica'">B</tspan>
       <tspan x="203.380469" y="-0.328125" style="font-size: 16px; font-family: 'Helvetica'">e</tspan>
       <tspan x="212.278906" y="-0.328125" style="font-size: 16px; font-family: 'Helvetica'">n</tspan>
       <tspan x="221.177344" y="-0.328125" style="font-size: 16px; font-family: 'Helvetica'">c</tspan>
       <tspan x="229.177344" y="-0.328125" style="font-size: 16px; font-family: 'Helvetica'">h</tspan>
       <tspan x="238.075781" y="-0.328125" style="font-size: 16px; font-family: 'Helvetica'">)</tspan>
       <tspan x="92.660938" y="2.071867" style="font-size: 11.2px; font-family: 'DejaVu Sans'">2</tspan>
      </text>
     </g>
    </g>
   </g>
   <g id="matplotlib.axis_2">
    <g id="ytick_1">
     <g id="line2d_6">
      <defs>
       <path id="m91b7a5ab11" d="M 0 0 
L -3.5 0 
" style="stroke: #000000; stroke-width: 0.8"/>
      </defs>
      <g>
       <use xlink:href="#m91b7a5ab11" x="61.516875" y="279.933771" style="stroke: #000000; stroke-width: 0.8"/>
      </g>
     </g>
     <g id="text_6">
      <text style="font-size: 14px; font-family: 'Helvetica', 'Arial', 'DejaVu Sans', sans-serif; text-anchor: end" x="54.516875" y="285.183771" transform="rotate(-0 54.516875 285.183771)">−2.5</text>
     </g>
    </g>
    <g id="ytick_2">
     <g id="line2d_7">
      <g>
       <use xlink:href="#m91b7a5ab11" x="61.516875" y="247.465465" style="stroke: #000000; stroke-width: 0.8"/>
      </g>
     </g>
     <g id="text_7">
      <text style="font-size: 14px; font-family: 'Helvetica', 'Arial', 'DejaVu Sans', sans-serif; text-anchor: end" x="54.516875" y="252.715465" transform="rotate(-0 54.516875 252.715465)">−2.0</text>
     </g>
    </g>
    <g id="ytick_3">
     <g id="line2d_8">
      <g>
       <use xlink:href="#m91b7a5ab11" x="61.516875" y="214.997159" style="stroke: #000000; stroke-width: 0.8"/>
      </g>
     </g>
     <g id="text_8">
      <text style="font-size: 14px; font-family: 'Helvetica', 'Arial', 'DejaVu Sans', sans-serif; text-anchor: end" x="54.516875" y="220.247159" transform="rotate(-0 54.516875 220.247159)">−1.5</text>
     </g>
    </g>
    <g id="ytick_4">
     <g id="line2d_9">
      <g>
       <use xlink:href="#m91b7a5ab11" x="61.516875" y="182.528853" style="stroke: #000000; stroke-width: 0.8"/>
      </g>
     </g>
     <g id="text_9">
      <text style="font-size: 14px; font-family: 'Helvetica', 'Arial', 'DejaVu Sans', sans-serif; text-anchor: end" x="54.516875" y="187.778853" transform="rotate(-0 54.516875 187.778853)">−1.0</text>
     </g>
    </g>
    <g id="ytick_5">
     <g id="line2d_10">
      <g>
       <use xlink:href="#m91b7a5ab11" x="61.516875" y="150.060547" style="stroke: #000000; stroke-width: 0.8"/>
      </g>
     </g>
     <g id="text_10">
      <text style="font-size: 14px; font-family: 'Helvetica', 'Arial', 'DejaVu Sans', sans-serif; text-anchor: end" x="54.516875" y="155.310547" transform="rotate(-0 54.516875 155.310547)">−0.5</text>
     </g>
    </g>
    <g id="ytick_6">
     <g id="line2d_11">
      <g>
       <use xlink:href="#m91b7a5ab11" x="61.516875" y="117.592241" style="stroke: #000000; stroke-width: 0.8"/>
      </g>
     </g>
     <g id="text_11">
      <text style="font-size: 14px; font-family: 'Helvetica', 'Arial', 'DejaVu Sans', sans-serif; text-anchor: end" x="54.516875" y="122.842241" transform="rotate(-0 54.516875 122.842241)">0.0</text>
     </g>
    </g>
    <g id="ytick_7">
     <g id="line2d_12">
      <g>
       <use xlink:href="#m91b7a5ab11" x="61.516875" y="85.123935" style="stroke: #000000; stroke-width: 0.8"/>
      </g>
     </g>
     <g id="text_12">
      <text style="font-size: 14px; font-family: 'Helvetica', 'Arial', 'DejaVu Sans', sans-serif; text-anchor: end" x="54.516875" y="90.373935" transform="rotate(-0 54.516875 90.373935)">0.5</text>
     </g>
    </g>
    <g id="ytick_8">
     <g id="line2d_13">
      <g>
       <use xlink:href="#m91b7a5ab11" x="61.516875" y="52.655629" style="stroke: #000000; stroke-width: 0.8"/>
      </g>
     </g>
     <g id="text_13">
      <text style="font-size: 14px; font-family: 'Helvetica', 'Arial', 'DejaVu Sans', sans-serif; text-anchor: end" x="54.516875" y="57.905629" transform="rotate(-0 54.516875 57.905629)">1.0</text>
     </g>
    </g>
    <g id="ytick_9">
     <g id="line2d_14">
      <g>
       <use xlink:href="#m91b7a5ab11" x="61.516875" y="20.187322" style="stroke: #000000; stroke-width: 0.8"/>
      </g>
     </g>
     <g id="text_14">
      <text style="font-size: 14px; font-family: 'Helvetica', 'Arial', 'DejaVu Sans', sans-serif; text-anchor: end" x="54.516875" y="25.437322" transform="rotate(-0 54.516875 25.437322)">1.5</text>
     </g>
    </g>
    <g id="text_15">
     <!-- Observed log$_2$ ratio -->
     <g transform="translate(19.2 219.340547) rotate(-90)">
      <text>
       <tspan x="0" y="-0.203125" style="font-size: 16px; font-family: 'Helvetica'">O</tspan>
       <tspan x="12.445312" y="-0.203125" style="font-size: 16px; font-family: 'Helvetica'">b</tspan>
       <tspan x="21.34375" y="-0.203125" style="font-size: 16px; font-family: 'Helvetica'">s</tspan>
       <tspan x="29.34375" y="-0.203125" style="font-size: 16px; font-family: 'Helvetica'">e</tspan>
       <tspan x="38.242188" y="-0.203125" style="font-size: 16px; font-family: 'Helvetica'">r</tspan>
       <tspan x="43.570312" y="-0.203125" style="font-size: 16px; font-family: 'Helvetica'">v</tspan>
       <tspan x="51.570312" y="-0.203125" style="font-size: 16px; font-family: 'Helvetica'">e</tspan>
       <tspan x="60.46875" y="-0.203125" style="font-size: 16px; font-family: 'Helvetica'">d</tspan>
       <tspan x="69.367188" y="-0.203125" style="font-size: 16px; font-family: 'Helvetica'"> </tspan>
       <tspan x="73.8125" y="-0.203125" style="font-size: 16px; font-family: 'Helvetica'">l</tspan>
       <tspan x="77.367188" y="-0.203125" style="font-size: 16px; font-family: 'Helvetica'">o</tspan>
       <tspan x="86.265625" y="-0.203125" style="font-size: 16px; font-family: 'Helvetica'">g</tspan>
       <tspan x="102.880469" y="-0.203125" style="font-size: 16px; font-family: 'Helvetica'"> </tspan>
       <tspan x="107.325781" y="-0.203125" style="font-size: 16px; font-family: 'Helvetica'">r</tspan>
       <tspan x="112.653906" y="-0.203125" style="font-size: 16px; font-family: 'Helvetica'">a</tspan>
       <tspan x="121.552344" y="-0.203125" style="font-size: 16px; font-family: 'Helvetica'">t</tspan>
       <tspan x="125.997656" y="-0.203125" style="font-size: 16px; font-family: 'Helvetica'">i</tspan>
       <tspan x="129.552344" y="-0.203125" style="font-size: 16px; font-family: 'Helvetica'">o</tspan>
       <tspan x="95.317188" y="2.196867" style="font-size: 11.2px; font-family: 'DejaVu Sans'">2</tspan>
      </text>
     </g>
    </g>
   </g>
   <g id="PathCollection_1">
    <defs>
     <path id="C0_0_5c17ef086e" d="M 0 2.345208 
C 0.621956 2.345208 1.218523 2.098102 1.658312 1.658312 
C 2.098102 1.218523 2.345208 0.621956 2.345208 -0 
C 2.345208 -0.621956 2.098102 -1.218523 1.658312 -1.658312 
C 1.218523 -2.098102 0.621956 -2.345208 0 -2.345208 
C -0.621956 -2.345208 -1.218523 -2.098102 -1.658312 -1.658312 
C -2.098102 -1.218523 -2.345208 -0.621956 -2.345208 0 
C -2.345208 0.621956 -2.098102 1.218523 -1.658312 1.658312 
C -1.218523 2.098102 -0.621956 2.345208 0 2.345208 
z
"/>
    </defs>
    <g clip-path="url(#pdcf5295d77)">
     <use xlink:href="#C0_0_5c17ef086e" x="237.735111" y="124.865539" style="fill: #9e9e9e; fill-opacity: 0.5"/>
    </g>
    <g clip-path="url(#pdcf5295d77)">
     <use xlink:href="#C0_0_5c17ef086e" x="235.350801" y="122.988623" style="fill: #9e9e9e; fill-opacity: 0.5"/>
    </g>
    <g clip-path="url(#pdcf5295d77)">
     <use xlink:href="#C0_0_5c17ef086e" x="233.864966" y="117.044113" style="fill: #9e9e9e; fill-opacity: 0.5"/>
    </g>
    <g clip-path="url(#pdcf5295d77)">
     <use xlink:href="#C0_0_5c17ef086e" x="233.706222" y="116.155688" style="fill: #9e9e9e; fill-opacity: 0.5"/>
    </g>
    <g clip-path="url(#pdcf5295d77)">
     <use xlink:href="#C0_0_5c17ef086e" x="238.879999" y="122.930504" style="fill: #9e9e9e; fill-opacity: 0.5"/>
    </g>
    <g clip-path="url(#pdcf5295d77)">
     <use xlink:href="#C0_0_5c17ef086e" x="239.526023" y="120.482268" style="fill: #9e9e9e; fill-opacity: 0.5"/>
    </g>
    <g clip-path="url(#pdcf5295d77)">
     <use xlink:href="#C0_0_5c17ef086e" x="237.538185" y="122.987181" style="fill: #9e9e9e; fill-opacity: 0.5"/>
    </g>
    <g clip-path="url(#pdcf5295d77)">
     <use xlink:href="#C0_0_5c17ef086e" x="238.336001" y="116.970975" style="fill: #9e9e9e; fill-opacity: 0.5"/>
    </g>
    <g clip-path="url(#pdcf5295d77)">
     <use xlink:href="#C0_0_5c17ef086e" x="237.129014" y="116.928988" style="fill: #9e9e9e; fill-opacity: 0.5"/>
    </g>
    <g clip-path="url(#pdcf5295d77)">
     <use xlink:href="#C0_0_5c17ef086e" x="239.670941" y="116.564663" style="fill: #9e9e9e; fill-opacity: 0.5"/>
    </g>
    <g clip-path="url(#pdcf5295d77)">
     <use xlink:href="#C0_0_5c17ef086e" x="238.896774" y="116.77491" style="fill: #9e9e9e; fill-opacity: 0.5"/>
    </g>
    <g clip-path="url(#pdcf5295d77)">
     <use xlink:href="#C0_0_5c17ef086e" x="233.61668" y="116.609809" style="fill: #9e9e9e; fill-opacity: 0.5"/>
    </g>
    <g clip-path="url(#pdcf5295d77)">
     <use xlink:href="#C0_0_5c17ef086e" x="239.16659" y="116.479883" style="fill: #9e9e9e; fill-opacity: 0.5"/>
    </g>
    <g clip-path="url(#pdcf5295d77)">
     <use xlink:href="#C0_0_5c17ef086e" x="233.816991" y="122.940836" style="fill: #9e9e9e; fill-opacity: 0.5"/>
    </g>
    <g clip-path="url(#pdcf5295d77)">
     <use xlink:href="#C0_0_5c17ef086e" x="238.337033" y="121.973521" style="fill: #9e9e9e; fill-opacity: 0.5"/>
    </g>
   </g>
   <g id="PathCollection_2">
    <defs>
     <path id="C1_0_e19ce82b08" d="M 0 2.345208 
C 0.621956 2.345208 1.218523 2.098102 1.658312 1.658312 
C 2.098102 1.218523 2.345208 0.621956 2.345208 -0 
C 2.345208 -0.621956 2.098102 -1.218523 1.658312 -1.658312 
C 1.218523 -2.098102 0.621956 -2.345208 0 -2.345208 
C -0.621956 -2.345208 -1.218523 -2.098102 -1.658312 -1.658312 
C -2.098102 -1.218523 -2.345208 -0.621956 -2.345208 0 
C -2.345208 0.621956 -2.098102 1.218523 -1.658312 1.658312 
C -1.218523 2.098102 -0.621956 2.345208 0 2.345208 
z
"/>
    </defs>
    <g clip-path="url(#pdcf5295d77)">
     <use xlink:href="#C1_0_e19ce82b08" x="299.676158" y="54.89485" style="fill: #9e9e9e; fill-opacity: 0.5"/>
    </g>
    <g clip-path="url(#pdcf5295d77)">
     <use xlink:href="#C1_0_e19ce82b08" x="304.140701" y="61.908638" style="fill: #9e9e9e; fill-opacity: 0.5"/>
    </g>
    <g clip-path="url(#pdcf5295d77)">
     <use xlink:href="#C1_0_e19ce82b08" x="302.051575" y="57.398785" style="fill: #9e9e9e; fill-opacity: 0.5"/>
    </g>
    <g clip-path="url(#pdcf5295d77)">
     <use xlink:href="#C1_0_e19ce82b08" x="300.481737" y="54.717596" style="fill: #9e9e9e; fill-opacity: 0.5"/>
    </g>
    <g clip-path="url(#pdcf5295d77)">
     <use xlink:href="#C1_0_e19ce82b08" x="301.280297" y="60.381102" style="fill: #9e9e9e; fill-opacity: 0.5"/>
    </g>
    <g clip-path="url(#pdcf5295d77)">
     <use xlink:href="#C1_0_e19ce82b08" x="298.719408" y="60.087447" style="fill: #9e9e9e; fill-opacity: 0.5"/>
    </g>
    <g clip-path="url(#pdcf5295d77)">
     <use xlink:href="#C1_0_e19ce82b08" x="299.342563" y="59.835778" style="fill: #9e9e9e; fill-opacity: 0.5"/>
    </g>
    <g clip-path="url(#pdcf5295d77)">
     <use xlink:href="#C1_0_e19ce82b08" x="302.890317" y="54.827333" style="fill: #9e9e9e; fill-opacity: 0.5"/>
    </g>
    <g clip-path="url(#pdcf5295d77)">
     <use xlink:href="#C1_0_e19ce82b08" x="302.738139" y="55.585336" style="fill: #9e9e9e; fill-opacity: 0.5"/>
    </g>
    <g clip-path="url(#pdcf5295d77)">
     <use xlink:href="#C1_0_e19ce82b08" x="302.531612" y="55.078886" style="fill: #9e9e9e; fill-opacity: 0.5"/>
    </g>
    <g clip-path="url(#pdcf5295d77)">
     <use xlink:href="#C1_0_e19ce82b08" x="301.026982" y="54.871736" style="fill: #9e9e9e; fill-opacity: 0.5"/>
    </g>
    <g clip-path="url(#pdcf5295d77)">
     <use xlink:href="#C1_0_e19ce82b08" x="305.011053" y="53.646514" style="fill: #9e9e9e; fill-opacity: 0.5"/>
    </g>
    <g clip-path="url(#pdcf5295d77)">
     <use xlink:href="#C1_0_e19ce82b08" x="304.904722" y="54.824608" style="fill: #9e9e9e; fill-opacity: 0.5"/>
    </g>
    <g clip-path="url(#pdcf5295d77)">
     <use xlink:href="#C1_0_e19ce82b08" x="302.987187" y="60.081838" style="fill: #9e9e9e; fill-opacity: 0.5"/>
    </g>
    <g clip-path="url(#pdcf5295d77)">
     <use xlink:href="#C1_0_e19ce82b08" x="302.759372" y="57.854367" style="fill: #9e9e9e; fill-opacity: 0.5"/>
    </g>
   </g>
   <g id="PathCollection_3">
    <defs>
     <path id="C2_0_2ff289720d" d="M 0 2.345208 
C 0.621956 2.345208 1.218523 2.098102 1.658312 1.658312 
C 2.098102 1.218523 2.345208 0.621956 2.345208 -0 
C 2.345208 -0.621956 2.098102 -1.218523 1.658312 -1.658312 
C 1.218523 -2.098102 0.621956 -2.345208 0 -2.345208 
C -0.621956 -2.345208 -1.218523 -2.098102 -1.658312 -1.658312 
C -2.098102 -1.218523 -2.345208 -0.621956 -2.345208 0 
C -2.345208 0.621956 -2.098102 1.218523 -1.658312 1.658312 
C -1.218523 2.098102 -0.621956 2.345208 0 2.345208 
z
"/>
    </defs>
    <g clip-path="url(#pdcf5295d77)">
     <use xlink:href="#C2_0_2ff289720d" x="108.196213" y="255.384941" style="fill: #9e9e9e; fill-opacity: 0.5"/>
    </g>
    <g clip-path="url(#pdcf5295d77)">
     <use xlink:href="#C2_0_2ff289720d" x="106.251197" y="237.934222" style="fill: #9e9e9e; fill-opacity: 0.5"/>
    </g>
    <g clip-path="url(#pdcf5295d77)">
     <use xlink:href="#C2_0_2ff289720d" x="104.602944" y="227.006682" style="fill: #9e9e9e; fill-opacity: 0.5"/>
    </g>
    <g clip-path="url(#pdcf5295d77)">
     <use xlink:href="#C2_0_2ff289720d" x="108.410774" y="228.89878" style="fill: #9e9e9e; fill-opacity: 0.5"/>
    </g>
    <g clip-path="url(#pdcf5295d77)">
     <use xlink:href="#C2_0_2ff289720d" x="107.137146" y="237.777467" style="fill: #9e9e9e; fill-opacity: 0.5"/>
    </g>
    <g clip-path="url(#pdcf5295d77)">
     <use xlink:href="#C2_0_2ff289720d" x="105.740279" y="232.338986" style="fill: #9e9e9e; fill-opacity: 0.5"/>
    </g>
    <g clip-path="url(#pdcf5295d77)">
     <use xlink:href="#C2_0_2ff289720d" x="106.880523" y="238.889904" style="fill: #9e9e9e; fill-opacity: 0.5"/>
    </g>
    <g clip-path="url(#pdcf5295d77)">
     <use xlink:href="#C2_0_2ff289720d" x="109.501706" y="230.713839" style="fill: #9e9e9e; fill-opacity: 0.5"/>
    </g>
    <g clip-path="url(#pdcf5295d77)">
     <use xlink:href="#C2_0_2ff289720d" x="109.791035" y="229.040286" style="fill: #9e9e9e; fill-opacity: 0.5"/>
    </g>
    <g clip-path="url(#pdcf5295d77)">
     <use xlink:href="#C2_0_2ff289720d" x="106.049074" y="230.952449" style="fill: #9e9e9e; fill-opacity: 0.5"/>
    </g>
    <g clip-path="url(#pdcf5295d77)">
     <use xlink:href="#C2_0_2ff289720d" x="107.436994" y="230.880921" style="fill: #9e9e9e; fill-opacity: 0.5"/>
    </g>
    <g clip-path="url(#pdcf5295d77)">
     <use xlink:href="#C2_0_2ff289720d" x="105.815784" y="235.901145" style="fill: #9e9e9e; fill-opacity: 0.5"/>
    </g>
    <g clip-path="url(#pdcf5295d77)">
     <use xlink:href="#C2_0_2ff289720d" x="107.584856" y="229.968469" style="fill: #9e9e9e; fill-opacity: 0.5"/>
    </g>
    <g clip-path="url(#pdcf5295d77)">
     <use xlink:href="#C2_0_2ff289720d" x="105.919954" y="238.821712" style="fill: #9e9e9e; fill-opacity: 0.5"/>
    </g>
    <g clip-path="url(#pdcf5295d77)">
     <use xlink:href="#C2_0_2ff289720d" x="106.268714" y="243.69358" style="fill: #9e9e9e; fill-opacity: 0.5"/>
    </g>
   </g>
   <g id="PathCollection_4">
    <defs>
     <path id="C3_0_9901913efe" d="M 0 2.345208 
C 0.621956 2.345208 1.218523 2.098102 1.658312 1.658312 
C 2.098102 1.218523 2.345208 0.621956 2.345208 -0 
C 2.345208 -0.621956 2.098102 -1.218523 1.658312 -1.658312 
C 1.218523 -2.098102 0.621956 -2.345208 0 -2.345208 
C -0.621956 -2.345208 -1.218523 -2.098102 -1.658312 -1.658312 
C -2.098102 -1.218523 -2.345208 -0.621956 -2.345208 0 
C -2.345208 0.621956 -2.098102 1.218523 -1.658312 1.658312 
C -1.218523 2.098102 -0.621956 2.345208 0 2.345208 
z
"/>
    </defs>
    <g clip-path="url(#pdcf5295d77)">
     <use xlink:href="#C3_0_9901913efe" x="239.380037" y="119.856114" style="fill: #9e9e9e; fill-opacity: 0.5"/>
    </g>
    <g clip-path="url(#pdcf5295d77)">
     <use xlink:href="#C3_0_9901913efe" x="235.073982" y="118.081103" style="fill: #9e9e9e; fill-opacity: 0.5"/>
    </g>
    <g clip-path="url(#pdcf5295d77)">
     <use xlink:href="#C3_0_9901913efe" x="237.645664" y="118.363717" style="fill: #9e9e9e; fill-opacity: 0.5"/>
    </g>
    <g clip-path="url(#pdcf5295d77)">
     <use xlink:href="#C3_0_9901913efe" x="234.144465" y="118.176028" style="fill: #9e9e9e; fill-opacity: 0.5"/>
    </g>
    <g clip-path="url(#pdcf5295d77)">
     <use xlink:href="#C3_0_9901913efe" x="239.005806" y="120.014385" style="fill: #9e9e9e; fill-opacity: 0.5"/>
    </g>
    <g clip-path="url(#pdcf5295d77)">
     <use xlink:href="#C3_0_9901913efe" x="238.710047" y="118.301024" style="fill: #9e9e9e; fill-opacity: 0.5"/>
    </g>
    <g clip-path="url(#pdcf5295d77)">
     <use xlink:href="#C3_0_9901913efe" x="235.153281" y="120.082104" style="fill: #9e9e9e; fill-opacity: 0.5"/>
    </g>
    <g clip-path="url(#pdcf5295d77)">
     <use xlink:href="#C3_0_9901913efe" x="239.290489" y="118.031746" style="fill: #9e9e9e; fill-opacity: 0.5"/>
    </g>
   </g>
   <g id="PathCollection_5">
    <defs>
     <path id="C4_0_b303364aa0" d="M 0 2.345208 
C 0.621956 2.345208 1.218523 2.098102 1.658312 1.658312 
C 2.098102 1.218523 2.345208 0.621956 2.345208 -0 
C 2.345208 -0.621956 2.098102 -1.218523 1.658312 -1.658312 
C 1.218523 -2.098102 0.621956 -2.345208 0 -2.345208 
C -0.621956 -2.345208 -1.218523 -2.098102 -1.658312 -1.658312 
C -2.098102 -1.218523 -2.345208 -0.621956 -2.345208 0 
C -2.345208 0.621956 -2.098102 1.218523 -1.658312 1.658312 
C -1.218523 2.098102 -0.621956 2.345208 0 2.345208 
z
"/>
    </defs>
    <g clip-path="url(#pdcf5295d77)">
     <use xlink:href="#C4_0_b303364aa0" x="298.915831" y="68.928115" style="fill: #9e9e9e; fill-opacity: 0.5"/>
    </g>
    <g clip-path="url(#pdcf5295d77)">
     <use xlink:href="#C4_0_b303364aa0" x="300.71814" y="63.966599" style="fill: #9e9e9e; fill-opacity: 0.5"/>
    </g>
    <g clip-path="url(#pdcf5295d77)">
     <use xlink:href="#C4_0_b303364aa0" x="299.511374" y="66.34752" style="fill: #9e9e9e; fill-opacity: 0.5"/>
    </g>
    <g clip-path="url(#pdcf5295d77)">
     <use xlink:href="#C4_0_b303364aa0" x="301.459861" y="67.183128" style="fill: #9e9e9e; fill-opacity: 0.5"/>
    </g>
    <g clip-path="url(#pdcf5295d77)">
     <use xlink:href="#C4_0_b303364aa0" x="303.70657" y="65.021202" style="fill: #9e9e9e; fill-opacity: 0.5"/>
    </g>
    <g clip-path="url(#pdcf5295d77)">
     <use xlink:href="#C4_0_b303364aa0" x="300.033222" y="64.136949" style="fill: #9e9e9e; fill-opacity: 0.5"/>
    </g>
    <g clip-path="url(#pdcf5295d77)">
     <use xlink:href="#C4_0_b303364aa0" x="298.873318" y="63.918491" style="fill: #9e9e9e; fill-opacity: 0.5"/>
    </g>
    <g clip-path="url(#pdcf5295d77)">
     <use xlink:href="#C4_0_b303364aa0" x="301.162532" y="63.778585" style="fill: #9e9e9e; fill-opacity: 0.5"/>
    </g>
   </g>
   <g id="PathCollection_6">
    <defs>
     <path id="C5_0_27684d3afb" d="M 0 2.345208 
C 0.621956 2.345208 1.218523 2.098102 1.658312 1.658312 
C 2.098102 1.218523 2.345208 0.621956 2.345208 -0 
C 2.345208 -0.621956 2.098102 -1.218523 1.658312 -1.658312 
C 1.218523 -2.098102 0.621956 -2.345208 0 -2.345208 
C -0.621956 -2.345208 -1.218523 -2.098102 -1.658312 -1.658312 
C -2.098102 -1.218523 -2.345208 -0.621956 -2.345208 0 
C -2.345208 0.621956 -2.098102 1.218523 -1.658312 1.658312 
C -1.218523 2.098102 -0.621956 2.345208 0 2.345208 
z
"/>
    </defs>
    <g clip-path="url(#pdcf5295d77)">
     <use xlink:href="#C5_0_27684d3afb" x="105.014749" y="227.083325" style="fill: #9e9e9e; fill-opacity: 0.5"/>
    </g>
    <g clip-path="url(#pdcf5295d77)">
     <use xlink:href="#C5_0_27684d3afb" x="104.314992" y="232.645261" style="fill: #9e9e9e; fill-opacity: 0.5"/>
    </g>
    <g clip-path="url(#pdcf5295d77)">
     <use xlink:href="#C5_0_27684d3afb" x="107.494155" y="227.174443" style="fill: #9e9e9e; fill-opacity: 0.5"/>
    </g>
    <g clip-path="url(#pdcf5295d77)">
     <use xlink:href="#C5_0_27684d3afb" x="105.665304" y="223.276154" style="fill: #9e9e9e; fill-opacity: 0.5"/>
    </g>
    <g clip-path="url(#pdcf5295d77)">
     <use xlink:href="#C5_0_27684d3afb" x="108.08938" y="235.652014" style="fill: #9e9e9e; fill-opacity: 0.5"/>
    </g>
    <g clip-path="url(#pdcf5295d77)">
     <use xlink:href="#C5_0_27684d3afb" x="105.021259" y="231.09446" style="fill: #9e9e9e; fill-opacity: 0.5"/>
    </g>
    <g clip-path="url(#pdcf5295d77)">
     <use xlink:href="#C5_0_27684d3afb" x="109.843436" y="238.49127" style="fill: #9e9e9e; fill-opacity: 0.5"/>
    </g>
    <g clip-path="url(#pdcf5295d77)">
     <use xlink:href="#C5_0_27684d3afb" x="106.096575" y="232.780079" style="fill: #9e9e9e; fill-opacity: 0.5"/>
    </g>
   </g>
   <g id="patch_3">
    <path d="M 61.516875 292.921094 
L 61.516875 7.2 
" style="fill: none; stroke: #000000; stroke-width: 0.8; stroke-linejoin: miter; stroke-linecap: square"/>
   </g>
   <g id="patch_4">
    <path d="M 61.516875 292.921094 
L 347.237969 292.921094 
" style="fill: none; stroke: #000000; stroke-width: 0.8; stroke-linejoin: miter; stroke-linecap: square"/>
   </g>
   <g id="PathCollection_7">
    <defs>
     <path id="m0920dc9805" d="M 0 4.472136 
C 1.186024 4.472136 2.323632 4.000923 3.162278 3.162278 
C 4.000923 2.323632 4.472136 1.186024 4.472136 0 
C 4.472136 -1.186024 4.000923 -2.323632 3.162278 -3.162278 
C 2.323632 -4.000923 1.186024 -4.472136 0 -4.472136 
C -1.186024 -4.472136 -2.323632 -4.000923 -3.162278 -3.162278 
C -4.000923 -2.323632 -4.472136 -1.186024 -4.472136 0 
C -4.472136 1.186024 -4.000923 2.323632 -3.162278 3.162278 
C -2.323632 4.000923 -1.186024 4.472136 0 4.472136 
z
" style="stroke: #ffffff; stroke-width: 0.8"/>
    </defs>
    <g clip-path="url(#pdcf5295d77)">
     <use xlink:href="#m0920dc9805" x="236.845728" y="122.822098" style="fill: #56b4e9; stroke: #ffffff; stroke-width: 0.8"/>
    </g>
   </g>
   <g id="PathCollection_8">
    <defs>
     <path id="mc1690a11b4" d="M 0 4.472136 
C 1.186024 4.472136 2.323632 4.000923 3.162278 3.162278 
C 4.000923 2.323632 4.472136 1.186024 4.472136 0 
C 4.472136 -1.186024 4.000923 -2.323632 3.162278 -3.162278 
C 2.323632 -4.000923 1.186024 -4.472136 0 -4.472136 
C -1.186024 -4.472136 -2.323632 -4.000923 -3.162278 -3.162278 
C -4.000923 -2.323632 -4.472136 -1.186024 -4.472136 0 
C -4.472136 1.186024 -4.000923 2.323632 -3.162278 3.162278 
C -2.323632 4.000923 -1.186024 4.472136 0 4.472136 
z
" style="stroke: #ffffff; stroke-width: 0.8"/>
    </defs>
    <g clip-path="url(#pdcf5295d77)">
     <use xlink:href="#mc1690a11b4" x="236.845728" y="116.195929" style="fill: #d55e00; stroke: #ffffff; stroke-width: 0.8"/>
    </g>
   </g>
   <g id="PathCollection_9">
    <g clip-path="url(#pdcf5295d77)">
     <use xlink:href="#m0920dc9805" x="301.78234" y="57.674633" style="fill: #56b4e9; stroke: #ffffff; stroke-width: 0.8"/>
    </g>
   </g>
   <g id="PathCollection_10">
    <g clip-path="url(#pdcf5295d77)">
     <use xlink:href="#mc1690a11b4" x="301.78234" y="51.107928" style="fill: #d55e00; stroke: #ffffff; stroke-width: 0.8"/>
    </g>
   </g>
   <g id="PathCollection_11">
    <g clip-path="url(#pdcf5295d77)">
     <use xlink:href="#m0920dc9805" x="106.972504" y="244.249515" style="fill: #56b4e9; stroke: #ffffff; stroke-width: 0.8"/>
    </g>
   </g>
   <g id="PathCollection_12">
    <g clip-path="url(#pdcf5295d77)">
     <use xlink:href="#mc1690a11b4" x="106.972504" y="236.895348" style="fill: #d55e00; stroke: #ffffff; stroke-width: 0.8"/>
    </g>
   </g>
   <g id="PathCollection_13">
    <defs>
     <path id="mf1c33e50ae" d="M -4.472136 4.472136 
L 4.472136 4.472136 
L 4.472136 -4.472136 
L -4.472136 -4.472136 
z
" style="stroke: #ffffff; stroke-width: 0.8"/>
    </defs>
    <g clip-path="url(#pdcf5295d77)">
     <use xlink:href="#mf1c33e50ae" x="236.845728" y="118.263213" style="fill: #56b4e9; stroke: #ffffff; stroke-width: 0.8"/>
    </g>
   </g>
   <g id="PathCollection_14">
    <defs>
     <path id="m61a70127c6" d="M -4.472136 4.472136 
L 4.472136 4.472136 
L 4.472136 -4.472136 
L -4.472136 -4.472136 
z
" style="stroke: #ffffff; stroke-width: 0.8"/>
    </defs>
    <g clip-path="url(#pdcf5295d77)">
     <use xlink:href="#m61a70127c6" x="236.845728" y="118.006708" style="fill: #d55e00; stroke: #ffffff; stroke-width: 0.8"/>
    </g>
   </g>
   <g id="PathCollection_15">
    <g clip-path="url(#pdcf5295d77)">
     <use xlink:href="#mf1c33e50ae" x="301.78234" y="64.316195" style="fill: #56b4e9; stroke: #ffffff; stroke-width: 0.8"/>
    </g>
   </g>
   <g id="PathCollection_16">
    <g clip-path="url(#pdcf5295d77)">
     <use xlink:href="#m61a70127c6" x="301.78234" y="66.269489" style="fill: #d55e00; stroke: #ffffff; stroke-width: 0.8"/>
    </g>
   </g>
   <g id="PathCollection_17">
    <g clip-path="url(#pdcf5295d77)">
     <use xlink:href="#mf1c33e50ae" x="106.972504" y="229.662383" style="fill: #56b4e9; stroke: #ffffff; stroke-width: 0.8"/>
    </g>
   </g>
   <g id="PathCollection_18">
    <g clip-path="url(#pdcf5295d77)">
     <use xlink:href="#m61a70127c6" x="106.972504" y="223.284334" style="fill: #d55e00; stroke: #ffffff; stroke-width: 0.8"/>
    </g>
   </g>
   <g id="legend_1">
    <g id="line2d_15">
     <path d="M 66.316875 15.2 
L 74.316875 15.2 
L 82.316875 15.2 
" style="fill: none; stroke-dasharray: 5.55,2.4; stroke-dashoffset: 0; stroke: #444444; stroke-width: 1.5"/>
    </g>
    <g id="text_16">
     <text style="font-size: 8px; font-family: 'Helvetica', 'Arial', 'DejaVu Sans', sans-serif; text-anchor: start" x="84.716875" y="18" transform="rotate(-0 84.716875 18)">Y = X</text>
    </g>
    <g id="line2d_16">
     <defs>
      <path id="m9dd7141988" d="M 0 3.5 
C 0.928211 3.5 1.81853 3.131218 2.474874 2.474874 
C 3.131218 1.81853 3.5 0.928211 3.5 0 
C 3.5 -0.928211 3.131218 -1.81853 2.474874 -2.474874 
C 1.81853 -3.131218 0.928211 -3.5 0 -3.5 
C -0.928211 -3.5 -1.81853 -3.131218 -2.474874 -2.474874 
C -3.131218 -1.81853 -3.5 -0.928211 -3.5 0 
C -3.5 0.928211 -3.131218 1.81853 -2.474874 2.474874 
C -1.81853 3.131218 -0.928211 3.5 0 3.5 
z
" style="stroke: #000000; stroke-opacity: 0"/>
     </defs>
     <g>
      <use xlink:href="#m9dd7141988" x="74.316875" y="24.959375" style="fill: #9e9e9e; stroke: #000000; stroke-opacity: 0"/>
     </g>
    </g>
    <g id="text_17">
     <text style="font-size: 8px; font-family: 'Helvetica', 'Arial', 'DejaVu Sans', sans-serif; text-anchor: start" x="84.716875" y="27.759375" transform="rotate(-0 84.716875 27.759375)">standalone DIA-NN</text>
    </g>
    <g id="line2d_17">
     <defs>
      <path id="m130694bd43" d="M 0 3.5 
C 0.928211 3.5 1.81853 3.131218 2.474874 2.474874 
C 3.131218 1.81853 3.5 0.928211 3.5 0 
C 3.5 -0.928211 3.131218 -1.81853 2.474874 -2.474874 
C 1.81853 -3.131218 0.928211 -3.5 0 -3.5 
C -0.928211 -3.5 -1.81853 -3.131218 -2.474874 -2.474874 
C -3.131218 -1.81853 -3.5 -0.928211 -3.5 0 
C -3.5 0.928211 -3.131218 1.81853 -2.474874 2.474874 
C -1.81853 3.131218 -0.928211 3.5 0 3.5 
z
" style="stroke: #ffffff"/>
     </defs>
     <g>
      <use xlink:href="#m130694bd43" x="74.316875" y="34.71875" style="fill: #56b4e9; stroke: #ffffff"/>
     </g>
    </g>
    <g id="text_18">
     <text style="font-size: 8px; font-family: 'Helvetica', 'Arial', 'DejaVu Sans', sans-serif; text-anchor: start" x="84.716875" y="37.51875" transform="rotate(-0 84.716875 37.51875)">quantms-diann 1.8.1</text>
    </g>
    <g id="line2d_18">
     <defs>
      <path id="m726ad9cae1" d="M 0 3.5 
C 0.928211 3.5 1.81853 3.131218 2.474874 2.474874 
C 3.131218 1.81853 3.5 0.928211 3.5 0 
C 3.5 -0.928211 3.131218 -1.81853 2.474874 -2.474874 
C 1.81853 -3.131218 0.928211 -3.5 0 -3.5 
C -0.928211 -3.5 -1.81853 -3.131218 -2.474874 -2.474874 
C -3.131218 -1.81853 -3.5 -0.928211 -3.5 0 
C -3.5 0.928211 -3.131218 1.81853 -2.474874 2.474874 
C -1.81853 3.131218 -0.928211 3.5 0 3.5 
z
" style="stroke: #ffffff"/>
     </defs>
     <g>
      <use xlink:href="#m726ad9cae1" x="74.316875" y="44.78625" style="fill: #d55e00; stroke: #ffffff"/>
     </g>
    </g>
    <g id="text_19">
     <text style="font-size: 8px; font-family: 'Helvetica', 'Arial', 'DejaVu Sans', sans-serif; text-anchor: start" x="84.716875" y="47.58625" transform="rotate(-0 84.716875 47.58625)">quantms-diann 2.5.1 ent.</text>
    </g>
   </g>
  </g>
 </g>
 <defs>
  <clipPath id="pdcf5295d77">
   <rect x="61.516875" y="7.2" width="285.721094" height="285.721094"/>
  </clipPath>
 </defs>
</svg>
