<?xml version="1.0" encoding="utf-8" standalone="no"?>
<!DOCTYPE svg PUBLIC "-//W3C//DTD SVG 1.1//EN"
  "http://www.w3.org/Graphics/SVG/1.1/DTD/svg11.dtd">
<svg xmlns:xlink="http://www.w3.org/1999/xlink" width="915.8625pt" height="322.943926pt" viewBox="0 0 915.8625 322.943926" xmlns="http://www.w3.org/2000/svg" version="1.1">
 <metadata>
  <rdf:RDF xmlns:dc="http://purl.org/dc/elements/1.1/" xmlns:cc="http://creativecommons.org/ns#" xmlns:rdf="http://www.w3.org/1999/02/22-rdf-syntax-ns#">
   <cc:Work>
    <dc:type rdf:resource="http://purl.org/dc/dcmitype/StillImage"/>
    <dc:date>2026-06-23T17:07:13.110845</dc:date>
    <dc:format>image/svg+xml</dc:format>
    <dc:creator>
     <cc:Agent>
      <dc:title>Matplotlib v3.10.8, https://matplotlib.org/</dc:title>
     </cc:Agent>
    </dc:creator>
   </cc:Work>
  </rdf:RDF>
 </metadata>
 <defs>
  <style type="text/css">*{stroke-linejoin: round; stroke-linecap: butt}</style>
 </defs>
 <g id="figure_1">
  <g id="patch_1">
   <path d="M 0 322.943926 
L 915.8625 322.943926 
L 915.8625 0 
L 0 0 
z
" style="fill: #ffffff"/>
  </g>
  <g id="axes_1">
   <g id="patch_2">
    <path d="M 73.1225 223.5517 
L 908.6625 223.5517 
L 908.6625 7.2 
L 73.1225 7.2 
z
" style="fill: #ffffff"/>
   </g>
   <g id="patch_3">
    <path d="M 111.101591 223.5517 
L 122.030826 223.5517 
L 122.030826 76.378073 
L 111.101591 76.378073 
z
" clip-path="url(#p11ccc448e2)" style="fill: #9e9e9e"/>
   </g>
   <g id="patch_4">
    <path d="M 138.424678 223.5517 
L 149.353913 223.5517 
L 149.353913 78.318478 
L 138.424678 78.318478 
z
" clip-path="url(#p11ccc448e2)" style="fill: #9e9e9e"/>
   </g>
   <g id="patch_5">
    <path d="M 165.747765 223.5517 
L 176.677 223.5517 
L 176.677 80.923166 
L 165.747765 80.923166 
z
" clip-path="url(#p11ccc448e2)" style="fill: #9e9e9e"/>
   </g>
   <g id="patch_6">
    <path d="M 193.070852 223.5517 
L 204.000087 223.5517 
L 204.000087 82.024478 
L 193.070852 82.024478 
z
" clip-path="url(#p11ccc448e2)" style="fill: #9e9e9e"/>
   </g>
   <g id="patch_7">
    <path d="M 220.393939 223.5517 
L 231.323174 223.5517 
L 231.323174 82.164327 
L 220.393939 82.164327 
z
" clip-path="url(#p11ccc448e2)" style="fill: #9e9e9e"/>
   </g>
   <g id="patch_8">
    <path d="M 247.717026 223.5517 
L 258.646261 223.5517 
L 258.646261 82.251732 
L 247.717026 82.251732 
z
" clip-path="url(#p11ccc448e2)" style="fill: #9e9e9e"/>
   </g>
   <g id="patch_9">
    <path d="M 275.040113 223.5517 
L 285.969348 223.5517 
L 285.969348 82.741204 
L 275.040113 82.741204 
z
" clip-path="url(#p11ccc448e2)" style="fill: #9e9e9e"/>
   </g>
   <g id="patch_10">
    <path d="M 302.3632 223.5517 
L 313.292435 223.5517 
L 313.292435 82.706242 
L 302.3632 82.706242 
z
" clip-path="url(#p11ccc448e2)" style="fill: #9e9e9e"/>
   </g>
   <g id="patch_11">
    <path d="M 329.686287 223.5517 
L 340.615522 223.5517 
L 340.615522 82.618836 
L 329.686287 82.618836 
z
" clip-path="url(#p11ccc448e2)" style="fill: #9e9e9e"/>
   </g>
   <g id="patch_12">
    <path d="M 357.009374 223.5517 
L 367.938609 223.5517 
L 367.938609 83.61526 
L 357.009374 83.61526 
z
" clip-path="url(#p11ccc448e2)" style="fill: #9e9e9e"/>
   </g>
   <g id="patch_13">
    <path d="M 384.332461 223.5517 
L 395.261696 223.5517 
L 395.261696 84.961307 
L 384.332461 84.961307 
z
" clip-path="url(#p11ccc448e2)" style="fill: #9e9e9e"/>
   </g>
   <g id="patch_14">
    <path d="M 411.655548 223.5517 
L 422.584783 223.5517 
L 422.584783 85.1536 
L 411.655548 85.1536 
z
" clip-path="url(#p11ccc448e2)" style="fill: #9e9e9e"/>
   </g>
   <g id="patch_15">
    <path d="M 438.978635 223.5517 
L 449.90787 223.5517 
L 449.90787 85.345892 
L 438.978635 85.345892 
z
" clip-path="url(#p11ccc448e2)" style="fill: #9e9e9e"/>
   </g>
   <g id="patch_16">
    <path d="M 466.301722 223.5517 
L 477.230957 223.5517 
L 477.230957 86.884231 
L 466.301722 86.884231 
z
" clip-path="url(#p11ccc448e2)" style="fill: #9e9e9e"/>
   </g>
   <g id="patch_17">
    <path d="M 493.624809 223.5517 
L 504.554043 223.5517 
L 504.554043 86.0801 
L 493.624809 86.0801 
z
" clip-path="url(#p11ccc448e2)" style="fill: #9e9e9e"/>
   </g>
   <g id="patch_18">
    <path d="M 520.947896 223.5517 
L 531.87713 223.5517 
L 531.87713 88.24776 
L 520.947896 88.24776 
z
" clip-path="url(#p11ccc448e2)" style="fill: #9e9e9e"/>
   </g>
   <g id="patch_19">
    <path d="M 548.270983 223.5517 
L 559.200217 223.5517 
L 559.200217 88.999448 
L 548.270983 88.999448 
z
" clip-path="url(#p11ccc448e2)" style="fill: #9e9e9e"/>
   </g>
   <g id="patch_20">
    <path d="M 575.59407 223.5517 
L 586.523304 223.5517 
L 586.523304 88.422571 
L 575.59407 88.422571 
z
" clip-path="url(#p11ccc448e2)" style="fill: #9e9e9e"/>
   </g>
   <g id="patch_21">
    <path d="M 602.917157 223.5517 
L 613.846391 223.5517 
L 613.846391 89.191741 
L 602.917157 89.191741 
z
" clip-path="url(#p11ccc448e2)" style="fill: #9e9e9e"/>
   </g>
   <g id="patch_22">
    <path d="M 630.240244 223.5517 
L 641.169478 223.5517 
L 641.169478 89.786099 
L 630.240244 89.786099 
z
" clip-path="url(#p11ccc448e2)" style="fill: #9e9e9e"/>
   </g>
   <g id="patch_23">
    <path d="M 657.563331 223.5517 
L 668.492565 223.5517 
L 668.492565 92.722929 
L 657.563331 92.722929 
z
" clip-path="url(#p11ccc448e2)" style="fill: #9e9e9e"/>
   </g>
   <g id="patch_24">
    <path d="M 684.886418 223.5517 
L 695.815652 223.5517 
L 695.815652 102.005408 
L 684.886418 102.005408 
z
" clip-path="url(#p11ccc448e2)" style="fill: #9e9e9e"/>
   </g>
   <g id="patch_25">
    <path d="M 712.209505 223.5517 
L 723.138739 223.5517 
L 723.138739 106.21836 
L 712.209505 106.21836 
z
" clip-path="url(#p11ccc448e2)" style="fill: #9e9e9e"/>
   </g>
   <g id="patch_26">
    <path d="M 739.532592 223.5517 
L 750.461826 223.5517 
L 750.461826 107.232266 
L 739.532592 107.232266 
z
" clip-path="url(#p11ccc448e2)" style="fill: #9e9e9e"/>
   </g>
   <g id="patch_27">
    <path d="M 766.855679 223.5517 
L 777.784913 223.5517 
L 777.784913 115.902906 
L 766.855679 115.902906 
z
" clip-path="url(#p11ccc448e2)" style="fill: #9e9e9e"/>
   </g>
   <g id="patch_28">
    <path d="M 794.178766 223.5517 
L 805.108 223.5517 
L 805.108 127.003423 
L 794.178766 127.003423 
z
" clip-path="url(#p11ccc448e2)" style="fill: #9e9e9e"/>
   </g>
   <g id="patch_29">
    <path d="M 821.501853 223.5517 
L 832.431087 223.5517 
L 832.431087 130.272394 
L 821.501853 130.272394 
z
" clip-path="url(#p11ccc448e2)" style="fill: #9e9e9e"/>
   </g>
   <g id="patch_30">
    <path d="M 848.82494 223.5517 
L 859.754174 223.5517 
L 859.754174 137.072554 
L 848.82494 137.072554 
z
" clip-path="url(#p11ccc448e2)" style="fill: #9e9e9e"/>
   </g>
   <g id="patch_31">
    <path d="M 122.030826 223.5517 
L 132.96006 223.5517 
L 132.96006 35.419787 
L 122.030826 35.419787 
z
" clip-path="url(#p11ccc448e2)" style="fill: #0072b2"/>
   </g>
   <g id="patch_32">
    <path d="M 149.353913 223.5517 
L 160.283147 223.5517 
L 160.283147 39.615258 
L 149.353913 39.615258 
z
" clip-path="url(#p11ccc448e2)" style="fill: #0072b2"/>
   </g>
   <g id="patch_33">
    <path d="M 176.677 223.5517 
L 187.606234 223.5517 
L 187.606234 44.981965 
L 176.677 44.981965 
z
" clip-path="url(#p11ccc448e2)" style="fill: #0072b2"/>
   </g>
   <g id="patch_34">
    <path d="M 204.000087 223.5517 
L 214.929321 223.5517 
L 214.929321 46.223125 
L 204.000087 46.223125 
z
" clip-path="url(#p11ccc448e2)" style="fill: #0072b2"/>
   </g>
   <g id="patch_35">
    <path d="M 231.323174 223.5517 
L 242.252408 223.5517 
L 242.252408 46.904889 
L 231.323174 46.904889 
z
" clip-path="url(#p11ccc448e2)" style="fill: #0072b2"/>
   </g>
   <g id="patch_36">
    <path d="M 258.646261 223.5517 
L 269.575495 223.5517 
L 269.575495 48.285898 
L 258.646261 48.285898 
z
" clip-path="url(#p11ccc448e2)" style="fill: #0072b2"/>
   </g>
   <g id="patch_37">
    <path d="M 285.969348 223.5517 
L 296.898582 223.5517 
L 296.898582 48.16353 
L 285.969348 48.16353 
z
" clip-path="url(#p11ccc448e2)" style="fill: #0072b2"/>
   </g>
   <g id="patch_38">
    <path d="M 313.292435 223.5517 
L 324.221669 223.5517 
L 324.221669 48.635521 
L 313.292435 48.635521 
z
" clip-path="url(#p11ccc448e2)" style="fill: #0072b2"/>
   </g>
   <g id="patch_39">
    <path d="M 340.615522 223.5517 
L 351.544756 223.5517 
L 351.544756 48.827813 
L 340.615522 48.827813 
z
" clip-path="url(#p11ccc448e2)" style="fill: #0072b2"/>
   </g>
   <g id="patch_40">
    <path d="M 367.938609 223.5517 
L 378.867843 223.5517 
L 378.867843 49.124992 
L 367.938609 49.124992 
z
" clip-path="url(#p11ccc448e2)" style="fill: #0072b2"/>
   </g>
   <g id="patch_41">
    <path d="M 395.261696 223.5517 
L 406.19093 223.5517 
L 406.19093 50.558445 
L 395.261696 50.558445 
z
" clip-path="url(#p11ccc448e2)" style="fill: #0072b2"/>
   </g>
   <g id="patch_42">
    <path d="M 422.584783 223.5517 
L 433.514017 223.5517 
L 433.514017 51.275171 
L 422.584783 51.275171 
z
" clip-path="url(#p11ccc448e2)" style="fill: #0072b2"/>
   </g>
   <g id="patch_43">
    <path d="M 449.90787 223.5517 
L 460.837104 223.5517 
L 460.837104 51.729681 
L 449.90787 51.729681 
z
" clip-path="url(#p11ccc448e2)" style="fill: #0072b2"/>
   </g>
   <g id="patch_44">
    <path d="M 477.230957 223.5517 
L 488.160191 223.5517 
L 488.160191 54.82384 
L 477.230957 54.82384 
z
" clip-path="url(#p11ccc448e2)" style="fill: #0072b2"/>
   </g>
   <g id="patch_45">
    <path d="M 504.554043 223.5517 
L 515.483278 223.5517 
L 515.483278 55.627972 
L 504.554043 55.627972 
z
" clip-path="url(#p11ccc448e2)" style="fill: #0072b2"/>
   </g>
   <g id="patch_46">
    <path d="M 531.87713 223.5517 
L 542.806365 223.5517 
L 542.806365 58.302585 
L 531.87713 58.302585 
z
" clip-path="url(#p11ccc448e2)" style="fill: #0072b2"/>
   </g>
   <g id="patch_47">
    <path d="M 559.200217 223.5517 
L 570.129452 223.5517 
L 570.129452 58.022887 
L 559.200217 58.022887 
z
" clip-path="url(#p11ccc448e2)" style="fill: #0072b2"/>
   </g>
   <g id="patch_48">
    <path d="M 586.523304 223.5517 
L 597.452539 223.5517 
L 597.452539 60.85483 
L 586.523304 60.85483 
z
" clip-path="url(#p11ccc448e2)" style="fill: #0072b2"/>
   </g>
   <g id="patch_49">
    <path d="M 613.846391 223.5517 
L 624.775626 223.5517 
L 624.775626 60.575132 
L 613.846391 60.575132 
z
" clip-path="url(#p11ccc448e2)" style="fill: #0072b2"/>
   </g>
   <g id="patch_50">
    <path d="M 641.169478 223.5517 
L 652.098713 223.5517 
L 652.098713 60.662538 
L 641.169478 60.662538 
z
" clip-path="url(#p11ccc448e2)" style="fill: #0072b2"/>
   </g>
   <g id="patch_51">
    <path d="M 668.492565 223.5517 
L 679.4218 223.5517 
L 679.4218 66.413829 
L 668.492565 66.413829 
z
" clip-path="url(#p11ccc448e2)" style="fill: #0072b2"/>
   </g>
   <g id="patch_52">
    <path d="M 695.815652 223.5517 
L 706.744887 223.5517 
L 706.744887 79.297421 
L 695.815652 79.297421 
z
" clip-path="url(#p11ccc448e2)" style="fill: #0072b2"/>
   </g>
   <g id="patch_53">
    <path d="M 723.138739 223.5517 
L 734.067974 223.5517 
L 734.067974 83.597779 
L 723.138739 83.597779 
z
" clip-path="url(#p11ccc448e2)" style="fill: #0072b2"/>
   </g>
   <g id="patch_54">
    <path d="M 750.461826 223.5517 
L 761.391061 223.5517 
L 761.391061 85.695515 
L 750.461826 85.695515 
z
" clip-path="url(#p11ccc448e2)" style="fill: #0072b2"/>
   </g>
   <g id="patch_55">
    <path d="M 777.784913 223.5517 
L 788.714148 223.5517 
L 788.714148 95.852051 
L 777.784913 95.852051 
z
" clip-path="url(#p11ccc448e2)" style="fill: #0072b2"/>
   </g>
   <g id="patch_56">
    <path d="M 805.108 223.5517 
L 816.037235 223.5517 
L 816.037235 108.106322 
L 805.108 108.106322 
z
" clip-path="url(#p11ccc448e2)" style="fill: #0072b2"/>
   </g>
   <g id="patch_57">
    <path d="M 832.431087 223.5517 
L 843.360322 223.5517 
L 843.360322 111.217963 
L 832.431087 111.217963 
z
" clip-path="url(#p11ccc448e2)" style="fill: #0072b2"/>
   </g>
   <g id="patch_58">
    <path d="M 859.754174 223.5517 
L 870.683409 223.5517 
L 870.683409 117.703462 
L 859.754174 117.703462 
z
" clip-path="url(#p11ccc448e2)" style="fill: #0072b2"/>
   </g>
   <g id="matplotlib.axis_1">
    <g id="xtick_1">
     <g id="line2d_1">
      <defs>
       <path id="m69669ab8b8" d="M 0 0 
L 0 3.5 
" style="stroke: #000000; stroke-width: 0.8"/>
      </defs>
      <g>
       <use xlink:href="#m69669ab8b8" x="122.030826" y="223.5517" style="stroke: #000000; stroke-width: 0.8"/>
      </g>
     </g>
     <g id="text_1">
      <text style="font-size: 8px; font-family: 'Helvetica', 'Arial', 'DejaVu Sans', sans-serif" transform="translate(105.734904 244.419103) rotate(-30)">Lung</text>
     </g>
    </g>
    <g id="xtick_2">
     <g id="line2d_2">
      <g>
       <use xlink:href="#m69669ab8b8" x="149.353913" y="223.5517" style="stroke: #000000; stroke-width: 0.8"/>
      </g>
     </g>
     <g id="text_2">
      <text style="font-size: 8px; font-family: 'Helvetica', 'Arial', 'DejaVu Sans', sans-serif" transform="translate(54.91479 289.567216) rotate(-30)">Haematopoietic and Lymphoid</text>
     </g>
    </g>
    <g id="xtick_3">
     <g id="line2d_3">
      <g>
       <use xlink:href="#m69669ab8b8" x="176.677" y="223.5517" style="stroke: #000000; stroke-width: 0.8"/>
      </g>
     </g>
     <g id="text_3">
      <text style="font-size: 8px; font-family: 'Helvetica', 'Arial', 'DejaVu Sans', sans-serif" transform="translate(155.820742 247.081603) rotate(-30)">Breast</text>
     </g>
    </g>
    <g id="xtick_4">
     <g id="line2d_4">
      <g>
       <use xlink:href="#m69669ab8b8" x="204.000087" y="223.5517" style="stroke: #000000; stroke-width: 0.8"/>
      </g>
     </g>
     <g id="text_4">
      <text style="font-size: 8px; font-family: 'Helvetica', 'Arial', 'DejaVu Sans', sans-serif" transform="translate(189.688816 243.302853) rotate(-30)">Skin</text>
     </g>
    </g>
    <g id="xtick_5">
     <g id="line2d_5">
      <g>
       <use xlink:href="#m69669ab8b8" x="231.323174" y="223.5517" style="stroke: #000000; stroke-width: 0.8"/>
      </g>
     </g>
     <g id="text_5">
      <text style="font-size: 8px; font-family: 'Helvetica', 'Arial', 'DejaVu Sans', sans-serif" transform="translate(184.607027 261.982228) rotate(-30)">Large Intestine</text>
     </g>
    </g>
    <g id="xtick_6">
     <g id="line2d_6">
      <g>
       <use xlink:href="#m69669ab8b8" x="258.646261" y="223.5517" style="stroke: #000000; stroke-width: 0.8"/>
      </g>
     </g>
     <g id="text_6">
      <text style="font-size: 8px; font-family: 'Helvetica', 'Arial', 'DejaVu Sans', sans-serif" transform="translate(239.312109 246.32442) rotate(-30)">Ovary</text>
     </g>
    </g>
    <g id="xtick_7">
     <g id="line2d_7">
      <g>
       <use xlink:href="#m69669ab8b8" x="285.969348" y="223.5517" style="stroke: #000000; stroke-width: 0.8"/>
      </g>
     </g>
     <g id="text_7">
      <text style="font-size: 8px; font-family: 'Helvetica', 'Arial', 'DejaVu Sans', sans-serif" transform="translate(210.035023 279.002545) rotate(-30)">Central Nervous System</text>
     </g>
    </g>
    <g id="xtick_8">
     <g id="line2d_8">
      <g>
       <use xlink:href="#m69669ab8b8" x="313.292435" y="223.5517" style="stroke: #000000; stroke-width: 0.8"/>
      </g>
     </g>
     <g id="text_8">
      <text style="font-size: 8px; font-family: 'Helvetica', 'Arial', 'DejaVu Sans', sans-serif" transform="translate(285.119345 251.305978) rotate(-30)">Stomach</text>
     </g>
    </g>
    <g id="xtick_9">
     <g id="line2d_9">
      <g>
       <use xlink:href="#m69669ab8b8" x="340.615522" y="223.5517" style="stroke: #000000; stroke-width: 0.8"/>
      </g>
     </g>
     <g id="text_9">
      <text style="font-size: 8px; font-family: 'Helvetica', 'Arial', 'DejaVu Sans', sans-serif" transform="translate(323.602252 244.862853) rotate(-30)">Bone</text>
     </g>
    </g>
    <g id="xtick_10">
     <g id="line2d_10">
      <g>
       <use xlink:href="#m69669ab8b8" x="367.938609" y="223.5517" style="stroke: #000000; stroke-width: 0.8"/>
      </g>
     </g>
     <g id="text_10">
      <text style="font-size: 8px; font-family: 'Helvetica', 'Arial', 'DejaVu Sans', sans-serif" transform="translate(332.387694 255.552216) rotate(-30)">Esophagus</text>
     </g>
    </g>
    <g id="xtick_11">
     <g id="line2d_11">
      <g>
       <use xlink:href="#m69669ab8b8" x="395.261696" y="223.5517" style="stroke: #000000; stroke-width: 0.8"/>
      </g>
     </g>
     <g id="text_11">
      <text style="font-size: 8px; font-family: 'Helvetica', 'Arial', 'DejaVu Sans', sans-serif" transform="translate(346.674222 263.092228) rotate(-30)">Head and Neck</text>
     </g>
    </g>
    <g id="xtick_12">
     <g id="line2d_12">
      <g>
       <use xlink:href="#m69669ab8b8" x="422.584783" y="223.5517" style="stroke: #000000; stroke-width: 0.8"/>
      </g>
     </g>
     <g id="text_12">
      <text style="font-size: 8px; font-family: 'Helvetica', 'Arial', 'DejaVu Sans', sans-serif" transform="translate(392.483704 252.419103) rotate(-30)">Pancreas</text>
     </g>
    </g>
    <g id="xtick_13">
     <g id="line2d_13">
      <g>
       <use xlink:href="#m69669ab8b8" x="449.90787" y="223.5517" style="stroke: #000000; stroke-width: 0.8"/>
      </g>
     </g>
     <g id="text_13">
      <text style="font-size: 8px; font-family: 'Helvetica', 'Arial', 'DejaVu Sans', sans-serif" transform="translate(364.728724 284.340045) rotate(-30)">Peripheral Nervous System</text>
     </g>
    </g>
    <g id="xtick_14">
     <g id="line2d_14">
      <g>
       <use xlink:href="#m69669ab8b8" x="477.230957" y="223.5517" style="stroke: #000000; stroke-width: 0.8"/>
      </g>
     </g>
     <g id="text_14">
      <text style="font-size: 8px; font-family: 'Helvetica', 'Arial', 'DejaVu Sans', sans-serif" transform="translate(455.190475 247.767841) rotate(-30)">Kidney</text>
     </g>
    </g>
    <g id="xtick_15">
     <g id="line2d_15">
      <g>
       <use xlink:href="#m69669ab8b8" x="504.554043" y="223.5517" style="stroke: #000000; stroke-width: 0.8"/>
      </g>
     </g>
     <g id="text_15">
      <text style="font-size: 8px; font-family: 'Helvetica', 'Arial', 'DejaVu Sans', sans-serif" transform="translate(469.067369 255.528478) rotate(-30)">Soft Tissue</text>
     </g>
    </g>
    <g id="xtick_16">
     <g id="line2d_16">
      <g>
       <use xlink:href="#m69669ab8b8" x="531.87713" y="223.5517" style="stroke: #000000; stroke-width: 0.8"/>
      </g>
     </g>
     <g id="text_16">
      <text style="font-size: 8px; font-family: 'Helvetica', 'Arial', 'DejaVu Sans', sans-serif" transform="translate(516.027583 244.190978) rotate(-30)">Liver</text>
     </g>
    </g>
    <g id="xtick_17">
     <g id="line2d_17">
      <g>
       <use xlink:href="#m69669ab8b8" x="559.200217" y="223.5517" style="stroke: #000000; stroke-width: 0.8"/>
      </g>
     </g>
     <g id="text_17">
      <text style="font-size: 8px; font-family: 'Helvetica', 'Arial', 'DejaVu Sans', sans-serif" transform="translate(538.735837 246.855353) rotate(-30)">Cervix</text>
     </g>
    </g>
    <g id="xtick_18">
     <g id="line2d_18">
      <g>
       <use xlink:href="#m69669ab8b8" x="586.523304" y="223.5517" style="stroke: #000000; stroke-width: 0.8"/>
      </g>
     </g>
     <g id="text_18">
      <text style="font-size: 8px; font-family: 'Helvetica', 'Arial', 'DejaVu Sans', sans-serif" transform="translate(562.565659 248.874716) rotate(-30)">Thyroid</text>
     </g>
    </g>
    <g id="xtick_19">
     <g id="line2d_19">
      <g>
       <use xlink:href="#m69669ab8b8" x="613.846391" y="223.5517" style="stroke: #000000; stroke-width: 0.8"/>
      </g>
     </g>
     <g id="text_19">
      <text style="font-size: 8px; font-family: 'Helvetica', 'Arial', 'DejaVu Sans', sans-serif" transform="translate(589.134156 249.307853) rotate(-30)">Bladder</text>
     </g>
    </g>
    <g id="xtick_20">
     <g id="line2d_20">
      <g>
       <use xlink:href="#m69669ab8b8" x="641.169478" y="223.5517" style="stroke: #000000; stroke-width: 0.8"/>
      </g>
     </g>
     <g id="text_20">
      <text style="font-size: 8px; font-family: 'Helvetica', 'Arial', 'DejaVu Sans', sans-serif" transform="translate(599.137817 259.307228) rotate(-30)">Endometrium</text>
     </g>
    </g>
    <g id="xtick_21">
     <g id="line2d_21">
      <g>
       <use xlink:href="#m69669ab8b8" x="668.492565" y="223.5517" style="stroke: #000000; stroke-width: 0.8"/>
      </g>
     </g>
     <g id="text_21">
      <text style="font-size: 8px; font-family: 'Helvetica', 'Arial', 'DejaVu Sans', sans-serif" transform="translate(641.858836 250.417228) rotate(-30)">Prostate</text>
     </g>
    </g>
    <g id="xtick_22">
     <g id="line2d_22">
      <g>
       <use xlink:href="#m69669ab8b8" x="695.815652" y="223.5517" style="stroke: #000000; stroke-width: 0.8"/>
      </g>
     </g>
     <g id="text_22">
      <text style="font-size: 8px; font-family: 'Helvetica', 'Arial', 'DejaVu Sans', sans-serif" transform="translate(657.633474 257.084728) rotate(-30)">Other tissue</text>
     </g>
    </g>
    <g id="xtick_23">
     <g id="line2d_23">
      <g>
       <use xlink:href="#m69669ab8b8" x="723.138739" y="223.5517" style="stroke: #000000; stroke-width: 0.8"/>
      </g>
     </g>
     <g id="text_23">
      <text style="font-size: 8px; font-family: 'Helvetica', 'Arial', 'DejaVu Sans', sans-serif" transform="translate(685.713317 256.634103) rotate(-30)">Biliary Tract</text>
     </g>
    </g>
    <g id="xtick_24">
     <g id="line2d_24">
      <g>
       <use xlink:href="#m69669ab8b8" x="750.461826" y="223.5517" style="stroke: #000000; stroke-width: 0.8"/>
      </g>
     </g>
     <g id="text_24">
      <text style="font-size: 8px; font-family: 'Helvetica', 'Arial', 'DejaVu Sans', sans-serif" transform="translate(731.151424 246.189103) rotate(-30)">Testis</text>
     </g>
    </g>
    <g id="xtick_25">
     <g id="line2d_25">
      <g>
       <use xlink:href="#m69669ab8b8" x="777.784913" y="223.5517" style="stroke: #000000; stroke-width: 0.8"/>
      </g>
     </g>
     <g id="text_25">
      <text style="font-size: 8px; font-family: 'Helvetica', 'Arial', 'DejaVu Sans', sans-serif" transform="translate(759.620912 245.527228) rotate(-30)">Vulva</text>
     </g>
    </g>
    <g id="xtick_26">
     <g id="line2d_26">
      <g>
       <use xlink:href="#m69669ab8b8" x="805.108" y="223.5517" style="stroke: #000000; stroke-width: 0.8"/>
      </g>
     </g>
     <g id="text_26">
      <text style="font-size: 8px; font-family: 'Helvetica', 'Arial', 'DejaVu Sans', sans-serif" transform="translate(777.313797 251.087228) rotate(-30)">Placenta</text>
     </g>
    </g>
    <g id="xtick_27">
     <g id="line2d_27">
      <g>
       <use xlink:href="#m69669ab8b8" x="832.431087" y="223.5517" style="stroke: #000000; stroke-width: 0.8"/>
      </g>
     </g>
     <g id="text_27">
      <text style="font-size: 8px; font-family: 'Helvetica', 'Arial', 'DejaVu Sans', sans-serif" transform="translate(786.160232 261.754728) rotate(-30)">Small Intestine</text>
     </g>
    </g>
    <g id="xtick_28">
     <g id="line2d_28">
      <g>
       <use xlink:href="#m69669ab8b8" x="859.754174" y="223.5517" style="stroke: #000000; stroke-width: 0.8"/>
      </g>
     </g>
     <g id="text_28">
      <text style="font-size: 8px; font-family: 'Helvetica', 'Arial', 'DejaVu Sans', sans-serif" transform="translate(814.630803 261.092228) rotate(-30)">Adrenal Gland</text>
     </g>
    </g>
   </g>
   <g id="matplotlib.axis_2">
    <g id="ytick_1">
     <g id="line2d_29">
      <defs>
       <path id="ma5d6bb6b12" d="M 0 0 
L -3.5 0 
" style="stroke: #000000; stroke-width: 0.8"/>
      </defs>
      <g>
       <use xlink:href="#ma5d6bb6b12" x="73.1225" y="223.5517" style="stroke: #000000; stroke-width: 0.8"/>
      </g>
     </g>
     <g id="text_29">
      <text style="font-size: 14px; font-family: 'Helvetica', 'Arial', 'DejaVu Sans', sans-serif; text-anchor: end" x="66.1225" y="228.573106" transform="rotate(-0 66.1225 228.573106)">0</text>
     </g>
    </g>
    <g id="ytick_2">
     <g id="line2d_30">
      <g>
       <use xlink:href="#ma5d6bb6b12" x="73.1225" y="188.589441" style="stroke: #000000; stroke-width: 0.8"/>
      </g>
     </g>
     <g id="text_30">
      <text style="font-size: 14px; font-family: 'Helvetica', 'Arial', 'DejaVu Sans', sans-serif; text-anchor: end" x="66.1225" y="193.610848" transform="rotate(-0 66.1225 193.610848)">2000</text>
     </g>
    </g>
    <g id="ytick_3">
     <g id="line2d_31">
      <g>
       <use xlink:href="#ma5d6bb6b12" x="73.1225" y="153.627183" style="stroke: #000000; stroke-width: 0.8"/>
      </g>
     </g>
     <g id="text_31">
      <text style="font-size: 14px; font-family: 'Helvetica', 'Arial', 'DejaVu Sans', sans-serif; text-anchor: end" x="66.1225" y="158.648589" transform="rotate(-0 66.1225 158.648589)">4000</text>
     </g>
    </g>
    <g id="ytick_4">
     <g id="line2d_32">
      <g>
       <use xlink:href="#ma5d6bb6b12" x="73.1225" y="118.664924" style="stroke: #000000; stroke-width: 0.8"/>
      </g>
     </g>
     <g id="text_32">
      <text style="font-size: 14px; font-family: 'Helvetica', 'Arial', 'DejaVu Sans', sans-serif; text-anchor: end" x="66.1225" y="123.686331" transform="rotate(-0 66.1225 123.686331)">6000</text>
     </g>
    </g>
    <g id="ytick_5">
     <g id="line2d_33">
      <g>
       <use xlink:href="#ma5d6bb6b12" x="73.1225" y="83.702666" style="stroke: #000000; stroke-width: 0.8"/>
      </g>
     </g>
     <g id="text_33">
      <text style="font-size: 14px; font-family: 'Helvetica', 'Arial', 'DejaVu Sans', sans-serif; text-anchor: end" x="66.1225" y="88.724072" transform="rotate(-0 66.1225 88.724072)">8000</text>
     </g>
    </g>
    <g id="ytick_6">
     <g id="line2d_34">
      <g>
       <use xlink:href="#ma5d6bb6b12" x="73.1225" y="48.740407" style="stroke: #000000; stroke-width: 0.8"/>
      </g>
     </g>
     <g id="text_34">
      <text style="font-size: 14px; font-family: 'Helvetica', 'Arial', 'DejaVu Sans', sans-serif; text-anchor: end" x="66.1225" y="53.761814" transform="rotate(-0 66.1225 53.761814)">10000</text>
     </g>
    </g>
    <g id="ytick_7">
     <g id="line2d_35">
      <g>
       <use xlink:href="#ma5d6bb6b12" x="73.1225" y="13.778149" style="stroke: #000000; stroke-width: 0.8"/>
      </g>
     </g>
     <g id="text_35">
      <text style="font-size: 14px; font-family: 'Helvetica', 'Arial', 'DejaVu Sans', sans-serif; text-anchor: end" x="66.1225" y="18.799555" transform="rotate(-0 66.1225 18.799555)">12000</text>
     </g>
    </g>
    <g id="text_36">
     <text style="font-size: 17px; font-family: 'Helvetica', 'Arial', 'DejaVu Sans', sans-serif; text-anchor: middle" x="19.434688" y="115.37585" transform="rotate(-90 19.434688 115.37585)">Distinct protein groups detected</text>
    </g>
   </g>
   <g id="patch_59">
    <path d="M 73.1225 223.5517 
L 73.1225 7.2 
" style="fill: none; stroke: #000000; stroke-width: 0.8; stroke-linejoin: miter; stroke-linecap: square"/>
   </g>
   <g id="patch_60">
    <path d="M 73.1225 223.5517 
L 908.6625 223.5517 
" style="fill: none; stroke: #000000; stroke-width: 0.8; stroke-linejoin: miter; stroke-linecap: square"/>
   </g>
   <g id="legend_1">
    <g id="patch_61">
     <path d="M 270.396875 307.046426 
L 298.396875 307.046426 
L 298.396875 297.246426 
L 270.396875 297.246426 
z
" style="fill: #9e9e9e"/>
    </g>
    <g id="text_37">
     <text style="font-size: 14px; font-family: 'Helvetica', 'Arial', 'DejaVu Sans', sans-serif; text-anchor: start" x="309.596875" y="307.046426" transform="rotate(-0 309.596875 307.046426)">ProCan-DepMapSanger 2022</text>
    </g>
    <g id="patch_62">
     <path d="M 522.810313 307.046426 
L 550.810313 307.046426 
L 550.810313 297.246426 
L 522.810313 297.246426 
z
" style="fill: #0072b2"/>
    </g>
    <g id="text_38">
     <text style="font-size: 14px; font-family: 'Helvetica', 'Arial', 'DejaVu Sans', sans-serif; text-anchor: start" x="562.010313" y="307.046426" transform="rotate(-0 562.010313 307.046426)">quantmsdiann (DIA-NN)</text>
    </g>
   </g>
  </g>
 </g>
 <defs>
  <clipPath id="p11ccc448e2">
   <rect x="73.1225" y="7.2" width="835.54" height="216.3517"/>
  </clipPath>
 </defs>
</svg>
