<?xml version="1.0" encoding="utf-8" standalone="no"?>
<!DOCTYPE svg PUBLIC "-//W3C//DTD SVG 1.1//EN"
  "http://www.w3.org/Graphics/SVG/1.1/DTD/svg11.dtd">
<svg xmlns:xlink="http://www.w3.org/1999/xlink" width="944.6625pt" height="351.743926pt" viewBox="0 0 944.6625 351.743926" xmlns="http://www.w3.org/2000/svg" version="1.1">
 <metadata>
  <rdf:RDF xmlns:dc="http://purl.org/dc/elements/1.1/" xmlns:cc="http://creativecommons.org/ns#" xmlns:rdf="http://www.w3.org/1999/02/22-rdf-syntax-ns#">
   <cc:Work>
    <dc:type rdf:resource="http://purl.org/dc/dcmitype/StillImage"/>
    <dc:date>2026-06-27T14:58:44.376440</dc:date>
    <dc:format>image/svg+xml</dc:format>
    <dc:creator>
     <cc:Agent>
      <dc:title>Matplotlib v3.10.6, https://matplotlib.org/</dc:title>
     </cc:Agent>
    </dc:creator>
   </cc:Work>
  </rdf:RDF>
 </metadata>
 <defs>
  <style type="text/css">*{stroke-linejoin: round; stroke-linecap: butt}</style>
 </defs>
 <g id="figure_1">
  <g id="patch_1">
   <path d="M 0 351.743926 
L 944.6625 351.743926 
L 944.6625 0 
L 0 0 
z
" style="fill: #ffffff"/>
  </g>
  <g id="axes_1">
   <g id="patch_2">
    <path d="M 87.5225 237.9517 
L 923.0625 237.9517 
L 923.0625 21.6 
L 87.5225 21.6 
z
" style="fill: #ffffff"/>
   </g>
   <g id="patch_3">
    <path d="M 125.501591 237.9517 
L 136.430826 237.9517 
L 136.430826 90.778073 
L 125.501591 90.778073 
z
" clip-path="url(#p7a9aa4cb21)" style="fill: #9e9e9e"/>
   </g>
   <g id="patch_4">
    <path d="M 152.824678 237.9517 
L 163.753913 237.9517 
L 163.753913 92.718478 
L 152.824678 92.718478 
z
" clip-path="url(#p7a9aa4cb21)" style="fill: #9e9e9e"/>
   </g>
   <g id="patch_5">
    <path d="M 180.147765 237.9517 
L 191.077 237.9517 
L 191.077 95.323166 
L 180.147765 95.323166 
z
" clip-path="url(#p7a9aa4cb21)" style="fill: #9e9e9e"/>
   </g>
   <g id="patch_6">
    <path d="M 207.470852 237.9517 
L 218.400087 237.9517 
L 218.400087 96.424478 
L 207.470852 96.424478 
z
" clip-path="url(#p7a9aa4cb21)" style="fill: #9e9e9e"/>
   </g>
   <g id="patch_7">
    <path d="M 234.793939 237.9517 
L 245.723174 237.9517 
L 245.723174 96.564327 
L 234.793939 96.564327 
z
" clip-path="url(#p7a9aa4cb21)" style="fill: #9e9e9e"/>
   </g>
   <g id="patch_8">
    <path d="M 262.117026 237.9517 
L 273.046261 237.9517 
L 273.046261 96.651732 
L 262.117026 96.651732 
z
" clip-path="url(#p7a9aa4cb21)" style="fill: #9e9e9e"/>
   </g>
   <g id="patch_9">
    <path d="M 289.440113 237.9517 
L 300.369348 237.9517 
L 300.369348 97.141204 
L 289.440113 97.141204 
z
" clip-path="url(#p7a9aa4cb21)" style="fill: #9e9e9e"/>
   </g>
   <g id="patch_10">
    <path d="M 316.7632 237.9517 
L 327.692435 237.9517 
L 327.692435 97.106242 
L 316.7632 97.106242 
z
" clip-path="url(#p7a9aa4cb21)" style="fill: #9e9e9e"/>
   </g>
   <g id="patch_11">
    <path d="M 344.086287 237.9517 
L 355.015522 237.9517 
L 355.015522 97.018836 
L 344.086287 97.018836 
z
" clip-path="url(#p7a9aa4cb21)" style="fill: #9e9e9e"/>
   </g>
   <g id="patch_12">
    <path d="M 371.409374 237.9517 
L 382.338609 237.9517 
L 382.338609 98.01526 
L 371.409374 98.01526 
z
" clip-path="url(#p7a9aa4cb21)" style="fill: #9e9e9e"/>
   </g>
   <g id="patch_13">
    <path d="M 398.732461 237.9517 
L 409.661696 237.9517 
L 409.661696 99.361307 
L 398.732461 99.361307 
z
" clip-path="url(#p7a9aa4cb21)" style="fill: #9e9e9e"/>
   </g>
   <g id="patch_14">
    <path d="M 426.055548 237.9517 
L 436.984783 237.9517 
L 436.984783 99.5536 
L 426.055548 99.5536 
z
" clip-path="url(#p7a9aa4cb21)" style="fill: #9e9e9e"/>
   </g>
   <g id="patch_15">
    <path d="M 453.378635 237.9517 
L 464.30787 237.9517 
L 464.30787 99.745892 
L 453.378635 99.745892 
z
" clip-path="url(#p7a9aa4cb21)" style="fill: #9e9e9e"/>
   </g>
   <g id="patch_16">
    <path d="M 480.701722 237.9517 
L 491.630957 237.9517 
L 491.630957 100.4801 
L 480.701722 100.4801 
z
" clip-path="url(#p7a9aa4cb21)" style="fill: #9e9e9e"/>
   </g>
   <g id="patch_17">
    <path d="M 508.024809 237.9517 
L 518.954043 237.9517 
L 518.954043 101.284231 
L 508.024809 101.284231 
z
" clip-path="url(#p7a9aa4cb21)" style="fill: #9e9e9e"/>
   </g>
   <g id="patch_18">
    <path d="M 535.347896 237.9517 
L 546.27713 237.9517 
L 546.27713 102.64776 
L 535.347896 102.64776 
z
" clip-path="url(#p7a9aa4cb21)" style="fill: #9e9e9e"/>
   </g>
   <g id="patch_19">
    <path d="M 562.670983 237.9517 
L 573.600217 237.9517 
L 573.600217 103.399448 
L 562.670983 103.399448 
z
" clip-path="url(#p7a9aa4cb21)" style="fill: #9e9e9e"/>
   </g>
   <g id="patch_20">
    <path d="M 589.99407 237.9517 
L 600.923304 237.9517 
L 600.923304 102.822571 
L 589.99407 102.822571 
z
" clip-path="url(#p7a9aa4cb21)" style="fill: #9e9e9e"/>
   </g>
   <g id="patch_21">
    <path d="M 617.317157 237.9517 
L 628.246391 237.9517 
L 628.246391 103.591741 
L 617.317157 103.591741 
z
" clip-path="url(#p7a9aa4cb21)" style="fill: #9e9e9e"/>
   </g>
   <g id="patch_22">
    <path d="M 644.640244 237.9517 
L 655.569478 237.9517 
L 655.569478 104.186099 
L 644.640244 104.186099 
z
" clip-path="url(#p7a9aa4cb21)" style="fill: #9e9e9e"/>
   </g>
   <g id="patch_23">
    <path d="M 671.963331 237.9517 
L 682.892565 237.9517 
L 682.892565 107.122929 
L 671.963331 107.122929 
z
" clip-path="url(#p7a9aa4cb21)" style="fill: #9e9e9e"/>
   </g>
   <g id="patch_24">
    <path d="M 699.286418 237.9517 
L 710.215652 237.9517 
L 710.215652 116.405408 
L 699.286418 116.405408 
z
" clip-path="url(#p7a9aa4cb21)" style="fill: #9e9e9e"/>
   </g>
   <g id="patch_25">
    <path d="M 726.609505 237.9517 
L 737.538739 237.9517 
L 737.538739 120.61836 
L 726.609505 120.61836 
z
" clip-path="url(#p7a9aa4cb21)" style="fill: #9e9e9e"/>
   </g>
   <g id="patch_26">
    <path d="M 753.932592 237.9517 
L 764.861826 237.9517 
L 764.861826 121.632266 
L 753.932592 121.632266 
z
" clip-path="url(#p7a9aa4cb21)" style="fill: #9e9e9e"/>
   </g>
   <g id="patch_27">
    <path d="M 781.255679 237.9517 
L 792.184913 237.9517 
L 792.184913 130.302906 
L 781.255679 130.302906 
z
" clip-path="url(#p7a9aa4cb21)" style="fill: #9e9e9e"/>
   </g>
   <g id="patch_28">
    <path d="M 808.578766 237.9517 
L 819.508 237.9517 
L 819.508 141.403423 
L 808.578766 141.403423 
z
" clip-path="url(#p7a9aa4cb21)" style="fill: #9e9e9e"/>
   </g>
   <g id="patch_29">
    <path d="M 835.901853 237.9517 
L 846.831087 237.9517 
L 846.831087 144.672394 
L 835.901853 144.672394 
z
" clip-path="url(#p7a9aa4cb21)" style="fill: #9e9e9e"/>
   </g>
   <g id="patch_30">
    <path d="M 863.22494 237.9517 
L 874.154174 237.9517 
L 874.154174 151.472554 
L 863.22494 151.472554 
z
" clip-path="url(#p7a9aa4cb21)" style="fill: #9e9e9e"/>
   </g>
   <g id="patch_31">
    <path d="M 136.430826 237.9517 
L 147.36006 237.9517 
L 147.36006 49.819787 
L 136.430826 49.819787 
z
" clip-path="url(#p7a9aa4cb21)" style="fill: #0072b2"/>
   </g>
   <g id="patch_32">
    <path d="M 163.753913 237.9517 
L 174.683147 237.9517 
L 174.683147 54.015258 
L 163.753913 54.015258 
z
" clip-path="url(#p7a9aa4cb21)" style="fill: #0072b2"/>
   </g>
   <g id="patch_33">
    <path d="M 191.077 237.9517 
L 202.006234 237.9517 
L 202.006234 59.381965 
L 191.077 59.381965 
z
" clip-path="url(#p7a9aa4cb21)" style="fill: #0072b2"/>
   </g>
   <g id="patch_34">
    <path d="M 218.400087 237.9517 
L 229.329321 237.9517 
L 229.329321 60.623125 
L 218.400087 60.623125 
z
" clip-path="url(#p7a9aa4cb21)" style="fill: #0072b2"/>
   </g>
   <g id="patch_35">
    <path d="M 245.723174 237.9517 
L 256.652408 237.9517 
L 256.652408 61.304889 
L 245.723174 61.304889 
z
" clip-path="url(#p7a9aa4cb21)" style="fill: #0072b2"/>
   </g>
   <g id="patch_36">
    <path d="M 273.046261 237.9517 
L 283.975495 237.9517 
L 283.975495 62.685898 
L 273.046261 62.685898 
z
" clip-path="url(#p7a9aa4cb21)" style="fill: #0072b2"/>
   </g>
   <g id="patch_37">
    <path d="M 300.369348 237.9517 
L 311.298582 237.9517 
L 311.298582 62.56353 
L 300.369348 62.56353 
z
" clip-path="url(#p7a9aa4cb21)" style="fill: #0072b2"/>
   </g>
   <g id="patch_38">
    <path d="M 327.692435 237.9517 
L 338.621669 237.9517 
L 338.621669 63.035521 
L 327.692435 63.035521 
z
" clip-path="url(#p7a9aa4cb21)" style="fill: #0072b2"/>
   </g>
   <g id="patch_39">
    <path d="M 355.015522 237.9517 
L 365.944756 237.9517 
L 365.944756 63.227813 
L 355.015522 63.227813 
z
" clip-path="url(#p7a9aa4cb21)" style="fill: #0072b2"/>
   </g>
   <g id="patch_40">
    <path d="M 382.338609 237.9517 
L 393.267843 237.9517 
L 393.267843 63.524992 
L 382.338609 63.524992 
z
" clip-path="url(#p7a9aa4cb21)" style="fill: #0072b2"/>
   </g>
   <g id="patch_41">
    <path d="M 409.661696 237.9517 
L 420.59093 237.9517 
L 420.59093 64.958445 
L 409.661696 64.958445 
z
" clip-path="url(#p7a9aa4cb21)" style="fill: #0072b2"/>
   </g>
   <g id="patch_42">
    <path d="M 436.984783 237.9517 
L 447.914017 237.9517 
L 447.914017 65.675171 
L 436.984783 65.675171 
z
" clip-path="url(#p7a9aa4cb21)" style="fill: #0072b2"/>
   </g>
   <g id="patch_43">
    <path d="M 464.30787 237.9517 
L 475.237104 237.9517 
L 475.237104 66.129681 
L 464.30787 66.129681 
z
" clip-path="url(#p7a9aa4cb21)" style="fill: #0072b2"/>
   </g>
   <g id="patch_44">
    <path d="M 491.630957 237.9517 
L 502.560191 237.9517 
L 502.560191 70.027972 
L 491.630957 70.027972 
z
" clip-path="url(#p7a9aa4cb21)" style="fill: #0072b2"/>
   </g>
   <g id="patch_45">
    <path d="M 518.954043 237.9517 
L 529.883278 237.9517 
L 529.883278 69.22384 
L 518.954043 69.22384 
z
" clip-path="url(#p7a9aa4cb21)" style="fill: #0072b2"/>
   </g>
   <g id="patch_46">
    <path d="M 546.27713 237.9517 
L 557.206365 237.9517 
L 557.206365 72.702585 
L 546.27713 72.702585 
z
" clip-path="url(#p7a9aa4cb21)" style="fill: #0072b2"/>
   </g>
   <g id="patch_47">
    <path d="M 573.600217 237.9517 
L 584.529452 237.9517 
L 584.529452 72.422887 
L 573.600217 72.422887 
z
" clip-path="url(#p7a9aa4cb21)" style="fill: #0072b2"/>
   </g>
   <g id="patch_48">
    <path d="M 600.923304 237.9517 
L 611.852539 237.9517 
L 611.852539 75.25483 
L 600.923304 75.25483 
z
" clip-path="url(#p7a9aa4cb21)" style="fill: #0072b2"/>
   </g>
   <g id="patch_49">
    <path d="M 628.246391 237.9517 
L 639.175626 237.9517 
L 639.175626 74.975132 
L 628.246391 74.975132 
z
" clip-path="url(#p7a9aa4cb21)" style="fill: #0072b2"/>
   </g>
   <g id="patch_50">
    <path d="M 655.569478 237.9517 
L 666.498713 237.9517 
L 666.498713 75.062538 
L 655.569478 75.062538 
z
" clip-path="url(#p7a9aa4cb21)" style="fill: #0072b2"/>
   </g>
   <g id="patch_51">
    <path d="M 682.892565 237.9517 
L 693.8218 237.9517 
L 693.8218 80.813829 
L 682.892565 80.813829 
z
" clip-path="url(#p7a9aa4cb21)" style="fill: #0072b2"/>
   </g>
   <g id="patch_52">
    <path d="M 710.215652 237.9517 
L 721.144887 237.9517 
L 721.144887 93.697421 
L 710.215652 93.697421 
z
" clip-path="url(#p7a9aa4cb21)" style="fill: #0072b2"/>
   </g>
   <g id="patch_53">
    <path d="M 737.538739 237.9517 
L 748.467974 237.9517 
L 748.467974 97.997779 
L 737.538739 97.997779 
z
" clip-path="url(#p7a9aa4cb21)" style="fill: #0072b2"/>
   </g>
   <g id="patch_54">
    <path d="M 764.861826 237.9517 
L 775.791061 237.9517 
L 775.791061 100.095515 
L 764.861826 100.095515 
z
" clip-path="url(#p7a9aa4cb21)" style="fill: #0072b2"/>
   </g>
   <g id="patch_55">
    <path d="M 792.184913 237.9517 
L 803.114148 237.9517 
L 803.114148 110.252051 
L 792.184913 110.252051 
z
" clip-path="url(#p7a9aa4cb21)" style="fill: #0072b2"/>
   </g>
   <g id="patch_56">
    <path d="M 819.508 237.9517 
L 830.437235 237.9517 
L 830.437235 122.506322 
L 819.508 122.506322 
z
" clip-path="url(#p7a9aa4cb21)" style="fill: #0072b2"/>
   </g>
   <g id="patch_57">
    <path d="M 846.831087 237.9517 
L 857.760322 237.9517 
L 857.760322 125.617963 
L 846.831087 125.617963 
z
" clip-path="url(#p7a9aa4cb21)" style="fill: #0072b2"/>
   </g>
   <g id="patch_58">
    <path d="M 874.154174 237.9517 
L 885.083409 237.9517 
L 885.083409 132.103462 
L 874.154174 132.103462 
z
" clip-path="url(#p7a9aa4cb21)" style="fill: #0072b2"/>
   </g>
   <g id="matplotlib.axis_1">
    <g id="xtick_1">
     <g id="line2d_1">
      <defs>
       <path id="m94da217fb2" d="M 0 0 
L 0 3.5 
" style="stroke: #000000; stroke-width: 0.8"/>
      </defs>
      <g>
       <use xlink:href="#m94da217fb2" x="136.430826" y="237.9517" style="stroke: #000000; stroke-width: 0.8"/>
      </g>
     </g>
     <g id="text_1">
      <text style="font-size: 8px; font-family: 'Helvetica', 'Arial', 'DejaVu Sans', sans-serif" transform="translate(120.134904 258.819103) rotate(-30)">Lung</text>
     </g>
    </g>
    <g id="xtick_2">
     <g id="line2d_2">
      <g>
       <use xlink:href="#m94da217fb2" x="163.753913" y="237.9517" style="stroke: #000000; stroke-width: 0.8"/>
      </g>
     </g>
     <g id="text_2">
      <text style="font-size: 8px; font-family: 'Helvetica', 'Arial', 'DejaVu Sans', sans-serif" transform="translate(69.31479 303.967216) rotate(-30)">Haematopoietic and Lymphoid</text>
     </g>
    </g>
    <g id="xtick_3">
     <g id="line2d_3">
      <g>
       <use xlink:href="#m94da217fb2" x="191.077" y="237.9517" style="stroke: #000000; stroke-width: 0.8"/>
      </g>
     </g>
     <g id="text_3">
      <text style="font-size: 8px; font-family: 'Helvetica', 'Arial', 'DejaVu Sans', sans-serif" transform="translate(170.220742 261.481603) rotate(-30)">Breast</text>
     </g>
    </g>
    <g id="xtick_4">
     <g id="line2d_4">
      <g>
       <use xlink:href="#m94da217fb2" x="218.400087" y="237.9517" style="stroke: #000000; stroke-width: 0.8"/>
      </g>
     </g>
     <g id="text_4">
      <text style="font-size: 8px; font-family: 'Helvetica', 'Arial', 'DejaVu Sans', sans-serif" transform="translate(204.088816 257.702853) rotate(-30)">Skin</text>
     </g>
    </g>
    <g id="xtick_5">
     <g id="line2d_5">
      <g>
       <use xlink:href="#m94da217fb2" x="245.723174" y="237.9517" style="stroke: #000000; stroke-width: 0.8"/>
      </g>
     </g>
     <g id="text_5">
      <text style="font-size: 8px; font-family: 'Helvetica', 'Arial', 'DejaVu Sans', sans-serif" transform="translate(199.007027 276.382228) rotate(-30)">Large Intestine</text>
     </g>
    </g>
    <g id="xtick_6">
     <g id="line2d_6">
      <g>
       <use xlink:href="#m94da217fb2" x="273.046261" y="237.9517" style="stroke: #000000; stroke-width: 0.8"/>
      </g>
     </g>
     <g id="text_6">
      <text style="font-size: 8px; font-family: 'Helvetica', 'Arial', 'DejaVu Sans', sans-serif" transform="translate(253.712109 260.72442) rotate(-30)">Ovary</text>
     </g>
    </g>
    <g id="xtick_7">
     <g id="line2d_7">
      <g>
       <use xlink:href="#m94da217fb2" x="300.369348" y="237.9517" style="stroke: #000000; stroke-width: 0.8"/>
      </g>
     </g>
     <g id="text_7">
      <text style="font-size: 8px; font-family: 'Helvetica', 'Arial', 'DejaVu Sans', sans-serif" transform="translate(224.435023 293.402545) rotate(-30)">Central Nervous System</text>
     </g>
    </g>
    <g id="xtick_8">
     <g id="line2d_8">
      <g>
       <use xlink:href="#m94da217fb2" x="327.692435" y="237.9517" style="stroke: #000000; stroke-width: 0.8"/>
      </g>
     </g>
     <g id="text_8">
      <text style="font-size: 8px; font-family: 'Helvetica', 'Arial', 'DejaVu Sans', sans-serif" transform="translate(299.519345 265.705978) rotate(-30)">Stomach</text>
     </g>
    </g>
    <g id="xtick_9">
     <g id="line2d_9">
      <g>
       <use xlink:href="#m94da217fb2" x="355.015522" y="237.9517" style="stroke: #000000; stroke-width: 0.8"/>
      </g>
     </g>
     <g id="text_9">
      <text style="font-size: 8px; font-family: 'Helvetica', 'Arial', 'DejaVu Sans', sans-serif" transform="translate(338.002252 259.262853) rotate(-30)">Bone</text>
     </g>
    </g>
    <g id="xtick_10">
     <g id="line2d_10">
      <g>
       <use xlink:href="#m94da217fb2" x="382.338609" y="237.9517" style="stroke: #000000; stroke-width: 0.8"/>
      </g>
     </g>
     <g id="text_10">
      <text style="font-size: 8px; font-family: 'Helvetica', 'Arial', 'DejaVu Sans', sans-serif" transform="translate(346.787694 269.952216) rotate(-30)">Esophagus</text>
     </g>
    </g>
    <g id="xtick_11">
     <g id="line2d_11">
      <g>
       <use xlink:href="#m94da217fb2" x="409.661696" y="237.9517" style="stroke: #000000; stroke-width: 0.8"/>
      </g>
     </g>
     <g id="text_11">
      <text style="font-size: 8px; font-family: 'Helvetica', 'Arial', 'DejaVu Sans', sans-serif" transform="translate(361.074222 277.492228) rotate(-30)">Head and Neck</text>
     </g>
    </g>
    <g id="xtick_12">
     <g id="line2d_12">
      <g>
       <use xlink:href="#m94da217fb2" x="436.984783" y="237.9517" style="stroke: #000000; stroke-width: 0.8"/>
      </g>
     </g>
     <g id="text_12">
      <text style="font-size: 8px; font-family: 'Helvetica', 'Arial', 'DejaVu Sans', sans-serif" transform="translate(406.883704 266.819103) rotate(-30)">Pancreas</text>
     </g>
    </g>
    <g id="xtick_13">
     <g id="line2d_13">
      <g>
       <use xlink:href="#m94da217fb2" x="464.30787" y="237.9517" style="stroke: #000000; stroke-width: 0.8"/>
      </g>
     </g>
     <g id="text_13">
      <text style="font-size: 8px; font-family: 'Helvetica', 'Arial', 'DejaVu Sans', sans-serif" transform="translate(379.128724 298.740045) rotate(-30)">Peripheral Nervous System</text>
     </g>
    </g>
    <g id="xtick_14">
     <g id="line2d_14">
      <g>
       <use xlink:href="#m94da217fb2" x="491.630957" y="237.9517" style="stroke: #000000; stroke-width: 0.8"/>
      </g>
     </g>
     <g id="text_14">
      <text style="font-size: 8px; font-family: 'Helvetica', 'Arial', 'DejaVu Sans', sans-serif" transform="translate(456.144283 269.928478) rotate(-30)">Soft Tissue</text>
     </g>
    </g>
    <g id="xtick_15">
     <g id="line2d_15">
      <g>
       <use xlink:href="#m94da217fb2" x="518.954043" y="237.9517" style="stroke: #000000; stroke-width: 0.8"/>
      </g>
     </g>
     <g id="text_15">
      <text style="font-size: 8px; font-family: 'Helvetica', 'Arial', 'DejaVu Sans', sans-serif" transform="translate(496.913562 262.167841) rotate(-30)">Kidney</text>
     </g>
    </g>
    <g id="xtick_16">
     <g id="line2d_16">
      <g>
       <use xlink:href="#m94da217fb2" x="546.27713" y="237.9517" style="stroke: #000000; stroke-width: 0.8"/>
      </g>
     </g>
     <g id="text_16">
      <text style="font-size: 8px; font-family: 'Helvetica', 'Arial', 'DejaVu Sans', sans-serif" transform="translate(530.427583 258.590978) rotate(-30)">Liver</text>
     </g>
    </g>
    <g id="xtick_17">
     <g id="line2d_17">
      <g>
       <use xlink:href="#m94da217fb2" x="573.600217" y="237.9517" style="stroke: #000000; stroke-width: 0.8"/>
      </g>
     </g>
     <g id="text_17">
      <text style="font-size: 8px; font-family: 'Helvetica', 'Arial', 'DejaVu Sans', sans-serif" transform="translate(553.135837 261.255353) rotate(-30)">Cervix</text>
     </g>
    </g>
    <g id="xtick_18">
     <g id="line2d_18">
      <g>
       <use xlink:href="#m94da217fb2" x="600.923304" y="237.9517" style="stroke: #000000; stroke-width: 0.8"/>
      </g>
     </g>
     <g id="text_18">
      <text style="font-size: 8px; font-family: 'Helvetica', 'Arial', 'DejaVu Sans', sans-serif" transform="translate(576.965659 263.274716) rotate(-30)">Thyroid</text>
     </g>
    </g>
    <g id="xtick_19">
     <g id="line2d_19">
      <g>
       <use xlink:href="#m94da217fb2" x="628.246391" y="237.9517" style="stroke: #000000; stroke-width: 0.8"/>
      </g>
     </g>
     <g id="text_19">
      <text style="font-size: 8px; font-family: 'Helvetica', 'Arial', 'DejaVu Sans', sans-serif" transform="translate(603.534156 263.707853) rotate(-30)">Bladder</text>
     </g>
    </g>
    <g id="xtick_20">
     <g id="line2d_20">
      <g>
       <use xlink:href="#m94da217fb2" x="655.569478" y="237.9517" style="stroke: #000000; stroke-width: 0.8"/>
      </g>
     </g>
     <g id="text_20">
      <text style="font-size: 8px; font-family: 'Helvetica', 'Arial', 'DejaVu Sans', sans-serif" transform="translate(613.537817 273.707228) rotate(-30)">Endometrium</text>
     </g>
    </g>
    <g id="xtick_21">
     <g id="line2d_21">
      <g>
       <use xlink:href="#m94da217fb2" x="682.892565" y="237.9517" style="stroke: #000000; stroke-width: 0.8"/>
      </g>
     </g>
     <g id="text_21">
      <text style="font-size: 8px; font-family: 'Helvetica', 'Arial', 'DejaVu Sans', sans-serif" transform="translate(656.258836 264.817228) rotate(-30)">Prostate</text>
     </g>
    </g>
    <g id="xtick_22">
     <g id="line2d_22">
      <g>
       <use xlink:href="#m94da217fb2" x="710.215652" y="237.9517" style="stroke: #000000; stroke-width: 0.8"/>
      </g>
     </g>
     <g id="text_22">
      <text style="font-size: 8px; font-family: 'Helvetica', 'Arial', 'DejaVu Sans', sans-serif" transform="translate(672.033474 271.484728) rotate(-30)">Other tissue</text>
     </g>
    </g>
    <g id="xtick_23">
     <g id="line2d_23">
      <g>
       <use xlink:href="#m94da217fb2" x="737.538739" y="237.9517" style="stroke: #000000; stroke-width: 0.8"/>
      </g>
     </g>
     <g id="text_23">
      <text style="font-size: 8px; font-family: 'Helvetica', 'Arial', 'DejaVu Sans', sans-serif" transform="translate(700.113317 271.034103) rotate(-30)">Biliary Tract</text>
     </g>
    </g>
    <g id="xtick_24">
     <g id="line2d_24">
      <g>
       <use xlink:href="#m94da217fb2" x="764.861826" y="237.9517" style="stroke: #000000; stroke-width: 0.8"/>
      </g>
     </g>
     <g id="text_24">
      <text style="font-size: 8px; font-family: 'Helvetica', 'Arial', 'DejaVu Sans', sans-serif" transform="translate(745.551424 260.589103) rotate(-30)">Testis</text>
     </g>
    </g>
    <g id="xtick_25">
     <g id="line2d_25">
      <g>
       <use xlink:href="#m94da217fb2" x="792.184913" y="237.9517" style="stroke: #000000; stroke-width: 0.8"/>
      </g>
     </g>
     <g id="text_25">
      <text style="font-size: 8px; font-family: 'Helvetica', 'Arial', 'DejaVu Sans', sans-serif" transform="translate(774.020912 259.927228) rotate(-30)">Vulva</text>
     </g>
    </g>
    <g id="xtick_26">
     <g id="line2d_26">
      <g>
       <use xlink:href="#m94da217fb2" x="819.508" y="237.9517" style="stroke: #000000; stroke-width: 0.8"/>
      </g>
     </g>
     <g id="text_26">
      <text style="font-size: 8px; font-family: 'Helvetica', 'Arial', 'DejaVu Sans', sans-serif" transform="translate(791.713797 265.487228) rotate(-30)">Placenta</text>
     </g>
    </g>
    <g id="xtick_27">
     <g id="line2d_27">
      <g>
       <use xlink:href="#m94da217fb2" x="846.831087" y="237.9517" style="stroke: #000000; stroke-width: 0.8"/>
      </g>
     </g>
     <g id="text_27">
      <text style="font-size: 8px; font-family: 'Helvetica', 'Arial', 'DejaVu Sans', sans-serif" transform="translate(800.560232 276.154728) rotate(-30)">Small Intestine</text>
     </g>
    </g>
    <g id="xtick_28">
     <g id="line2d_28">
      <g>
       <use xlink:href="#m94da217fb2" x="874.154174" y="237.9517" style="stroke: #000000; stroke-width: 0.8"/>
      </g>
     </g>
     <g id="text_28">
      <text style="font-size: 8px; font-family: 'Helvetica', 'Arial', 'DejaVu Sans', sans-serif" transform="translate(829.030803 275.492228) rotate(-30)">Adrenal Gland</text>
     </g>
    </g>
   </g>
   <g id="matplotlib.axis_2">
    <g id="ytick_1">
     <g id="line2d_29">
      <defs>
       <path id="m520767fcf3" d="M 0 0 
L -3.5 0 
" style="stroke: #000000; stroke-width: 0.8"/>
      </defs>
      <g>
       <use xlink:href="#m520767fcf3" x="87.5225" y="237.9517" style="stroke: #000000; stroke-width: 0.8"/>
      </g>
     </g>
     <g id="text_29">
      <text style="font-size: 14px; font-family: 'Helvetica', 'Arial', 'DejaVu Sans', sans-serif; text-anchor: end" x="80.5225" y="242.973106" transform="rotate(-0 80.5225 242.973106)">0</text>
     </g>
    </g>
    <g id="ytick_2">
     <g id="line2d_30">
      <g>
       <use xlink:href="#m520767fcf3" x="87.5225" y="202.989441" style="stroke: #000000; stroke-width: 0.8"/>
      </g>
     </g>
     <g id="text_30">
      <text style="font-size: 14px; font-family: 'Helvetica', 'Arial', 'DejaVu Sans', sans-serif; text-anchor: end" x="80.5225" y="208.010848" transform="rotate(-0 80.5225 208.010848)">2000</text>
     </g>
    </g>
    <g id="ytick_3">
     <g id="line2d_31">
      <g>
       <use xlink:href="#m520767fcf3" x="87.5225" y="168.027183" style="stroke: #000000; stroke-width: 0.8"/>
      </g>
     </g>
     <g id="text_31">
      <text style="font-size: 14px; font-family: 'Helvetica', 'Arial', 'DejaVu Sans', sans-serif; text-anchor: end" x="80.5225" y="173.048589" transform="rotate(-0 80.5225 173.048589)">4000</text>
     </g>
    </g>
    <g id="ytick_4">
     <g id="line2d_32">
      <g>
       <use xlink:href="#m520767fcf3" x="87.5225" y="133.064924" style="stroke: #000000; stroke-width: 0.8"/>
      </g>
     </g>
     <g id="text_32">
      <text style="font-size: 14px; font-family: 'Helvetica', 'Arial', 'DejaVu Sans', sans-serif; text-anchor: end" x="80.5225" y="138.086331" transform="rotate(-0 80.5225 138.086331)">6000</text>
     </g>
    </g>
    <g id="ytick_5">
     <g id="line2d_33">
      <g>
       <use xlink:href="#m520767fcf3" x="87.5225" y="98.102666" style="stroke: #000000; stroke-width: 0.8"/>
      </g>
     </g>
     <g id="text_33">
      <text style="font-size: 14px; font-family: 'Helvetica', 'Arial', 'DejaVu Sans', sans-serif; text-anchor: end" x="80.5225" y="103.124072" transform="rotate(-0 80.5225 103.124072)">8000</text>
     </g>
    </g>
    <g id="ytick_6">
     <g id="line2d_34">
      <g>
       <use xlink:href="#m520767fcf3" x="87.5225" y="63.140407" style="stroke: #000000; stroke-width: 0.8"/>
      </g>
     </g>
     <g id="text_34">
      <text style="font-size: 14px; font-family: 'Helvetica', 'Arial', 'DejaVu Sans', sans-serif; text-anchor: end" x="80.5225" y="68.161814" transform="rotate(-0 80.5225 68.161814)">10000</text>
     </g>
    </g>
    <g id="ytick_7">
     <g id="line2d_35">
      <g>
       <use xlink:href="#m520767fcf3" x="87.5225" y="28.178149" style="stroke: #000000; stroke-width: 0.8"/>
      </g>
     </g>
     <g id="text_35">
      <text style="font-size: 14px; font-family: 'Helvetica', 'Arial', 'DejaVu Sans', sans-serif; text-anchor: end" x="80.5225" y="33.199555" transform="rotate(-0 80.5225 33.199555)">12000</text>
     </g>
    </g>
    <g id="text_36">
     <text style="font-size: 17px; font-family: 'Helvetica', 'Arial', 'DejaVu Sans', sans-serif; text-anchor: middle" x="33.834688" y="129.77585" transform="rotate(-90 33.834688 129.77585)">Distinct protein groups detected</text>
    </g>
   </g>
   <g id="patch_59">
    <path d="M 87.5225 237.9517 
L 87.5225 21.6 
" style="fill: none; stroke: #000000; stroke-width: 0.8; stroke-linejoin: miter; stroke-linecap: square"/>
   </g>
   <g id="patch_60">
    <path d="M 87.5225 237.9517 
L 923.0625 237.9517 
" style="fill: none; stroke: #000000; stroke-width: 0.8; stroke-linejoin: miter; stroke-linecap: square"/>
   </g>
   <g id="legend_1">
    <g id="patch_61">
     <path d="M 284.796875 321.446426 
L 312.796875 321.446426 
L 312.796875 311.646426 
L 284.796875 311.646426 
z
" style="fill: #9e9e9e"/>
    </g>
    <g id="text_37">
     <text style="font-size: 14px; font-family: 'Helvetica', 'Arial', 'DejaVu Sans', sans-serif; text-anchor: start" x="323.996875" y="321.446426" transform="rotate(-0 323.996875 321.446426)">ProCan-DepMapSanger 2022</text>
    </g>
    <g id="patch_62">
     <path d="M 537.210313 321.446426 
L 565.210313 321.446426 
L 565.210313 311.646426 
L 537.210313 311.646426 
z
" style="fill: #0072b2"/>
    </g>
    <g id="text_38">
     <text style="font-size: 14px; font-family: 'Helvetica', 'Arial', 'DejaVu Sans', sans-serif; text-anchor: start" x="576.410313" y="321.446426" transform="rotate(-0 576.410313 321.446426)">quantmsdiann (DIA-NN)</text>
    </g>
   </g>
  </g>
 </g>
 <defs>
  <clipPath id="p7a9aa4cb21">
   <rect x="87.5225" y="21.6" width="835.54" height="216.3517"/>
  </clipPath>
 </defs>
</svg>
