<?xml version="1.0" encoding="utf-8" standalone="no"?>
<!DOCTYPE svg PUBLIC "-//W3C//DTD SVG 1.1//EN"
  "http://www.w3.org/Graphics/SVG/1.1/DTD/svg11.dtd">
<svg xmlns:xlink="http://www.w3.org/1999/xlink" width="720pt" height="324pt" viewBox="0 0 720 324" xmlns="http://www.w3.org/2000/svg" version="1.1">
 <metadata>
  <rdf:RDF xmlns:dc="http://purl.org/dc/elements/1.1/" xmlns:cc="http://creativecommons.org/ns#" xmlns:rdf="http://www.w3.org/1999/02/22-rdf-syntax-ns#">
   <cc:Work>
    <dc:type rdf:resource="http://purl.org/dc/dcmitype/StillImage"/>
    <dc:date>2026-05-28T22:19:14.651407</dc:date>
    <dc:format>image/svg+xml</dc:format>
    <dc:creator>
     <cc:Agent>
      <dc:title>Matplotlib v3.10.8, https://matplotlib.org/</dc:title>
     </cc:Agent>
    </dc:creator>
   </cc:Work>
  </rdf:RDF>
 </metadata>
 <defs>
  <style type="text/css">*{stroke-linejoin: round; stroke-linecap: butt}</style>
 </defs>
 <g id="figure_1">
  <g id="patch_1">
   <path d="M 0 324 
L 720 324 
L 720 0 
L 0 0 
z
" style="fill: #ffffff"/>
  </g>
  <g id="axes_1">
   <g id="patch_2">
    <path d="M 59.384 282.04 
L 709.2 282.04 
L 709.2 14.76 
L 59.384 14.76 
z
" style="fill: #ffffff"/>
   </g>
   <g id="matplotlib.axis_1">
    <g id="xtick_1">
     <g id="line2d_1">
      <defs>
       <path id="m3ce6c0411a" d="M 0 0 
L 0 3.5 
" style="stroke: #000000; stroke-width: 0.8"/>
      </defs>
      <g>
       <use xlink:href="#m3ce6c0411a" x="88.921091" y="282.04" style="stroke: #000000; stroke-width: 0.8"/>
      </g>
     </g>
     <g id="text_1">
      <!-- 0 -->
      <g transform="translate(85.739841 296.638438) scale(0.1 -0.1)">
       <defs>
        <path id="DejaVuSans-30" d="M 2034 4250 
Q 1547 4250 1301 3770 
Q 1056 3291 1056 2328 
Q 1056 1369 1301 889 
Q 1547 409 2034 409 
Q 2525 409 2770 889 
Q 3016 1369 3016 2328 
Q 3016 3291 2770 3770 
Q 2525 4250 2034 4250 
z
M 2034 4750 
Q 2819 4750 3233 4129 
Q 3647 3509 3647 2328 
Q 3647 1150 3233 529 
Q 2819 -91 2034 -91 
Q 1250 -91 836 529 
Q 422 1150 422 2328 
Q 422 3509 836 4129 
Q 1250 4750 2034 4750 
z
" transform="scale(0.015625)"/>
       </defs>
       <use xlink:href="#DejaVuSans-30"/>
      </g>
     </g>
    </g>
    <g id="xtick_2">
     <g id="line2d_2">
      <g>
       <use xlink:href="#m3ce6c0411a" x="174.997416" y="282.04" style="stroke: #000000; stroke-width: 0.8"/>
      </g>
     </g>
     <g id="text_2">
      <!-- 1000 -->
      <g transform="translate(162.272416 296.638438) scale(0.1 -0.1)">
       <defs>
        <path id="DejaVuSans-31" d="M 794 531 
L 1825 531 
L 1825 4091 
L 703 3866 
L 703 4441 
L 1819 4666 
L 2450 4666 
L 2450 531 
L 3481 531 
L 3481 0 
L 794 0 
L 794 531 
z
" transform="scale(0.015625)"/>
       </defs>
       <use xlink:href="#DejaVuSans-31"/>
       <use xlink:href="#DejaVuSans-30" transform="translate(63.623047 0)"/>
       <use xlink:href="#DejaVuSans-30" transform="translate(127.246094 0)"/>
       <use xlink:href="#DejaVuSans-30" transform="translate(190.869141 0)"/>
      </g>
     </g>
    </g>
    <g id="xtick_3">
     <g id="line2d_3">
      <g>
       <use xlink:href="#m3ce6c0411a" x="261.073741" y="282.04" style="stroke: #000000; stroke-width: 0.8"/>
      </g>
     </g>
     <g id="text_3">
      <!-- 2000 -->
      <g transform="translate(248.348741 296.638438) scale(0.1 -0.1)">
       <defs>
        <path id="DejaVuSans-32" d="M 1228 531 
L 3431 531 
L 3431 0 
L 469 0 
L 469 531 
Q 828 903 1448 1529 
Q 2069 2156 2228 2338 
Q 2531 2678 2651 2914 
Q 2772 3150 2772 3378 
Q 2772 3750 2511 3984 
Q 2250 4219 1831 4219 
Q 1534 4219 1204 4116 
Q 875 4013 500 3803 
L 500 4441 
Q 881 4594 1212 4672 
Q 1544 4750 1819 4750 
Q 2544 4750 2975 4387 
Q 3406 4025 3406 3419 
Q 3406 3131 3298 2873 
Q 3191 2616 2906 2266 
Q 2828 2175 2409 1742 
Q 1991 1309 1228 531 
z
" transform="scale(0.015625)"/>
       </defs>
       <use xlink:href="#DejaVuSans-32"/>
       <use xlink:href="#DejaVuSans-30" transform="translate(63.623047 0)"/>
       <use xlink:href="#DejaVuSans-30" transform="translate(127.246094 0)"/>
       <use xlink:href="#DejaVuSans-30" transform="translate(190.869141 0)"/>
      </g>
     </g>
    </g>
    <g id="xtick_4">
     <g id="line2d_4">
      <g>
       <use xlink:href="#m3ce6c0411a" x="347.150066" y="282.04" style="stroke: #000000; stroke-width: 0.8"/>
      </g>
     </g>
     <g id="text_4">
      <!-- 3000 -->
      <g transform="translate(334.425066 296.638438) scale(0.1 -0.1)">
       <defs>
        <path id="DejaVuSans-33" d="M 2597 2516 
Q 3050 2419 3304 2112 
Q 3559 1806 3559 1356 
Q 3559 666 3084 287 
Q 2609 -91 1734 -91 
Q 1441 -91 1130 -33 
Q 819 25 488 141 
L 488 750 
Q 750 597 1062 519 
Q 1375 441 1716 441 
Q 2309 441 2620 675 
Q 2931 909 2931 1356 
Q 2931 1769 2642 2001 
Q 2353 2234 1838 2234 
L 1294 2234 
L 1294 2753 
L 1863 2753 
Q 2328 2753 2575 2939 
Q 2822 3125 2822 3475 
Q 2822 3834 2567 4026 
Q 2313 4219 1838 4219 
Q 1578 4219 1281 4162 
Q 984 4106 628 3988 
L 628 4550 
Q 988 4650 1302 4700 
Q 1616 4750 1894 4750 
Q 2613 4750 3031 4423 
Q 3450 4097 3450 3541 
Q 3450 3153 3228 2886 
Q 3006 2619 2597 2516 
z
" transform="scale(0.015625)"/>
       </defs>
       <use xlink:href="#DejaVuSans-33"/>
       <use xlink:href="#DejaVuSans-30" transform="translate(63.623047 0)"/>
       <use xlink:href="#DejaVuSans-30" transform="translate(127.246094 0)"/>
       <use xlink:href="#DejaVuSans-30" transform="translate(190.869141 0)"/>
      </g>
     </g>
    </g>
    <g id="xtick_5">
     <g id="line2d_5">
      <g>
       <use xlink:href="#m3ce6c0411a" x="433.226391" y="282.04" style="stroke: #000000; stroke-width: 0.8"/>
      </g>
     </g>
     <g id="text_5">
      <!-- 4000 -->
      <g transform="translate(420.501391 296.638438) scale(0.1 -0.1)">
       <defs>
        <path id="DejaVuSans-34" d="M 2419 4116 
L 825 1625 
L 2419 1625 
L 2419 4116 
z
M 2253 4666 
L 3047 4666 
L 3047 1625 
L 3713 1625 
L 3713 1100 
L 3047 1100 
L 3047 0 
L 2419 0 
L 2419 1100 
L 313 1100 
L 313 1709 
L 2253 4666 
z
" transform="scale(0.015625)"/>
       </defs>
       <use xlink:href="#DejaVuSans-34"/>
       <use xlink:href="#DejaVuSans-30" transform="translate(63.623047 0)"/>
       <use xlink:href="#DejaVuSans-30" transform="translate(127.246094 0)"/>
       <use xlink:href="#DejaVuSans-30" transform="translate(190.869141 0)"/>
      </g>
     </g>
    </g>
    <g id="xtick_6">
     <g id="line2d_6">
      <g>
       <use xlink:href="#m3ce6c0411a" x="519.302716" y="282.04" style="stroke: #000000; stroke-width: 0.8"/>
      </g>
     </g>
     <g id="text_6">
      <!-- 5000 -->
      <g transform="translate(506.577716 296.638438) scale(0.1 -0.1)">
       <defs>
        <path id="DejaVuSans-35" d="M 691 4666 
L 3169 4666 
L 3169 4134 
L 1269 4134 
L 1269 2991 
Q 1406 3038 1543 3061 
Q 1681 3084 1819 3084 
Q 2600 3084 3056 2656 
Q 3513 2228 3513 1497 
Q 3513 744 3044 326 
Q 2575 -91 1722 -91 
Q 1428 -91 1123 -41 
Q 819 9 494 109 
L 494 744 
Q 775 591 1075 516 
Q 1375 441 1709 441 
Q 2250 441 2565 725 
Q 2881 1009 2881 1497 
Q 2881 1984 2565 2268 
Q 2250 2553 1709 2553 
Q 1456 2553 1204 2497 
Q 953 2441 691 2322 
L 691 4666 
z
" transform="scale(0.015625)"/>
       </defs>
       <use xlink:href="#DejaVuSans-35"/>
       <use xlink:href="#DejaVuSans-30" transform="translate(63.623047 0)"/>
       <use xlink:href="#DejaVuSans-30" transform="translate(127.246094 0)"/>
       <use xlink:href="#DejaVuSans-30" transform="translate(190.869141 0)"/>
      </g>
     </g>
    </g>
    <g id="xtick_7">
     <g id="line2d_7">
      <g>
       <use xlink:href="#m3ce6c0411a" x="605.379041" y="282.04" style="stroke: #000000; stroke-width: 0.8"/>
      </g>
     </g>
     <g id="text_7">
      <!-- 6000 -->
      <g transform="translate(592.654041 296.638438) scale(0.1 -0.1)">
       <defs>
        <path id="DejaVuSans-36" d="M 2113 2584 
Q 1688 2584 1439 2293 
Q 1191 2003 1191 1497 
Q 1191 994 1439 701 
Q 1688 409 2113 409 
Q 2538 409 2786 701 
Q 3034 994 3034 1497 
Q 3034 2003 2786 2293 
Q 2538 2584 2113 2584 
z
M 3366 4563 
L 3366 3988 
Q 3128 4100 2886 4159 
Q 2644 4219 2406 4219 
Q 1781 4219 1451 3797 
Q 1122 3375 1075 2522 
Q 1259 2794 1537 2939 
Q 1816 3084 2150 3084 
Q 2853 3084 3261 2657 
Q 3669 2231 3669 1497 
Q 3669 778 3244 343 
Q 2819 -91 2113 -91 
Q 1303 -91 875 529 
Q 447 1150 447 2328 
Q 447 3434 972 4092 
Q 1497 4750 2381 4750 
Q 2619 4750 2861 4703 
Q 3103 4656 3366 4563 
z
" transform="scale(0.015625)"/>
       </defs>
       <use xlink:href="#DejaVuSans-36"/>
       <use xlink:href="#DejaVuSans-30" transform="translate(63.623047 0)"/>
       <use xlink:href="#DejaVuSans-30" transform="translate(127.246094 0)"/>
       <use xlink:href="#DejaVuSans-30" transform="translate(190.869141 0)"/>
      </g>
     </g>
    </g>
    <g id="xtick_8">
     <g id="line2d_8">
      <g>
       <use xlink:href="#m3ce6c0411a" x="691.455366" y="282.04" style="stroke: #000000; stroke-width: 0.8"/>
      </g>
     </g>
     <g id="text_8">
      <!-- 7000 -->
      <g transform="translate(678.730366 296.638438) scale(0.1 -0.1)">
       <defs>
        <path id="DejaVuSans-37" d="M 525 4666 
L 3525 4666 
L 3525 4397 
L 1831 0 
L 1172 0 
L 2766 4134 
L 525 4134 
L 525 4666 
z
" transform="scale(0.015625)"/>
       </defs>
       <use xlink:href="#DejaVuSans-37"/>
       <use xlink:href="#DejaVuSans-30" transform="translate(63.623047 0)"/>
       <use xlink:href="#DejaVuSans-30" transform="translate(127.246094 0)"/>
       <use xlink:href="#DejaVuSans-30" transform="translate(190.869141 0)"/>
      </g>
     </g>
    </g>
    <g id="text_9">
     <!-- Run rank (sorted ascending within each pipeline) -->
     <g transform="translate(261.524813 310.316563) scale(0.1 -0.1)">
      <defs>
       <path id="DejaVuSans-52" d="M 2841 2188 
Q 3044 2119 3236 1894 
Q 3428 1669 3622 1275 
L 4263 0 
L 3584 0 
L 2988 1197 
Q 2756 1666 2539 1819 
Q 2322 1972 1947 1972 
L 1259 1972 
L 1259 0 
L 628 0 
L 628 4666 
L 2053 4666 
Q 2853 4666 3247 4331 
Q 3641 3997 3641 3322 
Q 3641 2881 3436 2590 
Q 3231 2300 2841 2188 
z
M 1259 4147 
L 1259 2491 
L 2053 2491 
Q 2509 2491 2742 2702 
Q 2975 2913 2975 3322 
Q 2975 3731 2742 3939 
Q 2509 4147 2053 4147 
L 1259 4147 
z
" transform="scale(0.015625)"/>
       <path id="DejaVuSans-75" d="M 544 1381 
L 544 3500 
L 1119 3500 
L 1119 1403 
Q 1119 906 1312 657 
Q 1506 409 1894 409 
Q 2359 409 2629 706 
Q 2900 1003 2900 1516 
L 2900 3500 
L 3475 3500 
L 3475 0 
L 2900 0 
L 2900 538 
Q 2691 219 2414 64 
Q 2138 -91 1772 -91 
Q 1169 -91 856 284 
Q 544 659 544 1381 
z
M 1991 3584 
L 1991 3584 
z
" transform="scale(0.015625)"/>
       <path id="DejaVuSans-6e" d="M 3513 2113 
L 3513 0 
L 2938 0 
L 2938 2094 
Q 2938 2591 2744 2837 
Q 2550 3084 2163 3084 
Q 1697 3084 1428 2787 
Q 1159 2491 1159 1978 
L 1159 0 
L 581 0 
L 581 3500 
L 1159 3500 
L 1159 2956 
Q 1366 3272 1645 3428 
Q 1925 3584 2291 3584 
Q 2894 3584 3203 3211 
Q 3513 2838 3513 2113 
z
" transform="scale(0.015625)"/>
       <path id="DejaVuSans-20" transform="scale(0.015625)"/>
       <path id="DejaVuSans-72" d="M 2631 2963 
Q 2534 3019 2420 3045 
Q 2306 3072 2169 3072 
Q 1681 3072 1420 2755 
Q 1159 2438 1159 1844 
L 1159 0 
L 581 0 
L 581 3500 
L 1159 3500 
L 1159 2956 
Q 1341 3275 1631 3429 
Q 1922 3584 2338 3584 
Q 2397 3584 2469 3576 
Q 2541 3569 2628 3553 
L 2631 2963 
z
" transform="scale(0.015625)"/>
       <path id="DejaVuSans-61" d="M 2194 1759 
Q 1497 1759 1228 1600 
Q 959 1441 959 1056 
Q 959 750 1161 570 
Q 1363 391 1709 391 
Q 2188 391 2477 730 
Q 2766 1069 2766 1631 
L 2766 1759 
L 2194 1759 
z
M 3341 1997 
L 3341 0 
L 2766 0 
L 2766 531 
Q 2569 213 2275 61 
Q 1981 -91 1556 -91 
Q 1019 -91 701 211 
Q 384 513 384 1019 
Q 384 1609 779 1909 
Q 1175 2209 1959 2209 
L 2766 2209 
L 2766 2266 
Q 2766 2663 2505 2880 
Q 2244 3097 1772 3097 
Q 1472 3097 1187 3025 
Q 903 2953 641 2809 
L 641 3341 
Q 956 3463 1253 3523 
Q 1550 3584 1831 3584 
Q 2591 3584 2966 3190 
Q 3341 2797 3341 1997 
z
" transform="scale(0.015625)"/>
       <path id="DejaVuSans-6b" d="M 581 4863 
L 1159 4863 
L 1159 1991 
L 2875 3500 
L 3609 3500 
L 1753 1863 
L 3688 0 
L 2938 0 
L 1159 1709 
L 1159 0 
L 581 0 
L 581 4863 
z
" transform="scale(0.015625)"/>
       <path id="DejaVuSans-28" d="M 1984 4856 
Q 1566 4138 1362 3434 
Q 1159 2731 1159 2009 
Q 1159 1288 1364 580 
Q 1569 -128 1984 -844 
L 1484 -844 
Q 1016 -109 783 600 
Q 550 1309 550 2009 
Q 550 2706 781 3412 
Q 1013 4119 1484 4856 
L 1984 4856 
z
" transform="scale(0.015625)"/>
       <path id="DejaVuSans-73" d="M 2834 3397 
L 2834 2853 
Q 2591 2978 2328 3040 
Q 2066 3103 1784 3103 
Q 1356 3103 1142 2972 
Q 928 2841 928 2578 
Q 928 2378 1081 2264 
Q 1234 2150 1697 2047 
L 1894 2003 
Q 2506 1872 2764 1633 
Q 3022 1394 3022 966 
Q 3022 478 2636 193 
Q 2250 -91 1575 -91 
Q 1294 -91 989 -36 
Q 684 19 347 128 
L 347 722 
Q 666 556 975 473 
Q 1284 391 1588 391 
Q 1994 391 2212 530 
Q 2431 669 2431 922 
Q 2431 1156 2273 1281 
Q 2116 1406 1581 1522 
L 1381 1569 
Q 847 1681 609 1914 
Q 372 2147 372 2553 
Q 372 3047 722 3315 
Q 1072 3584 1716 3584 
Q 2034 3584 2315 3537 
Q 2597 3491 2834 3397 
z
" transform="scale(0.015625)"/>
       <path id="DejaVuSans-6f" d="M 1959 3097 
Q 1497 3097 1228 2736 
Q 959 2375 959 1747 
Q 959 1119 1226 758 
Q 1494 397 1959 397 
Q 2419 397 2687 759 
Q 2956 1122 2956 1747 
Q 2956 2369 2687 2733 
Q 2419 3097 1959 3097 
z
M 1959 3584 
Q 2709 3584 3137 3096 
Q 3566 2609 3566 1747 
Q 3566 888 3137 398 
Q 2709 -91 1959 -91 
Q 1206 -91 779 398 
Q 353 888 353 1747 
Q 353 2609 779 3096 
Q 1206 3584 1959 3584 
z
" transform="scale(0.015625)"/>
       <path id="DejaVuSans-74" d="M 1172 4494 
L 1172 3500 
L 2356 3500 
L 2356 3053 
L 1172 3053 
L 1172 1153 
Q 1172 725 1289 603 
Q 1406 481 1766 481 
L 2356 481 
L 2356 0 
L 1766 0 
Q 1100 0 847 248 
Q 594 497 594 1153 
L 594 3053 
L 172 3053 
L 172 3500 
L 594 3500 
L 594 4494 
L 1172 4494 
z
" transform="scale(0.015625)"/>
       <path id="DejaVuSans-65" d="M 3597 1894 
L 3597 1613 
L 953 1613 
Q 991 1019 1311 708 
Q 1631 397 2203 397 
Q 2534 397 2845 478 
Q 3156 559 3463 722 
L 3463 178 
Q 3153 47 2828 -22 
Q 2503 -91 2169 -91 
Q 1331 -91 842 396 
Q 353 884 353 1716 
Q 353 2575 817 3079 
Q 1281 3584 2069 3584 
Q 2775 3584 3186 3129 
Q 3597 2675 3597 1894 
z
M 3022 2063 
Q 3016 2534 2758 2815 
Q 2500 3097 2075 3097 
Q 1594 3097 1305 2825 
Q 1016 2553 972 2059 
L 3022 2063 
z
" transform="scale(0.015625)"/>
       <path id="DejaVuSans-64" d="M 2906 2969 
L 2906 4863 
L 3481 4863 
L 3481 0 
L 2906 0 
L 2906 525 
Q 2725 213 2448 61 
Q 2172 -91 1784 -91 
Q 1150 -91 751 415 
Q 353 922 353 1747 
Q 353 2572 751 3078 
Q 1150 3584 1784 3584 
Q 2172 3584 2448 3432 
Q 2725 3281 2906 2969 
z
M 947 1747 
Q 947 1113 1208 752 
Q 1469 391 1925 391 
Q 2381 391 2643 752 
Q 2906 1113 2906 1747 
Q 2906 2381 2643 2742 
Q 2381 3103 1925 3103 
Q 1469 3103 1208 2742 
Q 947 2381 947 1747 
z
" transform="scale(0.015625)"/>
       <path id="DejaVuSans-63" d="M 3122 3366 
L 3122 2828 
Q 2878 2963 2633 3030 
Q 2388 3097 2138 3097 
Q 1578 3097 1268 2742 
Q 959 2388 959 1747 
Q 959 1106 1268 751 
Q 1578 397 2138 397 
Q 2388 397 2633 464 
Q 2878 531 3122 666 
L 3122 134 
Q 2881 22 2623 -34 
Q 2366 -91 2075 -91 
Q 1284 -91 818 406 
Q 353 903 353 1747 
Q 353 2603 823 3093 
Q 1294 3584 2113 3584 
Q 2378 3584 2631 3529 
Q 2884 3475 3122 3366 
z
" transform="scale(0.015625)"/>
       <path id="DejaVuSans-69" d="M 603 3500 
L 1178 3500 
L 1178 0 
L 603 0 
L 603 3500 
z
M 603 4863 
L 1178 4863 
L 1178 4134 
L 603 4134 
L 603 4863 
z
" transform="scale(0.015625)"/>
       <path id="DejaVuSans-67" d="M 2906 1791 
Q 2906 2416 2648 2759 
Q 2391 3103 1925 3103 
Q 1463 3103 1205 2759 
Q 947 2416 947 1791 
Q 947 1169 1205 825 
Q 1463 481 1925 481 
Q 2391 481 2648 825 
Q 2906 1169 2906 1791 
z
M 3481 434 
Q 3481 -459 3084 -895 
Q 2688 -1331 1869 -1331 
Q 1566 -1331 1297 -1286 
Q 1028 -1241 775 -1147 
L 775 -588 
Q 1028 -725 1275 -790 
Q 1522 -856 1778 -856 
Q 2344 -856 2625 -561 
Q 2906 -266 2906 331 
L 2906 616 
Q 2728 306 2450 153 
Q 2172 0 1784 0 
Q 1141 0 747 490 
Q 353 981 353 1791 
Q 353 2603 747 3093 
Q 1141 3584 1784 3584 
Q 2172 3584 2450 3431 
Q 2728 3278 2906 2969 
L 2906 3500 
L 3481 3500 
L 3481 434 
z
" transform="scale(0.015625)"/>
       <path id="DejaVuSans-77" d="M 269 3500 
L 844 3500 
L 1563 769 
L 2278 3500 
L 2956 3500 
L 3675 769 
L 4391 3500 
L 4966 3500 
L 4050 0 
L 3372 0 
L 2619 2869 
L 1863 0 
L 1184 0 
L 269 3500 
z
" transform="scale(0.015625)"/>
       <path id="DejaVuSans-68" d="M 3513 2113 
L 3513 0 
L 2938 0 
L 2938 2094 
Q 2938 2591 2744 2837 
Q 2550 3084 2163 3084 
Q 1697 3084 1428 2787 
Q 1159 2491 1159 1978 
L 1159 0 
L 581 0 
L 581 4863 
L 1159 4863 
L 1159 2956 
Q 1366 3272 1645 3428 
Q 1925 3584 2291 3584 
Q 2894 3584 3203 3211 
Q 3513 2838 3513 2113 
z
" transform="scale(0.015625)"/>
       <path id="DejaVuSans-70" d="M 1159 525 
L 1159 -1331 
L 581 -1331 
L 581 3500 
L 1159 3500 
L 1159 2969 
Q 1341 3281 1617 3432 
Q 1894 3584 2278 3584 
Q 2916 3584 3314 3078 
Q 3713 2572 3713 1747 
Q 3713 922 3314 415 
Q 2916 -91 2278 -91 
Q 1894 -91 1617 61 
Q 1341 213 1159 525 
z
M 3116 1747 
Q 3116 2381 2855 2742 
Q 2594 3103 2138 3103 
Q 1681 3103 1420 2742 
Q 1159 2381 1159 1747 
Q 1159 1113 1420 752 
Q 1681 391 2138 391 
Q 2594 391 2855 752 
Q 3116 1113 3116 1747 
z
" transform="scale(0.015625)"/>
       <path id="DejaVuSans-6c" d="M 603 4863 
L 1178 4863 
L 1178 0 
L 603 0 
L 603 4863 
z
" transform="scale(0.015625)"/>
       <path id="DejaVuSans-29" d="M 513 4856 
L 1013 4856 
Q 1481 4119 1714 3412 
Q 1947 2706 1947 2009 
Q 1947 1309 1714 600 
Q 1481 -109 1013 -844 
L 513 -844 
Q 928 -128 1133 580 
Q 1338 1288 1338 2009 
Q 1338 2731 1133 3434 
Q 928 4138 513 4856 
z
" transform="scale(0.015625)"/>
      </defs>
      <use xlink:href="#DejaVuSans-52"/>
      <use xlink:href="#DejaVuSans-75" transform="translate(64.982422 0)"/>
      <use xlink:href="#DejaVuSans-6e" transform="translate(128.361328 0)"/>
      <use xlink:href="#DejaVuSans-20" transform="translate(191.740234 0)"/>
      <use xlink:href="#DejaVuSans-72" transform="translate(223.527344 0)"/>
      <use xlink:href="#DejaVuSans-61" transform="translate(264.640625 0)"/>
      <use xlink:href="#DejaVuSans-6e" transform="translate(325.919922 0)"/>
      <use xlink:href="#DejaVuSans-6b" transform="translate(389.298828 0)"/>
      <use xlink:href="#DejaVuSans-20" transform="translate(447.208984 0)"/>
      <use xlink:href="#DejaVuSans-28" transform="translate(478.996094 0)"/>
      <use xlink:href="#DejaVuSans-73" transform="translate(518.009766 0)"/>
      <use xlink:href="#DejaVuSans-6f" transform="translate(570.109375 0)"/>
      <use xlink:href="#DejaVuSans-72" transform="translate(631.291016 0)"/>
      <use xlink:href="#DejaVuSans-74" transform="translate(672.404297 0)"/>
      <use xlink:href="#DejaVuSans-65" transform="translate(711.613281 0)"/>
      <use xlink:href="#DejaVuSans-64" transform="translate(773.136719 0)"/>
      <use xlink:href="#DejaVuSans-20" transform="translate(836.613281 0)"/>
      <use xlink:href="#DejaVuSans-61" transform="translate(868.400391 0)"/>
      <use xlink:href="#DejaVuSans-73" transform="translate(929.679688 0)"/>
      <use xlink:href="#DejaVuSans-63" transform="translate(981.779297 0)"/>
      <use xlink:href="#DejaVuSans-65" transform="translate(1036.759766 0)"/>
      <use xlink:href="#DejaVuSans-6e" transform="translate(1098.283203 0)"/>
      <use xlink:href="#DejaVuSans-64" transform="translate(1161.662109 0)"/>
      <use xlink:href="#DejaVuSans-69" transform="translate(1225.138672 0)"/>
      <use xlink:href="#DejaVuSans-6e" transform="translate(1252.921875 0)"/>
      <use xlink:href="#DejaVuSans-67" transform="translate(1316.300781 0)"/>
      <use xlink:href="#DejaVuSans-20" transform="translate(1379.777344 0)"/>
      <use xlink:href="#DejaVuSans-77" transform="translate(1411.564453 0)"/>
      <use xlink:href="#DejaVuSans-69" transform="translate(1493.351562 0)"/>
      <use xlink:href="#DejaVuSans-74" transform="translate(1521.134766 0)"/>
      <use xlink:href="#DejaVuSans-68" transform="translate(1560.34375 0)"/>
      <use xlink:href="#DejaVuSans-69" transform="translate(1623.722656 0)"/>
      <use xlink:href="#DejaVuSans-6e" transform="translate(1651.505859 0)"/>
      <use xlink:href="#DejaVuSans-20" transform="translate(1714.884766 0)"/>
      <use xlink:href="#DejaVuSans-65" transform="translate(1746.671875 0)"/>
      <use xlink:href="#DejaVuSans-61" transform="translate(1808.195312 0)"/>
      <use xlink:href="#DejaVuSans-63" transform="translate(1869.474609 0)"/>
      <use xlink:href="#DejaVuSans-68" transform="translate(1924.455078 0)"/>
      <use xlink:href="#DejaVuSans-20" transform="translate(1987.833984 0)"/>
      <use xlink:href="#DejaVuSans-70" transform="translate(2019.621094 0)"/>
      <use xlink:href="#DejaVuSans-69" transform="translate(2083.097656 0)"/>
      <use xlink:href="#DejaVuSans-70" transform="translate(2110.880859 0)"/>
      <use xlink:href="#DejaVuSans-65" transform="translate(2174.357422 0)"/>
      <use xlink:href="#DejaVuSans-6c" transform="translate(2235.880859 0)"/>
      <use xlink:href="#DejaVuSans-69" transform="translate(2263.664062 0)"/>
      <use xlink:href="#DejaVuSans-6e" transform="translate(2291.447266 0)"/>
      <use xlink:href="#DejaVuSans-65" transform="translate(2354.826172 0)"/>
      <use xlink:href="#DejaVuSans-29" transform="translate(2416.349609 0)"/>
     </g>
    </g>
   </g>
   <g id="matplotlib.axis_2">
    <g id="ytick_1">
     <g id="line2d_9">
      <defs>
       <path id="m66914865d4" d="M 0 0 
L -3.5 0 
" style="stroke: #000000; stroke-width: 0.8"/>
      </defs>
      <g>
       <use xlink:href="#m66914865d4" x="59.384" y="282.04" style="stroke: #000000; stroke-width: 0.8"/>
      </g>
     </g>
     <g id="text_10">
      <!-- 0.0 -->
      <g transform="translate(36.480875 285.839219) scale(0.1 -0.1)">
       <defs>
        <path id="DejaVuSans-2e" d="M 684 794 
L 1344 794 
L 1344 0 
L 684 0 
L 684 794 
z
" transform="scale(0.015625)"/>
       </defs>
       <use xlink:href="#DejaVuSans-30"/>
       <use xlink:href="#DejaVuSans-2e" transform="translate(63.623047 0)"/>
       <use xlink:href="#DejaVuSans-30" transform="translate(95.410156 0)"/>
      </g>
     </g>
    </g>
    <g id="ytick_2">
     <g id="line2d_10">
      <g>
       <use xlink:href="#m66914865d4" x="59.384" y="228.584" style="stroke: #000000; stroke-width: 0.8"/>
      </g>
     </g>
     <g id="text_11">
      <!-- 0.2 -->
      <g transform="translate(36.480875 232.383219) scale(0.1 -0.1)">
       <use xlink:href="#DejaVuSans-30"/>
       <use xlink:href="#DejaVuSans-2e" transform="translate(63.623047 0)"/>
       <use xlink:href="#DejaVuSans-32" transform="translate(95.410156 0)"/>
      </g>
     </g>
    </g>
    <g id="ytick_3">
     <g id="line2d_11">
      <g>
       <use xlink:href="#m66914865d4" x="59.384" y="175.128" style="stroke: #000000; stroke-width: 0.8"/>
      </g>
     </g>
     <g id="text_12">
      <!-- 0.4 -->
      <g transform="translate(36.480875 178.927219) scale(0.1 -0.1)">
       <use xlink:href="#DejaVuSans-30"/>
       <use xlink:href="#DejaVuSans-2e" transform="translate(63.623047 0)"/>
       <use xlink:href="#DejaVuSans-34" transform="translate(95.410156 0)"/>
      </g>
     </g>
    </g>
    <g id="ytick_4">
     <g id="line2d_12">
      <g>
       <use xlink:href="#m66914865d4" x="59.384" y="121.672" style="stroke: #000000; stroke-width: 0.8"/>
      </g>
     </g>
     <g id="text_13">
      <!-- 0.6 -->
      <g transform="translate(36.480875 125.471219) scale(0.1 -0.1)">
       <use xlink:href="#DejaVuSans-30"/>
       <use xlink:href="#DejaVuSans-2e" transform="translate(63.623047 0)"/>
       <use xlink:href="#DejaVuSans-36" transform="translate(95.410156 0)"/>
      </g>
     </g>
    </g>
    <g id="ytick_5">
     <g id="line2d_13">
      <g>
       <use xlink:href="#m66914865d4" x="59.384" y="68.216" style="stroke: #000000; stroke-width: 0.8"/>
      </g>
     </g>
     <g id="text_14">
      <!-- 0.8 -->
      <g transform="translate(36.480875 72.015219) scale(0.1 -0.1)">
       <defs>
        <path id="DejaVuSans-38" d="M 2034 2216 
Q 1584 2216 1326 1975 
Q 1069 1734 1069 1313 
Q 1069 891 1326 650 
Q 1584 409 2034 409 
Q 2484 409 2743 651 
Q 3003 894 3003 1313 
Q 3003 1734 2745 1975 
Q 2488 2216 2034 2216 
z
M 1403 2484 
Q 997 2584 770 2862 
Q 544 3141 544 3541 
Q 544 4100 942 4425 
Q 1341 4750 2034 4750 
Q 2731 4750 3128 4425 
Q 3525 4100 3525 3541 
Q 3525 3141 3298 2862 
Q 3072 2584 2669 2484 
Q 3125 2378 3379 2068 
Q 3634 1759 3634 1313 
Q 3634 634 3220 271 
Q 2806 -91 2034 -91 
Q 1263 -91 848 271 
Q 434 634 434 1313 
Q 434 1759 690 2068 
Q 947 2378 1403 2484 
z
M 1172 3481 
Q 1172 3119 1398 2916 
Q 1625 2713 2034 2713 
Q 2441 2713 2670 2916 
Q 2900 3119 2900 3481 
Q 2900 3844 2670 4047 
Q 2441 4250 2034 4250 
Q 1625 4250 1398 4047 
Q 1172 3844 1172 3481 
z
" transform="scale(0.015625)"/>
       </defs>
       <use xlink:href="#DejaVuSans-30"/>
       <use xlink:href="#DejaVuSans-2e" transform="translate(63.623047 0)"/>
       <use xlink:href="#DejaVuSans-38" transform="translate(95.410156 0)"/>
      </g>
     </g>
    </g>
    <g id="ytick_6">
     <g id="line2d_14">
      <g>
       <use xlink:href="#m66914865d4" x="59.384" y="14.76" style="stroke: #000000; stroke-width: 0.8"/>
      </g>
     </g>
     <g id="text_15">
      <!-- 1.0 -->
      <g transform="translate(36.480875 18.559219) scale(0.1 -0.1)">
       <use xlink:href="#DejaVuSans-31"/>
       <use xlink:href="#DejaVuSans-2e" transform="translate(63.623047 0)"/>
       <use xlink:href="#DejaVuSans-30" transform="translate(95.410156 0)"/>
      </g>
     </g>
    </g>
    <g id="text_16">
     <!-- Fraction of protein groups -->
     <g transform="translate(19.203375 212.841406) rotate(-90) scale(0.1 -0.1)">
      <defs>
       <path id="DejaVuSans-46" d="M 628 4666 
L 3309 4666 
L 3309 4134 
L 1259 4134 
L 1259 2759 
L 3109 2759 
L 3109 2228 
L 1259 2228 
L 1259 0 
L 628 0 
L 628 4666 
z
" transform="scale(0.015625)"/>
       <path id="DejaVuSans-66" d="M 2375 4863 
L 2375 4384 
L 1825 4384 
Q 1516 4384 1395 4259 
Q 1275 4134 1275 3809 
L 1275 3500 
L 2222 3500 
L 2222 3053 
L 1275 3053 
L 1275 0 
L 697 0 
L 697 3053 
L 147 3053 
L 147 3500 
L 697 3500 
L 697 3744 
Q 697 4328 969 4595 
Q 1241 4863 1831 4863 
L 2375 4863 
z
" transform="scale(0.015625)"/>
      </defs>
      <use xlink:href="#DejaVuSans-46"/>
      <use xlink:href="#DejaVuSans-72" transform="translate(50.269531 0)"/>
      <use xlink:href="#DejaVuSans-61" transform="translate(91.382812 0)"/>
      <use xlink:href="#DejaVuSans-63" transform="translate(152.662109 0)"/>
      <use xlink:href="#DejaVuSans-74" transform="translate(207.642578 0)"/>
      <use xlink:href="#DejaVuSans-69" transform="translate(246.851562 0)"/>
      <use xlink:href="#DejaVuSans-6f" transform="translate(274.634766 0)"/>
      <use xlink:href="#DejaVuSans-6e" transform="translate(335.816406 0)"/>
      <use xlink:href="#DejaVuSans-20" transform="translate(399.195312 0)"/>
      <use xlink:href="#DejaVuSans-6f" transform="translate(430.982422 0)"/>
      <use xlink:href="#DejaVuSans-66" transform="translate(492.164062 0)"/>
      <use xlink:href="#DejaVuSans-20" transform="translate(527.369141 0)"/>
      <use xlink:href="#DejaVuSans-70" transform="translate(559.15625 0)"/>
      <use xlink:href="#DejaVuSans-72" transform="translate(622.632812 0)"/>
      <use xlink:href="#DejaVuSans-6f" transform="translate(661.496094 0)"/>
      <use xlink:href="#DejaVuSans-74" transform="translate(722.677734 0)"/>
      <use xlink:href="#DejaVuSans-65" transform="translate(761.886719 0)"/>
      <use xlink:href="#DejaVuSans-69" transform="translate(823.410156 0)"/>
      <use xlink:href="#DejaVuSans-6e" transform="translate(851.193359 0)"/>
      <use xlink:href="#DejaVuSans-20" transform="translate(914.572266 0)"/>
      <use xlink:href="#DejaVuSans-67" transform="translate(946.359375 0)"/>
      <use xlink:href="#DejaVuSans-72" transform="translate(1009.835938 0)"/>
      <use xlink:href="#DejaVuSans-6f" transform="translate(1048.699219 0)"/>
      <use xlink:href="#DejaVuSans-75" transform="translate(1109.880859 0)"/>
      <use xlink:href="#DejaVuSans-70" transform="translate(1173.259766 0)"/>
      <use xlink:href="#DejaVuSans-73" transform="translate(1236.736328 0)"/>
     </g>
     <!-- detected per run -->
     <g transform="translate(30.401188 190.525) rotate(-90) scale(0.1 -0.1)">
      <use xlink:href="#DejaVuSans-64"/>
      <use xlink:href="#DejaVuSans-65" transform="translate(63.476562 0)"/>
      <use xlink:href="#DejaVuSans-74" transform="translate(125 0)"/>
      <use xlink:href="#DejaVuSans-65" transform="translate(164.208984 0)"/>
      <use xlink:href="#DejaVuSans-63" transform="translate(225.732422 0)"/>
      <use xlink:href="#DejaVuSans-74" transform="translate(280.712891 0)"/>
      <use xlink:href="#DejaVuSans-65" transform="translate(319.921875 0)"/>
      <use xlink:href="#DejaVuSans-64" transform="translate(381.445312 0)"/>
      <use xlink:href="#DejaVuSans-20" transform="translate(444.921875 0)"/>
      <use xlink:href="#DejaVuSans-70" transform="translate(476.708984 0)"/>
      <use xlink:href="#DejaVuSans-65" transform="translate(540.185547 0)"/>
      <use xlink:href="#DejaVuSans-72" transform="translate(601.708984 0)"/>
      <use xlink:href="#DejaVuSans-20" transform="translate(642.822266 0)"/>
      <use xlink:href="#DejaVuSans-72" transform="translate(674.609375 0)"/>
      <use xlink:href="#DejaVuSans-75" transform="translate(715.722656 0)"/>
      <use xlink:href="#DejaVuSans-6e" transform="translate(779.101562 0)"/>
     </g>
    </g>
   </g>
   <g id="line2d_15">
    <path d="M 88.921091 217.909155 
L 89.17932 217.53173 
L 89.265396 217.343017 
L 89.609702 215.613151 
L 89.781854 215.487343 
L 89.954007 215.078466 
L 90.212236 214.732492 
L 90.470465 214.292163 
L 90.642617 214.229259 
L 90.81477 213.631669 
L 91.072999 213.474408 
L 91.417304 212.593749 
L 91.675533 212.530845 
L 91.933762 212.027611 
L 92.019839 211.996159 
L 92.278068 211.618734 
L 93.741365 209.92032 
L 93.913518 209.668703 
L 94.171747 209.417086 
L 94.343899 209.291278 
L 94.774281 208.913853 
L 94.860357 208.913853 
L 95.290739 208.159002 
L 95.462892 207.813029 
L 95.548968 207.781577 
L 95.721121 207.278343 
L 95.893273 207.089631 
L 96.323655 206.49204 
L 98.131258 205.29686 
L 99.680632 204.667818 
L 99.938861 204.479106 
L 100.024937 204.479106 
L 100.283166 204.070228 
L 100.455318 204.038776 
L 100.799624 203.818611 
L 101.746463 203.126665 
L 101.918616 202.74924 
L 102.951532 202.277458 
L 103.726219 201.837129 
L 104.414829 201.522608 
L 105.017364 200.987922 
L 105.619898 200.95647 
L 105.964203 200.704853 
L 106.222432 200.641949 
L 106.566738 200.484688 
L 107.083195 200.390332 
L 107.68573 199.635481 
L 108.890798 199.132248 
L 109.149027 199.006439 
L 109.493333 198.912083 
L 111.300935 198.188684 
L 111.559164 198.062876 
L 111.731317 197.937068 
L 111.989546 197.811259 
L 112.075622 197.811259 
L 112.333851 197.559642 
L 114.571836 196.741888 
L 114.743988 196.521723 
L 115.088294 196.427366 
L 117.240202 195.73542 
L 117.75666 195.641064 
L 119.39211 194.98057 
L 119.736415 194.760405 
L 120.941484 194.288623 
L 121.199713 193.94265 
L 121.544018 193.848294 
L 122.060476 193.753937 
L 122.318705 193.659581 
L 122.835163 193.565225 
L 123.265545 193.470868 
L 124.040231 193.282156 
L 124.642766 193.187799 
L 125.933911 192.684566 
L 126.106063 192.527305 
L 126.708598 192.495853 
L 126.966827 192.307141 
L 127.052903 192.307141 
L 127.225056 192.181332 
L 127.569361 192.14988 
L 127.82759 192.024072 
L 128.257971 191.961167 
L 128.430124 191.866811 
L 128.774429 191.741003 
L 129.376964 191.615194 
L 129.807345 191.520838 
L 130.237727 191.332125 
L 130.495956 191.206317 
L 130.668109 190.986152 
L 131.701024 190.703083 
L 132.303559 190.608727 
L 134.283314 189.979685 
L 134.713696 189.91678 
L 134.971925 189.853876 
L 135.746612 189.75952 
L 136.004841 189.665164 
L 136.693451 189.570807 
L 137.037757 189.413547 
L 137.209909 189.31919 
L 138.242825 189.036121 
L 138.759283 188.941765 
L 139.53397 188.753052 
L 140.308657 188.658696 
L 140.652962 188.501436 
L 141.341573 188.438531 
L 141.513725 188.312723 
L 141.858031 188.249819 
L 142.11626 188.155462 
L 142.890947 188.061106 
L 144.182092 187.683681 
L 144.526397 187.589325 
L 145.473236 187.337708 
L 146.420076 187.243351 
L 146.678305 187.180447 
L 147.366916 187.023187 
L 148.227679 186.92883 
L 149.002366 186.740118 
L 149.518824 186.645761 
L 150.982121 186.205432 
L 151.584655 186.111076 
L 152.18719 185.985267 
L 152.789724 185.890911 
L 153.392258 185.765102 
L 153.82264 185.670746 
L 154.080869 185.57639 
L 154.76948 185.482033 
L 155.199861 185.293321 
L 155.544166 185.261869 
L 156.232777 185.167512 
L 157.09354 184.947348 
L 157.954304 184.852991 
L 158.556838 184.727183 
L 159.417601 184.632827 
L 160.192288 184.444114 
L 160.62267 184.38121 
L 160.966975 184.255401 
L 161.397357 184.161045 
L 161.913814 184.066689 
L 163.377112 183.972332 
L 163.807494 183.909428 
L 164.410028 183.815072 
L 164.668257 183.752168 
L 165.52902 183.532003 
L 166.131554 183.437647 
L 166.561936 183.374742 
L 166.992318 183.280386 
L 167.594852 183.154578 
L 168.11131 183.091673 
L 168.283463 182.997317 
L 169.230302 182.902961 
L 169.660684 182.840056 
L 170.435371 182.7457 
L 170.779676 182.714248 
L 171.037905 182.619892 
L 171.554363 182.525535 
L 172.070821 182.431179 
L 172.501202 182.368275 
L 173.189813 182.273919 
L 173.706271 182.179562 
L 174.394882 182.085206 
L 174.739187 182.053754 
L 175.59995 181.959398 
L 176.116408 181.865041 
L 177.2354 181.770685 
L 177.751858 181.676329 
L 178.18224 181.644876 
L 178.440469 181.487616 
L 179.129079 181.39326 
L 179.731614 181.267451 
L 180.678453 181.173095 
L 181.108835 181.110191 
L 181.797446 181.047286 
L 182.055675 180.984382 
L 182.572132 180.890026 
L 183.777201 180.79567 
L 184.293659 180.701313 
L 184.896193 180.606957 
L 185.498728 180.481149 
L 186.015185 180.386792 
L 186.61772 180.260984 
L 187.30633 180.166627 
L 187.650636 180.135175 
L 188.683552 180.040819 
L 189.027857 180.009367 
L 189.802544 179.915011 
L 190.232925 179.852106 
L 191.007612 179.75775 
L 191.52407 179.663394 
L 192.126605 179.569037 
L 192.729139 179.443229 
L 193.934207 179.348873 
L 194.278513 179.317421 
L 195.397505 179.223064 
L 195.827887 179.16016 
L 196.430421 179.065804 
L 197.119031 178.908543 
L 197.635489 178.814187 
L 198.065871 178.751283 
L 198.496253 178.688378 
L 198.840558 178.56257 
L 199.701321 178.468214 
L 200.045626 178.436762 
L 200.562084 178.342405 
L 201.164619 178.216597 
L 201.767153 178.122241 
L 202.197535 178.059336 
L 203.23045 177.96498 
L 203.746908 177.870624 
L 204.693748 177.776267 
L 205.038053 177.744815 
L 205.554511 177.650459 
L 206.070969 177.556103 
L 206.931732 177.461746 
L 207.362114 177.398842 
L 208.39503 177.304486 
L 208.911488 177.210129 
L 209.944404 177.115773 
L 210.374785 177.052869 
L 211.149472 176.958513 
L 211.838083 176.801252 
L 212.440617 176.706896 
L 212.957075 176.612539 
L 214.162144 176.518183 
L 214.592525 176.455279 
L 216.055823 176.360923 
L 216.400128 176.235114 
L 217.949502 176.140758 
L 218.46596 176.046402 
L 219.154571 175.952045 
L 219.584952 175.889141 
L 220.445715 175.794785 
L 220.876097 175.73188 
L 221.822937 175.637524 
L 222.253318 175.57462 
L 223.716616 175.480264 
L 224.060921 175.448811 
L 225.007761 175.354455 
L 225.438142 175.291551 
L 226.557135 175.197195 
L 227.073592 175.102838 
L 227.59005 175.008482 
L 227.934356 174.97703 
L 229.139424 174.882674 
L 229.569806 174.819769 
L 230.258416 174.725413 
L 230.688798 174.662509 
L 232.152096 174.568153 
L 232.582477 174.505248 
L 233.443241 174.410892 
L 233.873622 174.347988 
L 234.820462 174.253631 
L 235.078691 174.159275 
L 236.283759 174.064919 
L 236.800217 173.970562 
L 238.435667 173.876206 
L 238.866049 173.813302 
L 239.640736 173.718946 
L 240.071118 173.656041 
L 241.276186 173.561685 
L 241.87872 173.435877 
L 242.481255 173.34152 
L 242.82556 173.310068 
L 243.686323 173.215712 
L 244.030628 173.18426 
L 244.977468 173.089904 
L 245.321773 173.058451 
L 246.268613 172.964095 
L 246.871147 172.838287 
L 248.506597 172.74393 
L 248.850903 172.712478 
L 249.453437 172.618122 
L 249.883819 172.555218 
L 250.916734 172.460861 
L 251.347116 172.397957 
L 252.380032 172.303601 
L 252.724337 172.272149 
L 253.412948 172.177792 
L 253.84333 172.114888 
L 255.220551 172.020532 
L 255.564856 171.98908 
L 256.425619 171.894723 
L 256.856001 171.831819 
L 257.630688 171.737463 
L 258.061069 171.674559 
L 259.007909 171.580202 
L 259.524367 171.485846 
L 261.159817 171.39149 
L 261.590199 171.328586 
L 262.623115 171.234229 
L 262.96742 171.202777 
L 264.688946 171.108421 
L 265.205404 171.014064 
L 266.410473 170.919708 
L 266.926931 170.825352 
L 267.87377 170.730996 
L 268.218076 170.699543 
L 269.164915 170.605187 
L 269.509221 170.573735 
L 270.283908 170.479379 
L 270.714289 170.416474 
L 271.833281 170.322118 
L 272.263663 170.259214 
L 273.554808 170.164858 
L 273.899113 170.133406 
L 274.932029 170.039049 
L 275.362411 169.976145 
L 276.395327 169.913241 
L 276.653556 169.850337 
L 277.600395 169.75598 
L 278.030777 169.693076 
L 279.235845 169.59872 
L 279.666227 169.535815 
L 280.613067 169.441459 
L 281.043448 169.378555 
L 281.904211 169.284199 
L 282.334593 169.221294 
L 283.625738 169.126938 
L 284.05612 169.064034 
L 285.69157 168.969678 
L 286.121951 168.906773 
L 287.757402 168.812417 
L 288.187783 168.749513 
L 288.876394 168.655157 
L 289.306775 168.592252 
L 290.856149 168.497896 
L 291.372607 168.40354 
L 291.889065 168.309183 
L 292.405523 168.214827 
L 294.040973 168.120471 
L 294.557431 168.026114 
L 296.192881 167.931758 
L 296.537187 167.900306 
L 298.000484 167.80595 
L 298.430866 167.743045 
L 299.98024 167.648689 
L 300.410621 167.585785 
L 301.529614 167.491429 
L 301.959995 167.428524 
L 303.595445 167.334168 
L 304.025827 167.271264 
L 305.058743 167.176908 
L 305.403048 167.145455 
L 306.866346 167.051099 
L 307.296727 166.988195 
L 308.587872 166.893839 
L 309.10433 166.799482 
L 310.309399 166.705126 
L 310.653704 166.673674 
L 312.461307 166.579317 
L 312.977765 166.484961 
L 314.096757 166.390605 
L 314.527139 166.327701 
L 315.732207 166.233344 
L 316.162589 166.17044 
L 317.53981 166.076084 
L 317.884115 166.044632 
L 319.433489 165.950275 
L 319.863871 165.887371 
L 321.327168 165.793015 
L 321.671474 165.761563 
L 323.565153 165.667206 
L 323.909458 165.635754 
L 325.544908 165.541398 
L 325.97529 165.478494 
L 327.008206 165.384137 
L 327.438587 165.321233 
L 329.504419 165.226877 
L 329.848724 165.195425 
L 330.967717 165.101068 
L 331.312022 165.069616 
L 332.603167 164.97526 
L 333.033548 164.912356 
L 334.41077 164.818 
L 334.755075 164.786547 
L 336.304449 164.692191 
L 336.73483 164.629287 
L 338.198128 164.534931 
L 338.62851 164.472026 
L 340.522189 164.37767 
L 340.95257 164.314766 
L 342.329792 164.22041 
L 342.760173 164.157505 
L 343.707013 164.063149 
L 344.051318 164.031697 
L 345.342463 163.937341 
L 345.686768 163.905888 
L 348.182982 163.811532 
L 348.613363 163.748628 
L 349.990585 163.654272 
L 350.420966 163.591367 
L 352.056416 163.497011 
L 352.400722 163.465559 
L 353.864019 163.371203 
L 354.294401 163.308298 
L 356.360233 163.213942 
L 356.876691 163.119586 
L 358.167835 163.025229 
L 358.598217 162.962325 
L 360.836201 162.867969 
L 361.266583 162.805065 
L 362.557728 162.710708 
L 363.074186 162.616352 
L 364.795712 162.521996 
L 365.226094 162.459092 
L 366.775468 162.364735 
L 367.119773 162.333283 
L 368.410918 162.238927 
L 368.755223 162.207475 
L 369.357758 162.113118 
L 369.874216 162.018762 
L 371.337513 161.924406 
L 371.767895 161.861502 
L 373.145116 161.767145 
L 373.575498 161.704241 
L 375.297024 161.609885 
L 375.813482 161.515528 
L 376.760322 161.421172 
L 377.190703 161.358268 
L 378.481848 161.263912 
L 378.91223 161.201007 
L 380.805909 161.106651 
L 381.23629 161.043747 
L 382.355283 160.94939 
L 382.699588 160.917938 
L 384.162886 160.823582 
L 384.593267 160.760678 
L 385.281878 160.666321 
L 385.712259 160.603417 
L 386.917328 160.509061 
L 387.34771 160.446157 
L 388.638854 160.3518 
L 388.98316 160.320348 
L 390.016076 160.225992 
L 390.446457 160.163088 
L 391.909755 160.068731 
L 392.25406 160.037279 
L 393.717358 159.942923 
L 394.061663 159.911471 
L 396.041418 159.817115 
L 396.385724 159.785663 
L 398.021174 159.691306 
L 398.365479 159.659854 
L 399.312319 159.565498 
L 399.7427 159.502594 
L 401.636379 159.408237 
L 402.066761 159.345333 
L 403.874364 159.250977 
L 404.218669 159.219525 
L 405.337661 159.125168 
L 405.681967 159.093716 
L 407.145264 158.99936 
L 407.48957 158.967908 
L 408.866791 158.873551 
L 409.211096 158.842099 
L 410.502241 158.747743 
L 410.932623 158.684839 
L 412.826302 158.590482 
L 413.170607 158.55903 
L 414.806057 158.464674 
L 415.150362 158.433222 
L 416.269355 158.338866 
L 416.61366 158.307414 
L 417.216194 158.213057 
L 417.646576 158.150153 
L 418.679492 158.055797 
L 419.023797 158.024345 
L 419.88456 157.929988 
L 420.228866 157.898536 
L 421.261782 157.80418 
L 421.606087 157.772728 
L 422.380774 157.678371 
L 422.897232 157.584015 
L 424.704835 157.489659 
L 425.135216 157.426755 
L 427.459277 157.332398 
L 427.889659 157.269494 
L 428.836498 157.175138 
L 429.180803 157.143686 
L 430.385872 157.049329 
L 430.90233 156.954973 
L 431.84917 156.860617 
L 432.279551 156.797712 
L 433.398543 156.703356 
L 433.742849 156.671904 
L 435.378299 156.577548 
L 435.80868 156.514643 
L 437.616283 156.420287 
L 437.960589 156.388835 
L 439.079581 156.294479 
L 439.509962 156.231574 
L 440.887184 156.137218 
L 441.403642 156.042862 
L 443.125168 155.948506 
L 443.641626 155.854149 
L 445.018847 155.759793 
L 445.363153 155.728341 
L 446.137839 155.633984 
L 446.482145 155.602532 
L 448.289748 155.508176 
L 448.720129 155.445272 
L 450.527732 155.350916 
L 450.872037 155.319463 
L 452.335335 155.225107 
L 452.851793 155.130751 
L 454.573319 155.036394 
L 454.917625 155.004942 
L 455.950541 154.910586 
L 456.294846 154.879134 
L 457.499914 154.784778 
L 457.84422 154.753325 
L 459.823975 154.658969 
L 460.082204 154.596065 
L 460.512586 154.533161 
L 461.717654 154.438804 
L 462.148036 154.3759 
L 463.094875 154.281544 
L 463.439181 154.250092 
L 464.816402 154.155735 
L 465.246784 154.092831 
L 466.537928 153.998475 
L 466.882234 153.967023 
L 467.570844 153.872667 
L 467.91515 153.841214 
L 469.378447 153.746858 
L 469.722753 153.715406 
L 471.013897 153.62105 
L 471.358203 153.589598 
L 472.907577 153.495241 
L 473.337958 153.432337 
L 474.715179 153.337981 
L 475.059485 153.306529 
L 476.35063 153.212172 
L 476.694935 153.18072 
L 477.297469 153.086364 
L 477.727851 153.02346 
L 478.846843 152.929103 
L 479.363301 152.834747 
L 480.396217 152.740391 
L 480.740522 152.708939 
L 481.515209 152.614582 
L 481.945591 152.551678 
L 483.150659 152.457322 
L 483.581041 152.394418 
L 485.044338 152.300061 
L 485.388644 152.268609 
L 486.335483 152.174253 
L 486.679789 152.142801 
L 487.798781 152.048444 
L 488.315239 151.954088 
L 489.606384 151.859732 
L 490.122842 151.765375 
L 491.500063 151.671019 
L 491.844368 151.639567 
L 493.049437 151.545211 
L 493.479818 151.482306 
L 494.684887 151.38795 
L 495.115268 151.325046 
L 496.148184 151.23069 
L 496.49249 151.199237 
L 497.869711 151.104881 
L 498.214016 151.073429 
L 499.246932 150.979073 
L 499.591237 150.947621 
L 500.71023 150.884716 
L 500.968458 150.79036 
L 502.259603 150.696004 
L 502.689985 150.6331 
L 504.411511 150.538743 
L 504.927969 150.444387 
L 505.788733 150.350031 
L 506.391267 150.224222 
L 507.424183 150.129866 
L 507.768488 150.098414 
L 508.543175 150.03551 
L 508.801404 149.972605 
L 509.145709 149.941153 
L 510.78116 149.846797 
L 511.211541 149.783893 
L 512.41661 149.689536 
L 512.846991 149.626632 
L 513.277373 149.532276 
L 513.707755 149.469372 
L 515.343205 149.375015 
L 515.68751 149.343563 
L 516.462197 149.249207 
L 516.892579 149.186303 
L 518.355876 149.091946 
L 518.786258 149.029042 
L 519.991326 148.934686 
L 520.421708 148.871782 
L 521.196395 148.777425 
L 521.5407 148.745973 
L 523.348303 148.651617 
L 524.036914 148.494356 
L 524.983753 148.4 
L 525.500211 148.305644 
L 526.188822 148.211287 
L 526.619203 148.148383 
L 527.910348 148.054027 
L 528.426806 147.959671 
L 529.545798 147.865314 
L 529.890104 147.833862 
L 530.578714 147.739506 
L 531.009096 147.676602 
L 532.386317 147.582245 
L 532.730622 147.550793 
L 533.677462 147.456437 
L 534.19392 147.36208 
L 535.054683 147.267724 
L 535.398988 147.236272 
L 536.173675 147.141916 
L 536.77621 147.016107 
L 537.550897 146.921751 
L 537.981278 146.858847 
L 538.755965 146.76449 
L 539.186347 146.701586 
L 539.702805 146.638682 
L 539.961034 146.575778 
L 540.821797 146.481422 
L 541.252179 146.418517 
L 543.404087 146.324161 
L 543.834468 146.261257 
L 544.695232 146.1669 
L 545.297766 146.041092 
L 546.330682 145.946736 
L 546.933216 145.820927 
L 547.880056 145.726571 
L 548.568666 145.56931 
L 549.429429 145.474954 
L 549.773735 145.443502 
L 550.720574 145.349146 
L 551.06488 145.317694 
L 552.183872 145.223337 
L 552.958559 145.034625 
L 553.38894 144.940268 
L 553.819322 144.877364 
L 554.680085 144.783008 
L 555.110467 144.720104 
L 556.143383 144.625747 
L 556.659841 144.531391 
L 557.262375 144.437035 
L 557.778833 144.342678 
L 558.55352 144.248322 
L 558.897825 144.21687 
L 559.672512 144.122514 
L 560.447199 143.933801 
L 561.049733 143.839445 
L 561.82442 143.650732 
L 562.513031 143.556376 
L 562.943412 143.493471 
L 563.373794 143.399115 
L 563.890252 143.304759 
L 564.751015 143.210402 
L 565.439626 143.053142 
L 566.386465 142.958786 
L 566.816847 142.895881 
L 567.763687 142.801525 
L 568.194068 142.738621 
L 568.710526 142.644265 
L 569.140908 142.58136 
L 569.915595 142.487004 
L 570.2599 142.455552 
L 570.690282 142.392648 
L 570.948511 142.329743 
L 571.637121 142.235387 
L 572.153579 142.141031 
L 572.583961 142.046675 
L 572.84219 141.98377 
L 573.444724 141.889414 
L 574.305487 141.669249 
L 575.338403 141.574893 
L 575.940938 141.449084 
L 576.629548 141.354728 
L 576.973853 141.323276 
L 578.351075 141.22892 
L 578.781456 141.166016 
L 579.556143 141.071659 
L 580.072601 140.977303 
L 580.675135 140.882947 
L 581.191593 140.78859 
L 581.794128 140.694234 
L 582.482738 140.536973 
L 582.827044 140.505521 
L 582.999196 140.411165 
L 583.60173 140.316809 
L 583.859959 140.191 
L 584.806799 140.096644 
L 585.49541 139.939383 
L 586.18402 139.845027 
L 586.958707 139.656314 
L 587.561241 139.561958 
L 588.335928 139.373245 
L 589.282768 139.278889 
L 589.799226 139.184533 
L 590.315684 139.121629 
L 590.573913 139.027272 
L 591.3486 138.932916 
L 591.951134 138.807108 
L 592.897974 138.712751 
L 593.586584 138.555491 
L 594.361271 138.461134 
L 594.877729 138.366778 
L 595.308111 138.272422 
L 595.824569 138.178065 
L 596.341027 138.083709 
L 597.632171 137.706284 
L 598.062553 137.611928 
L 598.320782 137.549023 
L 599.181545 137.328859 
L 599.956232 137.234502 
L 600.558766 137.108694 
L 600.989148 137.04579 
L 601.333453 136.888529 
L 601.677759 136.825625 
L 602.022064 136.699816 
L 603.05498 136.60546 
L 603.829667 136.416747 
L 604.173972 136.322391 
L 606.239804 135.661897 
L 606.756262 135.567541 
L 607.444872 135.41028 
L 607.96133 135.315924 
L 609.252475 134.938498 
L 609.596781 134.875594 
L 609.941086 134.718334 
L 610.371468 134.623977 
L 610.801849 134.561073 
L 611.318307 134.466717 
L 611.920841 134.340908 
L 612.437299 134.246552 
L 614.933513 133.428797 
L 615.191742 133.365893 
L 615.449971 133.240085 
L 617.257573 132.673947 
L 617.860108 132.57959 
L 618.118337 132.265069 
L 618.893024 132.076357 
L 619.581634 132.013453 
L 619.839863 131.887644 
L 620.528474 131.730384 
L 620.61455 131.730384 
L 620.958855 131.415863 
L 621.044932 131.415863 
L 621.389237 131.101341 
L 621.905695 130.849725 
L 622.422153 130.755368 
L 622.680382 130.661012 
L 623.282916 130.346491 
L 623.627222 130.18923 
L 624.057603 130.094874 
L 625.176595 129.59164 
L 625.520901 129.371476 
L 626.037359 129.277119 
L 627.328504 128.742434 
L 627.500656 128.616625 
L 629.652564 127.735966 
L 630.169022 127.452897 
L 630.68548 127.389993 
L 630.943709 127.327089 
L 635.591831 125.723031 
L 636.022212 125.628675 
L 636.53867 125.534319 
L 637.399434 125.439962 
L 637.829815 125.219798 
L 638.17412 124.999633 
L 638.604502 124.905277 
L 640.584258 124.276234 
L 641.014639 124.181878 
L 641.272868 124.087522 
L 641.789326 123.993165 
L 643.855158 123.143959 
L 644.457692 122.797985 
L 644.97415 122.703629 
L 647.039982 122.043135 
L 647.470364 121.948779 
L 647.814669 121.82297 
L 648.503279 121.728614 
L 649.364043 121.508449 
L 649.708348 121.414093 
L 650.13873 121.22538 
L 650.483035 120.910859 
L 651.257722 120.722146 
L 651.602027 120.62779 
L 652.376714 120.061652 
L 652.548867 119.841487 
L 652.634943 119.841487 
L 652.893172 119.589871 
L 653.40963 119.495514 
L 654.786851 118.929376 
L 655.217233 118.614855 
L 655.647614 118.520499 
L 657.110912 118.080169 
L 657.369141 117.985813 
L 657.62737 117.922909 
L 658.746362 117.419675 
L 659.090667 117.19951 
L 659.348896 117.168058 
L 659.521049 117.010798 
L 660.20966 116.916442 
L 662.189415 116.287399 
L 662.705873 116.224495 
L 663.050178 116.098687 
L 663.394484 116.035783 
L 663.652713 115.941426 
L 664.4274 115.84707 
L 665.890697 115.280932 
L 666.06285 115.155124 
L 666.579308 115.060767 
L 666.75146 114.872055 
L 667.181842 114.683342 
L 667.440071 114.620438 
L 667.6983 114.494629 
L 668.214758 114.274465 
L 668.386911 114.148656 
L 669.850208 113.551066 
L 670.194513 113.267997 
L 670.624895 113.173641 
L 670.883124 113.079285 
L 671.141353 112.827668 
L 672.260345 112.324434 
L 672.432498 112.104269 
L 672.60465 112.009913 
L 672.776803 111.852652 
L 673.55149 111.475227 
L 673.723643 111.412323 
L 673.981872 110.909089 
L 674.154024 110.688924 
L 674.756559 110.594568 
L 675.18694 110.342951 
L 675.789474 110.02843 
L 676.219856 109.776813 
L 676.736314 109.367936 
L 677.080619 109.242128 
L 677.511001 109.084867 
L 677.76923 108.801798 
L 677.855306 108.801798 
L 678.113535 108.23566 
L 678.71607 107.512262 
L 678.974298 106.914672 
L 679.060375 106.88322 
L 679.318604 105.939656 
L 679.662909 103.077515 
L 679.662909 103.077515 
" clip-path="url(#pbb1e20869e)" style="fill: none; stroke: #9e9e9e; stroke-width: 0.8; stroke-linecap: square"/>
   </g>
   <g id="line2d_16">
    <path d="M 88.921091 228.156398 
L 89.093244 227.954154 
L 89.523625 224.949385 
L 89.695778 224.804925 
L 90.040083 223.042512 
L 90.126159 222.984728 
L 90.298312 222.233536 
L 90.384388 222.175752 
L 90.556541 221.742372 
L 90.728694 221.684588 
L 90.986923 221.077855 
L 91.072999 221.020071 
L 91.331228 220.500015 
L 91.675533 220.182203 
L 91.847686 219.864391 
L 92.105915 219.777715 
L 92.191991 219.777715 
L 92.45022 219.517687 
L 92.536297 219.517687 
L 92.794526 219.142091 
L 93.138831 218.679818 
L 93.483136 217.813058 
L 93.569212 217.784166 
L 94.08567 216.946298 
L 94.257823 216.888514 
L 94.429976 216.54181 
L 95.548968 215.212777 
L 96.840113 214.230449 
L 97.098342 213.883744 
L 97.356571 213.82596 
L 97.528723 213.652608 
L 98.131258 213.190336 
L 98.389487 212.872524 
L 98.647716 212.785848 
L 98.733792 212.728064 
L 98.905945 212.52582 
L 99.508479 212.2369 
L 100.369242 211.832412 
L 100.627471 211.687952 
L 100.799624 211.65906 
L 100.971776 211.399031 
L 101.230005 211.254571 
L 101.574311 210.965651 
L 102.607227 210.561163 
L 102.865456 210.358919 
L 103.209761 210.127783 
L 103.381914 210.041107 
L 103.554066 209.809971 
L 103.640142 209.781079 
L 103.898371 209.463267 
L 103.984448 209.405483 
L 104.1566 209.145455 
L 104.242677 209.145455 
L 104.414829 209.029886 
L 105.619898 208.538722 
L 105.878127 208.423154 
L 106.136356 208.336478 
L 106.394585 208.278694 
L 106.997119 207.874206 
L 107.169272 207.64307 
L 107.341424 207.556394 
L 109.062951 206.891878 
L 109.32118 206.77631 
L 111.559164 205.938441 
L 111.817393 205.793981 
L 114.743988 204.927221 
L 115.002217 204.869437 
L 115.260446 204.811653 
L 117.584507 204.147137 
L 117.842736 204.06046 
L 120.252873 203.135916 
L 120.855407 202.846996 
L 121.371865 202.76032 
L 121.544018 202.673644 
L 121.802247 202.61586 
L 122.232629 202.442508 
L 123.179468 202.240264 
L 123.782003 202.153588 
L 125.417453 201.720208 
L 125.847834 201.633532 
L 126.622521 201.489071 
L 127.225056 201.402395 
L 127.569361 201.257935 
L 127.913666 201.200151 
L 128.344048 201.026799 
L 128.602277 200.824555 
L 128.946582 200.708987 
L 129.549116 200.622311 
L 130.237727 200.564527 
L 130.582032 200.448959 
L 130.926337 200.362283 
L 132.647864 199.900011 
L 133.422551 199.813335 
L 134.197238 199.668875 
L 134.971925 199.582199 
L 137.037757 199.004358 
L 137.554215 198.917682 
L 138.156749 198.831006 
L 138.931436 198.74433 
L 140.136504 198.45541 
L 140.825115 198.368734 
L 141.858031 198.137598 
L 142.288412 198.050922 
L 142.546641 197.964246 
L 143.149176 197.87757 
L 144.009939 197.704218 
L 144.956778 197.617542 
L 146.161847 197.328622 
L 146.764381 197.241946 
L 147.883374 196.981918 
L 148.313755 196.895242 
L 149.002366 196.779674 
L 149.777053 196.692998 
L 151.670732 196.172941 
L 152.18719 196.086265 
L 153.047953 195.912913 
L 153.82264 195.826237 
L 154.941632 195.566209 
L 155.802395 195.479533 
L 156.40493 195.392857 
L 156.921388 195.306181 
L 157.523922 195.219505 
L 158.298609 195.132829 
L 158.642914 195.017261 
L 159.417601 194.872801 
L 159.761906 194.815017 
L 160.020135 194.728341 
L 160.450517 194.641665 
L 160.966975 194.583881 
L 161.913814 194.497205 
L 162.516349 194.410529 
L 162.94673 194.323853 
L 164.237875 194.00604 
L 164.754333 193.919364 
L 165.356867 193.832688 
L 166.47586 193.746012 
L 167.16447 193.630444 
L 167.680928 193.543768 
L 168.197386 193.485984 
L 169.058149 193.399308 
L 169.74676 193.28374 
L 170.607523 193.197064 
L 171.210058 193.110388 
L 171.984744 193.023712 
L 172.587279 192.937036 
L 173.534118 192.85036 
L 174.308805 192.7059 
L 175.255645 192.619224 
L 175.59995 192.503656 
L 176.718942 192.41698 
L 177.407553 192.301412 
L 178.18224 192.214736 
L 178.87085 192.099168 
L 179.81769 192.012492 
L 180.420224 191.925816 
L 181.022759 191.83914 
L 181.797446 191.694679 
L 182.830361 191.608003 
L 183.432896 191.521327 
L 184.465812 191.434651 
L 184.98227 191.376867 
L 186.101262 191.290191 
L 186.61772 191.232407 
L 187.392407 191.145731 
L 187.994941 191.059055 
L 189.544315 190.972379 
L 190.146849 190.885703 
L 191.696223 190.799027 
L 192.212681 190.741243 
L 192.987368 190.654567 
L 193.589902 190.567891 
L 194.278513 190.481215 
L 194.794971 190.423431 
L 195.655734 190.336755 
L 196.086115 190.307863 
L 197.032955 190.221187 
L 197.463337 190.192295 
L 198.840558 190.105619 
L 199.443092 190.018943 
L 200.303855 189.932267 
L 200.992466 189.816699 
L 201.681077 189.730023 
L 202.283611 189.643347 
L 203.144374 189.556671 
L 203.660832 189.498887 
L 204.607672 189.412211 
L 205.210206 189.325535 
L 206.243122 189.238859 
L 207.017809 189.094398 
L 208.050725 189.007722 
L 208.653259 188.921046 
L 210.03048 188.83437 
L 210.288709 188.747694 
L 211.579854 188.661018 
L 212.268465 188.54545 
L 213.645686 188.458774 
L 214.24822 188.372098 
L 215.453289 188.314314 
L 215.711518 188.25653 
L 216.486204 188.11207 
L 217.346968 188.025394 
L 217.863426 187.96761 
L 219.154571 187.880934 
L 219.671029 187.82315 
L 220.359639 187.736474 
L 220.962173 187.649798 
L 222.081166 187.563122 
L 222.597624 187.505338 
L 223.286234 187.418662 
L 223.802692 187.360878 
L 224.921684 187.274202 
L 225.524219 187.187526 
L 226.815363 187.10085 
L 227.503974 186.985282 
L 228.622966 186.898606 
L 229.311577 186.783038 
L 230.258416 186.696361 
L 230.774874 186.638577 
L 231.80779 186.551901 
L 232.324248 186.494117 
L 233.615393 186.407441 
L 234.131851 186.349657 
L 235.250843 186.291873 
L 235.509072 186.234089 
L 236.628065 186.147413 
L 237.230599 186.060737 
L 238.349591 185.974061 
L 238.866049 185.916277 
L 239.812889 185.829601 
L 240.329347 185.771817 
L 241.706568 185.685141 
L 242.223026 185.627357 
L 243.169865 185.540681 
L 243.686323 185.482897 
L 245.149621 185.396221 
L 245.580002 185.367329 
L 246.612918 185.280653 
L 247.129376 185.222869 
L 248.248368 185.136193 
L 248.764826 185.078409 
L 250.142048 184.991733 
L 250.744582 184.905057 
L 252.293956 184.818381 
L 252.552185 184.731705 
L 253.585101 184.645029 
L 253.929406 184.529461 
L 254.53194 184.442785 
L 255.134474 184.356109 
L 256.942077 184.269432 
L 257.458535 184.211648 
L 259.180062 184.124972 
L 259.782596 184.038296 
L 260.901588 183.95162 
L 261.418046 183.893836 
L 263.569954 183.80716 
L 264.086412 183.749376 
L 265.033252 183.6627 
L 265.54971 183.604916 
L 266.754778 183.51824 
L 267.271236 183.460456 
L 268.476305 183.37378 
L 269.078839 183.287104 
L 270.369984 183.200428 
L 270.800366 183.171536 
L 272.09151 183.08486 
L 272.607968 183.027076 
L 273.899113 182.9404 
L 274.415571 182.882616 
L 275.792792 182.79594 
L 276.30925 182.738156 
L 277.083937 182.65148 
L 277.686472 182.564804 
L 278.719387 182.478128 
L 279.235845 182.420344 
L 280.182685 182.333668 
L 280.699143 182.275884 
L 281.732059 182.189208 
L 282.248517 182.131424 
L 283.195356 182.044748 
L 283.711814 181.986964 
L 284.74473 181.900288 
L 285.261188 181.842504 
L 286.552333 181.755827 
L 286.982715 181.726935 
L 288.618165 181.640259 
L 289.048546 181.611367 
L 290.425768 181.524691 
L 290.942226 181.466907 
L 292.577676 181.380231 
L 293.008057 181.351339 
L 294.729584 181.264663 
L 295.332118 181.177987 
L 297.39795 181.091311 
L 297.828332 181.062419 
L 298.775171 180.975743 
L 299.205553 180.946851 
L 300.754927 180.860175 
L 301.271385 180.802391 
L 302.734682 180.715715 
L 303.337216 180.629039 
L 304.111903 180.542363 
L 304.542285 180.513471 
L 306.263811 180.426795 
L 306.780269 180.369011 
L 308.071414 180.282335 
L 308.501796 180.253443 
L 309.792941 180.166767 
L 310.223322 180.137875 
L 311.772696 180.051199 
L 312.289154 179.993415 
L 313.408146 179.906739 
L 313.838528 179.877847 
L 314.95752 179.791171 
L 315.646131 179.675603 
L 317.453734 179.588927 
L 318.056268 179.502251 
L 319.605642 179.415575 
L 320.036023 179.386683 
L 322.187932 179.300006 
L 322.618313 179.271114 
L 323.995534 179.184438 
L 324.511992 179.126654 
L 326.749977 179.039978 
L 327.438587 178.92441 
L 328.815809 178.837734 
L 329.418343 178.751058 
L 330.967717 178.664382 
L 331.398098 178.63549 
L 332.517091 178.548814 
L 333.033548 178.49103 
L 334.238617 178.404354 
L 334.668999 178.375462 
L 335.960144 178.288786 
L 336.476601 178.231002 
L 337.853823 178.144326 
L 338.370281 178.086542 
L 339.919654 177.999866 
L 340.350036 177.970974 
L 341.813334 177.884298 
L 342.243715 177.855406 
L 343.276631 177.76873 
L 343.879165 177.682054 
L 346.203226 177.595378 
L 346.719684 177.537594 
L 348.269058 177.450918 
L 348.785516 177.393134 
L 350.076661 177.306458 
L 350.593119 177.248674 
L 352.142493 177.161998 
L 352.658951 177.104214 
L 354.380477 177.017538 
L 354.810859 176.988646 
L 355.843775 176.90197 
L 356.360233 176.844185 
L 357.651377 176.757509 
L 358.167835 176.699725 
L 359.028599 176.613049 
L 359.545057 176.555265 
L 361.008354 176.468589 
L 361.438736 176.439697 
L 362.385575 176.353021 
L 362.815957 176.324129 
L 364.021025 176.237453 
L 364.451407 176.208561 
L 365.484323 176.121885 
L 366.000781 176.064101 
L 367.808384 175.977425 
L 368.238765 175.948533 
L 369.788139 175.861857 
L 370.304597 175.804073 
L 371.509666 175.717397 
L 372.026124 175.659613 
L 374.264108 175.572937 
L 374.780566 175.515153 
L 376.502093 175.428477 
L 376.932474 175.399585 
L 378.567924 175.312909 
L 378.998306 175.284017 
L 380.633756 175.197341 
L 381.064138 175.168449 
L 382.957817 175.081773 
L 383.560351 174.995097 
L 385.798336 174.908421 
L 386.40087 174.821745 
L 387.864167 174.735069 
L 388.294549 174.706177 
L 389.155312 174.619501 
L 389.67177 174.561717 
L 391.135068 174.475041 
L 391.565449 174.446149 
L 393.028747 174.359472 
L 393.545205 174.301688 
L 395.611037 174.215012 
L 396.127495 174.157228 
L 397.762945 174.070552 
L 398.279403 174.012768 
L 399.828777 173.926092 
L 400.431311 173.839416 
L 401.378151 173.781632 
L 401.636379 173.723848 
L 402.497143 173.637172 
L 403.013601 173.579388 
L 404.132593 173.492712 
L 404.649051 173.434928 
L 405.854119 173.348252 
L 406.284501 173.31936 
L 407.661722 173.232684 
L 408.17818 173.1749 
L 409.211096 173.088224 
L 409.727554 173.03044 
L 411.363004 172.943764 
L 411.879462 172.88598 
L 413.687065 172.799304 
L 414.289599 172.712628 
L 415.580744 172.625952 
L 416.011126 172.59706 
L 417.732652 172.510384 
L 418.163034 172.481492 
L 419.282026 172.394816 
L 419.798484 172.337032 
L 420.917476 172.250356 
L 421.433934 172.192572 
L 422.897232 172.105896 
L 423.41369 172.048112 
L 424.876987 171.961436 
L 425.565598 171.845867 
L 426.426361 171.759191 
L 426.942819 171.701407 
L 428.32004 171.614731 
L 428.750422 171.585839 
L 429.869414 171.499163 
L 430.385872 171.441379 
L 431.504864 171.354703 
L 432.021322 171.296919 
L 433.656772 171.210243 
L 434.087154 171.181351 
L 435.292223 171.094675 
L 435.80868 171.036891 
L 436.841596 170.950215 
L 437.271978 170.921323 
L 438.563123 170.834647 
L 439.079581 170.776863 
L 439.940344 170.690187 
L 440.542878 170.603511 
L 441.9201 170.516835 
L 442.436558 170.459051 
L 443.469473 170.372375 
L 443.985931 170.314591 
L 445.277076 170.227915 
L 445.707458 170.199023 
L 446.654297 170.112347 
L 447.084679 170.083455 
L 448.547977 169.996779 
L 449.150511 169.910103 
L 450.355579 169.823427 
L 451.04419 169.707859 
L 452.67964 169.621183 
L 453.282174 169.534507 
L 454.659396 169.447831 
L 455.089777 169.418938 
L 456.20877 169.332262 
L 456.89738 169.216694 
L 458.618907 169.130018 
L 459.221441 169.043342 
L 460.770815 168.956666 
L 461.287273 168.898882 
L 462.320189 168.812206 
L 462.922723 168.72553 
L 464.213868 168.638854 
L 464.730326 168.58107 
L 466.451852 168.494394 
L 466.96831 168.43661 
L 467.484768 168.378826 
L 467.742997 168.321042 
L 468.431608 168.234366 
L 468.948066 168.176582 
L 469.980981 168.089906 
L 470.583516 168.00323 
L 471.272126 167.916554 
L 471.788584 167.85877 
L 472.907577 167.772094 
L 473.424034 167.71431 
L 474.370874 167.627634 
L 474.887332 167.56985 
L 476.006324 167.483174 
L 476.608859 167.396498 
L 477.555698 167.309822 
L 478.158232 167.223146 
L 479.277225 167.13647 
L 479.879759 167.049794 
L 481.773438 166.963118 
L 482.462049 166.847549 
L 483.581041 166.760873 
L 484.183575 166.674197 
L 485.044338 166.587521 
L 485.646873 166.500845 
L 487.024094 166.414169 
L 487.540552 166.356385 
L 488.229162 166.269709 
L 488.74562 166.211925 
L 489.606384 166.125249 
L 490.122842 166.067465 
L 490.725376 165.980789 
L 491.413986 165.865221 
L 492.791208 165.778545 
L 493.393742 165.691869 
L 494.857039 165.605193 
L 495.459574 165.518517 
L 496.922871 165.431841 
L 497.525405 165.345165 
L 498.902627 165.258489 
L 499.333008 165.229597 
L 500.193772 165.142921 
L 500.71023 165.085137 
L 501.570993 165.027353 
L 501.829222 164.969569 
L 502.776061 164.882893 
L 503.292519 164.825109 
L 504.239359 164.738433 
L 504.755817 164.680649 
L 505.702656 164.593973 
L 506.305191 164.507297 
L 507.165954 164.42062 
L 507.940641 164.27616 
L 509.059633 164.189484 
L 509.662167 164.102808 
L 510.953312 164.016132 
L 511.641923 163.900564 
L 513.019144 163.813888 
L 513.879907 163.640536 
L 514.912823 163.55386 
L 515.515357 163.467184 
L 516.720426 163.380508 
L 517.409037 163.26494 
L 517.925494 163.178264 
L 518.528029 163.091588 
L 519.302716 163.004912 
L 519.991326 162.889344 
L 521.110319 162.802668 
L 521.712853 162.715992 
L 522.057158 162.629316 
L 522.917921 162.455964 
L 524.467295 162.369288 
L 525.241982 162.224828 
L 526.016669 162.138152 
L 526.791356 161.993691 
L 527.910348 161.907015 
L 528.685035 161.762555 
L 529.201493 161.675879 
L 530.664791 161.300283 
L 531.181249 161.213607 
L 531.697706 161.155823 
L 532.042012 161.098039 
L 532.300241 161.040255 
L 533.161004 160.866903 
L 533.935691 160.780227 
L 534.538225 160.693551 
L 535.657217 160.606875 
L 535.915446 160.491307 
L 536.690133 160.404631 
L 537.206591 160.346847 
L 537.809126 160.260171 
L 538.669889 160.086819 
L 539.014194 160.000143 
L 539.616728 159.913467 
L 540.305339 159.826791 
L 540.735721 159.797899 
L 540.99395 159.740115 
L 541.338255 159.624547 
L 542.199018 159.537871 
L 542.801552 159.451194 
L 543.404087 159.364518 
L 543.920545 159.306734 
L 544.350926 159.24895 
L 544.609155 159.191166 
L 545.642071 158.96003 
L 546.674987 158.873354 
L 547.966132 158.555542 
L 548.912971 158.468866 
L 549.601582 158.353298 
L 550.290193 158.266622 
L 550.892727 158.179946 
L 551.839567 158.09327 
L 552.528177 157.977702 
L 553.475017 157.891026 
L 554.680085 157.602106 
L 555.110467 157.544322 
L 555.454772 157.428754 
L 555.97123 157.37097 
L 556.315535 157.255402 
L 556.659841 157.168726 
L 557.434528 157.024265 
L 557.778833 156.966481 
L 557.950986 156.879805 
L 558.55352 156.793129 
L 559.069978 156.735345 
L 559.500359 156.648669 
L 560.447199 156.446425 
L 560.791504 156.388641 
L 561.049733 156.330857 
L 565.267473 155.030717 
L 565.870007 154.944041 
L 566.128236 154.828473 
L 568.107992 154.106172 
L 568.280145 153.93282 
L 568.968755 153.817252 
L 569.399137 153.730576 
L 570.001671 153.6439 
L 570.432053 153.557224 
L 570.776358 153.35498 
L 571.034587 153.268304 
L 571.20674 152.979384 
L 571.809274 152.719356 
L 571.981427 152.546004 
L 573.616877 151.968163 
L 573.875106 151.737027 
L 575.252327 151.188079 
L 575.510556 151.014727 
L 575.940938 150.812483 
L 576.11309 150.639131 
L 576.371319 150.581347 
L 576.629548 150.436887 
L 577.404235 150.147967 
L 577.662464 149.714587 
L 578.092846 149.541234 
L 578.351075 149.078962 
L 579.125762 148.703366 
L 579.383991 148.501122 
L 579.900448 148.241094 
L 580.072601 148.125526 
L 581.105517 147.692146 
L 581.363746 147.31655 
L 581.96628 146.652033 
L 582.310586 146.507573 
L 582.568815 146.247545 
L 582.91312 145.756381 
L 582.999196 145.611921 
L 583.171349 145.091865 
L 583.429578 144.774053 
L 584.032112 144.45624 
L 584.290341 144.16732 
L 584.462494 143.647264 
L 584.54857 143.647264 
L 584.892875 143.358344 
L 585.409333 142.838288 
L 585.667562 141.942635 
L 585.839715 141.624823 
L 586.097944 141.422579 
L 586.18402 141.191443 
L 586.356173 140.440251 
L 586.528325 139.833519 
L 586.872631 139.197894 
L 587.303012 136.366477 
L 587.389089 136.337585 
L 587.647318 132.234919 
L 587.905547 128.710094 
L 587.905547 128.710094 
" clip-path="url(#pbb1e20869e)" style="fill: none; stroke: #1f77b4; stroke-width: 0.8; stroke-linecap: square"/>
   </g>
   <g id="patch_3">
    <path d="M 59.384 282.04 
L 59.384 14.76 
" style="fill: none; stroke: #000000; stroke-width: 0.8; stroke-linejoin: miter; stroke-linecap: square"/>
   </g>
   <g id="patch_4">
    <path d="M 59.384 282.04 
L 709.2 282.04 
" style="fill: none; stroke: #000000; stroke-width: 0.8; stroke-linejoin: miter; stroke-linecap: square"/>
   </g>
   <g id="legend_1">
    <g id="line2d_17">
     <path d="M 451.601562 252.782188 
L 461.601562 252.782188 
L 471.601562 252.782188 
" style="fill: none; stroke: #9e9e9e; stroke-width: 0.8; stroke-linecap: square"/>
    </g>
    <g id="text_17">
     <!-- ProCan-DepMapSanger 2022 (n=6864 runs) -->
     <g transform="translate(479.601562 256.282188) scale(0.1 -0.1)">
      <defs>
       <path id="DejaVuSans-50" d="M 1259 4147 
L 1259 2394 
L 2053 2394 
Q 2494 2394 2734 2622 
Q 2975 2850 2975 3272 
Q 2975 3691 2734 3919 
Q 2494 4147 2053 4147 
L 1259 4147 
z
M 628 4666 
L 2053 4666 
Q 2838 4666 3239 4311 
Q 3641 3956 3641 3272 
Q 3641 2581 3239 2228 
Q 2838 1875 2053 1875 
L 1259 1875 
L 1259 0 
L 628 0 
L 628 4666 
z
" transform="scale(0.015625)"/>
       <path id="DejaVuSans-43" d="M 4122 4306 
L 4122 3641 
Q 3803 3938 3442 4084 
Q 3081 4231 2675 4231 
Q 1875 4231 1450 3742 
Q 1025 3253 1025 2328 
Q 1025 1406 1450 917 
Q 1875 428 2675 428 
Q 3081 428 3442 575 
Q 3803 722 4122 1019 
L 4122 359 
Q 3791 134 3420 21 
Q 3050 -91 2638 -91 
Q 1578 -91 968 557 
Q 359 1206 359 2328 
Q 359 3453 968 4101 
Q 1578 4750 2638 4750 
Q 3056 4750 3426 4639 
Q 3797 4528 4122 4306 
z
" transform="scale(0.015625)"/>
       <path id="DejaVuSans-2d" d="M 313 2009 
L 1997 2009 
L 1997 1497 
L 313 1497 
L 313 2009 
z
" transform="scale(0.015625)"/>
       <path id="DejaVuSans-44" d="M 1259 4147 
L 1259 519 
L 2022 519 
Q 2988 519 3436 956 
Q 3884 1394 3884 2338 
Q 3884 3275 3436 3711 
Q 2988 4147 2022 4147 
L 1259 4147 
z
M 628 4666 
L 1925 4666 
Q 3281 4666 3915 4102 
Q 4550 3538 4550 2338 
Q 4550 1131 3912 565 
Q 3275 0 1925 0 
L 628 0 
L 628 4666 
z
" transform="scale(0.015625)"/>
       <path id="DejaVuSans-4d" d="M 628 4666 
L 1569 4666 
L 2759 1491 
L 3956 4666 
L 4897 4666 
L 4897 0 
L 4281 0 
L 4281 4097 
L 3078 897 
L 2444 897 
L 1241 4097 
L 1241 0 
L 628 0 
L 628 4666 
z
" transform="scale(0.015625)"/>
       <path id="DejaVuSans-53" d="M 3425 4513 
L 3425 3897 
Q 3066 4069 2747 4153 
Q 2428 4238 2131 4238 
Q 1616 4238 1336 4038 
Q 1056 3838 1056 3469 
Q 1056 3159 1242 3001 
Q 1428 2844 1947 2747 
L 2328 2669 
Q 3034 2534 3370 2195 
Q 3706 1856 3706 1288 
Q 3706 609 3251 259 
Q 2797 -91 1919 -91 
Q 1588 -91 1214 -16 
Q 841 59 441 206 
L 441 856 
Q 825 641 1194 531 
Q 1563 422 1919 422 
Q 2459 422 2753 634 
Q 3047 847 3047 1241 
Q 3047 1584 2836 1778 
Q 2625 1972 2144 2069 
L 1759 2144 
Q 1053 2284 737 2584 
Q 422 2884 422 3419 
Q 422 4038 858 4394 
Q 1294 4750 2059 4750 
Q 2388 4750 2728 4690 
Q 3069 4631 3425 4513 
z
" transform="scale(0.015625)"/>
       <path id="DejaVuSans-3d" d="M 678 2906 
L 4684 2906 
L 4684 2381 
L 678 2381 
L 678 2906 
z
M 678 1631 
L 4684 1631 
L 4684 1100 
L 678 1100 
L 678 1631 
z
" transform="scale(0.015625)"/>
      </defs>
      <use xlink:href="#DejaVuSans-50"/>
      <use xlink:href="#DejaVuSans-72" transform="translate(58.552734 0)"/>
      <use xlink:href="#DejaVuSans-6f" transform="translate(97.416016 0)"/>
      <use xlink:href="#DejaVuSans-43" transform="translate(158.597656 0)"/>
      <use xlink:href="#DejaVuSans-61" transform="translate(228.421875 0)"/>
      <use xlink:href="#DejaVuSans-6e" transform="translate(289.701172 0)"/>
      <use xlink:href="#DejaVuSans-2d" transform="translate(353.080078 0)"/>
      <use xlink:href="#DejaVuSans-44" transform="translate(389.164062 0)"/>
      <use xlink:href="#DejaVuSans-65" transform="translate(466.166016 0)"/>
      <use xlink:href="#DejaVuSans-70" transform="translate(527.689453 0)"/>
      <use xlink:href="#DejaVuSans-4d" transform="translate(591.166016 0)"/>
      <use xlink:href="#DejaVuSans-61" transform="translate(677.445312 0)"/>
      <use xlink:href="#DejaVuSans-70" transform="translate(738.724609 0)"/>
      <use xlink:href="#DejaVuSans-53" transform="translate(802.201172 0)"/>
      <use xlink:href="#DejaVuSans-61" transform="translate(865.677734 0)"/>
      <use xlink:href="#DejaVuSans-6e" transform="translate(926.957031 0)"/>
      <use xlink:href="#DejaVuSans-67" transform="translate(990.335938 0)"/>
      <use xlink:href="#DejaVuSans-65" transform="translate(1053.8125 0)"/>
      <use xlink:href="#DejaVuSans-72" transform="translate(1115.335938 0)"/>
      <use xlink:href="#DejaVuSans-20" transform="translate(1156.449219 0)"/>
      <use xlink:href="#DejaVuSans-32" transform="translate(1188.236328 0)"/>
      <use xlink:href="#DejaVuSans-30" transform="translate(1251.859375 0)"/>
      <use xlink:href="#DejaVuSans-32" transform="translate(1315.482422 0)"/>
      <use xlink:href="#DejaVuSans-32" transform="translate(1379.105469 0)"/>
      <use xlink:href="#DejaVuSans-20" transform="translate(1442.728516 0)"/>
      <use xlink:href="#DejaVuSans-28" transform="translate(1474.515625 0)"/>
      <use xlink:href="#DejaVuSans-6e" transform="translate(1513.529297 0)"/>
      <use xlink:href="#DejaVuSans-3d" transform="translate(1576.908203 0)"/>
      <use xlink:href="#DejaVuSans-36" transform="translate(1660.697266 0)"/>
      <use xlink:href="#DejaVuSans-38" transform="translate(1724.320312 0)"/>
      <use xlink:href="#DejaVuSans-36" transform="translate(1787.943359 0)"/>
      <use xlink:href="#DejaVuSans-34" transform="translate(1851.566406 0)"/>
      <use xlink:href="#DejaVuSans-20" transform="translate(1915.189453 0)"/>
      <use xlink:href="#DejaVuSans-72" transform="translate(1946.976562 0)"/>
      <use xlink:href="#DejaVuSans-75" transform="translate(1988.089844 0)"/>
      <use xlink:href="#DejaVuSans-6e" transform="translate(2051.46875 0)"/>
      <use xlink:href="#DejaVuSans-73" transform="translate(2114.847656 0)"/>
      <use xlink:href="#DejaVuSans-29" transform="translate(2166.947266 0)"/>
     </g>
    </g>
    <g id="line2d_18">
     <path d="M 451.601562 267.460312 
L 461.601562 267.460312 
L 471.601562 267.460312 
" style="fill: none; stroke: #1f77b4; stroke-width: 0.8; stroke-linecap: square"/>
    </g>
    <g id="text_18">
     <!-- quantmsdiann (DIA-NN) (n=5798 runs) -->
     <g transform="translate(479.601562 270.960312) scale(0.1 -0.1)">
      <defs>
       <path id="DejaVuSans-71" d="M 947 1747 
Q 947 1113 1208 752 
Q 1469 391 1925 391 
Q 2381 391 2643 752 
Q 2906 1113 2906 1747 
Q 2906 2381 2643 2742 
Q 2381 3103 1925 3103 
Q 1469 3103 1208 2742 
Q 947 2381 947 1747 
z
M 2906 525 
Q 2725 213 2448 61 
Q 2172 -91 1784 -91 
Q 1150 -91 751 415 
Q 353 922 353 1747 
Q 353 2572 751 3078 
Q 1150 3584 1784 3584 
Q 2172 3584 2448 3432 
Q 2725 3281 2906 2969 
L 2906 3500 
L 3481 3500 
L 3481 -1331 
L 2906 -1331 
L 2906 525 
z
" transform="scale(0.015625)"/>
       <path id="DejaVuSans-6d" d="M 3328 2828 
Q 3544 3216 3844 3400 
Q 4144 3584 4550 3584 
Q 5097 3584 5394 3201 
Q 5691 2819 5691 2113 
L 5691 0 
L 5113 0 
L 5113 2094 
Q 5113 2597 4934 2840 
Q 4756 3084 4391 3084 
Q 3944 3084 3684 2787 
Q 3425 2491 3425 1978 
L 3425 0 
L 2847 0 
L 2847 2094 
Q 2847 2600 2669 2842 
Q 2491 3084 2119 3084 
Q 1678 3084 1418 2786 
Q 1159 2488 1159 1978 
L 1159 0 
L 581 0 
L 581 3500 
L 1159 3500 
L 1159 2956 
Q 1356 3278 1631 3431 
Q 1906 3584 2284 3584 
Q 2666 3584 2933 3390 
Q 3200 3197 3328 2828 
z
" transform="scale(0.015625)"/>
       <path id="DejaVuSans-49" d="M 628 4666 
L 1259 4666 
L 1259 0 
L 628 0 
L 628 4666 
z
" transform="scale(0.015625)"/>
       <path id="DejaVuSans-41" d="M 2188 4044 
L 1331 1722 
L 3047 1722 
L 2188 4044 
z
M 1831 4666 
L 2547 4666 
L 4325 0 
L 3669 0 
L 3244 1197 
L 1141 1197 
L 716 0 
L 50 0 
L 1831 4666 
z
" transform="scale(0.015625)"/>
       <path id="DejaVuSans-4e" d="M 628 4666 
L 1478 4666 
L 3547 763 
L 3547 4666 
L 4159 4666 
L 4159 0 
L 3309 0 
L 1241 3903 
L 1241 0 
L 628 0 
L 628 4666 
z
" transform="scale(0.015625)"/>
       <path id="DejaVuSans-39" d="M 703 97 
L 703 672 
Q 941 559 1184 500 
Q 1428 441 1663 441 
Q 2288 441 2617 861 
Q 2947 1281 2994 2138 
Q 2813 1869 2534 1725 
Q 2256 1581 1919 1581 
Q 1219 1581 811 2004 
Q 403 2428 403 3163 
Q 403 3881 828 4315 
Q 1253 4750 1959 4750 
Q 2769 4750 3195 4129 
Q 3622 3509 3622 2328 
Q 3622 1225 3098 567 
Q 2575 -91 1691 -91 
Q 1453 -91 1209 -44 
Q 966 3 703 97 
z
M 1959 2075 
Q 2384 2075 2632 2365 
Q 2881 2656 2881 3163 
Q 2881 3666 2632 3958 
Q 2384 4250 1959 4250 
Q 1534 4250 1286 3958 
Q 1038 3666 1038 3163 
Q 1038 2656 1286 2365 
Q 1534 2075 1959 2075 
z
" transform="scale(0.015625)"/>
      </defs>
      <use xlink:href="#DejaVuSans-71"/>
      <use xlink:href="#DejaVuSans-75" transform="translate(63.476562 0)"/>
      <use xlink:href="#DejaVuSans-61" transform="translate(126.855469 0)"/>
      <use xlink:href="#DejaVuSans-6e" transform="translate(188.134766 0)"/>
      <use xlink:href="#DejaVuSans-74" transform="translate(251.513672 0)"/>
      <use xlink:href="#DejaVuSans-6d" transform="translate(290.722656 0)"/>
      <use xlink:href="#DejaVuSans-73" transform="translate(388.134766 0)"/>
      <use xlink:href="#DejaVuSans-64" transform="translate(440.234375 0)"/>
      <use xlink:href="#DejaVuSans-69" transform="translate(503.710938 0)"/>
      <use xlink:href="#DejaVuSans-61" transform="translate(531.494141 0)"/>
      <use xlink:href="#DejaVuSans-6e" transform="translate(592.773438 0)"/>
      <use xlink:href="#DejaVuSans-6e" transform="translate(656.152344 0)"/>
      <use xlink:href="#DejaVuSans-20" transform="translate(719.53125 0)"/>
      <use xlink:href="#DejaVuSans-28" transform="translate(751.318359 0)"/>
      <use xlink:href="#DejaVuSans-44" transform="translate(790.332031 0)"/>
      <use xlink:href="#DejaVuSans-49" transform="translate(867.333984 0)"/>
      <use xlink:href="#DejaVuSans-41" transform="translate(896.826172 0)"/>
      <use xlink:href="#DejaVuSans-2d" transform="translate(962.984375 0)"/>
      <use xlink:href="#DejaVuSans-4e" transform="translate(999.068359 0)"/>
      <use xlink:href="#DejaVuSans-4e" transform="translate(1073.873047 0)"/>
      <use xlink:href="#DejaVuSans-29" transform="translate(1148.677734 0)"/>
      <use xlink:href="#DejaVuSans-20" transform="translate(1187.691406 0)"/>
      <use xlink:href="#DejaVuSans-28" transform="translate(1219.478516 0)"/>
      <use xlink:href="#DejaVuSans-6e" transform="translate(1258.492188 0)"/>
      <use xlink:href="#DejaVuSans-3d" transform="translate(1321.871094 0)"/>
      <use xlink:href="#DejaVuSans-35" transform="translate(1405.660156 0)"/>
      <use xlink:href="#DejaVuSans-37" transform="translate(1469.283203 0)"/>
      <use xlink:href="#DejaVuSans-39" transform="translate(1532.90625 0)"/>
      <use xlink:href="#DejaVuSans-38" transform="translate(1596.529297 0)"/>
      <use xlink:href="#DejaVuSans-20" transform="translate(1660.152344 0)"/>
      <use xlink:href="#DejaVuSans-72" transform="translate(1691.939453 0)"/>
      <use xlink:href="#DejaVuSans-75" transform="translate(1733.052734 0)"/>
      <use xlink:href="#DejaVuSans-6e" transform="translate(1796.431641 0)"/>
      <use xlink:href="#DejaVuSans-73" transform="translate(1859.810547 0)"/>
      <use xlink:href="#DejaVuSans-29" transform="translate(1911.910156 0)"/>
     </g>
    </g>
   </g>
  </g>
 </g>
 <defs>
  <clipPath id="pbb1e20869e">
   <rect x="59.384" y="14.76" width="649.816" height="267.28"/>
  </clipPath>
 </defs>
</svg>
