<?xml version="1.0" encoding="utf-8" standalone="no"?>
<!DOCTYPE svg PUBLIC "-//W3C//DTD SVG 1.1//EN"
  "http://www.w3.org/Graphics/SVG/1.1/DTD/svg11.dtd">
<svg xmlns:xlink="http://www.w3.org/1999/xlink" width="927.395938pt" height="339.085826pt" viewBox="0 0 927.395938 339.085826" xmlns="http://www.w3.org/2000/svg" version="1.1">
 <metadata>
  <rdf:RDF xmlns:dc="http://purl.org/dc/elements/1.1/" xmlns:cc="http://creativecommons.org/ns#" xmlns:rdf="http://www.w3.org/1999/02/22-rdf-syntax-ns#">
   <cc:Work>
    <dc:type rdf:resource="http://purl.org/dc/dcmitype/StillImage"/>
    <dc:date>2026-06-12T12:18:21.844180</dc:date>
    <dc:format>image/svg+xml</dc:format>
    <dc:creator>
     <cc:Agent>
      <dc:title>Matplotlib v3.10.6, https://matplotlib.org/</dc:title>
     </cc:Agent>
    </dc:creator>
   </cc:Work>
  </rdf:RDF>
 </metadata>
 <defs>
  <style type="text/css">*{stroke-linejoin: round; stroke-linecap: butt}</style>
 </defs>
 <g id="figure_1">
  <g id="patch_1">
   <path d="M -0 339.085826 
L 927.395938 339.085826 
L 927.395938 -0 
L -0 -0 
z
" style="fill: #ffffff"/>
  </g>
  <g id="axes_1">
   <g id="patch_2">
    <path d="M 57.295938 243.2192 
L 920.195938 243.2192 
L 920.195938 7.2 
L 57.295938 7.2 
z
" style="fill: #ffffff"/>
   </g>
   <g id="patch_3">
    <path d="M 96.518665 243.2192 
L 107.805781 243.2192 
L 107.805781 75.383767 
L 96.518665 75.383767 
z
" clip-path="url(#pa976b0b607)" style="fill: #9e9e9e"/>
   </g>
   <g id="patch_4">
    <path d="M 124.736454 243.2192 
L 136.02357 243.2192 
L 136.02357 77.596588 
L 124.736454 77.596588 
z
" clip-path="url(#pa976b0b607)" style="fill: #9e9e9e"/>
   </g>
   <g id="patch_5">
    <path d="M 152.954244 243.2192 
L 164.241359 243.2192 
L 164.241359 80.56695 
L 152.954244 80.56695 
z
" clip-path="url(#pa976b0b607)" style="fill: #9e9e9e"/>
   </g>
   <g id="patch_6">
    <path d="M 181.172033 243.2192 
L 192.459149 243.2192 
L 192.459149 81.822875 
L 181.172033 81.822875 
z
" clip-path="url(#pa976b0b607)" style="fill: #9e9e9e"/>
   </g>
   <g id="patch_7">
    <path d="M 209.389822 243.2192 
L 220.676938 243.2192 
L 220.676938 81.982357 
L 209.389822 81.982357 
z
" clip-path="url(#pa976b0b607)" style="fill: #9e9e9e"/>
   </g>
   <g id="patch_8">
    <path d="M 237.607612 243.2192 
L 248.894728 243.2192 
L 248.894728 82.640223 
L 237.607612 82.640223 
z
" clip-path="url(#pa976b0b607)" style="fill: #9e9e9e"/>
   </g>
   <g id="patch_9">
    <path d="M 265.825401 243.2192 
L 277.112517 243.2192 
L 277.112517 82.600352 
L 265.825401 82.600352 
z
" clip-path="url(#pa976b0b607)" style="fill: #9e9e9e"/>
   </g>
   <g id="patch_10">
    <path d="M 294.043191 243.2192 
L 305.330306 243.2192 
L 305.330306 82.082034 
L 294.043191 82.082034 
z
" clip-path="url(#pa976b0b607)" style="fill: #9e9e9e"/>
   </g>
   <g id="patch_11">
    <path d="M 322.26098 243.2192 
L 333.548096 243.2192 
L 333.548096 82.500676 
L 322.26098 82.500676 
z
" clip-path="url(#pa976b0b607)" style="fill: #9e9e9e"/>
   </g>
   <g id="patch_12">
    <path d="M 350.478769 243.2192 
L 361.765885 243.2192 
L 361.765885 83.636989 
L 350.478769 83.636989 
z
" clip-path="url(#pa976b0b607)" style="fill: #9e9e9e"/>
   </g>
   <g id="patch_13">
    <path d="M 378.696559 243.2192 
L 389.983675 243.2192 
L 389.983675 85.172008 
L 378.696559 85.172008 
z
" clip-path="url(#pa976b0b607)" style="fill: #9e9e9e"/>
   </g>
   <g id="patch_14">
    <path d="M 406.914348 243.2192 
L 418.201464 243.2192 
L 418.201464 85.391297 
L 406.914348 85.391297 
z
" clip-path="url(#pa976b0b607)" style="fill: #9e9e9e"/>
   </g>
   <g id="patch_15">
    <path d="M 435.132138 243.2192 
L 446.419253 243.2192 
L 446.419253 85.610585 
L 435.132138 85.610585 
z
" clip-path="url(#pa976b0b607)" style="fill: #9e9e9e"/>
   </g>
   <g id="patch_16">
    <path d="M 463.349927 243.2192 
L 474.637043 243.2192 
L 474.637043 87.364893 
L 463.349927 87.364893 
z
" clip-path="url(#pa976b0b607)" style="fill: #9e9e9e"/>
   </g>
   <g id="patch_17">
    <path d="M 491.567716 243.2192 
L 502.854832 243.2192 
L 502.854832 86.447868 
L 491.567716 86.447868 
z
" clip-path="url(#pa976b0b607)" style="fill: #9e9e9e"/>
   </g>
   <g id="patch_18">
    <path d="M 519.785506 243.2192 
L 531.072622 243.2192 
L 531.072622 88.919848 
L 519.785506 88.919848 
z
" clip-path="url(#pa976b0b607)" style="fill: #9e9e9e"/>
   </g>
   <g id="patch_19">
    <path d="M 548.003295 243.2192 
L 559.290411 243.2192 
L 559.290411 89.777066 
L 548.003295 89.777066 
z
" clip-path="url(#pa976b0b607)" style="fill: #9e9e9e"/>
   </g>
   <g id="patch_20">
    <path d="M 576.221085 243.2192 
L 587.5082 243.2192 
L 587.5082 89.119201 
L 576.221085 89.119201 
z
" clip-path="url(#pa976b0b607)" style="fill: #9e9e9e"/>
   </g>
   <g id="patch_21">
    <path d="M 604.438874 243.2192 
L 615.72599 243.2192 
L 615.72599 89.996355 
L 604.438874 89.996355 
z
" clip-path="url(#pa976b0b607)" style="fill: #9e9e9e"/>
   </g>
   <g id="patch_22">
    <path d="M 632.656663 243.2192 
L 643.943779 243.2192 
L 643.943779 90.674155 
L 632.656663 90.674155 
z
" clip-path="url(#pa976b0b607)" style="fill: #9e9e9e"/>
   </g>
   <g id="patch_23">
    <path d="M 660.874453 243.2192 
L 672.161569 243.2192 
L 672.161569 94.023289 
L 660.874453 94.023289 
z
" clip-path="url(#pa976b0b607)" style="fill: #9e9e9e"/>
   </g>
   <g id="patch_24">
    <path d="M 689.092242 243.2192 
L 700.379358 243.2192 
L 700.379358 104.608942 
L 689.092242 104.608942 
z
" clip-path="url(#pa976b0b607)" style="fill: #9e9e9e"/>
   </g>
   <g id="patch_25">
    <path d="M 717.310032 243.2192 
L 728.597147 243.2192 
L 728.597147 109.413353 
L 717.310032 109.413353 
z
" clip-path="url(#pa976b0b607)" style="fill: #9e9e9e"/>
   </g>
   <g id="patch_26">
    <path d="M 745.527821 243.2192 
L 756.814937 243.2192 
L 756.814937 110.569602 
L 745.527821 110.569602 
z
" clip-path="url(#pa976b0b607)" style="fill: #9e9e9e"/>
   </g>
   <g id="patch_27">
    <path d="M 773.74561 243.2192 
L 785.032726 243.2192 
L 785.032726 120.457519 
L 773.74561 120.457519 
z
" clip-path="url(#pa976b0b607)" style="fill: #9e9e9e"/>
   </g>
   <g id="patch_28">
    <path d="M 801.9634 243.2192 
L 813.250516 243.2192 
L 813.250516 133.116445 
L 801.9634 133.116445 
z
" clip-path="url(#pa976b0b607)" style="fill: #9e9e9e"/>
   </g>
   <g id="patch_29">
    <path d="M 830.181189 243.2192 
L 841.468305 243.2192 
L 841.468305 136.844349 
L 830.181189 136.844349 
z
" clip-path="url(#pa976b0b607)" style="fill: #9e9e9e"/>
   </g>
   <g id="patch_30">
    <path d="M 858.398979 243.2192 
L 869.686094 243.2192 
L 869.686094 144.599188 
L 858.398979 144.599188 
z
" clip-path="url(#pa976b0b607)" style="fill: #9e9e9e"/>
   </g>
   <g id="patch_31">
    <path d="M 107.805781 243.2192 
L 119.092896 243.2192 
L 119.092896 37.985113 
L 107.805781 37.985113 
z
" clip-path="url(#pa976b0b607)" style="fill: #0072b2"/>
   </g>
   <g id="patch_32">
    <path d="M 136.02357 243.2192 
L 147.310686 243.2192 
L 147.310686 42.031982 
L 136.02357 42.031982 
z
" clip-path="url(#pa976b0b607)" style="fill: #0072b2"/>
   </g>
   <g id="patch_33">
    <path d="M 164.241359 243.2192 
L 175.528475 243.2192 
L 175.528475 46.517429 
L 164.241359 46.517429 
z
" clip-path="url(#pa976b0b607)" style="fill: #0072b2"/>
   </g>
   <g id="patch_34">
    <path d="M 192.459149 243.2192 
L 203.746265 243.2192 
L 203.746265 48.451154 
L 192.459149 48.451154 
z
" clip-path="url(#pa976b0b607)" style="fill: #0072b2"/>
   </g>
   <g id="patch_35">
    <path d="M 220.676938 243.2192 
L 231.964054 243.2192 
L 231.964054 49.089085 
L 220.676938 49.089085 
z
" clip-path="url(#pa976b0b607)" style="fill: #0072b2"/>
   </g>
   <g id="patch_36">
    <path d="M 248.894728 243.2192 
L 260.181843 243.2192 
L 260.181843 50.125721 
L 248.894728 50.125721 
z
" clip-path="url(#pa976b0b607)" style="fill: #0072b2"/>
   </g>
   <g id="patch_37">
    <path d="M 277.112517 243.2192 
L 288.399633 243.2192 
L 288.399633 50.663975 
L 277.112517 50.663975 
z
" clip-path="url(#pa976b0b607)" style="fill: #0072b2"/>
   </g>
   <g id="patch_38">
    <path d="M 305.330306 243.2192 
L 316.617422 243.2192 
L 316.617422 51.301905 
L 305.330306 51.301905 
z
" clip-path="url(#pa976b0b607)" style="fill: #0072b2"/>
   </g>
   <g id="patch_39">
    <path d="M 333.548096 243.2192 
L 344.835212 243.2192 
L 344.835212 51.381646 
L 333.548096 51.381646 
z
" clip-path="url(#pa976b0b607)" style="fill: #0072b2"/>
   </g>
   <g id="patch_40">
    <path d="M 361.765885 243.2192 
L 373.053001 243.2192 
L 373.053001 51.9199 
L 361.765885 51.9199 
z
" clip-path="url(#pa976b0b607)" style="fill: #0072b2"/>
   </g>
   <g id="patch_41">
    <path d="M 389.983675 243.2192 
L 401.27079 243.2192 
L 401.27079 53.255566 
L 389.983675 53.255566 
z
" clip-path="url(#pa976b0b607)" style="fill: #0072b2"/>
   </g>
   <g id="patch_42">
    <path d="M 418.201464 243.2192 
L 429.48858 243.2192 
L 429.48858 54.072914 
L 418.201464 54.072914 
z
" clip-path="url(#pa976b0b607)" style="fill: #0072b2"/>
   </g>
   <g id="patch_43">
    <path d="M 446.419253 243.2192 
L 457.706369 243.2192 
L 457.706369 54.690909 
L 446.419253 54.690909 
z
" clip-path="url(#pa976b0b607)" style="fill: #0072b2"/>
   </g>
   <g id="patch_44">
    <path d="M 474.637043 243.2192 
L 485.924159 243.2192 
L 485.924159 57.222694 
L 474.637043 57.222694 
z
" clip-path="url(#pa976b0b607)" style="fill: #0072b2"/>
   </g>
   <g id="patch_45">
    <path d="M 502.854832 243.2192 
L 514.141948 243.2192 
L 514.141948 58.299201 
L 502.854832 58.299201 
z
" clip-path="url(#pa976b0b607)" style="fill: #0072b2"/>
   </g>
   <g id="patch_46">
    <path d="M 531.072622 243.2192 
L 542.359737 243.2192 
L 542.359737 60.990469 
L 531.072622 60.990469 
z
" clip-path="url(#pa976b0b607)" style="fill: #0072b2"/>
   </g>
   <g id="patch_47">
    <path d="M 559.290411 243.2192 
L 570.577527 243.2192 
L 570.577527 61.030339 
L 559.290411 61.030339 
z
" clip-path="url(#pa976b0b607)" style="fill: #0072b2"/>
   </g>
   <g id="patch_48">
    <path d="M 587.5082 243.2192 
L 598.795316 243.2192 
L 598.795316 63.163418 
L 587.5082 63.163418 
z
" clip-path="url(#pa976b0b607)" style="fill: #0072b2"/>
   </g>
   <g id="patch_49">
    <path d="M 615.72599 243.2192 
L 627.013106 243.2192 
L 627.013106 63.542189 
L 615.72599 63.542189 
z
" clip-path="url(#pa976b0b607)" style="fill: #0072b2"/>
   </g>
   <g id="patch_50">
    <path d="M 643.943779 243.2192 
L 655.230895 243.2192 
L 655.230895 64.379473 
L 643.943779 64.379473 
z
" clip-path="url(#pa976b0b607)" style="fill: #0072b2"/>
   </g>
   <g id="patch_51">
    <path d="M 672.161569 243.2192 
L 683.448684 243.2192 
L 683.448684 69.861685 
L 672.161569 69.861685 
z
" clip-path="url(#pa976b0b607)" style="fill: #0072b2"/>
   </g>
   <g id="patch_52">
    <path d="M 700.379358 243.2192 
L 711.666474 243.2192 
L 711.666474 84.613819 
L 700.379358 84.613819 
z
" clip-path="url(#pa976b0b607)" style="fill: #0072b2"/>
   </g>
   <g id="patch_53">
    <path d="M 728.597147 243.2192 
L 739.884263 243.2192 
L 739.884263 88.640753 
L 728.597147 88.640753 
z
" clip-path="url(#pa976b0b607)" style="fill: #0072b2"/>
   </g>
   <g id="patch_54">
    <path d="M 756.814937 243.2192 
L 768.102053 243.2192 
L 768.102053 89.71726 
L 756.814937 89.71726 
z
" clip-path="url(#pa976b0b607)" style="fill: #0072b2"/>
   </g>
   <g id="patch_55">
    <path d="M 785.032726 243.2192 
L 796.319842 243.2192 
L 796.319842 100.422525 
L 785.032726 100.422525 
z
" clip-path="url(#pa976b0b607)" style="fill: #0072b2"/>
   </g>
   <g id="patch_56">
    <path d="M 813.250516 243.2192 
L 824.537631 243.2192 
L 824.537631 113.739317 
L 813.250516 113.739317 
z
" clip-path="url(#pa976b0b607)" style="fill: #0072b2"/>
   </g>
   <g id="patch_57">
    <path d="M 841.468305 243.2192 
L 852.755421 243.2192 
L 852.755421 118.703211 
L 841.468305 118.703211 
z
" clip-path="url(#pa976b0b607)" style="fill: #0072b2"/>
   </g>
   <g id="patch_58">
    <path d="M 869.686094 243.2192 
L 880.97321 243.2192 
L 880.97321 125.820119 
L 869.686094 125.820119 
z
" clip-path="url(#pa976b0b607)" style="fill: #0072b2"/>
   </g>
   <g id="matplotlib.axis_1">
    <g id="xtick_1">
     <g id="line2d_1">
      <defs>
       <path id="m3c0217c4c8" d="M 0 0 
L 0 3.5 
" style="stroke: #000000; stroke-width: 0.8"/>
      </defs>
      <g>
       <use xlink:href="#m3c0217c4c8" x="107.805781" y="243.2192" style="stroke: #000000; stroke-width: 0.8"/>
      </g>
     </g>
     <g id="text_1">
      <text style="font-size: 8px; font-family: 'Helvetica', 'Arial', 'DejaVu Sans', sans-serif" transform="translate(91.509858 264.086603) rotate(-30)">Lung</text>
     </g>
    </g>
    <g id="xtick_2">
     <g id="line2d_2">
      <g>
       <use xlink:href="#m3c0217c4c8" x="136.02357" y="243.2192" style="stroke: #000000; stroke-width: 0.8"/>
      </g>
     </g>
     <g id="text_2">
      <text style="font-size: 8px; font-family: 'Helvetica', 'Arial', 'DejaVu Sans', sans-serif" transform="translate(41.584447 309.234716) rotate(-30)">Haematopoietic and Lymphoid</text>
     </g>
    </g>
    <g id="xtick_3">
     <g id="line2d_3">
      <g>
       <use xlink:href="#m3c0217c4c8" x="164.241359" y="243.2192" style="stroke: #000000; stroke-width: 0.8"/>
      </g>
     </g>
     <g id="text_3">
      <text style="font-size: 8px; font-family: 'Helvetica', 'Arial', 'DejaVu Sans', sans-serif" transform="translate(143.385102 266.749103) rotate(-30)">Breast</text>
     </g>
    </g>
    <g id="xtick_4">
     <g id="line2d_4">
      <g>
       <use xlink:href="#m3c0217c4c8" x="192.459149" y="243.2192" style="stroke: #000000; stroke-width: 0.8"/>
      </g>
     </g>
     <g id="text_4">
      <text style="font-size: 8px; font-family: 'Helvetica', 'Arial', 'DejaVu Sans', sans-serif" transform="translate(178.147878 262.970353) rotate(-30)">Skin</text>
     </g>
    </g>
    <g id="xtick_5">
     <g id="line2d_5">
      <g>
       <use xlink:href="#m3c0217c4c8" x="220.676938" y="243.2192" style="stroke: #000000; stroke-width: 0.8"/>
      </g>
     </g>
     <g id="text_5">
      <text style="font-size: 8px; font-family: 'Helvetica', 'Arial', 'DejaVu Sans', sans-serif" transform="translate(173.960791 281.649728) rotate(-30)">Large Intestine</text>
     </g>
    </g>
    <g id="xtick_6">
     <g id="line2d_6">
      <g>
       <use xlink:href="#m3c0217c4c8" x="248.894728" y="243.2192" style="stroke: #000000; stroke-width: 0.8"/>
      </g>
     </g>
     <g id="text_6">
      <text style="font-size: 8px; font-family: 'Helvetica', 'Arial', 'DejaVu Sans', sans-serif" transform="translate(172.960403 298.670045) rotate(-30)">Central Nervous System</text>
     </g>
    </g>
    <g id="xtick_7">
     <g id="line2d_7">
      <g>
       <use xlink:href="#m3c0217c4c8" x="277.112517" y="243.2192" style="stroke: #000000; stroke-width: 0.8"/>
      </g>
     </g>
     <g id="text_7">
      <text style="font-size: 8px; font-family: 'Helvetica', 'Arial', 'DejaVu Sans', sans-serif" transform="translate(248.939427 270.973478) rotate(-30)">Stomach</text>
     </g>
    </g>
    <g id="xtick_8">
     <g id="line2d_8">
      <g>
       <use xlink:href="#m3c0217c4c8" x="305.330306" y="243.2192" style="stroke: #000000; stroke-width: 0.8"/>
      </g>
     </g>
     <g id="text_8">
      <text style="font-size: 8px; font-family: 'Helvetica', 'Arial', 'DejaVu Sans', sans-serif" transform="translate(285.996154 265.99192) rotate(-30)">Ovary</text>
     </g>
    </g>
    <g id="xtick_9">
     <g id="line2d_9">
      <g>
       <use xlink:href="#m3c0217c4c8" x="333.548096" y="243.2192" style="stroke: #000000; stroke-width: 0.8"/>
      </g>
     </g>
     <g id="text_9">
      <text style="font-size: 8px; font-family: 'Helvetica', 'Arial', 'DejaVu Sans', sans-serif" transform="translate(316.534826 264.530353) rotate(-30)">Bone</text>
     </g>
    </g>
    <g id="xtick_10">
     <g id="line2d_10">
      <g>
       <use xlink:href="#m3c0217c4c8" x="361.765885" y="243.2192" style="stroke: #000000; stroke-width: 0.8"/>
      </g>
     </g>
     <g id="text_10">
      <text style="font-size: 8px; font-family: 'Helvetica', 'Arial', 'DejaVu Sans', sans-serif" transform="translate(326.214971 275.219716) rotate(-30)">Esophagus</text>
     </g>
    </g>
    <g id="xtick_11">
     <g id="line2d_11">
      <g>
       <use xlink:href="#m3c0217c4c8" x="389.983675" y="243.2192" style="stroke: #000000; stroke-width: 0.8"/>
      </g>
     </g>
     <g id="text_11">
      <text style="font-size: 8px; font-family: 'Helvetica', 'Arial', 'DejaVu Sans', sans-serif" transform="translate(341.396201 282.759728) rotate(-30)">Head and Neck</text>
     </g>
    </g>
    <g id="xtick_12">
     <g id="line2d_12">
      <g>
       <use xlink:href="#m3c0217c4c8" x="418.201464" y="243.2192" style="stroke: #000000; stroke-width: 0.8"/>
      </g>
     </g>
     <g id="text_12">
      <text style="font-size: 8px; font-family: 'Helvetica', 'Arial', 'DejaVu Sans', sans-serif" transform="translate(388.100385 272.086603) rotate(-30)">Pancreas</text>
     </g>
    </g>
    <g id="xtick_13">
     <g id="line2d_13">
      <g>
       <use xlink:href="#m3c0217c4c8" x="446.419253" y="243.2192" style="stroke: #000000; stroke-width: 0.8"/>
      </g>
     </g>
     <g id="text_13">
      <text style="font-size: 8px; font-family: 'Helvetica', 'Arial', 'DejaVu Sans', sans-serif" transform="translate(361.240107 304.007545) rotate(-30)">Peripheral Nervous System</text>
     </g>
    </g>
    <g id="xtick_14">
     <g id="line2d_14">
      <g>
       <use xlink:href="#m3c0217c4c8" x="474.637043" y="243.2192" style="stroke: #000000; stroke-width: 0.8"/>
      </g>
     </g>
     <g id="text_14">
      <text style="font-size: 8px; font-family: 'Helvetica', 'Arial', 'DejaVu Sans', sans-serif" transform="translate(452.596561 267.435341) rotate(-30)">Kidney</text>
     </g>
    </g>
    <g id="xtick_15">
     <g id="line2d_15">
      <g>
       <use xlink:href="#m3c0217c4c8" x="502.854832" y="243.2192" style="stroke: #000000; stroke-width: 0.8"/>
      </g>
     </g>
     <g id="text_15">
      <text style="font-size: 8px; font-family: 'Helvetica', 'Arial', 'DejaVu Sans', sans-serif" transform="translate(467.368158 275.195978) rotate(-30)">Soft Tissue</text>
     </g>
    </g>
    <g id="xtick_16">
     <g id="line2d_16">
      <g>
       <use xlink:href="#m3c0217c4c8" x="531.072622" y="243.2192" style="stroke: #000000; stroke-width: 0.8"/>
      </g>
     </g>
     <g id="text_16">
      <text style="font-size: 8px; font-family: 'Helvetica', 'Arial', 'DejaVu Sans', sans-serif" transform="translate(515.223074 263.858478) rotate(-30)">Liver</text>
     </g>
    </g>
    <g id="xtick_17">
     <g id="line2d_17">
      <g>
       <use xlink:href="#m3c0217c4c8" x="559.290411" y="243.2192" style="stroke: #000000; stroke-width: 0.8"/>
      </g>
     </g>
     <g id="text_17">
      <text style="font-size: 8px; font-family: 'Helvetica', 'Arial', 'DejaVu Sans', sans-serif" transform="translate(538.82603 266.522853) rotate(-30)">Cervix</text>
     </g>
    </g>
    <g id="xtick_18">
     <g id="line2d_18">
      <g>
       <use xlink:href="#m3c0217c4c8" x="587.5082" y="243.2192" style="stroke: #000000; stroke-width: 0.8"/>
      </g>
     </g>
     <g id="text_18">
      <text style="font-size: 8px; font-family: 'Helvetica', 'Arial', 'DejaVu Sans', sans-serif" transform="translate(563.550555 268.542216) rotate(-30)">Thyroid</text>
     </g>
    </g>
    <g id="xtick_19">
     <g id="line2d_19">
      <g>
       <use xlink:href="#m3c0217c4c8" x="615.72599" y="243.2192" style="stroke: #000000; stroke-width: 0.8"/>
      </g>
     </g>
     <g id="text_19">
      <text style="font-size: 8px; font-family: 'Helvetica', 'Arial', 'DejaVu Sans', sans-serif" transform="translate(591.013754 268.975353) rotate(-30)">Bladder</text>
     </g>
    </g>
    <g id="xtick_20">
     <g id="line2d_20">
      <g>
       <use xlink:href="#m3c0217c4c8" x="643.943779" y="243.2192" style="stroke: #000000; stroke-width: 0.8"/>
      </g>
     </g>
     <g id="text_20">
      <text style="font-size: 8px; font-family: 'Helvetica', 'Arial', 'DejaVu Sans', sans-serif" transform="translate(601.912118 278.974728) rotate(-30)">Endometrium</text>
     </g>
    </g>
    <g id="xtick_21">
     <g id="line2d_21">
      <g>
       <use xlink:href="#m3c0217c4c8" x="672.161569" y="243.2192" style="stroke: #000000; stroke-width: 0.8"/>
      </g>
     </g>
     <g id="text_21">
      <text style="font-size: 8px; font-family: 'Helvetica', 'Arial', 'DejaVu Sans', sans-serif" transform="translate(645.527839 270.084728) rotate(-30)">Prostate</text>
     </g>
    </g>
    <g id="xtick_22">
     <g id="line2d_22">
      <g>
       <use xlink:href="#m3c0217c4c8" x="700.379358" y="243.2192" style="stroke: #000000; stroke-width: 0.8"/>
      </g>
     </g>
     <g id="text_22">
      <text style="font-size: 8px; font-family: 'Helvetica', 'Arial', 'DejaVu Sans', sans-serif" transform="translate(662.19718 276.752228) rotate(-30)">Other tissue</text>
     </g>
    </g>
    <g id="xtick_23">
     <g id="line2d_23">
      <g>
       <use xlink:href="#m3c0217c4c8" x="728.597147" y="243.2192" style="stroke: #000000; stroke-width: 0.8"/>
      </g>
     </g>
     <g id="text_23">
      <text style="font-size: 8px; font-family: 'Helvetica', 'Arial', 'DejaVu Sans', sans-serif" transform="translate(691.171725 276.301603) rotate(-30)">Biliary Tract</text>
     </g>
    </g>
    <g id="xtick_24">
     <g id="line2d_24">
      <g>
       <use xlink:href="#m3c0217c4c8" x="756.814937" y="243.2192" style="stroke: #000000; stroke-width: 0.8"/>
      </g>
     </g>
     <g id="text_24">
      <text style="font-size: 8px; font-family: 'Helvetica', 'Arial', 'DejaVu Sans', sans-serif" transform="translate(737.504535 265.856603) rotate(-30)">Testis</text>
     </g>
    </g>
    <g id="xtick_25">
     <g id="line2d_25">
      <g>
       <use xlink:href="#m3c0217c4c8" x="785.032726" y="243.2192" style="stroke: #000000; stroke-width: 0.8"/>
      </g>
     </g>
     <g id="text_25">
      <text style="font-size: 8px; font-family: 'Helvetica', 'Arial', 'DejaVu Sans', sans-serif" transform="translate(766.868725 265.194728) rotate(-30)">Vulva</text>
     </g>
    </g>
    <g id="xtick_26">
     <g id="line2d_26">
      <g>
       <use xlink:href="#m3c0217c4c8" x="813.250516" y="243.2192" style="stroke: #000000; stroke-width: 0.8"/>
      </g>
     </g>
     <g id="text_26">
      <text style="font-size: 8px; font-family: 'Helvetica', 'Arial', 'DejaVu Sans', sans-serif" transform="translate(785.456312 270.754728) rotate(-30)">Placenta</text>
     </g>
    </g>
    <g id="xtick_27">
     <g id="line2d_27">
      <g>
       <use xlink:href="#m3c0217c4c8" x="841.468305" y="243.2192" style="stroke: #000000; stroke-width: 0.8"/>
      </g>
     </g>
     <g id="text_27">
      <text style="font-size: 8px; font-family: 'Helvetica', 'Arial', 'DejaVu Sans', sans-serif" transform="translate(795.19745 281.422228) rotate(-30)">Small Intestine</text>
     </g>
    </g>
    <g id="xtick_28">
     <g id="line2d_28">
      <g>
       <use xlink:href="#m3c0217c4c8" x="869.686094" y="243.2192" style="stroke: #000000; stroke-width: 0.8"/>
      </g>
     </g>
     <g id="text_28">
      <text style="font-size: 8px; font-family: 'Helvetica', 'Arial', 'DejaVu Sans', sans-serif" transform="translate(824.562723 280.759728) rotate(-30)">Adrenal Gland</text>
     </g>
    </g>
   </g>
   <g id="matplotlib.axis_2">
    <g id="ytick_1">
     <g id="line2d_29">
      <defs>
       <path id="m3d270d470b" d="M 0 0 
L -3.5 0 
" style="stroke: #000000; stroke-width: 0.8"/>
      </defs>
      <g>
       <use xlink:href="#m3d270d470b" x="57.295938" y="243.2192" style="stroke: #000000; stroke-width: 0.8"/>
      </g>
     </g>
     <g id="text_29">
      <text style="font-size: 10px; font-family: 'Helvetica', 'Arial', 'DejaVu Sans', sans-serif; text-anchor: end" x="50.295938" y="246.805919" transform="rotate(-0 50.295938 246.805919)">0</text>
     </g>
    </g>
    <g id="ytick_2">
     <g id="line2d_30">
      <g>
       <use xlink:href="#m3d270d470b" x="57.295938" y="203.348566" style="stroke: #000000; stroke-width: 0.8"/>
      </g>
     </g>
     <g id="text_30">
      <text style="font-size: 10px; font-family: 'Helvetica', 'Arial', 'DejaVu Sans', sans-serif; text-anchor: end" x="50.295938" y="206.935285" transform="rotate(-0 50.295938 206.935285)">2000</text>
     </g>
    </g>
    <g id="ytick_3">
     <g id="line2d_31">
      <g>
       <use xlink:href="#m3d270d470b" x="57.295938" y="163.477933" style="stroke: #000000; stroke-width: 0.8"/>
      </g>
     </g>
     <g id="text_31">
      <text style="font-size: 10px; font-family: 'Helvetica', 'Arial', 'DejaVu Sans', sans-serif; text-anchor: end" x="50.295938" y="167.064651" transform="rotate(-0 50.295938 167.064651)">4000</text>
     </g>
    </g>
    <g id="ytick_4">
     <g id="line2d_32">
      <g>
       <use xlink:href="#m3d270d470b" x="57.295938" y="123.607299" style="stroke: #000000; stroke-width: 0.8"/>
      </g>
     </g>
     <g id="text_32">
      <text style="font-size: 10px; font-family: 'Helvetica', 'Arial', 'DejaVu Sans', sans-serif; text-anchor: end" x="50.295938" y="127.194018" transform="rotate(-0 50.295938 127.194018)">6000</text>
     </g>
    </g>
    <g id="ytick_5">
     <g id="line2d_33">
      <g>
       <use xlink:href="#m3d270d470b" x="57.295938" y="83.736665" style="stroke: #000000; stroke-width: 0.8"/>
      </g>
     </g>
     <g id="text_33">
      <text style="font-size: 10px; font-family: 'Helvetica', 'Arial', 'DejaVu Sans', sans-serif; text-anchor: end" x="50.295938" y="87.323384" transform="rotate(-0 50.295938 87.323384)">8000</text>
     </g>
    </g>
    <g id="ytick_6">
     <g id="line2d_34">
      <g>
       <use xlink:href="#m3d270d470b" x="57.295938" y="43.866032" style="stroke: #000000; stroke-width: 0.8"/>
      </g>
     </g>
     <g id="text_34">
      <text style="font-size: 10px; font-family: 'Helvetica', 'Arial', 'DejaVu Sans', sans-serif; text-anchor: end" x="50.295938" y="47.45275" transform="rotate(-0 50.295938 47.45275)">10000</text>
     </g>
    </g>
    <g id="text_35">
     <text style="font-size: 12px; font-family: 'Helvetica', 'Arial', 'DejaVu Sans', sans-serif; text-anchor: middle" x="15.83625" y="125.2096" transform="rotate(-90 15.83625 125.2096)">Distinct protein groups detected</text>
    </g>
   </g>
   <g id="patch_59">
    <path d="M 57.295938 243.2192 
L 57.295938 7.2 
" style="fill: none; stroke: #000000; stroke-width: 0.8; stroke-linejoin: miter; stroke-linecap: square"/>
   </g>
   <g id="patch_60">
    <path d="M 57.295938 243.2192 
L 920.195938 243.2192 
" style="fill: none; stroke: #000000; stroke-width: 0.8; stroke-linejoin: miter; stroke-linecap: square"/>
   </g>
   <g id="legend_1">
    <g id="patch_61">
     <path d="M 331.249063 325.673326 
L 351.249063 325.673326 
L 351.249063 318.673326 
L 331.249063 318.673326 
z
" style="fill: #9e9e9e"/>
    </g>
    <g id="text_36">
     <text style="font-size: 10px; font-family: 'Helvetica', 'Arial', 'DejaVu Sans', sans-serif; text-anchor: start" x="359.249063" y="325.673326" transform="rotate(-0 359.249063 325.673326)">ProCan-DepMapSanger 2022</text>
    </g>
    <g id="patch_62">
     <path d="M 511.544375 325.673326 
L 531.544375 325.673326 
L 531.544375 318.673326 
L 511.544375 318.673326 
z
" style="fill: #0072b2"/>
    </g>
    <g id="text_37">
     <text style="font-size: 10px; font-family: 'Helvetica', 'Arial', 'DejaVu Sans', sans-serif; text-anchor: start" x="539.544375" y="325.673326" transform="rotate(-0 539.544375 325.673326)">quantmsdiann (DIA-NN)</text>
    </g>
   </g>
  </g>
 </g>
 <defs>
  <clipPath id="pa976b0b607">
   <rect x="57.295938" y="7.2" width="862.9" height="236.0192"/>
  </clipPath>
 </defs>
</svg>
