<?xml version="1.0" encoding="utf-8" standalone="no"?>
<!DOCTYPE svg PUBLIC "-//W3C//DTD SVG 1.1//EN"
  "http://www.w3.org/Graphics/SVG/1.1/DTD/svg11.dtd">
<svg xmlns:xlink="http://www.w3.org/1999/xlink" width="531.266406pt" height="349.673639pt" viewBox="0 0 531.266406 349.673639" xmlns="http://www.w3.org/2000/svg" version="1.1">
 <metadata>
  <rdf:RDF xmlns:dc="http://purl.org/dc/elements/1.1/" xmlns:cc="http://creativecommons.org/ns#" xmlns:rdf="http://www.w3.org/1999/02/22-rdf-syntax-ns#">
   <cc:Work>
    <dc:type rdf:resource="http://purl.org/dc/dcmitype/StillImage"/>
    <dc:date>2026-06-12T12:19:13.018247</dc:date>
    <dc:format>image/svg+xml</dc:format>
    <dc:creator>
     <cc:Agent>
      <dc:title>Matplotlib v3.10.6, https://matplotlib.org/</dc:title>
     </cc:Agent>
    </dc:creator>
   </cc:Work>
  </rdf:RDF>
 </metadata>
 <defs>
  <style type="text/css">*{stroke-linejoin: round; stroke-linecap: butt}</style>
 </defs>
 <g id="figure_1">
  <g id="patch_1">
   <path d="M 0 349.673639 
L 531.266406 349.673639 
L 531.266406 0 
L 0 0 
z
" style="fill: #ffffff"/>
  </g>
  <g id="axes_1">
   <g id="patch_2">
    <path d="M 45.585 310.965826 
L 515.725 310.965826 
L 515.725 8.54288 
L 45.585 8.54288 
z
" style="fill: #ffffff"/>
   </g>
   <g id="matplotlib.axis_1">
    <g id="xtick_1">
     <g id="line2d_1">
      <defs>
       <path id="m1563288a66" d="M 0 0 
L 0 3.5 
" style="stroke: #000000; stroke-width: 0.8"/>
      </defs>
      <g>
       <use xlink:href="#m1563288a66" x="45.585" y="310.965826" style="stroke: #000000; stroke-width: 0.8"/>
      </g>
     </g>
     <g id="text_1">
      <text style="font-size: 10px; font-family: 'Helvetica', 'Arial', 'DejaVu Sans', sans-serif; text-anchor: middle" x="45.585" y="325.139264" transform="rotate(-0 45.585 325.139264)">0</text>
     </g>
    </g>
    <g id="xtick_2">
     <g id="line2d_2">
      <g>
       <use xlink:href="#m1563288a66" x="139.613" y="310.965826" style="stroke: #000000; stroke-width: 0.8"/>
      </g>
     </g>
     <g id="text_2">
      <text style="font-size: 10px; font-family: 'Helvetica', 'Arial', 'DejaVu Sans', sans-serif; text-anchor: middle" x="139.613" y="325.139264" transform="rotate(-0 139.613 325.139264)">20</text>
     </g>
    </g>
    <g id="xtick_3">
     <g id="line2d_3">
      <g>
       <use xlink:href="#m1563288a66" x="233.641" y="310.965826" style="stroke: #000000; stroke-width: 0.8"/>
      </g>
     </g>
     <g id="text_3">
      <text style="font-size: 10px; font-family: 'Helvetica', 'Arial', 'DejaVu Sans', sans-serif; text-anchor: middle" x="233.641" y="325.139264" transform="rotate(-0 233.641 325.139264)">40</text>
     </g>
    </g>
    <g id="xtick_4">
     <g id="line2d_4">
      <g>
       <use xlink:href="#m1563288a66" x="327.669" y="310.965826" style="stroke: #000000; stroke-width: 0.8"/>
      </g>
     </g>
     <g id="text_4">
      <text style="font-size: 10px; font-family: 'Helvetica', 'Arial', 'DejaVu Sans', sans-serif; text-anchor: middle" x="327.669" y="325.139264" transform="rotate(-0 327.669 325.139264)">60</text>
     </g>
    </g>
    <g id="xtick_5">
     <g id="line2d_5">
      <g>
       <use xlink:href="#m1563288a66" x="421.697" y="310.965826" style="stroke: #000000; stroke-width: 0.8"/>
      </g>
     </g>
     <g id="text_5">
      <text style="font-size: 10px; font-family: 'Helvetica', 'Arial', 'DejaVu Sans', sans-serif; text-anchor: middle" x="421.697" y="325.139264" transform="rotate(-0 421.697 325.139264)">80</text>
     </g>
    </g>
    <g id="xtick_6">
     <g id="line2d_6">
      <g>
       <use xlink:href="#m1563288a66" x="515.725" y="310.965826" style="stroke: #000000; stroke-width: 0.8"/>
      </g>
     </g>
     <g id="text_6">
      <text style="font-size: 10px; font-family: 'Helvetica', 'Arial', 'DejaVu Sans', sans-serif; text-anchor: middle" x="515.725" y="325.139264" transform="rotate(-0 515.725 325.139264)">100</text>
     </g>
    </g>
    <g id="text_7">
     <text style="font-size: 12px; font-family: 'Helvetica', 'Arial', 'DejaVu Sans', sans-serif; text-anchor: middle" x="280.655" y="339.972389" transform="rotate(-0 280.655 339.972389)">Detected in ≥ X% of runs (data completeness)</text>
    </g>
   </g>
   <g id="matplotlib.axis_2">
    <g id="ytick_1">
     <g id="line2d_7">
      <defs>
       <path id="m23963aa348" d="M 0 0 
L -3.5 0 
" style="stroke: #000000; stroke-width: 0.8"/>
      </defs>
      <g>
       <use xlink:href="#m23963aa348" x="45.585" y="310.965826" style="stroke: #000000; stroke-width: 0.8"/>
      </g>
     </g>
     <g id="text_8">
      <text style="font-size: 10px; font-family: 'Helvetica', 'Arial', 'DejaVu Sans', sans-serif; text-anchor: end" x="38.585" y="314.552545" transform="rotate(-0 38.585 314.552545)">0</text>
     </g>
    </g>
    <g id="ytick_2">
     <g id="line2d_8">
      <g>
       <use xlink:href="#m23963aa348" x="45.585" y="250.930005" style="stroke: #000000; stroke-width: 0.8"/>
      </g>
     </g>
     <g id="text_9">
      <text style="font-size: 10px; font-family: 'Helvetica', 'Arial', 'DejaVu Sans', sans-serif; text-anchor: end" x="38.585" y="254.516723" transform="rotate(-0 38.585 254.516723)">2k</text>
     </g>
    </g>
    <g id="ytick_3">
     <g id="line2d_9">
      <g>
       <use xlink:href="#m23963aa348" x="45.585" y="190.894183" style="stroke: #000000; stroke-width: 0.8"/>
      </g>
     </g>
     <g id="text_10">
      <text style="font-size: 10px; font-family: 'Helvetica', 'Arial', 'DejaVu Sans', sans-serif; text-anchor: end" x="38.585" y="194.480902" transform="rotate(-0 38.585 194.480902)">4k</text>
     </g>
    </g>
    <g id="ytick_4">
     <g id="line2d_10">
      <g>
       <use xlink:href="#m23963aa348" x="45.585" y="130.858362" style="stroke: #000000; stroke-width: 0.8"/>
      </g>
     </g>
     <g id="text_11">
      <text style="font-size: 10px; font-family: 'Helvetica', 'Arial', 'DejaVu Sans', sans-serif; text-anchor: end" x="38.585" y="134.44508" transform="rotate(-0 38.585 134.44508)">6k</text>
     </g>
    </g>
    <g id="ytick_5">
     <g id="line2d_11">
      <g>
       <use xlink:href="#m23963aa348" x="45.585" y="70.82254" style="stroke: #000000; stroke-width: 0.8"/>
      </g>
     </g>
     <g id="text_12">
      <text style="font-size: 10px; font-family: 'Helvetica', 'Arial', 'DejaVu Sans', sans-serif; text-anchor: end" x="38.585" y="74.409259" transform="rotate(-0 38.585 74.409259)">8k</text>
     </g>
    </g>
    <g id="ytick_6">
     <g id="line2d_12">
      <g>
       <use xlink:href="#m23963aa348" x="45.585" y="10.786719" style="stroke: #000000; stroke-width: 0.8"/>
      </g>
     </g>
     <g id="text_13">
      <text style="font-size: 10px; font-family: 'Helvetica', 'Arial', 'DejaVu Sans', sans-serif; text-anchor: end" x="38.585" y="14.373437" transform="rotate(-0 38.585 14.373437)">10k</text>
     </g>
    </g>
    <g id="text_14">
     <text style="font-size: 12px; font-family: 'Helvetica', 'Arial', 'DejaVu Sans', sans-serif; text-anchor: middle" x="15.808125" y="159.754353" transform="rotate(-90 15.808125 159.754353)">Protein groups</text>
    </g>
   </g>
   <g id="line2d_13">
    <path d="M 45.585 55.873621 
L 50.2864 65.899603 
L 54.9878 73.434098 
L 59.6892 78.357036 
L 64.3906 82.799687 
L 69.092 88.533108 
L 73.7934 95.287137 
L 78.4948 100.840451 
L 83.1962 105.433191 
L 87.8976 110.236057 
L 92.599 114.528618 
L 97.3004 118.460965 
L 102.0018 122.093132 
L 106.7032 125.665263 
L 111.4046 129.147341 
L 116.106 132.779508 
L 120.8074 136.05146 
L 125.5088 139.023233 
L 130.2102 142.205132 
L 134.9116 144.876726 
L 139.613 147.668392 
L 144.3144 150.550111 
L 149.0158 153.431831 
L 153.7172 155.623138 
L 158.4186 157.694374 
L 163.12 159.855663 
L 167.8214 162.137025 
L 172.5228 163.697956 
L 177.2242 165.198852 
L 181.9256 167.720356 
L 186.627 170.121789 
L 191.3284 171.592667 
L 196.0298 173.453777 
L 200.7312 175.464977 
L 205.4326 176.935855 
L 210.134 178.526804 
L 214.8354 180.507986 
L 219.5368 181.948846 
L 224.2382 183.689885 
L 228.9396 185.310852 
L 233.641 186.901801 
L 238.3424 188.762912 
L 243.0438 190.233789 
L 247.7452 191.94481 
L 252.4466 193.445706 
L 257.148 195.156726 
L 261.8494 197.017837 
L 266.5508 198.428679 
L 271.2522 199.689431 
L 275.9536 200.950183 
L 280.655 202.57115 
L 285.3564 204.072046 
L 290.0578 205.422852 
L 294.7592 207.013801 
L 299.4606 208.03441 
L 304.162 209.295162 
L 308.8634 210.345789 
L 313.5648 211.636559 
L 318.2662 212.77724 
L 322.9676 214.128046 
L 327.669 215.478852 
L 332.3704 216.829658 
L 337.0718 218.2405 
L 341.7732 219.801431 
L 346.4746 220.611915 
L 351.176 222.022757 
L 355.8774 223.223473 
L 360.5788 225.054566 
L 365.2802 226.525443 
L 369.9816 228.026339 
L 374.683 229.677324 
L 379.3844 231.508416 
L 384.0858 233.249455 
L 388.7872 234.390136 
L 393.4886 235.77096 
L 398.19 237.001694 
L 402.8914 238.562625 
L 407.5928 240.033503 
L 412.2942 241.474363 
L 416.9956 242.825169 
L 421.697 244.236011 
L 426.3984 245.556799 
L 431.0998 246.727497 
L 435.8012 248.4085 
L 440.5026 249.909396 
L 445.204 251.530363 
L 449.9054 253.061276 
L 454.6068 255.102494 
L 459.3082 256.633408 
L 464.0096 258.434482 
L 468.711 260.265575 
L 473.4124 261.826506 
L 478.1138 263.717635 
L 482.8152 266.059032 
L 487.5166 268.340393 
L 492.218 271.072023 
L 496.9194 273.593527 
L 501.6208 277.015569 
L 506.3222 280.797826 
L 511.0236 286.351139 
L 515.725 304.031689 
" clip-path="url(#p0a84ab04f6)" style="fill: none; stroke: #9e9e9e; stroke-width: 1.8; stroke-linecap: square"/>
   </g>
   <g id="line2d_14">
    <path d="M 45.585 22.613776 
L 50.2864 63.468152 
L 54.9878 82.499508 
L 59.6892 95.437227 
L 64.3906 103.512045 
L 69.092 111.226648 
L 73.7934 117.110159 
L 78.4948 123.233812 
L 83.1962 128.306839 
L 87.8976 132.659436 
L 92.599 136.351639 
L 97.3004 139.65361 
L 102.0018 143.285777 
L 106.7032 145.807281 
L 111.4046 148.779054 
L 116.106 151.690792 
L 120.8074 154.182278 
L 125.5088 156.523675 
L 130.2102 158.564893 
L 134.9116 160.846255 
L 139.613 163.037562 
L 144.3144 165.168834 
L 149.0158 166.999926 
L 153.7172 168.831019 
L 158.4186 170.662111 
L 163.12 172.40315 
L 167.8214 174.084153 
L 172.5228 176.095353 
L 177.2242 177.656285 
L 181.9256 179.247234 
L 186.627 180.868201 
L 191.3284 182.399114 
L 196.0298 183.809956 
L 200.7312 185.130744 
L 205.4326 186.271425 
L 210.134 187.532177 
L 214.8354 189.393288 
L 219.5368 190.804129 
L 224.2382 192.154935 
L 228.9396 193.175544 
L 233.641 194.496332 
L 238.3424 195.667031 
L 243.0438 196.867747 
L 247.7452 198.218553 
L 252.4466 199.689431 
L 257.148 201.010219 
L 261.8494 201.730649 
L 266.5508 202.87133 
L 271.2522 204.192118 
L 275.9536 205.062637 
L 280.655 206.353407 
L 285.3564 207.343998 
L 290.0578 208.394625 
L 294.7592 209.715413 
L 299.4606 211.006183 
L 304.162 212.507079 
L 308.8634 213.377598 
L 313.5648 214.878494 
L 318.2662 216.109228 
L 322.9676 217.159855 
L 327.669 218.570697 
L 332.3704 219.471234 
L 337.0718 220.431807 
L 341.7732 221.602506 
L 346.4746 222.503043 
L 351.176 223.613706 
L 355.8774 225.114601 
L 360.5788 226.195246 
L 365.2802 227.215855 
L 369.9816 228.386554 
L 374.683 229.407163 
L 379.3844 230.577861 
L 384.0858 231.838613 
L 388.7872 232.949276 
L 393.4886 234.089957 
L 398.19 235.110566 
L 402.8914 236.131175 
L 407.5928 237.361909 
L 412.2942 238.622661 
L 416.9956 240.003485 
L 421.697 241.444345 
L 426.3984 242.975258 
L 431.0998 244.326064 
L 435.8012 245.466745 
L 440.5026 246.997658 
L 445.204 248.708679 
L 449.9054 250.179557 
L 454.6068 252.130721 
L 459.3082 253.931796 
L 464.0096 255.252584 
L 468.711 257.023641 
L 473.4124 258.584572 
L 478.1138 259.725252 
L 482.8152 261.556345 
L 487.5166 263.537527 
L 492.218 265.398638 
L 496.9194 268.490482 
L 501.6208 272.002578 
L 506.3222 276.205085 
L 511.0236 281.698363 
L 515.725 301.420131 
" clip-path="url(#p0a84ab04f6)" style="fill: none; stroke: #0072b2; stroke-width: 1.8; stroke-linecap: square"/>
   </g>
   <g id="patch_3">
    <path d="M 45.585 310.965826 
L 45.585 8.54288 
" style="fill: none; stroke: #000000; stroke-width: 0.8; stroke-linejoin: miter; stroke-linecap: square"/>
   </g>
   <g id="patch_4">
    <path d="M 45.585 310.965826 
L 515.725 310.965826 
" style="fill: none; stroke: #000000; stroke-width: 0.8; stroke-linejoin: miter; stroke-linecap: square"/>
   </g>
   <g id="legend_1">
    <g id="line2d_15">
     <path d="M 245.267188 21.41163 
L 255.267188 21.41163 
L 265.267187 21.41163 
" style="fill: none; stroke: #9e9e9e; stroke-width: 1.8; stroke-linecap: square"/>
    </g>
    <g id="text_15">
     <text style="font-size: 10px; font-family: 'Helvetica', 'Arial', 'DejaVu Sans', sans-serif; text-anchor: start" x="273.267187" y="24.91163" transform="rotate(-0 273.267187 24.91163)">ProCan-DepMapSanger 2022 (8,498 protein groups)</text>
    </g>
    <g id="line2d_16">
     <path d="M 245.267188 35.914755 
L 255.267188 35.914755 
L 265.267187 35.914755 
" style="fill: none; stroke: #0072b2; stroke-width: 1.8; stroke-linecap: square"/>
    </g>
    <g id="text_16">
     <text style="font-size: 10px; font-family: 'Helvetica', 'Arial', 'DejaVu Sans', sans-serif; text-anchor: start" x="273.267187" y="39.414755" transform="rotate(-0 273.267187 39.414755)">quantmsdiann (DIA-NN) (9,606 protein groups)</text>
    </g>
   </g>
  </g>
 </g>
 <defs>
  <clipPath id="p0a84ab04f6">
   <rect x="45.585" y="8.54288" width="470.14" height="302.422946"/>
  </clipPath>
 </defs>
</svg>
