<?xml version="1.0" encoding="utf-8" standalone="no"?>
<!DOCTYPE svg PUBLIC "-//W3C//DTD SVG 1.1//EN"
  "http://www.w3.org/Graphics/SVG/1.1/DTD/svg11.dtd">
<svg xmlns:xlink="http://www.w3.org/1999/xlink" width="936pt" height="468pt" viewBox="0 0 936 468" xmlns="http://www.w3.org/2000/svg" version="1.1">
 <metadata>
  <rdf:RDF xmlns:dc="http://purl.org/dc/elements/1.1/" xmlns:cc="http://creativecommons.org/ns#" xmlns:rdf="http://www.w3.org/1999/02/22-rdf-syntax-ns#">
   <cc:Work>
    <dc:type rdf:resource="http://purl.org/dc/dcmitype/StillImage"/>
    <dc:date>2026-05-19T15:01:19.391114</dc:date>
    <dc:format>image/svg+xml</dc:format>
    <dc:creator>
     <cc:Agent>
      <dc:title>Matplotlib v3.10.6, https://matplotlib.org/</dc:title>
     </cc:Agent>
    </dc:creator>
   </cc:Work>
  </rdf:RDF>
 </metadata>
 <defs>
  <style type="text/css">*{stroke-linejoin: round; stroke-linecap: butt}</style>
 </defs>
 <g id="figure_1">
  <g id="patch_1">
   <path d="M 0 468 
L 936 468 
L 936 0 
L 0 0 
z
" style="fill: #ffffff"/>
  </g>
  <g id="axes_1">
   <g id="patch_2">
    <path d="M 63.47 248.9792 
L 925.2 248.9792 
L 925.2 10.8 
L 63.47 10.8 
z
" style="fill: #ffffff"/>
   </g>
   <g id="patch_3">
    <path d="M 102.639545 248.9792 
L 113.911357 248.9792 
L 113.911357 50.856389 
L 102.639545 50.856389 
z
" clip-path="url(#p2eb9182f60)" style="fill: #9e9e9e"/>
   </g>
   <g id="patch_4">
    <path d="M 130.819075 248.9792 
L 142.090886 248.9792 
L 142.090886 53.468532 
L 130.819075 53.468532 
z
" clip-path="url(#p2eb9182f60)" style="fill: #9e9e9e"/>
   </g>
   <g id="patch_5">
    <path d="M 158.998604 248.9792 
L 170.270415 248.9792 
L 170.270415 56.974923 
L 158.998604 56.974923 
z
" clip-path="url(#p2eb9182f60)" style="fill: #9e9e9e"/>
   </g>
   <g id="patch_6">
    <path d="M 187.178133 248.9792 
L 198.449944 248.9792 
L 198.449944 58.645753 
L 187.178133 58.645753 
z
" clip-path="url(#p2eb9182f60)" style="fill: #9e9e9e"/>
   </g>
   <g id="patch_7">
    <path d="M 215.357662 248.9792 
L 226.629474 248.9792 
L 226.629474 58.45749 
L 215.357662 58.45749 
z
" clip-path="url(#p2eb9182f60)" style="fill: #9e9e9e"/>
   </g>
   <g id="patch_8">
    <path d="M 243.537191 248.9792 
L 254.809003 248.9792 
L 254.809003 59.37527 
L 243.537191 59.37527 
z
" clip-path="url(#p2eb9182f60)" style="fill: #9e9e9e"/>
   </g>
   <g id="patch_9">
    <path d="M 271.71672 248.9792 
L 282.988532 248.9792 
L 282.988532 58.763417 
L 271.71672 58.763417 
z
" clip-path="url(#p2eb9182f60)" style="fill: #9e9e9e"/>
   </g>
   <g id="patch_10">
    <path d="M 299.896249 248.9792 
L 311.168061 248.9792 
L 311.168061 59.257606 
L 299.896249 59.257606 
z
" clip-path="url(#p2eb9182f60)" style="fill: #9e9e9e"/>
   </g>
   <g id="patch_11">
    <path d="M 328.075778 248.9792 
L 339.34759 248.9792 
L 339.34759 59.422336 
L 328.075778 59.422336 
z
" clip-path="url(#p2eb9182f60)" style="fill: #9e9e9e"/>
   </g>
   <g id="patch_12">
    <path d="M 356.255307 248.9792 
L 367.527119 248.9792 
L 367.527119 60.598977 
L 356.255307 60.598977 
z
" clip-path="url(#p2eb9182f60)" style="fill: #9e9e9e"/>
   </g>
   <g id="patch_13">
    <path d="M 384.434836 248.9792 
L 395.706648 248.9792 
L 395.706648 62.411004 
L 384.434836 62.411004 
z
" clip-path="url(#p2eb9182f60)" style="fill: #9e9e9e"/>
   </g>
   <g id="patch_14">
    <path d="M 412.614366 248.9792 
L 423.886177 248.9792 
L 423.886177 62.928726 
L 412.614366 62.928726 
z
" clip-path="url(#p2eb9182f60)" style="fill: #9e9e9e"/>
   </g>
   <g id="patch_15">
    <path d="M 440.793895 248.9792 
L 452.065706 248.9792 
L 452.065706 62.669865 
L 440.793895 62.669865 
z
" clip-path="url(#p2eb9182f60)" style="fill: #9e9e9e"/>
   </g>
   <g id="patch_16">
    <path d="M 468.973424 248.9792 
L 480.245235 248.9792 
L 480.245235 63.917104 
L 468.973424 63.917104 
z
" clip-path="url(#p2eb9182f60)" style="fill: #9e9e9e"/>
   </g>
   <g id="patch_17">
    <path d="M 497.152953 248.9792 
L 508.424765 248.9792 
L 508.424765 64.999614 
L 497.152953 64.999614 
z
" clip-path="url(#p2eb9182f60)" style="fill: #9e9e9e"/>
   </g>
   <g id="patch_18">
    <path d="M 525.332482 248.9792 
L 536.604294 248.9792 
L 536.604294 66.835174 
L 525.332482 66.835174 
z
" clip-path="url(#p2eb9182f60)" style="fill: #9e9e9e"/>
   </g>
   <g id="patch_19">
    <path d="M 553.512011 248.9792 
L 564.783823 248.9792 
L 564.783823 67.070502 
L 553.512011 67.070502 
z
" clip-path="url(#p2eb9182f60)" style="fill: #9e9e9e"/>
   </g>
   <g id="patch_20">
    <path d="M 581.69154 248.9792 
L 592.963352 248.9792 
L 592.963352 67.847085 
L 581.69154 67.847085 
z
" clip-path="url(#p2eb9182f60)" style="fill: #9e9e9e"/>
   </g>
   <g id="patch_21">
    <path d="M 609.871069 248.9792 
L 621.142881 248.9792 
L 621.142881 68.105946 
L 609.871069 68.105946 
z
" clip-path="url(#p2eb9182f60)" style="fill: #9e9e9e"/>
   </g>
   <g id="patch_22">
    <path d="M 638.050598 248.9792 
L 649.32241 248.9792 
L 649.32241 68.906062 
L 638.050598 68.906062 
z
" clip-path="url(#p2eb9182f60)" style="fill: #9e9e9e"/>
   </g>
   <g id="patch_23">
    <path d="M 666.230128 248.9792 
L 677.501939 248.9792 
L 677.501939 72.859576 
L 666.230128 72.859576 
z
" clip-path="url(#p2eb9182f60)" style="fill: #9e9e9e"/>
   </g>
   <g id="patch_24">
    <path d="M 694.409657 248.9792 
L 705.681468 248.9792 
L 705.681468 85.355503 
L 694.409657 85.355503 
z
" clip-path="url(#p2eb9182f60)" style="fill: #9e9e9e"/>
   </g>
   <g id="patch_25">
    <path d="M 722.589186 248.9792 
L 733.860997 248.9792 
L 733.860997 91.026913 
L 722.589186 91.026913 
z
" clip-path="url(#p2eb9182f60)" style="fill: #9e9e9e"/>
   </g>
   <g id="patch_26">
    <path d="M 750.768715 248.9792 
L 762.040526 248.9792 
L 762.040526 92.391816 
L 750.768715 92.391816 
z
" clip-path="url(#p2eb9182f60)" style="fill: #9e9e9e"/>
   </g>
   <g id="patch_27">
    <path d="M 778.948244 248.9792 
L 790.220056 248.9792 
L 790.220056 104.064095 
L 778.948244 104.064095 
z
" clip-path="url(#p2eb9182f60)" style="fill: #9e9e9e"/>
   </g>
   <g id="patch_28">
    <path d="M 807.127773 248.9792 
L 818.399585 248.9792 
L 818.399585 119.007436 
L 807.127773 119.007436 
z
" clip-path="url(#p2eb9182f60)" style="fill: #9e9e9e"/>
   </g>
   <g id="patch_29">
    <path d="M 835.307302 248.9792 
L 846.579114 248.9792 
L 846.579114 123.408073 
L 835.307302 123.408073 
z
" clip-path="url(#p2eb9182f60)" style="fill: #9e9e9e"/>
   </g>
   <g id="patch_30">
    <path d="M 863.486831 248.9792 
L 874.758643 248.9792 
L 874.758643 132.56234 
L 863.486831 132.56234 
z
" clip-path="url(#p2eb9182f60)" style="fill: #9e9e9e"/>
   </g>
   <g id="patch_31">
    <path d="M 113.911357 248.9792 
L 125.183169 248.9792 
L 125.183169 41.866852 
L 113.911357 41.866852 
z
" clip-path="url(#p2eb9182f60)" style="fill: #1f77b4"/>
   </g>
   <g id="patch_32">
    <path d="M 142.090886 248.9792 
L 153.362698 248.9792 
L 153.362698 49.44442 
L 142.090886 49.44442 
z
" clip-path="url(#p2eb9182f60)" style="fill: #1f77b4"/>
   </g>
   <g id="patch_33">
    <path d="M 170.270415 248.9792 
L 181.542227 248.9792 
L 181.542227 55.915946 
L 170.270415 55.915946 
z
" clip-path="url(#p2eb9182f60)" style="fill: #1f77b4"/>
   </g>
   <g id="patch_34">
    <path d="M 198.449944 248.9792 
L 209.721756 248.9792 
L 209.721756 61.37556 
L 198.449944 61.37556 
z
" clip-path="url(#p2eb9182f60)" style="fill: #1f77b4"/>
   </g>
   <g id="patch_35">
    <path d="M 226.629474 248.9792 
L 237.901285 248.9792 
L 237.901285 61.916815 
L 226.629474 61.916815 
z
" clip-path="url(#p2eb9182f60)" style="fill: #1f77b4"/>
   </g>
   <g id="patch_36">
    <path d="M 254.809003 248.9792 
L 266.080814 248.9792 
L 266.080814 61.469691 
L 254.809003 61.469691 
z
" clip-path="url(#p2eb9182f60)" style="fill: #1f77b4"/>
   </g>
   <g id="patch_37">
    <path d="M 282.988532 248.9792 
L 294.260343 248.9792 
L 294.260343 63.069923 
L 282.988532 63.069923 
z
" clip-path="url(#p2eb9182f60)" style="fill: #1f77b4"/>
   </g>
   <g id="patch_38">
    <path d="M 311.168061 248.9792 
L 322.439872 248.9792 
L 322.439872 64.1289 
L 311.168061 64.1289 
z
" clip-path="url(#p2eb9182f60)" style="fill: #1f77b4"/>
   </g>
   <g id="patch_39">
    <path d="M 339.34759 248.9792 
L 350.619402 248.9792 
L 350.619402 64.011236 
L 339.34759 64.011236 
z
" clip-path="url(#p2eb9182f60)" style="fill: #1f77b4"/>
   </g>
   <g id="patch_40">
    <path d="M 367.527119 248.9792 
L 378.798931 248.9792 
L 378.798931 65.517336 
L 367.527119 65.517336 
z
" clip-path="url(#p2eb9182f60)" style="fill: #1f77b4"/>
   </g>
   <g id="patch_41">
    <path d="M 395.706648 248.9792 
L 406.97846 248.9792 
L 406.97846 69.235522 
L 395.706648 69.235522 
z
" clip-path="url(#p2eb9182f60)" style="fill: #1f77b4"/>
   </g>
   <g id="patch_42">
    <path d="M 423.886177 248.9792 
L 435.157989 248.9792 
L 435.157989 68.858997 
L 423.886177 68.858997 
z
" clip-path="url(#p2eb9182f60)" style="fill: #1f77b4"/>
   </g>
   <g id="patch_43">
    <path d="M 452.065706 248.9792 
L 463.337518 248.9792 
L 463.337518 69.164923 
L 452.065706 69.164923 
z
" clip-path="url(#p2eb9182f60)" style="fill: #1f77b4"/>
   </g>
   <g id="patch_44">
    <path d="M 480.245235 248.9792 
L 491.517047 248.9792 
L 491.517047 71.824132 
L 480.245235 71.824132 
z
" clip-path="url(#p2eb9182f60)" style="fill: #1f77b4"/>
   </g>
   <g id="patch_45">
    <path d="M 508.424765 248.9792 
L 519.696576 248.9792 
L 519.696576 74.130348 
L 508.424765 74.130348 
z
" clip-path="url(#p2eb9182f60)" style="fill: #1f77b4"/>
   </g>
   <g id="patch_46">
    <path d="M 536.604294 248.9792 
L 547.876105 248.9792 
L 547.876105 73.989151 
L 536.604294 73.989151 
z
" clip-path="url(#p2eb9182f60)" style="fill: #1f77b4"/>
   </g>
   <g id="patch_47">
    <path d="M 564.783823 248.9792 
L 576.055634 248.9792 
L 576.055634 77.707337 
L 564.783823 77.707337 
z
" clip-path="url(#p2eb9182f60)" style="fill: #1f77b4"/>
   </g>
   <g id="patch_48">
    <path d="M 592.963352 248.9792 
L 604.235164 248.9792 
L 604.235164 76.977819 
L 592.963352 76.977819 
z
" clip-path="url(#p2eb9182f60)" style="fill: #1f77b4"/>
   </g>
   <g id="patch_49">
    <path d="M 621.142881 248.9792 
L 632.414693 248.9792 
L 632.414693 77.848534 
L 621.142881 77.848534 
z
" clip-path="url(#p2eb9182f60)" style="fill: #1f77b4"/>
   </g>
   <g id="patch_50">
    <path d="M 649.32241 248.9792 
L 660.594222 248.9792 
L 660.594222 77.56614 
L 649.32241 77.56614 
z
" clip-path="url(#p2eb9182f60)" style="fill: #1f77b4"/>
   </g>
   <g id="patch_51">
    <path d="M 677.501939 248.9792 
L 688.773751 248.9792 
L 688.773751 84.178862 
L 677.501939 84.178862 
z
" clip-path="url(#p2eb9182f60)" style="fill: #1f77b4"/>
   </g>
   <g id="patch_52">
    <path d="M 705.681468 248.9792 
L 716.95328 248.9792 
L 716.95328 99.286933 
L 705.681468 99.286933 
z
" clip-path="url(#p2eb9182f60)" style="fill: #1f77b4"/>
   </g>
   <g id="patch_53">
    <path d="M 733.860997 248.9792 
L 745.132809 248.9792 
L 745.132809 105.028941 
L 733.860997 105.028941 
z
" clip-path="url(#p2eb9182f60)" style="fill: #1f77b4"/>
   </g>
   <g id="patch_54">
    <path d="M 762.040526 248.9792 
L 773.312338 248.9792 
L 773.312338 110.347358 
L 762.040526 110.347358 
z
" clip-path="url(#p2eb9182f60)" style="fill: #1f77b4"/>
   </g>
   <g id="patch_55">
    <path d="M 790.220056 248.9792 
L 801.491867 248.9792 
L 801.491867 118.37205 
L 790.220056 118.37205 
z
" clip-path="url(#p2eb9182f60)" style="fill: #1f77b4"/>
   </g>
   <g id="patch_56">
    <path d="M 818.399585 248.9792 
L 829.671396 248.9792 
L 829.671396 132.138749 
L 818.399585 132.138749 
z
" clip-path="url(#p2eb9182f60)" style="fill: #1f77b4"/>
   </g>
   <g id="patch_57">
    <path d="M 846.579114 248.9792 
L 857.850925 248.9792 
L 857.850925 132.844734 
L 846.579114 132.844734 
z
" clip-path="url(#p2eb9182f60)" style="fill: #1f77b4"/>
   </g>
   <g id="patch_58">
    <path d="M 874.758643 248.9792 
L 886.030455 248.9792 
L 886.030455 143.081511 
L 874.758643 143.081511 
z
" clip-path="url(#p2eb9182f60)" style="fill: #1f77b4"/>
   </g>
   <g id="matplotlib.axis_1">
    <g id="xtick_1">
     <g id="line2d_1">
      <defs>
       <path id="m5b88adad25" d="M 0 0 
L 0 3.5 
" style="stroke: #000000; stroke-width: 0.8"/>
      </defs>
      <g>
       <use xlink:href="#m5b88adad25" x="113.911357" y="248.9792" style="stroke: #000000; stroke-width: 0.8"/>
      </g>
     </g>
     <g id="text_1">
      <!-- Lung -->
      <g transform="translate(96.160593 271.011677) rotate(-30) scale(0.08 -0.08)">
       <defs>
        <path id="DejaVuSans-4c" d="M 628 4666 
L 1259 4666 
L 1259 531 
L 3531 531 
L 3531 0 
L 628 0 
L 628 4666 
z
" transform="scale(0.015625)"/>
        <path id="DejaVuSans-75" d="M 544 1381 
L 544 3500 
L 1119 3500 
L 1119 1403 
Q 1119 906 1312 657 
Q 1506 409 1894 409 
Q 2359 409 2629 706 
Q 2900 1003 2900 1516 
L 2900 3500 
L 3475 3500 
L 3475 0 
L 2900 0 
L 2900 538 
Q 2691 219 2414 64 
Q 2138 -91 1772 -91 
Q 1169 -91 856 284 
Q 544 659 544 1381 
z
M 1991 3584 
L 1991 3584 
z
" transform="scale(0.015625)"/>
        <path id="DejaVuSans-6e" d="M 3513 2113 
L 3513 0 
L 2938 0 
L 2938 2094 
Q 2938 2591 2744 2837 
Q 2550 3084 2163 3084 
Q 1697 3084 1428 2787 
Q 1159 2491 1159 1978 
L 1159 0 
L 581 0 
L 581 3500 
L 1159 3500 
L 1159 2956 
Q 1366 3272 1645 3428 
Q 1925 3584 2291 3584 
Q 2894 3584 3203 3211 
Q 3513 2838 3513 2113 
z
" transform="scale(0.015625)"/>
        <path id="DejaVuSans-67" d="M 2906 1791 
Q 2906 2416 2648 2759 
Q 2391 3103 1925 3103 
Q 1463 3103 1205 2759 
Q 947 2416 947 1791 
Q 947 1169 1205 825 
Q 1463 481 1925 481 
Q 2391 481 2648 825 
Q 2906 1169 2906 1791 
z
M 3481 434 
Q 3481 -459 3084 -895 
Q 2688 -1331 1869 -1331 
Q 1566 -1331 1297 -1286 
Q 1028 -1241 775 -1147 
L 775 -588 
Q 1028 -725 1275 -790 
Q 1522 -856 1778 -856 
Q 2344 -856 2625 -561 
Q 2906 -266 2906 331 
L 2906 616 
Q 2728 306 2450 153 
Q 2172 0 1784 0 
Q 1141 0 747 490 
Q 353 981 353 1791 
Q 353 2603 747 3093 
Q 1141 3584 1784 3584 
Q 2172 3584 2450 3431 
Q 2728 3278 2906 2969 
L 2906 3500 
L 3481 3500 
L 3481 434 
z
" transform="scale(0.015625)"/>
       </defs>
       <use xlink:href="#DejaVuSans-4c"/>
       <use xlink:href="#DejaVuSans-75" transform="translate(53.962891 0)"/>
       <use xlink:href="#DejaVuSans-6e" transform="translate(117.341797 0)"/>
       <use xlink:href="#DejaVuSans-67" transform="translate(180.720703 0)"/>
      </g>
     </g>
    </g>
    <g id="xtick_2">
     <g id="line2d_2">
      <g>
       <use xlink:href="#m5b88adad25" x="142.090886" y="248.9792" style="stroke: #000000; stroke-width: 0.8"/>
      </g>
     </g>
     <g id="text_2">
      <!-- Haematopoietic and Lymphoid -->
      <g transform="translate(35.448027 322.333552) rotate(-30) scale(0.08 -0.08)">
       <defs>
        <path id="DejaVuSans-48" d="M 628 4666 
L 1259 4666 
L 1259 2753 
L 3553 2753 
L 3553 4666 
L 4184 4666 
L 4184 0 
L 3553 0 
L 3553 2222 
L 1259 2222 
L 1259 0 
L 628 0 
L 628 4666 
z
" transform="scale(0.015625)"/>
        <path id="DejaVuSans-61" d="M 2194 1759 
Q 1497 1759 1228 1600 
Q 959 1441 959 1056 
Q 959 750 1161 570 
Q 1363 391 1709 391 
Q 2188 391 2477 730 
Q 2766 1069 2766 1631 
L 2766 1759 
L 2194 1759 
z
M 3341 1997 
L 3341 0 
L 2766 0 
L 2766 531 
Q 2569 213 2275 61 
Q 1981 -91 1556 -91 
Q 1019 -91 701 211 
Q 384 513 384 1019 
Q 384 1609 779 1909 
Q 1175 2209 1959 2209 
L 2766 2209 
L 2766 2266 
Q 2766 2663 2505 2880 
Q 2244 3097 1772 3097 
Q 1472 3097 1187 3025 
Q 903 2953 641 2809 
L 641 3341 
Q 956 3463 1253 3523 
Q 1550 3584 1831 3584 
Q 2591 3584 2966 3190 
Q 3341 2797 3341 1997 
z
" transform="scale(0.015625)"/>
        <path id="DejaVuSans-65" d="M 3597 1894 
L 3597 1613 
L 953 1613 
Q 991 1019 1311 708 
Q 1631 397 2203 397 
Q 2534 397 2845 478 
Q 3156 559 3463 722 
L 3463 178 
Q 3153 47 2828 -22 
Q 2503 -91 2169 -91 
Q 1331 -91 842 396 
Q 353 884 353 1716 
Q 353 2575 817 3079 
Q 1281 3584 2069 3584 
Q 2775 3584 3186 3129 
Q 3597 2675 3597 1894 
z
M 3022 2063 
Q 3016 2534 2758 2815 
Q 2500 3097 2075 3097 
Q 1594 3097 1305 2825 
Q 1016 2553 972 2059 
L 3022 2063 
z
" transform="scale(0.015625)"/>
        <path id="DejaVuSans-6d" d="M 3328 2828 
Q 3544 3216 3844 3400 
Q 4144 3584 4550 3584 
Q 5097 3584 5394 3201 
Q 5691 2819 5691 2113 
L 5691 0 
L 5113 0 
L 5113 2094 
Q 5113 2597 4934 2840 
Q 4756 3084 4391 3084 
Q 3944 3084 3684 2787 
Q 3425 2491 3425 1978 
L 3425 0 
L 2847 0 
L 2847 2094 
Q 2847 2600 2669 2842 
Q 2491 3084 2119 3084 
Q 1678 3084 1418 2786 
Q 1159 2488 1159 1978 
L 1159 0 
L 581 0 
L 581 3500 
L 1159 3500 
L 1159 2956 
Q 1356 3278 1631 3431 
Q 1906 3584 2284 3584 
Q 2666 3584 2933 3390 
Q 3200 3197 3328 2828 
z
" transform="scale(0.015625)"/>
        <path id="DejaVuSans-74" d="M 1172 4494 
L 1172 3500 
L 2356 3500 
L 2356 3053 
L 1172 3053 
L 1172 1153 
Q 1172 725 1289 603 
Q 1406 481 1766 481 
L 2356 481 
L 2356 0 
L 1766 0 
Q 1100 0 847 248 
Q 594 497 594 1153 
L 594 3053 
L 172 3053 
L 172 3500 
L 594 3500 
L 594 4494 
L 1172 4494 
z
" transform="scale(0.015625)"/>
        <path id="DejaVuSans-6f" d="M 1959 3097 
Q 1497 3097 1228 2736 
Q 959 2375 959 1747 
Q 959 1119 1226 758 
Q 1494 397 1959 397 
Q 2419 397 2687 759 
Q 2956 1122 2956 1747 
Q 2956 2369 2687 2733 
Q 2419 3097 1959 3097 
z
M 1959 3584 
Q 2709 3584 3137 3096 
Q 3566 2609 3566 1747 
Q 3566 888 3137 398 
Q 2709 -91 1959 -91 
Q 1206 -91 779 398 
Q 353 888 353 1747 
Q 353 2609 779 3096 
Q 1206 3584 1959 3584 
z
" transform="scale(0.015625)"/>
        <path id="DejaVuSans-70" d="M 1159 525 
L 1159 -1331 
L 581 -1331 
L 581 3500 
L 1159 3500 
L 1159 2969 
Q 1341 3281 1617 3432 
Q 1894 3584 2278 3584 
Q 2916 3584 3314 3078 
Q 3713 2572 3713 1747 
Q 3713 922 3314 415 
Q 2916 -91 2278 -91 
Q 1894 -91 1617 61 
Q 1341 213 1159 525 
z
M 3116 1747 
Q 3116 2381 2855 2742 
Q 2594 3103 2138 3103 
Q 1681 3103 1420 2742 
Q 1159 2381 1159 1747 
Q 1159 1113 1420 752 
Q 1681 391 2138 391 
Q 2594 391 2855 752 
Q 3116 1113 3116 1747 
z
" transform="scale(0.015625)"/>
        <path id="DejaVuSans-69" d="M 603 3500 
L 1178 3500 
L 1178 0 
L 603 0 
L 603 3500 
z
M 603 4863 
L 1178 4863 
L 1178 4134 
L 603 4134 
L 603 4863 
z
" transform="scale(0.015625)"/>
        <path id="DejaVuSans-63" d="M 3122 3366 
L 3122 2828 
Q 2878 2963 2633 3030 
Q 2388 3097 2138 3097 
Q 1578 3097 1268 2742 
Q 959 2388 959 1747 
Q 959 1106 1268 751 
Q 1578 397 2138 397 
Q 2388 397 2633 464 
Q 2878 531 3122 666 
L 3122 134 
Q 2881 22 2623 -34 
Q 2366 -91 2075 -91 
Q 1284 -91 818 406 
Q 353 903 353 1747 
Q 353 2603 823 3093 
Q 1294 3584 2113 3584 
Q 2378 3584 2631 3529 
Q 2884 3475 3122 3366 
z
" transform="scale(0.015625)"/>
        <path id="DejaVuSans-20" transform="scale(0.015625)"/>
        <path id="DejaVuSans-64" d="M 2906 2969 
L 2906 4863 
L 3481 4863 
L 3481 0 
L 2906 0 
L 2906 525 
Q 2725 213 2448 61 
Q 2172 -91 1784 -91 
Q 1150 -91 751 415 
Q 353 922 353 1747 
Q 353 2572 751 3078 
Q 1150 3584 1784 3584 
Q 2172 3584 2448 3432 
Q 2725 3281 2906 2969 
z
M 947 1747 
Q 947 1113 1208 752 
Q 1469 391 1925 391 
Q 2381 391 2643 752 
Q 2906 1113 2906 1747 
Q 2906 2381 2643 2742 
Q 2381 3103 1925 3103 
Q 1469 3103 1208 2742 
Q 947 2381 947 1747 
z
" transform="scale(0.015625)"/>
        <path id="DejaVuSans-79" d="M 2059 -325 
Q 1816 -950 1584 -1140 
Q 1353 -1331 966 -1331 
L 506 -1331 
L 506 -850 
L 844 -850 
Q 1081 -850 1212 -737 
Q 1344 -625 1503 -206 
L 1606 56 
L 191 3500 
L 800 3500 
L 1894 763 
L 2988 3500 
L 3597 3500 
L 2059 -325 
z
" transform="scale(0.015625)"/>
        <path id="DejaVuSans-68" d="M 3513 2113 
L 3513 0 
L 2938 0 
L 2938 2094 
Q 2938 2591 2744 2837 
Q 2550 3084 2163 3084 
Q 1697 3084 1428 2787 
Q 1159 2491 1159 1978 
L 1159 0 
L 581 0 
L 581 4863 
L 1159 4863 
L 1159 2956 
Q 1366 3272 1645 3428 
Q 1925 3584 2291 3584 
Q 2894 3584 3203 3211 
Q 3513 2838 3513 2113 
z
" transform="scale(0.015625)"/>
       </defs>
       <use xlink:href="#DejaVuSans-48"/>
       <use xlink:href="#DejaVuSans-61" transform="translate(75.195312 0)"/>
       <use xlink:href="#DejaVuSans-65" transform="translate(136.474609 0)"/>
       <use xlink:href="#DejaVuSans-6d" transform="translate(197.998047 0)"/>
       <use xlink:href="#DejaVuSans-61" transform="translate(295.410156 0)"/>
       <use xlink:href="#DejaVuSans-74" transform="translate(356.689453 0)"/>
       <use xlink:href="#DejaVuSans-6f" transform="translate(395.898438 0)"/>
       <use xlink:href="#DejaVuSans-70" transform="translate(457.080078 0)"/>
       <use xlink:href="#DejaVuSans-6f" transform="translate(520.556641 0)"/>
       <use xlink:href="#DejaVuSans-69" transform="translate(581.738281 0)"/>
       <use xlink:href="#DejaVuSans-65" transform="translate(609.521484 0)"/>
       <use xlink:href="#DejaVuSans-74" transform="translate(671.044922 0)"/>
       <use xlink:href="#DejaVuSans-69" transform="translate(710.253906 0)"/>
       <use xlink:href="#DejaVuSans-63" transform="translate(738.037109 0)"/>
       <use xlink:href="#DejaVuSans-20" transform="translate(793.017578 0)"/>
       <use xlink:href="#DejaVuSans-61" transform="translate(824.804688 0)"/>
       <use xlink:href="#DejaVuSans-6e" transform="translate(886.083984 0)"/>
       <use xlink:href="#DejaVuSans-64" transform="translate(949.462891 0)"/>
       <use xlink:href="#DejaVuSans-20" transform="translate(1012.939453 0)"/>
       <use xlink:href="#DejaVuSans-4c" transform="translate(1044.726562 0)"/>
       <use xlink:href="#DejaVuSans-79" transform="translate(1091.314453 0)"/>
       <use xlink:href="#DejaVuSans-6d" transform="translate(1150.494141 0)"/>
       <use xlink:href="#DejaVuSans-70" transform="translate(1247.90625 0)"/>
       <use xlink:href="#DejaVuSans-68" transform="translate(1311.382812 0)"/>
       <use xlink:href="#DejaVuSans-6f" transform="translate(1374.761719 0)"/>
       <use xlink:href="#DejaVuSans-69" transform="translate(1435.943359 0)"/>
       <use xlink:href="#DejaVuSans-64" transform="translate(1463.726562 0)"/>
      </g>
     </g>
    </g>
    <g id="xtick_3">
     <g id="line2d_3">
      <g>
       <use xlink:href="#m5b88adad25" x="170.270415" y="248.9792" style="stroke: #000000; stroke-width: 0.8"/>
      </g>
     </g>
     <g id="text_3">
      <!-- Breast -->
      <g transform="translate(147.158954 274.106677) rotate(-30) scale(0.08 -0.08)">
       <defs>
        <path id="DejaVuSans-42" d="M 1259 2228 
L 1259 519 
L 2272 519 
Q 2781 519 3026 730 
Q 3272 941 3272 1375 
Q 3272 1813 3026 2020 
Q 2781 2228 2272 2228 
L 1259 2228 
z
M 1259 4147 
L 1259 2741 
L 2194 2741 
Q 2656 2741 2882 2914 
Q 3109 3088 3109 3444 
Q 3109 3797 2882 3972 
Q 2656 4147 2194 4147 
L 1259 4147 
z
M 628 4666 
L 2241 4666 
Q 2963 4666 3353 4366 
Q 3744 4066 3744 3513 
Q 3744 3084 3544 2831 
Q 3344 2578 2956 2516 
Q 3422 2416 3680 2098 
Q 3938 1781 3938 1306 
Q 3938 681 3513 340 
Q 3088 0 2303 0 
L 628 0 
L 628 4666 
z
" transform="scale(0.015625)"/>
        <path id="DejaVuSans-72" d="M 2631 2963 
Q 2534 3019 2420 3045 
Q 2306 3072 2169 3072 
Q 1681 3072 1420 2755 
Q 1159 2438 1159 1844 
L 1159 0 
L 581 0 
L 581 3500 
L 1159 3500 
L 1159 2956 
Q 1341 3275 1631 3429 
Q 1922 3584 2338 3584 
Q 2397 3584 2469 3576 
Q 2541 3569 2628 3553 
L 2631 2963 
z
" transform="scale(0.015625)"/>
        <path id="DejaVuSans-73" d="M 2834 3397 
L 2834 2853 
Q 2591 2978 2328 3040 
Q 2066 3103 1784 3103 
Q 1356 3103 1142 2972 
Q 928 2841 928 2578 
Q 928 2378 1081 2264 
Q 1234 2150 1697 2047 
L 1894 2003 
Q 2506 1872 2764 1633 
Q 3022 1394 3022 966 
Q 3022 478 2636 193 
Q 2250 -91 1575 -91 
Q 1294 -91 989 -36 
Q 684 19 347 128 
L 347 722 
Q 666 556 975 473 
Q 1284 391 1588 391 
Q 1994 391 2212 530 
Q 2431 669 2431 922 
Q 2431 1156 2273 1281 
Q 2116 1406 1581 1522 
L 1381 1569 
Q 847 1681 609 1914 
Q 372 2147 372 2553 
Q 372 3047 722 3315 
Q 1072 3584 1716 3584 
Q 2034 3584 2315 3537 
Q 2597 3491 2834 3397 
z
" transform="scale(0.015625)"/>
       </defs>
       <use xlink:href="#DejaVuSans-42"/>
       <use xlink:href="#DejaVuSans-72" transform="translate(68.603516 0)"/>
       <use xlink:href="#DejaVuSans-65" transform="translate(107.466797 0)"/>
       <use xlink:href="#DejaVuSans-61" transform="translate(168.990234 0)"/>
       <use xlink:href="#DejaVuSans-73" transform="translate(230.269531 0)"/>
       <use xlink:href="#DejaVuSans-74" transform="translate(282.369141 0)"/>
      </g>
     </g>
    </g>
    <g id="xtick_4">
     <g id="line2d_4">
      <g>
       <use xlink:href="#m5b88adad25" x="198.449944" y="248.9792" style="stroke: #000000; stroke-width: 0.8"/>
      </g>
     </g>
     <g id="text_4">
      <!-- Large Intestine -->
      <g transform="translate(145.604584 291.273552) rotate(-30) scale(0.08 -0.08)">
       <defs>
        <path id="DejaVuSans-49" d="M 628 4666 
L 1259 4666 
L 1259 0 
L 628 0 
L 628 4666 
z
" transform="scale(0.015625)"/>
       </defs>
       <use xlink:href="#DejaVuSans-4c"/>
       <use xlink:href="#DejaVuSans-61" transform="translate(55.712891 0)"/>
       <use xlink:href="#DejaVuSans-72" transform="translate(116.992188 0)"/>
       <use xlink:href="#DejaVuSans-67" transform="translate(156.355469 0)"/>
       <use xlink:href="#DejaVuSans-65" transform="translate(219.832031 0)"/>
       <use xlink:href="#DejaVuSans-20" transform="translate(281.355469 0)"/>
       <use xlink:href="#DejaVuSans-49" transform="translate(313.142578 0)"/>
       <use xlink:href="#DejaVuSans-6e" transform="translate(342.634766 0)"/>
       <use xlink:href="#DejaVuSans-74" transform="translate(406.013672 0)"/>
       <use xlink:href="#DejaVuSans-65" transform="translate(445.222656 0)"/>
       <use xlink:href="#DejaVuSans-73" transform="translate(506.746094 0)"/>
       <use xlink:href="#DejaVuSans-74" transform="translate(558.845703 0)"/>
       <use xlink:href="#DejaVuSans-69" transform="translate(598.054688 0)"/>
       <use xlink:href="#DejaVuSans-6e" transform="translate(625.837891 0)"/>
       <use xlink:href="#DejaVuSans-65" transform="translate(689.216797 0)"/>
      </g>
     </g>
    </g>
    <g id="xtick_5">
     <g id="line2d_5">
      <g>
       <use xlink:href="#m5b88adad25" x="226.629474" y="248.9792" style="stroke: #000000; stroke-width: 0.8"/>
      </g>
     </g>
     <g id="text_5">
      <!-- Skin -->
      <g transform="translate(211.071919 269.745427) rotate(-30) scale(0.08 -0.08)">
       <defs>
        <path id="DejaVuSans-53" d="M 3425 4513 
L 3425 3897 
Q 3066 4069 2747 4153 
Q 2428 4238 2131 4238 
Q 1616 4238 1336 4038 
Q 1056 3838 1056 3469 
Q 1056 3159 1242 3001 
Q 1428 2844 1947 2747 
L 2328 2669 
Q 3034 2534 3370 2195 
Q 3706 1856 3706 1288 
Q 3706 609 3251 259 
Q 2797 -91 1919 -91 
Q 1588 -91 1214 -16 
Q 841 59 441 206 
L 441 856 
Q 825 641 1194 531 
Q 1563 422 1919 422 
Q 2459 422 2753 634 
Q 3047 847 3047 1241 
Q 3047 1584 2836 1778 
Q 2625 1972 2144 2069 
L 1759 2144 
Q 1053 2284 737 2584 
Q 422 2884 422 3419 
Q 422 4038 858 4394 
Q 1294 4750 2059 4750 
Q 2388 4750 2728 4690 
Q 3069 4631 3425 4513 
z
" transform="scale(0.015625)"/>
        <path id="DejaVuSans-6b" d="M 581 4863 
L 1159 4863 
L 1159 1991 
L 2875 3500 
L 3609 3500 
L 1753 1863 
L 3688 0 
L 2938 0 
L 1159 1709 
L 1159 0 
L 581 0 
L 581 4863 
z
" transform="scale(0.015625)"/>
       </defs>
       <use xlink:href="#DejaVuSans-53"/>
       <use xlink:href="#DejaVuSans-6b" transform="translate(63.476562 0)"/>
       <use xlink:href="#DejaVuSans-69" transform="translate(121.386719 0)"/>
       <use xlink:href="#DejaVuSans-6e" transform="translate(149.169922 0)"/>
      </g>
     </g>
    </g>
    <g id="xtick_6">
     <g id="line2d_6">
      <g>
       <use xlink:href="#m5b88adad25" x="254.809003" y="248.9792" style="stroke: #000000; stroke-width: 0.8"/>
      </g>
     </g>
     <g id="text_6">
      <!-- Stomach -->
      <g transform="translate(223.429164 278.880427) rotate(-30) scale(0.08 -0.08)">
       <use xlink:href="#DejaVuSans-53"/>
       <use xlink:href="#DejaVuSans-74" transform="translate(63.476562 0)"/>
       <use xlink:href="#DejaVuSans-6f" transform="translate(102.685547 0)"/>
       <use xlink:href="#DejaVuSans-6d" transform="translate(163.867188 0)"/>
       <use xlink:href="#DejaVuSans-61" transform="translate(261.279297 0)"/>
       <use xlink:href="#DejaVuSans-63" transform="translate(322.558594 0)"/>
       <use xlink:href="#DejaVuSans-68" transform="translate(377.539062 0)"/>
      </g>
     </g>
    </g>
    <g id="xtick_7">
     <g id="line2d_7">
      <g>
       <use xlink:href="#m5b88adad25" x="282.988532" y="248.9792" style="stroke: #000000; stroke-width: 0.8"/>
      </g>
     </g>
     <g id="text_7">
      <!-- Ovary -->
      <g transform="translate(261.407771 273.222927) rotate(-30) scale(0.08 -0.08)">
       <defs>
        <path id="DejaVuSans-4f" d="M 2522 4238 
Q 1834 4238 1429 3725 
Q 1025 3213 1025 2328 
Q 1025 1447 1429 934 
Q 1834 422 2522 422 
Q 3209 422 3611 934 
Q 4013 1447 4013 2328 
Q 4013 3213 3611 3725 
Q 3209 4238 2522 4238 
z
M 2522 4750 
Q 3503 4750 4090 4092 
Q 4678 3434 4678 2328 
Q 4678 1225 4090 567 
Q 3503 -91 2522 -91 
Q 1538 -91 948 565 
Q 359 1222 359 2328 
Q 359 3434 948 4092 
Q 1538 4750 2522 4750 
z
" transform="scale(0.015625)"/>
        <path id="DejaVuSans-76" d="M 191 3500 
L 800 3500 
L 1894 563 
L 2988 3500 
L 3597 3500 
L 2284 0 
L 1503 0 
L 191 3500 
z
" transform="scale(0.015625)"/>
       </defs>
       <use xlink:href="#DejaVuSans-4f"/>
       <use xlink:href="#DejaVuSans-76" transform="translate(78.710938 0)"/>
       <use xlink:href="#DejaVuSans-61" transform="translate(137.890625 0)"/>
       <use xlink:href="#DejaVuSans-72" transform="translate(199.169922 0)"/>
       <use xlink:href="#DejaVuSans-79" transform="translate(240.283203 0)"/>
      </g>
     </g>
    </g>
    <g id="xtick_8">
     <g id="line2d_8">
      <g>
       <use xlink:href="#m5b88adad25" x="311.168061" y="248.9792" style="stroke: #000000; stroke-width: 0.8"/>
      </g>
     </g>
     <g id="text_8">
      <!-- Bone -->
      <g transform="translate(292.689836 271.431677) rotate(-30) scale(0.08 -0.08)">
       <use xlink:href="#DejaVuSans-42"/>
       <use xlink:href="#DejaVuSans-6f" transform="translate(68.603516 0)"/>
       <use xlink:href="#DejaVuSans-6e" transform="translate(129.785156 0)"/>
       <use xlink:href="#DejaVuSans-65" transform="translate(193.164062 0)"/>
      </g>
     </g>
    </g>
    <g id="xtick_9">
     <g id="line2d_9">
      <g>
       <use xlink:href="#m5b88adad25" x="339.34759" y="248.9792" style="stroke: #000000; stroke-width: 0.8"/>
      </g>
     </g>
     <g id="text_9">
      <!-- Central Nervous System -->
      <g transform="translate(254.415988 309.798552) rotate(-30) scale(0.08 -0.08)">
       <defs>
        <path id="DejaVuSans-43" d="M 4122 4306 
L 4122 3641 
Q 3803 3938 3442 4084 
Q 3081 4231 2675 4231 
Q 1875 4231 1450 3742 
Q 1025 3253 1025 2328 
Q 1025 1406 1450 917 
Q 1875 428 2675 428 
Q 3081 428 3442 575 
Q 3803 722 4122 1019 
L 4122 359 
Q 3791 134 3420 21 
Q 3050 -91 2638 -91 
Q 1578 -91 968 557 
Q 359 1206 359 2328 
Q 359 3453 968 4101 
Q 1578 4750 2638 4750 
Q 3056 4750 3426 4639 
Q 3797 4528 4122 4306 
z
" transform="scale(0.015625)"/>
        <path id="DejaVuSans-6c" d="M 603 4863 
L 1178 4863 
L 1178 0 
L 603 0 
L 603 4863 
z
" transform="scale(0.015625)"/>
        <path id="DejaVuSans-4e" d="M 628 4666 
L 1478 4666 
L 3547 763 
L 3547 4666 
L 4159 4666 
L 4159 0 
L 3309 0 
L 1241 3903 
L 1241 0 
L 628 0 
L 628 4666 
z
" transform="scale(0.015625)"/>
       </defs>
       <use xlink:href="#DejaVuSans-43"/>
       <use xlink:href="#DejaVuSans-65" transform="translate(69.824219 0)"/>
       <use xlink:href="#DejaVuSans-6e" transform="translate(131.347656 0)"/>
       <use xlink:href="#DejaVuSans-74" transform="translate(194.726562 0)"/>
       <use xlink:href="#DejaVuSans-72" transform="translate(233.935547 0)"/>
       <use xlink:href="#DejaVuSans-61" transform="translate(275.048828 0)"/>
       <use xlink:href="#DejaVuSans-6c" transform="translate(336.328125 0)"/>
       <use xlink:href="#DejaVuSans-20" transform="translate(364.111328 0)"/>
       <use xlink:href="#DejaVuSans-4e" transform="translate(395.898438 0)"/>
       <use xlink:href="#DejaVuSans-65" transform="translate(470.703125 0)"/>
       <use xlink:href="#DejaVuSans-72" transform="translate(532.226562 0)"/>
       <use xlink:href="#DejaVuSans-76" transform="translate(573.339844 0)"/>
       <use xlink:href="#DejaVuSans-6f" transform="translate(632.519531 0)"/>
       <use xlink:href="#DejaVuSans-75" transform="translate(693.701172 0)"/>
       <use xlink:href="#DejaVuSans-73" transform="translate(757.080078 0)"/>
       <use xlink:href="#DejaVuSans-20" transform="translate(809.179688 0)"/>
       <use xlink:href="#DejaVuSans-53" transform="translate(840.966797 0)"/>
       <use xlink:href="#DejaVuSans-79" transform="translate(904.443359 0)"/>
       <use xlink:href="#DejaVuSans-73" transform="translate(963.623047 0)"/>
       <use xlink:href="#DejaVuSans-74" transform="translate(1015.722656 0)"/>
       <use xlink:href="#DejaVuSans-65" transform="translate(1054.931641 0)"/>
       <use xlink:href="#DejaVuSans-6d" transform="translate(1116.455078 0)"/>
      </g>
     </g>
    </g>
    <g id="xtick_10">
     <g id="line2d_10">
      <g>
       <use xlink:href="#m5b88adad25" x="367.527119" y="248.9792" style="stroke: #000000; stroke-width: 0.8"/>
      </g>
     </g>
     <g id="text_10">
      <!-- Esophagus -->
      <g transform="translate(329.036129 282.986052) rotate(-30) scale(0.08 -0.08)">
       <defs>
        <path id="DejaVuSans-45" d="M 628 4666 
L 3578 4666 
L 3578 4134 
L 1259 4134 
L 1259 2753 
L 3481 2753 
L 3481 2222 
L 1259 2222 
L 1259 531 
L 3634 531 
L 3634 0 
L 628 0 
L 628 4666 
z
" transform="scale(0.015625)"/>
       </defs>
       <use xlink:href="#DejaVuSans-45"/>
       <use xlink:href="#DejaVuSans-73" transform="translate(63.183594 0)"/>
       <use xlink:href="#DejaVuSans-6f" transform="translate(115.283203 0)"/>
       <use xlink:href="#DejaVuSans-70" transform="translate(176.464844 0)"/>
       <use xlink:href="#DejaVuSans-68" transform="translate(239.941406 0)"/>
       <use xlink:href="#DejaVuSans-61" transform="translate(303.320312 0)"/>
       <use xlink:href="#DejaVuSans-67" transform="translate(364.599609 0)"/>
       <use xlink:href="#DejaVuSans-75" transform="translate(428.076172 0)"/>
       <use xlink:href="#DejaVuSans-73" transform="translate(491.455078 0)"/>
      </g>
     </g>
    </g>
    <g id="xtick_11">
     <g id="line2d_11">
      <g>
       <use xlink:href="#m5b88adad25" x="395.706648" y="248.9792" style="stroke: #000000; stroke-width: 0.8"/>
      </g>
     </g>
     <g id="text_11">
      <!-- Head and Neck -->
      <g transform="translate(342.051554 291.741052) rotate(-30) scale(0.08 -0.08)">
       <use xlink:href="#DejaVuSans-48"/>
       <use xlink:href="#DejaVuSans-65" transform="translate(75.195312 0)"/>
       <use xlink:href="#DejaVuSans-61" transform="translate(136.71875 0)"/>
       <use xlink:href="#DejaVuSans-64" transform="translate(197.998047 0)"/>
       <use xlink:href="#DejaVuSans-20" transform="translate(261.474609 0)"/>
       <use xlink:href="#DejaVuSans-61" transform="translate(293.261719 0)"/>
       <use xlink:href="#DejaVuSans-6e" transform="translate(354.541016 0)"/>
       <use xlink:href="#DejaVuSans-64" transform="translate(417.919922 0)"/>
       <use xlink:href="#DejaVuSans-20" transform="translate(481.396484 0)"/>
       <use xlink:href="#DejaVuSans-4e" transform="translate(513.183594 0)"/>
       <use xlink:href="#DejaVuSans-65" transform="translate(587.988281 0)"/>
       <use xlink:href="#DejaVuSans-63" transform="translate(649.511719 0)"/>
       <use xlink:href="#DejaVuSans-6b" transform="translate(704.492188 0)"/>
      </g>
     </g>
    </g>
    <g id="xtick_12">
     <g id="line2d_12">
      <g>
       <use xlink:href="#m5b88adad25" x="423.886177" y="248.9792" style="stroke: #000000; stroke-width: 0.8"/>
      </g>
     </g>
     <g id="text_12">
      <!-- Peripheral Nervous System -->
      <g transform="translate(329.14792 315.460427) rotate(-30) scale(0.08 -0.08)">
       <defs>
        <path id="DejaVuSans-50" d="M 1259 4147 
L 1259 2394 
L 2053 2394 
Q 2494 2394 2734 2622 
Q 2975 2850 2975 3272 
Q 2975 3691 2734 3919 
Q 2494 4147 2053 4147 
L 1259 4147 
z
M 628 4666 
L 2053 4666 
Q 2838 4666 3239 4311 
Q 3641 3956 3641 3272 
Q 3641 2581 3239 2228 
Q 2838 1875 2053 1875 
L 1259 1875 
L 1259 0 
L 628 0 
L 628 4666 
z
" transform="scale(0.015625)"/>
       </defs>
       <use xlink:href="#DejaVuSans-50"/>
       <use xlink:href="#DejaVuSans-65" transform="translate(56.677734 0)"/>
       <use xlink:href="#DejaVuSans-72" transform="translate(118.201172 0)"/>
       <use xlink:href="#DejaVuSans-69" transform="translate(159.314453 0)"/>
       <use xlink:href="#DejaVuSans-70" transform="translate(187.097656 0)"/>
       <use xlink:href="#DejaVuSans-68" transform="translate(250.574219 0)"/>
       <use xlink:href="#DejaVuSans-65" transform="translate(313.953125 0)"/>
       <use xlink:href="#DejaVuSans-72" transform="translate(375.476562 0)"/>
       <use xlink:href="#DejaVuSans-61" transform="translate(416.589844 0)"/>
       <use xlink:href="#DejaVuSans-6c" transform="translate(477.869141 0)"/>
       <use xlink:href="#DejaVuSans-20" transform="translate(505.652344 0)"/>
       <use xlink:href="#DejaVuSans-4e" transform="translate(537.439453 0)"/>
       <use xlink:href="#DejaVuSans-65" transform="translate(612.244141 0)"/>
       <use xlink:href="#DejaVuSans-72" transform="translate(673.767578 0)"/>
       <use xlink:href="#DejaVuSans-76" transform="translate(714.880859 0)"/>
       <use xlink:href="#DejaVuSans-6f" transform="translate(774.060547 0)"/>
       <use xlink:href="#DejaVuSans-75" transform="translate(835.242188 0)"/>
       <use xlink:href="#DejaVuSans-73" transform="translate(898.621094 0)"/>
       <use xlink:href="#DejaVuSans-20" transform="translate(950.720703 0)"/>
       <use xlink:href="#DejaVuSans-53" transform="translate(982.507812 0)"/>
       <use xlink:href="#DejaVuSans-79" transform="translate(1045.984375 0)"/>
       <use xlink:href="#DejaVuSans-73" transform="translate(1105.164062 0)"/>
       <use xlink:href="#DejaVuSans-74" transform="translate(1157.263672 0)"/>
       <use xlink:href="#DejaVuSans-65" transform="translate(1196.472656 0)"/>
       <use xlink:href="#DejaVuSans-6d" transform="translate(1257.996094 0)"/>
      </g>
     </g>
    </g>
    <g id="xtick_13">
     <g id="line2d_13">
      <g>
       <use xlink:href="#m5b88adad25" x="452.065706" y="248.9792" style="stroke: #000000; stroke-width: 0.8"/>
      </g>
     </g>
     <g id="text_13">
      <!-- Pancreas -->
      <g transform="translate(420.112126 279.211677) rotate(-30) scale(0.08 -0.08)">
       <use xlink:href="#DejaVuSans-50"/>
       <use xlink:href="#DejaVuSans-61" transform="translate(55.802734 0)"/>
       <use xlink:href="#DejaVuSans-6e" transform="translate(117.082031 0)"/>
       <use xlink:href="#DejaVuSans-63" transform="translate(180.460938 0)"/>
       <use xlink:href="#DejaVuSans-72" transform="translate(235.441406 0)"/>
       <use xlink:href="#DejaVuSans-65" transform="translate(274.304688 0)"/>
       <use xlink:href="#DejaVuSans-61" transform="translate(335.828125 0)"/>
       <use xlink:href="#DejaVuSans-73" transform="translate(397.107422 0)"/>
      </g>
     </g>
    </g>
    <g id="xtick_14">
     <g id="line2d_14">
      <g>
       <use xlink:href="#m5b88adad25" x="480.245235" y="248.9792" style="stroke: #000000; stroke-width: 0.8"/>
      </g>
     </g>
     <g id="text_14">
      <!-- Soft Tissue -->
      <g transform="translate(441.728265 283.001052) rotate(-30) scale(0.08 -0.08)">
       <defs>
        <path id="DejaVuSans-66" d="M 2375 4863 
L 2375 4384 
L 1825 4384 
Q 1516 4384 1395 4259 
Q 1275 4134 1275 3809 
L 1275 3500 
L 2222 3500 
L 2222 3053 
L 1275 3053 
L 1275 0 
L 697 0 
L 697 3053 
L 147 3053 
L 147 3500 
L 697 3500 
L 697 3744 
Q 697 4328 969 4595 
Q 1241 4863 1831 4863 
L 2375 4863 
z
" transform="scale(0.015625)"/>
        <path id="DejaVuSans-54" d="M -19 4666 
L 3928 4666 
L 3928 4134 
L 2272 4134 
L 2272 0 
L 1638 0 
L 1638 4134 
L -19 4134 
L -19 4666 
z
" transform="scale(0.015625)"/>
       </defs>
       <use xlink:href="#DejaVuSans-53"/>
       <use xlink:href="#DejaVuSans-6f" transform="translate(63.476562 0)"/>
       <use xlink:href="#DejaVuSans-66" transform="translate(124.658203 0)"/>
       <use xlink:href="#DejaVuSans-74" transform="translate(158.113281 0)"/>
       <use xlink:href="#DejaVuSans-20" transform="translate(197.322266 0)"/>
       <use xlink:href="#DejaVuSans-54" transform="translate(229.109375 0)"/>
       <use xlink:href="#DejaVuSans-69" transform="translate(287.068359 0)"/>
       <use xlink:href="#DejaVuSans-73" transform="translate(314.851562 0)"/>
       <use xlink:href="#DejaVuSans-73" transform="translate(366.951172 0)"/>
       <use xlink:href="#DejaVuSans-75" transform="translate(419.050781 0)"/>
       <use xlink:href="#DejaVuSans-65" transform="translate(482.429688 0)"/>
      </g>
     </g>
    </g>
    <g id="xtick_15">
     <g id="line2d_15">
      <g>
       <use xlink:href="#m5b88adad25" x="508.424765" y="248.9792" style="stroke: #000000; stroke-width: 0.8"/>
      </g>
     </g>
     <g id="text_15">
      <!-- Kidney -->
      <g transform="translate(483.972047 274.881052) rotate(-30) scale(0.08 -0.08)">
       <defs>
        <path id="DejaVuSans-4b" d="M 628 4666 
L 1259 4666 
L 1259 2694 
L 3353 4666 
L 4166 4666 
L 1850 2491 
L 4331 0 
L 3500 0 
L 1259 2247 
L 1259 0 
L 628 0 
L 628 4666 
z
" transform="scale(0.015625)"/>
       </defs>
       <use xlink:href="#DejaVuSans-4b"/>
       <use xlink:href="#DejaVuSans-69" transform="translate(65.576172 0)"/>
       <use xlink:href="#DejaVuSans-64" transform="translate(93.359375 0)"/>
       <use xlink:href="#DejaVuSans-6e" transform="translate(156.835938 0)"/>
       <use xlink:href="#DejaVuSans-65" transform="translate(220.214844 0)"/>
       <use xlink:href="#DejaVuSans-79" transform="translate(281.738281 0)"/>
      </g>
     </g>
    </g>
    <g id="xtick_16">
     <g id="line2d_16">
      <g>
       <use xlink:href="#m5b88adad25" x="536.604294" y="248.9792" style="stroke: #000000; stroke-width: 0.8"/>
      </g>
     </g>
     <g id="text_16">
      <!-- Liver -->
      <g transform="translate(518.775588 271.056677) rotate(-30) scale(0.08 -0.08)">
       <use xlink:href="#DejaVuSans-4c"/>
       <use xlink:href="#DejaVuSans-69" transform="translate(55.712891 0)"/>
       <use xlink:href="#DejaVuSans-76" transform="translate(83.496094 0)"/>
       <use xlink:href="#DejaVuSans-65" transform="translate(142.675781 0)"/>
       <use xlink:href="#DejaVuSans-72" transform="translate(204.199219 0)"/>
      </g>
     </g>
    </g>
    <g id="xtick_17">
     <g id="line2d_17">
      <g>
       <use xlink:href="#m5b88adad25" x="564.783823" y="248.9792" style="stroke: #000000; stroke-width: 0.8"/>
      </g>
     </g>
     <g id="text_17">
      <!-- Thyroid -->
      <g transform="translate(537.974433 276.241677) rotate(-30) scale(0.08 -0.08)">
       <use xlink:href="#DejaVuSans-54"/>
       <use xlink:href="#DejaVuSans-68" transform="translate(61.083984 0)"/>
       <use xlink:href="#DejaVuSans-79" transform="translate(124.462891 0)"/>
       <use xlink:href="#DejaVuSans-72" transform="translate(183.642578 0)"/>
       <use xlink:href="#DejaVuSans-6f" transform="translate(222.505859 0)"/>
       <use xlink:href="#DejaVuSans-69" transform="translate(283.6875 0)"/>
       <use xlink:href="#DejaVuSans-64" transform="translate(311.470703 0)"/>
      </g>
     </g>
    </g>
    <g id="xtick_18">
     <g id="line2d_18">
      <g>
       <use xlink:href="#m5b88adad25" x="592.963352" y="248.9792" style="stroke: #000000; stroke-width: 0.8"/>
      </g>
     </g>
     <g id="text_18">
      <!-- Cervix -->
      <g transform="translate(570.056489 273.988552) rotate(-30) scale(0.08 -0.08)">
       <defs>
        <path id="DejaVuSans-78" d="M 3513 3500 
L 2247 1797 
L 3578 0 
L 2900 0 
L 1881 1375 
L 863 0 
L 184 0 
L 1544 1831 
L 300 3500 
L 978 3500 
L 1906 2253 
L 2834 3500 
L 3513 3500 
z
" transform="scale(0.015625)"/>
       </defs>
       <use xlink:href="#DejaVuSans-43"/>
       <use xlink:href="#DejaVuSans-65" transform="translate(69.824219 0)"/>
       <use xlink:href="#DejaVuSans-72" transform="translate(131.347656 0)"/>
       <use xlink:href="#DejaVuSans-76" transform="translate(172.460938 0)"/>
       <use xlink:href="#DejaVuSans-69" transform="translate(231.640625 0)"/>
       <use xlink:href="#DejaVuSans-78" transform="translate(259.423828 0)"/>
      </g>
     </g>
    </g>
    <g id="xtick_19">
     <g id="line2d_19">
      <g>
       <use xlink:href="#m5b88adad25" x="621.142881" y="248.9792" style="stroke: #000000; stroke-width: 0.8"/>
      </g>
     </g>
     <g id="text_19">
      <!-- Bladder -->
      <g transform="translate(593.479374 276.734802) rotate(-30) scale(0.08 -0.08)">
       <use xlink:href="#DejaVuSans-42"/>
       <use xlink:href="#DejaVuSans-6c" transform="translate(68.603516 0)"/>
       <use xlink:href="#DejaVuSans-61" transform="translate(96.386719 0)"/>
       <use xlink:href="#DejaVuSans-64" transform="translate(157.666016 0)"/>
       <use xlink:href="#DejaVuSans-64" transform="translate(221.142578 0)"/>
       <use xlink:href="#DejaVuSans-65" transform="translate(284.619141 0)"/>
       <use xlink:href="#DejaVuSans-72" transform="translate(346.142578 0)"/>
      </g>
     </g>
    </g>
    <g id="xtick_20">
     <g id="line2d_20">
      <g>
       <use xlink:href="#m5b88adad25" x="649.32241" y="248.9792" style="stroke: #000000; stroke-width: 0.8"/>
      </g>
     </g>
     <g id="text_20">
      <!-- Endometrium -->
      <g transform="translate(601.444788 288.405427) rotate(-30) scale(0.08 -0.08)">
       <use xlink:href="#DejaVuSans-45"/>
       <use xlink:href="#DejaVuSans-6e" transform="translate(63.183594 0)"/>
       <use xlink:href="#DejaVuSans-64" transform="translate(126.5625 0)"/>
       <use xlink:href="#DejaVuSans-6f" transform="translate(190.039062 0)"/>
       <use xlink:href="#DejaVuSans-6d" transform="translate(251.220703 0)"/>
       <use xlink:href="#DejaVuSans-65" transform="translate(348.632812 0)"/>
       <use xlink:href="#DejaVuSans-74" transform="translate(410.15625 0)"/>
       <use xlink:href="#DejaVuSans-72" transform="translate(449.365234 0)"/>
       <use xlink:href="#DejaVuSans-69" transform="translate(490.478516 0)"/>
       <use xlink:href="#DejaVuSans-75" transform="translate(518.261719 0)"/>
       <use xlink:href="#DejaVuSans-6d" transform="translate(581.640625 0)"/>
      </g>
     </g>
    </g>
    <g id="xtick_21">
     <g id="line2d_21">
      <g>
       <use xlink:href="#m5b88adad25" x="677.501939" y="248.9792" style="stroke: #000000; stroke-width: 0.8"/>
      </g>
     </g>
     <g id="text_21">
      <!-- Prostate -->
      <g transform="translate(648.132362 277.719802) rotate(-30) scale(0.08 -0.08)">
       <use xlink:href="#DejaVuSans-50"/>
       <use xlink:href="#DejaVuSans-72" transform="translate(58.552734 0)"/>
       <use xlink:href="#DejaVuSans-6f" transform="translate(97.416016 0)"/>
       <use xlink:href="#DejaVuSans-73" transform="translate(158.597656 0)"/>
       <use xlink:href="#DejaVuSans-74" transform="translate(210.697266 0)"/>
       <use xlink:href="#DejaVuSans-61" transform="translate(249.90625 0)"/>
       <use xlink:href="#DejaVuSans-74" transform="translate(311.185547 0)"/>
       <use xlink:href="#DejaVuSans-65" transform="translate(350.394531 0)"/>
      </g>
     </g>
    </g>
    <g id="xtick_22">
     <g id="line2d_22">
      <g>
       <use xlink:href="#m5b88adad25" x="705.681468" y="248.9792" style="stroke: #000000; stroke-width: 0.8"/>
      </g>
     </g>
     <g id="text_22">
      <!-- Other tissue -->
      <g transform="translate(662.463062 285.715427) rotate(-30) scale(0.08 -0.08)">
       <use xlink:href="#DejaVuSans-4f"/>
       <use xlink:href="#DejaVuSans-74" transform="translate(78.710938 0)"/>
       <use xlink:href="#DejaVuSans-68" transform="translate(117.919922 0)"/>
       <use xlink:href="#DejaVuSans-65" transform="translate(181.298828 0)"/>
       <use xlink:href="#DejaVuSans-72" transform="translate(242.822266 0)"/>
       <use xlink:href="#DejaVuSans-20" transform="translate(283.935547 0)"/>
       <use xlink:href="#DejaVuSans-74" transform="translate(315.722656 0)"/>
       <use xlink:href="#DejaVuSans-69" transform="translate(354.931641 0)"/>
       <use xlink:href="#DejaVuSans-73" transform="translate(382.714844 0)"/>
       <use xlink:href="#DejaVuSans-73" transform="translate(434.814453 0)"/>
       <use xlink:href="#DejaVuSans-75" transform="translate(486.914062 0)"/>
       <use xlink:href="#DejaVuSans-65" transform="translate(550.292969 0)"/>
      </g>
     </g>
    </g>
    <g id="xtick_23">
     <g id="line2d_23">
      <g>
       <use xlink:href="#m5b88adad25" x="733.860997" y="248.9792" style="stroke: #000000; stroke-width: 0.8"/>
      </g>
     </g>
     <g id="text_23">
      <!-- Biliary Tract -->
      <g transform="translate(692.276132 284.772302) rotate(-30) scale(0.08 -0.08)">
       <use xlink:href="#DejaVuSans-42"/>
       <use xlink:href="#DejaVuSans-69" transform="translate(68.603516 0)"/>
       <use xlink:href="#DejaVuSans-6c" transform="translate(96.386719 0)"/>
       <use xlink:href="#DejaVuSans-69" transform="translate(124.169922 0)"/>
       <use xlink:href="#DejaVuSans-61" transform="translate(151.953125 0)"/>
       <use xlink:href="#DejaVuSans-72" transform="translate(213.232422 0)"/>
       <use xlink:href="#DejaVuSans-79" transform="translate(254.345703 0)"/>
       <use xlink:href="#DejaVuSans-20" transform="translate(313.525391 0)"/>
       <use xlink:href="#DejaVuSans-54" transform="translate(345.3125 0)"/>
       <use xlink:href="#DejaVuSans-72" transform="translate(391.646484 0)"/>
       <use xlink:href="#DejaVuSans-61" transform="translate(432.759766 0)"/>
       <use xlink:href="#DejaVuSans-63" transform="translate(494.039062 0)"/>
       <use xlink:href="#DejaVuSans-74" transform="translate(549.019531 0)"/>
      </g>
     </g>
    </g>
    <g id="xtick_24">
     <g id="line2d_24">
      <g>
       <use xlink:href="#m5b88adad25" x="762.040526" y="248.9792" style="stroke: #000000; stroke-width: 0.8"/>
      </g>
     </g>
     <g id="text_24">
      <!-- Testis -->
      <g transform="translate(742.032684 272.314802) rotate(-30) scale(0.08 -0.08)">
       <use xlink:href="#DejaVuSans-54"/>
       <use xlink:href="#DejaVuSans-65" transform="translate(44.083984 0)"/>
       <use xlink:href="#DejaVuSans-73" transform="translate(105.607422 0)"/>
       <use xlink:href="#DejaVuSans-74" transform="translate(157.707031 0)"/>
       <use xlink:href="#DejaVuSans-69" transform="translate(196.916016 0)"/>
       <use xlink:href="#DejaVuSans-73" transform="translate(224.699219 0)"/>
      </g>
     </g>
    </g>
    <g id="xtick_25">
     <g id="line2d_25">
      <g>
       <use xlink:href="#m5b88adad25" x="790.220056" y="248.9792" style="stroke: #000000; stroke-width: 0.8"/>
      </g>
     </g>
     <g id="text_25">
      <!-- Vulva -->
      <g transform="translate(770.4547 272.174802) rotate(-30) scale(0.08 -0.08)">
       <defs>
        <path id="DejaVuSans-56" d="M 1831 0 
L 50 4666 
L 709 4666 
L 2188 738 
L 3669 4666 
L 4325 4666 
L 2547 0 
L 1831 0 
z
" transform="scale(0.015625)"/>
       </defs>
       <use xlink:href="#DejaVuSans-56"/>
       <use xlink:href="#DejaVuSans-75" transform="translate(61.658203 0)"/>
       <use xlink:href="#DejaVuSans-6c" transform="translate(125.037109 0)"/>
       <use xlink:href="#DejaVuSans-76" transform="translate(152.820312 0)"/>
       <use xlink:href="#DejaVuSans-61" transform="translate(212 0)"/>
      </g>
     </g>
    </g>
    <g id="xtick_26">
     <g id="line2d_26">
      <g>
       <use xlink:href="#m5b88adad25" x="818.399585" y="248.9792" style="stroke: #000000; stroke-width: 0.8"/>
      </g>
     </g>
     <g id="text_26">
      <!-- Placenta -->
      <g transform="translate(787.794839 278.432927) rotate(-30) scale(0.08 -0.08)">
       <use xlink:href="#DejaVuSans-50"/>
       <use xlink:href="#DejaVuSans-6c" transform="translate(60.302734 0)"/>
       <use xlink:href="#DejaVuSans-61" transform="translate(88.085938 0)"/>
       <use xlink:href="#DejaVuSans-63" transform="translate(149.365234 0)"/>
       <use xlink:href="#DejaVuSans-65" transform="translate(204.345703 0)"/>
       <use xlink:href="#DejaVuSans-6e" transform="translate(265.869141 0)"/>
       <use xlink:href="#DejaVuSans-74" transform="translate(329.248047 0)"/>
       <use xlink:href="#DejaVuSans-61" transform="translate(368.457031 0)"/>
      </g>
     </g>
    </g>
    <g id="xtick_27">
     <g id="line2d_27">
      <g>
       <use xlink:href="#m5b88adad25" x="846.579114" y="248.9792" style="stroke: #000000; stroke-width: 0.8"/>
      </g>
     </g>
     <g id="text_27">
      <!-- Small Intestine -->
      <g transform="translate(793.985983 291.127927) rotate(-30) scale(0.08 -0.08)">
       <use xlink:href="#DejaVuSans-53"/>
       <use xlink:href="#DejaVuSans-6d" transform="translate(63.476562 0)"/>
       <use xlink:href="#DejaVuSans-61" transform="translate(160.888672 0)"/>
       <use xlink:href="#DejaVuSans-6c" transform="translate(222.167969 0)"/>
       <use xlink:href="#DejaVuSans-6c" transform="translate(249.951172 0)"/>
       <use xlink:href="#DejaVuSans-20" transform="translate(277.734375 0)"/>
       <use xlink:href="#DejaVuSans-49" transform="translate(309.521484 0)"/>
       <use xlink:href="#DejaVuSans-6e" transform="translate(339.013672 0)"/>
       <use xlink:href="#DejaVuSans-74" transform="translate(402.392578 0)"/>
       <use xlink:href="#DejaVuSans-65" transform="translate(441.601562 0)"/>
       <use xlink:href="#DejaVuSans-73" transform="translate(503.125 0)"/>
       <use xlink:href="#DejaVuSans-74" transform="translate(555.224609 0)"/>
       <use xlink:href="#DejaVuSans-69" transform="translate(594.433594 0)"/>
       <use xlink:href="#DejaVuSans-6e" transform="translate(622.216797 0)"/>
       <use xlink:href="#DejaVuSans-65" transform="translate(685.595703 0)"/>
      </g>
     </g>
    </g>
    <g id="xtick_28">
     <g id="line2d_28">
      <g>
       <use xlink:href="#m5b88adad25" x="874.758643" y="248.9792" style="stroke: #000000; stroke-width: 0.8"/>
      </g>
     </g>
     <g id="text_28">
      <!-- Adrenal Gland -->
      <g transform="translate(824.864264 289.569802) rotate(-30) scale(0.08 -0.08)">
       <defs>
        <path id="DejaVuSans-41" d="M 2188 4044 
L 1331 1722 
L 3047 1722 
L 2188 4044 
z
M 1831 4666 
L 2547 4666 
L 4325 0 
L 3669 0 
L 3244 1197 
L 1141 1197 
L 716 0 
L 50 0 
L 1831 4666 
z
" transform="scale(0.015625)"/>
        <path id="DejaVuSans-47" d="M 3809 666 
L 3809 1919 
L 2778 1919 
L 2778 2438 
L 4434 2438 
L 4434 434 
Q 4069 175 3628 42 
Q 3188 -91 2688 -91 
Q 1594 -91 976 548 
Q 359 1188 359 2328 
Q 359 3472 976 4111 
Q 1594 4750 2688 4750 
Q 3144 4750 3555 4637 
Q 3966 4525 4313 4306 
L 4313 3634 
Q 3963 3931 3569 4081 
Q 3175 4231 2741 4231 
Q 1884 4231 1454 3753 
Q 1025 3275 1025 2328 
Q 1025 1384 1454 906 
Q 1884 428 2741 428 
Q 3075 428 3337 486 
Q 3600 544 3809 666 
z
" transform="scale(0.015625)"/>
       </defs>
       <use xlink:href="#DejaVuSans-41"/>
       <use xlink:href="#DejaVuSans-64" transform="translate(66.658203 0)"/>
       <use xlink:href="#DejaVuSans-72" transform="translate(130.134766 0)"/>
       <use xlink:href="#DejaVuSans-65" transform="translate(168.998047 0)"/>
       <use xlink:href="#DejaVuSans-6e" transform="translate(230.521484 0)"/>
       <use xlink:href="#DejaVuSans-61" transform="translate(293.900391 0)"/>
       <use xlink:href="#DejaVuSans-6c" transform="translate(355.179688 0)"/>
       <use xlink:href="#DejaVuSans-20" transform="translate(382.962891 0)"/>
       <use xlink:href="#DejaVuSans-47" transform="translate(414.75 0)"/>
       <use xlink:href="#DejaVuSans-6c" transform="translate(492.240234 0)"/>
       <use xlink:href="#DejaVuSans-61" transform="translate(520.023438 0)"/>
       <use xlink:href="#DejaVuSans-6e" transform="translate(581.302734 0)"/>
       <use xlink:href="#DejaVuSans-64" transform="translate(644.681641 0)"/>
      </g>
     </g>
    </g>
   </g>
   <g id="matplotlib.axis_2">
    <g id="ytick_1">
     <g id="line2d_29">
      <defs>
       <path id="m548ee6cad6" d="M 0 0 
L -3.5 0 
" style="stroke: #000000; stroke-width: 0.8"/>
      </defs>
      <g>
       <use xlink:href="#m548ee6cad6" x="63.47" y="248.9792" style="stroke: #000000; stroke-width: 0.8"/>
      </g>
     </g>
     <g id="text_29">
      <!-- 0 -->
      <g transform="translate(50.1075 252.778419) scale(0.1 -0.1)">
       <defs>
        <path id="DejaVuSans-30" d="M 2034 4250 
Q 1547 4250 1301 3770 
Q 1056 3291 1056 2328 
Q 1056 1369 1301 889 
Q 1547 409 2034 409 
Q 2525 409 2770 889 
Q 3016 1369 3016 2328 
Q 3016 3291 2770 3770 
Q 2525 4250 2034 4250 
z
M 2034 4750 
Q 2819 4750 3233 4129 
Q 3647 3509 3647 2328 
Q 3647 1150 3233 529 
Q 2819 -91 2034 -91 
Q 1250 -91 836 529 
Q 422 1150 422 2328 
Q 422 3509 836 4129 
Q 1250 4750 2034 4750 
z
" transform="scale(0.015625)"/>
       </defs>
       <use xlink:href="#DejaVuSans-30"/>
      </g>
     </g>
    </g>
    <g id="ytick_2">
     <g id="line2d_30">
      <g>
       <use xlink:href="#m548ee6cad6" x="63.47" y="201.91356" style="stroke: #000000; stroke-width: 0.8"/>
      </g>
     </g>
     <g id="text_30">
      <!-- 2000 -->
      <g transform="translate(31.02 205.712779) scale(0.1 -0.1)">
       <defs>
        <path id="DejaVuSans-32" d="M 1228 531 
L 3431 531 
L 3431 0 
L 469 0 
L 469 531 
Q 828 903 1448 1529 
Q 2069 2156 2228 2338 
Q 2531 2678 2651 2914 
Q 2772 3150 2772 3378 
Q 2772 3750 2511 3984 
Q 2250 4219 1831 4219 
Q 1534 4219 1204 4116 
Q 875 4013 500 3803 
L 500 4441 
Q 881 4594 1212 4672 
Q 1544 4750 1819 4750 
Q 2544 4750 2975 4387 
Q 3406 4025 3406 3419 
Q 3406 3131 3298 2873 
Q 3191 2616 2906 2266 
Q 2828 2175 2409 1742 
Q 1991 1309 1228 531 
z
" transform="scale(0.015625)"/>
       </defs>
       <use xlink:href="#DejaVuSans-32"/>
       <use xlink:href="#DejaVuSans-30" transform="translate(63.623047 0)"/>
       <use xlink:href="#DejaVuSans-30" transform="translate(127.246094 0)"/>
       <use xlink:href="#DejaVuSans-30" transform="translate(190.869141 0)"/>
      </g>
     </g>
    </g>
    <g id="ytick_3">
     <g id="line2d_31">
      <g>
       <use xlink:href="#m548ee6cad6" x="63.47" y="154.84792" style="stroke: #000000; stroke-width: 0.8"/>
      </g>
     </g>
     <g id="text_31">
      <!-- 4000 -->
      <g transform="translate(31.02 158.647139) scale(0.1 -0.1)">
       <defs>
        <path id="DejaVuSans-34" d="M 2419 4116 
L 825 1625 
L 2419 1625 
L 2419 4116 
z
M 2253 4666 
L 3047 4666 
L 3047 1625 
L 3713 1625 
L 3713 1100 
L 3047 1100 
L 3047 0 
L 2419 0 
L 2419 1100 
L 313 1100 
L 313 1709 
L 2253 4666 
z
" transform="scale(0.015625)"/>
       </defs>
       <use xlink:href="#DejaVuSans-34"/>
       <use xlink:href="#DejaVuSans-30" transform="translate(63.623047 0)"/>
       <use xlink:href="#DejaVuSans-30" transform="translate(127.246094 0)"/>
       <use xlink:href="#DejaVuSans-30" transform="translate(190.869141 0)"/>
      </g>
     </g>
    </g>
    <g id="ytick_4">
     <g id="line2d_32">
      <g>
       <use xlink:href="#m548ee6cad6" x="63.47" y="107.782281" style="stroke: #000000; stroke-width: 0.8"/>
      </g>
     </g>
     <g id="text_32">
      <!-- 6000 -->
      <g transform="translate(31.02 111.581499) scale(0.1 -0.1)">
       <defs>
        <path id="DejaVuSans-36" d="M 2113 2584 
Q 1688 2584 1439 2293 
Q 1191 2003 1191 1497 
Q 1191 994 1439 701 
Q 1688 409 2113 409 
Q 2538 409 2786 701 
Q 3034 994 3034 1497 
Q 3034 2003 2786 2293 
Q 2538 2584 2113 2584 
z
M 3366 4563 
L 3366 3988 
Q 3128 4100 2886 4159 
Q 2644 4219 2406 4219 
Q 1781 4219 1451 3797 
Q 1122 3375 1075 2522 
Q 1259 2794 1537 2939 
Q 1816 3084 2150 3084 
Q 2853 3084 3261 2657 
Q 3669 2231 3669 1497 
Q 3669 778 3244 343 
Q 2819 -91 2113 -91 
Q 1303 -91 875 529 
Q 447 1150 447 2328 
Q 447 3434 972 4092 
Q 1497 4750 2381 4750 
Q 2619 4750 2861 4703 
Q 3103 4656 3366 4563 
z
" transform="scale(0.015625)"/>
       </defs>
       <use xlink:href="#DejaVuSans-36"/>
       <use xlink:href="#DejaVuSans-30" transform="translate(63.623047 0)"/>
       <use xlink:href="#DejaVuSans-30" transform="translate(127.246094 0)"/>
       <use xlink:href="#DejaVuSans-30" transform="translate(190.869141 0)"/>
      </g>
     </g>
    </g>
    <g id="ytick_5">
     <g id="line2d_33">
      <g>
       <use xlink:href="#m548ee6cad6" x="63.47" y="60.716641" style="stroke: #000000; stroke-width: 0.8"/>
      </g>
     </g>
     <g id="text_33">
      <!-- 8000 -->
      <g transform="translate(31.02 64.51586) scale(0.1 -0.1)">
       <defs>
        <path id="DejaVuSans-38" d="M 2034 2216 
Q 1584 2216 1326 1975 
Q 1069 1734 1069 1313 
Q 1069 891 1326 650 
Q 1584 409 2034 409 
Q 2484 409 2743 651 
Q 3003 894 3003 1313 
Q 3003 1734 2745 1975 
Q 2488 2216 2034 2216 
z
M 1403 2484 
Q 997 2584 770 2862 
Q 544 3141 544 3541 
Q 544 4100 942 4425 
Q 1341 4750 2034 4750 
Q 2731 4750 3128 4425 
Q 3525 4100 3525 3541 
Q 3525 3141 3298 2862 
Q 3072 2584 2669 2484 
Q 3125 2378 3379 2068 
Q 3634 1759 3634 1313 
Q 3634 634 3220 271 
Q 2806 -91 2034 -91 
Q 1263 -91 848 271 
Q 434 634 434 1313 
Q 434 1759 690 2068 
Q 947 2378 1403 2484 
z
M 1172 3481 
Q 1172 3119 1398 2916 
Q 1625 2713 2034 2713 
Q 2441 2713 2670 2916 
Q 2900 3119 2900 3481 
Q 2900 3844 2670 4047 
Q 2441 4250 2034 4250 
Q 1625 4250 1398 4047 
Q 1172 3844 1172 3481 
z
" transform="scale(0.015625)"/>
       </defs>
       <use xlink:href="#DejaVuSans-38"/>
       <use xlink:href="#DejaVuSans-30" transform="translate(63.623047 0)"/>
       <use xlink:href="#DejaVuSans-30" transform="translate(127.246094 0)"/>
       <use xlink:href="#DejaVuSans-30" transform="translate(190.869141 0)"/>
      </g>
     </g>
    </g>
    <g id="ytick_6">
     <g id="line2d_34">
      <g>
       <use xlink:href="#m548ee6cad6" x="63.47" y="13.651001" style="stroke: #000000; stroke-width: 0.8"/>
      </g>
     </g>
     <g id="text_34">
      <!-- 10000 -->
      <g transform="translate(24.6575 17.45022) scale(0.1 -0.1)">
       <defs>
        <path id="DejaVuSans-31" d="M 794 531 
L 1825 531 
L 1825 4091 
L 703 3866 
L 703 4441 
L 1819 4666 
L 2450 4666 
L 2450 531 
L 3481 531 
L 3481 0 
L 794 0 
L 794 531 
z
" transform="scale(0.015625)"/>
       </defs>
       <use xlink:href="#DejaVuSans-31"/>
       <use xlink:href="#DejaVuSans-30" transform="translate(63.623047 0)"/>
       <use xlink:href="#DejaVuSans-30" transform="translate(127.246094 0)"/>
       <use xlink:href="#DejaVuSans-30" transform="translate(190.869141 0)"/>
       <use xlink:href="#DejaVuSans-30" transform="translate(254.492188 0)"/>
      </g>
     </g>
    </g>
    <g id="text_35">
     <!-- Distinct protein groups detected -->
     <g transform="translate(18.577813 210.87085) rotate(-90) scale(0.1 -0.1)">
      <defs>
       <path id="DejaVuSans-44" d="M 1259 4147 
L 1259 519 
L 2022 519 
Q 2988 519 3436 956 
Q 3884 1394 3884 2338 
Q 3884 3275 3436 3711 
Q 2988 4147 2022 4147 
L 1259 4147 
z
M 628 4666 
L 1925 4666 
Q 3281 4666 3915 4102 
Q 4550 3538 4550 2338 
Q 4550 1131 3912 565 
Q 3275 0 1925 0 
L 628 0 
L 628 4666 
z
" transform="scale(0.015625)"/>
      </defs>
      <use xlink:href="#DejaVuSans-44"/>
      <use xlink:href="#DejaVuSans-69" transform="translate(77.001953 0)"/>
      <use xlink:href="#DejaVuSans-73" transform="translate(104.785156 0)"/>
      <use xlink:href="#DejaVuSans-74" transform="translate(156.884766 0)"/>
      <use xlink:href="#DejaVuSans-69" transform="translate(196.09375 0)"/>
      <use xlink:href="#DejaVuSans-6e" transform="translate(223.876953 0)"/>
      <use xlink:href="#DejaVuSans-63" transform="translate(287.255859 0)"/>
      <use xlink:href="#DejaVuSans-74" transform="translate(342.236328 0)"/>
      <use xlink:href="#DejaVuSans-20" transform="translate(381.445312 0)"/>
      <use xlink:href="#DejaVuSans-70" transform="translate(413.232422 0)"/>
      <use xlink:href="#DejaVuSans-72" transform="translate(476.708984 0)"/>
      <use xlink:href="#DejaVuSans-6f" transform="translate(515.572266 0)"/>
      <use xlink:href="#DejaVuSans-74" transform="translate(576.753906 0)"/>
      <use xlink:href="#DejaVuSans-65" transform="translate(615.962891 0)"/>
      <use xlink:href="#DejaVuSans-69" transform="translate(677.486328 0)"/>
      <use xlink:href="#DejaVuSans-6e" transform="translate(705.269531 0)"/>
      <use xlink:href="#DejaVuSans-20" transform="translate(768.648438 0)"/>
      <use xlink:href="#DejaVuSans-67" transform="translate(800.435547 0)"/>
      <use xlink:href="#DejaVuSans-72" transform="translate(863.912109 0)"/>
      <use xlink:href="#DejaVuSans-6f" transform="translate(902.775391 0)"/>
      <use xlink:href="#DejaVuSans-75" transform="translate(963.957031 0)"/>
      <use xlink:href="#DejaVuSans-70" transform="translate(1027.335938 0)"/>
      <use xlink:href="#DejaVuSans-73" transform="translate(1090.8125 0)"/>
      <use xlink:href="#DejaVuSans-20" transform="translate(1142.912109 0)"/>
      <use xlink:href="#DejaVuSans-64" transform="translate(1174.699219 0)"/>
      <use xlink:href="#DejaVuSans-65" transform="translate(1238.175781 0)"/>
      <use xlink:href="#DejaVuSans-74" transform="translate(1299.699219 0)"/>
      <use xlink:href="#DejaVuSans-65" transform="translate(1338.908203 0)"/>
      <use xlink:href="#DejaVuSans-63" transform="translate(1400.431641 0)"/>
      <use xlink:href="#DejaVuSans-74" transform="translate(1455.412109 0)"/>
      <use xlink:href="#DejaVuSans-65" transform="translate(1494.621094 0)"/>
      <use xlink:href="#DejaVuSans-64" transform="translate(1556.144531 0)"/>
     </g>
    </g>
   </g>
   <g id="patch_59">
    <path d="M 63.47 248.9792 
L 63.47 10.8 
" style="fill: none; stroke: #000000; stroke-width: 0.8; stroke-linejoin: miter; stroke-linecap: square"/>
   </g>
   <g id="patch_60">
    <path d="M 63.47 248.9792 
L 925.2 248.9792 
" style="fill: none; stroke: #000000; stroke-width: 0.8; stroke-linejoin: miter; stroke-linecap: square"/>
   </g>
   <g id="legend_1">
    <g id="patch_61">
     <path d="M 324.812344 332.267813 
L 344.812344 332.267813 
L 344.812344 325.267813 
L 324.812344 325.267813 
z
" style="fill: #9e9e9e"/>
    </g>
    <g id="text_36">
     <!-- ProCan-DepMapSanger 2022 -->
     <g transform="translate(352.812344 332.267813) scale(0.1 -0.1)">
      <defs>
       <path id="DejaVuSans-2d" d="M 313 2009 
L 1997 2009 
L 1997 1497 
L 313 1497 
L 313 2009 
z
" transform="scale(0.015625)"/>
       <path id="DejaVuSans-4d" d="M 628 4666 
L 1569 4666 
L 2759 1491 
L 3956 4666 
L 4897 4666 
L 4897 0 
L 4281 0 
L 4281 4097 
L 3078 897 
L 2444 897 
L 1241 4097 
L 1241 0 
L 628 0 
L 628 4666 
z
" transform="scale(0.015625)"/>
      </defs>
      <use xlink:href="#DejaVuSans-50"/>
      <use xlink:href="#DejaVuSans-72" transform="translate(58.552734 0)"/>
      <use xlink:href="#DejaVuSans-6f" transform="translate(97.416016 0)"/>
      <use xlink:href="#DejaVuSans-43" transform="translate(158.597656 0)"/>
      <use xlink:href="#DejaVuSans-61" transform="translate(228.421875 0)"/>
      <use xlink:href="#DejaVuSans-6e" transform="translate(289.701172 0)"/>
      <use xlink:href="#DejaVuSans-2d" transform="translate(353.080078 0)"/>
      <use xlink:href="#DejaVuSans-44" transform="translate(389.164062 0)"/>
      <use xlink:href="#DejaVuSans-65" transform="translate(466.166016 0)"/>
      <use xlink:href="#DejaVuSans-70" transform="translate(527.689453 0)"/>
      <use xlink:href="#DejaVuSans-4d" transform="translate(591.166016 0)"/>
      <use xlink:href="#DejaVuSans-61" transform="translate(677.445312 0)"/>
      <use xlink:href="#DejaVuSans-70" transform="translate(738.724609 0)"/>
      <use xlink:href="#DejaVuSans-53" transform="translate(802.201172 0)"/>
      <use xlink:href="#DejaVuSans-61" transform="translate(865.677734 0)"/>
      <use xlink:href="#DejaVuSans-6e" transform="translate(926.957031 0)"/>
      <use xlink:href="#DejaVuSans-67" transform="translate(990.335938 0)"/>
      <use xlink:href="#DejaVuSans-65" transform="translate(1053.8125 0)"/>
      <use xlink:href="#DejaVuSans-72" transform="translate(1115.335938 0)"/>
      <use xlink:href="#DejaVuSans-20" transform="translate(1156.449219 0)"/>
      <use xlink:href="#DejaVuSans-32" transform="translate(1188.236328 0)"/>
      <use xlink:href="#DejaVuSans-30" transform="translate(1251.859375 0)"/>
      <use xlink:href="#DejaVuSans-32" transform="translate(1315.482422 0)"/>
      <use xlink:href="#DejaVuSans-32" transform="translate(1379.105469 0)"/>
     </g>
    </g>
    <g id="patch_62">
     <path d="M 517.088906 332.267813 
L 537.088906 332.267813 
L 537.088906 325.267813 
L 517.088906 325.267813 
z
" style="fill: #1f77b4"/>
    </g>
    <g id="text_37">
     <!-- quantmsdiann (DIA-NN) -->
     <g transform="translate(545.088906 332.267813) scale(0.1 -0.1)">
      <defs>
       <path id="DejaVuSans-71" d="M 947 1747 
Q 947 1113 1208 752 
Q 1469 391 1925 391 
Q 2381 391 2643 752 
Q 2906 1113 2906 1747 
Q 2906 2381 2643 2742 
Q 2381 3103 1925 3103 
Q 1469 3103 1208 2742 
Q 947 2381 947 1747 
z
M 2906 525 
Q 2725 213 2448 61 
Q 2172 -91 1784 -91 
Q 1150 -91 751 415 
Q 353 922 353 1747 
Q 353 2572 751 3078 
Q 1150 3584 1784 3584 
Q 2172 3584 2448 3432 
Q 2725 3281 2906 2969 
L 2906 3500 
L 3481 3500 
L 3481 -1331 
L 2906 -1331 
L 2906 525 
z
" transform="scale(0.015625)"/>
       <path id="DejaVuSans-28" d="M 1984 4856 
Q 1566 4138 1362 3434 
Q 1159 2731 1159 2009 
Q 1159 1288 1364 580 
Q 1569 -128 1984 -844 
L 1484 -844 
Q 1016 -109 783 600 
Q 550 1309 550 2009 
Q 550 2706 781 3412 
Q 1013 4119 1484 4856 
L 1984 4856 
z
" transform="scale(0.015625)"/>
       <path id="DejaVuSans-29" d="M 513 4856 
L 1013 4856 
Q 1481 4119 1714 3412 
Q 1947 2706 1947 2009 
Q 1947 1309 1714 600 
Q 1481 -109 1013 -844 
L 513 -844 
Q 928 -128 1133 580 
Q 1338 1288 1338 2009 
Q 1338 2731 1133 3434 
Q 928 4138 513 4856 
z
" transform="scale(0.015625)"/>
      </defs>
      <use xlink:href="#DejaVuSans-71"/>
      <use xlink:href="#DejaVuSans-75" transform="translate(63.476562 0)"/>
      <use xlink:href="#DejaVuSans-61" transform="translate(126.855469 0)"/>
      <use xlink:href="#DejaVuSans-6e" transform="translate(188.134766 0)"/>
      <use xlink:href="#DejaVuSans-74" transform="translate(251.513672 0)"/>
      <use xlink:href="#DejaVuSans-6d" transform="translate(290.722656 0)"/>
      <use xlink:href="#DejaVuSans-73" transform="translate(388.134766 0)"/>
      <use xlink:href="#DejaVuSans-64" transform="translate(440.234375 0)"/>
      <use xlink:href="#DejaVuSans-69" transform="translate(503.710938 0)"/>
      <use xlink:href="#DejaVuSans-61" transform="translate(531.494141 0)"/>
      <use xlink:href="#DejaVuSans-6e" transform="translate(592.773438 0)"/>
      <use xlink:href="#DejaVuSans-6e" transform="translate(656.152344 0)"/>
      <use xlink:href="#DejaVuSans-20" transform="translate(719.53125 0)"/>
      <use xlink:href="#DejaVuSans-28" transform="translate(751.318359 0)"/>
      <use xlink:href="#DejaVuSans-44" transform="translate(790.332031 0)"/>
      <use xlink:href="#DejaVuSans-49" transform="translate(867.333984 0)"/>
      <use xlink:href="#DejaVuSans-41" transform="translate(896.826172 0)"/>
      <use xlink:href="#DejaVuSans-2d" transform="translate(962.984375 0)"/>
      <use xlink:href="#DejaVuSans-4e" transform="translate(999.068359 0)"/>
      <use xlink:href="#DejaVuSans-4e" transform="translate(1073.873047 0)"/>
      <use xlink:href="#DejaVuSans-29" transform="translate(1148.677734 0)"/>
     </g>
    </g>
   </g>
  </g>
 </g>
 <defs>
  <clipPath id="p2eb9182f60">
   <rect x="63.47" y="10.8" width="861.73" height="238.1792"/>
  </clipPath>
 </defs>
</svg>
